<?xml version="1.0" standalone="no"?>
<!DOCTYPE svg PUBLIC "-//W3C//DTD SVG 1.1//EN" "http://www.w3.org/Graphics/SVG/1.1/DTD/svg11.dtd" >
<svg xmlns="http://www.w3.org/2000/svg">
<metadata></metadata>
<defs>
<font id="core_rhino_55_mediumregular" horiz-adv-x="1181" >
<font-face units-per-em="2048" ascent="1638" descent="-410" />
<missing-glyph horiz-adv-x="614" />
<glyph unicode="&#xfb01;" horiz-adv-x="1390" d="M61 975q0 63 15 119h192v51q0 183 91 279t235 96q92 0 162.5 -36.5t70.5 -74.5q0 -25 -9 -54t-21 -44q-53 20 -146 20q-80 0 -121 -41.5t-41 -138.5v-57h641q52 0 52 -66v-756q0 -58 16 -83t53 -25h52q12 -38 12 -78q0 -37 -43 -68.5t-111 -31.5q-40 0 -74 12.5 t-63.5 41.5t-46 83t-16.5 129v657h-472v-909h-155q-35 0 -50.5 12t-15.5 39v858h-155q-52 0 -52 66zM938 1380q0 59 35 94t90 35t94 -38t39 -99q0 -60 -35 -94.5t-92 -34.5q-53 0 -92 38t-39 99z" />
<glyph unicode="&#xfb02;" horiz-adv-x="1484" d="M61 975q0 63 15 119h192v30q0 200 99 298t301 98q172 0 313 -76v45q73 20 154 20q67 0 67 -51v-1151q0 -75 29.5 -109t87.5 -34q67 0 119 22q26 -43 26 -86q0 -39 -57.5 -76.5t-151.5 -37.5q-135 0 -204.5 86.5t-69.5 242.5v975q-112 41 -252 41q-98 0 -150 -21t-71 -63 t-19 -119v-34h306q27 0 39 -15.5t12 -50.5v-119h-357v-909h-155q-35 0 -50.5 12t-15.5 39v858h-155q-52 0 -52 66z" />
<glyph horiz-adv-x="682" />
<glyph horiz-adv-x="0" />
<glyph horiz-adv-x="0" />
<glyph unicode="&#xd;" horiz-adv-x="485" />
<glyph unicode=" "  horiz-adv-x="614" />
<glyph unicode="&#x09;" horiz-adv-x="614" />
<glyph unicode="&#xa0;" horiz-adv-x="614" />
<glyph unicode="!" horiz-adv-x="630" d="M174 127q0 64 38 101.5t99 37.5q60 0 103 -41.5t43 -109.5q0 -64 -38.5 -102t-99.5 -38q-59 0 -102 42t-43 110zM188 1161v266q89 21 179 21q75 0 75 -55v-232q0 -378 -32 -788h-125q-34 0 -48.5 12t-17.5 39q-31 353 -31 737z" />
<glyph unicode="&#x22;" horiz-adv-x="1052" d="M205 1425q84 23 184 23q40 0 58.5 -13.5t17.5 -41.5l-35 -539h-133q-35 0 -50.5 12t-15.5 39zM586 1425q84 23 184 23q40 0 58.5 -13.5t17.5 -41.5l-35 -539h-133q-35 0 -50.5 12t-15.5 39z" />
<glyph unicode="#" horiz-adv-x="1433" d="M92 418q0 61 17 131h219l57 336h-166q-27 0 -39 15t-12 50q0 65 16 131h234l59 346q74 21 160 21q36 0 51.5 -12.5t11.5 -38.5l-55 -316h268l60 346q73 21 160 21q36 0 51.5 -12.5t11.5 -38.5l-55 -316h149q27 0 39 -15t12 -50v-131h-233l-57 -336h163q52 0 52 -66v-131 h-250l-60 -352h-153q-39 0 -54 15t-10 46l49 291h-268l-59 -352h-154q-39 0 -53.5 14.5t-9.5 46.5l49 291h-150q-27 0 -39 15.5t-12 50.5zM555 549h268l58 336h-269z" />
<glyph unicode="$" horiz-adv-x="1218" d="M123 1057q0 153 101.5 259t269.5 134v197q62 16 131 16t69 -51v-160q127 -19 224 -80.5t143 -138.5q29 -50 29 -80q0 -37 -39 -57q-62 -33 -164 -41q-34 97 -107 149.5t-178 52.5q-106 0 -174 -54.5t-68 -143.5q0 -86 76 -148t262 -116q408 -119 408 -424 q0 -151 -102 -254t-279 -131v-215h-135q-35 0 -50.5 12t-15.5 39v158q-148 11 -247 62.5t-99 102.5q0 55 31 107q162 -76 358 -76q147 0 224 50t77 136q0 85 -59 137t-209 93q-234 64 -355.5 176.5t-121.5 288.5z" />
<glyph unicode="%" horiz-adv-x="1814" d="M102 1090q0 163 101 261.5t248 98.5t247.5 -98.5t100.5 -261.5t-100.5 -262t-247.5 -99t-248 99t-101 262zM297 1098q0 -93 45.5 -148t118.5 -55q65 0 104 51.5t39 138.5q0 93 -44.5 148t-117.5 55q-66 0 -105.5 -51.5t-39.5 -138.5zM539 61l575 1373h100q39 0 52 -17 t2 -45l-576 -1372h-100q-77 0 -53 61zM1016 344q0 163 100.5 262t247.5 99t247.5 -99t100.5 -262t-100.5 -261.5t-247.5 -98.5t-247.5 98.5t-100.5 261.5zM1210 352q0 -93 45.5 -147.5t118.5 -54.5q65 0 104.5 51.5t39.5 138.5q0 93 -44.5 148t-117.5 55q-66 0 -106 -52 t-40 -139z" />
<glyph unicode="&#x26;" horiz-adv-x="1505" d="M102 352q0 121 69.5 223.5t199.5 174.5q-73 101 -104 183.5t-31 170.5q0 148 113 251t280 103t269.5 -94t102.5 -236q0 -124 -92 -231t-243 -170q195 -195 350 -328q144 166 244 445q61 0 104 -37q25 -22 25 -80q0 -83 -58.5 -210t-159.5 -243q46 -33 74 -51 q86 -61 164 -61h43q12 -38 12 -80q0 -40 -42.5 -73.5t-108.5 -33.5q-46 0 -103 22t-108 58q-36 23 -94 70q-210 -150 -443 -150q-197 0 -330 105.5t-133 271.5zM324 365q0 -86 68 -137.5t181 -51.5q145 0 273 80q-226 195 -367 360l-8 11q-147 -113 -147 -262zM463 1104 q0 -125 100 -256q92 48 146.5 120.5t54.5 149.5q0 72 -38.5 116t-102.5 44q-69 0 -114.5 -50t-45.5 -124z" />
<glyph unicode="'" horiz-adv-x="630" d="M184 1425q84 23 185 23q40 0 58.5 -13.5t16.5 -41.5l-34 -539h-134q-35 0 -50 12t-15 39z" />
<glyph unicode="(" horiz-adv-x="788" d="M205 635q0 230 67 447t191 366q103 122 160 92q41 -21 63 -82q-256 -350 -256 -823t256 -823q-22 -61 -63 -82q-57 -30 -160 92q-124 149 -191 366t-67 447z" />
<glyph unicode=")" horiz-adv-x="788" d="M102 -188q256 350 256 823t-256 823q22 60 64 82q57 30 160 -92q124 -149 191 -366t67 -447t-67 -447t-191 -366q-103 -122 -160 -92q-42 22 -64 82z" />
<glyph unicode="*" horiz-adv-x="1218" d="M123 698q0 83 27 166q12 36 27 47.5t42 3.5l297 -127l-29 345q84 24 166 24q70 0 70 -51l-29 -320l318 134q50 -71 75 -150q20 -68 -26 -82l-313 -72l225 -260q-54 -72 -119 -118q-58 -41 -86 0l-166 276l-178 -295q-85 28 -150 76q-30 23 -36 42t10 40l211 244z" />
<glyph unicode="+" horiz-adv-x="1306" d="M164 653q0 63 16 119h363v381q71 23 151 23q70 0 70 -52v-352h328q27 0 39 -15t12 -50v-119h-379v-404h-156q-35 0 -50 12.5t-15 39.5v352h-328q-27 0 -39 15t-12 50z" />
<glyph unicode="," horiz-adv-x="675" d="M176 -231q105 99 123 213q-45 14 -73.5 52t-28.5 93q0 64 38 101.5t99 37.5t103 -43t42 -119q0 -161 -112 -297q-41 -51 -85.5 -78t-60.5 -20q-14 6 -27.5 23.5t-17.5 36.5z" />
<glyph unicode="-" horiz-adv-x="933" d="M174 649q0 63 16 129h519q27 0 39 -15t12 -50v-131h-535q-51 0 -51 67z" />
<glyph unicode="." horiz-adv-x="675" d="M197 127q0 64 38 101.5t99 37.5q60 0 102.5 -41.5t42.5 -109.5q0 -64 -38 -102t-99 -38q-59 0 -102 42t-43 110z" />
<glyph unicode="/" horiz-adv-x="1054" d="M-4 -164l848 1706h160q39 0 53.5 -18t1.5 -43l-848 -1706h-160q-39 0 -53.5 18t-1.5 43z" />
<glyph unicode="0" horiz-adv-x="1351" d="M121 717q0 350 147 545.5t408 195.5q262 0 408.5 -195t146.5 -546q0 -350 -146 -546t-407 -196q-262 0 -409.5 195.5t-147.5 546.5zM358 735q0 -168 34 -291t110 -195.5t188 -72.5q144 0 223.5 133.5t79.5 388.5q0 169 -33.5 291.5t-108.5 195t-187 72.5 q-145 0 -225.5 -134t-80.5 -388z" />
<glyph unicode="1" horiz-adv-x="1351" d="M238 1104q0 38 51 70l409 260h146q35 0 50 -12.5t15 -39.5v-1382h-168q-35 0 -50 12t-15 39v1118l-316 -198q-68 35 -108 92q-14 21 -14 41z" />
<glyph unicode="2" horiz-adv-x="1351" d="M166 1104q0 24 14 61q56 130 179.5 211.5t297.5 81.5q226 0 366 -130.5t140 -348.5q0 -116 -38.5 -225t-112.5 -206t-170 -182.5t-221 -168.5h499q27 0 39 -15.5t12 -50.5v-131h-856q-31 0 -49 9t-33 32q-29 49 -40 119q733 426 733 829q0 127 -74.5 197.5t-198.5 70.5 q-106 0 -180.5 -69t-105.5 -189q-101 7 -160 45q-41 24 -41 60z" />
<glyph unicode="3" horiz-adv-x="1351" d="M166 152q0 54 31 106q175 -82 378 -82q167 0 259 61.5t92 170.5q0 234 -344 262q-33 3 -51 12t-31 31q-30 49 -41 125l364 399h-577q-27 0 -39 15.5t-12 50.5q0 65 16 131h778q31 0 49 -9t33 -32q31 -51 41 -119l-399 -443q207 -39 326.5 -144t119.5 -281 q0 -194 -149.5 -312.5t-403.5 -118.5q-90 0 -174.5 18t-141 44.5t-90.5 57.5t-34 57z" />
<glyph unicode="4" horiz-adv-x="1351" d="M111 451q77 276 251.5 531t395.5 425q93 41 233 41q52 0 71 -15.5t19 -56.5v-889h136q27 0 39 -15t12 -50v-131h-187v-291h-168q-35 0 -50 12t-15 39v240h-615q-31 0 -48.5 9t-32.5 32q-30 51 -41 119zM365 487h483v719q-153 -118 -291 -322.5t-192 -396.5z" />
<glyph unicode="5" horiz-adv-x="1351" d="M166 152q0 54 31 106q175 -82 389 -82q156 0 252 67.5t96 205.5t-96 205t-252 67q-129 0 -246 -23q-28 -4 -37 -4q-23 0 -41 15l-29 24l95 701h737q27 0 39 -15.5t12 -50.5v-131h-598l-47 -340q71 23 176 23q229 0 374.5 -129t145.5 -342q0 -207 -143.5 -340.5 t-396.5 -133.5q-97 0 -186 17.5t-147.5 44.5t-93 57.5t-34.5 57.5z" />
<glyph unicode="6" horiz-adv-x="1351" d="M139 664v34q0 349 167 554.5t437 205.5q151 0 263 -61t172 -176q18 -36 18 -74t-41 -62q-59 -38 -160 -45q-17 106 -79.5 161.5t-163.5 55.5q-73 0 -136 -26t-115 -80t-85.5 -146t-40.5 -214q67 54 160 85t194 31q140 0 255 -57t183 -164t68 -244q0 -203 -138 -335 t-366 -132q-265 0 -428.5 185t-163.5 504zM373 602q10 -201 110.5 -313.5t257.5 -112.5q112 0 186 68t74 188q0 127 -88 201t-223 74q-86 0 -170.5 -27.5t-146.5 -77.5z" />
<glyph unicode="7" horiz-adv-x="1351" d="M154 1303q0 65 16 131h887q31 0 49 -9t33 -32q32 -52 41 -113q-198 -341 -326 -647.5t-203 -632.5h-168q-79 0 -59 70q168 624 491 1167h-710q-27 0 -39 15.5t-12 50.5z" />
<glyph unicode="8" horiz-adv-x="1351" d="M127 395q0 119 73.5 208.5t217.5 135.5q-236 118 -236 336q0 163 130 273t356 110t355.5 -110t129.5 -273q0 -94 -52.5 -177.5t-148.5 -147.5q273 -129 273 -355q0 -189 -148.5 -304.5t-400.5 -115.5t-400.5 115.5t-148.5 304.5zM365 389q0 -93 89 -153t222 -60t222 60 t89 153q0 97 -78 155t-288 113q-131 -42 -193.5 -112t-62.5 -156zM420 1077q0 -83 75 -140.5t265 -113.5q155 103 155 254q0 80 -71 130t-176 50t-176.5 -50t-71.5 -130z" />
<glyph unicode="9" horiz-adv-x="1351" d="M133 991q0 203 138 335t366 132q265 0 428.5 -184.5t163.5 -503.5v-35q0 -191 -48 -338.5t-134 -238.5t-198.5 -137t-246.5 -46q-91 0 -182 29t-146 70t-55 78q0 54 31 106q60 -39 140.5 -60.5t160.5 -21.5q65 0 122 13.5t112.5 47t97 85t71 133t37.5 186.5 q-69 -54 -161 -84.5t-191 -30.5q-140 0 -255 57t-183 164t-68 244zM367 1001q0 -127 88 -200.5t223 -73.5q88 0 171.5 26t143.5 76q-10 202 -109.5 315t-256.5 113q-112 0 -186 -68t-74 -188z" />
<glyph unicode=":" horiz-adv-x="675" d="M197 127q0 64 38 101.5t99 37.5q60 0 102.5 -41.5t42.5 -109.5q0 -64 -38 -102t-99 -38q-59 0 -102 42t-43 110zM197 979q0 64 38 101.5t99 37.5q60 0 102.5 -41.5t42.5 -109.5q0 -64 -38 -102t-99 -38q-59 0 -102 42t-43 110z" />
<glyph unicode=";" horiz-adv-x="675" d="M176 -231q4 -19 17.5 -36.5t27.5 -23.5q16 -7 60.5 20t85.5 78q112 136 112 297q0 76 -42 119t-103 43t-99 -37.5t-38 -101.5q0 -55 28.5 -93t73.5 -52q-18 -114 -123 -213zM197 979q0 64 38 101.5t99 37.5q60 0 102.5 -41.5t42.5 -109.5q0 -64 -38 -102t-99 -38 q-59 0 -102 42t-43 110z" />
<glyph unicode="&#x3c;" horiz-adv-x="1306" d="M164 629v157l893 385q38 19 62 1t24 -74q0 -51 -10 -119l-715 -299l682 -287q43 -16 43 -71v-168l-936 403q-43 16 -43 72z" />
<glyph unicode="=" horiz-adv-x="1306" d="M164 424q0 63 16 119h912q27 0 39 -15.5t12 -50.5v-119h-928q-27 0 -39 15.5t-12 50.5zM164 883q0 62 16 118h912q27 0 39 -15t12 -50v-119h-928q-27 0 -39 15.5t-12 50.5z" />
<glyph unicode="&#x3e;" horiz-adv-x="1306" d="M164 154v168q0 55 43 71l682 287l-715 299q-10 68 -10 119q0 56 24 74t62 -1l893 -385v-157q0 -56 -43 -72z" />
<glyph unicode="?" horiz-adv-x="1142" d="M102 1104q0 32 13 61q54 135 170.5 214t281.5 79q203 0 328 -111t125 -294q0 -118 -55 -211t-183 -205q-74 -66 -100.5 -107t-26.5 -104v-53h-168q-35 0 -50 12t-15 39v27q0 97 44 170.5t150 162.5q94 78 130 136.5t36 132.5q0 91 -60 147.5t-155 56.5q-94 0 -169 -69.5 t-95 -188.5q-101 7 -160 45q-41 24 -41 60zM397 127q0 64 38.5 101.5t99.5 37.5q60 0 102.5 -41.5t42.5 -109.5q0 -64 -38 -102t-99 -38q-60 0 -103 42t-43 110z" />
<glyph unicode="@" horiz-adv-x="2088" d="M143 563q0 189 70.5 356t190.5 285t286 186t352 68q260 0 466.5 -108t322 -301t115.5 -437q0 -222 -117.5 -369t-306.5 -147q-91 0 -168 47.5t-119 135.5q-54 -80 -139.5 -126.5t-188.5 -46.5q-145 0 -245.5 109.5t-100.5 271.5q0 127 47 230.5t124.5 169t174 100.5 t199.5 35q129 0 231 -56t164 -147l-80 -426q-12 -65 18.5 -103t96.5 -38q98 0 167 100t69 260q0 146 -52.5 273t-146.5 219.5t-231 145.5t-300 53q-148 0 -281 -55.5t-230.5 -152.5t-154.5 -235t-57 -295q0 -159 56 -296.5t155 -235t239.5 -153.5t303.5 -56q279 0 467 139 q39 -27 47 -72q3 -16 -16.5 -42.5t-64 -58t-104.5 -58.5t-150.5 -45.5t-190.5 -18.5q-196 0 -367 69t-292 188t-190 284.5t-69 353.5zM776 492q0 -97 48.5 -152t131.5 -55q71 0 140 32t118 89l72 376q-24 32 -74 49t-112 17q-134 0 -229 -100t-95 -256z" />
<glyph unicode="A" horiz-adv-x="1390" d="M55 72l486 1335q93 41 207 41q51 0 74 -16t38 -60l500 -1372h-180q-41 0 -60 10.5t-28 36.5l-105 307h-584l-118 -354h-168q-36 0 -54 21q-12 14 -12 31q0 9 4 20zM471 551h449l-226 661z" />
<glyph unicode="B" horiz-adv-x="1351" d="M180 387v1047h522q230 0 359 -107.5t129 -275.5q0 -106 -53.5 -187.5t-143.5 -120.5q111 -36 177.5 -124.5t66.5 -210.5q0 -191 -131.5 -299.5t-376.5 -108.5h-209q-172 0 -256 90t-84 297zM414 403q0 -118 29 -162t108 -44h180q141 0 204.5 55.5t63.5 167.5 q0 211 -301 211h-284v-228zM414 827h270q133 0 200.5 52.5t67.5 152.5t-67.5 152.5t-200.5 52.5h-270v-410z" />
<glyph unicode="C" horiz-adv-x="1406" d="M113 760q0 162 52 295.5t142.5 220.5t209.5 134.5t255 47.5q187 0 330 -81.5t209 -217.5q14 -28 14 -57q0 -34 -41 -58q-59 -38 -160 -45q-43 122 -138 190t-230 68q-80 0 -152 -32t-129 -92t-91 -155t-34 -212q0 -278 158.5 -434t415.5 -156q183 0 321 72 q31 -52 31 -107q0 -26 -31 -55.5t-82.5 -54t-126 -40.5t-153.5 -16q-218 0 -392 94t-276 274t-102 417z" />
<glyph unicode="D" horiz-adv-x="1478" d="M180 387v1047h514q142 0 265 -50t213 -141.5t142 -227t52 -298.5t-52 -298.5t-142 -227t-213 -141.5t-265 -50h-174q-172 0 -256 90t-84 297zM414 403q0 -118 29 -162t108 -44h106q96 0 180 33.5t148.5 97.5t101.5 164t37 225t-37 225t-101.5 164t-148.5 97.5t-180 33.5 h-243v-834z" />
<glyph unicode="E" d="M180 387v1047h821q52 0 52 -66q0 -61 -17 -131h-622v-424h477q27 0 39 -15t12 -50v-132h-528v-213q0 -118 29 -162t108 -44h467q27 0 39 -15.5t12 -50.5v-131h-549q-172 0 -256 90t-84 297z" />
<glyph unicode="F" horiz-adv-x="1128" d="M184 51v1383h822q27 0 39 -15.5t12 -50.5q0 -61 -17 -131h-622v-434h477q27 0 39 -15.5t12 -50.5v-131h-528v-606h-168q-35 0 -50.5 12t-15.5 39z" />
<glyph unicode="G" horiz-adv-x="1533" d="M113 760q0 159 52.5 291t144 220.5t216 137.5t267.5 49q183 0 327 -73.5t221 -202.5q21 -35 21 -60q0 -33 -41 -57q-65 -38 -160 -45q-42 109 -138 173t-228 64q-191 0 -318 -132.5t-127 -358.5q0 -135 42.5 -247.5t115.5 -186.5t169.5 -115t205.5 -41q133 0 198.5 43.5 t65.5 118.5v207h-258q-27 0 -39 15t-12 50q0 65 16 131h475q27 0 39 -15t12 -50v-338q0 -159 -136 -261t-365 -102q-162 0 -303 56.5t-243 157.5t-161 248.5t-59 322.5z" />
<glyph unicode="H" horiz-adv-x="1478" d="M184 51v1374q80 23 164 23q70 0 70 -51v-580h643v617h168q35 0 50 -12.5t15 -39.5v-1382h-168q-35 0 -50 12t-15 39v570h-643v-621h-168q-35 0 -50.5 12t-15.5 39z" />
<glyph unicode="I" horiz-adv-x="622" d="M195 51v1374q80 23 163 23q70 0 70 -51v-1397h-168q-35 0 -50 12t-15 39z" />
<glyph unicode="J" horiz-adv-x="886" d="M31 106q0 56 30 107q102 -37 195 -37q114 0 167.5 55.5t53.5 167.5v1026q81 23 164 23q70 0 70 -51v-1002q0 -201 -102.5 -310.5t-291.5 -109.5q-110 0 -198 43.5t-88 87.5z" />
<glyph unicode="K" horiz-adv-x="1355" d="M184 51v1374q80 23 164 23q70 0 70 -51v-625q171 121 341.5 297t303.5 379q94 -32 130 -60t36 -69q0 -34 -17 -62q-72 -119 -188.5 -247.5t-251.5 -241.5q188 -341 367 -526q65 -68 131 -68h43q12 -37 12 -92q0 -40 -43.5 -73.5t-114.5 -33.5q-116 0 -233 134 q-148 166 -336 524q-76 -57 -180 -119v-514h-168q-35 0 -50.5 12t-15.5 39z" />
<glyph unicode="L" horiz-adv-x="1120" d="M180 387v1038q81 23 164 23q70 0 70 -51v-994q0 -118 29 -162t108 -44h467q27 0 39 -15.5t12 -50.5v-131h-549q-172 0 -256 90t-84 297z" />
<glyph unicode="M" horiz-adv-x="1835" d="M135 57l148 1334q41 25 89.5 41t82.5 16q27 0 42.5 -9t28.5 -34l389 -715l410 744h162q35 0 50 -12.5t15 -39.5l150 -1382h-174q-37 0 -54 12.5t-20 42.5l-100 1020l-318 -579q-12 -22 -31.5 -31.5t-56.5 -9.5h-129l-340 620l-106 -1075h-172q-66 0 -66 49v8z" />
<glyph unicode="N" horiz-adv-x="1470" d="M184 51v1327q38 29 86.5 49.5t79.5 20.5q43 0 64 -35l639 -1012v1033h168q35 0 50 -12.5t15 -39.5v-1327q-38 -29 -86.5 -49t-79.5 -20q-42 0 -63 34l-639 1012v-1032h-168q-35 0 -50.5 12t-15.5 39z" />
<glyph unicode="O" horiz-adv-x="1585" d="M113 717q0 178 54 321t148 233.5t216 138.5t262 48t262 -48t216 -138.5t148 -233.5t54 -321t-54 -321t-148 -234t-216 -139t-262 -48t-262 48t-216 139t-148 234t-54 321zM350 735q0 -127 36 -233.5t98 -177t144.5 -109.5t176.5 -39q83 0 158 31t137 92t98.5 164 t36.5 235q0 127 -36 233.5t-98 177t-144.5 109.5t-176.5 39q-83 0 -158 -31t-137 -92t-98.5 -164t-36.5 -235z" />
<glyph unicode="P" horiz-adv-x="1314" d="M184 51v1383h475q262 0 413 -140t151 -387q0 -156 -71.5 -272t-194 -175t-277.5 -59q-60 0 -136.5 9.5t-125.5 25.5v-436h-168q-35 0 -50.5 12t-15.5 39zM418 623q92 -21 219 -21q160 0 254 80.5t94 235.5q0 156 -90 237.5t-252 81.5h-225v-614z" />
<glyph unicode="Q" horiz-adv-x="1585" d="M113 717q0 178 54 321t148 233.5t216 138.5t262 48t262 -48t216 -138.5t148 -233.5t54 -321q0 -230 -86.5 -395.5t-237.5 -253.5q101 -174 250 -174h43q12 -38 12 -80q0 -39 -43 -68t-115 -29q-103 0 -187 78t-130 205q-92 -25 -186 -25q-140 0 -262 48t-216 139 t-148 234t-54 321zM350 735q0 -127 36 -233.5t98 -177t144.5 -109.5t176.5 -39q83 0 158 31t137 92t98.5 164t36.5 235q0 127 -36 233.5t-98 177t-144.5 109.5t-176.5 39q-83 0 -158 -31t-137 -92t-98.5 -164t-36.5 -235z" />
<glyph unicode="R" horiz-adv-x="1337" d="M184 51v1383h434q262 0 413 -132.5t151 -363.5q0 -175 -87.5 -293.5t-238.5 -169.5q103 -160 197 -248q68 -65 137 -65h43q12 -38 12 -80q0 -40 -44.5 -73.5t-117.5 -33.5q-127 0 -247 144q-123 148 -213 323q-127 4 -205 31v-473h-168q-35 0 -50.5 12t-15.5 39zM418 659 q73 -16 178 -16q160 0 252 75.5t92 219.5q0 145 -90 222t-252 77h-180v-578z" />
<glyph unicode="S" horiz-adv-x="1218" d="M123 1057q0 178 133 289.5t344 111.5q160 0 283.5 -66t177.5 -159q29 -50 29 -80q0 -37 -39 -57q-62 -33 -164 -41q-34 97 -107 149.5t-178 52.5q-106 0 -174 -54.5t-68 -143.5q0 -86 76 -148t262 -116q408 -119 408 -424q0 -176 -138.5 -286t-369.5 -110 q-89 0 -169.5 16.5t-134 42t-85 55t-31.5 56.5q0 55 31 107q162 -76 358 -76q147 0 224 50t77 136q0 85 -59 137t-209 93q-234 64 -355.5 176.5t-121.5 288.5z" />
<glyph unicode="T" horiz-adv-x="1257" d="M82 1303q0 65 16 131h1026q52 0 52 -66v-131h-431v-1237h-167q-35 0 -50.5 12t-15.5 39v1186h-379q-27 0 -39 15.5t-12 50.5z" />
<glyph unicode="U" horiz-adv-x="1470" d="M174 606v819q80 23 164 23q70 0 70 -51v-809q0 -188 87 -300t240 -112q154 0 241 112t87 300v846h168q35 0 50 -12.5t15 -39.5v-776q0 -291 -148 -461t-413 -170t-413 170t-148 461z" />
<glyph unicode="V" horiz-adv-x="1478" d="M82 1382q102 66 182 66q49 0 64 -43l403 -1133q127 223 239.5 536t174.5 626h176q37 0 53 -15q12 -11 12 -29q0 -7 -2 -14q-72 -335 -198.5 -677t-294.5 -644q-16 -30 -36 -42.5t-62 -12.5h-209z" />
<glyph unicode="W" horiz-adv-x="2287" d="M92 1382q102 66 180 66q28 0 43.5 -9t22.5 -34l317 -1133q213 486 334 1162h211q45 0 68 -13.5t32 -44.5l310 -1104q215 498 334 1162h176q36 0 52 -15q12 -11 12 -30q0 -6 -1 -13q-123 -658 -414 -1321q-12 -30 -35 -42.5t-65 -12.5h-205l-315 1143q-56 -260 -146 -547 t-204 -541q-24 -55 -101 -55h-190z" />
<glyph unicode="X" horiz-adv-x="1415" d="M111 88q72 170 190 340t260 309l-436 586q98 125 172 125q20 0 31.5 -7t25.5 -26l381 -510q217 248 324 529h184q60 0 60 -43q0 -18 -11 -45q-66 -159 -178.5 -323.5t-245.5 -297.5l463 -619q-97 -124 -172 -124q-20 0 -31.5 6.5t-25.5 25.5l-408 545 q-234 -260 -350 -559h-184q-61 0 -61 42q0 19 12 46z" />
<glyph unicode="Y" horiz-adv-x="1366" d="M74 1348q94 100 176 100q20 0 31 -7.5t22 -27.5l381 -711q260 374 379 732h164q32 0 49.5 -12t17.5 -33q0 -7 -4 -19q-163 -450 -493 -874v-496h-168q-35 0 -50.5 12t-15.5 39v434z" />
<glyph unicode="Z" horiz-adv-x="1259" d="M113 160l733 1077h-643q-27 0 -39 15.5t-12 50.5q0 65 16 131h850q31 0 49 -9t33 -32q31 -51 41 -119l-733 -1077h698q27 0 39 -15.5t12 -50.5v-131h-921q-31 0 -49 9t-33 32q-31 51 -41 119z" />
<glyph unicode="[" horiz-adv-x="862" d="M246 121v1415h514q27 0 39 -15.5t12 -50.5q0 -50 -14 -118h-330v-1227q0 -118 29 -162.5t108 -44.5h146q27 0 39 -15t12 -50v-119h-215q-172 0 -256 90t-84 297z" />
<glyph unicode="\" horiz-adv-x="1054" d="M-4 1481q-13 25 1.5 43t53.5 18h160l848 -1706q13 -25 -1.5 -43t-53.5 -18h-160z" />
<glyph unicode="]" horiz-adv-x="862" d="M51 1470q0 35 12 50.5t39 15.5h449q35 0 50 -12t15 -39v-1364q0 -207 -84 -297t-256 -90h-215v119q0 35 12.5 50t39.5 15h145q79 0 108 44.5t29 162.5v1227h-329q-15 73 -15 118z" />
<glyph unicode="^" horiz-adv-x="1277" d="M154 834q0 18 12 36l340 564h160q50 0 74.5 -13t43.5 -43l340 -563l-84 -57q-42 -27 -73 -27q-39 0 -70 53l-268 445l-293 -488q-98 0 -158 47q-24 18 -24 46z" />
<glyph unicode="_" horiz-adv-x="1024" d="M0 -283q0 28 8 74h965q27 0 39 -15t12 -50v-74h-973q-27 0 -39 15t-12 50z" />
<glyph unicode="`" horiz-adv-x="860" d="M225 1370q35 71 82 107q27 20 55 20q25 0 52 -27l223 -225l-70 -74q-20 -20 -43 -20q-21 0 -47 20z" />
<glyph unicode="a" horiz-adv-x="1224" d="M102 317q0 168 119 263.5t322 95.5q70 0 145.5 -15.5t120.5 -39.5v69q0 240 -307 240q-153 0 -277 -62q-12 15 -21 43.5t-9 53.5t28 52t75 49.5t116.5 37t146.5 14.5q224 0 346.5 -110.5t122.5 -325.5v-410q0 -60 19.5 -84t58.5 -24h43q12 -38 12 -78q0 -37 -42.5 -68.5 t-110.5 -31.5q-66 0 -120 44t-73 132q-53 -88 -143.5 -137.5t-202.5 -49.5q-163 0 -266 95t-103 247zM324 324q0 -79 55.5 -119.5t146.5 -40.5q86 0 165 46t118 124v125q-34 13 -105 20.5t-129 7.5q-122 0 -186.5 -42t-64.5 -121z" />
<glyph unicode="b" horiz-adv-x="1312" d="M160 475v1014q73 20 153 20q68 0 68 -51v-510q68 79 161 124.5t203 45.5q199 0 332 -145t133 -385q0 -175 -71 -314.5t-201 -219t-295 -79.5q-224 0 -353.5 134.5t-129.5 365.5zM381 475q0 -151 76 -231t188 -80q141 0 240.5 115.5t99.5 298.5q0 180 -84 267t-217 87 q-77 0 -159 -41.5t-144 -108.5v-307z" />
<glyph unicode="c" horiz-adv-x="1134" d="M102 580q0 248 147.5 393t381.5 145q149 0 259.5 -60.5t158.5 -156.5q14 -28 14 -57q0 -34 -41 -58q-64 -41 -148 -47q-23 87 -87 139t-166 52q-127 0 -210 -93.5t-83 -250.5q0 -198 116.5 -310t286.5 -112q148 0 270 61q31 -48 31 -96q0 -54 -96 -104t-238 -50 q-115 0 -221.5 41t-190 116t-134 191.5t-50.5 256.5z" />
<glyph unicode="d" horiz-adv-x="1351" d="M102 506q0 136 45 252.5t120 194t173.5 121.5t206.5 44q172 0 285 -104v481h155q35 0 50.5 -12t15.5 -39v-1172q0 -60 19.5 -84t58.5 -24h43q12 -38 12 -78q0 -37 -42.5 -68.5t-110.5 -31.5q-69 0 -125 49.5t-72 148.5q-55 -98 -152.5 -153.5t-210.5 -55.5 q-203 0 -337 144.5t-134 386.5zM328 514q0 -163 78.5 -257.5t218.5 -94.5q99 0 180.5 65.5t126.5 196.5v420q-96 86 -246 86q-156 0 -257 -117t-101 -299z" />
<glyph unicode="e" horiz-adv-x="1191" d="M102 543q0 176 75.5 308.5t199 199.5t274.5 67q194 0 316.5 -113t122.5 -284q0 -99 -35 -174q-25 -50 -61 -70t-101 -20h-563q18 -144 114.5 -218.5t245.5 -74.5q144 0 266 61q12 -15 21.5 -43.5t9.5 -52.5q0 -55 -96 -104.5t-240 -49.5q-239 0 -394 160t-155 408z M332 641h526q14 28 14 68q0 103 -60.5 162t-172.5 59q-126 0 -207 -77t-100 -212z" />
<glyph unicode="f" horiz-adv-x="888" d="M61 975q0 63 15 119h192v51q0 186 92 280.5t254 94.5q65 0 128 -19t100 -46t37 -52q0 -24 -9.5 -53.5t-21.5 -44.5q-73 26 -178 26q-99 0 -140 -40t-41 -140v-57h306q27 0 39 -15.5t12 -50.5v-119h-357v-909h-155q-35 0 -50.5 12t-15.5 39v858h-155q-52 0 -52 66z" />
<glyph unicode="g" horiz-adv-x="1316" d="M102 508q0 136 45 252t120 193.5t173.5 121t206.5 43.5q172 0 285 -104v80h155q66 0 66 -52v-1026q0 -99 -38.5 -191.5t-110.5 -167.5t-187.5 -120t-257.5 -45q-195 0 -306.5 80.5t-111.5 202.5q0 73 49 143t144 121q-107 65 -169.5 186.5t-62.5 282.5zM328 516 q0 -163 78.5 -257.5t218.5 -94.5q99 0 180.5 65.5t126.5 196.5v418q-96 86 -246 86q-156 0 -257 -116t-101 -298zM362 -195q0 -58 52.5 -93.5t150.5 -35.5q71 0 136 21.5t117 62.5t83 106t31 146v166q-57 -95 -153.5 -149t-205.5 -54q-46 0 -112 15q-99 -77 -99 -185z" />
<glyph unicode="h" horiz-adv-x="1325" d="M164 51v1438q73 20 153 20q68 0 68 -51v-485q62 64 157 104.5t193 40.5q186 0 288.5 -127t102.5 -358v-361q0 -58 16.5 -83t53.5 -25h51q13 -41 13 -78t-43 -68.5t-111 -31.5q-40 0 -74 12.5t-63.5 41.5t-46.5 83t-17 129v403q0 275 -233 275q-76 0 -154.5 -30 t-132.5 -81v-819h-156q-35 0 -50 12t-15 39z" />
<glyph unicode="i" horiz-adv-x="593" d="M141 1380q0 59 35 94t90 35t94 -38t39 -99q0 -60 -34.5 -94.5t-92.5 -34.5q-53 0 -92 38t-39 99zM164 252v835q77 21 153 21q68 0 68 -51v-785q0 -58 16.5 -83t53.5 -25h51q12 -38 12 -78q0 -37 -42.5 -68.5t-110.5 -31.5q-40 0 -74 12.5t-63.5 41.5t-46.5 83t-17 129z " />
<glyph unicode="j" horiz-adv-x="559" d="M2 -332q172 180 172 375v1044q76 21 154 21q67 0 67 -51v-1037q0 -90 -33.5 -176.5t-89.5 -148.5q-61 -68 -120 -95q-39 -19 -64 -19q-13 0 -22 5q-42 22 -64 82zM152 1380q0 59 34.5 94t89.5 35t94.5 -38t39.5 -99q0 -60 -35 -94.5t-92 -34.5q-53 0 -92 38t-39 99z" />
<glyph unicode="k" horiz-adv-x="1191" d="M164 51v1438q73 20 153 20q68 0 68 -51v-852q144 87 294.5 225.5t240.5 276.5q84 -30 116.5 -57.5t32.5 -65.5q0 -22 -12 -49q-34 -68 -132 -165t-231 -193q57 -86 135.5 -184.5t137.5 -157.5q42 -42 68 -57t52 -15h41q13 -41 13 -78t-43 -68.5t-111 -31.5 q-117 0 -242 153q-120 147 -223 326q-51 -32 -137 -78v-387h-156q-35 0 -50 12t-15 39z" />
<glyph unicode="l" horiz-adv-x="667" d="M164 315v1174q73 20 153 20q68 0 68 -51v-1151q0 -75 29.5 -109t87.5 -34q67 0 119 22q26 -43 26 -86q0 -39 -57.5 -76.5t-151.5 -37.5q-135 0 -204.5 86.5t-69.5 242.5z" />
<glyph unicode="m" horiz-adv-x="1882" d="M164 51v1036q77 21 153 21q68 0 68 -51v-82q58 68 139 105.5t166 37.5q205 0 293 -160q69 72 163 116t187 44q160 0 255 -97.5t95 -301.5v-447q0 -58 16.5 -83t53.5 -25h51q13 -41 13 -78t-43 -68.5t-111 -31.5q-40 0 -74 12.5t-63.5 41.5t-46.5 83t-17 129v477 q0 101 -49.5 151t-132.5 50q-145 0 -254 -109q8 -66 8 -104v-717h-155q-35 0 -50.5 12t-15.5 39v676q0 101 -48.5 152t-129.5 51q-151 0 -250 -113v-817h-156q-35 0 -50 12t-15 39z" />
<glyph unicode="n" horiz-adv-x="1325" d="M164 51v1036q77 21 153 21q68 0 68 -51v-84q62 64 157 104.5t193 40.5q186 0 288.5 -127t102.5 -358v-361q0 -58 16.5 -83t53.5 -25h51q13 -41 13 -78t-43 -68.5t-111 -31.5q-40 0 -74 12.5t-63.5 41.5t-46.5 83t-17 129v403q0 275 -233 275q-76 0 -154.5 -30t-132.5 -81 v-819h-156q-35 0 -50 12t-15 39z" />
<glyph unicode="o" horiz-adv-x="1286" d="M102 547q0 134 43.5 243.5t118 180.5t172 109t207.5 38t207.5 -38t172 -109t118 -180.5t43.5 -243.5t-43.5 -243.5t-118 -180.5t-172 -109.5t-207.5 -38.5t-207.5 38.5t-172 109.5t-118 180.5t-43.5 243.5zM328 559q0 -184 95 -289.5t228 -105.5q64 0 118.5 22t97 66 t67 116.5t24.5 166.5q0 184 -95 289.5t-228 105.5q-64 0 -118.5 -22t-97 -66t-67 -116.5t-24.5 -166.5z" />
<glyph unicode="p" horiz-adv-x="1316" d="M164 -385v1472q77 21 153 21q68 0 68 -51v-142q57 95 152.5 149t205.5 54q203 0 337 -144t134 -386q0 -136 -44.5 -252.5t-119.5 -194.5t-174 -122t-206 -44q-174 0 -285 105v-516h-156q-35 0 -50 12t-15 39zM385 250q90 -86 246 -86t257 117t101 299q0 163 -78.5 257.5 t-218.5 94.5q-99 0 -181 -65.5t-126 -196.5v-420z" />
<glyph unicode="q" horiz-adv-x="1316" d="M102 506q0 136 45 252.5t120 194t173.5 121.5t206.5 44q172 0 285 -104v80h155q66 0 66 -52v-1478h-156q-35 0 -50 12t-15 39v561q-57 -93 -153.5 -147t-205.5 -54q-203 0 -337 144.5t-134 386.5zM328 514q0 -163 78.5 -257.5t218.5 -94.5q99 0 180.5 65.5t126.5 196.5 v420q-96 86 -246 86q-156 0 -257 -117t-101 -299z" />
<glyph unicode="r" horiz-adv-x="958" d="M164 51v1036q77 21 153 21q68 0 68 -51v-121q48 83 129.5 132.5t185.5 49.5q108 0 177 -37q34 -17 47.5 -34.5t13.5 -42.5q0 -18 -12 -39q-35 -53 -99 -91q-76 56 -186 56q-99 0 -164.5 -58.5t-91.5 -171.5v-700h-156q-35 0 -50 12t-15 39z" />
<glyph unicode="s" horiz-adv-x="1024" d="M123 795q0 145 109 234t290 89q128 0 230 -50t149 -136q14 -28 14 -53q0 -35 -43 -60q-60 -38 -145 -45q-22 74 -78 115t-133 41q-82 0 -127 -36.5t-45 -92.5q0 -69 55 -108.5t183 -71.5q174 -43 257 -122t83 -206q0 -144 -106 -231t-298 -87q-150 0 -258 52t-108 106 q0 26 9 54.5t21 43.5q143 -67 307 -67q211 0 211 121q0 58 -41 90.5t-153 58.5q-199 45 -291 134t-92 227z" />
<glyph unicode="t" horiz-adv-x="933" d="M61 975q0 63 15 119h172v307q73 20 153 20q68 0 68 -51v-276h326q27 0 39 -15.5t12 -50.5v-119h-377v-555q0 -96 50.5 -143t137.5 -47q94 0 164 31q12 -15 21.5 -44t9.5 -53q0 -44 -70 -83.5t-180 -39.5q-166 0 -260 102t-94 290v542h-135q-52 0 -52 66z" />
<glyph unicode="u" horiz-adv-x="1261" d="M147 461v626q76 21 154 21q68 0 68 -51v-611q0 -130 74.5 -207t187.5 -77t187.5 77t74.5 207v648h156q35 0 50 -12.5t15 -39.5v-581q0 -225 -131.5 -355.5t-351.5 -130.5t-352 130.5t-132 355.5z" />
<glyph unicode="v" horiz-adv-x="1210" d="M78 1040q99 68 174 68q40 0 51 -33l295 -862q95 168 182.5 414t126.5 467h156q37 0 53 -14q12 -11 12 -30q0 -7 -2 -14q-47 -237 -152 -508.5t-231 -486.5q-23 -41 -84 -41h-202z" />
<glyph unicode="w" horiz-adv-x="1792" d="M88 1040q99 68 174 68q43 0 51 -35l226 -860q69 174 128 408.5t93 472.5h196q67 0 84 -60l215 -821q70 175 129.5 409.5t92.5 471.5h161q36 0 50 -16q11 -12 11 -29q0 -6 -1 -13q-39 -225 -117 -493.5t-176 -495.5q-18 -47 -80 -47h-213l-211 842q-28 -181 -87.5 -398 t-133.5 -403q-16 -41 -74 -41h-211z" />
<glyph unicode="x" horiz-adv-x="1171" d="M90 18q-6 9 -7 21q0 13 7 29q50 120 143.5 251.5t206.5 237.5l-331 438q81 113 151 113q28 0 51 -29l285 -377q174 200 250 392h170q33 0 45.5 -18t-0.5 -50q-50 -118 -142.5 -248t-201.5 -235l223 -297q33 -45 62 -63.5t63 -18.5h33q12 -38 12 -78q0 -37 -43 -68.5 t-111 -31.5q-83 0 -174 118l-221 293q-178 -201 -256 -397h-170q-33 0 -45 18z" />
<glyph unicode="y" horiz-adv-x="1286" d="M160 440v647q77 21 153 21q68 0 68 -51v-619q0 -274 233 -274q77 0 155 29t132 81v820h156q35 0 50 -12.5t15 -39.5v-1048q0 -78 -21.5 -150.5t-66.5 -136.5t-109 -112t-155.5 -75.5t-200.5 -27.5q-185 0 -291 80t-106 201q0 70 43.5 136.5t128.5 117.5 q-184 108 -184 413zM393 -197q0 -57 47 -92t135 -35q63 0 121 19t104 55t73.5 94t27.5 129v148q-63 -65 -158 -105.5t-192 -40.5q-33 0 -68 7q-90 -75 -90 -179z" />
<glyph unicode="z" horiz-adv-x="1038" d="M102 154l553 755h-485q-27 0 -39 15.5t-12 50.5q0 67 14 119h684q31 0 49 -9t33 -32q32 -52 41 -113l-553 -756h518q27 0 39 -15t12 -50v-119h-731q-31 0 -49 9t-33 32q-32 52 -41 113z" />
<glyph unicode="{" horiz-adv-x="851" d="M123 606v123q217 0 217 205v262q0 170 91 255t243 85h86q27 0 39 -15.5t12 -50.5q0 -50 -14 -118h-119q-117 0 -117 -162v-244q0 -120 -45 -195t-143 -116q98 -41 143 -116t45 -195v-244q0 -162 117 -162h82q27 0 39 -15t12 -50v-119h-137q-152 0 -243 85t-91 255v262 q0 181 -166 201q-27 3 -39 18.5t-12 50.5z" />
<glyph unicode="|" horiz-adv-x="634" d="M225 -358v1921q49 12 115 12q70 0 70 -51v-1934h-119q-66 0 -66 52z" />
<glyph unicode="}" horiz-adv-x="851" d="M41 -147q0 35 12 50t39 15h58q116 0 116 162v244q0 120 45.5 195t143.5 116q-98 41 -143.5 116t-45.5 195v244q0 162 -116 162h-95q-14 68 -14 118q0 35 12 50.5t39 15.5h86q152 0 243 -85t91 -255v-262q0 -205 217 -205v-123q0 -35 -12 -50.5t-39 -18.5 q-166 -20 -166 -201v-262q0 -170 -91 -255t-243 -85h-137v119z" />
<glyph unicode="~" horiz-adv-x="1306" d="M143 592q0 21 7 49q65 217 288 217q122 0 238 -82q120 -88 174 -88q45 0 72.5 38.5t40.5 135.5l145 -31q34 -6 46 -20.5t9 -40.5q-16 -120 -91 -193t-206 -73q-121 0 -237 82q-120 88 -174 88q-44 0 -72 -37.5t-41 -132.5q-92 -7 -156 26q-43 22 -43 62z" />
<glyph unicode="&#xa1;" horiz-adv-x="630" d="M174 979q0 64 38 101.5t99 37.5q60 0 103 -41.5t43 -109.5q0 -64 -38.5 -102t-99.5 -38q-59 0 -102 42t-43 110zM188 -68q0 367 33 789h125q34 0 48.5 -12t17.5 -39q30 -342 30 -738v-266q-85 -20 -178 -20q-76 0 -76 55v231z" />
<glyph unicode="&#xa2;" horiz-adv-x="1134" d="M102 580q0 214 111.5 354t298.5 174v207q62 16 131 16q70 0 70 -51v-168q118 -15 206.5 -72.5t129.5 -138.5q14 -28 14 -57q0 -34 -41 -58q-64 -41 -148 -47q-23 87 -87 139t-166 52q-127 0 -210 -93.5t-83 -250.5q0 -198 116.5 -310t286.5 -112q148 0 270 61 q31 -48 31 -96q0 -54 -91 -102.5t-228 -51.5v-204h-135q-35 0 -50.5 12t-15.5 39v182q-180 55 -295 206t-115 370z" />
<glyph unicode="&#xa3;" horiz-adv-x="1220" d="M102 649q0 51 9 94h129v242q0 219 120.5 346t319.5 127q154 0 264 -76t164 -202q12 -30 12 -58q0 -33 -41 -57q-59 -38 -159 -45q-25 118 -89.5 177.5t-148.5 59.5q-98 0 -153.5 -67.5t-55.5 -198.5v-248h383q27 0 39 -15t12 -50v-74h-434v-106q0 -111 -24 -183t-76 -118 h714q52 0 52 -66v-131h-965q-27 0 -39 15.5t-12 50.5v112q70 56 93.5 126t23.5 179v121h-86q-52 0 -52 45z" />
<glyph unicode="&#xa4;" horiz-adv-x="1417" d="M133 1108q29 51 82 104q49 50 86 13l160 -160q114 68 248 68q125 0 241 -66l189 188q54 -31 104 -81q49 -50 12 -87l-159 -159q73 -112 73 -248q0 -135 -69 -244l184 -184q-31 -54 -82 -105q-49 -49 -86 -12l-160 160q-114 -68 -247 -68q-135 0 -242 66l-188 -189 q-54 31 -105 82q-49 49 -12 86l160 160q-74 110 -74 248q0 137 69 244zM467 690q0 -124 72 -198t180 -74q98 0 164.5 70.5t66.5 181.5q0 124 -72 198t-180 74q-98 0 -164.5 -70.5t-66.5 -181.5z" />
<glyph unicode="&#xa5;" horiz-adv-x="1341" d="M63 1341q43 53 87 80t77 27q23 0 38.5 -7.5t29.5 -29.5l379 -539q103 110 205.5 261.5t169.5 300.5h163q68 0 68 -41q0 -13 -8 -29q-83 -172 -213.5 -353.5t-278.5 -330.5v-25h238q22 0 30.5 -11.5t8.5 -41.5v-61h-277v-90h238q22 0 30.5 -11.5t8.5 -42.5v-61h-277v-336 h-168q-35 0 -50 12t-15 39v285h-246q-31 0 -31 39q0 30 11 76h266v90h-246q-31 0 -31 39q0 29 11 75h266v21z" />
<glyph unicode="&#xa6;" horiz-adv-x="634" d="M225 -236v642q50 12 115 12q70 0 70 -51v-654h-119q-35 0 -50.5 12t-15.5 39zM225 799v641q49 12 115 12q70 0 70 -51v-653h-119q-35 0 -50.5 12t-15.5 39z" />
<glyph unicode="&#xa7;" horiz-adv-x="1034" d="M123 604q0 84 47 147t131 99q-178 99 -178 285q0 145 109 234t290 89q128 0 230 -50t149 -136q14 -28 14 -53q0 -35 -43 -60q-60 -38 -153 -45q-20 76 -73 116t-130 40q-82 0 -127 -36.5t-45 -92.5q0 -68 53 -106t185 -79q171 -55 255.5 -134.5t84.5 -192.5 q0 -89 -45 -152t-127 -96q172 -88 172 -268q0 -144 -106 -231t-298 -87q-150 0 -258 52t-108 106q0 60 30 98q143 -67 307 -67q211 0 211 120q0 57 -43 89.5t-151 60.5q-201 52 -292 136t-91 214zM344 621q0 -25 7.5 -46t17 -35.5t30 -28.5t33.5 -21.5t41.5 -16.5 t40.5 -12.5t43 -11.5q74 22 108.5 65.5t34.5 91.5q0 25 -7.5 46t-17 35.5t-30 28.5t-33.5 21.5t-41.5 16.5t-40.5 12.5t-43 11.5q-74 -22 -108.5 -65.5t-34.5 -91.5z" />
<glyph unicode="&#xa8;" horiz-adv-x="860" d="M115 1327q0 56 34 89.5t87 33.5t91 -37t38 -96q0 -57 -33.5 -91t-87.5 -34q-53 0 -91 37t-38 98zM496 1327q0 56 33.5 89.5t86.5 33.5t91 -37t38 -96q0 -58 -33.5 -91.5t-86.5 -33.5t-91 37t-38 98z" />
<glyph unicode="&#xa9;" horiz-adv-x="1687" d="M102 717q0 202 99.5 372.5t270 269.5t372.5 99q151 0 288.5 -58.5t236.5 -157.5t157.5 -236.5t58.5 -288.5q0 -202 -99 -372.5t-269.5 -270t-372.5 -99.5t-372.5 99.5t-270 270t-99.5 372.5zM217 717q0 -130 49.5 -248t133.5 -202.5t200 -134.5t244 -50q170 0 314 84 t228 230.5t84 320.5q0 129 -49.5 246.5t-133.5 202.5t-200 135.5t-243 50.5t-243.5 -50.5t-200.5 -135.5t-133.5 -202.5t-49.5 -246.5zM485 739q0 168 104 270.5t259 102.5q98 0 177.5 -42t113.5 -109q8 -16 8 -31q0 -21 -23 -37q-41 -30 -110 -41q-56 121 -170 121 q-80 0 -129 -60.5t-49 -171.5q0 -131 78 -205.5t192 -74.5q102 0 172 33q20 -36 20 -70q0 -38 -71 -70t-160 -32q-108 0 -201 50t-152 146.5t-59 220.5z" />
<glyph unicode="&#xaa;" horiz-adv-x="925" d="M82 883q0 112 78.5 182t216.5 70q132 0 205 -39v49q0 83 -48 122.5t-149 39.5q-110 0 -199 -45q-22 26 -22 81q0 36 77.5 71.5t184.5 35.5q161 0 257.5 -80t96.5 -231v-299q0 -32 13 -45t45 -13h16q10 -27 10 -55q0 -36 -30.5 -58t-83.5 -22q-48 0 -88.5 27t-61.5 76 q-33 -52 -96 -81.5t-137 -29.5q-119 0 -202 68.5t-83 175.5zM281 887q0 -50 41.5 -77.5t99.5 -27.5q115 0 160 92v99q-58 20 -138 20q-163 0 -163 -106z" />
<glyph unicode="&#xab;" horiz-adv-x="1218" d="M123 608v111l420 295q22 16 37 16q36 0 36 -59q0 -48 -14 -123l-309 -209l287 -195q20 -13 27 -28t7 -41v-160l-456 320q-35 27 -35 73zM602 608v111l420 295q22 16 37 16q37 0 37 -59q0 -42 -15 -123l-309 -209l287 -195q35 -23 35 -69v-160l-457 320q-35 27 -35 73z " />
<glyph unicode="&#xac;" horiz-adv-x="1306" d="M164 819q0 63 16 119h891q27 0 39 -15.5t12 -50.5v-520h-155q-35 0 -50.5 12t-15.5 39v351h-686q-27 0 -39 15t-12 50z" />
<glyph unicode="&#xad;" horiz-adv-x="831" d="M154 649q0 63 16 129h518q27 0 39 -15t12 -50v-131h-534q-51 0 -51 67z" />
<glyph unicode="&#xae;" horiz-adv-x="1687" d="M102 717q0 202 99.5 372.5t270 269.5t372.5 99q151 0 288.5 -58.5t236.5 -157.5t157.5 -236.5t58.5 -288.5q0 -202 -99 -372.5t-269.5 -270t-372.5 -99.5t-372.5 99.5t-270 270t-99.5 372.5zM217 717q0 -130 49.5 -248t133.5 -202.5t200 -134.5t244 -50q170 0 314 84 t228 230.5t84 320.5q0 129 -49.5 246.5t-133.5 202.5t-200 135.5t-243 50.5t-243.5 -50.5t-200.5 -135.5t-133.5 -202.5t-49.5 -246.5zM559 362v750h289q139 0 222 -74.5t83 -193.5q0 -82 -41.5 -144.5t-112.5 -95.5q50 -82 84 -117q33 -36 74 -36h23q10 -20 10 -60 q0 -27 -32.5 -48t-78.5 -21q-79 0 -143 86q-56 70 -105 167q-52 3 -92 15v-256h-145q-35 0 -35 28zM739 725q33 -8 86 -8q61 0 102.5 30t41.5 97q0 68 -42 98.5t-130 30.5h-58v-248z" />
<glyph unicode="&#xaf;" horiz-adv-x="860" d="M154 1303q0 42 12 100h500q22 0 31.5 -12.5t9.5 -42.5v-105h-512q-41 0 -41 60z" />
<glyph unicode="&#xb0;" horiz-adv-x="806" d="M92 1161q0 127 88.5 212t222.5 85t223 -85t89 -212t-89 -212t-223 -85t-222.5 85t-88.5 212zM262 1165q0 -68 41.5 -116t104.5 -48t100 44t37 112t-41.5 116t-104.5 48t-100 -44t-37 -112z" />
<glyph unicode="&#xb1;" horiz-adv-x="1306" d="M164 66q0 62 16 118h912q27 0 39 -15t12 -50v-119h-928q-27 0 -39 15.5t-12 50.5zM164 805q0 63 16 119h363v381q68 22 151 22q70 0 70 -51v-352h328q27 0 39 -15.5t12 -50.5v-119h-379v-403h-156q-35 0 -50 12t-15 39v352h-328q-27 0 -39 15.5t-12 50.5z" />
<glyph unicode="&#xb2;" horiz-adv-x="819" d="M94 1231q0 21 10 43q34 79 109.5 127.5t185.5 48.5q139 0 226.5 -79.5t87.5 -211.5q0 -126 -76.5 -231.5t-218.5 -202.5h254q45 0 45 -55v-88h-518q-46 0 -64 32q-18 37 -24 95q83 43 153.5 91t133 106t98.5 125t36 134q0 66 -37 103t-100 37q-111 0 -145 -152 q-67 3 -125 33q-31 20 -31 45z" />
<glyph unicode="&#xb3;" horiz-adv-x="819" d="M92 686q0 44 23 80q123 -55 235 -55q87 0 133.5 29.5t46.5 86.5q0 126 -184 138q-28 2 -40.5 7t-22.5 21q-20 31 -27 82l195 217h-293q-27 0 -38 11t-11 40q0 41 12 91h467q47 0 65 -29q22 -32 29 -74l-223 -252q117 -24 182.5 -87.5t65.5 -164.5q0 -119 -92 -190.5 t-248 -71.5q-103 0 -189 40.5t-86 80.5z" />
<glyph unicode="&#xb4;" horiz-adv-x="860" d="M225 1245l224 225q27 27 51 27q28 0 55 -20q47 -36 82 -107l-252 -199q-26 -20 -47 -20q-23 0 -43 20z" />
<glyph unicode="&#xb5;" horiz-adv-x="1273" d="M164 -416v1503q77 21 153 21q68 0 68 -51v-783q53 -51 131.5 -80.5t155.5 -29.5q233 0 233 274v656h156q35 0 50 -12.5t15 -39.5v-581q0 -232 -102.5 -359t-288.5 -127q-99 0 -193.5 40.5t-156.5 105.5v-588h-156q-35 0 -50 12t-15 39z" />
<glyph unicode="&#xb6;" horiz-adv-x="1234" d="M102 1051q0 182 125.5 282.5t319.5 100.5h567q22 0 30.5 -11.5t8.5 -42.5v-57h-170v-1591h-70q-30 0 -41.5 8.5t-11.5 30.5v1552h-172v-1591h-78q-30 0 -41.5 8.5t-11.5 30.5v897q-202 0 -328.5 99.5t-126.5 283.5z" />
<glyph unicode="&#xb7;" horiz-adv-x="675" d="M197 686q0 64 38 101.5t99 37.5q60 0 102.5 -41.5t42.5 -109.5q0 -64 -38 -101.5t-99 -37.5q-60 0 -102.5 41.5t-42.5 109.5z" />
<glyph unicode="&#xb8;" horiz-adv-x="860" d="M221 -381q0 43 37 43q10 0 40 -6t48 -6q39 0 62.5 16.5t23.5 48.5q0 84 -153 92q-27 13 -27 25q0 4 4 12l82 156h192l-67 -123q72 -14 115 -58.5t43 -109.5q0 -90 -69 -143t-183 -53q-93 0 -148 18v88z" />
<glyph unicode="&#xb9;" horiz-adv-x="819" d="M131 1233q0 26 29 43l250 158h94q31 0 43 -10t12 -35v-807h-123q-30 0 -42.5 10.5t-12.5 34.5v606l-162 -100q-49 25 -76 65q-12 15 -12 35z" />
<glyph unicode="&#xba;" horiz-adv-x="925" d="M72 1044q0 128 56 222t143.5 139t191.5 45t191.5 -45t143.5 -139t56 -222q0 -97 -32.5 -175.5t-87 -128t-124.5 -75.5t-147 -26t-147 26t-124.5 75.5t-87 128t-32.5 175.5zM268 1053q0 -116 54.5 -188t148.5 -72q82 0 134 64t52 179q0 116 -54 188t-148 72 q-82 0 -134.5 -64t-52.5 -179z" />
<glyph unicode="&#xbb;" horiz-adv-x="1218" d="M123 971q0 59 37 59q15 0 37 -16l419 -295v-111q0 -47 -34 -73l-457 -320v160q0 46 35 69l286 195l-309 209q-14 75 -14 123zM602 971q0 59 37 59q15 0 37 -16l420 -295v-111q0 -46 -35 -73l-457 -320v160q0 46 35 69l287 195l-310 209q-14 75 -14 123z" />
<glyph unicode="&#xbc;" horiz-adv-x="1966" d="M131 1233q0 26 29 43l250 158h94q31 0 43 -10t12 -35v-807h-123q-30 0 -42.5 10.5t-12.5 34.5v606l-162 -100q-49 25 -76 65q-12 15 -12 35zM610 61l576 1373h100q39 0 51.5 -17t1.5 -45l-575 -1372h-100q-39 0 -52 16.5t-2 44.5zM1208 283q42 155 144.5 303t232.5 248 q65 28 148 28q43 0 58 -12t15 -43v-498h64q23 0 33 -13t10 -42v-88h-107v-166h-120q-30 0 -43 10.5t-13 34.5v121h-334q-40 0 -63 33q-23 43 -25 84zM1397 309h233v361q-69 -67 -136 -170t-97 -191z" />
<glyph unicode="&#xbd;" horiz-adv-x="1966" d="M131 1233q0 26 29 43l250 158h94q31 0 43 -10t12 -35v-807h-123q-30 0 -42.5 10.5t-12.5 34.5v606l-162 -100q-49 25 -76 65q-12 15 -12 35zM610 61l576 1373h100q39 0 51.5 -17t1.5 -45l-575 -1372h-100q-39 0 -52 16.5t-2 44.5zM1241 649q0 -25 31 -45q58 -30 125 -33 q34 152 145 152q63 0 100 -36.5t37 -102.5q0 -67 -36 -134t-99 -125.5t-133.5 -106.5t-153.5 -91q5 -55 25 -94q18 -33 64 -33h518v88q0 55 -45 55h-254q142 97 218.5 203t76.5 232q0 132 -87 211t-227 79q-110 0 -185.5 -48.5t-109.5 -127.5q-10 -23 -10 -43z" />
<glyph unicode="&#xbe;" horiz-adv-x="1966" d="M92 686q0 -40 86 -80.5t189 -40.5q156 0 248 71.5t92 190.5q0 101 -65.5 164.5t-182.5 87.5l223 252q-7 42 -29 74q-18 29 -65 29h-467q-12 -50 -12 -91q0 -29 11 -40t38 -11h293l-195 -217q7 -51 27 -82q10 -16 22.5 -21t40.5 -7q184 -12 184 -138q0 -57 -46.5 -86.5 t-133.5 -29.5q-112 0 -235 55q-23 -36 -23 -80zM610 61l576 1373h100q39 0 51.5 -17t1.5 -45l-575 -1372h-100q-39 0 -52 16.5t-2 44.5zM1208 283q42 155 144.5 303t232.5 248q65 28 148 28q43 0 58 -12t15 -43v-498h64q23 0 33 -13t10 -42v-88h-107v-166h-120 q-30 0 -43 10.5t-13 34.5v121h-334q-40 0 -63 33q-23 43 -25 84zM1397 309h233v361q-69 -67 -136 -170t-97 -191z" />
<glyph unicode="&#xbf;" horiz-adv-x="1142" d="M123 41q0 -183 124.5 -294.5t327.5 -111.5q165 0 282 79t171 214q12 27 12 62t-41 59q-59 38 -159 45q-20 -119 -95.5 -188.5t-169.5 -69.5q-95 0 -155 57t-60 148q0 73 36 131.5t130 136.5q106 89 150.5 163t44.5 171v27q0 27 -15.5 39t-50.5 12h-168v-53 q0 -63 -26.5 -104t-100.5 -107q-128 -112 -182.5 -205t-54.5 -211zM463 979q0 64 38 101.5t99 37.5q60 0 102.5 -41.5t42.5 -109.5q0 -64 -38 -102t-99 -38q-59 0 -102 42t-43 110z" />
<glyph unicode="&#xc0;" horiz-adv-x="1390" d="M55 72l486 1335q93 41 207 41q51 0 74 -16t38 -60l500 -1372h-180q-41 0 -60 10.5t-28 36.5l-105 307h-584l-118 -354h-168q-36 0 -54 21t-8 51zM450 1767q35 71 82 107q27 20 55 20q25 0 52 -27l223 -225l-70 -74q-20 -20 -43 -20q-21 0 -47 20zM471 551h449l-226 661z " />
<glyph unicode="&#xc1;" horiz-adv-x="1390" d="M55 72l486 1335q93 41 207 41q51 0 74 -16t38 -60l500 -1372h-180q-41 0 -60 10.5t-28 36.5l-105 307h-584l-118 -354h-168q-36 0 -54 21t-8 51zM471 551h449l-226 661zM522 1645l223 225q26 26 52 26q28 0 55 -20q47 -36 82 -107l-252 -198q-27 -21 -47 -21 q-22 0 -43 21z" />
<glyph unicode="&#xc2;" horiz-adv-x="1390" d="M55 72l486 1335q93 41 207 41q51 0 74 -16t38 -60l500 -1372h-180q-41 0 -60 10.5t-28 36.5l-105 307h-584l-118 -354h-168q-36 0 -54 21t-8 51zM395 1644q0 18 12 33l226 215h69q33 0 50.5 -7.5t41.5 -29.5l222 -211l-54 -59q-36 -39 -63 -39q-29 0 -66 37l-139 141 l-178 -180q-121 46 -121 100zM471 551h449l-226 661z" />
<glyph unicode="&#xc3;" horiz-adv-x="1390" d="M55 72l486 1335q93 41 207 41q51 0 74 -16t38 -60l500 -1372h-180q-41 0 -60 10.5t-28 36.5l-105 307h-584l-118 -354h-168q-36 0 -54 21t-8 51zM395 1663q0 23 8 55q46 127 166 127q73 0 131 -45q33 -27 48.5 -36t29.5 -9q41 0 58 98l112 -30q29 -7 37.5 -22.5 t3.5 -45.5q-14 -74 -60.5 -118t-115.5 -44q-71 0 -129 45q-55 43 -78 43q-45 0 -57 -88q-56 -3 -113 19q-41 16 -41 51zM471 551h449l-226 661z" />
<glyph unicode="&#xc4;" horiz-adv-x="1390" d="M55 72q-10 -30 8 -51t54 -21h168l118 354h584l105 -307q9 -26 28 -36.5t60 -10.5h180l-500 1372q-15 44 -38 60t-74 16q-114 0 -207 -41zM379 1724q0 56 34 89.5t87 33.5t91 -37t38 -96q0 -58 -33.5 -91.5t-87.5 -33.5q-53 0 -91 37t-38 98zM471 551l223 661l226 -661 h-449zM760 1724q0 56 34 89.5t87 33.5t91 -37t38 -96q0 -58 -34 -91.5t-87 -33.5t-91 37t-38 98z" />
<glyph unicode="&#xc5;" horiz-adv-x="1390" d="M55 72l486 1335q93 41 207 41q51 0 74 -16t38 -60l500 -1372h-180q-41 0 -60 10.5t-28 36.5l-105 307h-584l-118 -354h-168q-36 0 -54 21t-8 51zM471 551h449l-226 661zM504 1718q0 78 53 130t137 52t137.5 -52t53.5 -130t-53.5 -130t-137.5 -52t-137 52t-53 130z M620 1722q0 -36 22.5 -59t55.5 -23q31 0 50.5 20.5t19.5 53.5q0 36 -22.5 59t-55.5 23q-31 0 -50.5 -20.5t-19.5 -53.5z" />
<glyph unicode="&#xc6;" horiz-adv-x="1849" d="M37 72l635 1314q102 48 229 48h768q27 0 39 -15.5t12 -50.5q0 -65 -16 -131h-623v-424h478q27 0 39 -15t12 -50v-132h-529v-213q0 -117 29.5 -161.5t108.5 -44.5h467q27 0 39 -15.5t12 -50.5v-131h-549q-166 0 -249.5 82.5t-90.5 271.5h-414l-164 -354h-172 q-36 0 -55 21.5t-6 50.5zM526 551h322v690z" />
<glyph unicode="&#xc7;" horiz-adv-x="1406" d="M113 760q0 162 52 295.5t142.5 220.5t209.5 134.5t255 47.5q187 0 330 -81.5t209 -217.5q14 -28 14 -57q0 -34 -41 -58q-59 -38 -160 -45q-43 122 -138 190t-230 68q-80 0 -152 -32t-129 -92t-91 -155t-34 -212q0 -278 158.5 -434t415.5 -156q183 0 321 72 q31 -52 31 -107q0 -52 -104.5 -104.5t-247.5 -59.5l-56 -100q72 -14 115 -58.5t43 -109.5q0 -90 -69 -143t-183 -53q-92 0 -147 18v88q0 43 37 43q10 0 40 -6t48 -6q39 0 62.5 16.5t23.5 48.5q0 84 -154 92q-27 13 -27 25q0 2 5 12l73 144q-182 29 -321.5 128.5t-220 266.5 t-80.5 377z" />
<glyph unicode="&#xc8;" d="M180 387v1047h821q52 0 52 -66q0 -61 -17 -131h-622v-424h477q27 0 39 -15t12 -50v-132h-528v-213q0 -118 29 -162t108 -44h467q27 0 39 -15.5t12 -50.5v-131h-549q-172 0 -256 90t-84 297zM383 1767q35 71 82 107q27 20 55 20q25 0 52 -27l223 -225l-70 -74 q-20 -20 -43 -20q-21 0 -47 20z" />
<glyph unicode="&#xc9;" d="M180 387v1047h821q52 0 52 -66q0 -61 -17 -131h-622v-424h477q27 0 39 -15t12 -50v-132h-528v-213q0 -118 29 -162t108 -44h467q27 0 39 -15.5t12 -50.5v-131h-549q-172 0 -256 90t-84 297zM411 1642l224 225q27 27 51 27q28 0 55 -20q47 -36 82 -107l-252 -199 q-26 -20 -47 -20q-23 0 -43 20z" />
<glyph unicode="&#xca;" d="M180 387v1047h821q52 0 52 -66q0 -61 -17 -131h-622v-424h477q27 0 39 -15t12 -50v-132h-528v-213q0 -118 29 -162t108 -44h467q27 0 39 -15.5t12 -50.5v-131h-549q-172 0 -256 90t-84 297zM309 1645q0 16 13 32l225 215h69q33 0 51 -7.5t42 -29.5l221 -210l-53 -60 q-36 -39 -64 -39t-65 37l-140 141l-178 -180q-121 46 -121 101z" />
<glyph unicode="&#xcb;" d="M180 387v1047h821q52 0 52 -66q0 -61 -17 -131h-622v-424h477q27 0 39 -15t12 -50v-132h-528v-213q0 -118 29 -162t108 -44h467q27 0 39 -15.5t12 -50.5v-131h-549q-172 0 -256 90t-84 297zM293 1724q0 56 34 89.5t87 33.5t91 -37t38 -96q0 -58 -33.5 -91.5t-87.5 -33.5 q-53 0 -91 37t-38 98zM674 1724q0 56 33.5 89.5t86.5 33.5t91 -37t38 -96q0 -58 -33.5 -91.5t-86.5 -33.5t-91 37t-38 98z" />
<glyph unicode="&#xcc;" horiz-adv-x="622" d="M27 1767q35 71 82 107q27 20 55 20q25 0 51 -26l223 -226l-69 -73q-21 -21 -43 -21q-20 0 -47 21zM195 51v1374q80 23 163 23q70 0 70 -51v-1397h-168q-35 0 -50 12t-15 39z" />
<glyph unicode="&#xcd;" horiz-adv-x="622" d="M180 1642l224 225q27 27 51 27q28 0 55 -20q47 -36 82 -107l-252 -199q-26 -20 -47 -20q-23 0 -43 20zM195 51v1374q80 23 163 23q70 0 70 -51v-1397h-168q-35 0 -50 12t-15 39z" />
<glyph unicode="&#xce;" horiz-adv-x="622" d="M12 1644q0 18 12 33l226 215h69q33 0 50.5 -7.5t41.5 -29.5l222 -211l-54 -59q-36 -39 -63 -39q-29 0 -66 37l-139 141l-178 -180q-121 46 -121 100zM195 51v1374q80 23 163 23q70 0 70 -51v-1397h-168q-35 0 -50 12t-15 39z" />
<glyph unicode="&#xcf;" horiz-adv-x="622" d="M-4 1724q0 56 34 89.5t87 33.5t91 -37t38 -96q0 -58 -34 -91.5t-87 -33.5t-91 37t-38 98zM195 51v1374q80 23 163 23q70 0 70 -51v-1397h-168q-35 0 -50 12t-15 39zM377 1724q0 56 34 89.5t87 33.5t91 -37t38 -96q0 -58 -33.5 -91.5t-87.5 -33.5q-53 0 -91 37t-38 98z " />
<glyph unicode="&#xd0;" horiz-adv-x="1478" d="M45 692q0 55 8 94h127v648h514q142 0 265 -50t213 -141.5t142 -227t52 -298.5t-52 -298.5t-142 -227t-213 -141.5t-265 -50h-174q-172 0 -256 90t-84 297v260h-84q-51 0 -51 45zM414 403q0 -118 29 -162t108 -44h106q96 0 180 33.5t148.5 97.5t101.5 164t37 225t-37 225 t-101.5 164t-148.5 97.5t-180 33.5h-243v-451h315q27 0 39 -15t12 -50v-74h-366v-244z" />
<glyph unicode="&#xd1;" horiz-adv-x="1470" d="M184 51v1327q38 29 86.5 49.5t79.5 20.5q43 0 64 -35l639 -1012v1033h168q35 0 50 -12.5t15 -39.5v-1327q-38 -29 -86.5 -49t-79.5 -20q-42 0 -63 34l-639 1012v-1032h-168q-35 0 -50.5 12t-15.5 39zM438 1663q0 23 8 55q46 127 166 127q73 0 131 -45q33 -27 48.5 -36 t29.5 -9q41 0 58 98l112 -30q29 -7 37.5 -22.5t3.5 -45.5q-14 -74 -60.5 -118t-115.5 -44q-71 0 -129 45q-55 43 -78 43q-45 0 -57 -88q-56 -3 -113 19q-41 16 -41 51z" />
<glyph unicode="&#xd2;" horiz-adv-x="1585" d="M113 717q0 178 54 321t148 233.5t216 138.5t262 48t262 -48t216 -138.5t148 -233.5t54 -321t-54 -321t-148 -234t-216 -139t-262 -48t-262 48t-216 139t-148 234t-54 321zM350 735q0 -127 36 -233.5t98 -177t144.5 -109.5t176.5 -39q83 0 158 31t137 92t98.5 164 t36.5 235q0 127 -36 233.5t-98 177t-144.5 109.5t-176.5 39q-83 0 -158 -31t-137 -92t-98.5 -164t-36.5 -235zM549 1767q35 71 82 107q27 20 55 20q25 0 52 -27l223 -225l-70 -74q-20 -20 -43 -20q-21 0 -47 20z" />
<glyph unicode="&#xd3;" horiz-adv-x="1585" d="M113 717q0 178 54 321t148 233.5t216 138.5t262 48t262 -48t216 -138.5t148 -233.5t54 -321t-54 -321t-148 -234t-216 -139t-262 -48t-262 48t-216 139t-148 234t-54 321zM350 735q0 -127 36 -233.5t98 -177t144.5 -109.5t176.5 -39q83 0 158 31t137 92t98.5 164 t36.5 235q0 127 -36 233.5t-98 177t-144.5 109.5t-176.5 39q-83 0 -158 -31t-137 -92t-98.5 -164t-36.5 -235zM610 1642l224 225q27 27 51 27q28 0 55 -20q47 -36 82 -107l-252 -199q-26 -20 -47 -20q-23 0 -43 20z" />
<glyph unicode="&#xd4;" horiz-adv-x="1585" d="M113 717q0 178 54 321t148 233.5t216 138.5t262 48t262 -48t216 -138.5t148 -233.5t54 -321t-54 -321t-148 -234t-216 -139t-262 -48t-262 48t-216 139t-148 234t-54 321zM350 735q0 -127 36 -233.5t98 -177t144.5 -109.5t176.5 -39q83 0 158 31t137 92t98.5 164 t36.5 235q0 127 -36 233.5t-98 177t-144.5 109.5t-176.5 39q-83 0 -158 -31t-137 -92t-98.5 -164t-36.5 -235zM493 1644q0 18 12 33l226 215h69q33 0 50.5 -7.5t41.5 -29.5l222 -211l-54 -59q-36 -39 -63 -39q-29 0 -66 37l-139 141l-178 -180q-121 46 -121 100z" />
<glyph unicode="&#xd5;" horiz-adv-x="1585" d="M113 717q0 178 54 321t148 233.5t216 138.5t262 48t262 -48t216 -138.5t148 -233.5t54 -321t-54 -321t-148 -234t-216 -139t-262 -48t-262 48t-216 139t-148 234t-54 321zM350 735q0 -127 36 -233.5t98 -177t144.5 -109.5t176.5 -39q83 0 158 31t137 92t98.5 164 t36.5 235q0 127 -36 233.5t-98 177t-144.5 109.5t-176.5 39q-83 0 -158 -31t-137 -92t-98.5 -164t-36.5 -235zM493 1663q0 23 8 55q46 127 166 127q73 0 131 -45q33 -27 48.5 -36t29.5 -9q40 0 57 98l113 -31q29 -7 37.5 -22.5t3.5 -44.5q-14 -74 -60.5 -118t-115.5 -44 q-71 0 -129 45q-55 43 -78 43q-45 0 -57 -88q-59 -3 -113 18q-41 16 -41 52z" />
<glyph unicode="&#xd6;" horiz-adv-x="1585" d="M113 717q0 178 54 321t148 233.5t216 138.5t262 48t262 -48t216 -138.5t148 -233.5t54 -321t-54 -321t-148 -234t-216 -139t-262 -48t-262 48t-216 139t-148 234t-54 321zM350 735q0 -127 36 -233.5t98 -177t144.5 -109.5t176.5 -39q83 0 158 31t137 92t98.5 164 t36.5 235q0 127 -36 233.5t-98 177t-144.5 109.5t-176.5 39q-83 0 -158 -31t-137 -92t-98.5 -164t-36.5 -235zM477 1724q0 56 34 89.5t87 33.5t91 -37t38 -96q0 -58 -33.5 -91.5t-87.5 -33.5q-53 0 -91 37t-38 98zM858 1724q0 56 34 89.5t87 33.5t91 -37t38 -96 q0 -58 -34 -91.5t-87 -33.5t-91 37t-38 98z" />
<glyph unicode="&#xd7;" horiz-adv-x="1306" d="M209 381l299 295l-299 295q35 61 82 108q55 55 102 4l258 -264l260 264q49 49 103 -4q47 -47 82 -108l-299 -295l299 -295l-103 -102q-47 -47 -82 -11l-260 262l-258 -262q-35 -36 -82 11z" />
<glyph unicode="&#xd8;" horiz-adv-x="1585" d="M85.5 18q-12.5 18 8.5 41l160 174q-141 191 -141 484q0 178 54 321t148 233.5t216 138.5t262 48q260 0 444 -158l123 134h86q40 0 53 -18.5t-8 -41.5l-160 -174q142 -195 142 -483q0 -178 -54 -321t-148 -234t-216 -139t-262 -48q-265 0 -447 156l-121 -131h-86 q-41 0 -53.5 18zM350 735q0 -187 72 -319l657 714q-124 127 -299 127q-83 0 -158 -31t-137 -92t-98.5 -164t-36.5 -235zM504 303q124 -127 301 -127q83 0 158 31t137 92t98.5 164t36.5 235q0 185 -74 320z" />
<glyph unicode="&#xd9;" horiz-adv-x="1470" d="M174 606v819q80 23 164 23q70 0 70 -51v-809q0 -188 87 -300t240 -112q154 0 241 112t87 300v846h168q35 0 50 -12.5t15 -39.5v-776q0 -291 -148 -461t-413 -170t-413 170t-148 461zM491 1767q35 71 82 107q27 20 55 20q25 0 52 -27l223 -225l-70 -74q-20 -20 -43 -20 q-21 0 -47 20z" />
<glyph unicode="&#xda;" horiz-adv-x="1470" d="M174 606v819q80 23 164 23q70 0 70 -51v-809q0 -188 87 -300t240 -112q154 0 241 112t87 300v846h168q35 0 50 -12.5t15 -39.5v-776q0 -291 -148 -461t-413 -170t-413 170t-148 461zM553 1642l224 225q27 27 51 27q28 0 55 -20q47 -36 82 -107l-252 -199q-26 -20 -47 -20 q-23 0 -43 20z" />
<glyph unicode="&#xdb;" horiz-adv-x="1470" d="M174 606v819q80 23 164 23q70 0 70 -51v-809q0 -188 87 -300t240 -112q154 0 241 112t87 300v846h168q35 0 50 -12.5t15 -39.5v-776q0 -291 -148 -461t-413 -170t-413 170t-148 461zM436 1644q0 18 12 33l226 215h69q33 0 50.5 -7.5t41.5 -29.5l222 -211l-54 -59 q-36 -39 -63 -39q-29 0 -66 37l-139 141l-178 -180q-121 46 -121 100z" />
<glyph unicode="&#xdc;" horiz-adv-x="1470" d="M174 606v819q80 23 164 23q70 0 70 -51v-809q0 -188 87 -300t240 -112q154 0 241 112t87 300v846h168q35 0 50 -12.5t15 -39.5v-776q0 -291 -148 -461t-413 -170t-413 170t-148 461zM420 1724q0 56 34 89.5t87 33.5t91 -37t38 -96q0 -58 -34 -91.5t-87 -33.5t-91 37 t-38 98zM801 1724q0 56 34 89.5t87 33.5t91 -37t38 -96q0 -58 -33.5 -91.5t-87.5 -33.5q-53 0 -91 37t-38 98z" />
<glyph unicode="&#xdd;" horiz-adv-x="1366" d="M74 1348q94 100 176 100q20 0 31 -7.5t22 -27.5l381 -711q260 374 379 732h164q32 0 49.5 -12t17.5 -33q0 -7 -4 -19q-163 -450 -493 -874v-496h-168q-35 0 -50.5 12t-15.5 39v434zM520 1642l224 225q27 27 51 27q28 0 55 -20q47 -36 82 -107l-252 -199q-26 -20 -47 -20 q-23 0 -43 20z" />
<glyph unicode="&#xde;" horiz-adv-x="1314" d="M184 51v1374q80 23 164 23q70 0 70 -51v-168h241q262 0 413 -140t151 -387q0 -156 -71.5 -271.5t-194 -174.5t-277.5 -59q-61 0 -137 9t-125 25v-231h-168q-35 0 -50.5 12t-15.5 39zM418 418q92 -21 219 -21q160 0 254 80.5t94 235.5q0 156 -90 237.5t-252 81.5h-225 v-614z" />
<glyph unicode="&#xdf;" horiz-adv-x="1316" d="M164 51v889q0 241 121.5 379.5t343.5 138.5q198 0 325 -114t127 -275q0 -107 -58 -187.5t-159 -117.5q162 -38 268.5 -149.5t106.5 -260.5q0 -169 -120.5 -274t-309.5 -105q-138 0 -217.5 47t-79.5 103q0 54 31 106q89 -55 213 -55q112 0 181 59.5t69 159.5 q0 105 -111 180.5t-260 77.5q-29 66 -29 111q0 36 12 53t37 23q93 28 143 83.5t50 133.5q0 89 -61.5 144.5t-155.5 55.5q-107 0 -170.5 -74.5t-63.5 -203.5v-979h-168q-35 0 -50 12t-15 39z" />
<glyph unicode="&#xe0;" horiz-adv-x="1224" d="M102 317q0 168 119 263.5t322 95.5q70 0 145.5 -15.5t120.5 -39.5v69q0 240 -307 240q-153 0 -277 -62q-12 15 -21 43.5t-9 53.5t28 52t75 49.5t116.5 37t146.5 14.5q224 0 346.5 -110.5t122.5 -325.5v-410q0 -60 19.5 -84t58.5 -24h43q12 -38 12 -78q0 -37 -42.5 -68.5 t-110.5 -31.5q-66 0 -120 44t-73 132q-53 -88 -143.5 -137.5t-202.5 -49.5q-163 0 -266 95t-103 247zM324 324q0 -79 55.5 -119.5t146.5 -40.5q86 0 165 46t118 124v125q-34 13 -105 20.5t-129 7.5q-122 0 -186.5 -42t-64.5 -121zM379 1411q35 71 82 107q27 20 55 20 q25 0 52 -27l223 -225l-70 -74q-20 -20 -43 -20q-21 0 -47 20z" />
<glyph unicode="&#xe1;" horiz-adv-x="1224" d="M102 317q0 168 119 263.5t322 95.5q70 0 145.5 -15.5t120.5 -39.5v69q0 240 -307 240q-153 0 -277 -62q-12 15 -21 43.5t-9 53.5t28 52t75 49.5t116.5 37t146.5 14.5q224 0 346.5 -110.5t122.5 -325.5v-410q0 -60 19.5 -84t58.5 -24h43q12 -38 12 -78q0 -37 -42.5 -68.5 t-110.5 -31.5q-66 0 -120 44t-73 132q-53 -88 -143.5 -137.5t-202.5 -49.5q-163 0 -266 95t-103 247zM324 324q0 -79 55.5 -119.5t146.5 -40.5q86 0 165 46t118 124v125q-34 13 -105 20.5t-129 7.5q-122 0 -186.5 -42t-64.5 -121zM399 1286l224 225q27 27 51 27q28 0 55 -20 q47 -36 82 -107l-252 -199q-26 -20 -47 -20q-23 0 -43 20z" />
<glyph unicode="&#xe2;" horiz-adv-x="1224" d="M102 317q0 168 119 263.5t322 95.5q70 0 145.5 -15.5t120.5 -39.5v69q0 240 -307 240q-153 0 -277 -62q-12 15 -21 43.5t-9 53.5t28 52t75 49.5t116.5 37t146.5 14.5q224 0 346.5 -110.5t122.5 -325.5v-410q0 -60 19.5 -84t58.5 -24h43q12 -38 12 -78q0 -37 -42.5 -68.5 t-110.5 -31.5q-66 0 -120 44t-73 132q-53 -88 -143.5 -137.5t-202.5 -49.5q-163 0 -266 95t-103 247zM303 1288q0 18 12 33l226 215h69q33 0 50.5 -7.5t41.5 -29.5l222 -211l-54 -59q-36 -39 -63 -39q-29 0 -66 37l-139 141l-178 -180q-121 46 -121 100zM324 324 q0 -79 55.5 -119.5t146.5 -40.5q86 0 165 46t118 124v125q-34 13 -105 20.5t-129 7.5q-122 0 -186.5 -42t-64.5 -121z" />
<glyph unicode="&#xe3;" horiz-adv-x="1224" d="M102 317q0 168 119 263.5t322 95.5q70 0 145.5 -15.5t120.5 -39.5v69q0 240 -307 240q-153 0 -277 -62q-12 15 -21 43.5t-9 53.5t28 52t75 49.5t116.5 37t146.5 14.5q224 0 346.5 -110.5t122.5 -325.5v-410q0 -60 19.5 -84t58.5 -24h43q12 -38 12 -78q0 -37 -42.5 -68.5 t-110.5 -31.5q-66 0 -120 44t-73 132q-53 -88 -143.5 -137.5t-202.5 -49.5q-163 0 -266 95t-103 247zM303 1305q0 23 8 55q46 127 166 127q73 0 131 -45q33 -27 48.5 -36t29.5 -9q40 0 57 98l113 -31q29 -7 37.5 -22.5t3.5 -44.5q-14 -74 -60.5 -118t-115.5 -44 q-71 0 -129 45q-55 43 -78 43q-45 0 -57 -88q-59 -3 -113 18q-41 16 -41 52zM324 324q0 -79 55.5 -119.5t146.5 -40.5q86 0 165 46t118 124v125q-34 13 -105 20.5t-129 7.5q-122 0 -186.5 -42t-64.5 -121z" />
<glyph unicode="&#xe4;" horiz-adv-x="1224" d="M102 317q0 168 119 263.5t322 95.5q70 0 145.5 -15.5t120.5 -39.5v69q0 240 -307 240q-153 0 -277 -62q-12 15 -21 43.5t-9 53.5t28 52t75 49.5t116.5 37t146.5 14.5q224 0 346.5 -110.5t122.5 -325.5v-410q0 -60 19.5 -84t58.5 -24h43q12 -38 12 -78q0 -37 -42.5 -68.5 t-110.5 -31.5q-66 0 -120 44t-73 132q-53 -88 -143.5 -137.5t-202.5 -49.5q-163 0 -266 95t-103 247zM287 1368q0 56 34 89.5t87 33.5t91 -37t38 -96q0 -58 -33.5 -91.5t-87.5 -33.5q-53 0 -91 37t-38 98zM324 324q0 -79 55.5 -119.5t146.5 -40.5q86 0 165 46t118 124v125 q-34 13 -105 20.5t-129 7.5q-122 0 -186.5 -42t-64.5 -121zM668 1368q0 56 33.5 89.5t86.5 33.5t91.5 -37t38.5 -96q0 -58 -34 -91.5t-87 -33.5t-91 37t-38 98z" />
<glyph unicode="&#xe5;" horiz-adv-x="1224" d="M102 317q0 168 119 263.5t322 95.5q70 0 145.5 -15.5t120.5 -39.5v69q0 240 -307 240q-153 0 -277 -62q-12 15 -21 43.5t-9 53.5t28 52t75 49.5t116.5 37t146.5 14.5q224 0 346.5 -110.5t122.5 -325.5v-410q0 -60 19.5 -84t58.5 -24h43q12 -38 12 -78q0 -37 -42.5 -68.5 t-110.5 -31.5q-66 0 -120 44t-73 132q-53 -88 -143.5 -137.5t-202.5 -49.5q-163 0 -266 95t-103 247zM324 324q0 -79 55.5 -119.5t146.5 -40.5q86 0 165 46t118 124v125q-34 13 -105 20.5t-129 7.5q-122 0 -186.5 -42t-64.5 -121zM400 1362q0 78 53 130t137 52t137.5 -52 t53.5 -130t-53.5 -130t-137.5 -52t-137 52t-53 130zM516 1366q0 -36 22.5 -59t55.5 -23q31 0 50.5 20.5t19.5 53.5q0 36 -22.5 59t-55.5 23q-31 0 -50.5 -20.5t-19.5 -53.5z" />
<glyph unicode="&#xe6;" horiz-adv-x="1884" d="M102 317q0 168 119 263.5t322 95.5q70 0 145.5 -15.5t120.5 -39.5v69q0 240 -307 240q-153 0 -277 -62q-12 15 -21 43.5t-9 53.5t28 52t75 49.5t116.5 37t146.5 14.5q138 0 241 -48t152 -138q61 86 166 136t234 50q194 0 316 -113t122 -284q0 -99 -35 -174 q-25 -50 -61 -70t-101 -20h-563q18 -144 115 -218.5t246 -74.5q144 0 266 61q12 -15 21.5 -43.5t9.5 -52.5q0 -55 -96 -104.5t-240 -49.5q-136 0 -253 59t-192 161q-57 -100 -159 -160t-236 -60q-197 0 -304.5 95.5t-107.5 246.5zM324 324q0 -79 55.5 -119.5t146.5 -40.5 q52 0 101.5 18t90.5 53t66 93t25 131q-34 13 -105 20.5t-129 7.5q-122 0 -186.5 -42t-64.5 -121zM1034 641h527q14 32 14 68q0 103 -61 162t-173 59q-126 0 -207 -77t-100 -212z" />
<glyph unicode="&#xe7;" horiz-adv-x="1134" d="M102 580q0 248 147.5 393t381.5 145q149 0 259.5 -60.5t158.5 -156.5q14 -28 14 -57q0 -34 -41 -58q-64 -41 -148 -47q-23 87 -87 139t-166 52q-127 0 -210 -93.5t-83 -250.5q0 -198 116.5 -310t286.5 -112q148 0 270 61q31 -48 31 -96q0 -47 -75 -92.5t-191 -56.5 l-55 -103q72 -14 114.5 -58.5t42.5 -109.5q0 -90 -69 -143t-183 -53q-92 0 -147 18v88q0 43 37 43q10 0 40 -6t48 -6q39 0 62.5 16.5t23.5 48.5q0 84 -154 92q-26 13 -26 25q0 4 4 12l74 144q-97 19 -182.5 67t-151.5 121.5t-104 177.5t-38 226z" />
<glyph unicode="&#xe8;" d="M102 543q0 176 75.5 308.5t199 199.5t274.5 67q194 0 316.5 -113t122.5 -284q0 -99 -35 -174q-25 -50 -61 -70t-101 -20h-563q18 -144 114.5 -218.5t245.5 -74.5q144 0 266 61q12 -15 21.5 -43.5t9.5 -52.5q0 -55 -96 -104.5t-240 -49.5q-239 0 -394 160t-155 408z M332 641h526q14 28 14 68q0 103 -60.5 162t-172.5 59q-126 0 -207 -77t-100 -212zM395 1411q35 71 82 107q27 20 55 20q25 0 52 -27l223 -225l-70 -74q-20 -20 -43 -20q-21 0 -47 20z" />
<glyph unicode="&#xe9;" d="M102 543q0 176 75.5 308.5t199 199.5t274.5 67q194 0 316.5 -113t122.5 -284q0 -99 -35 -174q-25 -50 -61 -70t-101 -20h-563q18 -144 114.5 -218.5t245.5 -74.5q144 0 266 61q12 -15 21.5 -43.5t9.5 -52.5q0 -55 -96 -104.5t-240 -49.5q-239 0 -394 160t-155 408z M332 641h526q14 28 14 68q0 103 -60.5 162t-172.5 59q-126 0 -207 -77t-100 -212zM416 1286l223 225q27 27 51 27q28 0 55 -20q47 -36 82 -107l-252 -199q-26 -20 -47 -20q-23 0 -43 20z" />
<glyph unicode="&#xea;" d="M102 543q0 176 75.5 308.5t199 199.5t274.5 67q194 0 316.5 -113t122.5 -284q0 -99 -35 -174q-25 -50 -61 -70t-101 -20h-563q18 -144 114.5 -218.5t245.5 -74.5q144 0 266 61q12 -15 21.5 -43.5t9.5 -52.5q0 -55 -96 -104.5t-240 -49.5q-239 0 -394 160t-155 408z M319 1288q0 17 13 33l225 215h70q33 0 50.5 -7.5t41.5 -29.5l221 -211l-53 -59q-36 -39 -64 -39t-65 37l-140 141l-178 -180q-121 46 -121 100zM332 641h526q14 28 14 68q0 103 -60.5 162t-172.5 59q-126 0 -207 -77t-100 -212z" />
<glyph unicode="&#xeb;" d="M102 543q0 176 75.5 308.5t199 199.5t274.5 67q194 0 316.5 -113t122.5 -284q0 -99 -35 -174q-25 -50 -61 -70t-101 -20h-563q18 -144 114.5 -218.5t245.5 -74.5q144 0 266 61q12 -15 21.5 -43.5t9.5 -52.5q0 -55 -96 -104.5t-240 -49.5q-239 0 -394 160t-155 408z M307 1368q0 56 34 89.5t87 33.5t91 -37t38 -96q0 -58 -33.5 -91.5t-87.5 -33.5q-53 0 -91 37t-38 98zM332 641h526q14 28 14 68q0 103 -60.5 162t-172.5 59q-126 0 -207 -77t-100 -212zM688 1368q0 56 34 89.5t87 33.5t91 -37t38 -96q0 -58 -34 -91.5t-87 -33.5t-91 37 t-38 98z" />
<glyph unicode="&#xec;" horiz-adv-x="593" d="M4 1411q35 71 82 107q27 20 55 20q25 0 52 -27l223 -225l-70 -74q-20 -20 -43 -20q-21 0 -47 20zM164 252v835q77 21 153 21q68 0 68 -51v-785q0 -58 16.5 -83t53.5 -25h51q12 -38 12 -78q0 -37 -42.5 -68.5t-110.5 -31.5q-40 0 -74 12.5t-63.5 41.5t-46.5 83t-17 129z " />
<glyph unicode="&#xed;" horiz-adv-x="593" d="M119 1286l224 225q27 27 51 27q28 0 55 -20q47 -36 82 -107l-252 -199q-26 -20 -47 -20q-23 0 -43 20zM164 252v835q77 21 153 21q68 0 68 -51v-785q0 -58 16.5 -83t53.5 -25h51q12 -38 12 -78q0 -37 -42.5 -68.5t-110.5 -31.5q-40 0 -74 12.5t-63.5 41.5t-46.5 83 t-17 129z" />
<glyph unicode="&#xee;" horiz-adv-x="593" d="M-27 1288q0 18 12 33l226 215h69q33 0 50.5 -7.5t41.5 -29.5l222 -211l-54 -59q-36 -39 -63 -39q-29 0 -66 37l-139 141l-178 -180q-121 46 -121 100zM164 252v835q77 21 153 21q68 0 68 -51v-785q0 -58 16.5 -83t53.5 -25h51q12 -38 12 -78q0 -37 -42.5 -68.5 t-110.5 -31.5q-40 0 -74 12.5t-63.5 41.5t-46.5 83t-17 129z" />
<glyph unicode="&#xef;" horiz-adv-x="593" d="M-41 1368q0 56 34 89.5t87 33.5t91 -37t38 -96q0 -58 -33.5 -91.5t-87.5 -33.5q-53 0 -91 37t-38 98zM164 252v835q77 21 153 21q68 0 68 -51v-785q0 -58 16.5 -83t53.5 -25h51q12 -38 12 -78q0 -37 -42.5 -68.5t-110.5 -31.5q-40 0 -74 12.5t-63.5 41.5t-46.5 83 t-17 129zM340 1368q0 56 34 89.5t87 33.5t91 -37t38 -96q0 -58 -34 -91.5t-87 -33.5t-91 37t-38 98z" />
<glyph unicode="&#xf0;" horiz-adv-x="1236" d="M92 440q0 123 43 226.5t114.5 171.5t161.5 105.5t185 37.5q90 0 170.5 -33t136.5 -96q-9 183 -65 295l-127 -78q-45 -26 -68 12q-25 42 -37 86l148 90q-86 74 -211 74q-134 0 -256 -61q-12 15 -21.5 43.5t-9.5 52.5q0 52 101 103t225 51q229 0 364 -146l98 60 q45 26 76 -27l37 -68l-131 -79q104 -200 104 -558q0 -353 -142 -540t-415 -187q-206 0 -343.5 133.5t-137.5 331.5zM317 449q0 -129 74.5 -208t188.5 -79q154 0 239.5 126t85.5 376v16q-96 113 -270 113q-143 0 -230.5 -90.5t-87.5 -253.5z" />
<glyph unicode="&#xf1;" horiz-adv-x="1325" d="M164 51v1036q77 21 153 21q68 0 68 -51v-84q62 64 157 104.5t193 40.5q186 0 288.5 -127t102.5 -358v-361q0 -58 16.5 -83t53.5 -25h51q13 -41 13 -78t-43 -68.5t-111 -31.5q-40 0 -74 12.5t-63.5 41.5t-46.5 83t-17 129v403q0 275 -233 275q-76 0 -154.5 -30t-132.5 -81 v-819h-156q-35 0 -50 12t-15 39zM346 1305q0 23 8 55q46 127 166 127q73 0 131 -45q33 -27 48.5 -36t29.5 -9q40 0 57 98l113 -31q29 -7 37.5 -22.5t3.5 -44.5q-14 -74 -60.5 -118t-115.5 -44q-71 0 -129 45q-55 43 -78 43q-45 0 -57 -88q-59 -3 -113 18q-41 16 -41 52z" />
<glyph unicode="&#xf2;" horiz-adv-x="1286" d="M102 547q0 134 43.5 243.5t118 180.5t172 109t207.5 38t207.5 -38t172 -109t118 -180.5t43.5 -243.5t-43.5 -243.5t-118 -180.5t-172 -109.5t-207.5 -38.5t-207.5 38.5t-172 109.5t-118 180.5t-43.5 243.5zM328 559q0 -184 95 -289.5t228 -105.5q64 0 118.5 22t97 66 t67 116.5t24.5 166.5q0 184 -95 289.5t-228 105.5q-64 0 -118.5 -22t-97 -66t-67 -116.5t-24.5 -166.5zM397 1411q35 71 82 107q27 20 55 20q25 0 52 -27l223 -225l-70 -74q-20 -20 -43 -20q-21 0 -47 20z" />
<glyph unicode="&#xf3;" horiz-adv-x="1286" d="M102 547q0 134 43.5 243.5t118 180.5t172 109t207.5 38t207.5 -38t172 -109t118 -180.5t43.5 -243.5t-43.5 -243.5t-118 -180.5t-172 -109.5t-207.5 -38.5t-207.5 38.5t-172 109.5t-118 180.5t-43.5 243.5zM328 559q0 -184 95 -289.5t228 -105.5q64 0 118.5 22t97 66 t67 116.5t24.5 166.5q0 184 -95 289.5t-228 105.5q-64 0 -118.5 -22t-97 -66t-67 -116.5t-24.5 -166.5zM458 1286l224 225q27 27 51 27q28 0 55 -20q47 -36 82 -107l-252 -199q-26 -20 -47 -20q-23 0 -43 20z" />
<glyph unicode="&#xf4;" horiz-adv-x="1286" d="M102 547q0 134 43.5 243.5t118 180.5t172 109t207.5 38t207.5 -38t172 -109t118 -180.5t43.5 -243.5t-43.5 -243.5t-118 -180.5t-172 -109.5t-207.5 -38.5t-207.5 38.5t-172 109.5t-118 180.5t-43.5 243.5zM328 559q0 -184 95 -289.5t228 -105.5q64 0 118.5 22t97 66 t67 116.5t24.5 166.5q0 184 -95 289.5t-228 105.5q-64 0 -118.5 -22t-97 -66t-67 -116.5t-24.5 -166.5zM344 1288q0 18 12 33l226 215h69q33 0 50.5 -7.5t41.5 -29.5l222 -211l-54 -59q-36 -39 -63 -39q-29 0 -66 37l-139 141l-178 -180q-121 46 -121 100z" />
<glyph unicode="&#xf5;" horiz-adv-x="1286" d="M102 547q0 134 43.5 243.5t118 180.5t172 109t207.5 38t207.5 -38t172 -109t118 -180.5t43.5 -243.5t-43.5 -243.5t-118 -180.5t-172 -109.5t-207.5 -38.5t-207.5 38.5t-172 109.5t-118 180.5t-43.5 243.5zM328 559q0 -184 95 -289.5t228 -105.5q64 0 118.5 22t97 66 t67 116.5t24.5 166.5q0 184 -95 289.5t-228 105.5q-64 0 -118.5 -22t-97 -66t-67 -116.5t-24.5 -166.5zM344 1305q0 23 8 55q46 127 166 127q73 0 131 -45q33 -27 48.5 -36t29.5 -9q40 0 57 98l113 -31q29 -7 37.5 -22.5t3.5 -44.5q-14 -74 -60.5 -118t-115.5 -44 q-71 0 -129 45q-55 43 -78 43q-45 0 -57 -88q-59 -3 -113 18q-41 16 -41 52z" />
<glyph unicode="&#xf6;" horiz-adv-x="1286" d="M102 547q0 134 43.5 243.5t118 180.5t172 109t207.5 38t207.5 -38t172 -109t118 -180.5t43.5 -243.5t-43.5 -243.5t-118 -180.5t-172 -109.5t-207.5 -38.5t-207.5 38.5t-172 109.5t-118 180.5t-43.5 243.5zM328 559q0 -184 95 -289.5t228 -105.5q64 0 118.5 22t97 66 t67 116.5t24.5 166.5q0 184 -95 289.5t-228 105.5q-64 0 -118.5 -22t-97 -66t-67 -116.5t-24.5 -166.5zM328 1368q0 56 34 89.5t87 33.5t91 -37t38 -96q0 -58 -34 -91.5t-87 -33.5t-91 37t-38 98zM709 1368q0 56 33.5 89.5t86.5 33.5t91 -37t38 -96q0 -58 -33.5 -91.5 t-86.5 -33.5t-91 37t-38 98z" />
<glyph unicode="&#xf7;" horiz-adv-x="1306" d="M164 653q0 63 16 119h912q27 0 39 -15t12 -50v-119h-928q-27 0 -39 15t-12 50zM514 297q0 64 38 101.5t99 37.5q60 0 103 -41.5t43 -109.5q0 -64 -38.5 -102t-99.5 -38q-59 0 -102 42t-43 110zM514 1075q0 64 38 101.5t99 37.5q60 0 103 -41.5t43 -109.5 q0 -64 -38.5 -101.5t-99.5 -37.5q-60 0 -102.5 41.5t-42.5 109.5z" />
<glyph unicode="&#xf8;" horiz-adv-x="1286" d="M97.5 18q-13.5 18 8.5 41l109 119q-113 149 -113 369q0 134 43.5 243.5t118 180.5t172 109t207.5 38q195 0 336 -110l80 86h76q41 0 54 -18.5t-9 -41.5l-111 -119q115 -150 115 -368q0 -134 -43.5 -243.5t-118 -180.5t-172 -109.5t-207.5 -38.5q-197 0 -338 111l-78 -86 h-75q-41 0 -54.5 18zM328 559q0 -122 43 -213l465 506q-87 78 -201 78q-64 0 -118.5 -22t-97 -66t-67 -116.5t-24.5 -166.5zM449 242q87 -78 202 -78q64 0 118.5 22t97 66t67 116.5t24.5 166.5q0 122 -45 210z" />
<glyph unicode="&#xf9;" horiz-adv-x="1261" d="M147 461v626q76 21 154 21q68 0 68 -51v-611q0 -130 74.5 -207t187.5 -77t187.5 77t74.5 207v648h156q35 0 50 -12.5t15 -39.5v-581q0 -225 -131.5 -355.5t-351.5 -130.5t-352 130.5t-132 355.5zM385 1411q35 71 82 107q27 20 55 20q25 0 52 -27l223 -225l-70 -74 q-20 -20 -43 -20q-21 0 -47 20z" />
<glyph unicode="&#xfa;" horiz-adv-x="1261" d="M147 461v626q76 21 154 21q68 0 68 -51v-611q0 -130 74.5 -207t187.5 -77t187.5 77t74.5 207v648h156q35 0 50 -12.5t15 -39.5v-581q0 -225 -131.5 -355.5t-351.5 -130.5t-352 130.5t-132 355.5zM446 1286l224 225q27 27 51 27q28 0 55 -20q47 -36 82 -107l-252 -199 q-26 -20 -47 -20q-23 0 -43 20z" />
<glyph unicode="&#xfb;" horiz-adv-x="1261" d="M147 461v626q76 21 154 21q68 0 68 -51v-611q0 -130 74.5 -207t187.5 -77t187.5 77t74.5 207v648h156q35 0 50 -12.5t15 -39.5v-581q0 -225 -131.5 -355.5t-351.5 -130.5t-352 130.5t-132 355.5zM330 1288q0 18 12 33l226 215h69q33 0 50.5 -7.5t41.5 -29.5l222 -211 l-54 -59q-36 -39 -63 -39q-29 0 -66 37l-139 141l-178 -180q-121 46 -121 100z" />
<glyph unicode="&#xfc;" horiz-adv-x="1261" d="M147 461q0 -225 132 -355.5t352 -130.5t351.5 130.5t131.5 355.5v581q0 27 -15 39.5t-50 12.5h-156v-648q0 -130 -74.5 -207t-187.5 -77t-187.5 77t-74.5 207v611q0 51 -68 51q-77 0 -154 -21v-626zM315 1368q0 56 34 89.5t87 33.5t91 -37t38 -96q0 -58 -33.5 -91.5 t-87.5 -33.5q-53 0 -91 37t-38 98zM696 1368q0 56 34 89.5t87 33.5t91 -37t38 -96q0 -58 -34 -91.5t-87 -33.5t-91 37t-38 98z" />
<glyph unicode="&#xfd;" horiz-adv-x="1286" d="M160 440v647q77 21 153 21q68 0 68 -51v-619q0 -274 233 -274q77 0 155 29t132 81v820h156q35 0 50 -12.5t15 -39.5v-1048q0 -78 -21.5 -150.5t-66.5 -136.5t-109 -112t-155.5 -75.5t-200.5 -27.5q-185 0 -291 80t-106 201q0 70 43.5 136.5t128.5 117.5 q-184 108 -184 413zM393 -197q0 -57 47 -92t135 -35q63 0 121 19t104 55t73.5 94t27.5 129v148q-63 -65 -158 -105.5t-192 -40.5q-33 0 -68 7q-90 -75 -90 -179zM458 1286l224 225q27 27 51 27q28 0 55 -20q47 -36 82 -107l-252 -199q-26 -20 -47 -20q-23 0 -43 20z" />
<glyph unicode="&#xfe;" horiz-adv-x="1316" d="M164 -344v1833q73 20 155 20q35 0 50.5 -12t15.5 -39v-543q57 95 152.5 149t205.5 54q203 0 337 -144t134 -386q0 -136 -44.5 -252.5t-119.5 -194.5t-174 -122t-206 -44q-174 0 -285 105v-475h-156q-35 0 -50 12t-15 39zM385 250q90 -86 246 -86t257 117t101 299 q0 163 -78.5 257.5t-218.5 94.5q-99 0 -181 -65.5t-126 -196.5v-420z" />
<glyph unicode="&#xff;" horiz-adv-x="1286" d="M160 440v647q77 21 153 21q68 0 68 -51v-619q0 -274 233 -274q77 0 155 29t132 81v820h156q35 0 50 -12.5t15 -39.5v-1048q0 -78 -21.5 -150.5t-66.5 -136.5t-109 -112t-155.5 -75.5t-200.5 -27.5q-185 0 -291 80t-106 201q0 70 43.5 136.5t128.5 117.5 q-184 108 -184 413zM326 1368q0 56 34 89.5t87 33.5t91 -37t38 -96q0 -58 -34 -91.5t-87 -33.5t-91 37t-38 98zM393 -197q0 -57 47 -92t135 -35q63 0 121 19t104 55t73.5 94t27.5 129v148q-63 -65 -158 -105.5t-192 -40.5q-33 0 -68 7q-90 -75 -90 -179zM707 1368 q0 56 33.5 89.5t86.5 33.5t91 -37t38 -96q0 -58 -33.5 -91.5t-86.5 -33.5t-91 37t-38 98z" />
<glyph unicode="&#x100;" horiz-adv-x="1390" d="M55 72q-10 -30 8 -51t54 -21h168l118 354h584l105 -307q9 -26 28 -36.5t60 -10.5h180l-500 1372q-15 44 -38 60t-74 16q-114 0 -207 -41zM418 1700q0 42 12 100h500q22 0 31.5 -12.5t9.5 -42.5v-105h-512q-41 0 -41 60zM471 551l223 661l226 -661h-449z" />
<glyph unicode="&#x101;" horiz-adv-x="1224" d="M102 317q0 168 119 263.5t322 95.5q70 0 145.5 -15.5t120.5 -39.5v69q0 240 -307 240q-153 0 -277 -62q-12 15 -21 43.5t-9 53.5t28 52t75 49.5t116.5 37t146.5 14.5q224 0 346.5 -110.5t122.5 -325.5v-410q0 -60 19.5 -84t58.5 -24h43q12 -38 12 -78q0 -37 -42.5 -68.5 t-110.5 -31.5q-66 0 -120 44t-73 132q-53 -88 -143.5 -137.5t-202.5 -49.5q-163 0 -266 95t-103 247zM324 324q0 -79 55.5 -119.5t146.5 -40.5q86 0 165 46t118 124v125q-34 13 -105 20.5t-129 7.5q-122 0 -186.5 -42t-64.5 -121zM326 1341q0 43 12 101h500q22 0 31.5 -13 t9.5 -43v-104h-512q-41 0 -41 59z" />
<glyph unicode="&#x102;" horiz-adv-x="1390" d="M55 72q-10 -30 8 -51t54 -21h168l118 354h584l105 -307q9 -26 28 -36.5t60 -10.5h180l-500 1372q-15 44 -38 60t-74 16q-114 0 -207 -41zM397 1833q65 37 127 37q30 0 43.5 -10t18.5 -35q10 -54 38.5 -81.5t69.5 -27.5q105 0 117 154h117q35 0 49.5 -11t11.5 -34 q-13 -106 -89.5 -181t-205.5 -75q-113 0 -196 68t-101 196zM471 551l223 661l226 -661h-449z" />
<glyph unicode="&#x103;" horiz-adv-x="1224" d="M102 317q0 168 119 263.5t322 95.5q70 0 145.5 -15.5t120.5 -39.5v69q0 240 -307 240q-153 0 -277 -62q-12 15 -21 43.5t-9 53.5t28 52t75 49.5t116.5 37t146.5 14.5q224 0 346.5 -110.5t122.5 -325.5v-410q0 -60 19.5 -84t58.5 -24h43q12 -38 12 -78q0 -37 -42.5 -68.5 t-110.5 -31.5q-66 0 -120 44t-73 132q-53 -88 -143.5 -137.5t-202.5 -49.5q-163 0 -266 95t-103 247zM305 1475q63 36 127 36q30 0 43.5 -10t18.5 -35q10 -54 38.5 -81t69.5 -27q105 0 117 153h117q35 0 49.5 -11t11.5 -34q-13 -106 -89.5 -181t-205.5 -75q-113 0 -196 68.5 t-101 196.5zM324 324q0 -79 55.5 -119.5t146.5 -40.5q86 0 165 46t118 124v125q-34 13 -105 20.5t-129 7.5q-122 0 -186.5 -42t-64.5 -121z" />
<glyph unicode="&#x104;" horiz-adv-x="1390" d="M55 72l486 1335q93 41 207 41q51 0 74 -16t38 -60l500 -1372q-66 -47 -103.5 -105.5t-37.5 -113.5q0 -78 88 -78q32 0 59 10q23 10 38 0.5t15 -39.5v-92q-56 -33 -149 -33q-119 0 -179.5 57.5t-60.5 145.5q0 65 40.5 134.5t105.5 113.5q-37 0 -56 11t-28 36l-105 307 h-584l-118 -354h-168q-36 0 -54 21t-8 51zM471 551h449l-226 661z" />
<glyph unicode="&#x105;" horiz-adv-x="1224" d="M102 317q0 168 119 263.5t322 95.5q70 0 145.5 -15.5t120.5 -39.5v69q0 240 -307 240q-153 0 -277 -62q-12 15 -21 43.5t-9 53.5t28 52t75 49.5t116.5 37t146.5 14.5q224 0 346.5 -110.5t122.5 -325.5v-410q0 -60 19.5 -84t58.5 -24h43q12 -38 12 -78q0 -53 -69 -84 q-142 -107 -142 -221q0 -78 88 -78q33 0 60 10q23 10 38 0.5t15 -39.5v-92q-56 -33 -149 -33q-119 0 -179.5 57.5t-60.5 145.5q0 65 40 134.5t116 121.5q-81 47 -103 154q-53 -88 -143.5 -137.5t-202.5 -49.5q-163 0 -266 95t-103 247zM324 324q0 -79 55.5 -119.5 t146.5 -40.5q86 0 165 46t118 124v125q-34 13 -105 20.5t-129 7.5q-122 0 -186.5 -42t-64.5 -121z" />
<glyph unicode="&#x106;" horiz-adv-x="1406" d="M113 760q0 162 52 295.5t142.5 220.5t209.5 134.5t255 47.5q187 0 330 -81.5t209 -217.5q14 -28 14 -57q0 -34 -41 -58q-59 -38 -160 -45q-43 122 -138 190t-230 68q-80 0 -152 -32t-129 -92t-91 -155t-34 -212q0 -278 158.5 -434t415.5 -156q183 0 321 72 q31 -52 31 -107q0 -26 -31 -55.5t-82.5 -54t-126 -40.5t-153.5 -16q-218 0 -392 94t-276 274t-102 417zM559 1642l224 225q27 27 51 27q28 0 55 -20q47 -36 82 -107l-252 -199q-26 -20 -47 -20q-23 0 -43 20z" />
<glyph unicode="&#x107;" horiz-adv-x="1134" d="M102 580q0 248 147.5 393t381.5 145q149 0 259.5 -60.5t158.5 -156.5q14 -28 14 -57q0 -34 -41 -58q-64 -41 -148 -47q-23 87 -87 139t-166 52q-127 0 -210 -93.5t-83 -250.5q0 -198 116.5 -310t286.5 -112q148 0 270 61q31 -48 31 -96q0 -54 -96 -104t-238 -50 q-115 0 -221.5 41t-190 116t-134 191.5t-50.5 256.5zM407 1286l224 225q27 27 51 27q28 0 55 -20q47 -36 82 -107l-252 -199q-26 -20 -47 -20q-23 0 -43 20z" />
<glyph unicode="&#x108;" horiz-adv-x="1406" d="M113 760q0 162 52 295.5t142.5 220.5t209.5 134.5t255 47.5q187 0 330 -81.5t209 -217.5q14 -28 14 -57q0 -34 -41 -58q-59 -38 -160 -45q-43 122 -138 190t-230 68q-80 0 -152 -32t-129 -92t-91 -155t-34 -212q0 -278 158.5 -434t415.5 -156q183 0 321 72 q31 -52 31 -107q0 -26 -31 -55.5t-82.5 -54t-126 -40.5t-153.5 -16q-218 0 -392 94t-276 274t-102 417zM455 1644q0 18 12 33l226 215h69q33 0 50.5 -7.5t41.5 -29.5l222 -211l-54 -59q-36 -39 -63 -39q-29 0 -66 37l-139 141l-178 -180q-121 46 -121 100z" />
<glyph unicode="&#x109;" horiz-adv-x="1134" d="M102 580q0 248 147.5 393t381.5 145q149 0 259.5 -60.5t158.5 -156.5q14 -28 14 -57q0 -34 -41 -58q-64 -41 -148 -47q-23 87 -87 139t-166 52q-127 0 -210 -93.5t-83 -250.5q0 -198 116.5 -310t286.5 -112q148 0 270 61q31 -48 31 -96q0 -54 -96 -104t-238 -50 q-115 0 -221.5 41t-190 116t-134 191.5t-50.5 256.5zM299 1288q0 18 12 33l226 215h69q33 0 50.5 -7.5t41.5 -29.5l222 -211l-54 -59q-36 -39 -63 -39q-29 0 -66 37l-139 141l-178 -180q-121 46 -121 100z" />
<glyph unicode="&#x10a;" horiz-adv-x="1406" d="M113 760q0 162 52 295.5t142.5 220.5t209.5 134.5t255 47.5q187 0 330 -81.5t209 -217.5q14 -28 14 -57q0 -34 -41 -58q-59 -38 -160 -45q-43 122 -138 190t-230 68q-80 0 -152 -32t-129 -92t-91 -155t-34 -212q0 -278 158.5 -434t415.5 -156q183 0 321 72 q31 -52 31 -107q0 -26 -31 -55.5t-82.5 -54t-126 -40.5t-153.5 -16q-218 0 -392 94t-276 274t-102 417zM629 1724q0 56 34 89.5t87 33.5t91 -37t38 -96q0 -58 -33.5 -91.5t-87.5 -33.5q-53 0 -91 37t-38 98z" />
<glyph unicode="&#x10b;" horiz-adv-x="1134" d="M102 580q0 248 147.5 393t381.5 145q149 0 259.5 -60.5t158.5 -156.5q14 -28 14 -57q0 -34 -41 -58q-64 -41 -148 -47q-23 87 -87 139t-166 52q-127 0 -210 -93.5t-83 -250.5q0 -198 116.5 -310t286.5 -112q148 0 270 61q31 -48 31 -96q0 -54 -96 -104t-238 -50 q-115 0 -221.5 41t-190 116t-134 191.5t-50.5 256.5zM483 1368q0 56 34 89.5t87 33.5t91 -37t38 -96q0 -58 -33.5 -91.5t-87.5 -33.5q-53 0 -91 37t-38 98z" />
<glyph unicode="&#x10c;" horiz-adv-x="1406" d="M113 760q0 162 52 295.5t142.5 220.5t209.5 134.5t255 47.5q187 0 330 -81.5t209 -217.5q14 -28 14 -57q0 -34 -41 -58q-59 -38 -160 -45q-43 122 -138 190t-230 68q-80 0 -152 -32t-129 -92t-91 -155t-34 -212q0 -278 158.5 -434t415.5 -156q183 0 321 72 q31 -52 31 -107q0 -26 -31 -55.5t-82.5 -54t-126 -40.5t-153.5 -16q-218 0 -392 94t-276 274t-102 417zM457 1794q65 98 114 98q32 0 66 -34l141 -144l187 187l84 -74q24 -21 24 -39q0 -19 -26 -45l-207 -197h-70q-33 0 -50.5 7.5t-41.5 29.5z" />
<glyph unicode="&#x10d;" horiz-adv-x="1134" d="M102 580q0 248 147.5 393t381.5 145q149 0 259.5 -60.5t158.5 -156.5q14 -28 14 -57q0 -34 -41 -58q-64 -41 -148 -47q-23 87 -87 139t-166 52q-127 0 -210 -93.5t-83 -250.5q0 -198 116.5 -310t286.5 -112q148 0 270 61q31 -48 31 -96q0 -54 -96 -104t-238 -50 q-115 0 -221.5 41t-190 116t-134 191.5t-50.5 256.5zM289 1438q65 98 114 98q31 0 66 -35l141 -143l187 186l84 -74q24 -21 24 -38q0 -20 -26 -46l-207 -196h-70q-33 0 -50.5 7.5t-41.5 29.5z" />
<glyph unicode="&#x10e;" horiz-adv-x="1478" d="M180 387v1047h514q142 0 265 -50t213 -141.5t142 -227t52 -298.5t-52 -298.5t-142 -227t-213 -141.5t-265 -50h-174q-172 0 -256 90t-84 297zM330 1794q65 98 114 98q31 0 66 -35l141 -143l186 186l84 -73q25 -22 25 -39q0 -18 -27 -45l-206 -197h-70q-33 0 -50.5 7.5 t-41.5 29.5zM414 403q0 -118 29 -162t108 -44h106q96 0 180 33.5t148.5 97.5t101.5 164t37 225t-37 225t-101.5 164t-148.5 97.5t-180 33.5h-243v-834z" />
<glyph unicode="&#x10f;" horiz-adv-x="1609" d="M102 506q0 136 45 252.5t120 194t173.5 121.5t206.5 44q172 0 285 -104v481h155q35 0 50.5 -12t15.5 -39v-1172q0 -60 19.5 -84t58.5 -24h43q12 -38 12 -78q0 -37 -42.5 -68.5t-110.5 -31.5q-69 0 -125 49.5t-72 148.5q-55 -98 -152.5 -153.5t-210.5 -55.5 q-203 0 -337 144.5t-134 386.5zM328 514q0 -163 78.5 -257.5t218.5 -94.5q99 0 180.5 65.5t126.5 196.5v420q-96 86 -246 86q-156 0 -257 -117t-101 -299zM1290 1022q105 99 123 213q-45 14 -73.5 52t-28.5 93q0 64 38 102t99 38t103 -43t42 -119q0 -161 -112 -297 q-41 -51 -85.5 -78t-60.5 -20q-14 6 -27.5 23.5t-17.5 35.5z" />
<glyph unicode="&#x110;" horiz-adv-x="1478" d="M45 692q0 55 8 94h127v648h514q142 0 265 -50t213 -141.5t142 -227t52 -298.5t-52 -298.5t-142 -227t-213 -141.5t-265 -50h-174q-172 0 -256 90t-84 297v260h-84q-51 0 -51 45zM414 403q0 -118 29 -162t108 -44h106q96 0 180 33.5t148.5 97.5t101.5 164t37 225t-37 225 t-101.5 164t-148.5 97.5t-180 33.5h-243v-451h315q27 0 39 -15t12 -50v-74h-366v-244z" />
<glyph unicode="&#x111;" horiz-adv-x="1351" d="M102 506q0 136 45 252.5t120 194t173.5 121.5t206.5 44q172 0 285 -104v215h-293q-51 0 -51 45q0 55 8 94h336v127h155q35 0 50.5 -12t15.5 -39v-76h70q27 0 39 -15t12 -50v-74h-121v-957q0 -60 19.5 -84t58.5 -24h43q12 -38 12 -78q0 -37 -42.5 -68.5t-110.5 -31.5 q-69 0 -125 49.5t-72 148.5q-55 -98 -152.5 -153.5t-210.5 -55.5q-203 0 -337 144.5t-134 386.5zM328 514q0 -163 78.5 -257.5t218.5 -94.5q99 0 180.5 65.5t126.5 196.5v420q-96 86 -246 86q-156 0 -257 -117t-101 -299z" />
<glyph unicode="&#x112;" d="M180 387v1047h821q52 0 52 -66q0 -61 -17 -131h-622v-424h477q27 0 39 -15t12 -50v-132h-528v-213q0 -118 29 -162t108 -44h467q27 0 39 -15.5t12 -50.5v-131h-549q-172 0 -256 90t-84 297zM332 1700q0 42 12 100h500q22 0 31.5 -12.5t9.5 -42.5v-105h-512q-41 0 -41 60z " />
<glyph unicode="&#x113;" d="M102 543q0 176 75.5 308.5t199 199.5t274.5 67q194 0 316.5 -113t122.5 -284q0 -99 -35 -174q-25 -50 -61 -70t-101 -20h-563q18 -144 114.5 -218.5t245.5 -74.5q144 0 266 61q12 -15 21.5 -43.5t9.5 -52.5q0 -55 -96 -104.5t-240 -49.5q-239 0 -394 160t-155 408z M332 641h526q14 28 14 68q0 103 -60.5 162t-172.5 59q-126 0 -207 -77t-100 -212zM354 1341q0 38 13 101h499q22 0 31.5 -13t9.5 -43v-104h-512q-41 0 -41 59z" />
<glyph unicode="&#x114;" d="M180 387v1047h821q52 0 52 -66q0 -61 -17 -131h-622v-424h477q27 0 39 -15t12 -50v-132h-528v-213q0 -118 29 -162t108 -44h467q27 0 39 -15.5t12 -50.5v-131h-549q-172 0 -256 90t-84 297zM311 1833q65 37 127 37q30 0 43.5 -10t18.5 -35q10 -54 38.5 -81.5t69.5 -27.5 q105 0 117 154h117q35 0 49.5 -11t11.5 -34q-13 -106 -89.5 -181t-205.5 -75q-113 0 -196 68t-101 196z" />
<glyph unicode="&#x115;" d="M102 543q0 176 75.5 308.5t199 199.5t274.5 67q194 0 316.5 -113t122.5 -284q0 -99 -35 -174q-25 -50 -61 -70t-101 -20h-563q18 -144 114.5 -218.5t245.5 -74.5q144 0 266 61q12 -15 21.5 -43.5t9.5 -52.5q0 -55 -96 -104.5t-240 -49.5q-239 0 -394 160t-155 408z M332 641h526q14 28 14 68q0 103 -60.5 162t-172.5 59q-126 0 -207 -77t-100 -212zM334 1475q63 36 127 36q30 0 43 -10t18 -35q10 -54 39 -81t70 -27q105 0 117 153h116q35 0 50 -11t12 -34q-13 -106 -89.5 -181t-205.5 -75q-113 0 -196 68.5t-101 196.5z" />
<glyph unicode="&#x116;" d="M180 387v1047h821q52 0 52 -66q0 -61 -17 -131h-622v-424h477q27 0 39 -15t12 -50v-132h-528v-213q0 -118 29 -162t108 -44h467q27 0 39 -15.5t12 -50.5v-131h-549q-172 0 -256 90t-84 297zM481 1724q0 56 34 89.5t87 33.5t91 -37t38 -96q0 -58 -33.5 -91.5t-87.5 -33.5 q-53 0 -91 37t-38 98z" />
<glyph unicode="&#x117;" d="M102 543q0 176 75.5 308.5t199 199.5t274.5 67q194 0 316.5 -113t122.5 -284q0 -99 -35 -174q-25 -50 -61 -70t-101 -20h-563q18 -144 114.5 -218.5t245.5 -74.5q144 0 266 61q12 -15 21.5 -43.5t9.5 -52.5q0 -55 -96 -104.5t-240 -49.5q-239 0 -394 160t-155 408z M332 641h526q14 28 14 68q0 103 -60.5 162t-172.5 59q-126 0 -207 -77t-100 -212zM506 1368q0 56 34 89.5t87 33.5t91 -37t38 -96q0 -58 -34 -91.5t-87 -33.5t-91 37t-38 98z" />
<glyph unicode="&#x118;" d="M180 387v1047h821q52 0 52 -66q0 -61 -17 -131h-622v-424h477q27 0 39 -15t12 -50v-132h-528v-213q0 -118 29 -162t108 -44h467q27 0 39 -15.5t12 -50.5v-131h-70q-66 -47 -103.5 -105.5t-37.5 -113.5q0 -78 88 -78q33 0 60 10q23 10 38 0.5t15 -39.5v-92 q-56 -33 -150 -33q-119 0 -179 57.5t-60 145.5q0 65 40 134.5t105 113.5h-295q-172 0 -256 90t-84 297z" />
<glyph unicode="&#x119;" d="M102 543q0 176 75.5 308.5t199 199.5t274.5 67q194 0 316.5 -113t122.5 -284q0 -99 -35 -174q-25 -50 -61 -70t-101 -20h-563q18 -144 114.5 -218.5t245.5 -74.5q144 0 266 61q12 -15 21.5 -43.5t9.5 -52.5q0 -37 -47.5 -74.5t-126.5 -58.5q-63 -45 -99 -103t-36 -112 q0 -78 88 -78q32 0 59 10q23 10 38.5 0.5t15.5 -39.5v-92q-56 -33 -150 -33q-119 0 -179.5 57.5t-60.5 145.5q0 58 31 119.5t84 105.5q-222 17 -362 174.5t-140 391.5zM332 641h526q14 32 14 68q0 103 -60.5 162t-172.5 59q-126 0 -207 -77t-100 -212z" />
<glyph unicode="&#x11a;" d="M180 387v1047h821q52 0 52 -66q0 -61 -17 -131h-622v-424h477q27 0 39 -15t12 -50v-132h-528v-213q0 -118 29 -162t108 -44h467q27 0 39 -15.5t12 -50.5v-131h-549q-172 0 -256 90t-84 297zM299 1794q65 98 114 98q31 0 66 -35l141 -143l186 186l84 -73q25 -22 25 -39 q0 -18 -27 -45l-206 -197h-70q-33 0 -50.5 7.5t-41.5 29.5z" />
<glyph unicode="&#x11b;" d="M102 543q0 176 75.5 308.5t199 199.5t274.5 67q194 0 316.5 -113t122.5 -284q0 -99 -35 -174q-25 -50 -61 -70t-101 -20h-563q18 -144 114.5 -218.5t245.5 -74.5q144 0 266 61q12 -15 21.5 -43.5t9.5 -52.5q0 -55 -96 -104.5t-240 -49.5q-239 0 -394 160t-155 408z M313 1438q65 98 115 98q31 0 66 -35l141 -143l186 186l84 -74q25 -22 25 -38q0 -19 -27 -46l-207 -196h-69q-33 0 -50.5 7.5t-41.5 29.5zM332 641h526q14 28 14 68q0 103 -60.5 162t-172.5 59q-126 0 -207 -77t-100 -212z" />
<glyph unicode="&#x11c;" horiz-adv-x="1533" d="M113 760q0 159 52.5 291t144 220.5t216 137.5t267.5 49q183 0 327 -73.5t221 -202.5q21 -35 21 -60q0 -33 -41 -57q-65 -38 -160 -45q-42 109 -138 173t-228 64q-191 0 -318 -132.5t-127 -358.5q0 -135 42.5 -247.5t115.5 -186.5t169.5 -115t205.5 -41q133 0 198.5 43.5 t65.5 118.5v207h-258q-27 0 -39 15t-12 50q0 65 16 131h475q27 0 39 -15t12 -50v-338q0 -159 -136 -261t-365 -102q-162 0 -303 56.5t-243 157.5t-161 248.5t-59 322.5zM467 1645q0 17 12 32l226 215h69q33 0 50.5 -7.5t41.5 -29.5l221 -210l-53 -60q-36 -39 -63 -39 q-29 0 -66 37l-139 141l-178 -180q-121 46 -121 101z" />
<glyph unicode="&#x11d;" horiz-adv-x="1316" d="M102 508q0 136 45 252t120 193.5t173.5 121t206.5 43.5q172 0 285 -104v80h155q66 0 66 -52v-1026q0 -99 -38.5 -191.5t-110.5 -167.5t-187.5 -120t-257.5 -45q-195 0 -306.5 80.5t-111.5 202.5q0 73 49 143t144 121q-107 65 -169.5 186.5t-62.5 282.5zM328 516 q0 -163 78.5 -257.5t218.5 -94.5q99 0 180.5 65.5t126.5 196.5v418q-96 86 -246 86q-156 0 -257 -116t-101 -298zM362 -195q0 -58 52.5 -93.5t150.5 -35.5q71 0 136 21.5t117 62.5t83 106t31 146v166q-57 -95 -153.5 -149t-205.5 -54q-46 0 -112 15q-99 -77 -99 -185z M385 1288q0 18 12 33l226 215h69q33 0 50.5 -7.5t41.5 -29.5l222 -211l-54 -59q-36 -39 -63 -39q-29 0 -66 37l-139 141l-178 -180q-121 46 -121 100z" />
<glyph unicode="&#x11e;" horiz-adv-x="1533" d="M113 760q0 159 52.5 291t144 220.5t216 137.5t267.5 49q183 0 327 -73.5t221 -202.5q21 -35 21 -60q0 -33 -41 -57q-65 -38 -160 -45q-42 109 -138 173t-228 64q-191 0 -318 -132.5t-127 -358.5q0 -135 42.5 -247.5t115.5 -186.5t169.5 -115t205.5 -41q133 0 198.5 43.5 t65.5 118.5v207h-258q-27 0 -39 15t-12 50q0 65 16 131h475q27 0 39 -15t12 -50v-338q0 -159 -136 -261t-365 -102q-162 0 -303 56.5t-243 157.5t-161 248.5t-59 322.5zM469 1833q63 36 127 36q30 0 43.5 -10t18.5 -35q10 -54 38.5 -81t69.5 -27q105 0 117 153h117 q35 0 49.5 -11t11.5 -34q-13 -106 -89.5 -181t-205.5 -75q-113 0 -196 68.5t-101 196.5z" />
<glyph unicode="&#x11f;" horiz-adv-x="1316" d="M102 508q0 136 45 252t120 193.5t173.5 121t206.5 43.5q172 0 285 -104v80h155q66 0 66 -52v-1026q0 -99 -38.5 -191.5t-110.5 -167.5t-187.5 -120t-257.5 -45q-195 0 -306.5 80.5t-111.5 202.5q0 73 49 143t144 121q-107 65 -169.5 186.5t-62.5 282.5zM328 516 q0 -163 78.5 -257.5t218.5 -94.5q99 0 180.5 65.5t126.5 196.5v418q-96 86 -246 86q-156 0 -257 -116t-101 -298zM362 -195q0 -58 52.5 -93.5t150.5 -35.5q71 0 136 21.5t117 62.5t83 106t31 146v166q-57 -95 -153.5 -149t-205.5 -54q-46 0 -112 15q-99 -77 -99 -185z M387 1475q63 36 127 36q30 0 43.5 -10t18.5 -35q10 -54 38.5 -81t69.5 -27q105 0 117 153h117q35 0 49.5 -11t11.5 -34q-13 -106 -89.5 -181t-205.5 -75q-113 0 -196 68.5t-101 196.5z" />
<glyph unicode="&#x120;" horiz-adv-x="1533" d="M113 760q0 159 52.5 291t144 220.5t216 137.5t267.5 49q183 0 327 -73.5t221 -202.5q21 -35 21 -60q0 -33 -41 -57q-65 -38 -160 -45q-42 109 -138 173t-228 64q-191 0 -318 -132.5t-127 -358.5q0 -135 42.5 -247.5t115.5 -186.5t169.5 -115t205.5 -41q133 0 198.5 43.5 t65.5 118.5v207h-258q-27 0 -39 15t-12 50q0 65 16 131h475q27 0 39 -15t12 -50v-338q0 -159 -136 -261t-365 -102q-162 0 -303 56.5t-243 157.5t-161 248.5t-59 322.5zM641 1724q0 56 34 89.5t87 33.5t91 -37t38 -96q0 -58 -33.5 -91.5t-87.5 -33.5q-53 0 -91 37t-38 98z " />
<glyph unicode="&#x121;" horiz-adv-x="1316" d="M102 508q0 136 45 252t120 193.5t173.5 121t206.5 43.5q172 0 285 -104v80h155q66 0 66 -52v-1026q0 -99 -38.5 -191.5t-110.5 -167.5t-187.5 -120t-257.5 -45q-195 0 -306.5 80.5t-111.5 202.5q0 73 49 143t144 121q-107 65 -169.5 186.5t-62.5 282.5zM328 516 q0 -163 78.5 -257.5t218.5 -94.5q99 0 180.5 65.5t126.5 196.5v418q-96 86 -246 86q-156 0 -257 -116t-101 -298zM362 -195q0 -58 52.5 -93.5t150.5 -35.5q71 0 136 21.5t117 62.5t83 106t31 146v166q-57 -95 -153.5 -149t-205.5 -54q-46 0 -112 15q-99 -77 -99 -185z M559 1368q0 56 34 89.5t87 33.5t91 -37t38 -96q0 -58 -33.5 -91.5t-87.5 -33.5q-53 0 -91 37t-38 98z" />
<glyph unicode="&#x122;" horiz-adv-x="1533" d="M113 760q0 159 52.5 291t144 220.5t216 137.5t267.5 49q183 0 327 -73.5t221 -202.5q21 -35 21 -60q0 -33 -41 -57q-65 -38 -160 -45q-42 109 -138 173t-228 64q-191 0 -318 -132.5t-127 -358.5q0 -135 42.5 -247.5t115.5 -186.5t169.5 -115t205.5 -41q133 0 198.5 43.5 t65.5 118.5v207h-258q-27 0 -39 15t-12 50q0 65 16 131h475q27 0 39 -15t12 -50v-338q0 -159 -136 -261t-365 -102q-162 0 -303 56.5t-243 157.5t-161 248.5t-59 322.5zM711 -489q78 72 98 153q-41 11 -66.5 45t-25.5 84q0 57 38 92t91 35q57 0 96 -36.5t39 -98.5 q0 -121 -80 -225q-40 -52 -85 -83t-60 -24q-14 6 -27.5 23t-17.5 35z" />
<glyph unicode="&#x123;" horiz-adv-x="1316" d="M102 508q0 136 45 252t120 193.5t173.5 121t206.5 43.5q172 0 285 -104v80h155q66 0 66 -52v-1026q0 -99 -38.5 -191.5t-110.5 -167.5t-187.5 -120t-257.5 -45q-195 0 -306.5 80.5t-111.5 202.5q0 73 49 143t144 121q-107 65 -169.5 186.5t-62.5 282.5zM328 516 q0 -163 78.5 -257.5t218.5 -94.5q99 0 180.5 65.5t126.5 196.5v418q-96 86 -246 86q-156 0 -257 -116t-101 -298zM362 -195q0 -58 52.5 -93.5t150.5 -35.5q71 0 136 21.5t117 62.5t83 106t31 146v166q-57 -95 -153.5 -149t-205.5 -54q-46 0 -112 15q-99 -77 -99 -185z M549 1315q0 121 80 225q40 52 85 83t60 24q14 -6 27.5 -23t17.5 -35q-78 -72 -98 -153q41 -11 66.5 -45t25.5 -84q0 -57 -38 -92t-91 -35q-57 0 -96 36.5t-39 98.5z" />
<glyph unicode="&#x124;" horiz-adv-x="1478" d="M184 51v1374q80 23 164 23q70 0 70 -51v-580h643v617h168q35 0 50 -12.5t15 -39.5v-1382h-168q-35 0 -50 12t-15 39v570h-643v-621h-168q-35 0 -50.5 12t-15.5 39zM440 1644q0 18 12 33l226 215h69q33 0 50.5 -7.5t41.5 -29.5l222 -211l-54 -59q-36 -39 -63 -39 q-29 0 -66 37l-139 141l-178 -180q-121 46 -121 100z" />
<glyph unicode="&#x125;" horiz-adv-x="1325" d="M145 1645q0 16 13 32l225 215h70q33 0 50.5 -7.5t41.5 -29.5l221 -210l-53 -60q-36 -39 -64 -39t-65 37l-140 141l-178 -180q-121 46 -121 101zM164 51v1376q77 21 153 21q68 0 68 -51v-424q62 64 157 104.5t193 40.5q186 0 288.5 -127t102.5 -358v-361q0 -58 16.5 -83 t53.5 -25h51q13 -41 13 -78t-43 -68.5t-111 -31.5q-40 0 -74 12.5t-63.5 41.5t-46.5 83t-17 129v403q0 275 -233 275q-76 0 -154.5 -30t-132.5 -81v-819h-156q-35 0 -50 12t-15 39z" />
<glyph unicode="&#x126;" horiz-adv-x="1478" d="M45 1090q0 55 8 94h131v241q80 23 164 23q70 0 70 -51v-213h643v250h168q35 0 50 -12.5t15 -39.5v-198h88q52 0 52 -66v-74h-140v-1044h-168q-35 0 -50 12t-15 39v570h-643v-621h-168q-35 0 -50.5 12t-15.5 39v993h-88q-51 0 -51 46zM418 817h643v227h-643v-227z" />
<glyph unicode="&#x127;" horiz-adv-x="1325" d="M43 1274q0 55 8 94h113v121q73 20 153 20q68 0 68 -51v-90h293q27 0 39 -15t12 -50v-74h-344v-256q62 64 157 104.5t193 40.5q186 0 288.5 -127t102.5 -358v-361q0 -58 16.5 -83t53.5 -25h51q13 -41 13 -78t-43 -68.5t-111 -31.5q-40 0 -74 12.5t-63.5 41.5t-46.5 83 t-17 129v403q0 275 -233 275q-76 0 -154.5 -30t-132.5 -81v-819h-156q-35 0 -50 12t-15 39v1178h-70q-51 0 -51 45z" />
<glyph unicode="&#x128;" horiz-adv-x="622" d="M14 1663q0 19 9 55q46 127 165 127q73 0 131 -45q33 -27 48.5 -36t29.5 -9q41 0 58 98l112 -30q29 -7 37.5 -22.5t3.5 -45.5q-14 -74 -60.5 -118t-115.5 -44q-71 0 -129 45q-55 43 -78 43q-45 0 -57 -88q-56 -3 -113 19q-41 16 -41 51zM195 51v1374q80 23 163 23 q70 0 70 -51v-1397h-168q-35 0 -50 12t-15 39z" />
<glyph unicode="&#x129;" horiz-adv-x="593" d="M-25 1305q0 23 8 55q46 127 166 127q73 0 131 -45q33 -27 48.5 -36t29.5 -9q40 0 57 98l113 -31q29 -7 37.5 -22.5t3.5 -44.5q-14 -74 -60.5 -118t-115.5 -44q-71 0 -129 45q-55 43 -78 43q-45 0 -57 -88q-59 -3 -113 18q-41 16 -41 52zM164 252v835q77 21 153 21 q68 0 68 -51v-785q0 -58 16.5 -83t53.5 -25h51q12 -38 12 -78q0 -37 -42.5 -68.5t-110.5 -31.5q-40 0 -74 12.5t-63.5 41.5t-46.5 83t-17 129z" />
<glyph unicode="&#x12a;" horiz-adv-x="622" d="M35 1700q0 42 12 100h500q22 0 31.5 -12.5t9.5 -42.5v-105h-512q-41 0 -41 60zM195 51v1374q80 23 163 23q70 0 70 -51v-1397h-168q-35 0 -50 12t-15 39z" />
<glyph unicode="&#x12b;" horiz-adv-x="593" d="M-2 1341q0 43 12 101h500q22 0 31.5 -13t9.5 -43v-104h-512q-41 0 -41 59zM164 252v835q77 21 153 21q68 0 68 -51v-785q0 -58 16.5 -83t53.5 -25h51q12 -38 12 -78q0 -37 -42.5 -68.5t-110.5 -31.5q-40 0 -74 12.5t-63.5 41.5t-46.5 83t-17 129z" />
<glyph unicode="&#x12c;" horiz-adv-x="622" d="M14 1833q65 37 127 37q30 0 43.5 -10t18.5 -35q10 -54 38.5 -81.5t69.5 -27.5q105 0 117 154h117q35 0 49.5 -11t11.5 -34q-13 -106 -89.5 -181t-205.5 -75q-113 0 -196 68t-101 196zM195 51v1374q80 23 163 23q70 0 70 -51v-1397h-168q-35 0 -50 12t-15 39z" />
<glyph unicode="&#x12d;" horiz-adv-x="593" d="M-23 1475q63 36 127 36q30 0 43.5 -10t18.5 -35q10 -54 38.5 -81t69.5 -27q105 0 117 153h117q35 0 49.5 -11t11.5 -34q-13 -106 -89.5 -181t-205.5 -75q-113 0 -196 68.5t-101 196.5zM164 252v835q77 21 153 21q68 0 68 -51v-785q0 -58 16.5 -83t53.5 -25h51 q12 -38 12 -78q0 -37 -42.5 -68.5t-110.5 -31.5q-40 0 -74 12.5t-63.5 41.5t-46.5 83t-17 129z" />
<glyph unicode="&#x12e;" horiz-adv-x="622" d="M98 -248q0 65 40.5 134.5t105.5 113.5q-49 6 -49 51v1374q80 23 163 23q70 0 70 -51v-1397q-66 -47 -103.5 -105.5t-37.5 -113.5q0 -78 88 -78q32 0 59 10q23 10 38 0.5t15 -39.5v-92q-56 -33 -149 -33q-119 0 -179.5 57.5t-60.5 145.5z" />
<glyph unicode="&#x12f;" horiz-adv-x="593" d="M123 -248q0 66 39.5 134.5t111.5 117.5q-110 54 -110 248v835q77 21 153 21q68 0 68 -51v-785q0 -58 16.5 -83t53.5 -25h51q12 -38 12 -78q0 -22 -17.5 -44.5t-47.5 -37.5q-73 -56 -107.5 -114.5t-34.5 -108.5q0 -78 88 -78q33 0 60 10q23 10 38 0.5t15 -39.5v-92 q-56 -33 -150 -33q-119 0 -179 57.5t-60 145.5zM141 1380q0 59 35 94t90 35t94 -38t39 -99q0 -60 -34.5 -94.5t-92.5 -34.5q-53 0 -92 38t-39 99z" />
<glyph unicode="&#x130;" horiz-adv-x="622" d="M186 1724q0 56 34 89.5t87 33.5t91 -37t38 -96q0 -58 -34 -91.5t-87 -33.5t-91 37t-38 98zM195 51v1374q80 23 163 23q70 0 70 -51v-1397h-168q-35 0 -50 12t-15 39z" />
<glyph unicode="&#x131;" horiz-adv-x="593" d="M164 252v835q77 21 153 21q68 0 68 -51v-785q0 -58 16.5 -83t53.5 -25h51q12 -38 12 -78q0 -37 -42.5 -68.5t-110.5 -31.5q-40 0 -74 12.5t-63.5 41.5t-46.5 83t-17 129z" />
<glyph unicode="&#x132;" horiz-adv-x="1429" d="M184 51v1374q80 23 164 23q70 0 70 -51v-1397h-168q-35 0 -50.5 12t-15.5 39zM623 106q0 -44 88 -87.5t198 -43.5q189 0 291.5 109.5t102.5 310.5v1002q0 51 -70 51q-83 0 -164 -23v-1026q0 -112 -53.5 -167.5t-167.5 -55.5q-93 0 -195 37q-30 -51 -30 -107z" />
<glyph unicode="&#x133;" horiz-adv-x="1142" d="M141 1380q0 59 35 94t90 35t94 -38t39 -99q0 -60 -34.5 -94.5t-92.5 -34.5q-53 0 -92 38t-39 99zM164 252v835q77 21 153 21q68 0 68 -51v-785q0 -58 16.5 -83t53.5 -25h51q12 -38 12 -78q0 -37 -42.5 -68.5t-110.5 -31.5q-40 0 -74 12.5t-63.5 41.5t-46.5 83t-17 129z M586 -332q172 180 172 375v1044q76 21 153 21q68 0 68 -51v-1037q0 -90 -33.5 -176.5t-89.5 -148.5q-61 -68 -120.5 -95.5t-86.5 -13.5q-41 21 -63 82zM735 1380q0 59 35 94t90 35t94 -38t39 -99q0 -60 -34.5 -94.5t-92.5 -34.5q-53 0 -92 38t-39 99z" />
<glyph unicode="&#x134;" horiz-adv-x="886" d="M31 106q0 56 30 107q102 -37 195 -37q114 0 167.5 55.5t53.5 167.5v1026q81 23 164 23q70 0 70 -51v-1002q0 -201 -102.5 -310.5t-291.5 -109.5q-110 0 -198 43.5t-88 87.5zM285 1644q0 18 12 33l226 215h69q33 0 50.5 -7.5t41.5 -29.5l222 -211l-54 -59q-36 -39 -63 -39 q-29 0 -66 37l-139 141l-178 -180q-121 46 -121 100z" />
<glyph unicode="&#x135;" horiz-adv-x="559" d="M-25 1288q0 17 13 33l225 215h70q33 0 50.5 -7.5t41.5 -29.5l221 -211l-53 -59q-36 -39 -64 -39t-65 37l-140 141l-178 -180q-121 46 -121 100zM2 -332q172 180 172 375v1044q76 21 154 21q67 0 67 -51v-1037q0 -90 -33.5 -176.5t-89.5 -148.5q-61 -68 -120 -95.5 t-86 -13.5q-42 22 -64 82z" />
<glyph unicode="&#x136;" horiz-adv-x="1355" d="M184 51v1374q80 23 164 23q70 0 70 -51v-625q171 121 341.5 297t303.5 379q94 -32 130 -60t36 -69q0 -34 -17 -62q-72 -119 -188.5 -247.5t-251.5 -241.5q188 -341 367 -526q65 -68 131 -68h43q12 -37 12 -92q0 -40 -43.5 -73.5t-114.5 -33.5q-116 0 -233 134 q-148 166 -336 524q-76 -57 -180 -119v-514h-168q-35 0 -50.5 12t-15.5 39zM563 -489q79 73 99 153q-41 11 -67 45t-26 84q0 57 38 92t91 35q57 0 96.5 -36.5t39.5 -98.5q0 -121 -80 -225q-40 -52 -85.5 -83t-60.5 -24q-14 6 -27.5 23t-17.5 35z" />
<glyph unicode="&#x137;" horiz-adv-x="1191" d="M164 51v1438q73 20 153 20q68 0 68 -51v-852q144 87 294.5 225.5t240.5 276.5q84 -30 116.5 -57.5t32.5 -65.5q0 -22 -12 -49q-34 -68 -132 -165t-231 -193q57 -86 135.5 -184.5t137.5 -157.5q42 -42 68 -57t52 -15h41q13 -41 13 -78t-43 -68.5t-111 -31.5 q-117 0 -242 153q-120 147 -223 326q-51 -32 -137 -78v-387h-156q-35 0 -50 12t-15 39zM473 -489q78 72 98 153q-41 11 -66.5 45t-25.5 84q0 57 38 92t91 35q57 0 96 -36.5t39 -98.5q0 -122 -79 -225q-40 -52 -85.5 -83t-60.5 -24q-14 6 -27.5 23t-17.5 35z" />
<glyph unicode="&#x138;" horiz-adv-x="1191" d="M164 51v1036q77 21 153 21q68 0 68 -51v-451q144 87 294.5 225.5t240.5 276.5q84 -30 116.5 -57.5t32.5 -65.5q0 -22 -12 -49q-34 -68 -132 -165t-231 -193q57 -86 135.5 -184.5t137.5 -157.5q42 -42 68 -57t52 -15h41q13 -41 13 -78t-43 -68.5t-111 -31.5 q-117 0 -242 153q-120 147 -223 326q-51 -32 -137 -78v-387h-156q-35 0 -50 12t-15 39z" />
<glyph unicode="&#x139;" horiz-adv-x="1120" d="M166 1642l224 225q27 27 51 27q28 0 55 -20q47 -36 82 -107l-252 -199q-26 -20 -47 -20q-23 0 -43 20zM180 387v1038q81 23 164 23q70 0 70 -51v-994q0 -118 29 -162t108 -44h467q27 0 39 -15.5t12 -50.5v-131h-549q-172 0 -256 90t-84 297z" />
<glyph unicode="&#x13a;" horiz-adv-x="667" d="M141 1642l224 226q26 26 51 26q28 0 55 -20q47 -36 82 -107l-252 -198q-27 -21 -47 -21q-22 0 -43 21zM164 315v1112q77 21 153 21q68 0 68 -51v-1090q0 -75 29.5 -109t87.5 -34q67 0 119 22q26 -43 26 -86q0 -39 -57.5 -76.5t-151.5 -37.5q-135 0 -204.5 86.5 t-69.5 242.5z" />
<glyph unicode="&#x13b;" horiz-adv-x="1120" d="M180 387v1038q81 23 164 23q70 0 70 -51v-994q0 -118 29 -162t108 -44h467q27 0 39 -15.5t12 -50.5v-131h-549q-172 0 -256 90t-84 297zM543 -489q78 72 98 153q-41 11 -66.5 45t-25.5 84q0 57 38 92t91 35q57 0 96 -36.5t39 -98.5q0 -121 -80 -225q-40 -52 -85 -83 t-60 -24q-14 6 -27.5 23t-17.5 35z" />
<glyph unicode="&#x13c;" horiz-adv-x="667" d="M164 315v1174q73 20 153 20q68 0 68 -51v-1151q0 -75 29.5 -109t87.5 -34q67 0 119 22q26 -43 26 -86q0 -39 -57.5 -76.5t-151.5 -37.5q-135 0 -204.5 86.5t-69.5 242.5zM276 -489q79 73 99 153q-41 11 -66.5 45t-25.5 84q0 57 38 92t91 35q57 0 96 -36.5t39 -98.5 q0 -121 -80 -225q-40 -52 -85 -83t-60 -24q-14 6 -28 23t-18 35z" />
<glyph unicode="&#x13d;" horiz-adv-x="1120" d="M180 387v1038q81 23 164 23q70 0 70 -51v-994q0 -118 29 -162t108 -44h467q27 0 39 -15.5t12 -50.5v-131h-549q-172 0 -256 90t-84 297zM551 1022q105 99 123 213q-45 14 -74 52t-29 93q0 64 38.5 102t99.5 38t103 -43t42 -119q0 -160 -113 -297q-41 -51 -85 -78t-60 -20 q-14 6 -27.5 23.5t-17.5 35.5z" />
<glyph unicode="&#x13e;" horiz-adv-x="841" d="M164 315v1174q73 20 153 20q68 0 68 -51v-1151q0 -75 29.5 -109t87.5 -34q67 0 119 22q26 -43 26 -86q0 -39 -57.5 -76.5t-151.5 -37.5q-135 0 -204.5 86.5t-69.5 242.5zM522 1022q105 99 123 213q-45 14 -73.5 52t-28.5 93q0 64 38 102t99 38t103 -43t42 -119 q0 -161 -112 -297q-41 -51 -85.5 -78t-60.5 -20q-14 6 -27.5 23.5t-17.5 35.5z" />
<glyph unicode="&#x13f;" horiz-adv-x="1120" d="M180 387v1038q81 23 164 23q70 0 70 -51v-994q0 -118 29 -162t108 -44h467q27 0 39 -15.5t12 -50.5v-131h-549q-172 0 -256 90t-84 297zM694 782q0 56 34 89.5t87 33.5t91 -37t38 -96q0 -58 -34 -91.5t-87 -33.5t-91 37t-38 98z" />
<glyph unicode="&#x140;" horiz-adv-x="856" d="M164 315v1174q73 20 153 20q68 0 68 -51v-1151q0 -75 29.5 -109t87.5 -34q67 0 119 22q26 -43 26 -86q0 -39 -57.5 -76.5t-151.5 -37.5q-135 0 -204.5 86.5t-69.5 242.5zM586 782q0 56 34 89.5t87 33.5t91 -37t38 -96q0 -58 -34 -91.5t-87 -33.5t-91 37t-38 98z" />
<glyph unicode="&#x141;" horiz-adv-x="1120" d="M-4 633l184 86v706q81 23 164 23q70 0 70 -51v-568l307 148q21 11 43 0q37 -21 53 -115l-403 -192v-267q0 -118 29 -162t108 -44h467q27 0 39 -15.5t12 -50.5v-131h-549q-172 0 -256 90t-84 297v172l-88 -41q-24 -12 -43 -2q-38 25 -53 117z" />
<glyph unicode="&#x142;" horiz-adv-x="667" d="M-20 670l184 88v731q73 20 153 20q68 0 68 -51v-596l137 66q22 11 43 0q37 -21 53 -115l-233 -111v-395q0 -75 29.5 -109t87.5 -34q67 0 119 22q26 -43 26 -86q0 -39 -57.5 -76.5t-151.5 -37.5q-135 0 -204.5 86.5t-69.5 242.5v281l-88 -41q-24 -12 -43 -2 q-38 25 -53 117z" />
<glyph unicode="&#x143;" horiz-adv-x="1470" d="M184 51v1327q38 29 86.5 49.5t79.5 20.5q43 0 64 -35l639 -1012v1033h168q35 0 50 -12.5t15 -39.5v-1327q-38 -29 -86.5 -49t-79.5 -20q-42 0 -63 34l-639 1012v-1032h-168q-35 0 -50.5 12t-15.5 39zM561 1642l224 225q27 27 51 27q28 0 55 -20q47 -36 82 -107l-252 -199 q-26 -20 -47 -20q-23 0 -43 20z" />
<glyph unicode="&#x144;" horiz-adv-x="1325" d="M164 51v1036q77 21 153 21q68 0 68 -51v-84q62 64 157 104.5t193 40.5q186 0 288.5 -127t102.5 -358v-361q0 -58 16.5 -83t53.5 -25h51q13 -41 13 -78t-43 -68.5t-111 -31.5q-40 0 -74 12.5t-63.5 41.5t-46.5 83t-17 129v403q0 275 -233 275q-76 0 -154.5 -30t-132.5 -81 v-819h-156q-35 0 -50 12t-15 39zM473 1286l224 225q27 27 51 27q28 0 55 -20q47 -36 82 -107l-252 -199q-26 -20 -47 -20q-23 0 -43 20z" />
<glyph unicode="&#x145;" horiz-adv-x="1470" d="M184 51v1327q38 29 86.5 49.5t79.5 20.5q43 0 64 -35l639 -1012v1033h168q35 0 50 -12.5t15 -39.5v-1327q-38 -29 -86.5 -49t-79.5 -20q-42 0 -63 34l-639 1012v-1032h-168q-35 0 -50.5 12t-15.5 39zM610 -489q79 73 99 153q-41 11 -67 45t-26 84q0 57 38 92t91 35 q57 0 96.5 -36.5t39.5 -98.5q0 -121 -80 -225q-40 -52 -85.5 -83t-60.5 -24q-14 6 -27.5 23t-17.5 35z" />
<glyph unicode="&#x146;" horiz-adv-x="1325" d="M164 51v1036q77 21 153 21q68 0 68 -51v-84q62 64 157 104.5t193 40.5q186 0 288.5 -127t102.5 -358v-361q0 -58 16.5 -83t53.5 -25h51q13 -41 13 -78t-43 -68.5t-111 -31.5q-40 0 -74 12.5t-63.5 41.5t-46.5 83t-17 129v403q0 275 -233 275q-76 0 -154.5 -30t-132.5 -81 v-819h-156q-35 0 -50 12t-15 39zM537 -489q78 72 98 153q-41 11 -66.5 45t-25.5 84q0 57 38 92t91 35q57 0 96 -36.5t39 -98.5q0 -121 -80 -225q-40 -52 -85 -83t-60 -24q-14 6 -27.5 23t-17.5 35z" />
<glyph unicode="&#x147;" horiz-adv-x="1470" d="M184 51v1327q38 29 86.5 49.5t79.5 20.5q43 0 64 -35l639 -1012v1033h168q35 0 50 -12.5t15 -39.5v-1327q-38 -29 -86.5 -49t-79.5 -20q-42 0 -63 34l-639 1012v-1032h-168q-35 0 -50.5 12t-15.5 39zM424 1794q65 98 115 98q31 0 65 -34l141 -144l187 187l84 -74 q24 -21 24 -39q0 -19 -26 -45l-207 -197h-70q-33 0 -50.5 7.5t-41.5 29.5z" />
<glyph unicode="&#x148;" horiz-adv-x="1325" d="M164 51v1036q77 21 153 21q68 0 68 -51v-84q62 64 157 104.5t193 40.5q186 0 288.5 -127t102.5 -358v-361q0 -58 16.5 -83t53.5 -25h51q13 -41 13 -78t-43 -68.5t-111 -31.5q-40 0 -74 12.5t-63.5 41.5t-46.5 83t-17 129v403q0 275 -233 275q-76 0 -154.5 -30t-132.5 -81 v-819h-156q-35 0 -50 12t-15 39zM338 1438q65 98 115 98q30 0 65 -35l141 -143l187 186l84 -74q24 -21 24 -38q0 -20 -26 -46l-207 -196h-70q-33 0 -50.5 7.5t-41.5 29.5z" />
<glyph unicode="&#x149;" horiz-adv-x="1441" d="M-20 1022q104 98 122 213q-45 14 -73.5 52t-28.5 93q0 64 38 102t99 38t103.5 -43t42.5 -119q0 -160 -113 -297q-41 -51 -85 -78t-60 -20q-14 6 -27.5 23.5t-17.5 35.5zM281 51v1036q77 21 153 21q68 0 68 -51v-84q62 64 157 104.5t193 40.5q186 0 288.5 -127t102.5 -358 v-361q0 -58 16.5 -83t53.5 -25h51q12 -38 12 -78q0 -37 -42.5 -68.5t-110.5 -31.5q-40 0 -74 12.5t-63.5 41.5t-46.5 83t-17 129v403q0 275 -234 275q-76 0 -154 -30t-132 -81v-819h-156q-35 0 -50 12t-15 39z" />
<glyph unicode="&#x14a;" horiz-adv-x="1470" d="M184 51v1327q38 29 86.5 49.5t79.5 20.5q43 0 64 -35l639 -1005v1026h168q35 0 50 -12.5t15 -39.5v-1423q0 -90 -34 -177t-89 -149q-61 -68 -120.5 -95t-86.5 -13q-46 24 -65 88q162 170 162 369v45l-635 999v-1026h-168q-35 0 -50.5 12t-15.5 39z" />
<glyph unicode="&#x14b;" horiz-adv-x="1286" d="M164 51v1036q77 21 153 21q68 0 68 -51v-84q62 64 157 104.5t193 40.5q186 0 288.5 -127t102.5 -358v-674q0 -90 -33.5 -177.5t-88.5 -148.5q-61 -68 -120.5 -95t-86.5 -13q-42 22 -64 82q172 180 172 375v673q0 275 -233 275q-76 0 -154.5 -30t-132.5 -81v-819h-156 q-35 0 -50 12t-15 39z" />
<glyph unicode="&#x14c;" horiz-adv-x="1585" d="M113 717q0 178 54 321t148 233.5t216 138.5t262 48t262 -48t216 -138.5t148 -233.5t54 -321t-54 -321t-148 -234t-216 -139t-262 -48t-262 48t-216 139t-148 234t-54 321zM350 735q0 -127 36 -233.5t98 -177t144.5 -109.5t176.5 -39q83 0 158 31t137 92t98.5 164 t36.5 235q0 127 -36 233.5t-98 177t-144.5 109.5t-176.5 39q-83 0 -158 -31t-137 -92t-98.5 -164t-36.5 -235zM516 1700q0 42 12 100h500q22 0 31.5 -12.5t9.5 -42.5v-105h-512q-41 0 -41 60z" />
<glyph unicode="&#x14d;" horiz-adv-x="1286" d="M102 547q0 134 43.5 243.5t118 180.5t172 109t207.5 38t207.5 -38t172 -109t118 -180.5t43.5 -243.5t-43.5 -243.5t-118 -180.5t-172 -109.5t-207.5 -38.5t-207.5 38.5t-172 109.5t-118 180.5t-43.5 243.5zM328 559q0 -184 95 -289.5t228 -105.5q64 0 118.5 22t97 66 t67 116.5t24.5 166.5q0 184 -95 289.5t-228 105.5q-64 0 -118.5 -22t-97 -66t-67 -116.5t-24.5 -166.5zM367 1342q0 42 12 100h500q22 0 31.5 -12.5t9.5 -42.5v-105h-512q-41 0 -41 60z" />
<glyph unicode="&#x14e;" horiz-adv-x="1585" d="M113 717q0 178 54 321t148 233.5t216 138.5t262 48t262 -48t216 -138.5t148 -233.5t54 -321t-54 -321t-148 -234t-216 -139t-262 -48t-262 48t-216 139t-148 234t-54 321zM350 735q0 -127 36 -233.5t98 -177t144.5 -109.5t176.5 -39q83 0 158 31t137 92t98.5 164 t36.5 235q0 127 -36 233.5t-98 177t-144.5 109.5t-176.5 39q-83 0 -158 -31t-137 -92t-98.5 -164t-36.5 -235zM496 1833q65 37 127 37q30 0 43 -10t18 -35q10 -54 39 -81.5t70 -27.5q104 0 116 154h117q35 0 49.5 -11t11.5 -34q-13 -106 -89 -181t-205 -75q-113 0 -196 68 t-101 196z" />
<glyph unicode="&#x14f;" horiz-adv-x="1286" d="M102 547q0 134 43.5 243.5t118 180.5t172 109t207.5 38t207.5 -38t172 -109t118 -180.5t43.5 -243.5t-43.5 -243.5t-118 -180.5t-172 -109.5t-207.5 -38.5t-207.5 38.5t-172 109.5t-118 180.5t-43.5 243.5zM328 559q0 -184 95 -289.5t228 -105.5q64 0 118.5 22t97 66 t67 116.5t24.5 166.5q0 184 -95 289.5t-228 105.5q-64 0 -118.5 -22t-97 -66t-67 -116.5t-24.5 -166.5zM346 1475q63 36 127 36q30 0 43.5 -10t18.5 -35q10 -54 38.5 -81t69.5 -27q105 0 117 153h117q35 0 49.5 -11t11.5 -34q-13 -106 -89.5 -181t-205.5 -75 q-113 0 -196 68.5t-101 196.5z" />
<glyph unicode="&#x150;" horiz-adv-x="1585" d="M113 717q0 178 54 321t148 233.5t216 138.5t262 48t262 -48t216 -138.5t148 -233.5t54 -321t-54 -321t-148 -234t-216 -139t-262 -48t-262 48t-216 139t-148 234t-54 321zM350 735q0 -127 36 -233.5t98 -177t144.5 -109.5t176.5 -39q83 0 158 31t137 92t98.5 164 t36.5 235q0 127 -36 233.5t-98 177t-144.5 109.5t-176.5 39q-83 0 -158 -31t-137 -92t-98.5 -164t-36.5 -235zM424 1642l223 226q26 26 51 26q29 0 56 -20q47 -36 82 -107l-252 -198q-27 -21 -47 -21q-22 0 -43 21zM791 1642l223 226q26 26 51 26q28 0 55 -20 q47 -36 82 -107l-252 -198q-27 -21 -47 -21q-22 0 -43 21z" />
<glyph unicode="&#x151;" horiz-adv-x="1286" d="M102 547q0 134 43.5 243.5t118 180.5t172 109t207.5 38t207.5 -38t172 -109t118 -180.5t43.5 -243.5t-43.5 -243.5t-118 -180.5t-172 -109.5t-207.5 -38.5t-207.5 38.5t-172 109.5t-118 180.5t-43.5 243.5zM274 1286l224 225q27 27 51 27q28 0 55 -20q47 -36 82 -107 l-252 -199q-26 -20 -47 -20q-23 0 -43 20zM328 559q0 -184 95 -289.5t228 -105.5q64 0 118.5 22t97 66t67 116.5t24.5 166.5q0 184 -95 289.5t-228 105.5q-64 0 -118.5 -22t-97 -66t-67 -116.5t-24.5 -166.5zM641 1286l223 225q27 27 51 27q29 0 56 -20q47 -36 82 -107 l-252 -199q-26 -20 -47 -20q-23 0 -43 20z" />
<glyph unicode="&#x152;" horiz-adv-x="2035" d="M113 717q0 140 34.5 260t95.5 207.5t143 149.5t177.5 93t198.5 31q170 0 272 -84v60h821q52 0 52 -66q0 -61 -17 -131h-622v-424h477q27 0 39 -15t12 -50v-132h-528v-213q0 -118 29 -162t108 -44h467q27 0 39 -15.5t12 -50.5v-131h-549q-171 0 -254 86 q-143 -111 -348 -111q-105 0 -202 29.5t-180.5 91t-145 148.5t-96.5 208.5t-35 264.5zM350 735q0 -127 36 -233.5t98 -177t144.5 -109.5t176.5 -39q149 0 242 66q-13 70 -13 145v799q-100 71 -254 71q-83 0 -158 -31t-137 -92t-98.5 -164t-36.5 -235z" />
<glyph unicode="&#x153;" horiz-adv-x="2037" d="M102 547q0 134 43.5 243.5t118 180.5t172 109t207.5 38q133 0 248.5 -60.5t181.5 -174.5q64 113 181 174t253 61q194 0 316.5 -113t122.5 -284q0 -99 -35 -174q-25 -50 -61 -70t-101 -20h-563q18 -144 114.5 -218.5t245.5 -74.5q144 0 266 61q12 -15 21.5 -43.5 t9.5 -52.5q0 -55 -96 -104.5t-240 -49.5q-141 0 -255 60.5t-179 175.5q-67 -117 -181 -176.5t-249 -59.5q-110 0 -207.5 38.5t-172 109.5t-118 180.5t-43.5 243.5zM328 559q0 -184 95 -289.5t228 -105.5q64 0 118.5 22t97 66t67 116.5t24.5 166.5q0 184 -95 289.5 t-228 105.5q-64 0 -118.5 -22t-97 -66t-67 -116.5t-24.5 -166.5zM1188 641h526q15 35 15 68q0 103 -61 162t-173 59q-126 0 -207 -77t-100 -212z" />
<glyph unicode="&#x154;" horiz-adv-x="1337" d="M184 51v1383h434q262 0 413 -132.5t151 -363.5q0 -175 -87.5 -293.5t-238.5 -169.5q103 -160 197 -248q68 -65 137 -65h43q12 -38 12 -80q0 -40 -44.5 -73.5t-117.5 -33.5q-127 0 -247 144q-123 148 -213 323q-127 4 -205 31v-473h-168q-35 0 -50.5 12t-15.5 39zM418 659 q73 -16 178 -16q160 0 252 75.5t92 219.5q0 145 -90 222t-252 77h-180v-578zM422 1642l224 225q27 27 51 27q28 0 55 -20q47 -36 82 -107l-252 -199q-26 -20 -47 -20q-23 0 -43 20z" />
<glyph unicode="&#x155;" horiz-adv-x="958" d="M164 51v1036q77 21 153 21q68 0 68 -51v-121q48 83 129.5 132.5t185.5 49.5q108 0 177 -37q34 -17 47.5 -34.5t13.5 -42.5q0 -18 -12 -39q-35 -53 -99 -91q-76 56 -186 56q-99 0 -164.5 -58.5t-91.5 -171.5v-700h-156q-35 0 -50 12t-15 39zM356 1286l224 225q27 27 51 27 q28 0 55 -20q47 -36 82 -107l-252 -199q-26 -20 -47 -20q-23 0 -43 20z" />
<glyph unicode="&#x156;" horiz-adv-x="1337" d="M184 51v1383h434q262 0 413 -132.5t151 -363.5q0 -175 -87.5 -293.5t-238.5 -169.5q103 -160 197 -248q68 -65 137 -65h43q12 -38 12 -80q0 -40 -44.5 -73.5t-117.5 -33.5q-127 0 -247 144q-123 148 -213 323q-127 4 -205 31v-473h-168q-35 0 -50.5 12t-15.5 39zM418 659 q73 -16 178 -16q160 0 252 75.5t92 219.5q0 145 -90 222t-252 77h-180v-578zM530 -489q79 73 99 153q-41 11 -66.5 45t-25.5 84q0 57 38 92t91 35q57 0 96 -36.5t39 -98.5q0 -121 -80 -225q-40 -52 -85.5 -83t-60.5 -24q-14 6 -27.5 23t-17.5 35z" />
<glyph unicode="&#x157;" horiz-adv-x="958" d="M139 -489q79 73 99 153q-41 11 -67 45t-26 84q0 57 38 92t91 35q57 0 96.5 -36.5t39.5 -98.5q0 -121 -80 -225q-40 -52 -85.5 -83t-60.5 -24q-14 6 -27.5 23t-17.5 35zM164 51v1036q77 21 153 21q68 0 68 -51v-121q48 83 129.5 132.5t185.5 49.5q108 0 177 -37 q34 -17 47.5 -34.5t13.5 -42.5q0 -18 -12 -39q-35 -53 -99 -91q-76 56 -186 56q-99 0 -164.5 -58.5t-91.5 -171.5v-700h-156q-35 0 -50 12t-15 39z" />
<glyph unicode="&#x158;" horiz-adv-x="1337" d="M184 51v1383h434q262 0 413 -132.5t151 -363.5q0 -175 -87.5 -293.5t-238.5 -169.5q103 -160 197 -248q68 -65 137 -65h43q12 -38 12 -80q0 -40 -44.5 -73.5t-117.5 -33.5q-127 0 -247 144q-123 148 -213 323q-127 4 -205 31v-473h-168q-35 0 -50.5 12t-15.5 39z M309 1794q65 98 115 98q31 0 65 -34l142 -144l186 187l84 -74q25 -22 25 -39q0 -18 -27 -45l-207 -197h-69q-33 0 -51 7.5t-42 29.5zM418 659q73 -16 178 -16q160 0 252 75.5t92 219.5q0 145 -90 222t-252 77h-180v-578z" />
<glyph unicode="&#x159;" horiz-adv-x="958" d="M164 51q0 -27 15 -39t50 -12h156v700q26 113 91.5 171.5t164.5 58.5q110 0 186 -56q64 38 99 91q12 21 12 39q0 25 -13.5 42.5t-47.5 34.5q-69 37 -177 37q-104 0 -185.5 -49.5t-129.5 -132.5v121q0 51 -68 51q-77 0 -153 -21v-1036zM209 1438q65 98 115 98q30 0 65 -35 l141 -143l187 186l84 -74q24 -21 24 -38q0 -20 -26 -46l-207 -196h-70q-33 0 -50.5 7.5t-41.5 29.5z" />
<glyph unicode="&#x15a;" horiz-adv-x="1218" d="M123 1057q0 178 133 289.5t344 111.5q160 0 283.5 -66t177.5 -159q29 -50 29 -80q0 -37 -39 -57q-62 -33 -164 -41q-34 97 -107 149.5t-178 52.5q-106 0 -174 -54.5t-68 -143.5q0 -86 76 -148t262 -116q408 -119 408 -424q0 -176 -138.5 -286t-369.5 -110 q-89 0 -169.5 16.5t-134 42t-85 55t-31.5 56.5q0 55 31 107q162 -76 358 -76q147 0 224 50t77 136q0 85 -59 137t-209 93q-234 64 -355.5 176.5t-121.5 288.5zM403 1642l224 225q27 27 51 27q28 0 55 -20q47 -36 82 -107l-252 -199q-26 -20 -47 -20q-23 0 -43 20z" />
<glyph unicode="&#x15b;" horiz-adv-x="1024" d="M123 795q0 145 109 234t290 89q128 0 230 -50t149 -136q14 -28 14 -53q0 -35 -43 -60q-60 -38 -145 -45q-22 74 -78 115t-133 41q-82 0 -127 -36.5t-45 -92.5q0 -69 55 -108.5t183 -71.5q174 -43 257 -122t83 -206q0 -144 -106 -231t-298 -87q-150 0 -258 52t-108 106 q0 26 9 54.5t21 43.5q143 -67 307 -67q211 0 211 121q0 58 -41 90.5t-153 58.5q-199 45 -291 134t-92 227zM307 1286l224 225q27 27 51 27q28 0 55 -20q47 -36 82 -107l-252 -199q-26 -20 -47 -20q-23 0 -43 20z" />
<glyph unicode="&#x15c;" horiz-adv-x="1218" d="M123 1057q0 178 133 289.5t344 111.5q160 0 283.5 -66t177.5 -159q29 -50 29 -80q0 -37 -39 -57q-62 -33 -164 -41q-34 97 -107 149.5t-178 52.5q-106 0 -174 -54.5t-68 -143.5q0 -86 76 -148t262 -116q408 -119 408 -424q0 -176 -138.5 -286t-369.5 -110 q-89 0 -169.5 16.5t-134 42t-85 55t-31.5 56.5q0 55 31 107q162 -76 358 -76q147 0 224 50t77 136q0 85 -59 137t-209 93q-234 64 -355.5 176.5t-121.5 288.5zM289 1644q0 18 12 33l226 215h69q33 0 50.5 -7.5t41.5 -29.5l222 -211l-54 -59q-36 -39 -63 -39q-29 0 -66 37 l-139 141l-178 -180q-121 46 -121 100z" />
<glyph unicode="&#x15d;" horiz-adv-x="1024" d="M123 795q0 145 109 234t290 89q128 0 230 -50t149 -136q14 -28 14 -53q0 -35 -43 -60q-60 -38 -145 -45q-22 74 -78 115t-133 41q-82 0 -127 -36.5t-45 -92.5q0 -69 55 -108.5t183 -71.5q174 -43 257 -122t83 -206q0 -144 -106 -231t-298 -87q-150 0 -258 52t-108 106 q0 26 9 54.5t21 43.5q143 -67 307 -67q211 0 211 121q0 58 -41 90.5t-153 58.5q-199 45 -291 134t-92 227zM203 1288q0 18 12 33l226 215h69q33 0 50.5 -7.5t41.5 -29.5l222 -211l-54 -59q-36 -39 -63 -39q-29 0 -66 37l-139 141l-178 -180q-121 46 -121 100z" />
<glyph unicode="&#x15e;" horiz-adv-x="1218" d="M123 1057q0 178 133 289.5t344 111.5q160 0 283.5 -66t177.5 -159q29 -50 29 -80q0 -37 -39 -57q-62 -33 -164 -41q-34 97 -107 149.5t-178 52.5q-106 0 -174 -54.5t-68 -143.5q0 -86 76 -148t262 -116q408 -119 408 -424q0 -135 -82 -232.5t-229 -138.5l-68 -123 q72 -14 115 -58.5t43 -109.5q0 -90 -69 -143t-183 -53q-93 0 -148 18v88q0 43 37 43q10 0 40 -6t48 -6q39 0 62.5 16.5t23.5 48.5q0 84 -153 92q-27 13 -27 27q0 2 4 10l68 131q-87 1 -165.5 17.5t-131 42t-83 54.5t-30.5 56q0 55 31 107q162 -76 358 -76q147 0 224 50 t77 136q0 85 -59 137t-209 93q-234 64 -355.5 176.5t-121.5 288.5z" />
<glyph unicode="&#x15f;" horiz-adv-x="1024" d="M123 795q0 145 109 234t290 89q128 0 230 -50t149 -136q14 -28 14 -53q0 -35 -43 -60q-60 -38 -145 -45q-22 74 -78 115t-133 41q-82 0 -127 -36.5t-45 -92.5q0 -69 55 -108.5t183 -71.5q174 -43 257 -122t83 -206q0 -114 -65.5 -192.5t-188.5 -108.5l-64 -115 q72 -14 115 -58.5t43 -109.5q0 -90 -69 -143t-183 -53q-93 0 -148 18v88q0 43 37 43q10 0 40 -6t48 -6q39 0 62.5 16.5t23.5 48.5q0 84 -153 92q-27 13 -27 25q0 4 4 12l70 133q-132 9 -223.5 58t-91.5 98q0 26 9 54.5t21 43.5q143 -67 307 -67q211 0 211 121q0 58 -41 90.5 t-153 58.5q-199 45 -291 134t-92 227z" />
<glyph unicode="&#x160;" horiz-adv-x="1218" d="M123 1057q0 178 133 289.5t344 111.5q160 0 283.5 -66t177.5 -159q29 -50 29 -80q0 -37 -39 -57q-62 -33 -164 -41q-34 97 -107 149.5t-178 52.5q-106 0 -174 -54.5t-68 -143.5q0 -86 76 -148t262 -116q408 -119 408 -424q0 -176 -138.5 -286t-369.5 -110 q-89 0 -169.5 16.5t-134 42t-85 55t-31.5 56.5q0 55 31 107q162 -76 358 -76q147 0 224 50t77 136q0 85 -59 137t-209 93q-234 64 -355.5 176.5t-121.5 288.5zM281 1794q65 98 114 98q32 0 66 -34l141 -144l186 187l84 -74q25 -22 25 -39q0 -18 -27 -45l-206 -197h-70 q-33 0 -50.5 7.5t-41.5 29.5z" />
<glyph unicode="&#x161;" horiz-adv-x="1024" d="M123 795q0 145 109 234t290 89q128 0 230 -50t149 -136q14 -28 14 -53q0 -35 -43 -60q-60 -38 -145 -45q-22 74 -78 115t-133 41q-82 0 -127 -36.5t-45 -92.5q0 -69 55 -108.5t183 -71.5q174 -43 257 -122t83 -206q0 -144 -106 -231t-298 -87q-150 0 -258 52t-108 106 q0 26 9 54.5t21 43.5q143 -67 307 -67q211 0 211 121q0 58 -41 90.5t-153 58.5q-199 45 -291 134t-92 227zM193 1438q65 98 114 98q31 0 66 -35l141 -143l186 186l84 -74q25 -22 25 -38q0 -19 -27 -46l-207 -196h-69q-33 0 -50.5 7.5t-41.5 29.5z" />
<glyph unicode="&#x162;" horiz-adv-x="1257" d="M82 1303q0 65 16 131h1026q52 0 52 -66v-131h-431v-1237l-67 -123q72 -14 115 -58.5t43 -109.5q0 -90 -69 -143t-183 -53q-93 0 -148 18v88q0 43 37 43q10 0 40 -6t48 -6q39 0 62.5 16.5t23.5 48.5q0 84 -153 92q-27 13 -27 25q0 4 4 12l82 156q-22 7 -31.5 17.5 t-9.5 33.5v1186h-379q-27 0 -39 15.5t-12 50.5z" />
<glyph unicode="&#x163;" horiz-adv-x="933" d="M61 975q0 63 15 119h172v307q73 20 155 20q35 0 50.5 -12t15.5 -39v-276h326q27 0 39 -15.5t12 -50.5v-119h-377v-563q0 -94 51.5 -138t136.5 -44q94 0 164 31q12 -15 21.5 -44t9.5 -53q0 -40 -53.5 -76.5t-143.5 -44.5l-55 -100q72 -14 115 -58.5t43 -109.5 q0 -90 -69 -143t-183 -53q-93 0 -148 18v88q0 43 37 43q10 0 40 -6t48 -6q39 0 62.5 16.5t23.5 48.5q0 84 -153 92q-27 13 -27 25q0 4 4 12l80 154q-106 36 -165.5 130.5t-59.5 238.5v542h-135q-52 0 -52 66z" />
<glyph unicode="&#x164;" horiz-adv-x="1257" d="M82 1303q0 65 16 131h1026q52 0 52 -66v-131h-431v-1237h-167q-35 0 -50.5 12t-15.5 39v1186h-379q-27 0 -39 15.5t-12 50.5zM308 1794q65 98 114 98q31 0 66 -35l141 -143l186 186l84 -73q25 -22 25 -39q0 -18 -27 -45l-206 -197h-70q-33 0 -50.5 7.5t-41.5 29.5z" />
<glyph unicode="&#x165;" horiz-adv-x="1261" d="M61 975q0 63 15 119h172v307q73 20 153 20q68 0 68 -51v-276h326q27 0 39 -15.5t12 -50.5v-119h-377v-555q0 -96 50.5 -143t137.5 -47q94 0 164 31q12 -15 21.5 -44t9.5 -53q0 -44 -70 -83.5t-180 -39.5q-166 0 -260 102t-94 290v542h-135q-52 0 -52 66zM942 1022 q105 99 123 213q-45 14 -73.5 52t-28.5 93q0 64 38 102t99 38t103 -43t42 -119q0 -161 -112 -297q-41 -51 -85.5 -78t-60.5 -20q-14 6 -27.5 23.5t-17.5 35.5z" />
<glyph unicode="&#x166;" horiz-adv-x="1257" d="M82 1303q0 65 16 131h1026q52 0 52 -66v-131h-431v-449h199q27 0 39 -15t12 -50v-74h-250v-649h-167q-35 0 -50.5 12t-15.5 39v598h-199q-51 0 -51 45q0 55 8 94h242v449h-379q-27 0 -39 15.5t-12 50.5z" />
<glyph unicode="&#x167;" horiz-adv-x="933" d="M61 975q0 63 15 119h172v307q73 20 153 20q68 0 68 -51v-276h326q27 0 39 -15.5t12 -50.5v-119h-377v-286h246q27 0 39 -15.5t12 -50.5v-74h-297v-129q0 -96 50.5 -143t137.5 -47q94 0 164 31q12 -15 21.5 -44t9.5 -53q0 -44 -70 -83.5t-180 -39.5q-166 0 -260 102 t-94 290v116h-88q-51 0 -51 45q0 56 8 95h131v286h-135q-52 0 -52 66z" />
<glyph unicode="&#x168;" horiz-adv-x="1470" d="M174 606v819q80 23 164 23q70 0 70 -51v-809q0 -188 87 -300t240 -112q154 0 241 112t87 300v846h168q35 0 50 -12.5t15 -39.5v-776q0 -291 -148 -461t-413 -170t-413 170t-148 461zM438 1663q0 23 8 55q46 127 166 127q73 0 131 -45q33 -27 48.5 -36t29.5 -9q40 0 57 98 l113 -31q29 -7 37.5 -22.5t3.5 -44.5q-14 -74 -60.5 -118t-115.5 -44q-71 0 -129 45q-55 43 -78 43q-45 0 -57 -88q-59 -3 -113 18q-41 16 -41 52z" />
<glyph unicode="&#x169;" horiz-adv-x="1261" d="M147 461v626q76 21 154 21q68 0 68 -51v-611q0 -130 74.5 -207t187.5 -77t187.5 77t74.5 207v648h156q35 0 50 -12.5t15 -39.5v-581q0 -225 -131.5 -355.5t-351.5 -130.5t-352 130.5t-132 355.5zM334 1305q0 23 8 55q46 127 166 127q73 0 131 -45q33 -27 48.5 -36 t29.5 -9q40 0 57 98l113 -31q29 -7 37.5 -22.5t3.5 -44.5q-14 -74 -60.5 -118t-115.5 -44q-71 0 -129 45q-55 43 -78 43q-46 0 -58 -88q-58 -3 -112 18q-41 16 -41 52z" />
<glyph unicode="&#x16a;" horiz-adv-x="1470" d="M174 606v819q80 23 164 23q70 0 70 -51v-809q0 -188 87 -300t240 -112q154 0 241 112t87 300v846h168q35 0 50 -12.5t15 -39.5v-776q0 -291 -148 -461t-413 -170t-413 170t-148 461zM459 1700q0 42 12 100h500q22 0 31.5 -12.5t9.5 -42.5v-105h-512q-41 0 -41 60z" />
<glyph unicode="&#x16b;" horiz-adv-x="1261" d="M147 461v626q76 21 154 21q68 0 68 -51v-611q0 -130 74.5 -207t187.5 -77t187.5 77t74.5 207v648h156q35 0 50 -12.5t15 -39.5v-581q0 -225 -131.5 -355.5t-351.5 -130.5t-352 130.5t-132 355.5zM355 1342q0 42 12 100h500q22 0 31.5 -12.5t9.5 -42.5v-105h-512 q-41 0 -41 60z" />
<glyph unicode="&#x16c;" horiz-adv-x="1470" d="M174 606v819q80 23 164 23q70 0 70 -51v-809q0 -188 87 -300t240 -112q154 0 241 112t87 300v846h168q35 0 50 -12.5t15 -39.5v-776q0 -291 -148 -461t-413 -170t-413 170t-148 461zM438 1833q65 37 127 37q30 0 43.5 -10t18.5 -35q10 -54 38.5 -81.5t69.5 -27.5 q105 0 117 154h117q35 0 49.5 -11t11.5 -34q-13 -106 -89.5 -181t-205.5 -75q-113 0 -196 68t-101 196z" />
<glyph unicode="&#x16d;" horiz-adv-x="1261" d="M147 461q0 -225 132 -355.5t352 -130.5t351.5 130.5t131.5 355.5v581q0 27 -15 39.5t-50 12.5h-156v-648q0 -130 -74.5 -207t-187.5 -77t-187.5 77t-74.5 207v611q0 51 -68 51q-77 0 -154 -21v-626zM334 1475q63 36 127 36q30 0 43 -10t18 -35q10 -54 39 -81t70 -27 q105 0 117 153h116q35 0 50 -11t12 -34q-13 -106 -89.5 -181t-205.5 -75q-113 0 -196 68.5t-101 196.5z" />
<glyph unicode="&#x16e;" horiz-adv-x="1470" d="M174 606v819q80 23 164 23q70 0 70 -51v-809q0 -188 87 -300t240 -112q154 0 241 112t87 300v846h168q35 0 50 -12.5t15 -39.5v-776q0 -291 -148 -461t-413 -170t-413 170t-148 461zM545 1718q0 78 53 130.5t137 52.5t137.5 -52.5t53.5 -130.5t-53.5 -130t-137.5 -52 t-137 52t-53 130zM662 1722q0 -36 22 -59t55 -23q31 0 50.5 20.5t19.5 53.5q0 36 -22.5 59t-55.5 23q-31 0 -50 -20t-19 -54z" />
<glyph unicode="&#x16f;" horiz-adv-x="1261" d="M147 461v626q76 21 154 21q68 0 68 -51v-611q0 -130 74.5 -207t187.5 -77t187.5 77t74.5 207v648h156q35 0 50 -12.5t15 -39.5v-581q0 -225 -131.5 -355.5t-351.5 -130.5t-352 130.5t-132 355.5zM441 1362q0 78 53 130t137 52t137.5 -52t53.5 -130t-53.5 -130t-137.5 -52 t-137 52t-53 130zM557 1366q0 -36 22.5 -59t55.5 -23q31 0 50.5 20.5t19.5 53.5q0 36 -22.5 59t-55.5 23q-31 0 -50.5 -20.5t-19.5 -53.5z" />
<glyph unicode="&#x170;" horiz-adv-x="1470" d="M174 606v819q80 23 164 23q70 0 70 -51v-809q0 -188 87 -300t240 -112q154 0 241 112t87 300v846h168q35 0 50 -12.5t15 -39.5v-776q0 -291 -148 -461t-413 -170t-413 170t-148 461zM387 1642l223 226q26 26 52 26q28 0 55 -20q47 -36 82 -107l-252 -198q-27 -21 -47 -21 q-22 0 -43 21zM754 1642l223 226q26 26 51 26q28 0 55 -20q47 -36 82 -107l-252 -198q-27 -21 -47 -21q-22 0 -43 21z" />
<glyph unicode="&#x171;" horiz-adv-x="1261" d="M147 461v626q76 21 154 21q68 0 68 -51v-611q0 -130 74.5 -207t187.5 -77t187.5 77t74.5 207v648h156q35 0 50 -12.5t15 -39.5v-581q0 -225 -131.5 -355.5t-351.5 -130.5t-352 130.5t-132 355.5zM272 1286l224 225q27 27 51 27q28 0 55 -20q47 -36 82 -107l-252 -199 q-26 -20 -47 -20q-23 0 -43 20zM639 1286l223 225q27 27 51 27q29 0 56 -20q47 -36 82 -107l-252 -199q-26 -20 -47 -20q-23 0 -43 20z" />
<glyph unicode="&#x172;" horiz-adv-x="1470" d="M174 606v819q80 23 164 23q70 0 70 -51v-809q0 -188 87 -300t240 -112q154 0 241 112t87 300v846h168q35 0 50 -12.5t15 -39.5v-776q0 -235 -98 -393.5t-280 -212.5q-68 -46 -105 -105t-37 -114q0 -78 88 -78q33 0 60 10q23 10 38 0.5t15 -39.5v-92q-56 -33 -150 -33 q-119 0 -179 57.5t-60 145.5q0 58 30.5 118t83.5 105q-251 12 -389.5 181t-138.5 450z" />
<glyph unicode="&#x173;" horiz-adv-x="1261" d="M147 461v626q76 21 154 21q68 0 68 -51v-611q0 -130 74.5 -207t187.5 -77t187.5 77t74.5 207v648h156q35 0 50 -12.5t15 -39.5v-581q0 -171 -78 -290t-215 -167q-147 -105 -147 -223q0 -78 88 -78q32 0 59 10q23 10 38 0.5t15 -39.5v-92q-56 -33 -149 -33 q-119 0 -179.5 57.5t-60.5 145.5q0 58 31 118.5t84 104.5q-207 9 -330 138.5t-123 347.5z" />
<glyph unicode="&#x174;" horiz-adv-x="2287" d="M92 1382q102 66 180 66q28 0 43.5 -9t22.5 -34l317 -1133q213 486 334 1162h211q45 0 68 -13.5t32 -44.5l310 -1104q215 498 334 1162h176q37 0 52.5 -15t10.5 -43q-123 -658 -414 -1321q-12 -30 -35 -42.5t-65 -12.5h-205l-315 1143q-56 -260 -146 -547t-204 -541 q-24 -55 -101 -55h-190zM848 1644q0 18 12 33l226 215h69q33 0 50.5 -7.5t41.5 -29.5l222 -211l-54 -59q-36 -39 -63 -39q-29 0 -66 37l-139 141l-178 -180q-121 46 -121 100z" />
<glyph unicode="&#x175;" horiz-adv-x="1792" d="M88 1040q99 68 174 68q43 0 51 -35l226 -860q69 174 128 408.5t93 472.5h196q67 0 84 -60l215 -821q70 175 129.5 409.5t92.5 471.5h161q36 0 50.5 -15.5t9.5 -42.5q-39 -225 -117 -493.5t-176 -495.5q-18 -47 -80 -47h-213l-211 842q-28 -181 -87.5 -398t-133.5 -403 q-16 -41 -74 -41h-211zM602 1288q0 18 12 33l226 215h69q33 0 50.5 -7.5t41.5 -29.5l222 -211l-54 -59q-36 -39 -63 -39q-29 0 -66 37l-139 141l-178 -180q-121 46 -121 100z" />
<glyph unicode="&#x176;" horiz-adv-x="1366" d="M74 1348q94 100 176 100q20 0 31 -7.5t22 -27.5l381 -711q260 374 379 732h164q32 0 49.5 -12t17.5 -33q0 -7 -4 -19q-163 -450 -493 -874v-496h-168q-35 0 -50.5 12t-15.5 39v434zM385 1645q0 17 12 32l226 215h69q33 0 50.5 -7.5t41.5 -29.5l222 -210l-54 -60 q-36 -39 -63 -39q-29 0 -66 37l-139 141l-178 -180q-121 46 -121 101z" />
<glyph unicode="&#x177;" horiz-adv-x="1286" d="M160 440v647q77 21 153 21q68 0 68 -51v-619q0 -274 233 -274q77 0 155 29t132 81v820h156q35 0 50 -12.5t15 -39.5v-1048q0 -78 -21.5 -150.5t-66.5 -136.5t-109 -112t-155.5 -75.5t-200.5 -27.5q-185 0 -291 80t-106 201q0 70 43.5 136.5t128.5 117.5 q-184 108 -184 413zM340 1288q0 18 12 33l226 215h69q33 0 50.5 -7.5t41.5 -29.5l222 -211l-54 -59q-36 -39 -63 -39q-29 0 -66 37l-139 141l-178 -180q-121 46 -121 100zM393 -197q0 -57 47 -92t135 -35q63 0 121 19t104 55t73.5 94t27.5 129v148q-63 -65 -158 -105.5 t-192 -40.5q-33 0 -68 7q-90 -75 -90 -179z" />
<glyph unicode="&#x178;" horiz-adv-x="1366" d="M74 1348q94 100 176 100q20 0 31 -7.5t22 -27.5l381 -711q260 374 379 732h164q32 0 49.5 -12t17.5 -33q0 -7 -4 -19q-163 -450 -493 -874v-496h-168q-35 0 -50.5 12t-15.5 39v434zM369 1724q0 56 34 89.5t87 33.5t91 -37t38 -96q0 -58 -33.5 -91.5t-87.5 -33.5 q-53 0 -91 37t-38 98zM750 1724q0 56 33.5 89.5t86.5 33.5t91 -37t38 -96q0 -58 -33.5 -91.5t-86.5 -33.5t-91 37t-38 98z" />
<glyph unicode="&#x179;" horiz-adv-x="1259" d="M113 160l733 1077h-643q-27 0 -39 15.5t-12 50.5q0 65 16 131h850q31 0 49 -9t33 -32q31 -51 41 -119l-733 -1077h698q27 0 39 -15.5t12 -50.5v-131h-921q-31 0 -49 9t-33 32q-31 51 -41 119zM465 1642l224 225q27 27 51 27q28 0 55 -20q47 -36 82 -107l-252 -199 q-26 -20 -47 -20q-23 0 -43 20z" />
<glyph unicode="&#x17a;" horiz-adv-x="1038" d="M102 154l553 755h-485q-27 0 -39 15.5t-12 50.5q0 67 14 119h684q31 0 49 -9t33 -32q32 -52 41 -113l-553 -756h518q27 0 39 -15t12 -50v-119h-731q-31 0 -49 9t-33 32q-32 52 -41 113zM344 1286l224 225q27 27 51 27q28 0 55 -20q47 -36 82 -107l-252 -199 q-26 -20 -47 -20q-23 0 -43 20z" />
<glyph unicode="&#x17b;" horiz-adv-x="1259" d="M113 160l733 1077h-643q-27 0 -39 15.5t-12 50.5q0 65 16 131h850q31 0 49 -9t33 -32q31 -51 41 -119l-733 -1077h698q27 0 39 -15.5t12 -50.5v-131h-921q-31 0 -49 9t-33 32q-31 51 -41 119zM500 1724q0 56 34 89.5t87 33.5t91 -37t38 -96q0 -58 -34 -91.5t-87 -33.5 t-91 37t-38 98z" />
<glyph unicode="&#x17c;" horiz-adv-x="1038" d="M102 154l553 755h-485q-27 0 -39 15.5t-12 50.5q0 67 14 119h684q31 0 49 -9t33 -32q32 -52 41 -113l-553 -756h518q27 0 39 -15t12 -50v-119h-731q-31 0 -49 9t-33 32q-32 52 -41 113zM387 1368q0 56 34 89.5t87 33.5t91 -37t38 -96q0 -58 -33.5 -91.5t-87.5 -33.5 q-53 0 -91 37t-38 98z" />
<glyph unicode="&#x17d;" horiz-adv-x="1259" d="M113 160l733 1077h-643q-27 0 -39 15.5t-12 50.5q0 65 16 131h850q31 0 49 -9t33 -32q31 -51 41 -119l-733 -1077h698q27 0 39 -15.5t12 -50.5v-131h-921q-31 0 -49 9t-33 32q-31 51 -41 119zM322 1794q65 98 114 98q32 0 66 -34l141 -144l186 187l84 -74q25 -22 25 -39 q0 -18 -27 -45l-206 -197h-70q-33 0 -50.5 7.5t-41.5 29.5z" />
<glyph unicode="&#x17e;" horiz-adv-x="1038" d="M102 154l553 755h-485q-27 0 -39 15.5t-12 50.5q0 67 14 119h684q31 0 49 -9t33 -32q32 -52 41 -113l-553 -756h518q27 0 39 -15t12 -50v-119h-731q-31 0 -49 9t-33 32q-32 52 -41 113zM211 1438q65 98 115 98q30 0 65 -35l141 -143l187 186l84 -74q24 -21 24 -38 q0 -20 -26 -46l-207 -196h-70q-33 0 -50.5 7.5t-41.5 29.5z" />
<glyph unicode="&#x17f;" horiz-adv-x="888" d="M61 975q0 63 15 119h192v51q0 186 92 280.5t254 94.5q65 0 128 -19t100 -46t37 -52q0 -24 -9.5 -53.5t-21.5 -44.5q-73 26 -178 26q-99 0 -140 -40t-41 -140v-1151h-155q-35 0 -50.5 12t-15.5 39v858h-155q-52 0 -52 66z" />
<glyph unicode="&#x191;" horiz-adv-x="1128" d="M23 -387q161 169 161 369v1452h822q27 0 39 -15.5t12 -50.5q0 -61 -17 -131h-622v-434h477q27 0 39 -15.5t12 -50.5v-131h-528v-647q0 -90 -34 -177t-89 -149q-61 -68 -120.5 -95t-86.5 -13q-46 24 -65 88z" />
<glyph unicode="&#x192;" horiz-adv-x="888" d="M-121 -389q0 24 9.5 53.5t21.5 44.5q73 -26 178 -26q99 0 139.5 40t40.5 140v1046h-155q-52 0 -52 66q0 63 15 119h192v51q0 186 92 280.5t254 94.5q65 0 128 -19t100 -46t37 -52q0 -24 -9.5 -53.5t-21.5 -44.5q-73 26 -178 26q-99 0 -140 -40t-41 -140v-57h306 q27 0 39 -15.5t12 -50.5v-119h-357v-1040q0 -186 -92 -280.5t-254 -94.5q-65 0 -128 19t-99.5 46t-36.5 52z" />
<glyph unicode="&#x1fa;" horiz-adv-x="1390" d="M55 72l486 1335l12 4q-49 52 -49 127q0 78 53 130t137 52t137.5 -52t53.5 -130q0 -72 -45 -123q10 -12 20 -43l500 -1372h-180q-41 0 -60 10.5t-28 36.5l-105 307h-584l-118 -354h-168q-36 0 -54 21t-8 51zM471 551h449l-226 661zM539 1831l161 166q24 24 48 24t45 -18 q41 -35 73 -94l-186 -144q-24 -18 -43 -18t-37 18zM621 1542q0 -36 22 -59t55 -23q31 0 50.5 20.5t19.5 53.5q0 36 -22.5 59t-55.5 23q-31 0 -50 -20t-19 -54z" />
<glyph unicode="&#x1fb;" horiz-adv-x="1224" d="M102 317q0 168 119 263.5t322 95.5q70 0 145.5 -15.5t120.5 -39.5v69q0 240 -307 240q-153 0 -277 -62q-12 15 -21 43.5t-9 53.5t28 52t75 49.5t116.5 37t146.5 14.5q224 0 346.5 -110.5t122.5 -325.5v-410q0 -60 19.5 -84t58.5 -24h43q12 -38 12 -78q0 -37 -42.5 -68.5 t-110.5 -31.5q-66 0 -120 44t-73 132q-53 -88 -143.5 -137.5t-202.5 -49.5q-163 0 -266 95t-103 247zM324 324q0 -79 55.5 -119.5t146.5 -40.5q86 0 165 46t118 124v125q-34 13 -105 20.5t-129 7.5q-122 0 -186.5 -42t-64.5 -121zM399 1362q0 78 53.5 130t137.5 52t137 -52 t53 -130t-53 -130t-137 -52t-137.5 52t-53.5 130zM434 1655l162 166q24 24 47 24q24 0 45 -18q43 -37 74 -94l-187 -144q-24 -18 -43 -18q-18 0 -36 18zM516 1366q0 -36 22.5 -59t55.5 -23q31 0 50.5 20.5t19.5 53.5q0 36 -22.5 59t-55.5 23q-31 0 -50.5 -20.5t-19.5 -53.5z " />
<glyph unicode="&#x1fc;" horiz-adv-x="1849" d="M37 72l635 1314q102 48 229 48h768q27 0 39 -15.5t12 -50.5q0 -65 -16 -131h-623v-424h478q27 0 39 -15t12 -50v-132h-529v-213q0 -117 29.5 -161.5t108.5 -44.5h467q27 0 39 -15.5t12 -50.5v-131h-549q-166 0 -249.5 82.5t-90.5 271.5h-414l-164 -354h-172 q-36 0 -55 21.5t-6 50.5zM526 551h322v690zM983 1642l224 225q27 27 51 27q28 0 55 -20q47 -36 82 -107l-252 -199q-26 -20 -47 -20q-23 0 -43 20z" />
<glyph unicode="&#x1fd;" horiz-adv-x="1884" d="M102 317q0 168 119 263.5t322 95.5q70 0 145.5 -15.5t120.5 -39.5v69q0 240 -307 240q-153 0 -277 -62q-12 15 -21 43.5t-9 53.5t28 52t75 49.5t116.5 37t146.5 14.5q138 0 241 -48t152 -138q61 86 166 136t234 50q194 0 316 -113t122 -284q0 -99 -35 -174 q-25 -50 -61 -70t-101 -20h-563q18 -144 115 -218.5t246 -74.5q144 0 266 61q12 -15 21.5 -43.5t9.5 -52.5q0 -55 -96 -104.5t-240 -49.5q-136 0 -253 59t-192 161q-57 -100 -159 -160t-236 -60q-197 0 -304.5 95.5t-107.5 246.5zM324 324q0 -79 55.5 -119.5t146.5 -40.5 q52 0 101.5 18t90.5 53t66 93t25 131q-34 13 -105 20.5t-129 7.5q-122 0 -186.5 -42t-64.5 -121zM757 1286l224 225q27 27 51 27q28 0 55 -20q47 -36 82 -107l-252 -199q-26 -20 -47 -20q-23 0 -43 20zM1034 641h527q14 32 14 68q0 103 -61 162t-173 59q-126 0 -207 -77 t-100 -212z" />
<glyph unicode="&#x1fe;" horiz-adv-x="1585" d="M85.5 18q-12.5 18 8.5 41l160 174q-141 191 -141 484q0 178 54 321t148 233.5t216 138.5t262 48q260 0 444 -158l123 134h86q40 0 53 -18.5t-8 -41.5l-160 -174q142 -195 142 -483q0 -178 -54 -321t-148 -234t-216 -139t-262 -48q-265 0 -447 156l-121 -131h-86 q-41 0 -53.5 18zM350 735q0 -187 72 -319l657 714q-124 127 -299 127q-83 0 -158 -31t-137 -92t-98.5 -164t-36.5 -235zM504 303q124 -127 301 -127q83 0 158 31t137 92t98.5 164t36.5 235q0 185 -74 320zM610 1642l224 225q27 27 51 27q28 0 55 -20q47 -36 82 -107 l-252 -199q-26 -20 -47 -20q-23 0 -43 20z" />
<glyph unicode="&#x1ff;" horiz-adv-x="1286" d="M97.5 18q-13.5 18 8.5 41l109 119q-113 149 -113 369q0 134 43.5 243.5t118 180.5t172 109t207.5 38q195 0 336 -110l80 86h76q41 0 54 -18.5t-9 -41.5l-111 -119q115 -150 115 -368q0 -134 -43.5 -243.5t-118 -180.5t-172 -109.5t-207.5 -38.5q-197 0 -338 111l-78 -86 h-75q-41 0 -54.5 18zM328 559q0 -122 43 -213l465 506q-87 78 -201 78q-64 0 -118.5 -22t-97 -66t-67 -116.5t-24.5 -166.5zM449 242q87 -78 202 -78q64 0 118.5 22t97 66t67 116.5t24.5 166.5q0 122 -45 210zM458 1286l224 225q27 27 51 27q28 0 55 -20q47 -36 82 -107 l-252 -199q-26 -20 -47 -20q-23 0 -43 20z" />
<glyph unicode="&#x218;" horiz-adv-x="1218" d="M123 1057q0 178 133 289.5t344 111.5q160 0 283.5 -66t177.5 -159q29 -50 29 -80q0 -37 -39 -57q-62 -33 -164 -41q-34 97 -107 149.5t-178 52.5q-106 0 -174 -54.5t-68 -143.5q0 -86 76 -148t262 -116q408 -119 408 -424q0 -176 -138.5 -286t-369.5 -110 q-89 0 -169.5 16.5t-134 42t-85 55t-31.5 56.5q0 55 31 107q162 -76 358 -76q147 0 224 50t77 136q0 85 -59 137t-209 93q-234 64 -355.5 176.5t-121.5 288.5zM545 -489q78 72 98 153q-41 11 -66.5 45t-25.5 84q0 57 38 92t91 35q57 0 96 -36.5t39 -98.5q0 -121 -80 -225 q-40 -52 -85 -83t-60 -24q-14 6 -27.5 23t-17.5 35z" />
<glyph unicode="&#x219;" horiz-adv-x="1024" d="M123 795q0 145 109 234t290 89q128 0 230 -50t149 -136q14 -28 14 -53q0 -35 -43 -60q-60 -38 -145 -45q-22 74 -78 115t-133 41q-82 0 -127 -36.5t-45 -92.5q0 -69 55 -108.5t183 -71.5q174 -43 257 -122t83 -206q0 -144 -106 -231t-298 -87q-150 0 -258 52t-108 106 q0 26 9 54.5t21 43.5q143 -67 307 -67q211 0 211 121q0 58 -41 90.5t-153 58.5q-199 45 -291 134t-92 227zM424 -489q78 72 98 153q-41 11 -66.5 45t-25.5 84q0 57 38 92t91 35q57 0 96 -36.5t39 -98.5q0 -121 -80 -225q-40 -52 -85 -83t-60 -24q-14 6 -27.5 23t-17.5 35z " />
<glyph unicode="&#x21a;" horiz-adv-x="1257" d="M82 1303q0 65 16 131h1026q52 0 52 -66v-131h-431v-1237h-167q-35 0 -50.5 12t-15.5 39v1186h-379q-27 0 -39 15.5t-12 50.5zM494 -489q78 72 98 153q-41 11 -66.5 45t-25.5 84q0 57 38 92t91 35q57 0 96 -36.5t39 -98.5q0 -121 -80 -225q-40 -52 -85 -83t-60 -24 q-14 6 -27.5 23t-17.5 35z" />
<glyph unicode="&#x21b;" horiz-adv-x="933" d="M61 975q0 63 15 119h172v307q73 20 153 20q68 0 68 -51v-276h326q27 0 39 -15.5t12 -50.5v-119h-377v-555q0 -96 50.5 -143t137.5 -47q94 0 164 31q12 -15 21.5 -44t9.5 -53q0 -44 -70 -83.5t-180 -39.5q-166 0 -260 102t-94 290v542h-135q-52 0 -52 66zM422 -489 q78 72 98 153q-41 11 -66.5 45t-25.5 84q0 57 38 92t91 35q57 0 96 -36.5t39 -98.5q0 -121 -80 -225q-40 -52 -85 -83t-60 -24q-14 6 -27.5 23t-17.5 35z" />
<glyph unicode="&#x2c6;" horiz-adv-x="860" d="M131 1247q0 18 12 33l226 215h69q33 0 50.5 -7.5t41.5 -29.5l222 -211l-54 -59q-36 -39 -63 -39q-29 0 -66 37l-139 141l-178 -180q-121 46 -121 100z" />
<glyph unicode="&#x2c7;" horiz-adv-x="860" d="M111 1397q65 98 114 98q31 0 66 -35l141 -143l186 186l84 -73q25 -22 25 -39q0 -18 -27 -45l-206 -197h-70q-33 0 -50.5 7.5t-41.5 29.5z" />
<glyph unicode="&#x2d8;" horiz-adv-x="860" d="M133 1434q63 36 127 36q30 0 43.5 -10t18.5 -35q10 -54 38.5 -81t69.5 -27q105 0 117 153h117q35 0 49.5 -11t11.5 -34q-13 -106 -89.5 -181t-205.5 -75q-113 0 -196 68.5t-101 196.5z" />
<glyph unicode="&#x2d9;" horiz-adv-x="860" d="M305 1327q0 56 34 89.5t87 33.5t91 -37t38 -96q0 -57 -33.5 -91t-87.5 -34q-53 0 -91 37t-38 98z" />
<glyph unicode="&#x2da;" horiz-adv-x="860" d="M240 1321q0 78 53 130t137 52t137.5 -52t53.5 -130t-53.5 -130t-137.5 -52t-137 52t-53 130zM356 1325q0 -36 22.5 -59t55.5 -23q31 0 50.5 20.5t19.5 53.5q0 36 -22.5 59t-55.5 23q-31 0 -50.5 -20.5t-19.5 -53.5z" />
<glyph unicode="&#x2db;" horiz-adv-x="860" d="M227 -248q0 65 40.5 134.5t105.5 113.5h184q-66 -47 -103.5 -105.5t-37.5 -113.5q0 -78 88 -78q32 0 59 10q23 10 38 0.5t15 -39.5v-92q-56 -33 -149 -33q-119 0 -179.5 57.5t-60.5 145.5z" />
<glyph unicode="&#x2dc;" horiz-adv-x="860" d="M131 1266q0 23 8 55q46 127 166 127q73 0 131 -45q33 -27 48.5 -36t29.5 -9q40 0 57 98l113 -31q29 -7 37.5 -22.5t3.5 -44.5q-14 -74 -60.5 -118t-115.5 -44q-71 0 -129 45q-55 43 -78 43q-45 0 -57 -88q-59 -3 -113 18q-41 16 -41 52z" />
<glyph unicode="&#x2dd;" horiz-adv-x="860" d="M41 1245l223 225q27 27 51 27q29 0 56 -20q47 -36 82 -107l-252 -199q-26 -20 -47 -20q-23 0 -43 20zM408 1245l223 225q27 27 51 27q28 0 55 -20q47 -36 82 -107l-252 -199q-26 -20 -47 -20q-23 0 -43 20z" />
<glyph unicode="&#x3a9;" horiz-adv-x="1605" d="M123 739q0 163 51.5 298.5t142.5 227.5t216 142.5t270 50.5t270 -50.5t216 -142.5t142.5 -227.5t51.5 -298.5q0 -173 -80.5 -316.5t-208.5 -225.5h217q27 0 39 -15.5t12 -50.5v-131h-567v125q0 51 49 78q144 84 222.5 224t78.5 308q0 132 -36.5 234.5t-99.5 164 t-140.5 92.5t-165.5 31t-165.5 -31t-140.5 -92.5t-100 -164t-37 -234.5q0 -168 79 -308t223 -224q49 -27 49 -78v-125h-516q-52 0 -52 66q0 61 17 131h252q-128 82 -208.5 225.5t-80.5 316.5z" />
<glyph unicode="&#x400;" d="M180 387v1047h821q52 0 52 -66q0 -61 -17 -131h-622v-424h477q27 0 39 -15t12 -50v-132h-528v-213q0 -118 29 -162t108 -44h467q27 0 39 -15.5t12 -50.5v-131h-549q-172 0 -256 90t-84 297zM383 1767q35 71 82 107q27 20 55 20q25 0 52 -27l223 -225l-70 -74 q-20 -20 -43 -20q-21 0 -47 20z" />
<glyph unicode="&#x401;" d="M180 387v1047h821q52 0 52 -66q0 -61 -17 -131h-622v-424h477q27 0 39 -15t12 -50v-132h-528v-213q0 -118 29 -162t108 -44h467q27 0 39 -15.5t12 -50.5v-131h-549q-172 0 -256 90t-84 297zM293 1724q0 56 34 89.5t87 33.5t91 -37t38 -96q0 -58 -33.5 -91.5t-87.5 -33.5 q-53 0 -91 37t-38 98zM674 1724q0 56 33.5 89.5t86.5 33.5t91 -37t38 -96q0 -58 -33.5 -91.5t-86.5 -33.5t-91 37t-38 98z" />
<glyph unicode="&#x402;" horiz-adv-x="1579" d="M82 1303q0 65 16 131h1026q52 0 52 -66v-131h-431v-446q63 57 145 89.5t165 32.5q186 0 288.5 -127t102.5 -358v-408q0 -89 -34.5 -176t-90.5 -149q-61 -68 -120.5 -95.5t-86.5 -13.5q-20 10 -40.5 35.5t-29.5 50.5q168 168 168 371v399q0 139 -52 207t-169 68 q-133 0 -246 -92v-625h-167q-35 0 -50.5 12t-15.5 39v1186h-379q-27 0 -39 15.5t-12 50.5z" />
<glyph unicode="&#x403;" horiz-adv-x="1128" d="M184 51v1383h822q27 0 39 -15.5t12 -50.5v-131h-639v-1237h-168q-35 0 -50.5 12t-15.5 39zM428 1642l223 226q26 26 51 26q29 0 56 -20q47 -36 82 -107l-252 -198q-27 -21 -47 -21q-22 0 -43 21z" />
<glyph unicode="&#x404;" horiz-adv-x="1406" d="M113 760q0 162 52 295.5t142.5 220.5t209.5 134.5t255 47.5q187 0 330 -81.5t209 -217.5q14 -28 14 -57q0 -34 -41 -58q-59 -38 -160 -45q-43 122 -138 190t-230 68q-76 0 -145.5 -29.5t-125.5 -84t-92 -140.5t-43 -192h596q27 0 39 -15.5t12 -50.5v-131h-632 q41 -209 190.5 -323.5t368.5 -114.5q183 0 321 72q31 -52 31 -107q0 -26 -31 -55.5t-82.5 -54t-126 -40.5t-153.5 -16q-220 0 -394 94t-275 274t-101 417z" />
<glyph unicode="&#x405;" horiz-adv-x="1218" d="M123 1057q0 178 133 289.5t344 111.5q160 0 283.5 -66t177.5 -159q29 -50 29 -80q0 -37 -39 -57q-62 -33 -164 -41q-34 97 -107 149.5t-178 52.5q-106 0 -174 -54.5t-68 -143.5q0 -86 76 -148t262 -116q408 -119 408 -424q0 -176 -138.5 -286t-369.5 -110 q-89 0 -169.5 16.5t-134 42t-85 55t-31.5 56.5q0 55 31 107q162 -76 358 -76q147 0 224 50t77 136q0 85 -59 137t-209 93q-234 64 -355.5 176.5t-121.5 288.5z" />
<glyph unicode="&#x406;" horiz-adv-x="622" d="M195 51v1374q80 23 163 23q70 0 70 -51v-1397h-168q-35 0 -50 12t-15 39z" />
<glyph unicode="&#x407;" horiz-adv-x="622" d="M-4 1724q0 56 34 89.5t87 33.5t91 -37t38 -96q0 -58 -34 -91.5t-87 -33.5t-91 37t-38 98zM195 51v1374q80 23 163 23q70 0 70 -51v-1397h-168q-35 0 -50 12t-15 39zM377 1724q0 56 33.5 89.5t86.5 33.5t91 -37t38 -96q0 -58 -33.5 -91.5t-86.5 -33.5t-91 37t-38 98z" />
<glyph unicode="&#x408;" horiz-adv-x="886" d="M31 106q0 56 30 107q102 -37 195 -37q114 0 167.5 55.5t53.5 167.5v1026q81 23 164 23q70 0 70 -51v-1002q0 -201 -102.5 -310.5t-291.5 -109.5q-110 0 -198 43.5t-88 87.5z" />
<glyph unicode="&#x409;" horiz-adv-x="2279" d="M20 94q0 55 31 107q58 -25 133 -25q143 0 183 211q84 460 84 1047h835q66 0 66 -52v-487q130 55 313 55q237 0 379.5 -121t142.5 -344q0 -233 -160 -359t-434 -126h-155q-80 0 -136.5 18t-99 61.5t-63.5 119.5t-21 188v850h-438q-14 -492 -80 -875q-35 -205 -123.5 -296 t-226.5 -91q-89 0 -159.5 40t-70.5 79zM1352 403q0 -87 12 -132t35.5 -59.5t68.5 -14.5h105q373 0 373 278q0 142 -83.5 208.5t-250.5 66.5q-145 0 -260 -37v-310z" />
<glyph unicode="&#x40a;" horiz-adv-x="2183" d="M184 51v1374q80 23 164 23q70 0 70 -51v-580h604v617h168q35 0 50 -12.5t15 -39.5v-487q130 55 314 55q237 0 379.5 -121t142.5 -344q0 -233 -160 -359t-434 -126h-156q-80 0 -136 18t-99 61.5t-63.5 119.5t-20.5 188v234h-604v-621h-168q-35 0 -50.5 12t-15.5 39z M1255 403q0 -87 12.5 -132t36 -59.5t68.5 -14.5h105q372 0 372 278q0 142 -83 208.5t-250 66.5q-146 0 -261 -37v-310z" />
<glyph unicode="&#x40b;" horiz-adv-x="1624" d="M82 1303q0 65 16 131h1026q52 0 52 -66v-131h-431v-446q63 57 145 89.5t165 32.5q186 0 288.5 -127t102.5 -358v-156q0 -58 16.5 -83t53.5 -25h51q12 -38 12 -78q0 -37 -44 -68.5t-116 -31.5q-43 0 -77.5 12.5t-65 41.5t-47.5 83t-17 129v190q0 139 -52 207t-169 68 q-133 0 -246 -92v-625h-167q-35 0 -50.5 12t-15.5 39v1186h-379q-27 0 -39 15.5t-12 50.5z" />
<glyph unicode="&#x40c;" horiz-adv-x="1355" d="M184 51v1374q80 23 164 23q70 0 70 -51v-625q171 121 341.5 297t303.5 379q94 -32 130 -60t36 -69q0 -34 -17 -62q-72 -119 -188.5 -247.5t-251.5 -241.5q188 -341 367 -526q65 -68 131 -68h43q12 -37 12 -92q0 -40 -43.5 -73.5t-114.5 -33.5q-116 0 -233 134 q-148 166 -336 524q-76 -57 -180 -119v-514h-168q-35 0 -50.5 12t-15.5 39zM483 1642l224 225q27 27 51 27q28 0 55 -20q47 -36 82 -107l-252 -199q-26 -20 -47 -20q-23 0 -43 20z" />
<glyph unicode="&#x40d;" horiz-adv-x="1470" d="M184 55q38 -29 86.5 -49t79.5 -20q43 0 64 34l639 1012v-981q0 -27 15 -39t50 -12h168v1378q-38 29 -86.5 49.5t-79.5 20.5q-42 0 -63 -35l-639 -1012v996q0 51 -70 51q-84 0 -164 -23v-1370zM504 1767q35 71 82 107q27 20 55 20q25 0 51 -26l223 -226l-69 -73 q-21 -21 -43 -21q-20 0 -47 21z" />
<glyph unicode="&#x40e;" horiz-adv-x="1349" d="M106 1348l461 -899q-131 -212 -260 -383q-10 -13 -10 -27q0 -16 16 -27.5t45 -11.5h152q226 284 437 667t321 703q4 12 4 19q0 21 -18 33t-50 12h-164q-119 -361 -346 -768l-352 739q-12 24 -26.5 33.5t-39.5 9.5q-83 0 -170 -100zM391 1833q65 37 127 37q30 0 43.5 -10 t18.5 -35q10 -54 38.5 -81.5t69.5 -27.5q105 0 117 154h117q35 0 49.5 -11t11.5 -34q-13 -106 -89.5 -181t-205.5 -75q-113 0 -196 68t-101 196z" />
<glyph unicode="&#x40f;" horiz-adv-x="1486" d="M180 387v1038q81 23 164 23q70 0 70 -51v-994q0 -87 12 -132t35.5 -59.5t68.5 -14.5h539v1237h168q66 0 66 -52v-1382h-424v-301h-168q-35 0 -50.5 12t-15.5 39v250h-145q-80 0 -136.5 18t-99 61.5t-63.5 119.5t-21 188z" />
<glyph unicode="&#x410;" horiz-adv-x="1390" d="M55 72l486 1335q93 41 207 41q51 0 74 -16t38 -60l500 -1372h-180q-41 0 -60 10.5t-28 36.5l-105 307h-584l-118 -354h-168q-36 0 -54 21t-8 51zM471 551h449l-226 661z" />
<glyph unicode="&#x411;" horiz-adv-x="1351" d="M180 387v1047h842q27 0 39 -15.5t12 -50.5v-131h-659v-342q130 55 313 55q237 0 379.5 -121t142.5 -344q0 -233 -160 -359t-434 -126h-155q-80 0 -136.5 18t-99 61.5t-63.5 119.5t-21 188zM414 403q0 -87 12 -132t35.5 -59.5t68.5 -14.5h105q373 0 373 278 q0 142 -83.5 208.5t-250.5 66.5q-145 0 -260 -37v-310z" />
<glyph unicode="&#x412;" horiz-adv-x="1351" d="M180 387v1047h522q230 0 359 -107.5t129 -275.5q0 -106 -53.5 -187.5t-143.5 -120.5q111 -36 177.5 -124.5t66.5 -210.5q0 -191 -131.5 -299.5t-376.5 -108.5h-209q-172 0 -256 90t-84 297zM414 403q0 -118 29 -162t108 -44h180q141 0 204.5 55.5t63.5 167.5 q0 211 -301 211h-284v-228zM414 827h270q133 0 200.5 52.5t67.5 152.5t-67.5 152.5t-200.5 52.5h-270v-410z" />
<glyph unicode="&#x413;" horiz-adv-x="1128" d="M184 51v1383h822q27 0 39 -15.5t12 -50.5v-131h-639v-1237h-168q-35 0 -50.5 12t-15.5 39z" />
<glyph unicode="&#x414;" horiz-adv-x="1372" d="M61 197h113q85 276 129.5 573.5t56.5 663.5h717q66 0 66 -52v-1185h82q35 0 50 -12.5t15 -39.5v-446h-168q-35 0 -50 12t-15 39v250h-762v-301h-168q-35 0 -50.5 12t-15.5 39v447zM414 197h495v1040h-329q-34 -573 -166 -1040z" />
<glyph unicode="&#x415;" d="M180 387v1047h821q52 0 52 -66q0 -61 -17 -131h-622v-424h477q27 0 39 -15t12 -50v-132h-528v-213q0 -118 29 -162t108 -44h467q27 0 39 -15.5t12 -50.5v-131h-549q-172 0 -256 90t-84 297z" />
<glyph unicode="&#x416;" horiz-adv-x="2027" d="M41 82q0 54 12 92h43q72 0 115 45q175 192 340 596q-237 208 -387 442q-17 28 -17 62q0 41 36 69t130 60q122 -188 273.5 -349t310.5 -278v604q81 23 164 23q69 0 69 -51v-576q159 117 310.5 278t273.5 349q94 -32 130 -60t36 -69q0 -35 -16 -62q-150 -234 -387 -442 q165 -404 340 -596q43 -45 114 -45h43q13 -41 13 -92q0 -40 -45.5 -73.5t-116.5 -33.5q-65 0 -117.5 30t-112.5 108q-167 219 -301 557q-52 -40 -164 -111v-559h-167q-35 0 -50.5 12t-15.5 39v508q-112 71 -164 111q-134 -338 -301 -557q-61 -79 -112.5 -108.5t-116.5 -29.5 q-71 0 -116.5 33.5t-45.5 73.5z" />
<glyph unicode="&#x417;" horiz-adv-x="1230" d="M113 1147q0 36 16 65q63 110 182.5 178t288.5 68q206 0 341.5 -109.5t135.5 -279.5q0 -113 -70 -203t-182 -127q136 -39 214.5 -135.5t78.5 -218.5q0 -186 -149 -298t-404 -112q-88 0 -171.5 18.5t-141 46.5t-92.5 61.5t-35 62.5q0 54 31 106q169 -94 389 -94 q163 0 251.5 55t88.5 156q0 115 -101.5 182.5t-304.5 67.5h-22q-27 0 -39 15t-12 50q0 66 16 132h43q184 0 281.5 59.5t97.5 163.5q0 96 -62.5 148t-181.5 52q-231 0 -287 -217q-78 5 -139 34.5t-61 72.5z" />
<glyph unicode="&#x418;" horiz-adv-x="1470" d="M184 55v1370q80 23 164 23q70 0 70 -51v-996l639 1012q21 35 63 35q31 0 79.5 -20.5t86.5 -49.5v-1378h-168q-35 0 -50 12t-15 39v981l-639 -1012q-21 -34 -64 -34q-31 0 -79.5 20t-86.5 49z" />
<glyph unicode="&#x419;" horiz-adv-x="1470" d="M184 55q38 -29 86.5 -49t79.5 -20q43 0 64 34l639 1012v-981q0 -27 15 -39t50 -12h168v1378q-38 29 -86.5 49.5t-79.5 20.5q-42 0 -63 -35l-639 -1012v996q0 51 -70 51q-84 0 -164 -23v-1370zM438 1833q65 37 127 37q30 0 43.5 -10t18.5 -35q10 -54 38.5 -81.5 t69.5 -27.5q105 0 117 154h117q35 0 49.5 -11t11.5 -34q-13 -106 -89.5 -181t-205.5 -75q-113 0 -196 68t-101 196z" />
<glyph unicode="&#x41a;" horiz-adv-x="1355" d="M184 51v1374q80 23 164 23q70 0 70 -51v-625q171 121 341.5 297t303.5 379q94 -32 130 -60t36 -69q0 -34 -17 -62q-72 -119 -188.5 -247.5t-251.5 -241.5q188 -341 367 -526q65 -68 131 -68h43q12 -37 12 -92q0 -40 -43.5 -73.5t-114.5 -33.5q-116 0 -233 134 q-148 166 -336 524q-76 -57 -180 -119v-514h-168q-35 0 -50.5 12t-15.5 39z" />
<glyph unicode="&#x41b;" horiz-adv-x="1576" d="M20 94q0 55 31 107q58 -25 133 -25q143 0 183 211q84 460 84 1047h876q66 0 66 -52v-1382h-168q-35 0 -50.5 12t-15.5 39v1186h-479q-14 -492 -80 -875q-35 -205 -123.5 -296t-226.5 -91q-89 0 -159.5 40t-70.5 79z" />
<glyph unicode="&#x41c;" horiz-adv-x="1835" d="M135 57l148 1334q41 25 89.5 41t82.5 16q27 0 42.5 -9t28.5 -34l389 -715l410 744h162q35 0 50 -12.5t15 -39.5l150 -1382h-174q-37 0 -54 12.5t-20 42.5l-100 1020l-318 -579q-12 -22 -31.5 -31.5t-56.5 -9.5h-129l-340 620l-106 -1075h-172q-72 0 -66 57z" />
<glyph unicode="&#x41d;" horiz-adv-x="1478" d="M184 51v1374q80 23 164 23q70 0 70 -51v-580h643v617h168q35 0 50 -12.5t15 -39.5v-1382h-168q-35 0 -50 12t-15 39v570h-643v-621h-168q-35 0 -50.5 12t-15.5 39z" />
<glyph unicode="&#x41e;" horiz-adv-x="1585" d="M113 717q0 178 54 321t148 233.5t216 138.5t262 48t262 -48t216 -138.5t148 -233.5t54 -321t-54 -321t-148 -234t-216 -139t-262 -48t-262 48t-216 139t-148 234t-54 321zM350 735q0 -127 36 -233.5t98 -177t144.5 -109.5t176.5 -39q83 0 158 31t137 92t98.5 164 t36.5 235q0 127 -36 233.5t-98 177t-144.5 109.5t-176.5 39q-83 0 -158 -31t-137 -92t-98.5 -164t-36.5 -235z" />
<glyph unicode="&#x41f;" horiz-adv-x="1480" d="M184 51v1383h1047q35 0 50 -12.5t15 -39.5v-1382h-168q-35 0 -50 12t-15 39v1186h-645v-1237h-168q-35 0 -50.5 12t-15.5 39z" />
<glyph unicode="&#x420;" horiz-adv-x="1314" d="M184 51v1383h475q262 0 413 -140t151 -387q0 -156 -71.5 -272t-194 -175t-277.5 -59q-60 0 -136.5 9.5t-125.5 25.5v-436h-168q-35 0 -50.5 12t-15.5 39zM418 623q92 -21 219 -21q160 0 254 80.5t94 235.5q0 156 -90 237.5t-252 81.5h-225v-614z" />
<glyph unicode="&#x421;" horiz-adv-x="1406" d="M113 760q0 162 52 295.5t142.5 220.5t209.5 134.5t255 47.5q187 0 330 -81.5t209 -217.5q14 -28 14 -57q0 -34 -41 -58q-59 -38 -160 -45q-43 122 -138 190t-230 68q-80 0 -152 -32t-129 -92t-91 -155t-34 -212q0 -278 158.5 -434t415.5 -156q183 0 321 72 q31 -52 31 -107q0 -26 -31 -55.5t-82.5 -54t-126 -40.5t-153.5 -16q-218 0 -392 94t-276 274t-102 417z" />
<glyph unicode="&#x422;" horiz-adv-x="1257" d="M82 1303q0 65 16 131h1026q52 0 52 -66v-131h-431v-1237h-167q-35 0 -50.5 12t-15.5 39v1186h-379q-27 0 -39 15.5t-12 50.5z" />
<glyph unicode="&#x423;" horiz-adv-x="1349" d="M106 1348q87 100 170 100q25 0 39.5 -9.5t26.5 -33.5l352 -739q227 407 346 768h164q32 0 50 -12t18 -33q0 -7 -4 -19q-110 -320 -321 -703t-437 -667h-152q-29 0 -45 11.5t-16 27.5q0 14 10 27q129 171 260 383z" />
<glyph unicode="&#x424;" horiz-adv-x="1552" d="M98 723q0 122 46.5 222t126.5 166t178 106.5t210 54.5v153q81 23 164 23q70 0 70 -51v-125q89 -11 169.5 -37.5t152.5 -73t125 -108t83.5 -146.5t30.5 -184q0 -123 -46.5 -223.5t-126.5 -166.5t-178 -106.5t-210 -54.5v-172h-168q-35 0 -50.5 12t-15.5 39v121 q-112 14 -210 54.5t-178 106.5t-126.5 166.5t-46.5 223.5zM336 741q0 -139 86.5 -235t236.5 -127v692q-147 -22 -235 -103.5t-88 -226.5zM893 373q147 22 235.5 104t88.5 228q0 138 -87.5 234.5t-236.5 127.5v-694z" />
<glyph unicode="&#x425;" horiz-adv-x="1415" d="M111 88q72 170 190 340t260 309l-436 586q98 125 172 125q20 0 31.5 -7t25.5 -26l381 -510q217 248 324 529h184q85 0 49 -88q-66 -159 -178.5 -323.5t-245.5 -297.5l463 -619q-97 -124 -172 -124q-20 0 -31.5 6.5t-25.5 25.5l-408 545q-234 -260 -350 -559h-184 q-88 0 -49 88z" />
<glyph unicode="&#x426;" horiz-adv-x="1531" d="M180 387v1038q81 23 164 23q70 0 70 -51v-994q0 -87 12 -132t35.5 -59.5t68.5 -14.5h539v1237h168q66 0 66 -52v-1185h81q66 0 66 -52v-446h-168q-35 0 -50 12t-15 39v250h-717q-80 0 -136.5 18t-99 61.5t-63.5 119.5t-21 188z" />
<glyph unicode="&#x427;" horiz-adv-x="1415" d="M160 907v518q80 23 164 23q69 0 69 -51v-479q0 -156 91.5 -236t250.5 -80q162 0 262 47v785h168q66 0 66 -52v-1382h-168q-35 0 -50.5 12t-15.5 39v414q-119 -64 -305 -64q-152 0 -272 59t-190 175t-70 272z" />
<glyph unicode="&#x428;" horiz-adv-x="1855" d="M180 387v1038q81 23 164 23q70 0 70 -51v-994q0 -87 12 -132t35.5 -59.5t68.5 -14.5h279v1237h168q35 0 50 -12.5t15 -39.5v-1185h396v1237h168q35 0 50 -12.5t15 -39.5v-1382h-1171q-80 0 -136.5 18t-99 61.5t-63.5 119.5t-21 188z" />
<glyph unicode="&#x429;" horiz-adv-x="1900" d="M180 387v1038q81 23 164 23q70 0 70 -51v-994q0 -87 12 -132t35.5 -59.5t68.5 -14.5h279v1237h168q35 0 50 -12.5t15 -39.5v-1185h396v1237h168q35 0 50 -12.5t15 -39.5v-1185h82q66 0 66 -52v-446h-168q-35 0 -50.5 12t-15.5 39v250h-1085q-80 0 -136.5 18t-99 61.5 t-63.5 119.5t-21 188z" />
<glyph unicode="&#x42a;" horiz-adv-x="1673" d="M82 1303q0 65 16 131h596q27 0 39 -15.5t12 -50.5v-473q130 55 314 55q237 0 379.5 -121t142.5 -344q0 -233 -160 -359t-434 -126h-156q-80 0 -136 18t-99 61.5t-63.5 119.5t-20.5 188v850h-379q-27 0 -39 15.5t-12 50.5zM745 403q0 -87 12.5 -132t36 -59.5t68.5 -14.5 h105q372 0 372 278q0 142 -83 208.5t-250 66.5q-146 0 -261 -37v-310z" />
<glyph unicode="&#x42b;" horiz-adv-x="1882" d="M180 387v1038q81 23 164 23q70 0 70 -51v-502q130 55 313 55q237 0 379.5 -121t142.5 -344q0 -233 -160 -359t-434 -126h-155q-80 0 -136.5 18t-99 61.5t-63.5 119.5t-21 188zM414 403q0 -87 12 -132t35.5 -59.5t68.5 -14.5h105q373 0 373 278q0 142 -83.5 208.5 t-250.5 66.5q-145 0 -260 -37v-310zM1464 51v1374q81 23 164 23q70 0 70 -51v-1397h-168q-35 0 -50.5 12t-15.5 39z" />
<glyph unicode="&#x42c;" horiz-adv-x="1341" d="M180 387v1038q81 23 164 23q70 0 70 -51v-502q130 55 313 55q237 0 379.5 -121t142.5 -344q0 -233 -160 -359t-434 -126h-155q-80 0 -136.5 18t-99 61.5t-63.5 119.5t-21 188zM414 403q0 -87 12 -132t35.5 -59.5t68.5 -14.5h105q373 0 373 278q0 142 -83.5 208.5 t-250.5 66.5q-145 0 -260 -37v-310z" />
<glyph unicode="&#x42d;" horiz-adv-x="1427" d="M102 1102q0 27 15 57q66 136 208.5 217.5t329.5 81.5q136 0 255.5 -47.5t209.5 -134.5t142.5 -220.5t52.5 -295.5q0 -237 -101 -417t-275 -274t-394 -94q-79 0 -153.5 16t-126 40.5t-82.5 54t-31 55.5q0 56 30 107q138 -72 322 -72q217 0 367 114.5t192 323.5h-582 q-27 0 -39 15.5t-12 50.5q0 65 16 131h629q-6 106 -41.5 192t-91.5 140.5t-125 84t-145 29.5q-135 0 -230.5 -68t-138.5 -190q-101 7 -160 45q-41 24 -41 58z" />
<glyph unicode="&#x42e;" horiz-adv-x="2115" d="M184 51v1374q80 23 164 23q70 0 70 -51v-586h229q14 156 73 281t150.5 204t207 120.5t245.5 41.5q140 0 262 -48t216 -138.5t148 -233.5t54 -321t-54 -321t-148 -234t-216 -139t-262 -48q-130 0 -244.5 41t-206 119.5t-151 201.5t-74.5 277h-229v-614h-168 q-35 0 -50.5 12t-15.5 39zM881 735q0 -254 130.5 -406.5t323.5 -152.5q83 0 158 31t137 92t98.5 164t36.5 235q0 254 -130.5 406.5t-323.5 152.5q-83 0 -158 -31t-137 -92t-98.5 -164t-36.5 -235z" />
<glyph unicode="&#x42f;" horiz-adv-x="1347" d="M102 82q0 39 13 80h43q69 0 137 65q94 88 197 248q-151 51 -238.5 169.5t-87.5 293.5q0 231 151 363.5t412 132.5h369q35 0 50 -12.5t15 -39.5v-1382h-168q-35 0 -50 12t-15 39v422q-78 -27 -205 -31q-90 -175 -213 -323q-120 -144 -248 -144q-73 0 -117.5 33.5 t-44.5 73.5zM408 938q0 -144 92 -219.5t252 -75.5q105 0 178 16v578h-180q-162 0 -252 -77t-90 -222z" />
<glyph unicode="&#x430;" horiz-adv-x="1224" d="M102 317q0 168 119 263.5t322 95.5q70 0 145.5 -15.5t120.5 -39.5v69q0 240 -307 240q-153 0 -277 -62q-12 15 -21 43.5t-9 53.5t28 52t75 49.5t116.5 37t146.5 14.5q224 0 346.5 -110.5t122.5 -325.5v-410q0 -60 19.5 -84t58.5 -24h43q12 -38 12 -78q0 -37 -42.5 -68.5 t-110.5 -31.5q-66 0 -120 44t-73 132q-53 -88 -143.5 -137.5t-202.5 -49.5q-163 0 -266 95t-103 247zM324 324q0 -79 55.5 -119.5t146.5 -40.5q86 0 165 46t118 124v125q-34 13 -105 20.5t-129 7.5q-122 0 -186.5 -42t-64.5 -121z" />
<glyph unicode="&#x431;" horiz-adv-x="1292" d="M133 608q0 166 19 291.5t51 209t83.5 140.5t108.5 86.5t133 46.5l279 62q184 42 248 78q42 -42 53 -95q8 -39 -64.5 -84.5t-191.5 -72.5l-281 -64q-101 -23 -147 -104t-59 -262q63 89 165 142.5t207 53.5q195 0 328 -138.5t133 -350.5q0 -254 -148 -413t-384 -159 q-250 0 -391.5 169t-141.5 464zM358 598q0 -214 82 -324t226 -110q128 0 217.5 100t89.5 273q0 151 -84 232t-213 81q-81 0 -170 -47t-148 -119v-86z" />
<glyph unicode="&#x432;" horiz-adv-x="1142" d="M160 301v793h467q173 0 272.5 -86t99.5 -217q0 -73 -35.5 -129.5t-95.5 -88.5q82 -30 132.5 -95.5t50.5 -160.5q0 -147 -107.5 -232t-298.5 -85h-217q-133 0 -200.5 70.5t-67.5 230.5zM381 332q0 -90 20 -119t74 -29h146q107 0 157.5 34.5t50.5 111.5q0 74 -60 106.5 t-175 32.5h-213v-137zM381 651h217q180 0 180 131q0 127 -180 127h-217v-258z" />
<glyph unicode="&#x433;" horiz-adv-x="966" d="M164 51v1043h690q27 0 39 -15.5t12 -50.5v-119h-520v-909h-156q-35 0 -50 12t-15 39z" />
<glyph unicode="&#x434;" horiz-adv-x="1204" d="M51 184h109q130 382 162 910h618q66 0 66 -52v-858h71q35 0 50.5 -12t15.5 -39v-375h-156q-35 0 -50 12.5t-15 39.5v190h-650v-242h-155q-66 0 -66 52v374zM383 184h401v725h-268q-36 -403 -133 -725z" />
<glyph unicode="&#x435;" d="M102 543q0 176 75.5 308.5t199 199.5t274.5 67q194 0 316.5 -113t122.5 -284q0 -99 -35 -174q-25 -50 -61 -70t-101 -20h-563q18 -144 114.5 -218.5t245.5 -74.5q144 0 266 61q12 -15 21.5 -43.5t9.5 -52.5q0 -55 -96 -104.5t-240 -49.5q-239 0 -394 160t-155 408z M332 641h526q14 28 14 68q0 103 -60.5 162t-172.5 59q-126 0 -207 -77t-100 -212z" />
<glyph unicode="&#x436;" horiz-adv-x="1650" d="M51 86q0 40 12 78h43q34 0 63.5 17t63.5 65q74 106 183 383q-217 179 -281 307q-12 27 -12 49q0 38 32.5 65.5t116.5 57.5q84 -130 202.5 -251.5t240.5 -207.5v438q77 21 155 21q35 0 50.5 -12t15.5 -39v-408q120 85 238 207t204 252q84 -30 117 -57.5t33 -65.5 q0 -22 -12 -49q-64 -128 -281 -307q107 -279 182 -383q34 -48 63.5 -65t63.5 -17h43q12 -38 12 -78q0 -35 -44.5 -67.5t-102.5 -32.5q-76 0 -129.5 40.5t-99.5 116.5q-98 159 -156 363q-78 -52 -131 -82v-424h-156q-35 0 -50 12t-15 39v373q-70 39 -131 82 q-62 -205 -156 -363q-46 -76 -99.5 -116.5t-129.5 -40.5q-58 0 -103 32.5t-45 67.5z" />
<glyph unicode="&#x437;" horiz-adv-x="1077" d="M123 864q0 35 14 58q49 87 152.5 141.5t251.5 54.5q175 0 284 -86t109 -219q0 -91 -52 -158t-143 -98q105 -28 165.5 -98t60.5 -170q0 -140 -118 -227t-335 -87q-92 0 -180.5 26t-142.5 66t-54 78q0 49 31 97q144 -78 319 -78q125 0 189.5 38t64.5 103q0 74 -70 113 t-202 39h-16q-27 0 -39.5 15t-12.5 50q0 64 15 119h37q132 0 195 36.5t63 110.5q0 66 -47.5 104t-122.5 38q-89 0 -147.5 -43t-80.5 -127q-83 6 -147 47q-41 24 -41 57z" />
<glyph unicode="&#x438;" horiz-adv-x="1284" d="M164 51v1036q77 21 153 21q68 0 68 -51v-713l514 731q23 33 70 33q30 0 73.5 -18.5t77.5 -47.5v-1042h-155q-35 0 -50.5 12t-15.5 39v699l-514 -732q-22 -32 -70 -32q-30 0 -74 18t-77 47z" />
<glyph unicode="&#x439;" horiz-adv-x="1284" d="M164 51q33 -29 77 -47t74 -18q48 0 70 32l514 732v-699q0 -27 15.5 -39t50.5 -12h155v1042q-34 29 -77.5 47.5t-73.5 18.5q-47 0 -70 -33l-514 -731v713q0 51 -68 51q-77 0 -153 -21v-1036zM344 1475q63 36 127 36q30 0 43 -10t18 -35q10 -54 39 -81t70 -27 q105 0 117 153h116q35 0 50 -11t12 -34q-13 -106 -89.5 -181t-205.5 -75q-113 0 -196 68.5t-101 196.5z" />
<glyph unicode="&#x43a;" horiz-adv-x="1191" d="M164 51v1036q77 21 153 21q68 0 68 -51v-451q144 87 294.5 225.5t240.5 276.5q84 -30 116.5 -57.5t32.5 -65.5q0 -22 -12 -49q-34 -68 -132 -165t-231 -193q57 -86 135.5 -184.5t137.5 -157.5q42 -42 68 -57t52 -15h41q13 -41 13 -78t-43 -68.5t-111 -31.5 q-117 0 -242 153q-120 147 -223 326q-51 -32 -137 -78v-387h-156q-35 0 -50 12t-15 39z" />
<glyph unicode="&#x43b;" horiz-adv-x="1347" d="M20 82q0 53 31 96q49 -22 113 -22q59 0 95 41t50 141q49 327 49 756h760q66 0 66 -52v-1042h-156q-35 0 -50 12t-15 39v858h-388q-7 -321 -47 -604q-23 -168 -96.5 -249t-200.5 -81q-78 0 -144.5 34.5t-66.5 72.5z" />
<glyph unicode="&#x43c;" horiz-adv-x="1548" d="M121 51l119 1008q37 21 84 35t77 14q46 0 68 -39l303 -530l318 555h149q34 0 49.5 -12.5t18.5 -39.5l123 -1042h-160q-34 0 -48.5 11t-17.5 38l-84 739l-229 -407q-20 -35 -66 -35h-153l-248 442l-90 -788h-148q-71 0 -65 51z" />
<glyph unicode="&#x43d;" horiz-adv-x="1255" d="M164 51v1036q77 21 153 21q68 0 68 -51v-400h485v437h156q66 0 66 -52v-1042h-156q-35 0 -50.5 12t-15.5 39v422h-485v-473h-156q-35 0 -50 12t-15 39z" />
<glyph unicode="&#x43e;" horiz-adv-x="1286" d="M102 547q0 134 43.5 243.5t118 180.5t172 109t207.5 38t207.5 -38t172 -109t118 -180.5t43.5 -243.5t-43.5 -243.5t-118 -180.5t-172 -109.5t-207.5 -38.5t-207.5 38.5t-172 109.5t-118 180.5t-43.5 243.5zM328 559q0 -184 95 -289.5t228 -105.5q64 0 118.5 22t97 66 t67 116.5t24.5 166.5q0 184 -95 289.5t-228 105.5q-64 0 -118.5 -22t-97 -66t-67 -116.5t-24.5 -166.5z" />
<glyph unicode="&#x43f;" horiz-adv-x="1255" d="M164 51v1043h862q66 0 66 -52v-1042h-156q-35 0 -50.5 12t-15.5 39v858h-485v-909h-156q-35 0 -50 12t-15 39z" />
<glyph unicode="&#x440;" horiz-adv-x="1316" d="M164 -385v1472q77 21 153 21q68 0 68 -51v-142q57 95 152.5 149t205.5 54q203 0 337 -144t134 -386q0 -136 -44.5 -252.5t-119.5 -194.5t-174 -122t-206 -44q-174 0 -285 105v-516h-156q-35 0 -50 12t-15 39zM385 250q90 -86 246 -86t257 117t101 299q0 163 -78.5 257.5 t-218.5 94.5q-99 0 -181 -65.5t-126 -196.5v-420z" />
<glyph unicode="&#x441;" horiz-adv-x="1134" d="M102 580q0 248 147.5 393t381.5 145q149 0 259.5 -60.5t158.5 -156.5q14 -28 14 -57q0 -34 -41 -58q-64 -41 -148 -47q-23 87 -87 139t-166 52q-127 0 -210 -93.5t-83 -250.5q0 -198 116.5 -310t286.5 -112q148 0 270 61q31 -48 31 -96q0 -54 -96 -104t-238 -50 q-115 0 -221.5 41t-190 116t-134 191.5t-50.5 256.5z" />
<glyph unicode="&#x442;" horiz-adv-x="1085" d="M66 975q0 67 14 119h889q27 0 39 -15.5t12 -50.5v-119h-367v-909h-155q-35 0 -50.5 12t-15.5 39v858h-315q-27 0 -39 15.5t-12 50.5z" />
<glyph unicode="&#x443;" horiz-adv-x="1286" d="M160 440v647q77 21 153 21q68 0 68 -51v-619q0 -274 233 -274q77 0 155 29t132 81v820h156q35 0 50 -12.5t15 -39.5v-1048q0 -78 -21.5 -150.5t-66.5 -136.5t-109 -112t-155.5 -75.5t-200.5 -27.5q-185 0 -291 80t-106 201q0 70 43.5 136.5t128.5 117.5 q-184 108 -184 413zM393 -197q0 -57 47 -92t135 -35q63 0 121 19t104 55t73.5 94t27.5 129v148q-63 -65 -158 -105.5t-192 -40.5q-33 0 -68 7q-90 -75 -90 -179z" />
<glyph unicode="&#x444;" horiz-adv-x="1564" d="M98 547q0 160 73 282.5t199 192.5t294 90v377q73 20 153 20q68 0 68 -51v-346q263 -26 422 -173.5t159 -391.5t-159.5 -392.5t-421.5 -172.5v-377h-156q-35 0 -50 12t-15 39v326q-256 29 -411 176.5t-155 388.5zM324 559q0 -157 91.5 -256t248.5 -129v748 q-161 -23 -250.5 -113.5t-89.5 -249.5zM885 168q168 19 262 110.5t94 256.5q0 161 -96 260.5t-260 126.5v-754z" />
<glyph unicode="&#x445;" horiz-adv-x="1171" d="M89.5 18q-12.5 18 0.5 50q50 120 143.5 251.5t206.5 237.5l-331 438q81 113 151 113q28 0 51 -29l285 -377q174 200 250 392h170q33 0 45.5 -18t-0.5 -50q-50 -118 -142.5 -248t-201.5 -235l223 -297q33 -45 62 -63.5t63 -18.5h33q12 -38 12 -78q0 -37 -43 -68.5 t-111 -31.5q-83 0 -174 118l-221 293q-178 -201 -256 -397h-170q-33 0 -45.5 18z" />
<glyph unicode="&#x446;" horiz-adv-x="1296" d="M160 301v786q77 21 153 21q68 0 68 -51v-725q0 -90 20 -119t74 -29h402v910h155q66 0 66 -52v-858h71q35 0 50.5 -12t15.5 -39v-375h-156q-35 0 -50 12.5t-15 39.5v190h-586q-133 0 -200.5 70.5t-67.5 230.5z" />
<glyph unicode="&#x447;" horiz-adv-x="1259" d="M133 774v313q76 21 154 21q67 0 67 -51v-305q0 -275 234 -275q76 0 153.5 29.5t132.5 81.5v506h156q66 0 66 -52v-1042h-156q-35 0 -50.5 12t-15.5 39v381q-60 -65 -155.5 -104t-194.5 -39q-186 0 -288.5 127t-102.5 358z" />
<glyph unicode="&#x448;" horiz-adv-x="1630" d="M160 301v786q77 21 153 21q68 0 68 -51v-725q0 -90 20 -119t74 -29h227v910h156q66 0 66 -52v-858h321v910h156q35 0 50 -12.5t15 -39.5v-1042h-1038q-133 0 -200.5 70.5t-67.5 230.5z" />
<glyph unicode="&#x449;" horiz-adv-x="1665" d="M160 301v786q77 21 153 21q68 0 68 -51v-725q0 -90 20 -119t74 -29h227v910h156q66 0 66 -52v-858h321v910h156q35 0 50 -12.5t15 -39.5v-858h72q35 0 50.5 -12t15.5 -39v-375h-156q-66 0 -66 52v190h-954q-133 0 -200.5 70.5t-67.5 230.5z" />
<glyph unicode="&#x44a;" horiz-adv-x="1421" d="M66 975q0 67 14 119h508q35 0 50 -12.5t15 -39.5v-323q107 39 262 39q188 0 304 -96.5t116 -266.5q0 -187 -129.5 -291t-378.5 -104h-127q-133 0 -200.5 70.5t-67.5 230.5v608h-315q-27 0 -39 15.5t-12 50.5zM653 332q0 -89 20.5 -118.5t74.5 -29.5h96q130 0 198 51.5 t68 145.5q0 93 -63 141.5t-183 48.5q-121 0 -211 -22v-217z" />
<glyph unicode="&#x44b;" horiz-adv-x="1642" d="M160 301v786q77 21 153 21q68 0 68 -51v-338q107 39 262 39q188 0 304 -96.5t116 -266.5q0 -187 -129.5 -291t-378.5 -104h-127q-133 0 -200.5 70.5t-67.5 230.5zM381 332q0 -90 20 -119t74 -29h96q130 0 198.5 51.5t68.5 145.5q0 93 -63 141.5t-183 48.5 q-121 0 -211 -22v-217zM1223 252v835q76 21 155 21q35 0 50.5 -12t15.5 -39v-785q0 -58 16 -83t53 -25h52q12 -38 12 -78q0 -37 -43 -68.5t-111 -31.5q-40 0 -74 12.5t-63.5 41.5t-46 83t-16.5 129z" />
<glyph unicode="&#x44c;" horiz-adv-x="1148" d="M160 301v786q77 21 153 21q68 0 68 -51v-338q107 39 262 39q188 0 304 -96.5t116 -266.5q0 -187 -129.5 -291t-378.5 -104h-127q-133 0 -200.5 70.5t-67.5 230.5zM381 332q0 -90 20 -119t74 -29h96q130 0 198.5 51.5t68.5 145.5q0 93 -63 141.5t-183 48.5 q-121 0 -211 -22v-217z" />
<glyph unicode="&#x44d;" horiz-adv-x="1165" d="M102 844q0 27 15 57q48 96 158.5 156.5t259.5 60.5q234 0 381 -145t147 -393q0 -140 -50.5 -256.5t-134 -191.5t-190 -116t-221.5 -41q-142 0 -238 50t-96 104q0 48 31 96q122 -61 270 -61q139 0 245 75.5t142 213.5h-370q-27 0 -39.5 15t-12.5 50q0 64 15 119h422 q-13 134 -94 213.5t-197 79.5q-102 0 -166.5 -52t-87.5 -139q-84 6 -148 47q-41 24 -41 58z" />
<glyph unicode="&#x44e;" horiz-adv-x="1742" d="M164 51v1036q77 21 153 21q68 0 68 -51v-410h180q30 220 180 345.5t355 125.5q110 0 207.5 -38t171.5 -109t117.5 -180.5t43.5 -243.5t-43.5 -243.5t-117.5 -180.5t-171.5 -109.5t-207.5 -38.5q-136 0 -250 55t-192 167.5t-95 265.5h-178v-463h-156q-35 0 -50 12t-15 39z M784 559q0 -184 95.5 -289.5t228.5 -105.5q64 0 118.5 22t97 66t67 116.5t24.5 166.5q0 184 -95 289.5t-228 105.5q-64 0 -118.5 -22t-97.5 -66t-67.5 -116.5t-24.5 -166.5z" />
<glyph unicode="&#x44f;" horiz-adv-x="1175" d="M123 72q0 43 8 67h35q33 0 54.5 8t47.5 33q74 68 142 182q-118 40 -183 130t-65 221q0 178 115.5 279.5t316.5 101.5h352q66 0 66 -52v-1042h-156q-35 0 -50 12t-15 39v305q-77 -24 -175 -24q-80 -158 -190 -277q-42 -45 -81 -62.5t-91 -17.5q-57 0 -94 31.5t-37 65.5z M387 713q0 -95 70.5 -144t193.5 -49q73 0 140 12v377h-140q-126 0 -195 -50t-69 -146z" />
<glyph unicode="&#x450;" d="M102 543q0 176 75.5 308.5t199 199.5t274.5 67q194 0 316.5 -113t122.5 -284q0 -99 -35 -174q-25 -50 -61 -70t-101 -20h-563q18 -144 114.5 -218.5t245.5 -74.5q144 0 266 61q12 -15 21.5 -43.5t9.5 -52.5q0 -55 -96 -104.5t-240 -49.5q-239 0 -394 160t-155 408z M332 641h526q14 28 14 68q0 103 -60.5 162t-172.5 59q-126 0 -207 -77t-100 -212zM395 1411q35 71 82 107q27 20 55 20q25 0 52 -27l223 -225l-70 -74q-20 -20 -43 -20q-21 0 -47 20z" />
<glyph unicode="&#x451;" d="M102 543q0 176 75.5 308.5t199 199.5t274.5 67q194 0 316.5 -113t122.5 -284q0 -99 -35 -174q-25 -50 -61 -70t-101 -20h-563q18 -144 114.5 -218.5t245.5 -74.5q144 0 266 61q12 -15 21.5 -43.5t9.5 -52.5q0 -55 -96 -104.5t-240 -49.5q-239 0 -394 160t-155 408z M307 1368q0 56 34 89.5t87 33.5t91 -37t38 -96q0 -58 -33.5 -91.5t-87.5 -33.5q-53 0 -91 37t-38 98zM332 641h526q14 28 14 68q0 103 -60.5 162t-172.5 59q-126 0 -207 -77t-100 -212zM688 1368q0 56 34 89.5t87 33.5t91 -37t38 -96q0 -58 -34 -91.5t-87 -33.5t-91 37 t-38 98z" />
<glyph unicode="&#x452;" horiz-adv-x="1280" d="M43 1274q0 55 8 94h113v121q73 20 153 20q68 0 68 -51v-90h293q27 0 39 -15t12 -50v-74h-344v-256q62 64 157 104.5t193 40.5q186 0 288.5 -127t102.5 -358v-674q0 -90 -33.5 -177.5t-88.5 -148.5q-61 -68 -120.5 -95t-86.5 -13q-42 22 -64 82q172 180 172 375v673 q0 275 -233 275q-76 0 -154.5 -30t-132.5 -81v-819h-156q-35 0 -50 12t-15 39v1178h-70q-51 0 -51 45z" />
<glyph unicode="&#x453;" horiz-adv-x="966" d="M164 51v1043h690q27 0 39 -15.5t12 -50.5v-119h-520v-909h-156q-35 0 -50 12t-15 39zM344 1286l223 225q27 27 51 27q29 0 56 -20q47 -36 82 -107l-252 -199q-26 -20 -47 -20q-23 0 -43 20z" />
<glyph unicode="&#x454;" horiz-adv-x="1134" d="M102 580q0 248 147.5 393t381.5 145q149 0 259.5 -60.5t158.5 -156.5q14 -28 14 -57q0 -34 -41 -58q-64 -41 -148 -47q-23 87 -87 139t-166 52q-116 0 -197 -79.5t-94 -213.5h385q27 0 39 -15.5t12 -50.5v-118h-422q36 -138 142 -213.5t245 -75.5q148 0 270 61 q31 -48 31 -96q0 -54 -96 -104t-238 -50q-115 0 -221.5 41t-190 116t-134 191.5t-50.5 256.5z" />
<glyph unicode="&#x455;" horiz-adv-x="1024" d="M123 795q0 145 109 234t290 89q128 0 230 -50t149 -136q14 -28 14 -53q0 -35 -43 -60q-60 -38 -145 -45q-22 74 -78 115t-133 41q-82 0 -127 -36.5t-45 -92.5q0 -69 55 -108.5t183 -71.5q174 -43 257 -122t83 -206q0 -144 -106 -231t-298 -87q-150 0 -258 52t-108 106 q0 26 9 54.5t21 43.5q143 -67 307 -67q211 0 211 121q0 58 -41 90.5t-153 58.5q-199 45 -291 134t-92 227z" />
<glyph unicode="&#x456;" horiz-adv-x="593" d="M141 1380q0 59 35 94t90 35t94 -38t39 -99q0 -60 -34.5 -94.5t-92.5 -34.5q-53 0 -92 38t-39 99zM164 252v835q77 21 153 21q68 0 68 -51v-785q0 -58 16.5 -83t53.5 -25h51q12 -38 12 -78q0 -37 -42.5 -68.5t-110.5 -31.5q-40 0 -74 12.5t-63.5 41.5t-46.5 83t-17 129z " />
<glyph unicode="&#x457;" horiz-adv-x="593" d="M-41 1368q0 56 34 89.5t87 33.5t91 -37t38 -96q0 -58 -33.5 -91.5t-87.5 -33.5q-53 0 -91 37t-38 98zM164 252v835q77 21 153 21q68 0 68 -51v-785q0 -58 16.5 -83t53.5 -25h51q12 -38 12 -78q0 -37 -42.5 -68.5t-110.5 -31.5q-40 0 -74 12.5t-63.5 41.5t-46.5 83 t-17 129zM340 1368q0 56 33.5 89.5t86.5 33.5t91 -37t38 -96q0 -58 -33.5 -91.5t-86.5 -33.5t-91 37t-38 98z" />
<glyph unicode="&#x458;" horiz-adv-x="559" d="M2 -332q172 180 172 375v1044q76 21 154 21q67 0 67 -51v-1037q0 -90 -33.5 -176.5t-89.5 -148.5q-61 -68 -120 -95.5t-86 -13.5q-42 22 -64 82zM152 1380q0 59 34.5 94t89.5 35t94.5 -38t39.5 -99q0 -60 -35 -94.5t-92 -34.5q-53 0 -92 38t-39 99z" />
<glyph unicode="&#x459;" horiz-adv-x="1931" d="M20 82q0 53 31 96q49 -22 113 -22q59 0 95 41t50 141q49 327 49 756h740q35 0 50 -12.5t15 -39.5v-323q107 39 262 39q188 0 304 -96.5t116 -266.5q0 -187 -129.5 -291t-378.5 -104h-127q-133 0 -200.5 70.5t-67.5 230.5v608h-367q-7 -321 -47 -604q-23 -168 -96.5 -249 t-200.5 -81q-78 0 -144.5 34.5t-66.5 72.5zM1163 332q0 -90 20 -119t74 -29h97q130 0 198 51.5t68 145.5q0 93 -63 141.5t-183 48.5q-121 0 -211 -22v-217z" />
<glyph unicode="&#x45a;" horiz-adv-x="1839" d="M164 51v1036q77 21 153 21q68 0 68 -51v-400h465v437h156q35 0 50 -12.5t15 -39.5v-323q107 39 262 39q188 0 304 -96.5t116 -266.5q0 -187 -129.5 -291t-378.5 -104h-127q-133 0 -200.5 70.5t-67.5 230.5v172h-465v-473h-156q-35 0 -50 12t-15 39zM1071 332 q0 -90 20 -119t74 -29h97q130 0 198 51.5t68 145.5q0 93 -63 141.5t-183 48.5q-121 0 -211 -22v-217z" />
<glyph unicode="&#x45b;" horiz-adv-x="1325" d="M43 1274q0 55 8 94h113v121q73 20 153 20q68 0 68 -51v-90h293q27 0 39 -15t12 -50v-74h-344v-256q62 64 157 104.5t193 40.5q186 0 288.5 -127t102.5 -358v-361q0 -58 16.5 -83t53.5 -25h51q13 -41 13 -78t-43 -68.5t-111 -31.5q-40 0 -74 12.5t-63.5 41.5t-46.5 83 t-17 129v403q0 275 -233 275q-76 0 -154.5 -30t-132.5 -81v-819h-156q-35 0 -50 12t-15 39v1178h-70q-51 0 -51 45z" />
<glyph unicode="&#x45c;" horiz-adv-x="1191" d="M164 51v1036q77 21 153 21q68 0 68 -51v-451q144 87 294.5 225.5t240.5 276.5q84 -30 116.5 -57.5t32.5 -65.5q0 -22 -12 -49q-34 -68 -132 -165t-231 -193q57 -86 135.5 -184.5t137.5 -157.5q42 -42 68 -57t52 -15h41q13 -41 13 -78t-43 -68.5t-111 -31.5 q-117 0 -242 153q-120 147 -223 326q-51 -32 -137 -78v-387h-156q-35 0 -50 12t-15 39zM412 1286l223 225q27 27 51 27q28 0 55 -20q47 -36 82 -107l-252 -199q-26 -20 -47 -20q-23 0 -43 20z" />
<glyph unicode="&#x45d;" horiz-adv-x="1284" d="M164 51q33 -29 77 -47t74 -18q48 0 70 32l514 732v-699q0 -27 15.5 -39t50.5 -12h155v1042q-34 29 -77.5 47.5t-73.5 18.5q-47 0 -70 -33l-514 -731v713q0 51 -68 51q-77 0 -153 -21v-1036zM395 1411q35 71 82 107q27 20 55 20q25 0 52 -27l223 -225l-70 -74 q-20 -20 -43 -20q-21 0 -47 20z" />
<glyph unicode="&#x45e;" horiz-adv-x="1286" d="M160 440v647q77 21 153 21q68 0 68 -51v-619q0 -274 233 -274q77 0 155 29t132 81v820h156q35 0 50 -12.5t15 -39.5v-1048q0 -78 -21.5 -150.5t-66.5 -136.5t-109 -112t-155.5 -75.5t-200.5 -27.5q-185 0 -291 80t-106 201q0 70 43.5 136.5t128.5 117.5 q-184 108 -184 413zM344 1475q63 36 127 36q30 0 43.5 -10t18.5 -35q10 -54 38.5 -81t69.5 -27q105 0 117 153h117q35 0 49.5 -11t11.5 -34q-13 -106 -89.5 -181t-205.5 -75q-113 0 -196 68.5t-101 196.5zM393 -197q0 -57 47 -92t135 -35q63 0 121 19t104 55t73.5 94 t27.5 129v148q-63 -65 -158 -105.5t-192 -40.5q-33 0 -68 7q-90 -75 -90 -179z" />
<glyph unicode="&#x45f;" horiz-adv-x="1261" d="M160 301v786q77 21 153 21q68 0 68 -51v-725q0 -90 20 -119t74 -29h402v910h155q66 0 66 -52v-1042h-338v-242h-156q-35 0 -50 12.5t-15 39.5v190h-111q-133 0 -200.5 70.5t-67.5 230.5z" />
<glyph unicode="&#x490;" horiz-adv-x="1128" d="M184 51v1383h639v252q77 22 164 22q70 0 70 -51v-420h-639v-1237h-168q-35 0 -50.5 12t-15.5 39z" />
<glyph unicode="&#x491;" horiz-adv-x="966" d="M164 51v1043h520v229q73 20 154 20q67 0 67 -51v-383h-520v-909h-156q-35 0 -50 12t-15 39z" />
<glyph unicode="&#x1e80;" horiz-adv-x="2287" d="M92 1382q102 66 180 66q28 0 43.5 -9t22.5 -34l317 -1133q213 486 334 1162h211q45 0 68 -13.5t32 -44.5l310 -1104q215 498 334 1162h176q37 0 52.5 -15t10.5 -43q-123 -658 -414 -1321q-12 -30 -35 -42.5t-65 -12.5h-205l-315 1143q-56 -260 -146 -547t-204 -541 q-24 -55 -101 -55h-190zM901 1767q35 71 82 107q27 20 55 20q25 0 52 -27l223 -225l-70 -74q-20 -20 -43 -20q-21 0 -47 20z" />
<glyph unicode="&#x1e81;" horiz-adv-x="1792" d="M88 1040q99 68 174 68q43 0 51 -35l226 -860q69 174 128 408.5t93 472.5h196q67 0 84 -60l215 -821q70 175 129.5 409.5t92.5 471.5h161q36 0 50.5 -15.5t9.5 -42.5q-39 -225 -117 -493.5t-176 -495.5q-18 -47 -80 -47h-213l-211 842q-28 -181 -87.5 -398t-133.5 -403 q-16 -41 -74 -41h-211zM639 1411q35 71 82 107q27 20 55 20q24 0 51 -27l224 -225l-70 -74q-20 -20 -43 -20q-21 0 -47 20z" />
<glyph unicode="&#x1e82;" horiz-adv-x="2287" d="M92 1382q102 66 180 66q28 0 43.5 -9t22.5 -34l317 -1133q213 486 334 1162h211q45 0 68 -13.5t32 -44.5l310 -1104q215 498 334 1162h176q37 0 52.5 -15t10.5 -43q-123 -658 -414 -1321q-12 -30 -35 -42.5t-65 -12.5h-205l-315 1143q-56 -260 -146 -547t-204 -541 q-24 -55 -101 -55h-190zM938 1642l224 225q27 27 51 27q28 0 55 -20q47 -36 82 -107l-252 -199q-26 -20 -47 -20q-23 0 -43 20z" />
<glyph unicode="&#x1e83;" horiz-adv-x="1792" d="M88 1040q99 68 174 68q43 0 51 -35l226 -860q69 174 128 408.5t93 472.5h196q67 0 84 -60l215 -821q70 175 129.5 409.5t92.5 471.5h161q36 0 50.5 -15.5t9.5 -42.5q-39 -225 -117 -493.5t-176 -495.5q-18 -47 -80 -47h-213l-211 842q-28 -181 -87.5 -398t-133.5 -403 q-16 -41 -74 -41h-211zM690 1286l223 225q27 27 52 27q28 0 55 -20q47 -36 82 -107l-252 -199q-26 -20 -47 -20q-23 0 -43 20z" />
<glyph unicode="&#x1e84;" horiz-adv-x="2287" d="M92 1382q102 66 180 66q28 0 43.5 -9t22.5 -34l317 -1133q213 486 334 1162h211q45 0 68 -13.5t32 -44.5l310 -1104q215 498 334 1162h176q37 0 52.5 -15t10.5 -43q-123 -658 -414 -1321q-12 -30 -35 -42.5t-65 -12.5h-205l-315 1143q-56 -260 -146 -547t-204 -541 q-24 -55 -101 -55h-190zM834 1724q0 56 34 89.5t87 33.5t91 -37t38 -96q0 -58 -34 -91.5t-87 -33.5t-91 37t-38 98zM1215 1724q0 56 33.5 89.5t86.5 33.5t91 -37t38 -96q0 -58 -33.5 -91.5t-86.5 -33.5t-91 37t-38 98z" />
<glyph unicode="&#x1e85;" horiz-adv-x="1792" d="M88 1040q99 68 174 68q43 0 51 -35l226 -860q69 174 128 408.5t93 472.5h196q67 0 84 -60l215 -821q70 175 129.5 409.5t92.5 471.5h161q36 0 50.5 -15.5t9.5 -42.5q-39 -225 -117 -493.5t-176 -495.5q-18 -47 -80 -47h-213l-211 842q-28 -181 -87.5 -398t-133.5 -403 q-16 -41 -74 -41h-211zM586 1368q0 56 34 89.5t87 33.5t91 -37t38 -96q0 -58 -34 -91.5t-87 -33.5t-91 37t-38 98zM967 1368q0 56 33.5 89.5t86.5 33.5t91.5 -37t38.5 -96q0 -58 -33.5 -91.5t-87.5 -33.5q-53 0 -91 37t-38 98z" />
<glyph unicode="&#x1ef2;" horiz-adv-x="1366" d="M74 1348q94 100 176 100q20 0 31 -7.5t22 -27.5l381 -711q260 374 379 732h164q32 0 49.5 -12t17.5 -33q0 -7 -4 -19q-163 -450 -493 -874v-496h-168q-35 0 -50.5 12t-15.5 39v434zM436 1767q35 71 82 107q27 20 55 20q25 0 52 -27l223 -225l-70 -74q-20 -20 -43 -20 q-21 0 -47 20z" />
<glyph unicode="&#x1ef3;" horiz-adv-x="1286" d="M160 440v647q77 21 153 21q68 0 68 -51v-619q0 -274 233 -274q77 0 155 29t132 81v820h156q35 0 50 -12.5t15 -39.5v-1048q0 -78 -21.5 -150.5t-66.5 -136.5t-109 -112t-155.5 -75.5t-200.5 -27.5q-185 0 -291 80t-106 201q0 70 43.5 136.5t128.5 117.5 q-184 108 -184 413zM393 -197q0 -57 47 -92t135 -35q63 0 121 19t104 55t73.5 94t27.5 129v148q-63 -65 -158 -105.5t-192 -40.5q-33 0 -68 7q-90 -75 -90 -179zM395 1411q35 71 82 107q27 20 55 20q25 0 52 -27l223 -225l-70 -74q-20 -20 -43 -20q-21 0 -47 20z" />
<glyph unicode="&#x2000;" horiz-adv-x="1010" />
<glyph unicode="&#x2001;" horiz-adv-x="2021" />
<glyph unicode="&#x2002;" horiz-adv-x="1010" />
<glyph unicode="&#x2003;" horiz-adv-x="2021" />
<glyph unicode="&#x2004;" horiz-adv-x="673" />
<glyph unicode="&#x2005;" horiz-adv-x="505" />
<glyph unicode="&#x2006;" horiz-adv-x="336" />
<glyph unicode="&#x2007;" horiz-adv-x="336" />
<glyph unicode="&#x2008;" horiz-adv-x="252" />
<glyph unicode="&#x2009;" horiz-adv-x="409" />
<glyph unicode="&#x200a;" horiz-adv-x="112" />
<glyph unicode="&#x2010;" horiz-adv-x="933" d="M174 649q0 63 16 129h519q27 0 39 -15t12 -50v-131h-535q-51 0 -51 67z" />
<glyph unicode="&#x2011;" horiz-adv-x="933" d="M174 649q0 63 16 129h519q27 0 39 -15t12 -50v-131h-535q-51 0 -51 67z" />
<glyph unicode="&#x2012;" horiz-adv-x="1392" d="M174 649q0 63 16 129h977q27 0 39.5 -15t12.5 -50v-131h-994q-51 0 -51 67z" />
<glyph unicode="&#x2013;" horiz-adv-x="1024" d="M0 649q0 63 16 129h957q27 0 39 -15t12 -50v-131h-973q-51 0 -51 67z" />
<glyph unicode="&#x2014;" horiz-adv-x="2048" d="M0 649q0 63 16 129h1981q27 0 39 -15t12 -50v-131h-1997q-51 0 -51 67z" />
<glyph unicode="&#x2015;" horiz-adv-x="2048" d="M205 649q0 63 16 129h1571q27 0 39 -15t12 -50v-131h-1587q-51 0 -51 67z" />
<glyph unicode="&#x2016;" horiz-adv-x="948" d="M205 -215v1735q72 14 131 14q70 0 70 -51v-1749h-136q-35 0 -50 12t-15 39zM543 -215v1735q72 14 131 14q69 0 69 -51v-1749h-135q-35 0 -50 12t-15 39z" />
<glyph unicode="&#x2017;" horiz-adv-x="1228" d="M102 -123q0 31 11 92h962q27 0 39 -15t12 -50v-94h-972q-52 0 -52 67zM102 -373q0 31 11 92h962q27 0 39 -15t12 -50v-94h-972q-52 0 -52 67z" />
<glyph unicode="&#x2018;" horiz-adv-x="675" d="M197 1116q0 161 112 297q41 51 85.5 78t60.5 20q14 -6 27.5 -23.5t17.5 -35.5q-105 -99 -123 -213q45 -14 73.5 -52t28.5 -93q0 -64 -38 -102t-99 -38t-103 43t-42 119z" />
<glyph unicode="&#x2019;" horiz-adv-x="675" d="M176 1022q105 99 123 213q-45 14 -73.5 52t-28.5 93q0 64 38 102t99 38t103 -43t42 -119q0 -161 -112 -297q-41 -51 -85.5 -78t-60.5 -20q-14 6 -27.5 23.5t-17.5 35.5z" />
<glyph unicode="&#x201a;" horiz-adv-x="675" d="M176 -231q105 99 123 213q-45 14 -73.5 52t-28.5 93q0 64 38 101.5t99 37.5t103 -43t42 -119q0 -161 -112 -297q-41 -51 -85.5 -78t-60.5 -20q-14 6 -27.5 23.5t-17.5 36.5z" />
<glyph unicode="&#x201b;" horiz-adv-x="675" d="M197 1358q0 76 42 119t103 43t99 -38t38 -102q0 -55 -28.5 -93t-73.5 -52q18 -114 123 -213q-4 -18 -17.5 -35.5t-27.5 -23.5q-16 -7 -60.5 20t-85.5 78q-112 136 -112 297z" />
<glyph unicode="&#x201c;" horiz-adv-x="1064" d="M197 1116q0 161 112 297q41 51 85.5 78t60.5 20q14 -6 27.5 -23.5t17.5 -35.5q-105 -99 -123 -213q45 -14 73.5 -52t28.5 -93q0 -64 -38 -102t-99 -38t-103 43t-42 119zM586 1116q0 161 112 297q41 51 85.5 78t60.5 20q14 -6 27.5 -23.5t17.5 -35.5q-105 -99 -123 -213 q45 -14 73.5 -52t28.5 -93q0 -64 -38 -102t-99 -38t-103 43t-42 119z" />
<glyph unicode="&#x201d;" horiz-adv-x="1064" d="M176 1022q105 99 123 213q-45 14 -73.5 52t-28.5 93q0 64 38 102t99 38t103 -43t42 -119q0 -161 -112 -297q-41 -51 -85.5 -78t-60.5 -20q-14 6 -27.5 23.5t-17.5 35.5zM565 1022q105 99 123 213q-45 14 -73.5 52t-28.5 93q0 64 38 102t99 38t103 -43t42 -119 q0 -161 -112 -297q-41 -51 -85.5 -78t-60.5 -20q-14 6 -27.5 23.5t-17.5 35.5z" />
<glyph unicode="&#x201e;" horiz-adv-x="1064" d="M176 -231q105 99 123 213q-45 14 -73.5 52t-28.5 93q0 64 38 101.5t99 37.5t103 -43t42 -119q0 -161 -112 -297q-41 -51 -85.5 -78t-60.5 -20q-14 6 -27.5 23.5t-17.5 36.5zM565 -231q105 99 123 213q-45 14 -73.5 52t-28.5 93q0 64 38 101.5t99 37.5t103 -43t42 -119 q0 -161 -112 -297q-41 -51 -85.5 -78t-60.5 -20q-14 6 -27.5 23.5t-17.5 36.5z" />
<glyph unicode="&#x201f;" horiz-adv-x="985" d="M176 1358q0 76 42.5 119t103.5 43t99 -38t38 -102q0 -55 -29 -93t-74 -52q18 -114 123 -213q-4 -18 -17.5 -35.5t-27.5 -23.5q-16 -7 -60 20t-85 78q-113 137 -113 297zM565 1358q0 76 42.5 119t103.5 43t99 -38t38 -102q0 -55 -29 -93t-74 -52q18 -114 123 -213 q-4 -18 -17.5 -35.5t-27.5 -23.5q-16 -7 -60 20t-85 78q-113 137 -113 297z" />
<glyph unicode="&#x2020;" horiz-adv-x="1052" d="M102 1071q0 53 13 113l325 -23l-20 355q69 16 143 16q70 0 70 -51l-21 -320l287 21q27 0 39 -15.5t12 -50.5v-115l-332 23v-1292h-118q-35 0 -50.5 12t-15.5 39v1241l-280 -18q-26 -2 -39 14t-13 51z" />
<glyph unicode="&#x2021;" horiz-adv-x="1073" d="M113 150q0 56 12 112l319 -22v784l-280 -18q-26 -2 -38.5 14t-12.5 51q0 57 12 113l326 -23l-21 355q69 16 143 16q37 0 54 -12.5t16 -38.5l-20 -320l286 21q52 0 52 -66v-115l-332 23v-784l280 20q27 0 39.5 -15t12.5 -50v-115l-338 22l20 -319q1 -26 -16 -38.5 t-54 -12.5q-74 0 -143 16l21 354l-287 -18q-26 -1 -38.5 15t-12.5 51z" />
<glyph unicode="&#x2022;" horiz-adv-x="940" d="M205 692q0 119 71.5 189.5t186.5 70.5q111 0 191.5 -78t80.5 -206q0 -119 -71.5 -189.5t-186.5 -70.5q-111 0 -191.5 78t-80.5 206z" />
<glyph unicode="&#x2024;" horiz-adv-x="675" d="M197 127q0 64 38 101.5t99 37.5q60 0 102.5 -41.5t42.5 -109.5q0 -64 -38 -102t-99 -38q-59 0 -102 42t-43 110z" />
<glyph unicode="&#x2025;" horiz-adv-x="1351" d="M197 127q0 64 38 101.5t99 37.5q60 0 102.5 -41.5t42.5 -109.5q0 -64 -38 -102t-99 -38q-59 0 -102 42t-43 110zM872 127q0 64 38.5 101.5t99.5 37.5q60 0 102.5 -41.5t42.5 -109.5q0 -64 -38 -102t-99 -38q-60 0 -103 42t-43 110z" />
<glyph unicode="&#x2026;" horiz-adv-x="2027" d="M197 127q0 64 38 101.5t99 37.5q60 0 102.5 -41.5t42.5 -109.5q0 -64 -38 -102t-99 -38q-59 0 -102 42t-43 110zM872 127q0 64 38.5 101.5t99.5 37.5q60 0 102.5 -41.5t42.5 -109.5q0 -64 -38 -102t-99 -38q-60 0 -103 42t-43 110zM1548 127q0 64 38.5 101.5t99.5 37.5 q60 0 102.5 -41.5t42.5 -109.5q0 -64 -38 -102t-99 -38q-60 0 -103 42t-43 110z" />
<glyph unicode="&#x202f;" horiz-adv-x="404" />
<glyph unicode="&#x2030;" horiz-adv-x="2607" d="M102 1090q0 163 101 261.5t248 98.5t247.5 -98.5t100.5 -261.5t-100.5 -262t-247.5 -99t-248 99t-101 262zM297 1098q0 -93 45.5 -148t118.5 -55q65 0 104 51.5t39 138.5q0 93 -44.5 148t-117.5 55q-66 0 -105.5 -51.5t-39.5 -138.5zM539 61l575 1373h100q39 0 52 -17 t2 -45l-576 -1372h-100q-77 0 -53 61zM1016 344q0 163 100.5 262t247.5 99t247.5 -99t100.5 -262t-100.5 -261.5t-247.5 -98.5t-247.5 98.5t-100.5 261.5zM1210 352q0 -93 45.5 -147.5t118.5 -54.5q65 0 104.5 51.5t39.5 138.5q0 93 -44.5 148t-117.5 55q-66 0 -106 -52 t-40 -139zM1808 344q0 163 101 262t248 99t247.5 -99t100.5 -262t-100.5 -261.5t-247.5 -98.5t-248 98.5t-101 261.5zM2003 352q0 -93 45.5 -147.5t118.5 -54.5q65 0 104 51.5t39 138.5q0 93 -44.5 148t-117.5 55q-66 0 -105.5 -51.5t-39.5 -139.5z" />
<glyph unicode="&#x2032;" horiz-adv-x="661" d="M156 926l114 499q74 23 162 23q43 0 63 -18.5t7 -57.5l-170 -498h-111q-36 0 -53.5 13t-11.5 39z" />
<glyph unicode="&#x2033;" horiz-adv-x="1050" d="M156 926l114 499q74 23 162 23q43 0 63 -18.5t7 -57.5l-170 -498h-111q-36 0 -53.5 13t-11.5 39zM524 926l135 499q74 23 162 23q44 0 64 -19.5t4 -60.5l-189 -494h-110q-36 0 -54 13t-12 39z" />
<glyph unicode="&#x2039;" horiz-adv-x="739" d="M123 608v111l420 295q22 16 37 16q36 0 36 -59q0 -48 -14 -123l-309 -209l287 -195q20 -13 27 -28t7 -41v-160l-456 320q-35 27 -35 73z" />
<glyph unicode="&#x203a;" horiz-adv-x="739" d="M123 971q0 59 37 59q15 0 37 -16l419 -295v-111q0 -47 -34 -73l-457 -320v160q0 46 35 69l286 195l-309 209q-14 75 -14 123z" />
<glyph unicode="&#x203c;" horiz-adv-x="1130" d="M174 127q0 64 38 101.5t99 37.5q60 0 103 -41.5t43 -109.5q0 -64 -38.5 -102t-99.5 -38q-59 0 -102 42t-43 110zM188 1161v266q89 21 179 21q75 0 75 -55v-232q0 -378 -32 -788h-125q-34 0 -48.5 12t-17.5 39q-31 353 -31 737zM674 127q0 64 38 101.5t99 37.5 q60 0 102.5 -41.5t42.5 -109.5q0 -64 -38 -102t-99 -38q-59 0 -102 42t-43 110zM688 1161v266q89 21 178 21q76 0 76 -55v-232q0 -366 -33 -788h-125q-34 0 -48 12t-17 39q-31 353 -31 737z" />
<glyph unicode="&#x203e;" horiz-adv-x="860" d="M154 1303q0 42 12 100h500q22 0 31.5 -12.5t9.5 -42.5v-105h-512q-41 0 -41 60z" />
<glyph unicode="&#x2044;" horiz-adv-x="372" d="M-178 61l575 1373h101q39 0 51.5 -17t1.5 -45l-576 -1372h-100q-77 0 -53 61z" />
<glyph unicode="&#x205f;" horiz-adv-x="505" />
<glyph unicode="&#x20a0;" horiz-adv-x="1609" d="M82 969q0 112 36.5 205.5t99.5 155t147.5 95t179.5 33.5q126 0 222.5 -49t147.5 -149q13 -21 13 -50q0 -26 -35 -47q-52 -34 -129 -37q-51 146 -217 146q-103 0 -170.5 -84.5t-67.5 -214.5q0 -177 93.5 -276t248.5 -99q100 0 168 23v385h635q27 0 39 -15.5t12 -50.5 q0 -69 -14 -121h-442v-215h329q27 0 39.5 -15t12.5 -50v-121h-381v-25q0 -118 29 -162.5t108 -44.5h291q27 0 39 -15t12 -50v-121h-369q-172 0 -256 90t-84 297v70q-80 -39 -217 -39q-108 0 -202.5 38.5t-165 108t-111.5 174.5t-41 230z" />
<glyph unicode="&#x20a1;" horiz-adv-x="1406" d="M113 760q0 154 47.5 282.5t130 215t192 138t236.5 60.5l37 158h53q32 0 43 -10.5t6 -34.5l-27 -113q55 -6 109 -18l41 176h53q32 0 43 -10.5t6 -34.5l-39 -166q90 -38 158.5 -101t108.5 -143q14 -28 14 -57q0 -34 -41 -58q-59 -38 -160 -45q-46 120 -129 183l-225 -989 q67 -17 154 -17q183 0 321 72q31 -52 31 -107q0 -26 -31 -55.5t-82.5 -54t-126 -40.5t-153.5 -16q-83 0 -160 15l-37 -170h-53q-32 0 -43 10.5t-6 34.5l32 149q-45 16 -102 43l-53 -237h-53q-32 0 -43.5 10.5t-6.5 34.5l58 252q-143 102 -223 266.5t-80 376.5zM350 766 q0 -240 123 -395l199 876q-139 -31 -230.5 -156.5t-91.5 -324.5zM565 283q46 -34 101 -58l229 1010q-46 17 -109 20z" />
<glyph unicode="&#x20a2;" horiz-adv-x="1406" d="M113 760q0 162 52 295.5t142.5 220.5t209.5 134.5t255 47.5q187 0 330 -81.5t209 -217.5q14 -28 14 -57q0 -34 -41 -58q-59 -38 -160 -45q-43 122 -138 190t-230 68q-80 0 -152 -32t-129 -92t-91 -155t-34 -212q0 -178 67.5 -308t188.5 -202v618q56 15 174 15 q25 0 36 -8.5t11 -28.5v-117q25 65 94.5 109.5t153.5 44.5q60 0 107 -21q49 -21 49 -63q0 -27 -17 -53q-28 -44 -86 -84q-50 32 -116 32q-71 0 -118.5 -41t-66.5 -122v-355q46 -6 97 -6q183 0 321 72q31 -52 31 -107q0 -26 -31 -55.5t-82.5 -54t-126 -40.5t-153.5 -16 q-218 0 -392 94t-276 274t-102 417z" />
<glyph unicode="&#x20a3;" horiz-adv-x="1128" d="M37 537q0 33 10 75h137v146h-116q-31 0 -31 39q0 33 10 75h137v562h822q27 0 39 -15.5t12 -50.5q0 -61 -17 -131h-622v-365h489q22 0 30.5 -11.5t8.5 -41.5v-61h-528v-146h489q22 0 30.5 -11.5t8.5 -41.5v-61h-528v-498h-168q-35 0 -50.5 12t-15.5 39v447h-116 q-31 0 -31 39z" />
<glyph unicode="&#x20a4;" horiz-adv-x="1220" d="M102 496q0 29 11 75h127v146h-107q-31 0 -31 39q0 29 11 75h127v154q0 219 120.5 346t319.5 127q154 0 264 -76t164 -202q12 -30 12 -58q0 -33 -41 -57q-59 -38 -159 -45q-25 118 -89.5 177.5t-148.5 59.5q-98 0 -153.5 -67.5t-55.5 -198.5v-160h375q22 0 30.5 -11.5 t8.5 -41.5v-61h-414v-146h375q22 0 30.5 -11.5t8.5 -41.5v-61h-416q-9 -179 -98 -260h714q52 0 52 -66v-131h-965q-27 0 -39 15.5t-12 50.5v112q65 53 90 118t27 161h-107q-31 0 -31 39z" />
<glyph unicode="&#x20a6;" horiz-adv-x="1470" d="M51 590q0 34 10 76h123v104h-102q-31 0 -31 39q0 34 10 76h123v493q38 29 86.5 49.5t79.5 20.5q43 0 64 -35l336 -528h303v549h168q35 0 50 -12.5t15 -39.5v-497h94q22 0 30.5 -11.5t8.5 -42.5v-61h-133v-104h94q22 0 30.5 -11.5t8.5 -42.5v-61h-133v-496 q-38 -29 -86.5 -49t-79.5 -20q-42 0 -63 34l-338 531h-301v-551h-168q-35 0 -50.5 12t-15.5 39v500h-102q-31 0 -31 39zM418 666h229l-67 104h-162v-104zM418 885h90l-90 141v-141zM821 770l68 -104h164v104h-232zM961 551l92 -143v143h-92z" />
<glyph unicode="&#x20a7;" horiz-adv-x="2433" d="M184 51v1383h332q172 0 299 -90t176 -250h158v307q73 20 154 20q67 0 67 -51v-276h305q41 0 49 -41q97 65 238 65q120 0 210 -49t138 -137q14 -28 14 -53q0 -35 -43 -60q-60 -38 -145 -45q-22 75 -68.5 115.5t-111.5 40.5t-103 -35t-38 -90q0 -68 46 -102t160 -66 q155 -42 232.5 -120.5t77.5 -203.5q0 -145 -101 -229t-293 -84h-430q-161 0 -259.5 102.5t-98.5 288.5v518h-131q0 -117 -40 -214.5t-107.5 -161t-153.5 -98t-180 -34.5q-63 0 -119 17v-418h-168q-35 0 -50.5 12t-15.5 39zM418 608q25 -6 76 -6q118 0 202 82.5t84 233.5 q0 152 -80 235.5t-200 83.5h-82v-629zM1370 371q0 -94 52 -138.5t137 -44.5h350q103 0 151.5 28t48.5 89q0 59 -33.5 90.5t-129.5 55.5q-181 44 -267 128.5t-86 219.5q0 55 19 110h-242v-538z" />
<glyph unicode="&#x20a8;" horiz-adv-x="2021" d="M184 51v1383h332q261 0 412 -132.5t151 -363.5q0 -159 -73 -272t-201 -170q83 -191 145 -269q50 -65 137 -65h43q13 -41 13 -80q0 -40 -44.5 -73.5t-117.5 -33.5q-80 0 -132.5 34.5t-107.5 115.5q-88 131 -157 317h-47q-63 0 -119 13v-455h-168q-35 0 -50.5 12t-15.5 39z M418 647q25 -4 76 -4q160 0 252 75.5t92 219.5q0 145 -90 222t-252 77h-78v-590zM1202 795q0 145 99.5 234t259.5 89q115 0 202 -49t135 -137q15 -30 15 -53q0 -35 -43 -60q-60 -38 -146 -45q-22 75 -66.5 115.5t-103.5 40.5q-60 0 -95.5 -36.5t-35.5 -92.5 q0 -67 47.5 -105.5t149.5 -74.5q152 -54 225.5 -131.5t73.5 -196.5q0 -142 -99 -230t-264 -88q-148 0 -236.5 51t-88.5 107q0 26 9.5 54t21.5 44q75 -35 134.5 -51t131.5 -16q78 0 124 31.5t46 89.5q0 101 -154 149q-179 55 -260.5 142t-81.5 219z" />
<glyph unicode="&#x20a9;" horiz-adv-x="2287" d="M51 559q0 34 10 76h256l-32 104h-203q-31 0 -31 39q0 34 10 76h189l-158 528q102 66 176 66q28 0 44.5 -9t25.5 -34l154 -551h366q72 258 131 580h211q45 0 68 -13.5t32 -44.5l146 -522h364q81 289 134 580h176q37 0 52.5 -15t10.5 -43q-43 -240 -125 -522h150 q22 0 30.5 -11.5t8.5 -41.5v-62h-222l-32 -104h215q22 0 30.5 -11.5t8.5 -41.5v-62h-295q-70 -205 -183 -465q-12 -30 -35 -42.5t-65 -12.5h-205l-143 520h-342q-88 -261 -180 -465q-24 -55 -101 -55h-190l-156 520h-270q-31 0 -31 39zM524 739l29 -104h240q2 6 14 44t18 60 h-301zM586 520l69 -248q54 121 99 248h-168zM1016 635h272l-28 104h-213zM1079 854h150l-80 289q-37 -168 -70 -289zM1479 739l28 -104h238q19 52 33 104h-299zM1540 520l70 -248q52 122 96 248h-166z" />
<glyph unicode="&#x20aa;" horiz-adv-x="1830" d="M184 51v1383h531q267 0 394.5 -145t127.5 -441v-332h-168q-35 0 -50 12t-15 39v273q0 97 -12.5 166.5t-34.5 114t-58 70.5t-77.5 36t-98.5 10h-305v-1237h-168q-35 0 -50.5 12t-15.5 39zM594 586v309q80 23 164 23q69 0 69 -52v-272q0 -97 12.5 -166.5t34.5 -114 t58 -70.5t77.5 -36t98.5 -10h305v1237h168q66 0 66 -52v-1382h-531q-267 0 -394.5 145t-127.5 441z" />
<glyph unicode="&#x20ab;" horiz-adv-x="1351" d="M102 465q0 167 76.5 299t200.5 202t268 70q172 0 285 -104v235h-293q-51 0 -51 45q0 56 8 95h336v127h155q66 0 66 -52v-75h70q27 0 39 -15.5t12 -50.5v-74h-121v-895q0 -60 19.5 -84t58.5 -24h43q12 -38 12 -78q0 -37 -42.5 -68.5t-110.5 -31.5q-69 0 -125 49.5 t-72 148.5q-55 -98 -152.5 -153.5t-210.5 -55.5q-201 0 -336 136t-135 354zM291 -274q0 57 14 108h821q27 0 39.5 -15t12.5 -50v-109h-836q-27 0 -39 15.5t-12 50.5zM328 473q0 -138 79.5 -224.5t217.5 -86.5q99 0 180.5 65.5t126.5 196.5v338q-96 86 -246 86 q-155 0 -256.5 -106.5t-101.5 -268.5z" />
<glyph unicode="&#x20ac;" horiz-adv-x="1406" d="M10 557q0 34 10 76h101q-8 55 -8 127v18h-72q-31 0 -31 39q0 34 10 76h103q19 132 78 239.5t145 178.5t195 109t231 38q187 0 330 -81.5t209 -217.5q14 -28 14 -57q0 -34 -41 -58q-59 -38 -160 -45q-43 122 -138 190t-230 68q-141 0 -252 -96t-144 -268h457 q22 0 30.5 -11.5t8.5 -41.5v-62h-506v-12q0 -65 10 -133h457q22 0 30.5 -11.5t8.5 -41.5v-62h-465q61 -164 201.5 -253t331.5 -89q183 0 321 72q31 -52 31 -107q0 -26 -31 -55.5t-82.5 -54t-126 -40.5t-153.5 -16q-271 0 -471.5 144.5t-268.5 398.5h-102q-31 0 -31 39z" />
<glyph unicode="&#x2122;" horiz-adv-x="1529" d="M61 1356q0 28 11 78h499q50 0 50 -48v-75h-201v-580h-105q-53 0 -53 39v541h-153q-25 0 -36.5 10t-11.5 35zM670 774l67 633q56 37 105 37q23 0 33.5 -6t19.5 -23l162 -309l172 328h94q52 0 55 -39l70 -664h-102q-30 0 -41.5 7.5t-14.5 31.5l-47 422l-110 -221 q-13 -27 -54 -27h-86l-123 248l-51 -461h-96q-59 0 -53 43z" />
<glyph unicode="&#x2202;" horiz-adv-x="1316" d="M98 442q0 137 68 244t183 164t255 57q99 0 192 -31t162 -85q-8 122 -41.5 214t-85 146t-114 80t-135.5 26q-101 0 -164 -55.5t-80 -161.5q-101 7 -160 45q-41 24 -41 62q0 36 19 74q60 115 171.5 176t262.5 61q270 0 437 -205.5t167 -554.5v-34q0 -319 -163.5 -504 t-428.5 -185q-228 0 -366 132t-138 335zM332 432q0 -120 74 -188t186 -68q155 0 255.5 113t110.5 313q-62 50 -145.5 77.5t-169.5 27.5q-135 0 -223 -74t-88 -201z" />
<glyph unicode="&#x2206;" horiz-adv-x="1390" d="M55 72l486 1335q93 41 207 41q51 0 74 -16t38 -60l500 -1372h-1243q-36 0 -54 21t-8 51zM350 197h690l-346 1015z" />
<glyph unicode="&#x220f;" horiz-adv-x="1439" d="M184 -176v1692h1006q35 0 50 -12.5t15 -39.5v-1691h-168q-35 0 -50 12t-15 39v1495h-604v-1546h-168q-35 0 -50.5 12t-15.5 39z" />
<glyph unicode="&#x2211;" horiz-adv-x="1257" d="M82 1319q26 97 74 158q29 39 92 39h897q27 0 39 -15.5t12 -50.5v-131h-858l424 -592v-55q0 -35 -25 -80l-372 -623h780q27 0 39 -15t12 -50v-131h-1044q-27 0 -39.5 15t-12.5 50v131l443 711z" />
<glyph unicode="&#x221a;" horiz-adv-x="1171" d="M82 678q0 42 10 100h201q42 0 62.5 -10t31.5 -35l211 -520l285 1364h131q31 0 44.5 -13.5t8.5 -37.5l-299 -1463q-12 -63 -100 -63h-183l-249 612h-103q-27 0 -39 15.5t-12 50.5z" />
<glyph unicode="&#x221e;" horiz-adv-x="1589" d="M154 682q0 132 94 218.5t227 86.5q176 0 320 -182q141 182 319 182q133 0 227.5 -87t94.5 -220q0 -132 -94.5 -218.5t-227.5 -86.5q-175 0 -319 182q-142 -182 -320 -182q-133 0 -227 87t-94 220zM356 682q0 -60 38 -96.5t95 -36.5q51 0 96 29.5t101 101.5 q-58 76 -102 104.5t-95 28.5q-57 0 -95 -35.5t-38 -95.5zM903 680q57 -75 100.5 -103t96.5 -28q57 0 95 35.5t38 95.5t-38 96.5t-95 36.5q-52 0 -96.5 -29.5t-100.5 -103.5z" />
<glyph unicode="&#x222b;" horiz-adv-x="1081" d="M41 -389q0 24 9.5 52.5t21.5 43.5q68 -24 178 -24q99 0 139.5 40t40.5 140v1282q0 186 92 280.5t254 94.5q65 0 128 -19t99.5 -46t36.5 -52q0 -24 -9 -52.5t-21 -43.5q-68 24 -179 24q-99 0 -139.5 -40t-40.5 -140v-1282q0 -186 -92 -280.5t-254 -94.5q-65 0 -128 19 t-99.5 46t-36.5 52z" />
<glyph unicode="&#x2248;" horiz-adv-x="1306" d="M143 367q0 21 7 49q65 217 288 217q122 0 238 -82q120 -88 174 -88q45 0 72.5 38.5t40.5 135.5l145 -31q34 -6 46 -20.5t9 -40.5q-16 -120 -91 -193t-206 -73q-123 0 -237 81q-121 89 -174 89q-44 0 -72 -37.5t-41 -132.5q-92 -7 -156 26q-43 22 -43 62zM143 817 q0 21 7 49q65 217 288 217q122 0 238 -82q120 -88 174 -88q45 0 72.5 38.5t40.5 135.5l145 -30q61 -10 55 -62q-16 -120 -91 -193t-206 -73q-121 0 -237 82q-120 88 -174 88q-44 0 -72 -37.5t-41 -132.5q-90 -7 -156 27q-43 22 -43 61z" />
<glyph unicode="&#x2260;" horiz-adv-x="1306" d="M164 424q0 63 16 119h309l142 274h-416q-27 0 -39 15.5t-12 50.5q0 62 16 118h547l133 259h107q37 0 50 -15t-1 -41l-105 -203h181q27 0 39 -15t12 -50v-119h-328l-141 -274h418q27 0 39 -15.5t12 -50.5v-119h-563l-134 -258h-106q-37 0 -50 15t1 41l104 202h-180 q-27 0 -39 15.5t-12 50.5z" />
<glyph unicode="&#x2264;" horiz-adv-x="1306" d="M164 66q0 62 16 118h912q27 0 39 -15t12 -50v-119h-928q-27 0 -39 15.5t-12 50.5zM164 791v157l872 385q38 19 62 1t24 -74q0 -51 -10 -119l-694 -299l661 -287q43 -16 43 -72v-168l-915 404q-43 16 -43 72z" />
<glyph unicode="&#x2265;" horiz-adv-x="1306" d="M164 0v119q0 35 12 50t39 15h911q17 -60 17 -118q0 -35 -12 -50.5t-39 -15.5h-928zM184 315v168q0 56 43 72l662 287l-694 299q-11 75 -11 119q0 56 24 74t62 -1l873 -385v-157q0 -56 -43 -72z" />
<glyph unicode="&#x25ca;" horiz-adv-x="1064" d="M82 723l367 707q53 22 118 22q39 0 54 -31l362 -698l-356 -686q-16 -37 -72 -37h-98zM299 723l233 -451l234 451l-234 451z" />
<glyph unicode="&#x25fc;" horiz-adv-x="1105" d="M0 0v1106h1106v-1106h-1106z" />
</font>
</defs>
</svg>
