<?xml version="1.0" standalone="no"?>
<!DOCTYPE svg PUBLIC "-//W3C//DTD SVG 1.1//EN" "http://www.w3.org/Graphics/SVG/1.1/DTD/svg11.dtd" >
<svg xmlns="http://www.w3.org/2000/svg">
<metadata></metadata>
<defs>
<font id="core_rhino_85_blackregular" horiz-adv-x="1454" >
<font-face units-per-em="2048" ascent="1638" descent="-410" />
<missing-glyph horiz-adv-x="614" />
<glyph unicode="&#xfb01;" horiz-adv-x="1488" d="M49 893q0 111 23 201h157v82q0 169 82 256.5t246 87.5q107 0 200 -50.5t93 -97.5q0 -29 -13.5 -69.5t-35.5 -71.5q-49 12 -103 12q-44 0 -68 -23t-24 -61v-65h641q64 0 64 -78v-664q0 -80 61 -80h55q21 -68 21 -122q0 -62 -65.5 -113t-163.5 -51q-121 0 -203 75t-82 226 v520h-328v-807h-299q-78 0 -78 63v744h-104q-76 0 -76 86zM922 1378q0 82 54.5 127t143.5 45q83 0 143 -48t60 -130t-55 -127t-144 -45q-83 0 -142.5 48t-59.5 130z" />
<glyph unicode="&#xfb02;" horiz-adv-x="1634" d="M49 893q0 111 23 201h157v53q0 182 94.5 277.5t286.5 95.5q98 0 193 -25t162 -65v49q123 30 276 30q100 0 100 -82v-1003q0 -143 111 -143q67 0 119 22q20 -28 33.5 -73.5t13.5 -88.5q0 -55 -84.5 -105t-206.5 -50q-170 0 -266 111t-96 321v796q-88 29 -201 29 q-82 0 -120 -30.5t-38 -92.5v-26h199q63 0 63 -78v-209h-262v-807h-299q-78 0 -78 63v744h-104q-76 0 -76 86z" />
<glyph horiz-adv-x="682" />
<glyph horiz-adv-x="0" />
<glyph horiz-adv-x="0" />
<glyph unicode="&#xd;" horiz-adv-x="485" />
<glyph unicode=" "  horiz-adv-x="614" />
<glyph unicode="&#x09;" horiz-adv-x="614" />
<glyph unicode="&#xa0;" horiz-adv-x="614" />
<glyph unicode="!" horiz-adv-x="679" d="M139 154q0 82 55 127t144 45q83 0 143 -48.5t60 -130.5t-55 -127t-144 -45q-83 0 -143 48.5t-60 130.5zM141 1202v219q143 33 293 33q105 0 105 -84v-168q0 -364 -58 -788h-213q-38 0 -55.5 15.5t-22.5 47.5q-49 346 -49 725z" />
<glyph unicode="&#x22;" horiz-adv-x="1202" d="M164 1413q133 35 276 35q55 0 80.5 -21t22.5 -63l-33 -551h-244q-75 0 -78 64zM657 1413q133 35 277 35q55 0 80 -21t22 -63l-32 -551h-244q-75 0 -78 64z" />
<glyph unicode="#" horiz-adv-x="1499" d="M74 418q0 87 20 192h223l37 213h-129q-75 0 -75 86q0 88 20 193h231l56 323q112 23 221 23q46 0 66 -18t14 -56l-47 -272h207l55 323q112 23 221 23q46 0 66 -18t14 -56l-47 -272h135q63 0 63 -78v-201h-245l-37 -213h143q64 0 64 -78v-200h-254l-56 -332h-225 q-40 0 -59 15.5t-15 45.5l45 271h-206l-56 -332h-225q-40 0 -59 15.5t-15 45.5l45 271h-120q-76 0 -76 86zM627 610h207l36 213h-206z" />
<glyph unicode="$" horiz-adv-x="1259" d="M98 1024q0 152 97.5 266t265.5 152v192q106 29 205 29q51 0 74.5 -18t23.5 -56v-145q124 -24 215 -83t143 -140q23 -39 23 -80q0 -63 -70 -99q-112 -54 -264 -65q-23 79 -70.5 120.5t-111.5 41.5q-60 0 -96.5 -31.5t-36.5 -81.5q0 -53 53 -92t186 -80 q227 -69 330.5 -174.5t103.5 -271.5q0 -159 -95 -270.5t-275 -145.5v-221h-226q-77 0 -77 63v152q-150 23 -249.5 86t-99.5 127q0 42 18.5 92.5t43.5 83.5q77 -38 178.5 -59t198.5 -21t141.5 23t44.5 71q0 87 -176 135q-250 70 -374 193t-124 307z" />
<glyph unicode="%" horiz-adv-x="1896" d="M82 1065q0 174 109 279.5t270 105.5t270 -105.5t109 -279.5t-109 -279.5t-270 -105.5t-270 105.5t-109 279.5zM373 1071q0 -74 26 -112.5t68 -38.5q36 0 59 36t23 103q0 74 -26 112.5t-68 38.5q-36 0 -59 -36t-23 -103zM545 61l575 1373h178q39 0 52 -17t2 -45 l-576 -1372h-178q-77 0 -53 61zM1057 369q0 174 109 279.5t270 105.5t270 -105.5t109 -279.5t-109 -279.5t-270 -105.5t-270 105.5t-109 279.5zM1348 375q0 -74 26 -113t68 -39q36 0 59 36t23 103q0 74 -26 113t-68 39q-36 0 -59 -36t-23 -103z" />
<glyph unicode="&#x26;" horiz-adv-x="1585" d="M82 367q0 118 71.5 208.5t204.5 143.5q-133 191 -133 346q0 175 126.5 284t332.5 109q187 0 306.5 -102t119.5 -258q0 -116 -85 -215t-216 -150q109 -112 258 -231q119 153 182 385q93 -4 148 -45q37 -27 37 -105q0 -72 -37 -181t-107 -214l19 -12q65 -43 178 -43h39 q26 -70 26 -156q0 -58 -68 -107t-167 -49q-132 0 -287 111q-187 -111 -414 -111q-146 0 -266.5 46.5t-194 137t-73.5 208.5zM459 426q0 -68 56 -110t149 -42q54 0 110 15q-157 126 -270 256q-45 -54 -45 -119zM590 1087q0 -46 15.5 -86t56.5 -98q51 40 77.5 92t26.5 95 q0 44 -25.5 72t-62.5 28t-62.5 -27.5t-25.5 -75.5z" />
<glyph unicode="'" horiz-adv-x="675" d="M147 1413q133 35 277 35q55 0 80 -21t22 -63l-32 -551h-244q-75 0 -78 64z" />
<glyph unicode="(" horiz-adv-x="806" d="M164 635q0 241 72.5 463t201.5 379q31 37 57 52t60 15q94 0 170 -141q-93 -173 -147 -377.5t-54 -390.5t54 -390.5t147 -377.5q-76 -141 -170 -141q-34 0 -60 15t-57 52q-129 157 -201.5 379t-72.5 463z" />
<glyph unicode=")" horiz-adv-x="806" d="M82 -133q93 173 147 377.5t54 390.5t-54 390.5t-147 377.5q76 141 170 141q34 0 60 -15t57 -52q129 -157 201.5 -379t72.5 -463t-72.5 -463t-201.5 -379q-31 -37 -57 -52t-60 -15q-94 0 -170 141z" />
<glyph unicode="*" horiz-adv-x="1206" d="M98 655q4 120 43 240q17 54 40.5 70t56.5 0l264 -162l-76 338q100 35 240 35q57 0 79 -17t19 -53l-72 -299l297 174q62 -83 107 -217q18 -56 8.5 -81.5t-45.5 -33.5l-303 -24l256 -228q-66 -88 -174 -168q-48 -34 -75 -33.5t-46 33.5l-117 281l-137 -315 q-109 38 -215 114q-46 33 -54.5 60.5t17.5 54.5l229 197z" />
<glyph unicode="+" horiz-adv-x="1282" d="M131 623q0 99 27 194h309v344q110 35 246 35q55 0 78.5 -19.5t23.5 -62.5v-297h258q78 0 78 -63v-211h-336v-379h-270q-78 0 -78 63v316h-260q-76 0 -76 80z" />
<glyph unicode="," horiz-adv-x="696" d="M156 180q0 86 52.5 137.5t133.5 51.5q79 0 139 -57t60 -148q0 -192 -121 -334q-55 -64 -115 -97t-84 -22q-45 22 -59 82q46 41 80.5 94t44.5 101q-58 20 -94.5 70.5t-36.5 121.5z" />
<glyph unicode="-" horiz-adv-x="905" d="M139 616q0 112 27 207h522q78 0 78 -63v-223h-551q-76 0 -76 79z" />
<glyph unicode="." horiz-adv-x="696" d="M156 180q0 86 52.5 137.5t133.5 51.5q79 0 139 -57t60 -148q0 -86 -53 -137.5t-134 -51.5q-79 0 -138.5 57t-59.5 148z" />
<glyph unicode="/" horiz-adv-x="1169" d="M-2.5 -203q-14.5 22 4.5 60l838 1685h270q47 0 61.5 -22t-4.5 -60l-837 -1685h-271q-47 0 -61.5 22z" />
<glyph unicode="0" horiz-adv-x="1392" d="M98 717q0 353 160 547t438 194t438 -194t160 -547t-160 -547.5t-438 -194.5t-438 194.5t-160 547.5zM492 729q0 -222 52.5 -330t160.5 -108q96 0 146 95.5t50 318.5q0 222 -52.5 330t-160.5 108q-96 0 -146 -95.5t-50 -318.5z" />
<glyph unicode="1" horiz-adv-x="1392" d="M217 1104q0 25 14 43.5t48 38.5l417 248h244q64 0 64 -78v-1356h-320q-78 0 -78 63v938l-200 -122q-102 71 -160 151q-29 44 -29 74z" />
<glyph unicode="2" horiz-adv-x="1392" d="M152 1087q0 43 20 87q65 128 196.5 206t311.5 78q250 0 394.5 -138t144.5 -370q0 -166 -98.5 -334t-272.5 -297h317q64 0 64 -77v-242h-875q-47 0 -74.5 14t-46.5 47q-40 68 -53 164q125 65 234.5 142.5t203 170t148.5 199t55 211.5q0 86 -37.5 129t-105.5 43t-115.5 -47 t-77.5 -149q-152 11 -264 65q-69 35 -69 98z" />
<glyph unicode="3" horiz-adv-x="1392" d="M145 211q0 42 18.5 92.5t43.5 83.5q189 -92 393 -92q229 0 229 149q0 63 -60 102t-173 46q-49 3 -76 15.5t-45 45.5q-41 70 -53 183l252 278h-426q-76 0 -76 86q0 102 25 234h813q46 0 73.5 -14.5t46.5 -47.5q41 -70 54 -164l-344 -368q182 -39 284.5 -143.5 t102.5 -264.5q0 -93 -39 -176t-109.5 -145.5t-178 -99t-236.5 -36.5q-138 0 -261 39t-190.5 93t-67.5 104z" />
<glyph unicode="4" horiz-adv-x="1392" d="M94 463q70 252 243.5 508.5t383.5 421.5q133 55 326 55q53 0 75.5 -18t22.5 -54v-821h110q64 0 64 -78v-239h-174v-238h-320q-77 0 -77 63v175h-480q-47 0 -74.5 14t-46.5 47q-40 68 -53 164zM500 555h248v418q-68 -77 -139.5 -196t-108.5 -222z" />
<glyph unicode="5" horiz-adv-x="1392" d="M145 211q0 42 18.5 92.5t43.5 83.5q189 -92 395 -92q107 0 170.5 41.5t63.5 130.5t-63.5 130.5t-170.5 41.5q-104 0 -192 -18q-35 -7 -56 -7q-50 0 -88 35l-57 51l94 734h817q64 0 64 -78v-242h-539l-24 -178q61 14 129 14q98 0 184.5 -29.5t153.5 -86.5t106 -148.5 t39 -206.5q0 -227 -149.5 -365.5t-417.5 -138.5q-138 0 -261.5 39t-191.5 93t-68 104z" />
<glyph unicode="6" horiz-adv-x="1392" d="M113 680v33q0 350 170 547.5t467 197.5q151 0 272.5 -55.5t185.5 -149.5q29 -48 29 -84q0 -61 -63 -98q-113 -64 -259 -78q-20 69 -65 106.5t-102 37.5q-91 0 -153.5 -74t-78.5 -227q47 41 120 63.5t152 22.5q139 0 255 -60.5t183.5 -168.5t67.5 -240 q0 -215 -146.5 -346.5t-399.5 -131.5q-289 0 -462 190.5t-173 514.5zM514 575q15 -131 79 -205.5t155 -74.5q63 0 106 41t43 110q0 82 -55 130.5t-146 48.5q-108 0 -182 -50z" />
<glyph unicode="7" horiz-adv-x="1392" d="M145 1200q0 102 25 234h909q46 0 74 -14.5t47 -47.5q40 -68 53 -164q-347 -599 -489 -1208h-301q-125 0 -90 104q62 251 174.5 518t247.5 492h-574q-76 0 -76 86z" />
<glyph unicode="8" horiz-adv-x="1392" d="M104 389q0 107 66 195t174 133q-86 52 -136 137t-50 184q0 86 35.5 161.5t101 133.5t166 91.5t223.5 33.5q240 0 387.5 -116.5t147.5 -280.5q0 -92 -49.5 -167t-127.5 -112q116 -57 181 -151t65 -215q0 -93 -39 -173t-111.5 -140t-185.5 -94t-252 -34q-266 0 -431 115 t-165 299zM502 410q0 -60 57 -98t146 -38q87 0 136.5 34t49.5 85q0 55 -60 97.5t-219 93.5q-110 -70 -110 -174zM555 1055q0 -48 41 -83t152 -73q73 59 73 143q0 55 -38 86t-101 31q-56 0 -91.5 -28.5t-35.5 -75.5z" />
<glyph unicode="9" horiz-adv-x="1392" d="M113 981q0 215 146.5 346t399.5 131q289 0 462 -190t173 -514v-54q0 -342 -174 -533.5t-463 -191.5q-119 0 -227.5 36.5t-169.5 89.5t-61 102q0 42 18 92.5t43 83.5q147 -84 332 -84q142 0 222 82t83 225q-103 -90 -279 -90q-212 0 -358.5 134t-146.5 335zM510 987 q0 -81 55 -129.5t146 -48.5q112 0 180 47q-17 138 -78.5 210.5t-153.5 72.5q-63 0 -106 -41.5t-43 -110.5z" />
<glyph unicode=":" horiz-adv-x="696" d="M156 180q0 86 52.5 137.5t133.5 51.5q79 0 139 -57t60 -148q0 -86 -53 -137.5t-134 -51.5q-79 0 -138.5 57t-59.5 148zM156 930q0 86 52.5 137t133.5 51q79 0 139 -57t60 -148q0 -86 -53 -137t-134 -51q-79 0 -138.5 57t-59.5 148z" />
<glyph unicode=";" horiz-adv-x="696" d="M156 180q0 -71 36.5 -121.5t94.5 -70.5q-17 -107 -105 -195q13 -55 62 -82q22 -12 72.5 20t101.5 95q120 149 123 338q0 91 -60 148t-139 57q-81 0 -133.5 -51.5t-52.5 -137.5zM156 930q0 86 52.5 137t133.5 51q79 0 139 -57t60 -148q0 -86 -53 -137t-134 -51 q-79 0 -138.5 57t-59.5 148z" />
<glyph unicode="&#x3c;" horiz-adv-x="1282" d="M131 598v199l909 397q47 23 79 3.5t32 -85.5q0 -109 -25 -215l-544 -233l497 -213q42 -19 57 -39.5t15 -59.5v-266l-948 414q-39 18 -55.5 39.5t-16.5 58.5z" />
<glyph unicode="=" horiz-adv-x="1282" d="M131 377q0 99 27 194h915q78 0 78 -63v-211h-944q-76 0 -76 80zM131 868q0 101 27 195h915q78 0 78 -64v-211h-944q-76 0 -76 80z" />
<glyph unicode="&#x3e;" horiz-adv-x="1282" d="M131 86v266q0 39 15 59.5t57 39.5l497 213l-544 233q-25 106 -25 215q0 66 32 85.5t79 -3.5l909 -397v-199q0 -37 -16.5 -58.5t-55.5 -39.5z" />
<glyph unicode="?" horiz-adv-x="1183" d="M82 1102q0 42 20 86q55 119 185.5 194.5t304.5 75.5q221 0 357 -118.5t136 -309.5q0 -128 -64.5 -227.5t-189.5 -192.5q-45 -34 -62 -65t-17 -80v-51h-320q-78 0 -78 63v39q0 100 52 177t159 153q66 47 94.5 89.5t28.5 92.5q0 51 -31 81t-82 30q-60 0 -102 -51t-57 -150 q-66 5 -138.5 22.5t-125.5 43.5q-70 36 -70 98zM352 154q0 82 55 127t144 45q83 0 143 -48.5t60 -130.5t-55 -127t-144 -45q-83 0 -143 48.5t-60 130.5z" />
<glyph unicode="@" horiz-adv-x="2088" d="M143 563q0 189 70.5 356t190.5 285t286 186t352 68q260 0 466.5 -108t322 -301t115.5 -437q0 -149 -45 -263.5t-142 -183.5t-235 -69q-117 0 -209.5 48.5t-138.5 125.5q-92 -164 -297 -164q-144 0 -240 110.5t-96 270.5q0 127 44.5 230.5t121 169t175 100.5t208.5 35 q147 0 263.5 -65.5t182.5 -172.5l-61 -317q-12 -64 21 -102.5t91 -38.5q80 0 131.5 72t51.5 214q0 146 -52.5 273t-146.5 219.5t-231 145.5t-300 53q-148 0 -281 -55.5t-230.5 -152.5t-154.5 -235t-57 -295q0 -159 56 -296.5t155 -235t239.5 -153.5t303.5 -56q279 0 467 139 q39 -27 47 -72q3 -16 -16.5 -42.5t-64 -58t-104.5 -58.5t-150.5 -45.5t-190.5 -18.5q-196 0 -367 69t-292 188t-190 284.5t-69 353.5zM889 492q0 -70 29 -108t83 -38q75 0 127 84l64 307q-33 29 -98 29q-76 0 -140.5 -78t-64.5 -196z" />
<glyph unicode="A" d="M45 72l477 1321q129 55 269 55q71 0 104 -22.5t55 -84.5l486 -1341h-340q-42 0 -64 13.5t-31 43.5l-53 170h-442l-68 -227h-332q-37 0 -54 20q-11 13 -11 30q0 10 4 22zM596 526h262l-131 428z" />
<glyph unicode="B" horiz-adv-x="1378" d="M143 500v934h564q257 0 394.5 -105.5t137.5 -284.5q0 -102 -52 -185t-138 -120q108 -39 172.5 -124t64.5 -212q0 -181 -139 -292t-406 -111h-135q-240 0 -351.5 122t-111.5 378zM541 862h157q71 0 107.5 38.5t36.5 98.5t-36.5 99t-107.5 39h-157v-275zM543 506 q0 -115 36 -161t117 -46h37q74 0 115 38t41 103q0 64 -41 102t-115 38h-190v-74z" />
<glyph unicode="C" d="M90 752q0 209 89.5 370t248 248.5t358.5 87.5q204 0 353.5 -78t226.5 -209q23 -42 23 -79q0 -57 -70 -99q-114 -65 -270 -75q-78 221 -269 221q-133 0 -213 -100.5t-80 -280.5q0 -204 123.5 -333.5t331.5 -129.5q94 0 184.5 20t153.5 56q24 -31 42.5 -83.5t18.5 -88.5 t-40 -75.5t-105 -72.5t-156.5 -54.5t-185.5 -21.5q-162 0 -303 57t-242.5 158t-160 246.5t-58.5 315.5z" />
<glyph unicode="D" horiz-adv-x="1505" d="M143 500v934h574q151 0 279 -50t221 -141.5t145.5 -226.5t52.5 -299q0 -218 -91.5 -381.5t-253.5 -249.5t-374 -86h-90q-240 0 -351.5 122t-111.5 378zM541 526q0 -115 36 -161t117 -46h15q147 0 228 99.5t81 298.5t-81 298t-228 99h-168v-588z" />
<glyph unicode="E" horiz-adv-x="1210" d="M143 500v934h885q76 0 76 -86q0 -102 -25 -234h-538v-240h389q63 0 63 -77v-242h-452v-29q0 -118 29 -162.5t108 -44.5h379q63 0 63 -77v-242h-514q-240 0 -351.5 122t-111.5 378z" />
<glyph unicode="F" horiz-adv-x="1163" d="M147 63v1371h883q76 0 76 -86q0 -102 -25 -234h-536v-309h387q63 0 63 -78v-242h-450v-485h-320q-78 0 -78 63z" />
<glyph unicode="G" horiz-adv-x="1566" d="M90 752q0 211 91.5 372t254 247.5t371.5 86.5q200 0 354.5 -80t233.5 -204q22 -35 22 -76q0 -53 -69 -94q-116 -66 -271 -76q-92 211 -282 211q-138 0 -223 -99t-85 -282q0 -206 113.5 -334.5t269.5 -128.5q94 0 135.5 32.5t41.5 108.5v76h-183q-37 0 -58.5 24t-21.5 66 q0 91 25 189h496q71 0 105 -30.5t34 -98.5v-244q0 -90 -38 -169t-111 -140.5t-189 -97.5t-262 -36q-155 0 -293 56t-240 155.5t-161.5 246t-59.5 319.5z" />
<glyph unicode="H" horiz-adv-x="1492" d="M147 63v1358q143 33 293 33q105 0 105 -84v-491h403v555h320q78 0 78 -64v-1370h-320q-78 0 -78 63v496h-403v-559h-320q-78 0 -78 63z" />
<glyph unicode="I" horiz-adv-x="708" d="M156 63v1358q143 33 293 33q104 0 104 -84v-1370h-320q-77 0 -77 63z" />
<glyph unicode="J" horiz-adv-x="1003" d="M25 154q0 98 53 178q105 -37 203 -37q186 0 186 211v915q143 33 293 33q104 0 104 -84v-881q0 -252 -114.5 -383t-341.5 -131q-149 0 -266 55.5t-117 123.5z" />
<glyph unicode="K" horiz-adv-x="1435" d="M147 63v1358q143 33 293 33q105 0 105 -84v-487q137 108 267 255t235 320q163 -47 225.5 -97t62.5 -116q0 -37 -32 -90q-122 -196 -334 -383q60 -134 129.5 -246t130.5 -178q55 -61 131 -61h29q26 -70 26 -156q0 -57 -72.5 -106.5t-166.5 -49.5q-106 0 -180.5 48.5 t-141.5 144.5q-102 141 -190 373q-36 -24 -119 -74v-467h-320q-78 0 -78 63z" />
<glyph unicode="L" horiz-adv-x="1171" d="M143 500v921q143 33 293 33q105 0 105 -84v-844q0 -118 29 -162.5t108 -44.5h385q63 0 63 -77v-242h-520q-240 0 -351.5 122t-111.5 378z" />
<glyph unicode="M" horiz-adv-x="1865" d="M109 68l139 1296q67 39 145 64.5t131 25.5q40 0 62.5 -15t42.5 -53l301 -593l325 641h277q72 0 78 -58l149 -1376h-327q-80 0 -86 68l-68 788l-197 -397q-25 -49 -102 -49h-174l-223 446l-74 -856h-322q-77 0 -77 59v9z" />
<glyph unicode="N" horiz-adv-x="1482" d="M147 63v1278q63 46 144.5 79.5t128.5 33.5q39 0 63 -13t43 -44l412 -723v760h319q78 0 78 -64v-1278q-63 -46 -144 -79t-128 -33q-40 0 -64 13t-43 44l-411 723v-760h-320q-78 0 -78 63z" />
<glyph unicode="O" horiz-adv-x="1626" d="M90 717q0 171 56 312t153.5 234t229.5 144t284 51t284 -51t229.5 -144t153.5 -234t56 -312t-56 -312t-153.5 -234.5t-229.5 -144.5t-284 -51t-284 51t-229.5 144.5t-153.5 234.5t-56 312zM487 733q0 -197 97 -317.5t239 -120.5q140 0 228 102.5t88 302.5q0 197 -97 318 t-239 121q-140 0 -228 -103t-88 -303z" />
<glyph unicode="P" horiz-adv-x="1345" d="M147 63v1371h523q281 0 441.5 -144.5t160.5 -400.5q0 -240 -157.5 -383.5t-403.5 -143.5q-76 0 -166 23v-385h-320q-78 0 -78 63zM545 692q52 -10 104 -10q104 0 164.5 55t60.5 160q0 107 -58 162t-161 55h-110v-422z" />
<glyph unicode="Q" horiz-adv-x="1626" d="M90 717q0 171 56 312t153.5 234t229.5 144t284 51t284 -51t229.5 -144t153.5 -234t56 -312q0 -211 -82 -371.5t-227 -255.5q50 -64 100 -91.5t109 -27.5h65q27 -62 27 -147q0 -51 -63 -91t-146 -40q-114 0 -208.5 77.5t-137.5 219.5q-70 -15 -160 -15q-152 0 -284 51 t-229.5 144.5t-153.5 234.5t-56 312zM487 733q0 -197 97 -317.5t239 -120.5q140 0 228 102.5t88 302.5q0 197 -97 318t-239 121q-140 0 -228 -103t-88 -303z" />
<glyph unicode="R" horiz-adv-x="1359" d="M147 63v1371h488q279 0 439.5 -138.5t160.5 -380.5q0 -138 -63.5 -247t-172.5 -176q49 -99 107 -154q54 -51 129 -51h37q26 -70 26 -152q0 -59 -67 -109.5t-162 -50.5q-86 0 -149.5 34t-126.5 110q-43 53 -84.5 132.5t-61.5 149.5q-69 8 -102 21v-422h-320q-78 0 -78 63z M545 729q27 -8 76 -8q97 0 153.5 49.5t56.5 144.5q0 97 -57 148t-160 51h-69v-385z" />
<glyph unicode="S" horiz-adv-x="1255" d="M98 1014q0 194 142 319t376 125q181 0 310.5 -66t195.5 -171q23 -39 23 -80q0 -63 -70 -99q-112 -54 -264 -65q-23 79 -70.5 120.5t-111.5 41.5q-60 0 -96.5 -31.5t-36.5 -81.5q0 -53 53 -92t186 -80q227 -69 330.5 -174.5t103.5 -271.5q0 -194 -137.5 -313.5 t-394.5 -119.5q-136 0 -251.5 36t-177 87t-61.5 101q0 42 18.5 92.5t43.5 83.5q77 -38 178.5 -59t198.5 -21t141.5 23t44.5 71q0 47 -52.5 80.5t-203.5 79.5q-213 66 -315.5 179.5t-102.5 285.5z" />
<glyph unicode="T" horiz-adv-x="1310" d="M66 1200q0 107 24 234h1092q63 0 63 -78v-242h-391v-1114h-319q-78 0 -78 63v1051h-316q-75 0 -75 86z" />
<glyph unicode="U" horiz-adv-x="1490" d="M139 594v827q143 33 293 33q105 0 105 -84v-805q0 -132 56 -201t152 -69q98 0 153.5 69t55.5 201v869h320q78 0 78 -64v-776q0 -289 -163.5 -454t-443.5 -165q-279 0 -442.5 165.5t-163.5 453.5z" />
<glyph unicode="V" horiz-adv-x="1505" d="M66 1337q71 50 155.5 83.5t140.5 33.5q46 0 71 -17.5t38 -60.5l289 -927q81 193 152 456t116 529h320q48 0 68 -20q15 -15 15 -39q0 -7 -1 -15q-60 -300 -187 -660.5t-262 -625.5q-22 -42 -53.5 -58t-100.5 -16h-288z" />
<glyph unicode="W" horiz-adv-x="2318" d="M74 1337q71 50 155.5 83.5t141.5 33.5q46 0 71 -18t37 -60l248 -927q70 176 137 453t105 532h248q75 0 109.5 -21t47.5 -67l232 -897q70 184 138 458t109 527h232q87 0 124 -34q27 -25 27 -68q0 -16 -4 -34q-60 -285 -171.5 -614.5t-245.5 -609.5q-20 -42 -54 -58 t-104 -16h-244l-239 936q-37 -183 -111.5 -421.5t-155.5 -440.5q-17 -41 -52 -57.5t-105 -16.5h-244z" />
<glyph unicode="X" horiz-adv-x="1462" d="M88 104q58 171 162.5 335t255.5 292l-404 522q61 78 136.5 139.5t144.5 61.5q41 0 78 -49l293 -381q139 192 194 410h305q63 0 85 -28q12 -16 13 -38q0 -18 -8 -39q-119 -338 -380 -571l448 -578q-61 -78 -136.5 -139t-144.5 -61q-40 0 -77 49l-342 438 q-159 -197 -228 -467h-305q-98 0 -98 63q0 18 8 41z" />
<glyph unicode="Y" horiz-adv-x="1390" d="M47 1278q60 70 141 123t146 53q56 0 86 -59l278 -555q83 125 157 291t106 303h284q96 0 96 -67q0 -17 -6 -38q-54 -191 -178.5 -418t-273.5 -415v-496h-320q-78 0 -78 63v431z" />
<glyph unicode="Z" horiz-adv-x="1300" d="M90 225l567 889h-452q-76 0 -76 86q0 102 25 234h880q46 0 74 -14.5t47 -47.5q40 -68 53 -164l-567 -889h514q64 0 64 -77v-242h-955q-47 0 -74.5 14t-46.5 47q-40 68 -53 164z" />
<glyph unicode="[" horiz-adv-x="915" d="M197 203v1333h602q75 0 75 -86q0 -88 -24 -201h-297v-1042q0 -111 24.5 -149t92.5 -38h133q63 0 63 -77v-209h-262q-215 0 -311 108.5t-96 360.5z" />
<glyph unicode="\" horiz-adv-x="1169" d="M-2.5 1520q14.5 22 61.5 22h271l837 -1685q19 -38 4.5 -60t-61.5 -22h-270l-838 1685q-19 38 -4.5 60z" />
<glyph unicode="]" horiz-adv-x="915" d="M41 1450q0 86 76 86h524q78 0 78 -63v-1270q0 -252 -96 -360.5t-312 -108.5h-262v209q0 77 64 77h133q68 0 92 38t24 149v1042h-296q-25 118 -25 201z" />
<glyph unicode="^" horiz-adv-x="1261" d="M123 834q0 24 31 77l323 523h205q50 0 75 -13t44 -43l340 -561l-156 -104q-49 -35 -90 -35q-58 0 -100 76l-174 321l-211 -383q-64 0 -131 18t-109 46q-29 19 -38 36t-9 42z" />
<glyph unicode="_" horiz-adv-x="1024" d="M0 -328q0 93 23 178h923q78 0 78 -63v-195h-948q-76 0 -76 80z" />
<glyph unicode="`" horiz-adv-x="860" d="M186 1356q49 105 121 166q37 30 76 30q30 0 68 -41l223 -237l-103 -111q-26 -26 -51 -26q-26 0 -65 26z" />
<glyph unicode="a" horiz-adv-x="1232" d="M74 336q0 161 116 255.5t304 94.5q132 0 200 -33v60q0 143 -205 143q-153 0 -292 -68q-41 61 -41 134q0 43 59.5 88.5t164 76.5t218.5 31q236 0 356.5 -113.5t120.5 -334.5v-318q0 -80 62 -80h55q20 -65 20 -122q0 -62 -65.5 -113t-163.5 -51q-73 0 -137 34.5t-103 100.5 q-95 -146 -286 -146q-171 0 -277 103t-106 258zM451 348q0 -52 30.5 -81t75.5 -29q47 0 85 28.5t56 85.5v113q-43 14 -110 14q-63 0 -100 -36.5t-37 -94.5z" />
<glyph unicode="b" horiz-adv-x="1329" d="M123 504v975q123 30 276 30q101 0 101 -82v-446q124 137 299 137q194 0 321 -144.5t127 -379.5q0 -282 -160.5 -450.5t-431.5 -168.5q-152 0 -272 61.5t-190 183t-70 284.5zM500 475q0 -102 44 -157.5t118 -55.5q85 0 146.5 93.5t61.5 230.5q0 245 -176 245 q-118 0 -194 -79v-277z" />
<glyph unicode="c" horiz-adv-x="1159" d="M82 578q0 114 38 213t108 171.5t175 114t232 41.5q154 0 272 -58.5t176 -152.5q23 -40 23 -76q0 -55 -76 -98q-86 -49 -242 -67q-20 87 -59 126t-100 39q-80 0 -125 -65t-45 -184q0 -144 88 -232t237 -88q143 0 242 62q21 -30 37 -76t16 -78q0 -27 -29 -60t-79 -63.5 t-128.5 -51t-166.5 -20.5q-122 0 -231 43.5t-189 120.5t-127 191t-47 248z" />
<glyph unicode="d" horiz-adv-x="1374" d="M82 500q0 142 42.5 261t113 195.5t160 119t186.5 42.5q156 0 245 -96v473h299q78 0 78 -63v-1080q0 -80 62 -80h55q20 -65 20 -122q0 -62 -65.5 -113t-163.5 -51q-84 0 -155 45t-105 131q-60 -96 -144.5 -141.5t-179.5 -45.5q-194 0 -321 144.5t-127 380.5zM459 508 q0 -246 176 -246q61 0 113 41.5t81 114.5v366q-53 47 -135 47q-103 0 -169 -91t-66 -232z" />
<glyph unicode="e" horiz-adv-x="1216" d="M82 543q0 168 76 300.5t207 203.5t292 71q224 0 355 -117t131 -303q0 -106 -45 -186q-24 -44 -63.5 -61t-112.5 -17h-455q21 -94 93 -143t181 -49q157 0 250 55q19 -29 34 -71t15 -72q0 -24 -27.5 -54.5t-75 -58.5t-123.5 -47t-161 -19q-252 0 -411.5 162t-159.5 406z M461 641h311q16 29 16 78q0 62 -34 97.5t-90 35.5q-85 0 -138.5 -56.5t-64.5 -154.5z" />
<glyph unicode="f" horiz-adv-x="960" d="M49 893q0 111 23 201h157v73q0 172 96.5 262.5t276.5 90.5q93 0 176 -26t128.5 -63t45.5 -71q0 -30 -15 -73.5t-38 -72.5q-68 29 -166 29q-127 0 -127 -104v-45h250q64 0 64 -78v-209h-314v-807h-299q-78 0 -78 63v744h-104q-76 0 -76 86z" />
<glyph unicode="g" horiz-adv-x="1337" d="M82 500q0 142 42.5 261t113 195.5t160 119t186.5 42.5q156 0 245 -96v72h299q78 0 78 -64v-1001q0 -108 -43 -204.5t-122.5 -170.5t-201 -117t-268.5 -43q-222 0 -338 83t-116 218q0 76 52 141.5t150 96.5q-110 61 -173.5 183.5t-63.5 283.5zM459 508q0 -246 176 -246 q61 0 113 41.5t81 114.5v366q-53 47 -135 47q-103 0 -169 -91t-66 -232zM489 -145q0 -40 28.5 -62t80.5 -22q104 0 167.5 66t63.5 179v111q-106 -137 -268 -150q-72 -47 -72 -122z" />
<glyph unicode="h" horiz-adv-x="1329" d="M131 63v1416q123 30 277 30q100 0 100 -82v-448q57 67 138 103t163 36q173 0 265.5 -113.5t92.5 -340.5v-312q0 -80 62 -80h55q21 -68 21 -122q0 -62 -66 -113t-164 -51q-121 0 -202.5 75t-81.5 226v389q0 79 -32 117t-100 38q-82 0 -151 -57v-774h-299q-78 0 -78 63z " />
<glyph unicode="i" horiz-adv-x="686" d="M119 1378q0 82 54.5 127t143.5 45q83 0 143 -48t60 -130t-54.5 -127t-143.5 -45q-83 0 -143 48t-60 130zM131 287v790q127 31 277 31q100 0 100 -82v-674q0 -80 61 -80h56q20 -65 20 -122q0 -62 -65.5 -113t-163.5 -51q-121 0 -203 75t-82 226z" />
<glyph unicode="j" horiz-adv-x="645" d="M-6 -279q147 156 147 396v960q127 31 277 31q100 0 100 -82v-907q0 -130 -38.5 -237t-97.5 -169.5t-122.5 -95.5t-120.5 -33q-43 0 -83.5 40t-61.5 97zM129 1378q0 82 55 127t144 45q83 0 142.5 -48t59.5 -130t-54.5 -127t-143.5 -45q-83 0 -143 48t-60 130z" />
<glyph unicode="k" horiz-adv-x="1259" d="M131 63v1416q123 30 277 30q100 0 100 -82v-692q99 66 206 177.5t167 215.5q154 -47 210 -92t56 -106q0 -41 -27 -80q-87 -127 -239 -244q78 -166 141 -254q31 -45 58 -63.5t63 -18.5h51q25 -67 25 -123q0 -58 -69 -109.5t-163 -51.5q-162 0 -262 164q-58 98 -129 270 q-62 -34 -88 -45v-375h-299q-78 0 -78 63z" />
<glyph unicode="l" horiz-adv-x="792" d="M123 418v1061q123 30 276 30q101 0 101 -82v-1003q0 -75 27.5 -109t82.5 -34q67 0 119 22q20 -28 33.5 -73.5t13.5 -88.5q0 -55 -84.5 -105t-206.5 -50q-170 0 -266 111t-96 321z" />
<glyph unicode="m" horiz-adv-x="1890" d="M131 63v1014q127 31 277 31q100 0 100 -82v-43q52 67 124 101t150 34q185 0 273 -145q135 145 317 145q166 0 261.5 -104t95.5 -318v-344q0 -80 61 -80h55q21 -68 21 -122q0 -62 -66 -113t-164 -51q-121 0 -202.5 75t-81.5 226v440q0 104 -99 104q-73 0 -139 -57 q4 -50 4 -78v-696h-299q-78 0 -78 63v664q0 104 -98 104q-71 0 -135 -55v-776h-299q-78 0 -78 63z" />
<glyph unicode="n" horiz-adv-x="1329" d="M131 63v1014q127 31 277 31q100 0 100 -82v-47q57 67 138 103t163 36q173 0 265.5 -113.5t92.5 -340.5v-312q0 -80 62 -80h55q21 -68 21 -122q0 -62 -66 -113t-164 -51q-121 0 -202.5 75t-81.5 226v389q0 79 -32 117t-100 38q-82 0 -151 -57v-774h-299q-78 0 -78 63z" />
<glyph unicode="o" horiz-adv-x="1318" d="M82 547q0 133 47.5 242.5t127.5 180.5t183.5 109.5t218.5 38.5t218.5 -38.5t184 -109.5t128 -180.5t47.5 -242.5q0 -107 -31 -199.5t-85.5 -160t-127 -116t-158 -72.5t-176.5 -24q-114 0 -218 38.5t-184 109.5t-127.5 181t-47.5 243zM459 557q0 -138 56 -216.5t153 -78.5 q90 0 141 70.5t51 204.5q0 138 -56 216t-153 78q-90 0 -141 -70t-51 -204z" />
<glyph unicode="p" horiz-adv-x="1337" d="M131 -373v1450q127 31 277 31q100 0 100 -82v-65q112 157 299 157q194 0 321 -144.5t127 -379.5q0 -142 -42 -261t-112.5 -196t-160 -119.5t-186.5 -42.5q-156 0 -246 97v-508h-299q-78 0 -78 63zM508 309q53 -47 135 -47q103 0 169.5 91.5t66.5 232.5q0 245 -177 245 q-61 0 -113 -41t-81 -114v-367z" />
<glyph unicode="q" horiz-adv-x="1337" d="M82 500q0 142 42.5 261t113 195.5t160 119t186.5 42.5q156 0 245 -96v72h299q78 0 78 -64v-1466h-299q-78 0 -78 63v506q-112 -158 -299 -158q-194 0 -321 144.5t-127 380.5zM459 508q0 -246 176 -246q61 0 113 41.5t81 114.5v366q-53 47 -135 47q-103 0 -169 -91 t-66 -232z" />
<glyph unicode="r" horiz-adv-x="1024" d="M131 63v1014q127 31 277 31q100 0 100 -82v-80q45 77 122.5 124.5t176.5 47.5q87 0 144 -32t57 -80q0 -56 -46.5 -114t-113.5 -99q-51 38 -135 38q-79 0 -132.5 -53t-72.5 -147v-631h-299q-78 0 -78 63z" />
<glyph unicode="s" horiz-adv-x="1054" d="M98 780q0 149 116 243.5t306 94.5q142 0 253 -46t167 -128q25 -41 25 -70q0 -45 -50 -75q-84 -55 -215 -62q-38 115 -135 115q-43 0 -66.5 -20t-23.5 -50q0 -40 30.5 -66t104.5 -46q194 -51 280.5 -135t86.5 -218q0 -152 -116.5 -247t-328.5 -95q-102 0 -197 29 t-151.5 73t-56.5 89q0 35 15 78t38 75q65 -36 146 -56.5t153 -20.5q121 0 121 59q0 29 -20.5 47t-77.5 31q-193 44 -298.5 144t-105.5 257z" />
<glyph unicode="t" horiz-adv-x="985" d="M49 893q0 111 23 201h157v297q123 30 277 30q100 0 100 -82v-245h250q64 0 64 -78v-209h-314v-401q0 -77 30.5 -110.5t100.5 -33.5q79 0 140 23q19 -24 33 -64.5t14 -75.5q0 -61 -89.5 -115.5t-222.5 -54.5q-181 0 -282 111t-101 322v399h-104q-76 0 -76 86z" />
<glyph unicode="u" horiz-adv-x="1282" d="M119 471v606q127 31 276 31q101 0 101 -82v-567q0 -85 37.5 -132.5t107.5 -47.5q69 0 107 47.5t38 132.5v635h299q78 0 78 -64v-559q0 -227 -144.5 -360.5t-377.5 -133.5q-235 0 -378.5 133t-143.5 361z" />
<glyph unicode="v" horiz-adv-x="1249" d="M61 1006q64 46 143 76t128 30q51 0 74.5 -16.5t37.5 -59.5l193 -639q53 137 101 335t71 362h289q50 0 70 -20q15 -14 14 -36q0 -8 -2 -18q-55 -237 -148 -493t-194 -453q-22 -42 -53.5 -58t-100.5 -16h-254z" />
<glyph unicode="w" horiz-adv-x="1806" d="M70 1012q64 44 139 73t123 29q52 0 76.5 -19t35.5 -65l148 -620q93 308 131 684h229q71 0 105.5 -22t46.5 -71l135 -593q77 242 135 686h217q83 0 115 -33q25 -26 25 -69q0 -12 -2 -25q-32 -192 -105.5 -438t-165.5 -455q-19 -41 -53.5 -57.5t-104.5 -16.5h-231l-151 682 q-64 -384 -154 -608q-17 -41 -52 -57.5t-106 -16.5h-207z" />
<glyph unicode="x" horiz-adv-x="1208" d="M74 104q84 243 309 437l-291 387q135 178 252 178q31 0 49 -11t41 -40l195 -260q35 45 63.5 127.5t42.5 171.5h281q96 0 96 -67q0 -17 -6 -38q-31 -109 -110 -225.5t-183 -214.5l150 -201q33 -44 58.5 -60t68.5 -16h40q25 -63 25 -125q0 -60 -60.5 -110.5t-150.5 -50.5 q-77 0 -140.5 40.5t-127.5 127.5l-107 143q-80 -106 -127 -297h-278q-98 0 -98 63q0 18 8 41z" />
<glyph unicode="y" horiz-adv-x="1294" d="M127 430v637q127 31 276 31q101 0 101 -82v-598q0 -80 31 -118t98 -38q78 0 153 57v775h299q78 0 78 -64v-1005q0 -111 -35.5 -205.5t-106 -169t-186 -116.5t-264.5 -42q-197 0 -314.5 82.5t-117.5 210.5q0 77 45.5 141t124.5 99q-182 95 -182 405zM512 -145 q0 -40 25 -63t69 -23q84 0 132 64t48 183v99q-83 -100 -194 -127q-80 -58 -80 -133z" />
<glyph unicode="z" horiz-adv-x="1077" d="M82 215l430 592h-332q-76 0 -76 86q0 111 23 201h698q46 0 74 -14.5t47 -47.5q40 -69 53 -153l-421 -582h370q64 0 64 -78v-219h-756q-47 0 -74.5 14t-46.5 47q-40 69 -53 154z" />
<glyph unicode="{" horiz-adv-x="972" d="M98 563v215q120 0 168.5 50t48.5 155v90q0 245 126 354t372 109h51q76 0 76 -86q0 -83 -25 -201h-116q-127 0 -127 -170v-82q0 -278 -213 -362q213 -84 213 -363v-82q0 -170 127 -170h47q63 0 63 -77v-209h-137q-231 0 -344 96t-113 326v131q0 96 -37 142t-122 58 q-58 7 -58 76z" />
<glyph unicode="|" horiz-adv-x="702" d="M180 -346v1894q111 27 238 27q104 0 104 -84v-1901h-264q-78 0 -78 64z" />
<glyph unicode="}" horiz-adv-x="972" d="M33 1450q0 86 76 86h51q246 0 371.5 -109t125.5 -354v-90q0 -105 48.5 -155t168.5 -50v-215q0 -69 -57 -76q-85 -12 -122.5 -58t-37.5 -142v-131q0 -230 -112.5 -326t-343.5 -96h-138v209q0 77 64 77h47q127 0 127 170v82q0 279 213 363q-213 84 -213 362v82 q0 170 -127 170h-117q-24 113 -24 201z" />
<glyph unicode="~" horiz-adv-x="1282" d="M104 588q0 28 13 82q29 106 106 169.5t193 63.5q138 0 248 -84q70 -54 97.5 -70t55.5 -16q39 0 62 35.5t30 124.5l211 -43q33 -7 44.5 -21t11.5 -41q-3 -142 -87 -235.5t-225 -93.5q-138 0 -248 84q-70 54 -97.5 70t-55.5 16q-39 0 -62 -35.5t-30 -124.5 q-45 -6 -102.5 2.5t-96.5 24.5q-68 29 -68 92z" />
<glyph unicode="&#xa1;" horiz-adv-x="679" d="M139 946q0 82 55 127t144 45q83 0 143 -48t60 -130t-55 -127t-144 -45q-83 0 -143 48t-60 130zM141 -109q0 365 58 789h213q38 0 55 -15.5t22 -48.5q50 -353 50 -725v-219q-139 -32 -293 -32q-105 0 -105 84v167z" />
<glyph unicode="&#xa2;" horiz-adv-x="1159" d="M82 578q0 195 105.5 336.5t291.5 185.5v203q103 28 205 28q51 0 74.5 -18t23.5 -56v-155q102 -23 180.5 -74.5t120.5 -120.5q23 -40 23 -76q0 -50 -76 -98q-79 -49 -242 -67q-20 87 -59 126t-100 39q-80 0 -125 -65t-45 -184q0 -144 88 -232t237 -88q143 0 242 62 q21 -30 37 -76t16 -78q0 -49 -84 -107.5t-213 -78.5v-213h-225q-78 0 -78 63v172q-178 57 -287.5 209t-109.5 363z" />
<glyph unicode="&#xa3;" horiz-adv-x="1273" d="M82 639q0 72 16 125h113v186q0 238 132 373t378 135q159 0 277.5 -73t172.5 -193q21 -47 21 -84q0 -55 -66 -92q-50 -27 -120.5 -43.5t-139.5 -18.5q-17 99 -51 142t-90 43q-50 0 -83.5 -42.5t-33.5 -129.5v-203h318q27 0 39 -15.5t12 -50.5v-114h-369v-41 q0 -155 -78 -224h615q63 0 63 -77v-242h-1038q-64 0 -64 78v201q49 42 77 99t28 148v58h-70q-59 0 -59 55z" />
<glyph unicode="&#xa4;" horiz-adv-x="1417" d="M106 1057q53 100 123 164q44 41 76.5 41.5t77.5 -41.5l129 -129q90 41 197 41q99 0 188 -39l188 188q100 -53 164 -123q41 -44 41.5 -76t-41.5 -77l-127 -127q47 -89 47 -199q0 -104 -43 -195l185 -182q-53 -100 -123 -164q-44 -41 -76.5 -41.5t-77.5 41.5l-129 127 q-85 -39 -196 -39q-100 0 -189 39l-188 -188q-100 53 -164 123q-41 44 -41.5 76t41.5 77l125 127q-45 92 -45 199q0 105 41 192zM526 688q0 -94 54.5 -150.5t136.5 -56.5q73 0 123.5 54t50.5 137q0 94 -54.5 150.5t-136.5 56.5q-73 0 -123.5 -54t-50.5 -137z" />
<glyph unicode="&#xa5;" horiz-adv-x="1478" d="M57 1257q171 203 267 203q19 0 35 -8.5t25 -18.5t26 -32l335 -449q78 86 161 218t143 264h284q63 0 87.5 -30t2.5 -75q-78 -166 -214 -349.5t-279 -320.5v-16h196q27 0 39.5 -15t12.5 -50v-74h-248v-72h196q27 0 39.5 -15t12.5 -50v-74h-248v-293h-320q-78 0 -78 63v230 h-194q-30 0 -42.5 12t-12.5 39q0 41 14 88h235v72h-194q-30 0 -42.5 12t-12.5 39q0 41 14 88h235v14z" />
<glyph unicode="&#xa6;" horiz-adv-x="702" d="M180 -223v635q107 26 238 26q104 0 104 -84v-641h-264q-78 0 -78 64zM180 791v634q111 27 238 27q104 0 104 -84v-641h-264q-78 0 -78 64z" />
<glyph unicode="&#xa7;" horiz-adv-x="1067" d="M98 569q0 82 46.5 146t129.5 100q-176 107 -176 299q0 151 120.5 247.5t309.5 96.5q138 0 247.5 -45.5t164.5 -128.5q25 -41 25 -70q0 -45 -50 -75q-84 -55 -215 -62q-38 115 -135 115q-43 0 -66.5 -20t-23.5 -50q0 -40 30.5 -68.5t104.5 -52.5q191 -62 279 -144.5 t88 -203.5q0 -76 -49 -141t-119 -94q81 -41 124.5 -114t43.5 -167q0 -152 -116.5 -247t-328.5 -95q-102 0 -197 29t-151.5 73t-56.5 89q0 35 15 78t38 75q65 -36 146 -57t153 -21q121 0 121 60q0 27 -20 44t-78 34q-191 53 -297.5 145.5t-106.5 224.5zM434 621 q0 -48 36.5 -85t107.5 -57q65 53 65 121q0 48 -36 84.5t-107 56.5q-66 -54 -66 -120z" />
<glyph unicode="&#xa8;" horiz-adv-x="860" d="M68 1341q0 70 42 113t109 43t115.5 -48t48.5 -124q0 -70 -42.5 -113t-109.5 -43t-115 48t-48 124zM479 1341q0 70 42.5 113t109.5 43t115.5 -48t48.5 -124q0 -70 -42.5 -113t-109.5 -43t-115.5 48t-48.5 124z" />
<glyph unicode="&#xa9;" horiz-adv-x="1687" d="M102 717q0 202 99.5 372.5t270 269.5t372.5 99q151 0 288.5 -58.5t236.5 -157.5t157.5 -236.5t58.5 -288.5q0 -202 -99 -372.5t-269.5 -270t-372.5 -99.5t-372.5 99.5t-270 270t-99.5 372.5zM217 717q0 -130 49.5 -248t133.5 -202.5t200 -134.5t244 -50q170 0 314 84 t228 230.5t84 320.5q0 129 -49.5 246.5t-133.5 202.5t-200 135.5t-243 50.5t-243.5 -50.5t-200.5 -135.5t-133.5 -202.5t-49.5 -246.5zM449 723q0 176 112.5 282.5t292.5 106.5q107 0 189 -39.5t122 -107.5q19 -31 19 -58q0 -39 -56 -69q-80 -42 -180 -52q-21 107 -110 107 q-45 0 -78 -45t-33 -121q0 -91 58.5 -147t162.5 -56q102 0 182 39q16 -22 26.5 -53.5t10.5 -54.5q0 -50 -87 -100t-195 -50q-187 0 -311.5 117t-124.5 301z" />
<glyph unicode="&#xaa;" horiz-adv-x="954" d="M66 895q0 117 86 182.5t221 65.5q95 0 143 -23v43q0 101 -145 101q-125 0 -217 -47q-31 48 -31 94q0 48 99.5 93.5t226.5 45.5q170 0 264 -81t94 -236v-238q3 -45 43 -45h39q14 -47 14 -86q0 -43 -49.5 -80t-118.5 -37q-53 0 -102 25t-80 73q-65 -106 -205 -106 q-124 0 -203 71.5t-79 184.5zM352 903q0 -35 22.5 -56.5t53.5 -21.5q67 0 90 82v80q-33 10 -67 10q-45 0 -72 -26t-27 -68z" />
<glyph unicode="&#xab;" horiz-adv-x="1222" d="M98 588v151l420 295q31 21 51 21q45 0 45 -68q0 -71 -18 -170l-264 -178l223 -152q35 -23 35 -69v-225l-457 321q-35 27 -35 74zM608 588v151l420 295q32 21 51 21q45 0 45 -68q0 -71 -18 -170l-264 -178l223 -152q35 -23 35 -69v-225l-457 321q-35 27 -35 74z" />
<glyph unicode="&#xac;" horiz-adv-x="1282" d="M131 762q0 99 27 194h895q77 0 77 -63v-563h-270q-78 0 -78 63v289h-575q-76 0 -76 80z" />
<glyph unicode="&#xad;" horiz-adv-x="905" d="M139 616q0 112 27 207h522q78 0 78 -63v-223h-551q-76 0 -76 79z" />
<glyph unicode="&#xae;" horiz-adv-x="1687" d="M102 717q0 202 99.5 372.5t270 269.5t372.5 99q151 0 288.5 -58.5t236.5 -157.5t157.5 -236.5t58.5 -288.5q0 -202 -99 -372.5t-269.5 -270t-372.5 -99.5t-372.5 99.5t-270 270t-99.5 372.5zM217 717q0 -130 49.5 -248t133.5 -202.5t200 -134.5t244 -50q170 0 314 84 t228 230.5t84 320.5q0 129 -49.5 246.5t-133.5 202.5t-200 135.5t-243 50.5t-243.5 -50.5t-200.5 -135.5t-133.5 -202.5t-49.5 -246.5zM537 391v721h323q151 0 233.5 -76t82.5 -209q0 -145 -113 -221q17 -35 45 -71q26 -33 66 -33h24q14 -44 14 -88q0 -36 -40 -64t-95 -28 t-94.5 23.5t-73.5 74.5q-42 65 -63 137q-34 0 -62 12v-235h-176q-38 0 -54.5 13.5t-16.5 43.5zM784 754q18 -6 37 -6q107 0 107 86q0 88 -115 88h-29v-168z" />
<glyph unicode="&#xaf;" horiz-adv-x="860" d="M127 1300q0 63 25 140h518q63 0 63 -78v-141h-526q-80 0 -80 79z" />
<glyph unicode="&#xb0;" horiz-adv-x="802" d="M74 1145q0 134 93 223.5t234 89.5t234.5 -89.5t93.5 -223.5t-93.5 -224t-234.5 -90t-234 90t-93 224zM303 1149q0 -48 29 -82.5t74 -34.5q43 0 68.5 31.5t25.5 77.5q0 48 -29 82t-74 34q-43 0 -68.5 -31t-25.5 -77z" />
<glyph unicode="&#xb1;" horiz-adv-x="1282" d="M131 80q0 99 27 194h915q78 0 78 -63v-211h-944q-76 0 -76 80zM131 805q0 99 27 194h309v293q110 35 246 35q55 0 78.5 -19.5t23.5 -62.5v-246h258q78 0 78 -63v-211h-336v-328h-270q-78 0 -78 64v264h-260q-76 0 -76 80z" />
<glyph unicode="&#xb2;" horiz-adv-x="843" d="M80 1206q0 36 18 76q38 77 120.5 122.5t193.5 45.5q157 0 247.5 -85t90.5 -226q0 -87 -52.5 -179.5t-144.5 -158.5h141q34 0 48 -11.5t14 -39.5v-168h-535q-38 0 -58 10.5t-32 40.5q-21 54 -27 121q155 66 258 169.5t103 217.5q0 78 -55 78q-27 0 -49.5 -28.5 t-34.5 -82.5q-117 3 -197 39q-49 21 -49 59z" />
<glyph unicode="&#xb3;" horiz-adv-x="843" d="M78 723q0 61 37 117q128 -64 250 -64q102 0 102 70q0 58 -102 67q-38 3 -54.5 11t-29.5 32q-30 52 -37 111l135 147h-215q-76 0 -76 68q0 64 18 152h500q37 0 54 -8t30 -33q30 -52 37 -111l-201 -201q103 -18 164.5 -81.5t61.5 -157.5q0 -118 -94.5 -197.5t-256.5 -79.5 q-128 0 -225.5 53t-97.5 105z" />
<glyph unicode="&#xb4;" horiz-adv-x="860" d="M186 1274l224 237q38 41 67 41q39 0 76 -30q72 -61 121 -166l-268 -193q-39 -26 -66 -26q-25 0 -51 26z" />
<glyph unicode="&#xb5;" horiz-adv-x="1294" d="M131 -403v1480q127 31 277 31q100 0 100 -82v-709q71 -55 151 -55q67 0 99.5 38t32.5 118v676h299q77 0 77 -64v-600q0 -227 -92.5 -341t-265.5 -114q-83 0 -164.5 35.5t-136.5 102.5v-580h-299q-78 0 -78 64z" />
<glyph unicode="&#xb6;" horiz-adv-x="1290" d="M82 1010q0 186 127.5 305t316.5 119h652q25 0 36 -14.5t11 -47.5v-127h-160v-1513h-143q-33 0 -47.5 11t-14.5 36v1466h-110v-1513h-152q-33 0 -47 11t-14 36v807q-196 0 -325.5 118t-129.5 306z" />
<glyph unicode="&#xb7;" horiz-adv-x="696" d="M156 688q0 86 52.5 137.5t133.5 51.5q79 0 139 -57t60 -148q0 -86 -53 -137.5t-134 -51.5q-79 0 -138.5 57t-59.5 148z" />
<glyph unicode="&#xb8;" horiz-adv-x="860" d="M217 -348q0 52 55 39q24 -6 47 -6q68 0 68 47q0 31 -25 46t-79 21q-16 7 -25.5 16.5t-9.5 16.5q0 6 4 14l82 154h229l-65 -123q66 -13 105.5 -58.5t39.5 -105.5q0 -96 -75.5 -156.5t-194.5 -60.5q-89 0 -156 21v135z" />
<glyph unicode="&#xb9;" horiz-adv-x="843" d="M113 1221q0 29 49 59l246 154h155q34 0 48 -12t14 -40v-800h-224q-33 0 -47 12t-14 39v497l-90 -57q-35 18 -67.5 43.5t-47.5 48.5q-22 32 -22 56z" />
<glyph unicode="&#xba;" horiz-adv-x="954" d="M68 1044q0 124 58 218.5t150 141t201 46.5q81 0 155 -27.5t131 -78t90.5 -128.5t33.5 -172q0 -124 -58 -218t-150.5 -140.5t-201.5 -46.5t-201 46.5t-150 140.5t-58 218zM354 1053q0 -91 33.5 -140t95.5 -49q56 0 86.5 43.5t30.5 130.5q0 91 -33.5 140t-95.5 49 q-56 0 -86.5 -43.5t-30.5 -130.5z" />
<glyph unicode="&#xbb;" horiz-adv-x="1222" d="M98 987q0 68 45 68q21 0 52 -21l419 -295v-151q0 -48 -34 -74l-457 -321v225q0 46 35 69l223 152l-264 178q-19 105 -19 170zM608 987q0 68 45 68q21 0 52 -21l419 -295v-151q0 -48 -34 -74l-457 -321v225q0 46 35 69l223 152l-264 178q-19 104 -19 170z" />
<glyph unicode="&#xbc;" horiz-adv-x="2015" d="M113 1221q0 29 49 59l246 154h155q34 0 48 -12t14 -40v-800h-224q-33 0 -47 12t-14 39v497l-90 -57q-35 18 -67.5 43.5t-47.5 48.5q-22 32 -22 56zM606 61l576 1373h178q39 0 51.5 -17t1.5 -45l-575 -1372h-179q-77 0 -53 61zM1217 307q37 139 142 284.5t224 231.5 q95 39 211 39q44 0 62 -14.5t18 -44.5v-471h39q34 0 47.5 -11.5t13.5 -39.5v-146h-100v-135h-203q-33 0 -47 12t-14 39v84h-277q-39 0 -58 10t-32 41q-21 53 -26 121zM1462 332h146v233q-42 -42 -84.5 -110.5t-61.5 -122.5z" />
<glyph unicode="&#xbd;" horiz-adv-x="2015" d="M113 1221q0 29 49 59l246 154h155q34 0 48 -12t14 -40v-800h-224q-33 0 -47 12t-14 39v497l-90 -57q-35 18 -67.5 43.5t-47.5 48.5q-22 32 -22 56zM606 61l576 1373h178q39 0 51.5 -17t1.5 -45l-575 -1372h-179q-77 0 -53 61zM1251 625q0 32 19 75q38 77 120 122.5 t193 45.5q157 0 247.5 -85t90.5 -226q0 -87 -52.5 -179.5t-144.5 -158.5h142q34 0 47.5 -11.5t13.5 -39.5v-168h-534q-38 0 -58 10.5t-32 40.5q-21 54 -27 121q155 66 257.5 169.5t102.5 217.5q0 78 -55 78q-27 0 -49.5 -28.5t-34.5 -82.5q-117 3 -197 39q-49 21 -49 60z " />
<glyph unicode="&#xbe;" horiz-adv-x="2015" d="M78 723q0 61 37 117q128 -64 250 -64q102 0 102 70q0 58 -102 67q-38 3 -54.5 11t-29.5 32q-30 52 -37 111l135 147h-215q-76 0 -76 68q0 64 18 152h500q37 0 54 -8t30 -33q30 -52 37 -111l-201 -201q103 -18 164.5 -81.5t61.5 -157.5q0 -118 -94.5 -197.5t-256.5 -79.5 q-128 0 -225.5 53t-97.5 105zM606 61l576 1373h178q39 0 51.5 -17t1.5 -45l-575 -1372h-179q-77 0 -53 61zM1217 307q37 139 142 284.5t224 231.5q95 39 211 39q44 0 62 -14.5t18 -44.5v-471h39q34 0 47.5 -11.5t13.5 -39.5v-146h-100v-135h-203q-33 0 -47 12t-14 39v84 h-277q-39 0 -58 10t-32 41q-21 53 -26 121zM1462 332h146v233q-42 -42 -84.5 -110.5t-61.5 -122.5z" />
<glyph unicode="&#xbf;" horiz-adv-x="1183" d="M98 63q0 -191 136.5 -309.5t357.5 -118.5q174 0 304 76t185 195q21 46 21 86q0 62 -70 98q-53 26 -125.5 43.5t-138.5 22.5q-15 -99 -57.5 -150t-102.5 -51q-51 0 -81.5 30t-30.5 81t28 93.5t94 88.5q107 76 159 153t52 177v38q0 64 -77 64h-320v-51q0 -49 -17.5 -80.5 t-62.5 -65.5q-125 -93 -189.5 -192.5t-64.5 -227.5zM430 946q0 82 55 127t144 45q83 0 142.5 -48t59.5 -130t-54.5 -127t-143.5 -45q-83 0 -143 48t-60 130z" />
<glyph unicode="&#xc0;" d="M45 72l477 1321q129 55 269 55q71 0 104 -22.5t55 -84.5l486 -1341h-340q-42 0 -64 13.5t-31 43.5l-53 170h-442l-68 -227h-332q-37 0 -54 20t-7 52zM444 1753q49 105 121 166q37 30 76 30q30 0 68 -41l223 -237l-103 -111q-26 -26 -51 -26q-26 0 -65 26zM596 526h262 l-131 428z" />
<glyph unicode="&#xc1;" d="M45 72l477 1321q129 55 269 55q71 0 104 -22.5t55 -84.5l486 -1341h-340q-42 0 -64 13.5t-31 43.5l-53 170h-442l-68 -227h-332q-37 0 -54 20t-7 52zM518 1673l223 238q38 41 68 41q37 0 76 -31q72 -61 121 -166l-269 -192q-41 -27 -65 -27t-51 27zM596 526h262l-131 428 z" />
<glyph unicode="&#xc2;" d="M45 72l477 1321q129 55 269 55q71 0 104 -22.5t55 -84.5l486 -1341h-340q-42 0 -64 13.5t-31 43.5l-53 170h-442l-68 -227h-332q-37 0 -54 20t-7 52zM389 1675q0 24 20 41l254 223h82q27 0 44 -7t38 -26l262 -229l-100 -111q-30 -30 -55 -30q-26 0 -58 28l-149 148 l-180 -178q-78 28 -134 88q-24 27 -24 53zM596 526h262l-131 428z" />
<glyph unicode="&#xc3;" d="M45 72l477 1321q129 55 269 55q71 0 104 -22.5t55 -84.5l486 -1341h-340q-42 0 -64 13.5t-31 43.5l-53 170h-442l-68 -227h-332q-37 0 -54 20t-7 52zM399 1655q0 21 9 57q24 85 74.5 128.5t115.5 43.5q77 0 135 -45q34 -27 48.5 -35t27.5 -8q21 0 30.5 22t14.5 76 l152 -39q51 -13 45 -67q-13 -101 -69 -158t-130 -57q-77 0 -135 45q-34 27 -48.5 35t-27.5 8q-21 0 -30 -19.5t-15 -68.5q-81 -6 -152 22q-45 19 -45 60zM596 526h262l-131 428z" />
<glyph unicode="&#xc4;" d="M45 72q-10 -32 7 -52t54 -20h332l68 227h442l53 -170q9 -30 31 -43.5t64 -13.5h340l-486 1341q-22 62 -55 84.5t-104 22.5q-140 0 -269 -55zM365 1739q0 70 42 112.5t109 42.5t115.5 -48t48.5 -124q0 -70 -42.5 -112.5t-109.5 -42.5t-115 48t-48 124zM596 526l131 428 l131 -428h-262zM776 1739q0 70 42.5 112.5t109.5 42.5t115.5 -48t48.5 -124q0 -70 -42.5 -112.5t-109.5 -42.5t-115.5 48t-48.5 124z" />
<glyph unicode="&#xc5;" d="M45 72l477 1321q129 55 269 55q71 0 104 -22.5t55 -84.5l486 -1341h-340q-42 0 -64 13.5t-31 43.5l-53 170h-442l-68 -227h-332q-37 0 -54 20t-7 52zM504 1738q0 90 63 151.5t160 61.5t160 -61.5t63 -151.5t-63 -151.5t-160 -61.5t-160 61.5t-63 151.5zM596 526h262 l-131 428zM664 1740q0 -29 18.5 -48t46.5 -19q27 0 44.5 16.5t17.5 46.5q0 29 -19 48.5t-47 19.5q-27 0 -44 -17t-17 -47z" />
<glyph unicode="&#xc6;" horiz-adv-x="1902" d="M32.5 27q-15.5 27 2.5 59l612 1276q53 33 127 52.5t148 19.5h798q76 0 76 -86q0 -107 -24 -234h-539v-240h389q64 0 64 -77v-242h-453v-29q0 -118 29 -162.5t108 -44.5h379q63 0 63 -77v-242h-514q-166 0 -269 56.5t-150 174.5h-359l-100 -231h-324q-48 0 -63.5 27z M651 530h185v420z" />
<glyph unicode="&#xc7;" d="M90 752q0 209 89.5 370t248 248.5t358.5 87.5q204 0 353.5 -78t226.5 -209q23 -42 23 -79q0 -57 -70 -99q-114 -65 -270 -75q-78 221 -269 221q-133 0 -213 -100.5t-80 -280.5q0 -204 123.5 -333.5t331.5 -129.5q94 0 184.5 20t153.5 56q24 -31 42.5 -83.5t18.5 -88.5 q0 -63 -110.5 -128.5t-265.5 -86.5l-56 -107q67 -13 106.5 -59t39.5 -105q0 -96 -76 -156.5t-195 -60.5q-88 0 -155 21v135q0 52 55 39q24 -6 47 -6q68 0 68 47q0 31 -25.5 46t-79.5 21q-16 7 -25.5 16.5t-9.5 16.5q0 4 5 14l71 138q-140 19 -259 83t-204.5 163 t-133.5 233.5t-48 288.5z" />
<glyph unicode="&#xc8;" horiz-adv-x="1210" d="M143 500v934h885q76 0 76 -86q0 -102 -25 -234h-538v-240h389q63 0 63 -77v-242h-452v-29q0 -118 29 -162.5t108 -44.5h379q63 0 63 -77v-242h-514q-240 0 -351.5 122t-111.5 378zM354 1753q49 105 121 166q37 30 76 30q30 0 68 -41l223 -237l-103 -111q-26 -26 -51 -26 q-26 0 -65 26z" />
<glyph unicode="&#xc9;" horiz-adv-x="1210" d="M143 500v934h885q76 0 76 -86q0 -102 -25 -234h-538v-240h389q63 0 63 -77v-242h-452v-29q0 -118 29 -162.5t108 -44.5h379q63 0 63 -77v-242h-514q-240 0 -351.5 122t-111.5 378zM383 1671l224 237q38 41 67 41q38 0 76 -30q72 -61 121 -166l-268 -193q-39 -26 -66 -26 q-25 0 -51 26z" />
<glyph unicode="&#xca;" horiz-adv-x="1210" d="M143 500q0 -256 111.5 -378t351.5 -122h514v242q0 77 -63 77h-379q-79 0 -108 44.5t-29 162.5v29h452v242q0 77 -63 77h-389v240h538q25 132 25 234q0 86 -76 86h-885v-934zM279 1675q0 24 20 41l254 223h82q28 0 45 -6.5t37 -25.5l262 -230l-100 -110q-31 -31 -56 -31 q-24 0 -57 29l-150 147l-180 -178q-76 28 -133 88q-24 27 -24 53z" />
<glyph unicode="&#xcb;" horiz-adv-x="1210" d="M143 500v934h885q76 0 76 -86q0 -102 -25 -234h-538v-240h389q63 0 63 -77v-242h-452v-29q0 -118 29 -162.5t108 -44.5h379q63 0 63 -77v-242h-514q-240 0 -351.5 122t-111.5 378zM254 1738q0 70 42 113t109 43t115.5 -48t48.5 -124q0 -70 -42.5 -113t-109.5 -43t-115 48 t-48 124zM665 1738q0 70 42.5 113t109.5 43t115.5 -48t48.5 -124q0 -70 -42.5 -113t-109.5 -43t-115.5 48t-48.5 124z" />
<glyph unicode="&#xcc;" horiz-adv-x="708" d="M33 1753q49 105 121 166q39 31 75 31q30 0 68 -41l223 -238l-102 -110q-27 -27 -51 -27q-25 0 -66 27zM156 63q0 -63 77 -63h320v1370q0 84 -104 84q-150 0 -293 -33v-1358z" />
<glyph unicode="&#xcd;" horiz-adv-x="708" d="M156 63v1358q143 33 293 33q104 0 104 -84v-1370h-320q-77 0 -77 63zM186 1671l224 237q38 41 67 41q39 0 76 -30q72 -61 121 -166l-268 -193q-39 -26 -66 -26q-25 0 -51 26z" />
<glyph unicode="&#xce;" horiz-adv-x="708" d="M17 1675q0 24 20 41l254 223h82q27 0 44 -7t38 -26l262 -229l-100 -111q-30 -30 -55 -30q-26 0 -58 28l-149 148l-180 -178q-78 28 -134 88q-24 27 -24 53zM156 63v1358q143 33 293 33q104 0 104 -84v-1370h-320q-77 0 -77 63z" />
<glyph unicode="&#xcf;" horiz-adv-x="708" d="M-10 1739q0 70 42 112.5t109 42.5t115.5 -48t48.5 -124q0 -70 -42 -112.5t-109 -42.5t-115.5 48t-48.5 124zM156 63q0 -63 77 -63h320v1370q0 84 -104 84q-150 0 -293 -33v-1358zM401 1739q0 70 42.5 112.5t109.5 42.5t115.5 -48t48.5 -124q0 -70 -42.5 -112.5 t-109.5 -42.5t-115.5 48t-48.5 124z" />
<glyph unicode="&#xd0;" horiz-adv-x="1505" d="M0 682q0 72 16 125h127v627h574q151 0 279 -50t221 -141.5t145.5 -226.5t52.5 -299q0 -218 -91.5 -381.5t-253.5 -249.5t-374 -86h-90q-240 0 -351.5 122t-111.5 378v127h-84q-59 0 -59 55zM541 526q0 -115 36 -161t117 -46h15q147 0 228 99.5t81 298.5t-81 298t-228 99 h-168v-307h215q27 0 39 -15.5t12 -50.5v-114h-266v-101z" />
<glyph unicode="&#xd1;" horiz-adv-x="1482" d="M147 63v1278q63 46 144.5 79.5t128.5 33.5q39 0 63 -13t43 -44l412 -723v760h319q78 0 78 -64v-1278q-63 -46 -144 -79t-128 -33q-40 0 -64 13t-43 44l-411 723v-760h-320q-78 0 -78 63zM414 1655q0 25 8 57q24 85 74.5 128.5t115.5 43.5q78 0 136 -45q35 -27 48.5 -35 t26.5 -8q21 0 30.5 22t14.5 76l152 -39q51 -13 45 -67q-13 -101 -69 -158t-130 -57q-77 0 -135 45q-34 27 -48.5 35t-27.5 8q-21 0 -30 -19.5t-15 -68.5q-80 -6 -151 22q-45 19 -45 60z" />
<glyph unicode="&#xd2;" horiz-adv-x="1626" d="M90 717q0 171 56 312t153.5 234t229.5 144t284 51t284 -51t229.5 -144t153.5 -234t56 -312t-56 -312t-153.5 -234.5t-229.5 -144.5t-284 -51t-284 51t-229.5 144.5t-153.5 234.5t-56 312zM487 733q0 -197 97 -317.5t239 -120.5q140 0 228 102.5t88 302.5q0 197 -97 318 t-239 121q-140 0 -228 -103t-88 -303zM532 1753q49 105 121 166q38 30 76 30q30 0 68 -41l223 -237l-103 -111q-26 -26 -51 -26q-26 0 -65 26z" />
<glyph unicode="&#xd3;" horiz-adv-x="1626" d="M90 717q0 171 56 312t153.5 234t229.5 144t284 51t284 -51t229.5 -144t153.5 -234t56 -312t-56 -312t-153.5 -234.5t-229.5 -144.5t-284 -51t-284 51t-229.5 144.5t-153.5 234.5t-56 312zM487 733q0 -197 97 -317.5t239 -120.5q140 0 228 102.5t88 302.5q0 197 -97 318 t-239 121q-140 0 -228 -103t-88 -303zM592 1671l224 237q38 41 67 41q39 0 76 -30q72 -61 121 -166l-268 -193q-39 -26 -66 -26q-25 0 -51 26z" />
<glyph unicode="&#xd4;" horiz-adv-x="1626" d="M90 717q0 171 56 312t153.5 234t229.5 144t284 51t284 -51t229.5 -144t153.5 -234t56 -312t-56 -312t-153.5 -234.5t-229.5 -144.5t-284 -51t-284 51t-229.5 144.5t-153.5 234.5t-56 312zM475 1675q0 24 20 41l254 223h82q27 0 44 -7t38 -26l262 -229l-100 -111 q-30 -30 -55 -30q-26 0 -58 28l-149 148l-180 -178q-78 28 -134 88q-24 27 -24 53zM487 733q0 -197 97 -317.5t239 -120.5q140 0 228 102.5t88 302.5q0 197 -97 318t-239 121q-140 0 -228 -103t-88 -303z" />
<glyph unicode="&#xd5;" horiz-adv-x="1626" d="M90 717q0 171 56 312t153.5 234t229.5 144t284 51t284 -51t229.5 -144t153.5 -234t56 -312t-56 -312t-153.5 -234.5t-229.5 -144.5t-284 -51t-284 51t-229.5 144.5t-153.5 234.5t-56 312zM485 1654q0 22 9 58q24 85 74.5 128.5t115.5 43.5q77 0 135 -45q34 -27 48.5 -35 t27.5 -8q21 0 30.5 22t14.5 76l152 -39q51 -13 45 -67q-13 -101 -69 -158t-130 -57q-77 0 -135 45q-34 27 -48.5 35t-27.5 8q-21 0 -30 -19.5t-15 -68.5q-81 -6 -152 22q-45 19 -45 59zM487 733q0 -197 97 -317.5t239 -120.5q140 0 228 102.5t88 302.5q0 197 -97 318 t-239 121q-140 0 -228 -103t-88 -303z" />
<glyph unicode="&#xd6;" horiz-adv-x="1626" d="M90 717q0 171 56 312t153.5 234t229.5 144t284 51t284 -51t229.5 -144t153.5 -234t56 -312t-56 -312t-153.5 -234.5t-229.5 -144.5t-284 -51t-284 51t-229.5 144.5t-153.5 234.5t-56 312zM451 1739q0 70 42 112.5t109 42.5t115.5 -48t48.5 -124q0 -70 -42.5 -112.5 t-109.5 -42.5t-115 48t-48 124zM487 733q0 -197 97 -317.5t239 -120.5q140 0 228 102.5t88 302.5q0 197 -97 318t-239 121q-140 0 -228 -103t-88 -303zM862 1739q0 70 42.5 112.5t109.5 42.5t115.5 -48t48.5 -124q0 -70 -42.5 -112.5t-109.5 -42.5t-115.5 48t-48.5 124z" />
<glyph unicode="&#xd7;" horiz-adv-x="1282" d="M164 424l250 244l-250 245q56 106 133 183q76 73 135 14l209 -215l209 215q59 59 135 -14q77 -77 133 -183l-252 -245l252 -244l-176 -178q-55 -55 -100 -10l-201 206l-201 -206q-45 -45 -100 10z" />
<glyph unicode="&#xd8;" horiz-adv-x="1626" d="M75.5 18q-12.5 18 8.5 41l160 174q-154 197 -154 484q0 171 56 312t153.5 234t229.5 144t284 51q249 0 436 -133l101 109h147q40 0 53 -18.5t-8 -41.5l-160 -174q154 -197 154 -483q0 -171 -56 -312t-153.5 -234.5t-229.5 -144.5t-284 -51q-254 0 -438 131l-99 -106h-147 q-41 0 -53.5 18zM487 733q0 -107 33 -201l484 527q-86 80 -201 80q-140 0 -228 -103t-88 -303zM621 375q86 -80 202 -80q140 0 228 102.5t88 302.5q0 104 -33 201z" />
<glyph unicode="&#xd9;" horiz-adv-x="1490" d="M139 594v827q143 33 293 33q105 0 105 -84v-805q0 -132 56 -201t152 -69q98 0 153.5 69t55.5 201v869h320q78 0 78 -64v-776q0 -289 -163.5 -454t-443.5 -165q-279 0 -442.5 165.5t-163.5 453.5zM465 1753q49 105 121 166q37 30 76 30q30 0 68 -41l223 -237l-103 -111 q-26 -26 -51 -26q-26 0 -65 26z" />
<glyph unicode="&#xda;" horiz-adv-x="1490" d="M139 594v827q143 33 293 33q105 0 105 -84v-805q0 -132 56 -201t152 -69q98 0 153.5 69t55.5 201v869h320q78 0 78 -64v-776q0 -289 -163.5 -454t-443.5 -165q-279 0 -442.5 165.5t-163.5 453.5zM522 1671l224 237q38 41 67 41q39 0 76 -30q72 -61 121 -166l-268 -193 q-39 -26 -66 -26q-25 0 -51 26z" />
<glyph unicode="&#xdb;" horiz-adv-x="1490" d="M139 594v827q143 33 293 33q105 0 105 -84v-805q0 -132 56 -201t152 -69q98 0 153.5 69t55.5 201v869h320q78 0 78 -64v-776q0 -289 -163.5 -454t-443.5 -165q-279 0 -442.5 165.5t-163.5 453.5zM408 1675q0 24 20 41l254 223h82q27 0 44 -7t38 -26l262 -229l-100 -111 q-30 -30 -55 -30q-27 0 -58 28l-149 148l-180 -178q-78 28 -134 88q-24 27 -24 53z" />
<glyph unicode="&#xdc;" horiz-adv-x="1490" d="M139 594q0 -288 163.5 -453.5t442.5 -165.5q280 0 443.5 165t163.5 454v776q0 64 -78 64h-320v-869q0 -132 -55.5 -201t-153.5 -69q-96 0 -152 69t-56 201v805q0 84 -105 84q-150 0 -293 -33v-827zM383 1739q0 70 42.5 112.5t109.5 42.5t115 -48t48 -124 q0 -70 -42 -112.5t-109 -42.5t-115.5 48t-48.5 124zM795 1739q0 70 42 112.5t109 42.5t115.5 -48t48.5 -124q0 -70 -42.5 -112.5t-109.5 -42.5t-115 48t-48 124z" />
<glyph unicode="&#xdd;" horiz-adv-x="1390" d="M47 1278q60 70 141 123t146 53q56 0 86 -59l278 -555q83 125 157 291t106 303h284q120 0 90 -105q-54 -191 -178.5 -418t-273.5 -415v-496h-320q-78 0 -78 63v431zM481 1671l224 237q38 41 67 41q39 0 76 -30q72 -61 121 -166l-268 -193q-39 -26 -66 -26q-25 0 -51 26z " />
<glyph unicode="&#xde;" horiz-adv-x="1345" d="M147 63v1358q143 33 293 33q105 0 105 -84v-123h125q281 0 441.5 -144.5t160.5 -400.5q0 -240 -157.5 -383t-403.5 -143q-76 0 -166 23v-199h-320q-78 0 -78 63zM545 506q52 -10 104 -10q104 0 164.5 55t60.5 160q0 107 -58 162t-161 55h-110v-422z" />
<glyph unicode="&#xdf;" horiz-adv-x="1384" d="M131 63v855q0 253 135 396.5t393 143.5q216 0 354 -114t138 -281q0 -98 -56 -173.5t-139 -109.5q97 -24 179 -80.5t135 -145t53 -189.5q0 -79 -29 -149.5t-81.5 -124t-134.5 -85t-181 -31.5q-122 0 -216.5 59.5t-94.5 131.5q0 87 59 178q71 -29 143 -29q63 0 100.5 33 t37.5 96q0 71 -66 123t-209 58q-18 38 -31.5 89t-13.5 85q0 40 15.5 61t54.5 39q88 42 88 127q0 55 -31 87t-78 32q-61 0 -94 -45t-33 -133v-967h-319q-78 0 -78 63z" />
<glyph unicode="&#xe0;" horiz-adv-x="1232" d="M74 336q0 161 116 255.5t304 94.5q132 0 200 -33v60q0 143 -205 143q-153 0 -292 -68q-41 61 -41 134q0 43 59.5 88.5t164 76.5t218.5 31q236 0 356.5 -113.5t120.5 -334.5v-318q0 -80 62 -80h55q20 -65 20 -122q0 -62 -65.5 -113t-163.5 -51q-73 0 -137 34.5t-103 100.5 q-95 -146 -286 -146q-171 0 -277 103t-106 258zM350 1397q49 105 121 166q37 30 76 30q30 0 68 -41l223 -237l-103 -111q-26 -26 -51 -26q-26 0 -65 26zM451 348q0 -52 30.5 -81t75.5 -29q47 0 85 28.5t56 85.5v113q-43 14 -110 14q-63 0 -100 -36.5t-37 -94.5z" />
<glyph unicode="&#xe1;" horiz-adv-x="1232" d="M74 336q0 161 116 255.5t304 94.5q132 0 200 -33v60q0 143 -205 143q-153 0 -292 -68q-41 61 -41 134q0 43 59.5 88.5t164 76.5t218.5 31q236 0 356.5 -113.5t120.5 -334.5v-318q0 -80 62 -80h55q20 -65 20 -122q0 -62 -65.5 -113t-163.5 -51q-73 0 -137 34.5t-103 100.5 q-95 -146 -286 -146q-171 0 -277 103t-106 258zM368 1315l224 237q38 41 67 41q39 0 76 -30q72 -61 121 -166l-268 -193q-39 -26 -66 -26q-25 0 -51 26zM451 348q0 -52 30.5 -81t75.5 -29q47 0 85 28.5t56 85.5v113q-43 14 -110 14q-63 0 -100 -36.5t-37 -94.5z" />
<glyph unicode="&#xe2;" horiz-adv-x="1232" d="M74 336q0 161 116 255.5t304 94.5q132 0 200 -33v60q0 143 -205 143q-153 0 -292 -68q-41 61 -41 134q0 43 59.5 88.5t164 76.5t218.5 31q236 0 356.5 -113.5t120.5 -334.5v-318q0 -80 62 -80h55q20 -65 20 -122q0 -62 -65.5 -113t-163.5 -51q-73 0 -137 34.5t-103 100.5 q-95 -146 -286 -146q-171 0 -277 103t-106 258zM273 1319q0 24 20 41l254 223h82q27 0 44 -7t38 -26l262 -229l-100 -111q-30 -30 -55 -30q-26 0 -58 28l-149 148l-180 -178q-78 28 -134 88q-24 27 -24 53zM451 348q0 -52 30.5 -81t75.5 -29q47 0 85 28.5t56 85.5v113 q-43 14 -110 14q-63 0 -100 -36.5t-37 -94.5z" />
<glyph unicode="&#xe3;" horiz-adv-x="1232" d="M74 336q0 161 116 255.5t304 94.5q132 0 200 -33v60q0 143 -205 143q-153 0 -292 -68q-41 61 -41 134q0 43 59.5 88.5t164 76.5t218.5 31q236 0 356.5 -113.5t120.5 -334.5v-318q0 -80 62 -80h55q20 -65 20 -122q0 -62 -65.5 -113t-163.5 -51q-73 0 -137 34.5t-103 100.5 q-95 -146 -286 -146q-171 0 -277 103t-106 258zM283 1296q0 26 8 58q24 85 74.5 128.5t115.5 43.5q77 0 135 -45q34 -27 48.5 -35t27.5 -8q21 0 30.5 22t14.5 76l152 -39q51 -13 45 -67q-13 -101 -69.5 -158.5t-129.5 -57.5q-76 0 -135 46q-34 27 -48.5 35t-27.5 8 q-21 0 -30 -20t-15 -69q-78 -6 -151 23q-45 19 -45 59zM451 348q0 -52 30.5 -81t75.5 -29q47 0 85 28.5t56 85.5v113q-43 14 -110 14q-63 0 -100 -36.5t-37 -94.5z" />
<glyph unicode="&#xe4;" horiz-adv-x="1232" d="M74 336q0 161 116 255.5t304 94.5q132 0 200 -33v60q0 143 -205 143q-153 0 -292 -68q-41 61 -41 134q0 43 59.5 88.5t164 76.5t218.5 31q236 0 356.5 -113.5t120.5 -334.5v-318q0 -80 62 -80h55q20 -65 20 -122q0 -62 -65.5 -113t-163.5 -51q-73 0 -137 34.5t-103 100.5 q-95 -146 -286 -146q-171 0 -277 103t-106 258zM248 1382q0 70 42 113t109 43t115.5 -48t48.5 -124q0 -70 -42 -113t-109 -43t-115.5 48t-48.5 124zM451 348q0 -52 30.5 -81t75.5 -29q47 0 85 28.5t56 85.5v113q-43 14 -110 14q-63 0 -100 -36.5t-37 -94.5zM659 1382 q0 70 42.5 113t109.5 43t115.5 -48t48.5 -124q0 -70 -42.5 -113t-109.5 -43t-115.5 48t-48.5 124z" />
<glyph unicode="&#xe5;" horiz-adv-x="1232" d="M74 336q0 161 116 255.5t304 94.5q132 0 200 -33v60q0 143 -205 143q-153 0 -292 -68q-41 61 -41 134q0 43 59.5 88.5t164 76.5t218.5 31q236 0 356.5 -113.5t120.5 -334.5v-318q0 -80 62 -80h55q20 -65 20 -122q0 -62 -65.5 -113t-163.5 -51q-73 0 -137 34.5t-103 100.5 q-95 -146 -286 -146q-171 0 -277 103t-106 258zM375 1382q0 90 63 151.5t160 61.5t160 -61.5t63 -151.5t-63 -151.5t-160 -61.5t-160 61.5t-63 151.5zM451 348q0 -52 30.5 -81t75.5 -29q47 0 85 28.5t56 85.5v113q-43 14 -110 14q-63 0 -100 -36.5t-37 -94.5zM535 1384 q0 -29 18.5 -48t46.5 -19q27 0 44.5 16.5t17.5 46.5q0 29 -19 48.5t-47 19.5q-27 0 -44 -17t-17 -47z" />
<glyph unicode="&#xe6;" horiz-adv-x="1832" d="M74 336q0 161 116 255.5t304 94.5q132 0 200 -33v60q0 143 -205 143q-153 0 -292 -68q-41 61 -41 134q0 43 57.5 88.5t162 76.5t222.5 31q222 0 338 -145q139 145 360 145q206 0 334.5 -118t128.5 -302q0 -106 -45 -186q-24 -44 -63.5 -61t-112.5 -17h-455 q21 -94 93.5 -143t181.5 -49q157 0 250 55q19 -29 34 -71t15 -72q0 -24 -27.5 -54.5t-75 -58.5t-123.5 -47t-161 -19q-121 0 -226.5 44.5t-173.5 123.5q-55 -78 -153 -123t-223 -45q-200 0 -310 101t-110 260zM451 348q0 -52 30.5 -81t75.5 -29q63 0 102 54t39 173 q-43 14 -110 14q-63 0 -100 -36.5t-37 -94.5zM1077 641h312q16 27 16 78q0 62 -34.5 97.5t-90.5 35.5q-85 0 -138.5 -56.5t-64.5 -154.5z" />
<glyph unicode="&#xe7;" horiz-adv-x="1159" d="M82 578q0 114 38 213t108 171.5t175 114t232 41.5q154 0 272 -58.5t176 -152.5q23 -40 23 -76q0 -55 -76 -98q-86 -49 -242 -67q-20 87 -59 126t-100 39q-80 0 -125 -65t-45 -184q0 -144 88 -232t237 -88q143 0 242 62q21 -30 37 -76t16 -78q0 -47 -79 -103.5t-201 -78.5 l-58 -111q67 -13 106.5 -59t39.5 -105q0 -96 -76 -156.5t-195 -60.5q-88 0 -155 21v135q0 52 55 39q24 -6 47 -6q68 0 68 47q0 31 -25.5 46t-79.5 21q-16 7 -25 16.5t-9 16.5q0 6 4 14l73 140q-213 35 -350 194.5t-137 397.5z" />
<glyph unicode="&#xe8;" horiz-adv-x="1216" d="M82 543q0 168 76 300.5t207 203.5t292 71q224 0 355 -117t131 -303q0 -106 -45 -186q-24 -44 -63.5 -61t-112.5 -17h-455q21 -94 93 -143t181 -49q157 0 250 55q19 -29 34 -71t15 -72q0 -24 -27.5 -54.5t-75 -58.5t-123.5 -47t-161 -19q-252 0 -411.5 162t-159.5 406z M374 1397q49 105 121 166q37 30 76 30q30 0 68 -41l223 -237l-103 -111q-26 -26 -51 -26q-26 0 -65 26zM461 641h311q16 29 16 78q0 62 -34 97.5t-90 35.5q-85 0 -138.5 -56.5t-64.5 -154.5z" />
<glyph unicode="&#xe9;" horiz-adv-x="1216" d="M82 543q0 168 76 300.5t207 203.5t292 71q224 0 355 -117t131 -303q0 -106 -45 -186q-24 -44 -63.5 -61t-112.5 -17h-455q21 -94 93 -143t181 -49q157 0 250 55q19 -29 34 -71t15 -72q0 -24 -27.5 -54.5t-75 -58.5t-123.5 -47t-161 -19q-252 0 -411.5 162t-159.5 406z M393 1315l224 237q38 41 67 41q38 0 76 -30q72 -61 121 -166l-268 -193q-39 -26 -66 -26q-25 0 -51 26zM461 641h311q16 29 16 78q0 62 -34 97.5t-90 35.5q-85 0 -138.5 -56.5t-64.5 -154.5z" />
<glyph unicode="&#xea;" horiz-adv-x="1216" d="M82 543q0 168 76 300.5t207 203.5t292 71q224 0 355 -117t131 -303q0 -106 -45 -186q-24 -44 -63.5 -61t-112.5 -17h-455q21 -94 93 -143t181 -49q157 0 250 55q19 -29 34 -71t15 -72q0 -24 -27.5 -54.5t-75 -58.5t-123.5 -47t-161 -19q-252 0 -411.5 162t-159.5 406z M297 1319q0 24 20 41l254 223h82q27 0 44 -7t38 -26l262 -229l-100 -111q-30 -30 -55 -30q-26 0 -58 28l-149 148l-180 -178q-76 28 -133 88q-25 28 -25 53zM461 641h311q16 29 16 78q0 62 -34 97.5t-90 35.5q-85 0 -138.5 -56.5t-64.5 -154.5z" />
<glyph unicode="&#xeb;" horiz-adv-x="1216" d="M82 543q0 168 76 300.5t207 203.5t292 71q224 0 355 -117t131 -303q0 -106 -45 -186q-24 -44 -63.5 -61t-112.5 -17h-455q21 -94 93 -143t181 -49q157 0 250 55q19 -29 34 -71t15 -72q0 -24 -27.5 -54.5t-75 -58.5t-123.5 -47t-161 -19q-252 0 -411.5 162t-159.5 406z M275 1382q0 70 42 113t109 43t115.5 -48t48.5 -124q0 -70 -42.5 -113t-109.5 -43t-115 48t-48 124zM461 641h311q16 29 16 78q0 62 -34 97.5t-90 35.5q-85 0 -138.5 -56.5t-64.5 -154.5zM686 1382q0 70 42.5 113t109.5 43t115.5 -48t48.5 -124q0 -70 -42.5 -113t-109.5 -43 t-115.5 48t-48.5 124z" />
<glyph unicode="&#xec;" horiz-adv-x="686" d="M10 1397q49 105 121 166q37 30 76 30q30 0 68 -41l223 -237l-103 -111q-26 -26 -51 -26q-26 0 -65 26zM131 287v790q127 31 277 31q100 0 100 -82v-674q0 -80 61 -80h56q20 -65 20 -122q0 -62 -65.5 -113t-163.5 -51q-121 0 -203 75t-82 226z" />
<glyph unicode="&#xed;" horiz-adv-x="686" d="M125 1315l224 237q38 41 67 41q38 0 76 -30q72 -61 121 -166l-268 -193q-39 -26 -66 -26q-25 0 -51 26zM131 287v790q127 31 277 31q100 0 100 -82v-674q0 -80 61 -80h56q20 -65 20 -122q0 -62 -65.5 -113t-163.5 -51q-121 0 -203 75t-82 226z" />
<glyph unicode="&#xee;" horiz-adv-x="686" d="M-20 1319q0 24 20 41l254 223h82q27 0 44 -7t38 -26l262 -229l-100 -111q-30 -30 -55 -30q-27 0 -58 28l-149 148l-180 -178q-78 28 -134 88q-24 27 -24 53zM131 287v790q127 31 277 31q100 0 100 -82v-674q0 -80 61 -80h56q20 -65 20 -122q0 -62 -65.5 -113t-163.5 -51 q-121 0 -203 75t-82 226z" />
<glyph unicode="&#xef;" horiz-adv-x="686" d="M-45 1382q0 70 42 113t109 43t115.5 -48t48.5 -124q0 -70 -42 -113t-109 -43t-115.5 48t-48.5 124zM131 287v790q127 31 277 31q100 0 100 -82v-674q0 -80 61 -80h56q20 -65 20 -122q0 -62 -65.5 -113t-163.5 -51q-121 0 -203 75t-82 226zM367 1382q0 70 42 113t109 43 t115.5 -48t48.5 -124q0 -70 -42.5 -113t-109.5 -43t-115 48t-48 124z" />
<glyph unicode="&#xf0;" horiz-adv-x="1290" d="M74 440q0 122 39.5 224.5t108 171t160.5 107t196 38.5q71 0 134.5 -23.5t106.5 -66.5q0 138 -35 194l-90 -55q-48 -32 -80 17t-47 110l113 70q-48 26 -131 26q-148 0 -262 -57q-23 31 -36 74t-13 80q0 40 56 80t146 65t183 25q244 0 358 -111l72 45q43 27 77 -29l56 -94 l-96 -57q108 -184 108 -567q0 -348 -160 -540t-450 -192q-229 0 -371.5 131.5t-142.5 333.5zM451 436q0 -82 44.5 -128t116.5 -46q89 0 146 96.5t63 270.5q-28 29 -71 47t-86 18q-94 0 -153.5 -71t-59.5 -187z" />
<glyph unicode="&#xf1;" horiz-adv-x="1329" d="M131 63v1014q127 31 277 31q100 0 100 -82v-47q57 67 138 103t163 36q173 0 265.5 -113.5t92.5 -340.5v-312q0 -80 62 -80h55q21 -68 21 -122q0 -62 -66 -113t-164 -51q-121 0 -202.5 75t-81.5 226v389q0 79 -32 117t-100 38q-82 0 -151 -57v-774h-299q-78 0 -78 63z M322 1296q0 26 8 58q24 85 74.5 128.5t115.5 43.5q77 0 135 -45q34 -27 48.5 -35t27.5 -8q21 0 30.5 22t14.5 76l152 -39q51 -13 45 -67q-13 -101 -69.5 -158.5t-129.5 -57.5q-76 0 -135 46q-34 27 -48.5 35t-27.5 8q-21 0 -30 -20t-15 -69q-78 -6 -151 23q-45 19 -45 59z " />
<glyph unicode="&#xf2;" horiz-adv-x="1318" d="M82 547q0 133 47.5 242.5t127.5 180.5t183.5 109.5t218.5 38.5t218.5 -38.5t184 -109.5t128 -180.5t47.5 -242.5q0 -107 -31 -199.5t-85.5 -160t-127 -116t-158 -72.5t-176.5 -24q-114 0 -218 38.5t-184 109.5t-127.5 181t-47.5 243zM376 1397q49 105 121 166 q37 30 76 30q30 0 68 -41l223 -237l-103 -111q-26 -26 -51 -26q-26 0 -65 26zM459 557q0 -138 56 -216.5t153 -78.5q90 0 141 70.5t51 204.5q0 138 -56 216t-153 78q-90 0 -141 -70t-51 -204z" />
<glyph unicode="&#xf3;" horiz-adv-x="1318" d="M82 547q0 133 47.5 242.5t127.5 180.5t183.5 109.5t218.5 38.5t218.5 -38.5t184 -109.5t128 -180.5t47.5 -242.5q0 -107 -31 -199.5t-85.5 -160t-127 -116t-158 -72.5t-176.5 -24q-114 0 -218 38.5t-184 109.5t-127.5 181t-47.5 243zM436 1315l224 237q38 41 67 41 q39 0 76 -30q72 -61 121 -166l-268 -193q-39 -26 -66 -26q-25 0 -51 26zM459 557q0 -138 56 -216.5t153 -78.5q90 0 141 70.5t51 204.5q0 138 -56 216t-153 78q-90 0 -141 -70t-51 -204z" />
<glyph unicode="&#xf4;" horiz-adv-x="1318" d="M82 547q0 133 47.5 242.5t127.5 180.5t183.5 109.5t218.5 38.5t218.5 -38.5t184 -109.5t128 -180.5t47.5 -242.5q0 -107 -31 -199.5t-85.5 -160t-127 -116t-158 -72.5t-176.5 -24q-114 0 -218 38.5t-184 109.5t-127.5 181t-47.5 243zM322 1319q0 24 20 41l254 223h82 q27 0 44 -7t38 -26l262 -229l-100 -111q-30 -30 -55 -30q-27 0 -58 28l-149 148l-180 -178q-78 28 -134 88q-24 27 -24 53zM459 557q0 -138 56 -216.5t153 -78.5q90 0 141 70.5t51 204.5q0 138 -56 216t-153 78q-90 0 -141 -70t-51 -204z" />
<glyph unicode="&#xf5;" horiz-adv-x="1318" d="M82 547q0 133 47.5 242.5t127.5 180.5t183.5 109.5t218.5 38.5t218.5 -38.5t184 -109.5t128 -180.5t47.5 -242.5q0 -107 -31 -199.5t-85.5 -160t-127 -116t-158 -72.5t-176.5 -24q-114 0 -218 38.5t-184 109.5t-127.5 181t-47.5 243zM331 1296q0 22 9 58 q24 85 74.5 128.5t115.5 43.5q77 0 135 -45q34 -27 48.5 -35t27.5 -8q21 0 30.5 22t14.5 76l152 -39q51 -13 45 -67q-13 -101 -69 -158t-130 -57q-77 0 -135 45q-34 27 -48.5 35t-27.5 8q-21 0 -30 -19.5t-15 -68.5q-81 -6 -152 22q-45 19 -45 59zM459 557q0 -138 56 -216.5 t153 -78.5q90 0 141 70.5t51 204.5q0 138 -56 216t-153 78q-90 0 -141 -70t-51 -204z" />
<glyph unicode="&#xf6;" horiz-adv-x="1318" d="M82 547q0 133 47.5 242.5t127.5 180.5t183.5 109.5t218.5 38.5t218.5 -38.5t184 -109.5t128 -180.5t47.5 -242.5q0 -107 -31 -199.5t-85.5 -160t-127 -116t-158 -72.5t-176.5 -24q-114 0 -218 38.5t-184 109.5t-127.5 181t-47.5 243zM297 1382q0 70 42.5 113t109.5 43 t115 -48t48 -124q0 -70 -42 -113t-109 -43t-115.5 48t-48.5 124zM459 557q0 -138 56 -216.5t153 -78.5q90 0 141 70.5t51 204.5q0 138 -56 216t-153 78q-90 0 -141 -70t-51 -204zM709 1382q0 70 42 113t109 43t115.5 -48t48.5 -124q0 -70 -42.5 -113t-109.5 -43t-115 48 t-48 124z" />
<glyph unicode="&#xf7;" horiz-adv-x="1282" d="M131 623q0 -80 76 -80h944v211q0 63 -78 63h-915q-27 -95 -27 -194zM471 289q0 75 46.5 121.5t117.5 46.5q72 0 124 -51.5t52 -133.5q0 -76 -46.5 -122t-117.5 -46q-72 0 -124 51.5t-52 133.5zM471 1087q0 75 46.5 121.5t117.5 46.5q72 0 124 -51t52 -133 q0 -75 -46.5 -121.5t-117.5 -46.5q-72 0 -124 51t-52 133z" />
<glyph unicode="&#xf8;" horiz-adv-x="1318" d="M82 547q0 133 47.5 242.5t127.5 180.5t183.5 109.5t218.5 38.5q181 0 324 -90l61 66h138q40 0 53 -18.5t-8 -41.5l-113 -123q123 -149 123 -364q0 -107 -31 -199.5t-85.5 -160t-127 -116t-158 -72.5t-176.5 -24q-180 0 -325 91l-60 -66h-137q-41 0 -53.5 18t8.5 41 l111 121q-121 150 -121 367zM459 557q0 -49 6 -92l301 328q-47 38 -115 38q-90 0 -141 -70t-51 -204zM551 301q48 -39 117 -39q90 0 141 70.5t51 204.5q0 54 -8 90z" />
<glyph unicode="&#xf9;" horiz-adv-x="1282" d="M119 471v606q127 31 276 31q101 0 101 -82v-567q0 -85 37.5 -132.5t107.5 -47.5q69 0 107 47.5t38 132.5v635h299q78 0 78 -64v-559q0 -227 -144.5 -360.5t-377.5 -133.5q-235 0 -378.5 133t-143.5 361zM356 1397q49 105 121 166q37 30 76 30q30 0 68 -41l223 -237 l-103 -111q-26 -26 -51 -26q-26 0 -65 26z" />
<glyph unicode="&#xfa;" horiz-adv-x="1282" d="M119 471v606q127 31 276 31q101 0 101 -82v-567q0 -85 37.5 -132.5t107.5 -47.5q69 0 107 47.5t38 132.5v635h299q78 0 78 -64v-559q0 -227 -144.5 -360.5t-377.5 -133.5q-235 0 -378.5 133t-143.5 361zM419 1315l224 237q38 41 67 41q38 0 76 -30q72 -61 121 -166 l-268 -193q-39 -26 -66 -26q-25 0 -51 26z" />
<glyph unicode="&#xfb;" horiz-adv-x="1282" d="M119 471v606q127 31 276 31q101 0 101 -82v-567q0 -85 37.5 -132.5t107.5 -47.5q69 0 107 47.5t38 132.5v635h299q78 0 78 -64v-559q0 -227 -144.5 -360.5t-377.5 -133.5q-235 0 -378.5 133t-143.5 361zM301 1319q0 24 20 41l254 223h82q27 0 44 -7t38 -26l262 -229 l-100 -111q-30 -30 -55 -30q-26 0 -58 28l-149 148l-180 -178q-78 28 -134 88q-24 27 -24 53z" />
<glyph unicode="&#xfc;" horiz-adv-x="1282" d="M119 471q0 -228 143.5 -361t378.5 -133q233 0 377.5 133.5t144.5 360.5v559q0 64 -78 64h-299v-635q0 -85 -38 -132.5t-107 -47.5q-70 0 -107.5 47.5t-37.5 132.5v567q0 82 -101 82q-149 0 -276 -31v-606zM279 1382q0 70 42 113t109 43t115.5 -48t48.5 -124 q0 -70 -42.5 -113t-109.5 -43t-115 48t-48 124zM690 1382q0 70 42.5 113t109.5 43t115.5 -48t48.5 -124q0 -70 -42.5 -113t-109.5 -43t-115.5 48t-48.5 124z" />
<glyph unicode="&#xfd;" horiz-adv-x="1294" d="M127 430v637q127 31 276 31q101 0 101 -82v-598q0 -80 31 -118t98 -38q78 0 153 57v775h299q78 0 78 -64v-1005q0 -111 -35.5 -205.5t-106 -169t-186 -116.5t-264.5 -42q-197 0 -314.5 82.5t-117.5 210.5q0 77 45.5 141t124.5 99q-182 95 -182 405zM426 1315l224 237 q38 41 67 41q39 0 76 -30q72 -61 121 -166l-268 -193q-39 -26 -66 -26q-25 0 -51 26zM512 -145q0 -40 25 -63t69 -23q84 0 132 64t48 183v99q-83 -100 -194 -127q-80 -58 -80 -133z" />
<glyph unicode="&#xfe;" horiz-adv-x="1337" d="M131 -332v1811q123 30 277 30q100 0 100 -82v-466q112 157 299 157q194 0 321 -144.5t127 -379.5q0 -142 -42 -261t-112.5 -196t-160 -119.5t-186.5 -42.5q-156 0 -246 97v-467h-299q-78 0 -78 63zM508 309q53 -47 135 -47q103 0 169.5 91.5t66.5 232.5q0 245 -177 245 q-61 0 -113 -41t-81 -114v-367z" />
<glyph unicode="&#xff;" horiz-adv-x="1294" d="M127 430v637q127 31 276 31q101 0 101 -82v-598q0 -80 31 -118t98 -38q78 0 153 57v775h299q78 0 78 -64v-1005q0 -111 -35.5 -205.5t-106 -169t-186 -116.5t-264.5 -42q-197 0 -314.5 82.5t-117.5 210.5q0 77 45.5 141t124.5 99q-182 95 -182 405zM283 1382q0 70 42 113 t109 43t115.5 -48t48.5 -124q0 -70 -42.5 -113t-109.5 -43t-115 48t-48 124zM512 -145q0 -40 25 -63t69 -23q84 0 132 64t48 183v99q-83 -100 -194 -127q-80 -58 -80 -133zM694 1382q0 70 42.5 113t109.5 43t115.5 -48t48.5 -124q0 -70 -42.5 -113t-109.5 -43t-115.5 48 t-48.5 124z" />
<glyph unicode="&#x100;" d="M45 72q-10 -32 7 -52t54 -20h332l68 227h442l53 -170q9 -30 31 -43.5t64 -13.5h340l-486 1341q-22 62 -55 84.5t-104 22.5q-140 0 -269 -55zM424 1677q0 63 25 140h518q63 0 63 -78v-142h-526q-80 0 -80 80zM596 526l131 428l131 -428h-262z" />
<glyph unicode="&#x101;" horiz-adv-x="1232" d="M74 336q0 161 116 255.5t304 94.5q132 0 200 -33v60q0 143 -205 143q-153 0 -292 -68q-41 61 -41 134q0 43 59.5 88.5t164 76.5t218.5 31q236 0 356.5 -113.5t120.5 -334.5v-318q0 -80 62 -80h55q20 -65 20 -122q0 -62 -65.5 -113t-163.5 -51q-73 0 -137 34.5t-103 100.5 q-95 -146 -286 -146q-171 0 -277 103t-106 258zM307 1339q0 63 25 140h518q63 0 63 -78v-141h-526q-80 0 -80 79zM451 348q0 -52 30.5 -81t75.5 -29q47 0 85 28.5t56 85.5v113q-43 14 -110 14q-63 0 -100 -36.5t-37 -94.5z" />
<glyph unicode="&#x102;" d="M45 72q-10 -32 7 -52t54 -20h332l68 227h442l53 -170q9 -30 31 -43.5t64 -13.5h340l-486 1341q-22 62 -55 84.5t-104 22.5q-140 0 -269 -55zM406 1862q29 23 77.5 39t87.5 16q31 0 46.5 -10.5t19.5 -38.5q18 -121 94 -121q48 0 69.5 37.5t24.5 128.5h166q35 0 47.5 -11.5 t10.5 -37.5q-12 -146 -96.5 -225.5t-223.5 -79.5q-129 0 -215 73t-108 230zM596 526l131 428l131 -428h-262z" />
<glyph unicode="&#x103;" horiz-adv-x="1232" d="M74 336q0 161 116 255.5t304 94.5q132 0 200 -33v60q0 143 -205 143q-153 0 -292 -68q-41 61 -41 134q0 43 59.5 88.5t164 76.5t218.5 31q236 0 356.5 -113.5t120.5 -334.5v-318q0 -80 62 -80h55q20 -65 20 -122q0 -62 -65.5 -113t-163.5 -51q-73 0 -137 34.5t-103 100.5 q-95 -146 -286 -146q-171 0 -277 103t-106 258zM287 1503q29 23 78 39.5t88 16.5q30 0 45.5 -11t19.5 -39q18 -120 94 -120q48 0 70 37t25 128h165q35 0 47.5 -11.5t10.5 -37.5q-12 -146 -96.5 -225.5t-223.5 -79.5q-129 0 -215 73t-108 230zM451 348q0 -52 30.5 -81 t75.5 -29q47 0 85 28.5t56 85.5v113q-43 14 -110 14q-63 0 -100 -36.5t-37 -94.5z" />
<glyph unicode="&#x104;" d="M45 72l477 1321q129 55 269 55q71 0 104 -22.5t55 -84.5l486 -1341q-67 -47 -104.5 -105.5t-37.5 -113.5q0 -35 22.5 -55.5t59.5 -20.5q28 0 43 6q54 16 54 -39v-129q-59 -35 -177 -35q-114 0 -186 61t-72 163q0 74 43.5 148.5t116.5 119.5h-102q-42 0 -64 13.5t-31 43.5 l-53 170h-442l-68 -227h-332q-37 0 -54 20t-7 52zM596 526h262l-131 428z" />
<glyph unicode="&#x105;" horiz-adv-x="1232" d="M74 336q0 161 116 255.5t304 94.5q132 0 200 -33v60q0 143 -205 143q-153 0 -292 -68q-41 61 -41 134q0 43 59.5 88.5t164 76.5t218.5 31q236 0 356.5 -113.5t120.5 -334.5v-318q0 -80 62 -80h55q20 -65 20 -122q0 -47 -39 -89.5t-104 -62.5q-65 -47 -101 -104.5 t-36 -112.5q0 -35 22.5 -55.5t59.5 -20.5q28 0 43 6q53 16 53 -39v-129q-59 -35 -176 -35q-114 0 -186 61t-72 163q0 78 46 155t136 127q-74 38 -115 107q-95 -146 -286 -146q-171 0 -277 103t-106 258zM451 348q0 -52 30.5 -81t75.5 -29q47 0 85 28.5t56 85.5v113 q-43 14 -110 14q-63 0 -100 -36.5t-37 -94.5z" />
<glyph unicode="&#x106;" d="M90 752q0 209 89.5 370t248 248.5t358.5 87.5q204 0 353.5 -78t226.5 -209q23 -42 23 -79q0 -57 -70 -99q-114 -65 -270 -75q-78 221 -269 221q-133 0 -213 -100.5t-80 -280.5q0 -204 123.5 -333.5t331.5 -129.5q94 0 184.5 20t153.5 56q24 -31 42.5 -83.5t18.5 -88.5 t-40 -75.5t-105 -72.5t-156.5 -54.5t-185.5 -21.5q-162 0 -303 57t-242.5 158t-160 246.5t-58.5 315.5zM542 1671l224 237q38 41 67 41q39 0 76 -30q72 -61 121 -166l-268 -193q-39 -26 -66 -26q-25 0 -51 26z" />
<glyph unicode="&#x107;" horiz-adv-x="1159" d="M82 578q0 114 38 213t108 171.5t175 114t232 41.5q154 0 272 -58.5t176 -152.5q23 -40 23 -76q0 -55 -76 -98q-86 -49 -242 -67q-20 87 -59 126t-100 39q-80 0 -125 -65t-45 -184q0 -144 88 -232t237 -88q143 0 242 62q21 -30 37 -76t16 -78q0 -27 -29 -60t-79 -63.5 t-128.5 -51t-166.5 -20.5q-122 0 -231 43.5t-189 120.5t-127 191t-47 248zM383 1315l224 237q38 41 67 41q38 0 76 -30q72 -61 121 -166l-268 -193q-39 -26 -66 -26q-25 0 -51 26z" />
<glyph unicode="&#x108;" d="M90 752q0 209 89.5 370t248 248.5t358.5 87.5q204 0 353.5 -78t226.5 -209q23 -42 23 -79q0 -57 -70 -99q-114 -65 -270 -75q-78 221 -269 221q-133 0 -213 -100.5t-80 -280.5q0 -204 123.5 -333.5t331.5 -129.5q94 0 184.5 20t153.5 56q24 -31 42.5 -83.5t18.5 -88.5 t-40 -75.5t-105 -72.5t-156.5 -54.5t-185.5 -21.5q-162 0 -303 57t-242.5 158t-160 246.5t-58.5 315.5zM436 1675q0 24 20 41l254 223h82q27 0 44 -7t38 -26l262 -229l-100 -111q-30 -30 -55 -30q-27 0 -58 28l-149 148l-180 -178q-78 28 -134 88q-24 27 -24 53z" />
<glyph unicode="&#x109;" horiz-adv-x="1159" d="M82 578q0 114 38 213t108 171.5t175 114t232 41.5q154 0 272 -58.5t176 -152.5q23 -40 23 -76q0 -55 -76 -98q-86 -49 -242 -67q-20 87 -59 126t-100 39q-80 0 -125 -65t-45 -184q0 -144 88 -232t237 -88q143 0 242 62q21 -30 37 -76t16 -78q0 -27 -29 -60t-79 -63.5 t-128.5 -51t-166.5 -20.5q-122 0 -231 43.5t-189 120.5t-127 191t-47 248zM273 1319q0 24 20 41l254 223h82q27 0 44 -7t38 -26l262 -229l-100 -111q-30 -30 -55 -30q-26 0 -58 28l-149 148l-180 -178q-78 28 -134 88q-24 27 -24 53z" />
<glyph unicode="&#x10a;" d="M90 752q0 209 89.5 370t248 248.5t358.5 87.5q204 0 353.5 -78t226.5 -209q23 -42 23 -79q0 -57 -70 -99q-114 -65 -270 -75q-78 221 -269 221q-133 0 -213 -100.5t-80 -280.5q0 -204 123.5 -333.5t331.5 -129.5q94 0 184.5 20t153.5 56q24 -31 42.5 -83.5t18.5 -88.5 t-40 -75.5t-105 -72.5t-156.5 -54.5t-185.5 -21.5q-162 0 -303 57t-242.5 158t-160 246.5t-58.5 315.5zM616 1739q0 70 42.5 112.5t109.5 42.5t115.5 -48t48.5 -124q0 -70 -42.5 -112.5t-109.5 -42.5t-115.5 48t-48.5 124z" />
<glyph unicode="&#x10b;" horiz-adv-x="1159" d="M82 578q0 114 38 213t108 171.5t175 114t232 41.5q154 0 272 -58.5t176 -152.5q23 -40 23 -76q0 -55 -76 -98q-86 -49 -242 -67q-20 87 -59 126t-100 39q-80 0 -125 -65t-45 -184q0 -144 88 -232t237 -88q143 0 242 62q21 -30 37 -76t16 -78q0 -27 -29 -60t-79 -63.5 t-128.5 -51t-166.5 -20.5q-122 0 -231 43.5t-189 120.5t-127 191t-47 248zM463 1382q0 70 42 113t109 43t115.5 -48t48.5 -124q0 -70 -42 -113t-109 -43t-115.5 48t-48.5 124z" />
<glyph unicode="&#x10c;" d="M90 752q0 209 89.5 370t248 248.5t358.5 87.5q204 0 353.5 -78t226.5 -209q23 -42 23 -79q0 -57 -70 -99q-114 -65 -270 -75q-78 221 -269 221q-133 0 -213 -100.5t-80 -280.5q0 -204 123.5 -333.5t331.5 -129.5q94 0 184.5 20t153.5 56q24 -31 42.5 -83.5t18.5 -88.5 t-40 -75.5t-105 -72.5t-156.5 -54.5t-185.5 -21.5q-162 0 -303 57t-242.5 158t-160 246.5t-58.5 315.5zM457 1780q29 73 68 116t75 43q18 0 41 -20l158 -156l186 185l109 -101q32 -28 32 -57q0 -27 -36 -55l-226 -199h-86q-27 0 -44 7t-38 26z" />
<glyph unicode="&#x10d;" horiz-adv-x="1159" d="M82 578q0 114 38 213t108 171.5t175 114t232 41.5q154 0 272 -58.5t176 -152.5q23 -40 23 -76q0 -55 -76 -98q-86 -49 -242 -67q-20 87 -59 126t-100 39q-80 0 -125 -65t-45 -184q0 -144 88 -232t237 -88q143 0 242 62q21 -30 37 -76t16 -78q0 -27 -29 -60t-79 -63.5 t-128.5 -51t-166.5 -20.5q-122 0 -231 43.5t-189 120.5t-127 191t-47 248zM281 1423q30 73 68.5 116.5t74.5 43.5q18 0 41 -20l158 -156l186 184l109 -100q32 -28 32 -57q0 -27 -37 -56l-225 -198h-86q-28 0 -45 6.5t-37 25.5z" />
<glyph unicode="&#x10e;" horiz-adv-x="1505" d="M143 500v934h574q151 0 279 -50t221 -141.5t145.5 -226.5t52.5 -299q0 -218 -91.5 -381.5t-253.5 -249.5t-374 -86h-90q-240 0 -351.5 122t-111.5 378zM336 1779q30 73 68.5 116.5t74.5 43.5q18 0 41 -20l158 -156l186 184l109 -100q33 -29 33 -57q0 -27 -37 -56 l-225 -198h-86q-28 0 -45 6.5t-37 25.5zM541 526q0 -115 36 -161t117 -46h15q147 0 228 99.5t81 298.5t-81 298t-228 99h-168v-588z" />
<glyph unicode="&#x10f;" horiz-adv-x="1734" d="M82 500q0 142 42.5 261t113 195.5t160 119t186.5 42.5q156 0 245 -96v473h299q78 0 78 -63v-1080q0 -80 62 -80h55q20 -65 20 -122q0 -62 -65.5 -113t-163.5 -51q-84 0 -155 45t-105 131q-60 -96 -144.5 -141.5t-179.5 -45.5q-194 0 -321 144.5t-127 380.5zM459 508 q0 -246 176 -246q61 0 113 41.5t81 114.5v366q-53 47 -135 47q-103 0 -169 -91t-66 -232zM1333 1331q0 86 53 137.5t134 51.5q79 0 138.5 -57t59.5 -148q-3 -189 -123 -338q-51 -63 -101.5 -95t-72.5 -20q-48 27 -61 82q86 86 104 195q-58 20 -94.5 70.5t-36.5 121.5z" />
<glyph unicode="&#x110;" horiz-adv-x="1505" d="M0 682q0 72 16 125h127v627h574q151 0 279 -50t221 -141.5t145.5 -226.5t52.5 -299q0 -218 -91.5 -381.5t-253.5 -249.5t-374 -86h-90q-240 0 -351.5 122t-111.5 378v127h-84q-59 0 -59 55zM541 526q0 -115 36 -161t117 -46h15q147 0 228 99.5t81 298.5t-81 298t-228 99 h-168v-307h215q27 0 39 -15.5t12 -50.5v-114h-266v-101z" />
<glyph unicode="&#x111;" horiz-adv-x="1374" d="M82 500q0 142 42.5 261t113 195.5t160 119t186.5 42.5q156 0 245 -96v176h-243q-60 0 -60 55q0 69 17 125h286v117h299q78 0 78 -63v-54h74q27 0 39 -15t12 -50v-115h-125v-846q0 -80 62 -80h55q20 -65 20 -122q0 -62 -65.5 -113t-163.5 -51q-84 0 -155 45t-105 131 q-60 -96 -144.5 -141.5t-179.5 -45.5q-194 0 -321 144.5t-127 380.5zM459 508q0 -246 176 -246q61 0 113 41.5t81 114.5v366q-53 47 -135 47q-103 0 -169 -91t-66 -232z" />
<glyph unicode="&#x112;" horiz-adv-x="1210" d="M143 500q0 -256 111.5 -378t351.5 -122h514v242q0 77 -63 77h-379q-79 0 -108 44.5t-29 162.5v29h452v242q0 77 -63 77h-389v240h538q25 132 25 234q0 86 -76 86h-885v-934zM313 1698q0 62 25 139h518q64 0 64 -78v-141h-527q-80 0 -80 80z" />
<glyph unicode="&#x113;" horiz-adv-x="1216" d="M82 543q0 168 76 300.5t207 203.5t292 71q224 0 355 -117t131 -303q0 -106 -45 -186q-24 -44 -63.5 -61t-112.5 -17h-455q21 -94 93 -143t181 -49q157 0 250 55q19 -29 34 -71t15 -72q0 -24 -27.5 -54.5t-75 -58.5t-123.5 -47t-161 -19q-252 0 -411.5 162t-159.5 406z M344 1339q0 63 25 140h518q63 0 63 -78v-141h-526q-80 0 -80 79zM461 641h311q16 29 16 78q0 62 -34 97.5t-90 35.5q-85 0 -138.5 -56.5t-64.5 -154.5z" />
<glyph unicode="&#x114;" horiz-adv-x="1210" d="M143 500q0 -256 111.5 -378t351.5 -122h514v242q0 77 -63 77h-379q-79 0 -108 44.5t-29 162.5v29h452v242q0 77 -63 77h-389v240h538q25 132 25 234q0 86 -76 86h-885v-934zM291 1862q29 23 78 39t88 16q31 0 46 -10.5t19 -38.5q18 -121 94 -121q48 0 70 37.5t25 128.5 h166q35 0 47 -11.5t10 -37.5q-12 -146 -96.5 -225.5t-223.5 -79.5q-129 0 -215 73t-108 230z" />
<glyph unicode="&#x115;" horiz-adv-x="1216" d="M82 543q0 168 76 300.5t207 203.5t292 71q224 0 355 -117t131 -303q0 -106 -45 -186q-24 -44 -63.5 -61t-112.5 -17h-455q21 -94 93 -143t181 -49q157 0 250 55q19 -29 34 -71t15 -72q0 -24 -27.5 -54.5t-75 -58.5t-123.5 -47t-161 -19q-252 0 -411.5 162t-159.5 406z M324 1503q29 23 78 39.5t87 16.5q31 0 46.5 -11t19.5 -39q18 -120 94 -120q48 0 69.5 37t24.5 128h166q35 0 47.5 -11.5t10.5 -37.5q-12 -146 -96.5 -225.5t-223.5 -79.5q-129 0 -215 73t-108 230zM461 641h311q16 29 16 78q0 62 -34 97.5t-90 35.5q-85 0 -138.5 -56.5 t-64.5 -154.5z" />
<glyph unicode="&#x116;" horiz-adv-x="1210" d="M143 500q0 -256 111.5 -378t351.5 -122h514v242q0 77 -63 77h-379q-79 0 -108 44.5t-29 162.5v29h452v242q0 77 -63 77h-389v240h538q25 132 25 234q0 86 -76 86h-885v-934zM457 1739q0 70 42 112.5t109 42.5t115.5 -48t48.5 -124q0 -70 -42 -112.5t-109 -42.5t-115.5 48 t-48.5 124z" />
<glyph unicode="&#x117;" horiz-adv-x="1216" d="M82 543q0 168 76 300.5t207 203.5t292 71q224 0 355 -117t131 -303q0 -106 -45 -186q-24 -44 -63.5 -61t-112.5 -17h-455q21 -94 93 -143t181 -49q157 0 250 55q19 -29 34 -71t15 -72q0 -24 -27.5 -54.5t-75 -58.5t-123.5 -47t-161 -19q-252 0 -411.5 162t-159.5 406z M461 641h311q16 29 16 78q0 62 -34 97.5t-90 35.5q-85 0 -138.5 -56.5t-64.5 -154.5zM487 1382q0 70 42.5 113t109.5 43t115.5 -48t48.5 -124q0 -70 -42.5 -113t-109.5 -43t-115.5 48t-48.5 124z" />
<glyph unicode="&#x118;" horiz-adv-x="1210" d="M143 500v934h885q76 0 76 -86q0 -102 -25 -234h-538v-240h389q63 0 63 -77v-242h-452v-29q0 -118 29 -162.5t108 -44.5h379q63 0 63 -77v-242h-71q-67 -47 -104.5 -105.5t-37.5 -113.5q0 -35 22.5 -55.5t59.5 -20.5q28 0 43 6q53 16 53 -39v-129q-59 -35 -176 -35 q-114 0 -186 61t-72 163q0 74 43.5 148.5t116.5 119.5h-205q-240 0 -351.5 122t-111.5 378z" />
<glyph unicode="&#x119;" horiz-adv-x="1216" d="M82 543q0 168 76 300.5t207 203.5t292 71q224 0 355 -117t131 -303q0 -106 -45 -186q-24 -44 -63.5 -61t-112.5 -17h-455q21 -94 93 -143t181 -49q157 0 250 55q19 -29 34 -71t15 -72q0 -32 -45.5 -73t-120.5 -69q-81 -55 -119 -115t-38 -116q0 -35 22.5 -55.5 t59.5 -20.5q28 0 43 6q53 16 53 -39v-129q-59 -35 -176 -35q-114 0 -186 61t-72 163q0 67 34.5 134t94.5 114q-227 20 -367.5 177.5t-140.5 385.5zM461 641h311q16 29 16 78q0 62 -34 97.5t-90 35.5q-85 0 -138.5 -56.5t-64.5 -154.5z" />
<glyph unicode="&#x11a;" horiz-adv-x="1210" d="M143 500v934h885q76 0 76 -86q0 -102 -25 -234h-538v-240h389q63 0 63 -77v-242h-452v-29q0 -118 29 -162.5t108 -44.5h379q63 0 63 -77v-242h-514q-240 0 -351.5 122t-111.5 378zM287 1779q30 73 68.5 116.5t74.5 43.5q18 0 41 -20l158 -156l186 184l109 -100 q33 -29 33 -57q0 -27 -37 -56l-225 -198h-86q-28 0 -45 6.5t-37 25.5z" />
<glyph unicode="&#x11b;" horiz-adv-x="1216" d="M82 543q0 168 76 300.5t207 203.5t292 71q224 0 355 -117t131 -303q0 -106 -45 -186q-24 -44 -63.5 -61t-112.5 -17h-455q21 -94 93 -143t181 -49q157 0 250 55q19 -29 34 -71t15 -72q0 -24 -27.5 -54.5t-75 -58.5t-123.5 -47t-161 -19q-252 0 -411.5 162t-159.5 406z M307 1423q30 73 68.5 116.5t74.5 43.5q18 0 41 -20l158 -156l186 184l109 -100q33 -29 33 -57q0 -27 -37 -56l-225 -198h-86q-28 0 -45 6.5t-37 25.5zM461 641h311q16 29 16 78q0 62 -34 97.5t-90 35.5q-85 0 -138.5 -56.5t-64.5 -154.5z" />
<glyph unicode="&#x11c;" horiz-adv-x="1566" d="M90 752q0 211 91.5 372t254 247.5t371.5 86.5q200 0 354.5 -80t233.5 -204q22 -35 22 -76q0 -53 -69 -94q-116 -66 -271 -76q-92 211 -282 211q-138 0 -223 -99t-85 -282q0 -206 113.5 -334.5t269.5 -128.5q94 0 135.5 32.5t41.5 108.5v76h-183q-37 0 -58.5 24t-21.5 66 q0 91 25 189h496q71 0 105 -30.5t34 -98.5v-244q0 -90 -38 -169t-111 -140.5t-189 -97.5t-262 -36q-155 0 -293 56t-240 155.5t-161.5 246t-59.5 319.5zM449 1675q0 24 20 41l254 223h82q28 0 45 -6.5t37 -25.5l262 -230l-100 -110q-31 -31 -56 -31q-24 0 -57 29l-150 147 l-180 -178q-76 28 -133 88q-24 27 -24 53z" />
<glyph unicode="&#x11d;" horiz-adv-x="1337" d="M82 500q0 142 42.5 261t113 195.5t160 119t186.5 42.5q156 0 245 -96v72h299q78 0 78 -64v-1001q0 -108 -43 -204.5t-122.5 -170.5t-201 -117t-268.5 -43q-222 0 -338 83t-116 218q0 76 52 141.5t150 96.5q-110 61 -173.5 183.5t-63.5 283.5zM362 1319q0 23 21 41 l254 223h82q27 0 44 -7t38 -26l262 -229l-100 -111q-30 -30 -56 -30q-25 0 -57 28l-150 148l-180 -178q-76 28 -133 88q-25 28 -25 53zM459 508q0 -246 176 -246q61 0 113 41.5t81 114.5v366q-53 47 -135 47q-103 0 -169 -91t-66 -232zM489 -145q0 -40 28.5 -62t80.5 -22 q104 0 167.5 66t63.5 179v111q-106 -137 -268 -150q-72 -47 -72 -122z" />
<glyph unicode="&#x11e;" horiz-adv-x="1566" d="M90 752q0 211 91.5 372t254 247.5t371.5 86.5q200 0 354.5 -80t233.5 -204q22 -35 22 -76q0 -53 -69 -94q-116 -66 -271 -76q-92 211 -282 211q-138 0 -223 -99t-85 -282q0 -206 113.5 -334.5t269.5 -128.5q94 0 135.5 32.5t41.5 108.5v76h-183q-37 0 -58.5 24t-21.5 66 q0 91 25 189h496q71 0 105 -30.5t34 -98.5v-244q0 -90 -38 -169t-111 -140.5t-189 -97.5t-262 -36q-155 0 -293 56t-240 155.5t-161.5 246t-59.5 319.5zM462 1861q29 23 78 39.5t88 16.5q31 0 46.5 -11t19.5 -39q18 -120 94 -120q48 0 69.5 37t24.5 128h166q35 0 47.5 -11.5 t10.5 -37.5q-12 -146 -96.5 -225.5t-223.5 -79.5q-129 0 -215.5 73t-108.5 230z" />
<glyph unicode="&#x11f;" horiz-adv-x="1337" d="M82 500q0 142 42.5 261t113 195.5t160 119t186.5 42.5q156 0 245 -96v72h299q78 0 78 -64v-1001q0 -108 -43 -204.5t-122.5 -170.5t-201 -117t-268.5 -43q-222 0 -338 83t-116 218q0 76 52 141.5t150 96.5q-110 61 -173.5 183.5t-63.5 283.5zM376 1503q29 23 78 39.5 t88 16.5q31 0 46.5 -11t19.5 -39q18 -120 94 -120q48 0 69.5 37t24.5 128h166q35 0 47.5 -11.5t10.5 -37.5q-12 -146 -96.5 -225.5t-223.5 -79.5q-129 0 -215.5 73t-108.5 230zM459 508q0 -246 176 -246q61 0 113 41.5t81 114.5v366q-53 47 -135 47q-103 0 -169 -91 t-66 -232zM489 -145q0 -40 28.5 -62t80.5 -22q104 0 167.5 66t63.5 179v111q-106 -137 -268 -150q-72 -47 -72 -122z" />
<glyph unicode="&#x120;" horiz-adv-x="1566" d="M90 752q0 211 91.5 372t254 247.5t371.5 86.5q200 0 354.5 -80t233.5 -204q22 -35 22 -76q0 -53 -69 -94q-116 -66 -271 -76q-92 211 -282 211q-138 0 -223 -99t-85 -282q0 -206 113.5 -334.5t269.5 -128.5q94 0 135.5 32.5t41.5 108.5v76h-183q-37 0 -58.5 24t-21.5 66 q0 91 25 189h496q71 0 105 -30.5t34 -98.5v-244q0 -90 -38 -169t-111 -140.5t-189 -97.5t-262 -36q-155 0 -293 56t-240 155.5t-161.5 246t-59.5 319.5zM621 1739q0 70 42 112.5t109 42.5t115.5 -48t48.5 -124q0 -70 -42.5 -112.5t-109.5 -42.5t-115 48t-48 124z" />
<glyph unicode="&#x121;" horiz-adv-x="1337" d="M82 500q0 142 42.5 261t113 195.5t160 119t186.5 42.5q156 0 245 -96v72h299q78 0 78 -64v-1001q0 -108 -43 -204.5t-122.5 -170.5t-201 -117t-268.5 -43q-222 0 -338 83t-116 218q0 76 52 141.5t150 96.5q-110 61 -173.5 183.5t-63.5 283.5zM459 508q0 -246 176 -246 q61 0 113 41.5t81 114.5v366q-53 47 -135 47q-103 0 -169 -91t-66 -232zM489 -145q0 -40 28.5 -62t80.5 -22q104 0 167.5 66t63.5 179v111q-106 -137 -268 -150q-72 -47 -72 -122zM540 1382q0 70 42.5 113t109.5 43t115.5 -48t48.5 -124q0 -70 -42.5 -113t-109.5 -43 t-115.5 48t-48.5 124z" />
<glyph unicode="&#x122;" horiz-adv-x="1566" d="M90 752q0 211 91.5 372t254 247.5t371.5 86.5q200 0 354.5 -80t233.5 -204q22 -35 22 -76q0 -53 -69 -94q-116 -66 -271 -76q-92 211 -282 211q-138 0 -223 -99t-85 -282q0 -206 113.5 -334.5t269.5 -128.5q94 0 135.5 32.5t41.5 108.5v76h-183q-37 0 -58.5 24t-21.5 66 q0 91 25 189h496q71 0 105 -30.5t34 -98.5v-244q0 -90 -38 -169t-111 -140.5t-189 -97.5t-262 -36q-155 0 -293 56t-240 155.5t-161.5 246t-59.5 319.5zM692 -227q0 -54 32 -93t83 -55q-17 -68 -94 -135q4 -20 18 -38.5t29 -26.5q24 -11 75.5 12t96.5 71q102 108 102 246 q0 70 -50.5 117t-121.5 47q-74 0 -122 -42t-48 -103z" />
<glyph unicode="&#x123;" horiz-adv-x="1337" d="M82 500q0 142 42.5 261t113 195.5t160 119t186.5 42.5q156 0 245 -96v72h299q78 0 78 -64v-1001q0 -108 -43 -204.5t-122.5 -170.5t-201 -117t-268.5 -43q-222 0 -338 83t-116 218q0 76 52 141.5t150 96.5q-110 61 -173.5 183.5t-63.5 283.5zM459 508q0 -246 176 -246 q61 0 113 41.5t81 114.5v366q-53 47 -135 47q-103 0 -169 -91t-66 -232zM489 -145q0 -40 28.5 -62t80.5 -22q104 0 167.5 66t63.5 179v111q-106 -137 -268 -150q-72 -47 -72 -122zM526 1346q0 136 103 245q45 48 97 71.5t75 12.5q15 -8 29 -26.5t18 -38.5q-77 -67 -94 -135 q51 -15 82.5 -54.5t31.5 -93.5q0 -61 -48 -103t-122 -42q-71 0 -121.5 47t-50.5 117z" />
<glyph unicode="&#x124;" horiz-adv-x="1492" d="M147 63v1358q143 33 293 33q105 0 105 -84v-491h403v555h320q78 0 78 -64v-1370h-320q-78 0 -78 63v496h-403v-559h-320q-78 0 -78 63zM408 1675q0 24 20 41l254 223h82q27 0 44 -7t38 -26l262 -229l-100 -111q-30 -30 -55 -30q-27 0 -58 28l-149 148l-180 -178 q-78 28 -134 88q-24 27 -24 53z" />
<glyph unicode="&#x125;" horiz-adv-x="1329" d="M117 1686q0 23 20 40l254 224h82q27 0 44 -7t38 -26l262 -229l-100 -111q-31 -31 -55 -31q-25 0 -58 29l-149 147l-181 -178q-76 28 -133 88q-24 27 -24 54zM131 63v1354q127 31 277 31q100 0 100 -82v-387q57 67 138 103t163 36q173 0 265.5 -113.5t92.5 -340.5v-312 q0 -80 62 -80h55q21 -68 21 -122q0 -62 -66 -113t-164 -51q-121 0 -202.5 75t-81.5 226v389q0 79 -32 117t-100 38q-82 0 -151 -57v-774h-299q-78 0 -78 63z" />
<glyph unicode="&#x126;" horiz-adv-x="1492" d="M2 1100q0 72 16 125h129v196q143 33 293 33q105 0 105 -84v-145h403v209h320q78 0 78 -64v-145h94q27 0 39 -15.5t12 -50.5v-115h-145v-1044h-320q-78 0 -78 63v496h-403v-559h-320q-78 0 -78 63v981h-86q-59 0 -59 56zM545 879h403v165h-403v-165z" />
<glyph unicode="&#x127;" horiz-adv-x="1329" d="M6 1253q0 69 17 125h108v101q123 30 277 30q100 0 100 -82v-49h252q27 0 39 -15t12 -50v-115h-303v-219q57 67 138 103t163 36q173 0 265.5 -113.5t92.5 -340.5v-312q0 -80 62 -80h55q21 -68 21 -122q0 -62 -66 -113t-164 -51q-121 0 -202.5 75t-81.5 226v389 q0 79 -32 117t-100 38q-82 0 -151 -57v-774h-299q-78 0 -78 63v1135h-65q-60 0 -60 55z" />
<glyph unicode="&#x128;" horiz-adv-x="708" d="M29 1655q0 25 8 57q24 85 74.5 128.5t115.5 43.5q77 0 135 -45q34 -27 48.5 -35t27.5 -8q21 0 30.5 22t14.5 76l152 -39q51 -13 45 -67q-13 -101 -69 -158t-130 -57q-77 0 -135 45q-34 27 -48.5 35t-27.5 8q-21 0 -30 -19.5t-15 -68.5q-80 -6 -151 22q-45 19 -45 60z M156 63v1358q143 33 293 33q104 0 104 -84v-1370h-320q-77 0 -77 63z" />
<glyph unicode="&#x129;" horiz-adv-x="686" d="M-9 1296q0 22 9 58q24 85 74.5 128.5t115.5 43.5q77 0 135 -45q34 -27 48.5 -35t27.5 -8q21 0 30.5 22t14.5 76l152 -39q51 -13 45 -67q-13 -101 -69 -158t-130 -57q-77 0 -135 45q-34 27 -48.5 35t-27.5 8q-21 0 -30 -19.5t-15 -68.5q-81 -6 -152 22q-45 19 -45 59z M131 287v790q127 31 277 31q100 0 100 -82v-674q0 -80 61 -80h56q20 -65 20 -122q0 -62 -65.5 -113t-163.5 -51q-121 0 -203 75t-82 226z" />
<glyph unicode="&#x12a;" horiz-adv-x="708" d="M51 1697q0 63 25 140h518q63 0 63 -78v-141h-526q-80 0 -80 79zM156 63v1358q143 33 293 33q104 0 104 -84v-1370h-320q-77 0 -77 63z" />
<glyph unicode="&#x12b;" horiz-adv-x="686" d="M16 1339q0 63 25 140h518q64 0 64 -78v-141h-527q-80 0 -80 79zM131 287v790q127 31 277 31q100 0 100 -82v-674q0 -80 61 -80h56q20 -65 20 -122q0 -62 -65.5 -113t-163.5 -51q-121 0 -203 75t-82 226z" />
<glyph unicode="&#x12c;" horiz-adv-x="708" d="M31 1862q29 23 78 39t88 16q31 0 46 -10.5t19 -38.5q18 -121 94 -121q48 0 70 37.5t25 128.5h165q35 0 47.5 -11.5t10.5 -37.5q-12 -146 -96.5 -225.5t-223.5 -79.5q-129 0 -215 73t-108 230zM156 63q0 -63 77 -63h320v1370q0 84 -104 84q-150 0 -293 -33v-1358z" />
<glyph unicode="&#x12d;" horiz-adv-x="686" d="M-4 1503q29 23 78 39.5t88 16.5q30 0 45.5 -11t19.5 -39q18 -120 95 -120q48 0 69.5 37t24.5 128h166q35 0 47 -11.5t10 -37.5q-12 -146 -96.5 -225.5t-223.5 -79.5q-129 0 -215 73t-108 230zM131 287v790q127 31 277 31q100 0 100 -82v-674q0 -80 61 -80h56 q20 -65 20 -122q0 -62 -65.5 -113t-163.5 -51q-121 0 -203 75t-82 226z" />
<glyph unicode="&#x12e;" horiz-adv-x="708" d="M156 63v1358q143 33 293 33q104 0 104 -84v-1370q-66 -47 -103.5 -105.5t-37.5 -113.5q0 -35 22.5 -55.5t59.5 -20.5q28 0 43 6q53 16 53 -39v-129q-59 -35 -176 -35q-114 0 -186 61t-72 163q0 75 43.5 149t115.5 119h-82q-77 0 -77 63z" />
<glyph unicode="&#x12f;" horiz-adv-x="686" d="M119 1378q0 82 54.5 127t143.5 45q83 0 143 -48t60 -130t-54.5 -127t-143.5 -45q-83 0 -143 48t-60 130zM131 287v790q127 31 277 31q100 0 100 -82v-674q0 -80 61 -80h56q20 -65 20 -122q0 -68 -74 -119q-168 -131 -168 -250q0 -35 22.5 -55.5t59.5 -20.5q28 0 43 6 q54 16 54 -39v-129q-59 -35 -176 -35q-114 0 -186.5 61.5t-72.5 162.5q0 73 43 146.5t119 123.5q-80 27 -129 98.5t-49 186.5z" />
<glyph unicode="&#x130;" horiz-adv-x="708" d="M156 63v1358q143 33 293 33q104 0 104 -84v-1370h-320q-77 0 -77 63zM194 1738q0 70 42.5 113t109.5 43t115.5 -48t48.5 -124q0 -70 -42.5 -113t-109.5 -43t-115.5 48t-48.5 124z" />
<glyph unicode="&#x131;" horiz-adv-x="686" d="M131 287v790q127 31 277 31q100 0 100 -82v-674q0 -80 61 -80h56q20 -65 20 -122q0 -62 -65.5 -113t-163.5 -51q-121 0 -203 75t-82 226z" />
<glyph unicode="&#x132;" horiz-adv-x="1601" d="M86 63v1358q143 33 293 33q104 0 104 -84v-1370h-319q-78 0 -78 63zM623 154q0 98 53 178q105 -37 203 -37q186 0 186 211v915q143 33 293 33q104 0 104 -84v-881q0 -252 -114.5 -383t-341.5 -131q-149 0 -266 55.5t-117 123.5z" />
<glyph unicode="&#x133;" horiz-adv-x="1316" d="M119 1378q0 82 54.5 127t143.5 45q83 0 143 -48t60 -130t-54.5 -127t-143.5 -45q-83 0 -143 48t-60 130zM131 287v790q127 31 277 31q100 0 100 -82v-674q0 -80 61 -80h56q20 -65 20 -122q0 -62 -65.5 -113t-163.5 -51q-121 0 -203 75t-82 226zM666 -279q147 156 147 396 v960q127 31 277 31q100 0 100 -82v-907q0 -130 -38.5 -237t-97.5 -169.5t-122.5 -95.5t-120.5 -33q-43 0 -83.5 40t-61.5 97zM801 1378q0 82 54.5 127t143.5 45q83 0 143 -48t60 -130t-54.5 -127t-143.5 -45q-83 0 -143 48t-60 130z" />
<glyph unicode="&#x134;" horiz-adv-x="1003" d="M25 154q0 98 53 178q105 -37 203 -37q186 0 186 211v915q143 33 293 33q104 0 104 -84v-881q0 -252 -114.5 -383t-341.5 -131q-149 0 -266 55.5t-117 123.5zM318 1675q0 24 20 41l254 223h82q27 0 44 -7t38 -26l262 -229l-100 -111q-30 -30 -55 -30q-27 0 -58 28 l-149 148l-180 -178q-78 28 -134 88q-24 27 -24 53z" />
<glyph unicode="&#x135;" horiz-adv-x="645" d="M-18 1319q0 24 20 41l254 223h82q27 0 44 -7t38 -26l262 -229l-100 -111q-30 -30 -56 -30t-57 28l-150 148l-180 -178q-76 28 -133 88q-24 27 -24 53zM-6 -279q147 156 147 396v960q127 31 277 31q100 0 100 -82v-907q0 -130 -38.5 -237t-97.5 -169.5t-122.5 -95.5 t-120.5 -33q-43 0 -83.5 40t-61.5 97z" />
<glyph unicode="&#x136;" horiz-adv-x="1435" d="M147 63v1358q143 33 293 33q105 0 105 -84v-487q137 108 267 255t235 320q163 -47 225.5 -97t62.5 -116q0 -37 -32 -90q-122 -196 -334 -383q60 -134 129.5 -246t130.5 -178q55 -61 131 -61h29q26 -70 26 -156q0 -57 -72.5 -106.5t-166.5 -49.5q-106 0 -180.5 48.5 t-141.5 144.5q-102 141 -190 373q-36 -24 -119 -74v-467h-320q-78 0 -78 63zM582 -227q0 61 48 103t122 42q71 0 121.5 -47t50.5 -117q0 -137 -103 -246q-45 -48 -96.5 -71t-75.5 -12q-15 8 -29 26.5t-18 38.5q77 67 94 135q-51 15 -82.5 54.5t-31.5 93.5z" />
<glyph unicode="&#x137;" horiz-adv-x="1259" d="M131 63v1416q123 30 277 30q100 0 100 -82v-692q99 66 206 177.5t167 215.5q154 -47 210 -92t56 -106q0 -41 -27 -80q-87 -127 -239 -244q78 -166 141 -254q31 -45 58 -63.5t63 -18.5h51q25 -67 25 -123q0 -58 -69 -109.5t-163 -51.5q-162 0 -262 164q-58 98 -129 270 q-62 -34 -88 -45v-375h-299q-78 0 -78 63zM489 -227q0 -54 32 -93t83 -55q-17 -68 -94 -135q4 -20 18 -38.5t29 -26.5q24 -11 75.5 12t96.5 71q102 108 102 246q0 70 -50.5 117t-121.5 47q-74 0 -122 -42t-48 -103z" />
<glyph unicode="&#x138;" horiz-adv-x="1259" d="M131 63v1014q127 31 277 31q100 0 100 -82v-281q102 65 209.5 173t163.5 210q154 -47 210 -92t56 -106q0 -41 -27 -80q-87 -127 -239 -244q78 -166 141 -254q31 -45 58 -63.5t63 -18.5h51q25 -67 25 -123q0 -58 -69 -109.5t-163 -51.5q-162 0 -262 164q-58 98 -129 270 q-62 -34 -88 -45v-375h-299q-78 0 -78 63z" />
<glyph unicode="&#x139;" horiz-adv-x="1171" d="M143 500v921q143 33 293 33q105 0 105 -84v-844q0 -118 29 -162.5t108 -44.5h385q63 0 63 -77v-242h-520q-240 0 -351.5 122t-111.5 378zM149 1671l224 237q38 41 67 41q38 0 76 -30q72 -61 121 -166l-268 -193q-39 -26 -66 -26q-25 0 -51 26z" />
<glyph unicode="&#x13a;" horiz-adv-x="792" d="M123 418v999q127 31 276 31q101 0 101 -82v-942q0 -75 27.5 -109t82.5 -34q67 0 119 22q20 -28 33.5 -73.5t13.5 -88.5q0 -55 -84.5 -105t-206.5 -50q-170 0 -266 111t-96 321zM141 1671l224 238q38 41 67 41q37 0 76 -31q72 -61 121 -166l-269 -192q-40 -27 -65 -27 q-24 0 -51 27z" />
<glyph unicode="&#x13b;" horiz-adv-x="1171" d="M143 500v921q143 33 293 33q105 0 105 -84v-844q0 -118 29 -162.5t108 -44.5h385q63 0 63 -77v-242h-520q-240 0 -351.5 122t-111.5 378zM518 -227q0 61 48 103t122 42q71 0 121.5 -47t50.5 -117q0 -138 -102 -246q-45 -48 -96.5 -71t-75.5 -12q-15 8 -29 26.5t-18 38.5 q77 67 94 135q-51 16 -83 55t-32 93z" />
<glyph unicode="&#x13c;" horiz-adv-x="792" d="M123 418v1061q123 30 276 30q101 0 101 -82v-1003q0 -75 27.5 -109t82.5 -34q67 0 119 22q20 -28 33.5 -73.5t13.5 -88.5q0 -55 -84.5 -105t-206.5 -50q-170 0 -266 111t-96 321zM295 -227q0 -54 32 -93t83 -55q-17 -67 -95 -135q4 -20 18 -38.5t29 -26.5q24 -11 76 12 t97 71q102 108 102 246q0 70 -50.5 117t-121.5 47q-74 0 -122 -42t-48 -103z" />
<glyph unicode="&#x13d;" horiz-adv-x="1171" d="M143 500v921q143 33 293 33q105 0 105 -84v-844q0 -118 29 -162.5t108 -44.5h385q63 0 63 -77v-242h-520q-240 0 -351.5 122t-111.5 378zM659 1331q0 86 53 137.5t134 51.5q79 0 138.5 -57t59.5 -148q-3 -190 -122 -338q-51 -63 -101.5 -95t-72.5 -20q-49 27 -62 82 q88 88 105 195q-58 20 -95 70.5t-37 121.5z" />
<glyph unicode="&#x13e;" horiz-adv-x="1028" d="M123 418v1061q123 30 276 30q101 0 101 -82v-1003q0 -75 27.5 -109t82.5 -34q67 0 119 22q20 -28 33.5 -73.5t13.5 -88.5q0 -55 -84.5 -105t-206.5 -50q-170 0 -266 111t-96 321zM627 1331q0 86 52.5 137.5t133.5 51.5q79 0 139 -57t60 -148q-3 -189 -123 -338 q-51 -63 -101.5 -95t-72.5 -20q-49 27 -62 82q88 88 105 195q-58 20 -94.5 70.5t-36.5 121.5z" />
<glyph unicode="&#x13f;" horiz-adv-x="1171" d="M143 500v921q143 33 293 33q105 0 105 -84v-844q0 -118 29 -162.5t108 -44.5h385q63 0 63 -77v-242h-520q-240 0 -351.5 122t-111.5 378zM702 796q0 70 42.5 113t109.5 43t115.5 -48t48.5 -124q0 -70 -42.5 -113t-109.5 -43t-115.5 48t-48.5 124z" />
<glyph unicode="&#x140;" horiz-adv-x="991" d="M123 418v1061q123 30 276 30q101 0 101 -82v-1003q0 -75 27.5 -109t82.5 -34q67 0 119 22q20 -28 33.5 -73.5t13.5 -88.5q0 -55 -84.5 -105t-206.5 -50q-170 0 -266 111t-96 321zM655 797q0 70 42.5 112.5t109.5 42.5t115.5 -48t48.5 -124q0 -70 -42.5 -112.5 t-109.5 -42.5t-115.5 48t-48.5 124z" />
<glyph unicode="&#x141;" horiz-adv-x="1175" d="M-51 621l198 94v706q143 33 293 33q105 0 105 -84v-467l237 115q50 23 74 -12q16 -25 30.5 -67t18.5 -81l-360 -172v-160q0 -118 29 -162.5t108 -44.5h385q63 0 63 -77v-242h-520q-240 0 -351.5 120.5t-111.5 375.5l-75 -35q-50 -23 -74 12q-16 25 -30.5 67t-18.5 81z " />
<glyph unicode="&#x142;" horiz-adv-x="831" d="M-31 662l193 92v725q123 30 276 30q101 0 101 -82v-495l118 57q50 23 74 -12q16 -25 30.5 -67t18.5 -81l-241 -116v-289q0 -75 27.5 -109t82.5 -34q67 0 119 22q20 -28 33.5 -73.5t13.5 -88.5q0 -55 -84.5 -105t-206.5 -50q-170 0 -266 111t-96 321v117l-70 -33 q-50 -23 -74 12q-16 25 -30.5 67t-18.5 81z" />
<glyph unicode="&#x143;" horiz-adv-x="1482" d="M147 63v1278q63 46 144.5 79.5t128.5 33.5q39 0 63 -13t43 -44l412 -723v760h319q78 0 78 -64v-1278q-63 -46 -144 -79t-128 -33q-40 0 -64 13t-43 44l-411 723v-760h-320q-78 0 -78 63zM530 1671l224 237q38 41 67 41q39 0 76 -30q72 -61 121 -166l-268 -193 q-39 -26 -66 -26q-25 0 -51 26z" />
<glyph unicode="&#x144;" horiz-adv-x="1329" d="M131 63v1014q127 31 277 31q100 0 100 -82v-47q57 67 138 103t163 36q173 0 265.5 -113.5t92.5 -340.5v-312q0 -80 62 -80h55q21 -68 21 -122q0 -62 -66 -113t-164 -51q-121 0 -202.5 75t-81.5 226v389q0 79 -32 117t-100 38q-82 0 -151 -57v-774h-299q-78 0 -78 63z M440 1315l224 237q38 41 67 41q39 0 76 -30q72 -61 121 -166l-268 -193q-39 -26 -66 -26q-25 0 -51 26z" />
<glyph unicode="&#x145;" horiz-adv-x="1482" d="M147 63v1278q63 46 144.5 79.5t128.5 33.5q39 0 63 -13t43 -44l412 -723v760h319q78 0 78 -64v-1278q-63 -46 -144 -79t-128 -33q-40 0 -64 13t-43 44l-411 723v-760h-320q-78 0 -78 63zM594 -227q0 61 48 103t122 42q71 0 121.5 -47t50.5 -117q0 -138 -102 -246 q-45 -48 -96.5 -71t-75.5 -12q-15 8 -29.5 26.5t-18.5 38.5q78 68 95 135q-51 16 -83 55t-32 93z" />
<glyph unicode="&#x146;" horiz-adv-x="1329" d="M131 63v1014q127 31 277 31q100 0 100 -82v-47q57 67 138 103t163 36q173 0 265.5 -113.5t92.5 -340.5v-312q0 -80 62 -80h55q21 -68 21 -122q0 -62 -66 -113t-164 -51q-121 0 -202.5 75t-81.5 226v389q0 79 -32 117t-100 38q-82 0 -151 -57v-774h-299q-78 0 -78 63z M512 -227q0 -54 32 -93t83 -55q-17 -67 -95 -135q4 -20 18.5 -38.5t29.5 -26.5q24 -11 75.5 12t96.5 71q102 108 102 246q0 70 -50.5 117t-121.5 47q-74 0 -122 -42t-48 -103z" />
<glyph unicode="&#x147;" horiz-adv-x="1482" d="M147 63v1278q63 46 144.5 79.5t128.5 33.5q39 0 63 -13t43 -44l412 -723v760h319q78 0 78 -64v-1278q-63 -46 -144 -79t-128 -33q-40 0 -64 13t-43 44l-411 723v-760h-320q-78 0 -78 63zM408 1780q29 73 68 116t75 43q18 0 41 -20l158 -156l186 185l108 -101 q33 -29 33 -57q0 -26 -37 -55l-225 -199h-86q-27 0 -44 7t-38 26z" />
<glyph unicode="&#x148;" horiz-adv-x="1329" d="M131 63v1014q127 31 277 31q100 0 100 -82v-47q57 67 138 103t163 36q173 0 265.5 -113.5t92.5 -340.5v-312q0 -80 62 -80h55q21 -68 21 -122q0 -62 -66 -113t-164 -51q-121 0 -202.5 75t-81.5 226v389q0 79 -32 117t-100 38q-82 0 -151 -57v-774h-299q-78 0 -78 63z M319 1423q29 73 68.5 116.5t75.5 43.5q18 0 41 -20l158 -156l186 184l108 -100q33 -29 33 -57q0 -27 -37 -56l-225 -198h-86q-28 0 -45 6.5t-37 25.5z" />
<glyph unicode="&#x149;" horiz-adv-x="1576" d="M-20 1331q0 86 52.5 137.5t133.5 51.5q79 0 139 -57t60 -148q-3 -189 -123 -338q-51 -63 -101.5 -95t-72.5 -20q-49 27 -62 82q88 88 105 195q-58 20 -94.5 70.5t-36.5 121.5zM379 63v1014q127 31 276 31q101 0 101 -82v-47q57 67 138 103t163 36q173 0 265.5 -113.5 t92.5 -340.5v-312q0 -80 62 -80h55q20 -65 20 -122q0 -62 -65.5 -113t-163.5 -51q-121 0 -203 75t-82 226v389q0 80 -32 117.5t-99 37.5q-82 0 -151 -57v-774h-299q-78 0 -78 63z" />
<glyph unicode="&#x14a;" horiz-adv-x="1482" d="M147 63v1278q63 46 144.5 79.5t128.5 33.5q39 0 63 -13t43 -44l412 -723v760h319q78 0 78 -64v-1315q0 -126 -37.5 -231t-96 -169t-125 -99t-130.5 -35q-43 0 -88.5 41t-66.5 96q70 74 108.5 178.5t38.5 214.5v19l-393 690v-760h-320q-78 0 -78 63z" />
<glyph unicode="&#x14b;" horiz-adv-x="1294" d="M131 63v1014q127 31 277 31q100 0 100 -82v-47q57 67 138 103t163 36q173 0 265.5 -113.5t92.5 -340.5v-609q0 -105 -25.5 -195.5t-66 -151.5t-91.5 -104.5t-101 -63t-95 -19.5q-43 0 -83.5 40t-61.5 97q148 157 148 395v623q0 79 -32 117t-100 38q-82 0 -151 -57v-774 h-299q-78 0 -78 63z" />
<glyph unicode="&#x14c;" horiz-adv-x="1626" d="M90 717q0 171 56 312t153.5 234t229.5 144t284 51t284 -51t229.5 -144t153.5 -234t56 -312t-56 -312t-153.5 -234.5t-229.5 -144.5t-284 -51t-284 51t-229.5 144.5t-153.5 234.5t-56 312zM487 733q0 -197 97 -317.5t239 -120.5q140 0 228 102.5t88 302.5q0 197 -97 318 t-239 121q-140 0 -228 -103t-88 -303zM510 1697q0 63 25 140h518q63 0 63 -78v-141h-526q-80 0 -80 79z" />
<glyph unicode="&#x14d;" horiz-adv-x="1318" d="M82 547q0 133 47.5 242.5t127.5 180.5t183.5 109.5t218.5 38.5t218.5 -38.5t184 -109.5t128 -180.5t47.5 -242.5q0 -107 -31 -199.5t-85.5 -160t-127 -116t-158 -72.5t-176.5 -24q-114 0 -218 38.5t-184 109.5t-127.5 181t-47.5 243zM348 1339q0 63 25 140h518 q63 0 63 -78v-141h-526q-80 0 -80 79zM459 557q0 -138 56 -216.5t153 -78.5q90 0 141 70.5t51 204.5q0 138 -56 216t-153 78q-90 0 -141 -70t-51 -204z" />
<glyph unicode="&#x14e;" horiz-adv-x="1626" d="M90 717q0 171 56 312t153.5 234t229.5 144t284 51t284 -51t229.5 -144t153.5 -234t56 -312t-56 -312t-153.5 -234.5t-229.5 -144.5t-284 -51t-284 51t-229.5 144.5t-153.5 234.5t-56 312zM487 733q0 -197 97 -317.5t239 -120.5q140 0 228 102.5t88 302.5q0 197 -97 318 t-239 121q-140 0 -228 -103t-88 -303zM492 1862q29 23 77.5 39t87.5 16q31 0 46.5 -10.5t19.5 -38.5q18 -121 94 -121q48 0 69.5 37.5t24.5 128.5h166q35 0 47.5 -11.5t10.5 -37.5q-12 -146 -96.5 -225.5t-223.5 -79.5q-129 0 -215 73t-108 230z" />
<glyph unicode="&#x14f;" horiz-adv-x="1318" d="M82 547q0 133 47.5 242.5t127.5 180.5t183.5 109.5t218.5 38.5t218.5 -38.5t184 -109.5t128 -180.5t47.5 -242.5q0 -107 -31 -199.5t-85.5 -160t-127 -116t-158 -72.5t-176.5 -24q-114 0 -218 38.5t-184 109.5t-127.5 181t-47.5 243zM338 1503q29 23 78 39.5t88 16.5 q30 0 45.5 -11t19.5 -39q18 -120 95 -120q48 0 69.5 37t24.5 128h166q35 0 47 -11.5t10 -37.5q-12 -147 -96 -226t-223 -79q-129 0 -215.5 73t-108.5 230zM459 557q0 -138 56 -216.5t153 -78.5q90 0 141 70.5t51 204.5q0 138 -56 216t-153 78q-90 0 -141 -70t-51 -204z" />
<glyph unicode="&#x150;" horiz-adv-x="1626" d="M90 717q0 171 56 312t153.5 234t229.5 144t284 51t284 -51t229.5 -144t153.5 -234t56 -312t-56 -312t-153.5 -234.5t-229.5 -144.5t-284 -51t-284 51t-229.5 144.5t-153.5 234.5t-56 312zM356 1671l224 238q38 41 67 41q37 0 76 -31q72 -61 121 -166l-269 -192 q-41 -27 -65 -27t-51 27zM487 733q0 -197 97 -317.5t239 -120.5q140 0 228 102.5t88 302.5q0 197 -97 318t-239 121q-140 0 -228 -103t-88 -303zM823 1671l224 238q38 41 67 41q37 0 76 -31q72 -61 121 -166l-269 -192q-40 -27 -65 -27q-24 0 -51 27z" />
<glyph unicode="&#x151;" horiz-adv-x="1318" d="M82 547q0 133 47.5 242.5t127.5 180.5t183.5 109.5t218.5 38.5t218.5 -38.5t184 -109.5t128 -180.5t47.5 -242.5q0 -107 -31 -199.5t-85.5 -160t-127 -116t-158 -72.5t-176.5 -24q-114 0 -218 38.5t-184 109.5t-127.5 181t-47.5 243zM203 1315l223 237q38 41 68 41 q38 0 75 -30q72 -61 121 -166l-268 -193q-39 -26 -66 -26q-25 0 -51 26zM459 557q0 -138 56 -216.5t153 -78.5q90 0 141 70.5t51 204.5q0 138 -56 216t-153 78q-90 0 -141 -70t-51 -204zM670 1315l223 237q38 41 68 41q37 0 75 -30q72 -61 121 -166l-268 -193 q-39 -26 -66 -26q-25 0 -51 26z" />
<glyph unicode="&#x152;" horiz-adv-x="2076" d="M90 717q0 166 51 305.5t139.5 234.5t210 148t261.5 53q151 0 258 -74v50h884q76 0 76 -86q0 -107 -24 -234h-539v-240h389q64 0 64 -77v-242h-453v-29q0 -118 29 -162.5t108 -44.5h379q64 0 64 -77v-242h-514q-218 0 -330 100q-162 -125 -391 -125q-187 0 -337 90.5 t-237.5 260.5t-87.5 391zM487 733q0 -197 97 -317.5t239 -120.5q120 0 195 61q-8 57 -8 144v579q-81 60 -207 60q-140 0 -228 -103t-88 -303z" />
<glyph unicode="&#x153;" horiz-adv-x="1994" d="M82 547q0 132 46 242t123 181t175.5 109.5t204.5 38.5q138 0 245 -48.5t171 -133.5q67 85 172 133.5t237 48.5q210 0 337.5 -117.5t127.5 -302.5q0 -106 -45 -186q-24 -44 -63.5 -61t-112.5 -17h-455q21 -94 93.5 -143t181.5 -49q156 0 249 55q20 -29 35 -71t15 -72 q0 -24 -27.5 -54.5t-75 -58.5t-123.5 -47t-161 -19q-124 0 -224.5 49t-160.5 134q-64 -85 -171 -134t-245 -49q-106 0 -204.5 39t-175.5 109.5t-123 181t-46 242.5zM459 557q0 -138 56 -216.5t153 -78.5q90 0 141 70.5t51 204.5q0 138 -56 216t-153 78q-90 0 -141 -70 t-51 -204zM1239 641h311q17 28 17 78q0 62 -34.5 97.5t-90.5 35.5q-85 0 -138.5 -56.5t-64.5 -154.5z" />
<glyph unicode="&#x154;" horiz-adv-x="1359" d="M147 63v1371h488q279 0 439.5 -138.5t160.5 -380.5q0 -138 -63.5 -247t-172.5 -176q49 -99 107 -154q54 -51 129 -51h37q26 -70 26 -152q0 -59 -67 -109.5t-162 -50.5q-86 0 -149.5 34t-126.5 110q-43 53 -84.5 132.5t-61.5 149.5q-69 8 -102 21v-422h-320q-78 0 -78 63z M393 1671l224 237q38 41 67 41q38 0 76 -30q72 -61 121 -166l-268 -193q-39 -26 -66 -26q-25 0 -51 26zM545 729q27 -8 76 -8q97 0 153.5 49.5t56.5 144.5q0 97 -57 148t-160 51h-69v-385z" />
<glyph unicode="&#x155;" horiz-adv-x="1024" d="M131 63v1014q127 31 277 31q100 0 100 -82v-80q45 77 122.5 124.5t176.5 47.5q87 0 144 -32t57 -80q0 -56 -46.5 -114t-113.5 -99q-51 38 -135 38q-79 0 -132.5 -53t-72.5 -147v-631h-299q-78 0 -78 63zM338 1315l224 237q38 41 67 41q39 0 76 -30q72 -61 121 -166 l-268 -193q-39 -26 -66 -26q-25 0 -51 26z" />
<glyph unicode="&#x156;" horiz-adv-x="1359" d="M147 63v1371h488q279 0 439.5 -138.5t160.5 -380.5q0 -138 -63.5 -247t-172.5 -176q49 -99 107 -154q54 -51 129 -51h37q26 -70 26 -152q0 -59 -67 -109.5t-162 -50.5q-86 0 -149.5 34t-126.5 110q-43 53 -84.5 132.5t-61.5 149.5q-69 8 -102 21v-422h-320q-78 0 -78 63z M526 -227q0 -54 32 -93t83 -55q-17 -68 -94 -135q4 -20 18 -38.5t29 -26.5q24 -11 75.5 12t96.5 71q102 108 102 246q0 70 -50.5 117t-121.5 47q-74 0 -122 -42t-48 -103zM545 729q27 -8 76 -8q97 0 153.5 49.5t56.5 144.5q0 97 -57 148t-160 51h-69v-385z" />
<glyph unicode="&#x157;" horiz-adv-x="1024" d="M131 63v1014q127 31 277 31q100 0 100 -82v-80q45 77 122.5 124.5t176.5 47.5q87 0 144 -32t57 -80q0 -56 -46.5 -114t-113.5 -99q-51 38 -135 38q-79 0 -132.5 -53t-72.5 -147v-631h-299q-78 0 -78 63zM152 -227q0 61 48 103t122 42q71 0 121.5 -47t50.5 -117 q0 -137 -103 -246q-45 -48 -96.5 -71t-75.5 -12q-15 8 -29 26.5t-18 38.5q77 67 94 135q-51 15 -82.5 54.5t-31.5 93.5z" />
<glyph unicode="&#x158;" horiz-adv-x="1359" d="M147 63v1371h488q279 0 439.5 -138.5t160.5 -380.5q0 -138 -63.5 -247t-172.5 -176q49 -99 107 -154q54 -51 129 -51h37q26 -70 26 -152q0 -59 -67 -109.5t-162 -50.5q-86 0 -149.5 34t-126.5 110q-43 53 -84.5 132.5t-61.5 149.5q-69 8 -102 21v-422h-320q-78 0 -78 63z M293 1780q29 73 68 116t75 43q18 0 41 -20l158 -156l186 185l109 -101q33 -29 33 -57q0 -26 -37 -55l-226 -199h-86q-27 0 -44 7t-38 26zM545 729q27 -8 76 -8q97 0 153.5 49.5t56.5 144.5q0 97 -57 148t-160 51h-69v-385z" />
<glyph unicode="&#x159;" horiz-adv-x="1024" d="M131 63v1014q127 31 277 31q100 0 100 -82v-80q45 77 122.5 124.5t176.5 47.5q87 0 144 -32t57 -80q0 -56 -46.5 -114t-113.5 -99q-51 38 -135 38q-79 0 -132.5 -53t-72.5 -147v-631h-299q-78 0 -78 63zM215 1423q30 73 68.5 116.5t74.5 43.5q18 0 41 -20l158 -156 l186 184l109 -100q33 -29 33 -57q0 -27 -37 -56l-225 -198h-86q-28 0 -45 6.5t-37 25.5z" />
<glyph unicode="&#x15a;" horiz-adv-x="1255" d="M98 1014q0 194 142 319t376 125q181 0 310.5 -66t195.5 -171q23 -39 23 -80q0 -63 -70 -99q-112 -54 -264 -65q-23 79 -70.5 120.5t-111.5 41.5q-60 0 -96.5 -31.5t-36.5 -81.5q0 -53 53 -92t186 -80q227 -69 330.5 -174.5t103.5 -271.5q0 -194 -137.5 -313.5 t-394.5 -119.5q-136 0 -251.5 36t-177 87t-61.5 101q0 42 18.5 92.5t43.5 83.5q77 -38 178.5 -59t198.5 -21t141.5 23t44.5 71q0 47 -52.5 80.5t-203.5 79.5q-213 66 -315.5 179.5t-102.5 285.5zM383 1671l224 237q38 41 67 41q38 0 76 -30q72 -61 121 -166l-268 -193 q-39 -26 -66 -26q-25 0 -51 26z" />
<glyph unicode="&#x15b;" horiz-adv-x="1054" d="M98 780q0 149 116 243.5t306 94.5q142 0 253 -46t167 -128q25 -41 25 -70q0 -45 -50 -75q-84 -55 -215 -62q-38 115 -135 115q-43 0 -66.5 -20t-23.5 -50q0 -40 30.5 -66t104.5 -46q194 -51 280.5 -135t86.5 -218q0 -152 -116.5 -247t-328.5 -95q-102 0 -197 29 t-151.5 73t-56.5 89q0 35 15 78t38 75q65 -36 146 -56.5t153 -20.5q121 0 121 59q0 29 -20.5 47t-77.5 31q-193 44 -298.5 144t-105.5 257zM284 1315l224 237q38 41 67 41q39 0 76 -30q72 -61 121 -166l-268 -193q-39 -26 -66 -26q-25 0 -51 26z" />
<glyph unicode="&#x15c;" horiz-adv-x="1255" d="M98 1014q0 194 142 319t376 125q181 0 310.5 -66t195.5 -171q23 -39 23 -80q0 -63 -70 -99q-112 -54 -264 -65q-23 79 -70.5 120.5t-111.5 41.5q-60 0 -96.5 -31.5t-36.5 -81.5q0 -53 53 -92t186 -80q227 -69 330.5 -174.5t103.5 -271.5q0 -194 -137.5 -313.5 t-394.5 -119.5q-136 0 -251.5 36t-177 87t-61.5 101q0 42 18.5 92.5t43.5 83.5q77 -38 178.5 -59t198.5 -21t141.5 23t44.5 71q0 47 -52.5 80.5t-203.5 79.5q-213 66 -315.5 179.5t-102.5 285.5zM266 1675q0 24 20 41l254 223h82q27 0 44 -7t38 -26l262 -229l-100 -111 q-30 -30 -55 -30q-27 0 -58 28l-149 148l-180 -178q-78 28 -134 88q-24 27 -24 53z" />
<glyph unicode="&#x15d;" horiz-adv-x="1054" d="M98 780q0 149 116 243.5t306 94.5q142 0 253 -46t167 -128q25 -41 25 -70q0 -45 -50 -75q-84 -55 -215 -62q-38 115 -135 115q-43 0 -66.5 -20t-23.5 -50q0 -40 30.5 -66t104.5 -46q194 -51 280.5 -135t86.5 -218q0 -152 -116.5 -247t-328.5 -95q-102 0 -197 29 t-151.5 73t-56.5 89q0 35 15 78t38 75q65 -36 146 -56.5t153 -20.5q121 0 121 59q0 29 -20.5 47t-77.5 31q-193 44 -298.5 144t-105.5 257zM178 1319q0 24 20 41l254 223h82q27 0 44 -7t38 -26l262 -229l-100 -111q-30 -30 -55 -30q-27 0 -58 28l-149 148l-180 -178 q-78 28 -134 88q-24 27 -24 53z" />
<glyph unicode="&#x15e;" horiz-adv-x="1255" d="M98 1014q0 194 142 319t376 125q181 0 310.5 -66t195.5 -171q23 -39 23 -80q0 -63 -70 -99q-112 -54 -264 -65q-23 79 -70.5 120.5t-111.5 41.5q-60 0 -96.5 -31.5t-36.5 -81.5q0 -53 53 -92t186 -80q227 -69 330.5 -174.5t103.5 -271.5q0 -156 -90.5 -266.5 t-263.5 -147.5l-61 -117q66 -13 105.5 -58.5t39.5 -105.5q0 -96 -75.5 -156.5t-194.5 -60.5q-89 0 -156 21v135q0 52 55 39q24 -6 47 -6q68 0 68 47q0 31 -25 46t-79 21q-16 7 -25.5 16.5t-9.5 16.5q0 6 4 14l70 131q-182 11 -306.5 80t-124.5 142q0 42 18.5 92.5t43.5 83.5 q77 -38 178.5 -59t198.5 -21t141.5 23t44.5 71q0 47 -52.5 80.5t-203.5 79.5q-213 66 -315.5 179.5t-102.5 285.5z" />
<glyph unicode="&#x15f;" horiz-adv-x="1054" d="M98 780q0 149 116 243.5t306 94.5q142 0 253 -46t167 -128q25 -41 25 -70q0 -45 -50 -75q-84 -55 -215 -62q-38 115 -135 115q-43 0 -66.5 -20t-23.5 -50q0 -40 30.5 -66t104.5 -46q194 -51 280.5 -135t86.5 -218q0 -119 -73.5 -205t-209.5 -118l-61 -117 q66 -13 105.5 -58.5t39.5 -105.5q0 -96 -75.5 -156.5t-194.5 -60.5q-88 0 -156 21v135q0 52 56 39q24 -6 47 -6q67 0 67 47q0 31 -25 46t-79 21q-16 7 -25.5 16.5t-9.5 16.5q0 6 4 14l70 134q-134 15 -232 70.5t-98 115.5q0 35 15 78t38 75q65 -36 146 -56.5t153 -20.5 q121 0 121 59q0 29 -20.5 47t-77.5 31q-193 44 -298.5 144t-105.5 257z" />
<glyph unicode="&#x160;" horiz-adv-x="1255" d="M98 1014q0 194 142 319t376 125q181 0 310.5 -66t195.5 -171q23 -39 23 -80q0 -63 -70 -99q-112 -54 -264 -65q-23 79 -70.5 120.5t-111.5 41.5q-60 0 -96.5 -31.5t-36.5 -81.5q0 -53 53 -92t186 -80q227 -69 330.5 -174.5t103.5 -271.5q0 -194 -137.5 -313.5 t-394.5 -119.5q-136 0 -251.5 36t-177 87t-61.5 101q0 42 18.5 92.5t43.5 83.5q77 -38 178.5 -59t198.5 -21t141.5 23t44.5 71q0 47 -52.5 80.5t-203.5 79.5q-213 66 -315.5 179.5t-102.5 285.5zM276 1780q29 72 68 115.5t76 43.5q18 0 41 -20l157 -156l187 185l108 -101 q33 -29 33 -57q0 -26 -37 -55l-225 -199h-86q-27 0 -44 7t-38 26z" />
<glyph unicode="&#x161;" horiz-adv-x="1054" d="M98 780q0 149 116 243.5t306 94.5q142 0 253 -46t167 -128q25 -41 25 -70q0 -45 -50 -75q-84 -55 -215 -62q-38 115 -135 115q-43 0 -66.5 -20t-23.5 -50q0 -40 30.5 -66t104.5 -46q194 -51 280.5 -135t86.5 -218q0 -152 -116.5 -247t-328.5 -95q-102 0 -197 29 t-151.5 73t-56.5 89q0 35 15 78t38 75q65 -36 146 -56.5t153 -20.5q121 0 121 59q0 29 -20.5 47t-77.5 31q-193 44 -298.5 144t-105.5 257zM186 1423q29 73 68.5 116.5t75.5 43.5q18 0 41 -20l157 -156l187 184l108 -100q33 -29 33 -57q0 -27 -37 -56l-225 -198h-86 q-28 0 -45 6.5t-37 25.5z" />
<glyph unicode="&#x162;" horiz-adv-x="1310" d="M66 1200q0 107 24 234h1092q63 0 63 -78v-242h-391v-1114h-61l-66 -123q66 -13 105.5 -58.5t39.5 -105.5q0 -96 -75.5 -156.5t-194.5 -60.5q-88 0 -156 21v135q0 52 56 39q24 -6 47 -6q67 0 67 47q0 31 -25 46t-79 21q-16 7 -25.5 16.5t-9.5 16.5q0 6 4 14l82 154h-28 q-78 0 -78 63v1051h-316q-75 0 -75 86z" />
<glyph unicode="&#x163;" horiz-adv-x="985" d="M49 893q0 111 23 201h157v297q123 30 277 30q100 0 100 -82v-245h250q64 0 64 -78v-209h-314v-401q0 -77 30.5 -110.5t100.5 -33.5q79 0 140 23q19 -24 33 -64.5t14 -75.5q0 -48 -62 -95.5t-160 -65.5l-55 -107q67 -13 106.5 -59t39.5 -105q0 -96 -76 -156.5t-195 -60.5 q-88 0 -155 21v135q0 52 55 39q24 -6 47 -6q68 0 68 47q0 31 -25.5 46t-79.5 21q-16 7 -25.5 16.5t-9.5 16.5q0 6 4 14l78 148q-122 34 -186 139t-64 275v399h-104q-76 0 -76 86z" />
<glyph unicode="&#x164;" horiz-adv-x="1310" d="M66 1200q0 107 24 234h1092q63 0 63 -78v-242h-391v-1114h-319q-78 0 -78 63v1051h-316q-75 0 -75 86zM313 1779q30 73 68.5 116.5t74.5 43.5q18 0 41 -20l158 -156l186 184l109 -100q33 -29 33 -57q0 -27 -37 -56l-225 -198h-86q-28 0 -45 6.5t-37 25.5z" />
<glyph unicode="&#x165;" horiz-adv-x="1370" d="M49 893q0 111 23 201h157v297q123 30 277 30q100 0 100 -82v-245h250q64 0 64 -78v-209h-314v-401q0 -77 30.5 -110.5t100.5 -33.5q79 0 140 23q19 -24 33 -64.5t14 -75.5q0 -61 -89.5 -115.5t-222.5 -54.5q-181 0 -282 111t-101 322v399h-104q-76 0 -76 86zM969 1331 q0 86 52.5 137.5t133.5 51.5q79 0 139 -57t60 -148q-3 -189 -123 -338q-51 -63 -101.5 -95t-72.5 -20q-49 27 -62 82q88 88 105 195q-58 20 -94.5 70.5t-36.5 121.5z" />
<glyph unicode="&#x166;" horiz-adv-x="1310" d="M66 1200q0 107 24 234h1092q63 0 63 -78v-242h-391v-326h176q27 0 39 -15t12 -50v-115h-227v-608h-319q-78 0 -78 63v545h-170q-60 0 -60 56q0 68 17 124h213v326h-316q-75 0 -75 86z" />
<glyph unicode="&#x167;" horiz-adv-x="985" d="M49 893q0 111 23 201h157v297q123 30 277 30q100 0 100 -82v-245h250q64 0 64 -78v-209h-314v-164h191q27 0 39 -15t12 -50v-115h-242v-57q0 -77 30.5 -110.5t100.5 -33.5q79 0 140 23q19 -24 33 -64.5t14 -75.5q0 -61 -89.5 -115.5t-222.5 -54.5q-185 0 -284 110.5 t-99 322.5v55h-82q-59 0 -59 55q0 72 16 125h125v164h-104q-76 0 -76 86z" />
<glyph unicode="&#x168;" horiz-adv-x="1490" d="M139 594v827q143 33 293 33q105 0 105 -84v-805q0 -132 56 -201t152 -69q98 0 153.5 69t55.5 201v869h320q78 0 78 -64v-776q0 -289 -163.5 -454t-443.5 -165q-279 0 -442.5 165.5t-163.5 453.5zM417 1654q0 22 9 58q24 85 74.5 128.5t115.5 43.5q77 0 135 -45 q34 -27 48.5 -35t27.5 -8q21 0 30.5 22t14.5 76l152 -39q51 -13 45 -67q-13 -101 -69 -158t-130 -57q-77 0 -135 45q-34 27 -48.5 35t-27.5 8q-21 0 -30 -19.5t-15 -68.5q-81 -6 -152 22q-45 19 -45 59z" />
<glyph unicode="&#x169;" horiz-adv-x="1282" d="M119 471v606q127 31 276 31q101 0 101 -82v-567q0 -85 37.5 -132.5t107.5 -47.5q69 0 107 47.5t38 132.5v635h299q78 0 78 -64v-559q0 -227 -144.5 -360.5t-377.5 -133.5q-235 0 -378.5 133t-143.5 361zM313 1296q0 22 9 58q24 85 74.5 128.5t115.5 43.5q77 0 135 -45 q34 -27 48.5 -35t27.5 -8q21 0 30.5 22t14.5 76l152 -39q51 -13 45 -67q-13 -101 -69.5 -158.5t-129.5 -57.5q-76 0 -135 46q-34 27 -48.5 35t-27.5 8q-21 0 -30 -20t-15 -69q-79 -6 -152 23q-45 19 -45 59z" />
<glyph unicode="&#x16a;" horiz-adv-x="1490" d="M139 594v827q143 33 293 33q105 0 105 -84v-805q0 -132 56 -201t152 -69q98 0 153.5 69t55.5 201v869h320q78 0 78 -64v-776q0 -289 -163.5 -454t-443.5 -165q-279 0 -442.5 165.5t-163.5 453.5zM442 1697q0 63 25 140h518q63 0 63 -78v-141h-526q-80 0 -80 79z" />
<glyph unicode="&#x16b;" horiz-adv-x="1282" d="M119 471v606q127 31 276 31q101 0 101 -82v-567q0 -85 37.5 -132.5t107.5 -47.5q69 0 107 47.5t38 132.5v635h299q78 0 78 -64v-559q0 -227 -144.5 -360.5t-377.5 -133.5q-235 0 -378.5 133t-143.5 361zM338 1339q0 63 25 140h518q63 0 63 -78v-141h-526q-80 0 -80 79z " />
<glyph unicode="&#x16c;" horiz-adv-x="1490" d="M139 594q0 -288 163.5 -453.5t442.5 -165.5q280 0 443.5 165t163.5 454v776q0 64 -78 64h-320v-869q0 -132 -55.5 -201t-153.5 -69q-96 0 -152 69t-56 201v805q0 84 -105 84q-150 0 -293 -33v-827zM424 1862q29 23 78 39t88 16q31 0 46 -10.5t19 -38.5q18 -121 95 -121 q48 0 69.5 37.5t24.5 128.5h166q35 0 47 -11.5t10 -37.5q-12 -147 -96 -226t-223 -79q-129 0 -215.5 73t-108.5 230z" />
<glyph unicode="&#x16d;" horiz-adv-x="1282" d="M119 471q0 -228 143.5 -361t378.5 -133q233 0 377.5 133.5t144.5 360.5v559q0 64 -78 64h-299v-635q0 -85 -38 -132.5t-107 -47.5q-70 0 -107.5 47.5t-37.5 132.5v567q0 82 -101 82q-149 0 -276 -31v-606zM319 1503q29 23 78 39.5t88 16.5q31 0 46.5 -11t19.5 -39 q18 -120 94 -120q48 0 69.5 37t24.5 128h166q35 0 47.5 -11.5t10.5 -37.5q-12 -146 -96.5 -225.5t-223.5 -79.5q-129 0 -215.5 73t-108.5 230z" />
<glyph unicode="&#x16e;" horiz-adv-x="1490" d="M139 594q0 -288 163.5 -453.5t442.5 -165.5q280 0 443.5 165t163.5 454v776q0 64 -78 64h-320v-869q0 -132 -55.5 -201t-153.5 -69q-96 0 -152 69t-56 201v805q0 84 -105 84q-150 0 -293 -33v-827zM522 1739q0 90 63 151.5t160 61.5t160.5 -61.5t63.5 -151.5 t-63.5 -151.5t-160.5 -61.5t-160 61.5t-63 151.5zM682 1741q0 -29 19 -48.5t47 -19.5q27 0 44 17t17 47q0 29 -19 48t-47 19q-27 0 -44 -16.5t-17 -46.5z" />
<glyph unicode="&#x16f;" horiz-adv-x="1282" d="M119 471v606q127 31 276 31q101 0 101 -82v-567q0 -85 37.5 -132.5t107.5 -47.5q69 0 107 47.5t38 132.5v635h299q78 0 78 -64v-559q0 -227 -144.5 -360.5t-377.5 -133.5q-235 0 -378.5 133t-143.5 361zM418 1382q0 90 63 151.5t160 61.5t160 -61.5t63 -151.5t-63 -151.5 t-160 -61.5t-160 61.5t-63 151.5zM578 1384q0 -29 18.5 -48t46.5 -19q27 0 44.5 16.5t17.5 46.5q0 29 -19 48.5t-47 19.5q-27 0 -44 -17t-17 -47z" />
<glyph unicode="&#x170;" horiz-adv-x="1490" d="M139 594v827q143 33 293 33q105 0 105 -84v-805q0 -132 56 -201t152 -69q98 0 153.5 69t55.5 201v869h320q78 0 78 -64v-776q0 -289 -163.5 -454t-443.5 -165q-279 0 -442.5 165.5t-163.5 453.5zM309 1671l223 238q38 41 68 41q37 0 76 -31q72 -61 121 -166l-269 -192 q-40 -27 -65 -27q-24 0 -51 27zM776 1671l223 238q38 41 68 41q37 0 76 -31q72 -61 121 -166l-269 -192q-41 -27 -65 -27t-51 27z" />
<glyph unicode="&#x171;" horiz-adv-x="1282" d="M119 471v606q127 31 276 31q101 0 101 -82v-567q0 -85 37.5 -132.5t107.5 -47.5q69 0 107 47.5t38 132.5v635h299q78 0 78 -64v-559q0 -227 -144.5 -360.5t-377.5 -133.5q-235 0 -378.5 133t-143.5 361zM195 1315l223 237q38 41 67 41q39 0 76 -30q72 -61 121 -166 l-268 -193q-39 -26 -66 -26q-25 0 -51 26zM662 1315l223 237q38 41 67 41q39 0 76 -30q72 -61 121 -166l-268 -193q-39 -26 -66 -26q-25 0 -51 26z" />
<glyph unicode="&#x172;" horiz-adv-x="1490" d="M139 594v827q143 33 293 33q105 0 105 -84v-805q0 -132 56 -201t152 -69q98 0 153.5 69t55.5 201v869h320q78 0 78 -64v-776q0 -216 -95 -366t-264 -212q-83 -57 -122.5 -118.5t-39.5 -116.5q0 -35 22.5 -55.5t59.5 -20.5q28 0 43 6q54 16 54 -39v-129q-59 -35 -176 -35 q-114 0 -186.5 61.5t-72.5 162.5q0 66 33.5 132t91.5 113q-259 12 -410 176t-151 441z" />
<glyph unicode="&#x173;" horiz-adv-x="1282" d="M119 471v606q127 31 276 31q101 0 101 -82v-567q0 -85 37.5 -132.5t107.5 -47.5q69 0 107 47.5t38 132.5v635h299q78 0 78 -64v-559q0 -154 -68 -267t-190 -171q-96 -59 -141 -126t-45 -126q0 -35 22.5 -55.5t59.5 -20.5q28 0 43 6q53 16 53 -39v-129q-59 -35 -176 -35 q-114 0 -186 61t-72 163q0 67 34.5 134t94.5 114q-215 14 -344 144.5t-129 346.5z" />
<glyph unicode="&#x174;" horiz-adv-x="2318" d="M74 1337q71 50 155.5 83.5t141.5 33.5q46 0 71 -18t37 -60l248 -927q70 176 137 453t105 532h248q75 0 109.5 -21t47.5 -67l232 -897q70 184 138 458t109 527h232q87 0 124 -34.5t23 -101.5q-60 -285 -171.5 -614.5t-245.5 -609.5q-20 -42 -54 -58t-104 -16h-244 l-239 936q-37 -183 -111.5 -421.5t-155.5 -440.5q-17 -41 -52 -57.5t-105 -16.5h-244zM836 1675q0 24 20 41l254 223h82q27 0 44 -7t38 -26l262 -229l-100 -111q-30 -30 -55 -30q-27 0 -58 28l-149 148l-180 -178q-78 28 -134 88q-24 27 -24 53z" />
<glyph unicode="&#x175;" horiz-adv-x="1806" d="M70 1012q64 44 139 73t123 29q52 0 76.5 -19t35.5 -65l148 -620q93 308 131 684h229q71 0 105.5 -22t46.5 -71l135 -593q77 242 135 686h217q82 0 114.5 -33t23.5 -94q-32 -192 -105.5 -438t-165.5 -455q-19 -41 -53.5 -57.5t-104.5 -16.5h-231l-151 682 q-64 -384 -154 -608q-17 -41 -52 -57.5t-106 -16.5h-207zM580 1319q0 24 20 41l254 223h82q27 0 44 -7t38 -26l262 -229l-100 -111q-30 -30 -55 -30q-27 0 -58 28l-149 148l-180 -178q-78 28 -134 88q-24 27 -24 53z" />
<glyph unicode="&#x176;" horiz-adv-x="1390" d="M47 1278q60 70 141 123t146 53q56 0 86 -59l278 -555q83 125 157 291t106 303h284q120 0 90 -105q-54 -191 -178.5 -418t-273.5 -415v-496h-320q-78 0 -78 63v431zM354 1675q0 23 21 41l254 223h82q28 0 45 -6.5t37 -25.5l262 -230l-101 -110q-31 -31 -55 -31t-57 29 l-150 147l-180 -178q-76 28 -133 88q-25 28 -25 53z" />
<glyph unicode="&#x177;" horiz-adv-x="1294" d="M127 430v637q127 31 276 31q101 0 101 -82v-598q0 -80 31 -118t98 -38q78 0 153 57v775h299q78 0 78 -64v-1005q0 -111 -35.5 -205.5t-106 -169t-186 -116.5t-264.5 -42q-197 0 -314.5 82.5t-117.5 210.5q0 77 45.5 141t124.5 99q-182 95 -182 405zM305 1319q0 23 21 41 l254 223h82q27 0 43.5 -7t37.5 -26l263 -229l-101 -111q-30 -30 -55 -30q-26 0 -57 28l-150 148l-180 -178q-76 28 -133 88q-25 28 -25 53zM512 -145q0 -40 25 -63t69 -23q84 0 132 64t48 183v99q-83 -100 -194 -127q-80 -58 -80 -133z" />
<glyph unicode="&#x178;" horiz-adv-x="1390" d="M47 1278q60 70 141 123t146 53q56 0 86 -59l278 -555q83 125 157 291t106 303h284q120 0 90 -105q-54 -191 -178.5 -418t-273.5 -415v-496h-320q-78 0 -78 63v431zM336 1796q0 70 42 113t109 43t115.5 -48t48.5 -124q0 -70 -42.5 -113t-109.5 -43t-115 48t-48 124z M747 1796q0 70 42.5 113t109.5 43t115.5 -48t48.5 -124q0 -70 -42.5 -113t-109.5 -43t-115.5 48t-48.5 124z" />
<glyph unicode="&#x179;" horiz-adv-x="1300" d="M90 225l567 889h-452q-76 0 -76 86q0 102 25 234h880q46 0 74 -14.5t47 -47.5q40 -68 53 -164l-567 -889h514q64 0 64 -77v-242h-955q-47 0 -74.5 14t-46.5 47q-40 68 -53 164zM446 1671l224 237q38 41 67 41q39 0 76 -30q72 -61 121 -166l-268 -193q-39 -26 -66 -26 q-25 0 -51 26z" />
<glyph unicode="&#x17a;" horiz-adv-x="1077" d="M82 215l430 592h-332q-76 0 -76 86q0 111 23 201h698q46 0 74 -14.5t47 -47.5q40 -69 53 -153l-421 -582h370q64 0 64 -78v-219h-756q-47 0 -74.5 14t-46.5 47q-40 69 -53 154zM325 1315l224 237q38 41 67 41q38 0 76 -30q72 -61 121 -166l-268 -193q-39 -26 -66 -26 q-25 0 -51 26z" />
<glyph unicode="&#x17b;" horiz-adv-x="1300" d="M90 225l567 889h-452q-76 0 -76 86q0 102 25 234h880q46 0 74 -14.5t47 -47.5q40 -68 53 -164l-567 -889h514q64 0 64 -77v-242h-955q-47 0 -74.5 14t-46.5 47q-40 68 -53 164zM491 1738q0 70 42.5 113t109.5 43t115.5 -48t48.5 -124q0 -70 -42.5 -113t-109.5 -43 t-115.5 48t-48.5 124z" />
<glyph unicode="&#x17c;" horiz-adv-x="1077" d="M82 215l430 592h-332q-76 0 -76 86q0 111 23 201h698q46 0 74 -14.5t47 -47.5q40 -69 53 -153l-421 -582h370q64 0 64 -78v-219h-756q-47 0 -74.5 14t-46.5 47q-40 69 -53 154zM374 1382q0 70 42.5 113t109.5 43t115.5 -48t48.5 -124q0 -70 -42.5 -113t-109.5 -43 t-115.5 48t-48.5 124z" />
<glyph unicode="&#x17d;" horiz-adv-x="1300" d="M90 225l567 889h-452q-76 0 -76 86q0 102 25 234h880q46 0 74 -14.5t47 -47.5q40 -68 53 -164l-567 -889h514q64 0 64 -77v-242h-955q-47 0 -74.5 14t-46.5 47q-40 68 -53 164zM324 1780q29 73 68 116t75 43q18 0 41 -20l158 -156l186 185l109 -101q32 -28 32 -57 q0 -26 -37 -55l-225 -199h-86q-27 0 -44 7t-38 26z" />
<glyph unicode="&#x17e;" horiz-adv-x="1077" d="M82 215l430 592h-332q-76 0 -76 86q0 111 23 201h698q46 0 74 -14.5t47 -47.5q40 -69 53 -153l-421 -582h370q64 0 64 -78v-219h-756q-47 0 -74.5 14t-46.5 47q-40 69 -53 154zM199 1423q30 73 68.5 116.5t74.5 43.5q18 0 41 -20l158 -156l186 184l109 -100 q32 -28 32 -57q0 -27 -37 -56l-225 -198h-86q-28 0 -45 6.5t-37 25.5z" />
<glyph unicode="&#x17f;" horiz-adv-x="960" d="M49 893q0 111 23 201h157v73q0 172 96.5 262.5t276.5 90.5q93 0 176 -26t128.5 -63t45.5 -71q0 -30 -15 -73.5t-38 -72.5q-68 29 -166 29q-127 0 -127 -104v-1139h-299q-78 0 -78 63v744h-104q-76 0 -76 86z" />
<glyph unicode="&#x191;" horiz-adv-x="1163" d="M0 -342q70 74 108.5 178.5t38.5 214.5v1383h883q76 0 76 -86q0 -102 -25 -234h-536v-309h387q63 0 63 -78v-242h-450v-430q0 -126 -37.5 -231t-96 -169t-125 -99t-130.5 -35q-44 0 -89.5 41t-66.5 96z" />
<glyph unicode="&#x192;" horiz-adv-x="960" d="M-117 -346q0 30 15 73t39 72q66 -28 165 -28q127 0 127 104v932h-104q-76 0 -76 86q0 111 23 201h157v73q0 172 96.5 262.5t276.5 90.5q93 0 176 -26t128.5 -63t45.5 -71q0 -30 -15 -73.5t-38 -72.5q-68 29 -166 29q-127 0 -127 -104v-45h250q64 0 64 -78v-209h-314v-961 q0 -172 -96.5 -262t-276.5 -90q-93 0 -176 26t-128.5 63t-45.5 71z" />
<glyph unicode="&#x1fa;" d="M45 72l477 1321l35 14q-53 56 -53 141q0 64 34 116t91 77l-70 74l170 184q34 31 53 31q30 0 58 -25q52 -39 94 -125l-172 -123q84 -10 136 -69t52 -140q0 -77 -45 -131q27 -24 45 -76l486 -1341h-340q-42 0 -64 13.5t-31 43.5l-55 174h-436l-72 -231h-332q-37 0 -54 20 t-7 52zM602 530h250l-125 404zM664 1550q0 -29 18.5 -48t46.5 -19q27 0 44.5 16.5t17.5 46.5q0 29 -19 48.5t-47 19.5q-27 0 -44 -17t-17 -47z" />
<glyph unicode="&#x1fb;" horiz-adv-x="1232" d="M74 336q0 161 116 255.5t304 94.5q132 0 200 -33v60q0 143 -205 143q-153 0 -292 -68q-41 61 -41 134q0 43 57.5 88.5t162 76.5t222.5 31q236 0 356.5 -113.5t120.5 -334.5v-318q0 -80 62 -80h55q20 -65 20 -122q0 -62 -65.5 -113t-163.5 -51q-73 0 -137 34.5t-103 100.5 q-95 -146 -286 -146q-171 0 -277 103t-106 258zM375 1362q0 64 34 115.5t91 76.5l-70 74l170 184q34 31 53 31q31 0 58 -24q52 -39 94 -125l-172 -123q84 -10 136 -69t52 -140q0 -90 -63 -151.5t-160 -61.5t-160 61.5t-63 151.5zM451 348q0 -52 30.5 -81t75.5 -29 q47 0 85 28.5t56 85.5v113q-43 14 -110 14q-63 0 -100 -36.5t-37 -94.5zM535 1364q0 -29 18.5 -48.5t46.5 -19.5q27 0 44.5 17t17.5 47q0 29 -19 48t-47 19q-27 0 -44 -16.5t-17 -46.5z" />
<glyph unicode="&#x1fc;" horiz-adv-x="1902" d="M32.5 27q-15.5 27 2.5 59l612 1276q53 33 127 52.5t148 19.5h798q76 0 76 -86q0 -107 -24 -234h-539v-240h389q64 0 64 -77v-242h-453v-29q0 -118 29 -162.5t108 -44.5h379q63 0 63 -77v-242h-514q-166 0 -269 56.5t-150 174.5h-359l-100 -231h-324q-48 0 -63.5 27z M651 530h185v420zM977 1671l224 237q38 41 67 41q38 0 76 -30q72 -61 121 -166l-268 -193q-39 -26 -66 -26q-25 0 -51 26z" />
<glyph unicode="&#x1fd;" horiz-adv-x="1832" d="M74 336q0 161 116 255.5t304 94.5q132 0 200 -33v60q0 143 -205 143q-153 0 -292 -68q-41 61 -41 134q0 43 57.5 88.5t162 76.5t222.5 31q222 0 338 -145q139 145 360 145q206 0 334.5 -118t128.5 -302q0 -106 -45 -186q-24 -44 -63.5 -61t-112.5 -17h-455 q21 -94 93.5 -143t181.5 -49q157 0 250 55q19 -29 34 -71t15 -72q0 -24 -27.5 -54.5t-75 -58.5t-123.5 -47t-161 -19q-121 0 -226.5 44.5t-173.5 123.5q-55 -78 -153 -123t-223 -45q-200 0 -310 101t-110 260zM451 348q0 -52 30.5 -81t75.5 -29q63 0 102 54t39 173 q-43 14 -110 14q-63 0 -100 -36.5t-37 -94.5zM688 1315l224 237q38 41 67 41q39 0 76 -30q72 -61 121 -166l-268 -193q-39 -26 -66 -26q-25 0 -51 26zM1077 641h312q16 27 16 78q0 62 -34.5 97.5t-90.5 35.5q-85 0 -138.5 -56.5t-64.5 -154.5z" />
<glyph unicode="&#x1fe;" horiz-adv-x="1626" d="M75.5 18q-12.5 18 8.5 41l160 174q-154 197 -154 484q0 171 56 312t153.5 234t229.5 144t284 51q249 0 436 -133l101 109h147q40 0 53 -18.5t-8 -41.5l-160 -174q154 -197 154 -483q0 -171 -56 -312t-153.5 -234.5t-229.5 -144.5t-284 -51q-254 0 -438 131l-99 -106h-147 q-41 0 -53.5 18zM487 733q0 -107 33 -201l484 527q-86 80 -201 80q-140 0 -228 -103t-88 -303zM592 1671l224 237q38 41 67 41q39 0 76 -30q72 -61 121 -166l-268 -193q-39 -26 -66 -26q-25 0 -51 26zM621 375q86 -80 202 -80q140 0 228 102.5t88 302.5q0 104 -33 201z" />
<glyph unicode="&#x1ff;" horiz-adv-x="1318" d="M82 547q0 133 47.5 242.5t127.5 180.5t183.5 109.5t218.5 38.5q181 0 324 -90l61 66h138q40 0 53 -18.5t-8 -41.5l-113 -123q123 -149 123 -364q0 -107 -31 -199.5t-85.5 -160t-127 -116t-158 -72.5t-176.5 -24q-180 0 -325 91l-60 -66h-137q-41 0 -53.5 18t8.5 41 l111 121q-121 150 -121 367zM436 1315l224 237q38 41 67 41q39 0 76 -30q72 -61 121 -166l-268 -193q-39 -26 -66 -26q-25 0 -51 26zM459 557q0 -49 6 -92l301 328q-47 38 -115 38q-90 0 -141 -70t-51 -204zM551 301q48 -39 117 -39q90 0 141 70.5t51 204.5q0 54 -8 90z" />
<glyph unicode="&#x218;" horiz-adv-x="1255" d="M98 1014q0 194 142 319t376 125q181 0 310.5 -66t195.5 -171q23 -39 23 -80q0 -63 -70 -99q-112 -54 -264 -65q-23 79 -70.5 120.5t-111.5 41.5q-60 0 -96.5 -31.5t-36.5 -81.5q0 -53 53 -92t186 -80q227 -69 330.5 -174.5t103.5 -271.5q0 -194 -137.5 -313.5 t-394.5 -119.5q-136 0 -251.5 36t-177 87t-61.5 101q0 42 18.5 92.5t43.5 83.5q77 -38 178.5 -59t198.5 -21t141.5 23t44.5 71q0 47 -52.5 80.5t-203.5 79.5q-213 66 -315.5 179.5t-102.5 285.5zM512 -227q0 61 48 103t122 42q71 0 121.5 -47t50.5 -117q0 -138 -102 -246 q-45 -48 -96.5 -71t-75.5 -12q-15 8 -29.5 26.5t-18.5 38.5q78 68 95 135q-51 16 -83 55t-32 93z" />
<glyph unicode="&#x219;" horiz-adv-x="1054" d="M98 780q0 149 116 243.5t306 94.5q142 0 253 -46t167 -128q25 -41 25 -70q0 -45 -50 -75q-84 -55 -215 -62q-38 115 -135 115q-43 0 -66.5 -20t-23.5 -50q0 -40 30.5 -66t104.5 -46q194 -51 280.5 -135t86.5 -218q0 -152 -116.5 -247t-328.5 -95q-102 0 -197 29 t-151.5 73t-56.5 89q0 35 15 78t38 75q65 -36 146 -56.5t153 -20.5q121 0 121 59q0 29 -20.5 47t-77.5 31q-193 44 -298.5 144t-105.5 257zM391 -227q0 -54 32 -93t83 -55q-17 -68 -94 -135q4 -20 18 -38.5t29 -26.5q24 -11 75.5 12t96.5 71q102 108 102 246q0 70 -50.5 117 t-121.5 47q-74 0 -122 -42t-48 -103z" />
<glyph unicode="&#x21a;" horiz-adv-x="1310" d="M66 1200q0 107 24 234h1092q63 0 63 -78v-242h-391v-1114h-319q-78 0 -78 63v1051h-316q-75 0 -75 86zM485 -227q0 61 48 103t122 42q71 0 121.5 -47t50.5 -117q0 -138 -102 -246q-45 -48 -96.5 -71t-75.5 -12q-15 8 -29 26.5t-18 38.5q77 67 94 135q-51 16 -83 55 t-32 93z" />
<glyph unicode="&#x21b;" horiz-adv-x="985" d="M49 893q0 111 23 201h157v297q123 30 277 30q100 0 100 -82v-245h250q64 0 64 -78v-209h-314v-401q0 -77 30.5 -110.5t100.5 -33.5q79 0 140 23q19 -24 33 -64.5t14 -75.5q0 -61 -89.5 -115.5t-222.5 -54.5q-181 0 -282 111t-101 322v399h-104q-76 0 -76 86zM420 -227 q0 61 48 103t122 42q71 0 121.5 -47t50.5 -117q0 -137 -103 -246q-45 -48 -96.5 -71t-75.5 -12q-15 8 -29 26.5t-18 38.5q78 68 95 135q-51 16 -83 55t-32 93z" />
<glyph unicode="&#x2c6;" horiz-adv-x="860" d="M80 1278q0 24 20 41l254 223h82q27 0 44 -7t38 -26l262 -229l-100 -111q-30 -30 -55 -30q-27 0 -58 28l-149 148l-180 -178q-78 28 -134 88q-24 27 -24 53z" />
<glyph unicode="&#x2c7;" horiz-adv-x="860" d="M88 1382q30 73 68.5 116.5t74.5 43.5q18 0 41 -20l158 -156l186 184l109 -100q33 -29 33 -57q0 -27 -37 -56l-225 -198h-86q-28 0 -45 6.5t-37 25.5z" />
<glyph unicode="&#x2d8;" horiz-adv-x="860" d="M106 1462q29 23 78 39.5t88 16.5q31 0 46.5 -11t19.5 -39q18 -120 94 -120q48 0 69.5 37t24.5 128h166q35 0 47.5 -11.5t10.5 -37.5q-12 -146 -96.5 -225.5t-223.5 -79.5q-129 0 -215.5 73t-108.5 230z" />
<glyph unicode="&#x2d9;" horiz-adv-x="860" d="M272 1341q0 70 42.5 113t109.5 43t115.5 -48t48.5 -124q0 -70 -42.5 -113t-109.5 -43t-115.5 48t-48.5 124z" />
<glyph unicode="&#x2da;" horiz-adv-x="860" d="M207 1341q0 90 63 151.5t160 61.5t160 -61.5t63 -151.5t-63 -151.5t-160 -61.5t-160 61.5t-63 151.5zM367 1343q0 -29 18.5 -48t46.5 -19q27 0 44.5 16.5t17.5 46.5q0 29 -19 48.5t-47 19.5q-27 0 -44 -17t-17 -47z" />
<glyph unicode="&#x2db;" horiz-adv-x="860" d="M213 -268q0 74 43.5 148.5t116.5 119.5h237q-66 -47 -103.5 -105.5t-37.5 -113.5q0 -35 22.5 -55.5t59.5 -20.5q28 0 43 6q53 16 53 -39v-129q-59 -35 -176 -35q-114 0 -186 61t-72 163z" />
<glyph unicode="&#x2dc;" horiz-adv-x="860" d="M102 1257q0 22 9 58q24 85 74.5 128.5t115.5 43.5q77 0 135 -45q34 -27 48.5 -35t27.5 -8q21 0 30.5 22t14.5 76l152 -39q51 -13 45 -67q-13 -101 -69 -158t-130 -57q-77 0 -135 45q-34 27 -48.5 35t-27.5 8q-21 0 -30 -19.5t-15 -68.5q-81 -6 -152 22q-45 19 -45 59z " />
<glyph unicode="&#x2dd;" horiz-adv-x="860" d="M-47 1274l223 237q38 41 68 41q38 0 75 -30q72 -61 121 -166l-268 -193q-39 -26 -66 -26q-25 0 -51 26zM420 1274l223 237q38 41 68 41q37 0 75 -30q72 -61 121 -166l-268 -193q-39 -26 -66 -26q-25 0 -51 26z" />
<glyph unicode="&#x3a9;" horiz-adv-x="1642" d="M98 788q0 141 51.5 264.5t144.5 213t229 141t298 51.5t298 -51.5t229 -141t144.5 -213t51.5 -264.5q0 -137 -65 -264.5t-179 -204.5h160q64 0 64 -77v-242h-650v193q0 46 17 70.5t65 64.5q191 151 191 405q0 186 -88.5 296t-237.5 110t-237 -110t-88 -296 q0 -255 190 -405q48 -40 65 -64.5t17 -70.5v-193h-573q-76 0 -76 86q0 106 24 233h199q-114 77 -179 204.5t-65 264.5z" />
<glyph unicode="&#x400;" horiz-adv-x="1210" d="M143 500v934h885q76 0 76 -86q0 -102 -25 -234h-538v-240h389q63 0 63 -77v-242h-452v-29q0 -118 29 -162.5t108 -44.5h379q63 0 63 -77v-242h-514q-240 0 -351.5 122t-111.5 378zM354 1753q49 105 121 166q37 30 76 30q30 0 68 -41l223 -237l-103 -111q-26 -26 -51 -26 q-26 0 -65 26z" />
<glyph unicode="&#x401;" horiz-adv-x="1210" d="M143 500v934h885q76 0 76 -86q0 -102 -25 -234h-538v-240h389q63 0 63 -77v-242h-452v-29q0 -118 29 -162.5t108 -44.5h379q63 0 63 -77v-242h-514q-240 0 -351.5 122t-111.5 378zM254 1738q0 70 42 113t109 43t115.5 -48t48.5 -124q0 -70 -42.5 -113t-109.5 -43t-115 48 t-48 124zM665 1738q0 70 42.5 113t109.5 43t115.5 -48t48.5 -124q0 -70 -42.5 -113t-109.5 -43t-115.5 48t-48.5 124z" />
<glyph unicode="&#x402;" horiz-adv-x="1583" d="M66 1200q0 107 24 234h1092q63 0 63 -78v-242h-391v-309q114 108 264 108q173 0 266 -113.5t93 -340.5v-344q0 -126 -37.5 -231t-96.5 -169.5t-125.5 -99.5t-130.5 -35q-43 0 -88.5 41t-66.5 96q70 74 108.5 179t38.5 215v327q0 84 -25 120t-79 36q-61 0 -121 -47v-547 h-319q-78 0 -78 63v1051h-316q-75 0 -75 86z" />
<glyph unicode="&#x403;" horiz-adv-x="1163" d="M147 63v1371h895q64 0 64 -78v-242h-561v-1114h-320q-78 0 -78 63zM430 1671l223 238q38 41 68 41q37 0 76 -31q72 -61 121 -166l-269 -192q-41 -27 -65 -27q-25 0 -52 27z" />
<glyph unicode="&#x404;" d="M90 752q0 209 89.5 370t248 248.5t358.5 87.5q204 0 353.5 -78t226.5 -209q23 -42 23 -79q0 -57 -70 -99q-114 -65 -270 -75q-78 221 -269 221q-115 0 -191.5 -76.5t-96.5 -216.5h436q63 0 63 -78v-221h-467q50 -122 157.5 -187t260.5 -65q94 0 184.5 20t153.5 56 q24 -31 42.5 -83.5t18.5 -88.5t-40 -75.5t-105 -72.5t-156.5 -54.5t-185.5 -21.5q-162 0 -303 57t-242.5 158t-160 246.5t-58.5 315.5z" />
<glyph unicode="&#x405;" horiz-adv-x="1255" d="M98 1014q0 194 142 319t376 125q181 0 310.5 -66t195.5 -171q23 -39 23 -80q0 -63 -70 -99q-112 -54 -264 -65q-23 79 -70.5 120.5t-111.5 41.5q-60 0 -96.5 -31.5t-36.5 -81.5q0 -53 53 -92t186 -80q227 -69 330.5 -174.5t103.5 -271.5q0 -194 -137.5 -313.5 t-394.5 -119.5q-136 0 -251.5 36t-177 87t-61.5 101q0 42 18.5 92.5t43.5 83.5q77 -38 178.5 -59t198.5 -21t141.5 23t44.5 71q0 47 -52.5 80.5t-203.5 79.5q-213 66 -315.5 179.5t-102.5 285.5z" />
<glyph unicode="&#x406;" horiz-adv-x="708" d="M156 63v1358q143 33 293 33q104 0 104 -84v-1370h-320q-77 0 -77 63z" />
<glyph unicode="&#x407;" horiz-adv-x="708" d="M-10 1738q0 70 42 113t109 43t115.5 -48t48.5 -124q0 -70 -42.5 -113t-109.5 -43t-115 48t-48 124zM156 63v1358q143 33 293 33q104 0 104 -84v-1370h-320q-77 0 -77 63zM401 1738q0 70 42.5 113t109.5 43t115.5 -48t48.5 -124q0 -70 -42.5 -113t-109.5 -43t-115.5 48 t-48.5 124z" />
<glyph unicode="&#x408;" horiz-adv-x="1003" d="M25 154q0 98 53 178q105 -37 203 -37q186 0 186 211v915q143 33 293 33q104 0 104 -84v-881q0 -252 -114.5 -383t-341.5 -131q-149 0 -266 55.5t-117 123.5z" />
<glyph unicode="&#x409;" horiz-adv-x="2310" d="M16 150q0 96 54 178q81 -33 157 -33q67 0 104 49t58 182q57 377 57 908h955q78 0 78 -64v-477q48 24 123.5 39.5t148.5 15.5q212 0 348.5 -119.5t136.5 -322.5q0 -250 -162 -378t-464 -128h-66q-240 0 -351.5 122t-111.5 378v614h-241q-12 -367 -56 -651 q-38 -251 -148 -369.5t-296 -118.5q-119 0 -221.5 55.5t-102.5 119.5zM1479 526q0 -118 29 -162.5t108 -44.5h20q93 0 148 40t55 124q0 86 -49 124t-148 38q-93 0 -163 -24v-95z" />
<glyph unicode="&#x40a;" horiz-adv-x="2136" d="M147 63v1358q143 33 293 33q105 0 105 -84v-491h362v555h320q78 0 78 -64v-477q48 24 123.5 39.5t148.5 15.5q212 0 348.5 -119.5t136.5 -322.5q0 -250 -162 -378t-464 -128h-66q-240 0 -351.5 122t-111.5 378v59h-362v-559h-320q-78 0 -78 63zM1305 526 q0 -118 29 -162.5t108 -44.5h20q93 0 148 40t55 124q0 86 -49 124t-148 38q-93 0 -163 -24v-95z" />
<glyph unicode="&#x40b;" horiz-adv-x="1648" d="M66 1200q0 107 24 234h1092q63 0 63 -78v-242h-391v-309q114 108 264 108q173 0 266 -113.5t93 -340.5v-86q0 -80 61 -80h55q21 -68 21 -133q0 -68 -70 -121t-170 -53q-57 0 -108.5 17.5t-94 52t-67.5 94t-25 137.5v151q0 84 -25 120t-79 36q-61 0 -121 -47v-547h-319 q-78 0 -78 63v1051h-316q-75 0 -75 86z" />
<glyph unicode="&#x40c;" horiz-adv-x="1435" d="M147 63v1358q143 33 293 33q105 0 105 -84v-487q137 108 267 255t235 320q163 -47 225.5 -97t62.5 -116q0 -37 -32 -90q-122 -196 -334 -383q60 -134 129.5 -246t130.5 -178q55 -61 131 -61h29q26 -70 26 -156q0 -57 -72.5 -106.5t-166.5 -49.5q-106 0 -180.5 48.5 t-141.5 144.5q-102 141 -190 373q-36 -24 -119 -74v-467h-320q-78 0 -78 63zM489 1671l224 237q38 41 67 41q38 0 76 -30q72 -61 121 -166l-268 -193q-39 -26 -66 -26q-25 0 -51 26z" />
<glyph unicode="&#x40d;" horiz-adv-x="1482" d="M147 92v1329q143 33 293 33q105 0 105 -84v-696l411 723q19 31 43 44t64 13q47 0 128 -33.5t144 -79.5v-1341h-319q-78 0 -78 63v697l-412 -723q-19 -31 -43 -44t-63 -13q-48 0 -129 33.5t-144 78.5zM473 1753q49 105 121 166q39 31 76 31q29 0 67 -41l224 -238 l-103 -110q-27 -27 -51 -27q-25 0 -66 27z" />
<glyph unicode="&#x40e;" horiz-adv-x="1392" d="M86 1294q267 -521 418 -815q-130 -204 -209 -307q-29 -37 -29 -68q0 -44 39 -74t109 -30h188q209 261 399 607.5t320 672.5q10 23 10 47q0 49 -38.5 78t-110.5 29h-224q-96 -295 -235 -568l-240 502q-23 47 -48 62.5t-75 15.5q-61 0 -135 -39t-139 -113zM387 1862 q29 23 78 39t88 16q31 0 46 -10.5t19 -38.5q18 -121 95 -121q48 0 69.5 37.5t24.5 128.5h166q35 0 47 -11.5t10 -37.5q-12 -147 -96 -226t-223 -79q-129 0 -215.5 73t-108.5 230z" />
<glyph unicode="&#x40f;" horiz-adv-x="1499" d="M143 500v921q143 33 293 33q105 0 105 -84v-844q0 -118 29 -162.5t108 -44.5h276v1115h320q78 0 78 -64v-1370h-377v-301h-320q-77 0 -77 63v238q-224 6 -329.5 128.5t-105.5 371.5z" />
<glyph unicode="&#x410;" d="M45 72l477 1321q129 55 269 55q71 0 104 -22.5t55 -84.5l486 -1341h-340q-42 0 -64 13.5t-31 43.5l-53 170h-442l-68 -227h-332q-37 0 -54 20t-7 52zM596 526h262l-131 428z" />
<glyph unicode="&#x411;" horiz-adv-x="1380" d="M143 500v934h926q64 0 64 -78v-242h-592v-221q48 24 123.5 39.5t148.5 15.5q212 0 348.5 -119.5t136.5 -322.5q0 -250 -162 -378t-464 -128h-66q-240 0 -351.5 122t-111.5 378zM541 526q0 -118 29 -162.5t108 -44.5h20q93 0 148 40t55 124q0 86 -48.5 124t-147.5 38 q-94 0 -164 -24v-95z" />
<glyph unicode="&#x412;" horiz-adv-x="1378" d="M143 500v934h564q257 0 394.5 -105.5t137.5 -284.5q0 -102 -52 -185t-138 -120q108 -39 172.5 -124t64.5 -212q0 -181 -139 -292t-406 -111h-135q-240 0 -351.5 122t-111.5 378zM541 862h157q71 0 107.5 38.5t36.5 98.5t-36.5 99t-107.5 39h-157v-275zM543 506 q0 -115 36 -161t117 -46h37q74 0 115 38t41 103q0 64 -41 102t-115 38h-190v-74z" />
<glyph unicode="&#x413;" horiz-adv-x="1163" d="M147 63v1371h895q64 0 64 -78v-242h-561v-1114h-320q-78 0 -78 63z" />
<glyph unicode="&#x414;" horiz-adv-x="1415" d="M49 -238v560h127q110 433 131 1112h813q78 0 78 -64v-1048h88q78 0 78 -64v-559h-320q-77 0 -77 63v238h-521v-301h-319q-78 0 -78 63zM567 319h234v795h-125q-26 -430 -109 -795z" />
<glyph unicode="&#x415;" horiz-adv-x="1210" d="M143 500v934h885q76 0 76 -86q0 -102 -25 -234h-538v-240h389q63 0 63 -77v-242h-452v-29q0 -118 29 -162.5t108 -44.5h379q63 0 63 -77v-242h-514q-240 0 -351.5 122t-111.5 378z" />
<glyph unicode="&#x416;" horiz-adv-x="2125" d="M33 131q0 86 26 156h33q84 0 129 61q124 160 225 443q-203 174 -313 364q-27 49 -27 90q0 66 63 116t226 97q93 -163 223 -314t246 -247v524q143 33 293 33q105 0 105 -84v-473q116 96 246 247t223 314q163 -47 225.5 -97t62.5 -116q0 -42 -26 -90q-109 -188 -314 -364 q100 -281 226 -443q45 -61 129 -61h32q27 -73 27 -156q0 -62 -72 -109t-168 -47q-104 0 -179.5 55.5t-145.5 168.5q-88 141 -154 362q-81 -55 -112 -74v-487h-320q-78 0 -78 63v424q-31 19 -112 74q-66 -221 -154 -362q-70 -113 -146 -168.5t-180 -55.5q-96 0 -167.5 47 t-71.5 109z" />
<glyph unicode="&#x417;" horiz-adv-x="1271" d="M90 1141q0 41 23 80q66 106 200.5 171.5t329.5 65.5q223 0 362.5 -115.5t139.5 -298.5q0 -104 -54 -186.5t-139 -122.5q106 -41 168 -122t62 -193q0 -94 -37 -174.5t-108.5 -141t-184 -95t-254.5 -34.5q-136 0 -252.5 36t-179 87t-62.5 101q0 42 18.5 92.5t43.5 83.5 q163 -80 369 -80q251 0 251 131q0 72 -66 109.5t-220 37.5h-25q-76 0 -76 86q0 110 25 213h92q232 0 232 146q0 54 -39 87.5t-99 33.5q-64 0 -113.5 -42t-72.5 -120q-152 11 -264 65q-70 36 -70 99z" />
<glyph unicode="&#x418;" horiz-adv-x="1482" d="M147 92v1329q143 33 293 33q105 0 105 -84v-696l411 723q19 31 43 44t64 13q47 0 128 -33.5t144 -79.5v-1341h-319q-78 0 -78 63v697l-412 -723q-19 -31 -43 -44t-63 -13q-48 0 -129 33.5t-144 78.5z" />
<glyph unicode="&#x419;" horiz-adv-x="1482" d="M147 92v1329q143 33 293 33q105 0 105 -84v-696l411 723q19 31 43 44t64 13q47 0 128 -33.5t144 -79.5v-1341h-319q-78 0 -78 63v697l-412 -723q-19 -31 -43 -44t-63 -13q-48 0 -129 33.5t-144 78.5zM424 1862q29 23 78 39t88 16q31 0 46 -10.5t19 -38.5q18 -121 95 -121 q48 0 69.5 37.5t24.5 128.5h166q35 0 47 -11.5t10 -37.5q-12 -147 -96 -226t-223 -79q-129 0 -215.5 73t-108.5 230z" />
<glyph unicode="&#x41a;" horiz-adv-x="1435" d="M147 63v1358q143 33 293 33q105 0 105 -84v-487q137 108 267 255t235 320q163 -47 225.5 -97t62.5 -116q0 -37 -32 -90q-122 -196 -334 -383q60 -134 129.5 -246t130.5 -178q55 -61 131 -61h29q26 -70 26 -156q0 -57 -72.5 -106.5t-166.5 -49.5q-106 0 -180.5 48.5 t-141.5 144.5q-102 141 -190 373q-36 -24 -119 -74v-467h-320q-78 0 -78 63z" />
<glyph unicode="&#x41b;" horiz-adv-x="1646" d="M16 150q0 96 54 178q81 -33 157 -33q67 0 104 49t58 182q57 377 57 908h975q78 0 78 -64v-1370h-319q-78 0 -78 63v1051h-262q-12 -367 -56 -651q-38 -251 -148 -369.5t-296 -118.5q-119 0 -221.5 55.5t-102.5 119.5z" />
<glyph unicode="&#x41c;" horiz-adv-x="1865" d="M109 68l139 1296q67 39 145 64.5t131 25.5q40 0 62.5 -15t42.5 -53l301 -593l325 641h277q72 0 78 -58l149 -1376h-327q-80 0 -86 68l-68 788l-197 -397q-25 -49 -102 -49h-174l-223 446l-74 -856h-322q-83 0 -77 68z" />
<glyph unicode="&#x41d;" horiz-adv-x="1492" d="M147 63v1358q143 33 293 33q105 0 105 -84v-491h403v555h320q78 0 78 -64v-1370h-320q-78 0 -78 63v496h-403v-559h-320q-78 0 -78 63z" />
<glyph unicode="&#x41e;" horiz-adv-x="1626" d="M90 717q0 171 56 312t153.5 234t229.5 144t284 51t284 -51t229.5 -144t153.5 -234t56 -312t-56 -312t-153.5 -234.5t-229.5 -144.5t-284 -51t-284 51t-229.5 144.5t-153.5 234.5t-56 312zM487 733q0 -197 97 -317.5t239 -120.5q140 0 228 102.5t88 302.5q0 197 -97 318 t-239 121q-140 0 -228 -103t-88 -303z" />
<glyph unicode="&#x41f;" horiz-adv-x="1492" d="M147 63v1371h1121q78 0 78 -64v-1370h-320q-78 0 -78 63v1051h-403v-1114h-320q-78 0 -78 63z" />
<glyph unicode="&#x420;" horiz-adv-x="1345" d="M147 63v1371h523q281 0 441.5 -144.5t160.5 -400.5q0 -240 -157.5 -383.5t-403.5 -143.5q-76 0 -166 23v-385h-320q-78 0 -78 63zM545 692q52 -10 104 -10q104 0 164.5 55t60.5 160q0 107 -58 162t-161 55h-110v-422z" />
<glyph unicode="&#x421;" d="M90 752q0 209 89.5 370t248 248.5t358.5 87.5q204 0 353.5 -78t226.5 -209q23 -42 23 -79q0 -57 -70 -99q-114 -65 -270 -75q-78 221 -269 221q-133 0 -213 -100.5t-80 -280.5q0 -204 123.5 -333.5t331.5 -129.5q94 0 184.5 20t153.5 56q24 -31 42.5 -83.5t18.5 -88.5 t-40 -75.5t-105 -72.5t-156.5 -54.5t-185.5 -21.5q-162 0 -303 57t-242.5 158t-160 246.5t-58.5 315.5z" />
<glyph unicode="&#x422;" horiz-adv-x="1310" d="M66 1200q0 107 24 234h1092q63 0 63 -78v-242h-391v-1114h-319q-78 0 -78 63v1051h-316q-75 0 -75 86z" />
<glyph unicode="&#x423;" horiz-adv-x="1392" d="M86 1294q65 74 139 113t135 39q50 0 75 -15.5t48 -62.5l240 -502q139 273 235 568h224q72 0 110.5 -29t38.5 -78q0 -24 -10 -47q-130 -326 -320 -672.5t-399 -607.5h-188q-70 0 -109 30t-39 74q0 31 29 68q79 103 209 307q-151 294 -418 815z" />
<glyph unicode="&#x424;" horiz-adv-x="1671" d="M78 723q0 145 76.5 265.5t203 191.5t279.5 86v155q143 33 293 33q104 0 104 -84v-96q153 -15 279.5 -86t203 -191.5t76.5 -265.5t-76.5 -265.5t-203 -191.5t-279.5 -86v-188h-319q-78 0 -78 63v117q-153 15 -279.5 86t-203 191.5t-76.5 265.5zM465 741q0 -94 49 -164 t133 -100v504q-75 -11 -128.5 -75t-53.5 -165zM1024 471q75 11 128.5 75t53.5 165q0 94 -49 164t-133 100v-504z" />
<glyph unicode="&#x425;" horiz-adv-x="1462" d="M88 104q58 171 162.5 335t255.5 292l-404 522q61 78 136.5 139.5t144.5 61.5q41 0 78 -49l293 -381q139 192 194 410h305q63 0 85.5 -28t4.5 -77q-119 -338 -380 -571l448 -578q-61 -78 -136.5 -139t-144.5 -61q-40 0 -77 49l-342 438q-159 -197 -228 -467h-305 q-125 0 -90 104z" />
<glyph unicode="&#x426;" horiz-adv-x="1568" d="M143 500v921q143 33 293 33q105 0 105 -84v-844q0 -118 29 -162.5t108 -44.5h276v1115h320q78 0 78 -64v-1051h88q78 0 78 -63v-557h-320q-78 0 -78 63v238h-514q-240 0 -351.5 122t-111.5 378z" />
<glyph unicode="&#x427;" horiz-adv-x="1431" d="M127 948v473q143 33 293 33q104 0 104 -84v-434q0 -105 57.5 -159t157.5 -54q87 0 148 33v678h319q78 0 78 -64v-1370h-319q-78 0 -78 63v404q-98 -66 -262 -66q-217 0 -357.5 145t-140.5 402z" />
<glyph unicode="&#x428;" horiz-adv-x="1953" d="M143 500v921q143 33 293 33q105 0 105 -84v-844q0 -118 29 -162.5t108 -44.5h98v1115h320q78 0 78 -64v-1051h235v1115h320q77 0 77 -64v-1370h-1200q-240 0 -351.5 122t-111.5 378z" />
<glyph unicode="&#x429;" horiz-adv-x="2023" d="M143 500v921q143 33 293 33q105 0 105 -84v-844q0 -118 29 -162.5t108 -44.5h98v1115h320q78 0 78 -64v-1051h235v1115h320q77 0 77 -64v-1051h88q78 0 78 -63v-557h-319q-78 0 -78 63v238h-969q-240 0 -351.5 122t-111.5 378z" />
<glyph unicode="&#x42a;" horiz-adv-x="1685" d="M66 1200q0 107 24 234h686q78 0 78 -64v-477q48 24 123.5 39.5t148.5 15.5q139 0 248.5 -52t173.5 -153.5t64 -236.5q0 -249 -162.5 -377.5t-464.5 -128.5h-65q-240 0 -351.5 122t-111.5 378v614h-316q-75 0 -75 86zM854 526q0 -118 29 -162.5t108 -44.5h21 q93 0 147.5 40t54.5 124q0 86 -48.5 124t-147.5 38q-94 0 -164 -24v-95z" />
<glyph unicode="&#x42b;" horiz-adv-x="2015" d="M143 500v921q143 33 293 33q105 0 105 -84v-477q48 24 123.5 39.5t148.5 15.5q212 0 348.5 -119.5t136.5 -322.5q0 -250 -162 -378t-464 -128h-66q-240 0 -351.5 122t-111.5 378zM541 526q0 -118 29 -162.5t108 -44.5h20q93 0 148 40t55 124q0 86 -48.5 124t-147.5 38 q-94 0 -164 -24v-95zM1470 63v1358q143 33 293 33q105 0 105 -84v-1370h-320q-78 0 -78 63z" />
<glyph unicode="&#x42c;" horiz-adv-x="1372" d="M143 500v921q143 33 293 33q105 0 105 -84v-477q48 24 123.5 39.5t148.5 15.5q212 0 348.5 -119.5t136.5 -322.5q0 -250 -162 -378t-464 -128h-66q-240 0 -351.5 122t-111.5 378zM541 526q0 -118 29 -162.5t108 -44.5h20q93 0 148 40t55 124q0 86 -48.5 124t-147.5 38 q-94 0 -164 -24v-95z" />
<glyph unicode="&#x42d;" d="M66 1092q0 39 22 79q77 131 226.5 209t353.5 78q200 0 358.5 -87.5t248 -248.5t89.5 -370q0 -170 -58.5 -315.5t-160 -246.5t-242.5 -158t-303 -57q-94 0 -185.5 21.5t-156.5 54.5t-105 72.5t-40 75.5t18.5 88.5t42.5 83.5q63 -36 153.5 -56t184.5 -20q152 0 259 65 t157 187h-389q-76 0 -76 86q0 122 24 213h474q-19 139 -95.5 216t-191.5 77q-190 0 -268 -221q-157 10 -271 75q-69 41 -69 99z" />
<glyph unicode="&#x42e;" horiz-adv-x="2203" d="M147 63v1358q143 33 293 33q105 0 105 -84v-498h135q45 273 241 429.5t470 156.5q152 0 284 -51t229.5 -144t153.5 -234t56 -312t-56 -312t-153.5 -234.5t-229.5 -144.5t-284 -51q-272 0 -466 154t-243 424h-137v-553h-320q-78 0 -78 63zM1065 733q0 -197 97 -317.5 t239 -120.5q140 0 227.5 102.5t87.5 302.5q0 197 -97 318t-239 121q-140 0 -227.5 -103t-87.5 -303z" />
<glyph unicode="&#x42f;" horiz-adv-x="1359" d="M61 135q0 79 27 152h37q75 0 129 51q56 53 106 154q-108 67 -171.5 176t-63.5 247q0 242 160.5 380.5t439.5 138.5h424q63 0 63 -78v-1356h-319q-78 0 -78 63v359q-33 -13 -102 -21q-20 -70 -61.5 -149.5t-84.5 -132.5q-63 -76 -126.5 -110t-149.5 -34q-95 0 -162.5 50.5 t-67.5 109.5zM528 915q0 -95 57 -144.5t154 -49.5q49 0 76 8v385h-70q-103 0 -160 -51t-57 -148z" />
<glyph unicode="&#x430;" horiz-adv-x="1232" d="M74 336q0 161 116 255.5t304 94.5q132 0 200 -33v60q0 143 -205 143q-153 0 -292 -68q-41 61 -41 134q0 43 59.5 88.5t164 76.5t218.5 31q236 0 356.5 -113.5t120.5 -334.5v-318q0 -80 62 -80h55q20 -65 20 -122q0 -62 -65.5 -113t-163.5 -51q-73 0 -137 34.5t-103 100.5 q-95 -146 -286 -146q-171 0 -277 103t-106 258zM451 348q0 -52 30.5 -81t75.5 -29q47 0 85 28.5t56 85.5v113q-43 14 -110 14q-63 0 -100 -36.5t-37 -94.5z" />
<glyph unicode="&#x431;" horiz-adv-x="1320" d="M106 635q0 160 22 281t62 202.5t104 138t138 87t174 49.5l209 39q127 23 256 94q30 -26 53.5 -72t28.5 -86q6 -59 -96.5 -126.5t-245.5 -96.5l-139 -27q-44 -9 -73 -24t-53.5 -45t-38 -80.5t-18.5 -126.5q57 69 143 108t185 39q86 0 163.5 -33.5t136.5 -95t93.5 -154.5 t34.5 -204t-42 -208.5t-116 -167.5t-179 -110.5t-226 -40.5q-259 0 -417.5 181.5t-158.5 478.5zM479 606q0 -153 57.5 -248.5t147.5 -95.5q83 0 135.5 61.5t52.5 168.5q0 104 -51 157t-145 53q-107 0 -197 -90v-6z" />
<glyph unicode="&#x432;" horiz-adv-x="1165" d="M127 385v709h500q192 0 302.5 -89t110.5 -221q0 -69 -31.5 -125.5t-88.5 -85.5q77 -27 124.5 -90.5t47.5 -150.5q0 -143 -110 -237.5t-314 -94.5h-172q-189 0 -279 93.5t-90 291.5zM494 344q0 -46 13.5 -66t43.5 -20h65q109 0 109 92q0 42 -28.5 67t-84.5 25h-118v-98z M494 664h120q36 0 58 23.5t22 62.5t-22 62.5t-58 23.5h-120v-172z" />
<glyph unicode="&#x433;" horiz-adv-x="995" d="M131 63v1031h752q63 0 63 -78v-209h-438v-807h-299q-78 0 -78 63z" />
<glyph unicode="&#x434;" horiz-adv-x="1257" d="M41 -178v465h125q93 287 123 807h704q78 0 78 -64v-743h78q78 0 78 -64v-465h-299q-78 0 -78 64v178h-432v-242h-299q-78 0 -78 64zM518 287h197v520h-107q-21 -281 -90 -520z" />
<glyph unicode="&#x435;" horiz-adv-x="1216" d="M82 543q0 168 76 300.5t207 203.5t292 71q224 0 355 -117t131 -303q0 -106 -45 -186q-24 -44 -63.5 -61t-112.5 -17h-455q21 -94 93 -143t181 -49q157 0 250 55q19 -29 34 -71t15 -72q0 -24 -27.5 -54.5t-75 -58.5t-123.5 -47t-161 -19q-252 0 -411.5 162t-159.5 406z M461 641h311q16 29 16 78q0 62 -34 97.5t-90 35.5q-85 0 -138.5 -56.5t-64.5 -154.5z" />
<glyph unicode="&#x436;" horiz-adv-x="1716" d="M41 141q0 73 25 140h40q35 0 56 17t47 62q70 115 125 281q-124 105 -195 209q-26 38 -26 80q0 61 56 106t210 92q51 -96 129 -191t164 -167v307q127 31 272 31q100 0 100 -82v-256q84 72 162 167t131 191q154 -47 210.5 -92t56.5 -106q0 -41 -27 -80q-71 -104 -195 -209 q50 -157 125 -281q26 -45 47 -62t56 -17h41q24 -64 24 -140q0 -58 -61 -106.5t-150 -48.5q-76 0 -135 46t-108 146q-67 138 -95 285q-60 -36 -82 -47v-416h-294q-78 0 -78 63v353q-17 8 -47.5 26t-36.5 21q-25 -147 -92 -285q-49 -100 -108.5 -146t-135.5 -46 q-89 0 -150 48.5t-61 106.5z" />
<glyph unicode="&#x437;" horiz-adv-x="1107" d="M98 874q0 29 25 70q55 82 170.5 128t263.5 46q193 0 312.5 -88.5t119.5 -220.5q0 -83 -44 -146.5t-122 -99.5q89 -30 142 -93.5t53 -150.5q0 -152 -127.5 -248t-339.5 -96q-92 0 -176 18.5t-140 47t-89 62.5t-33 65q0 30 15 72t34 71q135 -69 291 -69q188 0 188 94 q0 86 -186 86h-31q-34 0 -50 19.5t-16 64.5q0 88 23 162h70q81 0 122 27.5t41 76.5q0 32 -26.5 56t-77.5 24q-110 0 -148 -115q-131 7 -215 62q-49 30 -49 75z" />
<glyph unicode="&#x438;" horiz-adv-x="1292" d="M131 98v979q127 31 277 31q100 0 100 -82v-453l301 486q30 49 90 49q30 0 76 -12q98 -29 186 -99v-997h-299q-78 0 -78 63v459l-301 -485q-30 -49 -90 -49q-30 0 -76 12q-100 29 -186 98z" />
<glyph unicode="&#x439;" horiz-adv-x="1292" d="M131 98q86 -69 186 -98q46 -12 76 -12q60 0 90 49l301 485v-459q0 -63 78 -63h299v997q-88 70 -186 99q-46 12 -76 12q-60 0 -90 -49l-301 -486v453q0 82 -100 82q-150 0 -277 -31v-979zM324 1503q29 23 78 39.5t87 16.5q31 0 46.5 -11t19.5 -39q18 -120 94 -120 q48 0 69.5 37t24.5 128h166q35 0 47.5 -11.5t10.5 -37.5q-12 -146 -96.5 -225.5t-223.5 -79.5q-129 0 -215 73t-108 230z" />
<glyph unicode="&#x43a;" horiz-adv-x="1259" d="M131 63v1014q127 31 277 31q100 0 100 -82v-281q102 65 209.5 173t163.5 210q154 -47 210 -92t56 -106q0 -41 -27 -80q-87 -127 -239 -244q78 -166 141 -254q31 -45 58 -63.5t63 -18.5h51q25 -67 25 -123q0 -58 -69 -109.5t-163 -51.5q-162 0 -262 164q-58 98 -129 270 q-62 -34 -88 -45v-375h-299q-78 0 -78 63z" />
<glyph unicode="&#x43b;" horiz-adv-x="1384" d="M16 131q0 38 13.5 81.5t33.5 72.5q44 -23 99 -23q58 0 88 44.5t43 164.5q28 268 31 623h852q77 0 77 -64v-1030h-299q-77 0 -77 63v744h-197q-8 -254 -31 -418q-30 -213 -115.5 -313.5t-244.5 -100.5q-108 0 -190.5 49t-82.5 107z" />
<glyph unicode="&#x43c;" horiz-adv-x="1570" d="M96 63l111 955q67 39 145.5 64.5t132.5 25.5q39 0 62 -14.5t43 -53.5l192 -387l219 441h275q74 0 80 -64l121 -1030h-301q-74 0 -80 63l-64 582l-131 -264q-20 -35 -65 -35h-154l-150 299l-69 -645h-289q-40 0 -60.5 16t-17.5 47z" />
<glyph unicode="&#x43d;" horiz-adv-x="1263" d="M131 63v1014q127 31 277 31q100 0 100 -82v-317h248v385h299q78 0 78 -64v-1030h-299q-78 0 -78 63v359h-248v-422h-299q-78 0 -78 63z" />
<glyph unicode="&#x43e;" horiz-adv-x="1318" d="M82 547q0 133 47.5 242.5t127.5 180.5t183.5 109.5t218.5 38.5t218.5 -38.5t184 -109.5t128 -180.5t47.5 -242.5q0 -107 -31 -199.5t-85.5 -160t-127 -116t-158 -72.5t-176.5 -24q-114 0 -218 38.5t-184 109.5t-127.5 181t-47.5 243zM459 557q0 -138 56 -216.5t153 -78.5 q90 0 141 70.5t51 204.5q0 138 -56 216t-153 78q-90 0 -141 -70t-51 -204z" />
<glyph unicode="&#x43f;" horiz-adv-x="1263" d="M131 63v1031h924q78 0 78 -64v-1030h-299q-78 0 -78 63v744h-248v-807h-299q-78 0 -78 63z" />
<glyph unicode="&#x440;" horiz-adv-x="1337" d="M131 -373v1450q127 31 277 31q100 0 100 -82v-65q112 157 299 157q194 0 321 -144.5t127 -379.5q0 -142 -42 -261t-112.5 -196t-160 -119.5t-186.5 -42.5q-156 0 -246 97v-508h-299q-78 0 -78 63zM508 309q53 -47 135 -47q103 0 169.5 91.5t66.5 232.5q0 245 -177 245 q-61 0 -113 -41t-81 -114v-367z" />
<glyph unicode="&#x441;" horiz-adv-x="1159" d="M82 578q0 114 38 213t108 171.5t175 114t232 41.5q154 0 272 -58.5t176 -152.5q23 -40 23 -76q0 -55 -76 -98q-86 -49 -242 -67q-20 87 -59 126t-100 39q-80 0 -125 -65t-45 -184q0 -144 88 -232t237 -88q143 0 242 62q21 -30 37 -76t16 -78q0 -27 -29 -60t-79 -63.5 t-128.5 -51t-166.5 -20.5q-122 0 -231 43.5t-189 120.5t-127 191t-47 248z" />
<glyph unicode="&#x442;" horiz-adv-x="1134" d="M53 893q0 111 23 201h942q63 0 63 -78v-209h-325v-807h-299q-78 0 -78 63v744h-250q-76 0 -76 86z" />
<glyph unicode="&#x443;" horiz-adv-x="1294" d="M127 430v637q127 31 276 31q101 0 101 -82v-598q0 -80 31 -118t98 -38q78 0 153 57v775h299q78 0 78 -64v-1005q0 -111 -35.5 -205.5t-106 -169t-186 -116.5t-264.5 -42q-197 0 -314.5 82.5t-117.5 210.5q0 77 45.5 141t124.5 99q-182 95 -182 405zM512 -145 q0 -40 25 -63t69 -23q84 0 132 64t48 183v99q-83 -100 -194 -127q-80 -58 -80 -133z" />
<glyph unicode="&#x444;" horiz-adv-x="1646" d="M78 547q0 229 150.5 376t408.5 181v375q123 30 256 30q100 0 100 -82v-321q266 -30 421 -177.5t155 -381.5t-155 -381.5t-421 -177.5v-383h-278q-78 0 -78 63v322q-258 33 -408.5 179.5t-150.5 377.5zM449 559q0 -103 51 -179t137 -106v555q-88 -22 -138 -92.5 t-50 -177.5zM993 258q96 20 150.5 92.5t54.5 184.5q0 106 -56.5 183.5t-148.5 104.5v-565z" />
<glyph unicode="&#x445;" horiz-adv-x="1208" d="M74 104q84 243 309 437l-291 387q135 178 252 178q31 0 49 -11t41 -40l195 -260q35 45 63.5 127.5t42.5 171.5h281q120 0 90 -105q-31 -109 -110 -225.5t-183 -214.5l150 -201q33 -44 58.5 -60t68.5 -16h40q25 -63 25 -125q0 -60 -60.5 -110.5t-150.5 -50.5 q-77 0 -140.5 40.5t-127.5 127.5l-107 143q-80 -106 -127 -297h-278q-126 0 -90 104z" />
<glyph unicode="&#x446;" horiz-adv-x="1320" d="M127 385v692q127 31 276 31q101 0 101 -82v-586q0 -92 21.5 -122.5t80.5 -30.5h156v807h299q78 0 78 -64v-743h73q78 0 78 -64v-465h-299q-78 0 -78 64v178h-417q-189 0 -279 93.5t-90 291.5z" />
<glyph unicode="&#x447;" horiz-adv-x="1253" d="M106 762v315q127 31 277 31q100 0 100 -82v-262q0 -87 28 -129.5t87 -42.5q89 0 147 55v447h299q78 0 78 -64v-1030h-299q-78 0 -78 63v336q-102 -110 -260 -110q-169 0 -272.5 123t-106.5 350z" />
<glyph unicode="&#x448;" horiz-adv-x="1712" d="M127 385v692q127 31 276 31q101 0 101 -82v-586q0 -92 21.5 -122.5t80.5 -30.5h60v807h299q77 0 77 -64v-743h162v807h299q78 0 78 -64v-1030h-1085q-189 0 -279 93.5t-90 291.5z" />
<glyph unicode="&#x449;" horiz-adv-x="1763" d="M127 385v692q127 31 276 31q101 0 101 -82v-586q0 -92 21.5 -122.5t80.5 -30.5h60v807h299q77 0 77 -64v-743h162v807h299q78 0 78 -64v-743h74q78 0 78 -64v-465h-299q-78 0 -78 64v178h-860q-189 0 -279 93.5t-90 291.5z" />
<glyph unicode="&#x44a;" horiz-adv-x="1425" d="M53 893q0 111 23 201h602q78 0 78 -64v-270q96 39 202 39q171 0 285.5 -105t114.5 -280q0 -194 -139 -304t-400 -110h-71q-189 0 -279 93.5t-90 291.5v422h-250q-76 0 -76 86zM756 420q0 -92 22 -123t80 -31q66 0 94.5 34.5t28.5 102.5q0 63 -34 96t-95 33q-53 0 -96 -16 v-96z" />
<glyph unicode="&#x44b;" horiz-adv-x="1804" d="M127 385v692q127 31 276 31q101 0 101 -82v-266q96 39 203 39q171 0 285 -105t114 -280q0 -194 -139 -304t-400 -110h-71q-189 0 -279 93.5t-90 291.5zM504 420q0 -92 22 -123t80 -31q66 0 94.5 34.5t28.5 102.5q0 63 -34 96t-95 33q-53 0 -96 -16v-96zM1237 287v790 q127 31 276 31q101 0 101 -82v-674q0 -80 61 -80h56q20 -65 20 -122q0 -62 -65.5 -113t-163.5 -51q-121 0 -203 75t-82 226z" />
<glyph unicode="&#x44c;" horiz-adv-x="1173" d="M127 385v692q127 31 276 31q101 0 101 -82v-266q96 39 203 39q171 0 285 -105t114 -280q0 -194 -139 -304t-400 -110h-71q-189 0 -279 93.5t-90 291.5zM504 420q0 -92 22 -123t80 -31q66 0 94.5 34.5t28.5 102.5q0 63 -34 96t-95 33q-53 0 -96 -16v-96z" />
<glyph unicode="&#x44d;" horiz-adv-x="1187" d="M82 831q0 38 22 76q58 94 176 152.5t273 58.5q127 0 232 -41.5t175 -114t108 -171.5t38 -213q0 -134 -47 -248t-127 -191t-189 -120.5t-231 -43.5q-88 0 -166.5 20.5t-128.5 51t-79 63.5t-29 60q0 32 16 78t37 76q99 -62 241 -62q223 0 299 150h-225q-76 0 -76 86 q0 94 25 180h301q-19 73 -65.5 113t-112.5 40q-64 0 -104.5 -34t-69.5 -115q-131 13 -215 61q-78 44 -78 88z" />
<glyph unicode="&#x44e;" horiz-adv-x="1832" d="M131 63v1014q127 31 277 31q100 0 100 -82v-317h106q51 191 206.5 300t353.5 109q115 0 218.5 -38.5t183.5 -109.5t127.5 -180.5t47.5 -242.5t-47.5 -243t-127.5 -181t-184 -109.5t-218 -38.5q-135 0 -253 51t-203 154t-112 242h-98v-422h-299q-78 0 -78 63zM973 557 q0 -138 56 -216.5t153 -78.5q90 0 141 70.5t51 204.5q0 138 -56 216t-153 78q-90 0 -141 -70t-51 -204z" />
<glyph unicode="&#x44f;" horiz-adv-x="1191" d="M98 111q0 62 25 135h41q51 0 84 33q52 56 78 122q-88 49 -138.5 129t-50.5 183q0 175 131.5 278t337.5 103h377q78 0 78 -64v-1030h-299q-78 0 -78 63v275q-30 -6 -61 -6q-27 -114 -91 -211q-94 -146 -233 -146q-86 0 -143.5 44.5t-57.5 91.5zM504 713q0 -54 39.5 -87.5 t99.5 -33.5h41v246h-51q-129 0 -129 -125z" />
<glyph unicode="&#x450;" horiz-adv-x="1216" d="M82 543q0 168 76 300.5t207 203.5t292 71q224 0 355 -117t131 -303q0 -106 -45 -186q-24 -44 -63.5 -61t-112.5 -17h-455q21 -94 93 -143t181 -49q157 0 250 55q19 -29 34 -71t15 -72q0 -24 -27.5 -54.5t-75 -58.5t-123.5 -47t-161 -19q-252 0 -411.5 162t-159.5 406z M374 1397q49 105 121 166q37 30 76 30q30 0 68 -41l223 -237l-103 -111q-26 -26 -51 -26q-26 0 -65 26zM461 641h311q16 29 16 78q0 62 -34 97.5t-90 35.5q-85 0 -138.5 -56.5t-64.5 -154.5z" />
<glyph unicode="&#x451;" horiz-adv-x="1216" d="M82 543q0 168 76 300.5t207 203.5t292 71q224 0 355 -117t131 -303q0 -106 -45 -186q-24 -44 -63.5 -61t-112.5 -17h-455q21 -94 93 -143t181 -49q157 0 250 55q19 -29 34 -71t15 -72q0 -24 -27.5 -54.5t-75 -58.5t-123.5 -47t-161 -19q-252 0 -411.5 162t-159.5 406z M274 1382q0 70 42.5 113t109.5 43t115.5 -48t48.5 -124q0 -70 -42.5 -113t-109.5 -43t-115.5 48t-48.5 124zM461 641h311q16 29 16 78q0 62 -34 97.5t-90 35.5q-85 0 -138.5 -56.5t-64.5 -154.5zM686 1382q0 70 42.5 113t109.5 43t115 -48t48 -124q0 -70 -42 -113t-109 -43 t-115.5 48t-48.5 124z" />
<glyph unicode="&#x452;" horiz-adv-x="1294" d="M6 1253q0 69 17 125h108v101q123 30 277 30q100 0 100 -82v-49h252q27 0 39 -15t12 -50v-115h-303v-219q57 67 138 103t163 36q173 0 265.5 -113.5t92.5 -340.5v-609q0 -105 -25.5 -195.5t-66 -151.5t-91.5 -104.5t-101 -63t-95 -19.5q-43 0 -83.5 40t-61.5 97 q148 157 148 395v623q0 79 -32 117t-100 38q-82 0 -151 -57v-774h-299q-78 0 -78 63v1135h-65q-60 0 -60 55z" />
<glyph unicode="&#x453;" horiz-adv-x="995" d="M131 63v1031h752q63 0 63 -78v-209h-438v-807h-299q-78 0 -78 63zM293 1315l223 237q38 41 68 41q38 0 75 -30q72 -61 121 -166l-268 -193q-39 -26 -66 -26q-25 0 -51 26z" />
<glyph unicode="&#x454;" horiz-adv-x="1159" d="M82 578q0 114 38 213t108 171.5t175 114t232 41.5q154 0 272 -58.5t176 -152.5q23 -40 23 -76q0 -44 -78 -88q-84 -48 -215 -61q-29 81 -69.5 115t-104.5 34q-66 0 -113 -40t-67 -113h264q63 0 63 -78v-188h-301q77 -150 299 -150q143 0 242 62q21 -30 37 -76t16 -78 q0 -27 -29 -60t-79 -63.5t-128.5 -51t-166.5 -20.5q-122 0 -231 43.5t-189 120.5t-127 191t-47 248z" />
<glyph unicode="&#x455;" horiz-adv-x="1054" d="M98 780q0 149 116 243.5t306 94.5q142 0 253 -46t167 -128q25 -41 25 -70q0 -45 -50 -75q-84 -55 -215 -62q-38 115 -135 115q-43 0 -66.5 -20t-23.5 -50q0 -40 30.5 -66t104.5 -46q194 -51 280.5 -135t86.5 -218q0 -152 -116.5 -247t-328.5 -95q-102 0 -197 29 t-151.5 73t-56.5 89q0 35 15 78t38 75q65 -36 146 -56.5t153 -20.5q121 0 121 59q0 29 -20.5 47t-77.5 31q-193 44 -298.5 144t-105.5 257z" />
<glyph unicode="&#x456;" horiz-adv-x="686" d="M119 1378q0 82 54.5 127t143.5 45q83 0 143 -48t60 -130t-54.5 -127t-143.5 -45q-83 0 -143 48t-60 130zM131 287v790q127 31 277 31q100 0 100 -82v-674q0 -80 61 -80h56q20 -65 20 -122q0 -62 -65.5 -113t-163.5 -51q-121 0 -203 75t-82 226z" />
<glyph unicode="&#x457;" horiz-adv-x="686" d="M-45 1382q0 70 42 113t109 43t115.5 -48t48.5 -124q0 -70 -42.5 -113t-109.5 -43t-115 48t-48 124zM131 287v790q127 31 277 31q100 0 100 -82v-674q0 -80 61 -80h56q20 -65 20 -122q0 -62 -65.5 -113t-163.5 -51q-121 0 -203 75t-82 226zM366 1382q0 70 42.5 113 t109.5 43t115.5 -48t48.5 -124q0 -70 -42.5 -113t-109.5 -43t-115.5 48t-48.5 124z" />
<glyph unicode="&#x458;" horiz-adv-x="645" d="M-6 -279q147 156 147 396v960q127 31 277 31q100 0 100 -82v-907q0 -130 -38.5 -237t-97.5 -169.5t-122.5 -95.5t-120.5 -33q-43 0 -83.5 40t-61.5 97zM129 1378q0 82 55 127t144 45q83 0 142.5 -48t59.5 -130t-54.5 -127t-143.5 -45q-83 0 -143 48t-60 130z" />
<glyph unicode="&#x459;" horiz-adv-x="1912" d="M16 131q0 38 13.5 81.5t33.5 72.5q44 -23 99 -23q58 0 88 44.5t43 164.5q28 268 31 623h841q78 0 78 -64v-270q96 39 203 39q171 0 285 -105t114 -280q0 -194 -138.5 -304t-399.5 -110h-72q-189 0 -279 93.5t-90 291.5v422h-186q-8 -254 -31 -418q-30 -213 -115.5 -313.5 t-244.5 -100.5q-108 0 -190.5 49t-82.5 107zM1243 420q0 -91 22 -122.5t81 -31.5q66 0 94 34.5t28 102.5q0 63 -34 96t-95 33q-53 0 -96 -16v-96z" />
<glyph unicode="&#x45a;" horiz-adv-x="1792" d="M131 63v1014q127 31 277 31q100 0 100 -82v-317h237v385h299q78 0 78 -64v-270q96 39 203 39q171 0 285 -105t114 -280q0 -194 -138.5 -304t-399.5 -110h-72q-189 0 -279 93.5t-90 291.5v37h-237v-422h-299q-78 0 -78 63zM1122 420q0 -91 22 -122.5t81 -31.5 q66 0 94.5 34.5t28.5 102.5q0 63 -34 96t-95 33q-54 0 -97 -16v-96z" />
<glyph unicode="&#x45b;" horiz-adv-x="1329" d="M6 1253q0 69 17 125h108v101q123 30 277 30q100 0 100 -82v-49h252q27 0 39 -15t12 -50v-115h-303v-219q57 67 138 103t163 36q173 0 265.5 -113.5t92.5 -340.5v-312q0 -80 62 -80h55q21 -68 21 -122q0 -62 -66 -113t-164 -51q-121 0 -202.5 75t-81.5 226v389 q0 79 -32 117t-100 38q-82 0 -151 -57v-774h-299q-78 0 -78 63v1135h-65q-60 0 -60 55z" />
<glyph unicode="&#x45c;" horiz-adv-x="1259" d="M131 63v1014q127 31 277 31q100 0 100 -82v-281q102 65 209.5 173t163.5 210q154 -47 210 -92t56 -106q0 -41 -27 -80q-87 -127 -239 -244q78 -166 141 -254q31 -45 58 -63.5t63 -18.5h51q25 -67 25 -123q0 -58 -69 -109.5t-163 -51.5q-162 0 -262 164q-58 98 -129 270 q-62 -34 -88 -45v-375h-299q-78 0 -78 63zM393 1315l223 237q38 41 68 41q38 0 76 -30q72 -61 121 -166l-269 -193q-39 -26 -65 -26q-25 0 -51 26z" />
<glyph unicode="&#x45d;" horiz-adv-x="1292" d="M131 98q86 -69 186 -98q46 -12 76 -12q60 0 90 49l301 485v-459q0 -63 78 -63h299v997q-88 70 -186 99q-46 12 -76 12q-60 0 -90 -49l-301 -486v453q0 82 -100 82q-150 0 -277 -31v-979zM362 1397q49 105 121 166q38 30 76 30q30 0 68 -41l223 -237l-102 -111 q-26 -26 -52 -26t-65 26z" />
<glyph unicode="&#x45e;" horiz-adv-x="1294" d="M127 430v637q127 31 276 31q101 0 101 -82v-598q0 -80 31 -118t98 -38q78 0 153 57v775h299q78 0 78 -64v-1005q0 -111 -35.5 -205.5t-106 -169t-186 -116.5t-264.5 -42q-197 0 -314.5 82.5t-117.5 210.5q0 77 45.5 141t124.5 99q-182 95 -182 405zM319 1503 q29 23 78 39.5t88 16.5q31 0 46.5 -11t19.5 -39q18 -120 94 -120q48 0 69.5 37t24.5 128h166q35 0 47.5 -11.5t10.5 -37.5q-12 -146 -96.5 -225.5t-223.5 -79.5q-129 0 -215.5 73t-108.5 230zM512 -145q0 -40 25 -63t69 -23q84 0 132 64t48 183v99q-83 -100 -194 -127 q-80 -58 -80 -133z" />
<glyph unicode="&#x45f;" horiz-adv-x="1269" d="M127 385v692q127 31 276 31q101 0 101 -82v-586q0 -92 21.5 -122.5t80.5 -30.5h156v807h299q78 0 78 -64v-1030h-281v-242h-299q-78 0 -78 64v178q-182 3 -268 96.5t-86 288.5z" />
<glyph unicode="&#x490;" horiz-adv-x="1163" d="M147 63v1371h562v241q143 33 292 33q105 0 105 -84v-510h-561v-1114h-320q-78 0 -78 63z" />
<glyph unicode="&#x491;" horiz-adv-x="995" d="M131 63v1031h438v219q123 30 277 30q100 0 100 -81v-455h-438v-807h-299q-78 0 -78 63z" />
<glyph unicode="&#x1e80;" horiz-adv-x="2318" d="M74 1337q71 50 155.5 83.5t141.5 33.5q46 0 71 -18t37 -60l248 -927q70 176 137 453t105 532h248q75 0 109.5 -21t47.5 -67l232 -897q70 184 138 458t109 527h232q87 0 124 -34.5t23 -101.5q-60 -285 -171.5 -614.5t-245.5 -609.5q-20 -42 -54 -58t-104 -16h-244 l-239 936q-37 -183 -111.5 -421.5t-155.5 -440.5q-17 -41 -52 -57.5t-105 -16.5h-244zM891 1753q49 105 121 166q37 30 76 30q30 0 68 -41l223 -237l-103 -111q-26 -26 -51 -26q-26 0 -65 26z" />
<glyph unicode="&#x1e81;" horiz-adv-x="1806" d="M70 1012q64 44 139 73t123 29q52 0 76.5 -19t35.5 -65l148 -620q93 308 131 684h229q71 0 105.5 -22t46.5 -71l135 -593q77 242 135 686h217q82 0 114.5 -33t23.5 -94q-32 -192 -105.5 -438t-165.5 -455q-19 -41 -53.5 -57.5t-104.5 -16.5h-231l-151 682 q-64 -384 -154 -608q-17 -41 -52 -57.5t-106 -16.5h-207zM618 1397q49 105 121 166q37 30 76 30q30 0 68 -41l223 -237l-102 -111q-26 -26 -52 -26t-65 26z" />
<glyph unicode="&#x1e82;" horiz-adv-x="2318" d="M74 1337q71 50 155.5 83.5t141.5 33.5q46 0 71 -18t37 -60l248 -927q70 176 137 453t105 532h248q75 0 109.5 -21t47.5 -67l232 -897q70 184 138 458t109 527h232q87 0 124 -34.5t23 -101.5q-60 -285 -171.5 -614.5t-245.5 -609.5q-20 -42 -54 -58t-104 -16h-244 l-239 936q-37 -183 -111.5 -421.5t-155.5 -440.5q-17 -41 -52 -57.5t-105 -16.5h-244zM925 1671l224 237q38 41 67 41q38 0 76 -30q72 -61 121 -166l-268 -193q-39 -26 -66 -26q-25 0 -51 26z" />
<glyph unicode="&#x1e83;" horiz-adv-x="1806" d="M70 1012q64 44 139 73t123 29q52 0 76.5 -19t35.5 -65l148 -620q93 308 131 684h229q71 0 105.5 -22t46.5 -71l135 -593q77 242 135 686h217q82 0 114.5 -33t23.5 -94q-32 -192 -105.5 -438t-165.5 -455q-19 -41 -53.5 -57.5t-104.5 -16.5h-231l-151 682 q-64 -384 -154 -608q-17 -41 -52 -57.5t-106 -16.5h-207zM670 1315l223 237q38 41 68 41q37 0 75 -30q72 -61 121 -166l-268 -193q-39 -26 -66 -26q-25 0 -51 26z" />
<glyph unicode="&#x1e84;" horiz-adv-x="2318" d="M74 1337q71 50 155.5 83.5t141.5 33.5q46 0 71 -18t37 -60l248 -927q70 176 137 453t105 532h248q75 0 109.5 -21t47.5 -67l232 -897q70 184 138 458t109 527h232q87 0 124 -34.5t23 -101.5q-60 -285 -171.5 -614.5t-245.5 -609.5q-20 -42 -54 -58t-104 -16h-244 l-239 936q-37 -183 -111.5 -421.5t-155.5 -440.5q-17 -41 -52 -57.5t-105 -16.5h-244zM811 1738q0 70 42 113t109 43t115.5 -48t48.5 -124q0 -70 -42.5 -113t-109.5 -43t-115 48t-48 124zM1222 1738q0 70 42.5 113t109.5 43t115.5 -48t48.5 -124q0 -70 -42.5 -113 t-109.5 -43t-115.5 48t-48.5 124z" />
<glyph unicode="&#x1e85;" horiz-adv-x="1806" d="M70 1012q64 44 139 73t123 29q52 0 76.5 -19t35.5 -65l148 -620q93 308 131 684h229q71 0 105.5 -22t46.5 -71l135 -593q77 242 135 686h217q82 0 114.5 -33t23.5 -94q-32 -192 -105.5 -438t-165.5 -455q-19 -41 -53.5 -57.5t-104.5 -16.5h-231l-151 682 q-64 -384 -154 -608q-17 -41 -52 -57.5t-106 -16.5h-207zM555 1382q0 70 42.5 113t109.5 43t115 -48t48 -124q0 -70 -42 -113t-109 -43t-115.5 48t-48.5 124zM967 1382q0 70 42 113t109 43t115.5 -48t48.5 -124q0 -70 -42.5 -113t-109.5 -43t-115 48t-48 124z" />
<glyph unicode="&#x1ef2;" horiz-adv-x="1390" d="M47 1278q60 70 141 123t146 53q56 0 86 -59l278 -555q83 125 157 291t106 303h284q120 0 90 -105q-54 -191 -178.5 -418t-273.5 -415v-496h-320q-78 0 -78 63v431zM403 1753q49 105 121 166q38 30 76 30q30 0 68 -41l223 -237l-103 -111q-26 -26 -51 -26q-26 0 -65 26z " />
<glyph unicode="&#x1ef3;" horiz-adv-x="1294" d="M127 430v637q127 31 276 31q101 0 101 -82v-598q0 -80 31 -118t98 -38q78 0 153 57v775h299q78 0 78 -64v-1005q0 -111 -35.5 -205.5t-106 -169t-186 -116.5t-264.5 -42q-197 0 -314.5 82.5t-117.5 210.5q0 77 45.5 141t124.5 99q-182 95 -182 405zM360 1397 q49 105 121 166q37 30 76 30q30 0 68 -41l223 -237l-103 -111q-26 -26 -51 -26q-26 0 -65 26zM512 -145q0 -40 25 -63t69 -23q84 0 132 64t48 183v99q-83 -100 -194 -127q-80 -58 -80 -133z" />
<glyph unicode="&#x2000;" horiz-adv-x="1015" />
<glyph unicode="&#x2001;" horiz-adv-x="2030" />
<glyph unicode="&#x2002;" horiz-adv-x="1015" />
<glyph unicode="&#x2003;" horiz-adv-x="2030" />
<glyph unicode="&#x2004;" horiz-adv-x="676" />
<glyph unicode="&#x2005;" horiz-adv-x="507" />
<glyph unicode="&#x2006;" horiz-adv-x="338" />
<glyph unicode="&#x2007;" horiz-adv-x="338" />
<glyph unicode="&#x2008;" horiz-adv-x="253" />
<glyph unicode="&#x2009;" horiz-adv-x="409" />
<glyph unicode="&#x200a;" horiz-adv-x="112" />
<glyph unicode="&#x2010;" horiz-adv-x="905" d="M139 616q0 112 27 207h522q78 0 78 -63v-223h-551q-76 0 -76 79z" />
<glyph unicode="&#x2011;" horiz-adv-x="905" d="M139 616q0 112 27 207h522q78 0 78 -63v-223h-551q-76 0 -76 79z" />
<glyph unicode="&#x2012;" horiz-adv-x="1363" d="M139 616q0 112 27 207h981q78 0 78 -63v-223h-1010q-76 0 -76 79z" />
<glyph unicode="&#x2013;" horiz-adv-x="1024" d="M0 616q0 112 27 207h919q78 0 78 -63v-223h-948q-76 0 -76 79z" />
<glyph unicode="&#x2014;" horiz-adv-x="2048" d="M0 616q0 112 27 207h1943q78 0 78 -63v-223h-1972q-76 0 -76 79z" />
<glyph unicode="&#x2015;" horiz-adv-x="2048" d="M184 616q0 112 27 207h1575q78 0 78 -63v-223h-1604q-76 0 -76 79z" />
<glyph unicode="&#x2016;" horiz-adv-x="1030" d="M164 -209v1716q95 27 198 27q84 0 84 -57v-1743h-210q-38 0 -55 13.5t-17 43.5zM584 -209v1716q95 27 198 27q84 0 84 -57v-1743h-211q-38 0 -54.5 13.5t-16.5 43.5z" />
<glyph unicode="&#x2017;" horiz-adv-x="1187" d="M82 -158q0 75 20 127h947q30 0 43.5 -16.5t13.5 -54.5v-129h-967q-57 0 -57 73zM82 -449q0 75 20 127h947q30 0 43.5 -16.5t13.5 -54.5v-129h-967q-57 0 -57 73z" />
<glyph unicode="&#x2018;" horiz-adv-x="696" d="M156 1051q0 192 120 333q55 64 115 97t84 22q46 -22 60 -82q-46 -41 -80.5 -93.5t-44.5 -100.5q58 -20 94.5 -71t36.5 -122q0 -86 -53 -137t-134 -51q-79 0 -138.5 57t-59.5 148z" />
<glyph unicode="&#x2019;" horiz-adv-x="696" d="M156 1331q0 86 52.5 137.5t133.5 51.5q79 0 139 -57t60 -148q0 -192 -121 -334q-55 -64 -115 -97t-84 -22q-45 22 -59 82q46 41 80.5 94t44.5 101q-58 20 -94.5 70.5t-36.5 121.5z" />
<glyph unicode="&#x201a;" horiz-adv-x="696" d="M156 180q0 86 52.5 137.5t133.5 51.5q79 0 139 -57t60 -148q0 -192 -121 -334q-55 -64 -115 -97t-84 -22q-45 22 -59 82q46 41 80.5 94t44.5 101q-58 20 -94.5 70.5t-36.5 121.5z" />
<glyph unicode="&#x201b;" horiz-adv-x="696" d="M156 1315q0 91 59.5 148t138.5 57q81 0 134 -51.5t53 -137.5q0 -71 -36.5 -121.5t-94.5 -70.5q10 -48 44.5 -101t80.5 -94q-14 -60 -60 -82q-24 -11 -84 22t-115 97q-120 141 -120 334z" />
<glyph unicode="&#x201c;" horiz-adv-x="1183" d="M156 1051q0 192 120 333q55 64 115 97t84 22q46 -22 60 -82q-46 -41 -80.5 -93.5t-44.5 -100.5q58 -20 94.5 -71t36.5 -122q0 -86 -53 -137t-134 -51q-79 0 -138.5 57t-59.5 148zM643 1051q0 191 121 333q55 64 115 97t84 22q45 -22 59 -82q-46 -41 -80.5 -93.5 t-44.5 -100.5q58 -20 94.5 -71t36.5 -122q0 -86 -52.5 -137t-133.5 -51q-79 0 -139 57t-60 148z" />
<glyph unicode="&#x201d;" horiz-adv-x="1183" d="M156 1331q0 86 52.5 137.5t133.5 51.5q79 0 139 -57t60 -148q0 -192 -121 -334q-55 -64 -115 -97t-84 -22q-45 22 -59 82q46 41 80.5 94t44.5 101q-58 20 -94.5 70.5t-36.5 121.5zM643 1331q0 86 52.5 137.5t133.5 51.5q79 0 139 -57t60 -148q0 -192 -121 -334 q-55 -64 -114.5 -97t-83.5 -22q-46 22 -60 82q46 41 80.5 94t44.5 101q-58 20 -94.5 70.5t-36.5 121.5z" />
<glyph unicode="&#x201e;" horiz-adv-x="1183" d="M156 180q0 86 52.5 137.5t133.5 51.5q79 0 139 -57t60 -148q0 -192 -121 -334q-55 -64 -115 -97t-84 -22q-45 22 -59 82q46 41 80.5 94t44.5 101q-58 20 -94.5 70.5t-36.5 121.5zM643 180q0 86 52.5 137.5t133.5 51.5q79 0 139 -57t60 -148q0 -192 -121 -334 q-55 -64 -114.5 -97t-83.5 -22q-46 22 -60 82q46 41 80.5 94t44.5 101q-58 20 -94.5 70.5t-36.5 121.5z" />
<glyph unicode="&#x201f;" horiz-adv-x="1183" d="M156 1315q0 91 59.5 148t138.5 57q81 0 134 -51.5t53 -137.5q0 -71 -36.5 -121.5t-94.5 -70.5q10 -48 44.5 -101t80.5 -94q-14 -60 -60 -82q-24 -11 -84 22t-115 97q-120 141 -120 334zM643 1315q0 91 60 148t139 57q81 0 133.5 -51.5t52.5 -137.5q0 -71 -36.5 -121.5 t-94.5 -70.5q10 -48 44.5 -101t80.5 -94q-14 -60 -59 -82q-24 -11 -84 22t-115 97q-121 142 -121 334z" />
<glyph unicode="&#x2020;" horiz-adv-x="1175" d="M82 954q0 111 29 234l309 -31l-21 338q126 37 277 37q53 0 77 -18.5t21 -59.5l-18 -297l250 27q46 5 67 -12.5t21 -61.5v-258l-332 29v-1149h-283q-35 0 -50 12t-15 39v1098l-254 -25q-41 -4 -59.5 20.5t-18.5 77.5z" />
<glyph unicode="&#x2021;" horiz-adv-x="1191" d="M90 178q0 111 29 234l303 -29v498l-254 -25q-41 -4 -59.5 20.5t-18.5 77.5q0 111 29 234l309 -31l-20 338q126 37 276 37q53 0 77 -18.5t21 -59.5l-18 -297l250 27q46 5 67 -12.5t21 -61.5v-258l-332 29v-498l244 25q46 5 67 -12.5t21 -61.5v-258l-338 30l18 -296 q3 -41 -21 -59.5t-77 -18.5q-150 0 -276 37l20 337l-260 -26q-41 -4 -59.5 20.5t-18.5 77.5z" />
<glyph unicode="&#x2022;" horiz-adv-x="968" d="M164 694q0 143 86.5 229.5t224.5 86.5q135 0 232.5 -94.5t97.5 -249.5q0 -143 -86.5 -229.5t-224.5 -86.5q-135 0 -232.5 94.5t-97.5 249.5z" />
<glyph unicode="&#x2024;" horiz-adv-x="696" d="M156 180q0 86 52.5 137.5t133.5 51.5q79 0 139 -57t60 -148q0 -86 -53 -137.5t-134 -51.5q-79 0 -138.5 57t-59.5 148z" />
<glyph unicode="&#x2025;" horiz-adv-x="1392" d="M156 180q0 86 52.5 137.5t133.5 51.5q79 0 139 -57t60 -148q0 -86 -53 -137.5t-134 -51.5q-79 0 -138.5 57t-59.5 148zM852 180q0 86 52.5 137.5t133.5 51.5q79 0 139 -57t60 -148q0 -86 -52.5 -137.5t-133.5 -51.5q-79 0 -139 57t-60 148z" />
<glyph unicode="&#x2026;" horiz-adv-x="2088" d="M156 180q0 86 52.5 137.5t133.5 51.5q79 0 139 -57t60 -148q0 -86 -53 -137.5t-134 -51.5q-79 0 -138.5 57t-59.5 148zM852 180q0 86 52.5 137.5t133.5 51.5q79 0 139 -57t60 -148q0 -86 -52.5 -137.5t-133.5 -51.5q-79 0 -139 57t-60 148zM1548 180q0 86 53 137.5 t134 51.5q79 0 138.5 -57t59.5 -148q0 -86 -52.5 -137.5t-133.5 -51.5q-79 0 -139 57t-60 148z" />
<glyph unicode="&#x202f;" horiz-adv-x="406" />
<glyph unicode="&#x2030;" horiz-adv-x="2713" d="M82 1065q0 174 109 279.5t270 105.5t270 -105.5t109 -279.5t-109 -279.5t-270 -105.5t-270 105.5t-109 279.5zM373 1071q0 -74 26 -112.5t68 -38.5q36 0 59 36t23 103q0 74 -26 112.5t-68 38.5q-36 0 -59 -36t-23 -103zM545 61l575 1373h178q39 0 52 -17t2 -45 l-576 -1372h-178q-77 0 -53 61zM1057 369q0 174 109 279.5t270 105.5t270 -105.5t109 -279.5t-109 -279.5t-270 -105.5t-270 105.5t-109 279.5zM1348 375q0 -74 26 -113t68 -39q36 0 59 36t23 103q0 74 -26 113t-68 39q-36 0 -59 -36t-23 -103zM1874 369q0 174 109 279.5 t270 105.5t270 -105.5t109 -279.5t-109 -279.5t-270 -105.5t-270 105.5t-109 279.5zM2165 375q0 -74 26 -113t68 -39q36 0 59 36t23 103q0 74 -26 113t-68 39q-36 0 -59 -36t-23 -103z" />
<glyph unicode="&#x2032;" horiz-adv-x="714" d="M125 872l125 541q98 35 246 35q58 0 80.5 -23.5t9.5 -60.5l-195 -551h-194q-41 0 -59.5 15t-12.5 44z" />
<glyph unicode="&#x2033;" horiz-adv-x="1155" d="M125 872l125 541q98 35 246 35q58 0 80.5 -23.5t9.5 -60.5l-195 -551h-194q-41 0 -59.5 15t-12.5 44zM565 872l125 541q98 35 246 35q58 0 80.5 -23.5t9.5 -60.5l-195 -551h-194q-41 0 -59.5 15t-12.5 44z" />
<glyph unicode="&#x2039;" horiz-adv-x="712" d="M98 588v151l420 295q31 21 51 21q45 0 45 -68q0 -71 -18 -170l-264 -178l223 -152q35 -23 35 -69v-225l-457 321q-35 27 -35 74z" />
<glyph unicode="&#x203a;" horiz-adv-x="712" d="M98 987q0 68 45 68q21 0 52 -21l419 -295v-151q0 -48 -34 -74l-457 -321v225q0 46 35 69l223 152l-264 178q-19 105 -19 170z" />
<glyph unicode="&#x203c;" horiz-adv-x="1261" d="M139 154q0 82 55 127t144 45q83 0 143 -48.5t60 -130.5t-55 -127t-144 -45q-83 0 -143 48.5t-60 130.5zM141 1202v219q143 33 293 33q105 0 105 -84v-168q0 -364 -58 -788h-213q-38 0 -55.5 15.5t-22.5 47.5q-49 346 -49 725zM721 154q0 82 55 127t144 45 q83 0 142.5 -48.5t59.5 -130.5t-54.5 -127t-143.5 -45q-83 0 -143 48.5t-60 130.5zM723 1202v219q143 33 293 33q104 0 104 -84v-168q0 -371 -57 -788h-213q-38 0 -55.5 15.5t-22.5 47.5q-49 346 -49 725z" />
<glyph unicode="&#x203e;" horiz-adv-x="860" d="M127 1300q0 63 25 140h518q63 0 63 -78v-141h-526q-80 0 -80 79z" />
<glyph unicode="&#x2044;" horiz-adv-x="430" d="M-188 61l575 1373h178q39 0 51.5 -17t1.5 -45l-575 -1372h-178q-77 0 -53 61z" />
<glyph unicode="&#x205f;" horiz-adv-x="507" />
<glyph unicode="&#x20a0;" horiz-adv-x="1665" d="M66 963q0 221 149.5 358t380.5 137q149 0 256 -54.5t162 -146.5q14 -28 14 -57q0 -43 -47 -67q-40 -24 -106.5 -41.5t-124.5 -18.5q-24 67 -62 101t-96 34q-81 0 -128.5 -63t-47.5 -178q0 -133 73.5 -217t215.5 -84q71 0 135 18v322h688q57 0 57 -68q0 -96 -18 -182h-377 v-123h262q49 0 49 -62v-188h-311v-4q0 -74 23.5 -102.5t82.5 -28.5h254q49 0 49 -60v-188h-399q-186 0 -273 95t-87 294v68q-72 -41 -207 -41q-156 0 -285 68.5t-205.5 194.5t-76.5 284z" />
<glyph unicode="&#x20a1;" d="M90 752q0 201 83.5 358t231 246.5t336.5 99.5l37 158h53q32 0 43.5 -10.5t6.5 -34.5l-27 -113q36 -2 98 -14l39 172h53q32 0 43.5 -10.5t6.5 -34.5l-35 -154q205 -72 307 -244q23 -42 23 -79q0 -57 -70 -99q-114 -65 -270 -75q-29 80 -74 131l-168 -738q66 -16 135 -16 q94 0 184.5 20t153.5 56q24 -31 42.5 -83.5t18.5 -88.5t-40 -75.5t-105 -72.5t-156.5 -54.5t-185.5 -21.5q-33 0 -121 9l-37 -164h-53q-32 0 -43 10.5t-6 34.5l31 141q-23 6 -93 33l-49 -219h-53q-32 0 -43 10.5t-6 34.5l51 227q-160 100 -251 272t-91 388zM487 758 q0 -119 45 -221l132 577q-83 -37 -130 -128.5t-47 -227.5zM618 416q49 -46 87 -64l174 768q-46 19 -97 19z" />
<glyph unicode="&#x20a2;" d="M90 752q0 209 89.5 370t248 248.5t358.5 87.5q204 0 353.5 -78t226.5 -209q23 -42 23 -75q0 -50 -70 -92q-116 -66 -270 -76q-78 221 -269 221q-132 0 -212.5 -105t-80.5 -286q0 -135 47 -237.5t136 -162.5v490q91 24 204 24q74 0 74 -67v-74q31 63 93.5 102t136.5 39 q65 0 102 -24.5t37 -63.5q0 -49 -33.5 -96.5t-83.5 -81.5q-42 31 -100 31q-59 0 -99.5 -44t-52.5 -122v-186q187 0 332 86q24 -31 42.5 -83.5t18.5 -88.5t-40 -75.5t-105 -72.5t-156.5 -54.5t-185.5 -21.5q-162 0 -303 57t-242.5 158t-160 246.5t-58.5 315.5z" />
<glyph unicode="&#x20a3;" horiz-adv-x="1163" d="M-10 549q0 41 14 88h143v96h-102q-30 0 -42.5 12t-12.5 39q0 41 14 88h143v562h883q76 0 76 -86q0 -102 -25 -234h-536v-242h381q27 0 39 -15t12 -50v-74h-432v-96h381q27 0 39 -15.5t12 -50.5v-73h-432v-498h-320q-78 0 -78 63v435h-102q-30 0 -42.5 12t-12.5 39z" />
<glyph unicode="&#x20a4;" horiz-adv-x="1273" d="M82 508q0 41 14 88h115v96h-74q-30 0 -42.5 12t-12.5 39q0 41 14 88h115v119q0 238 132 373t378 135q159 0 277.5 -73t172.5 -193q21 -47 21 -84q0 -55 -66 -92q-50 -27 -120.5 -43.5t-139.5 -18.5q-17 99 -51 142t-90 43q-50 0 -83.5 -42.5t-33.5 -129.5v-136h314 q27 0 39 -15t12 -50v-74h-365v-96h314q27 0 39 -15.5t12 -50.5v-73h-373q-15 -89 -70 -138h615q63 0 63 -77v-242h-1038q-64 0 -64 78v201q82 67 99 178h-68q-30 0 -42.5 12t-12.5 39z" />
<glyph unicode="&#x20a6;" horiz-adv-x="1515" d="M10 580q0 37 15 88h139v96h-98q-30 0 -43 12t-13 39q0 37 15 88h139v438q64 46 142.5 79.5t125.5 33.5q39 0 61.5 -13t41.5 -44l419 -701v738h320q78 0 78 -64v-467h102q27 0 39 -15t12 -50v-74h-153v-96h102q27 0 39 -15.5t12 -50.5v-74h-153v-436q-63 -46 -142.5 -79 t-126.5 -33q-39 0 -61 12.5t-41 44.5l-420 700v-737h-319q-78 0 -78 63v465h-98q-30 0 -43 12.5t-13 39.5z" />
<glyph unicode="&#x20a7;" horiz-adv-x="2570" d="M147 63v1371h359q217 0 358 -88.5t193 -251.5h100v297q123 30 256 30q100 0 100 -82v-245h189q63 0 63 -78v-12q111 114 308 114q129 0 228 -45.5t155 -128.5q24 -39 24 -70q0 -45 -49 -75q-84 -55 -215 -62q-24 115 -94 115q-34 0 -52 -20t-18 -50q0 -33 24.5 -56.5 t80.5 -41.5q181 -59 258 -134.5t77 -201.5q0 -174 -114 -261t-361 -87h-426q-225 0 -329.5 107.5t-104.5 324.5v375h-76q-27 -205 -177 -322.5t-380 -122.5v-362h-299q-78 0 -78 63zM524 682h41q63 0 104.5 58t41.5 169t-41.5 169.5t-104.5 58.5h-41v-455zM1513 426 q0 -76 30.5 -109.5t101.5 -33.5h393q46 0 64 12t18 41q0 27 -32.5 47t-115.5 45q-137 42 -217 129t-80 213q0 25 2 37h-164v-381z" />
<glyph unicode="&#x20a8;" horiz-adv-x="2113" d="M147 63v1371h381q279 0 439.5 -138.5t160.5 -380.5q0 -249 -192 -397q34 -94 74 -156q22 -36 46 -50.5t62 -14.5h43q33 -79 33 -160q0 -61 -68.5 -111.5t-160.5 -50.5q-94 0 -161.5 47.5t-117.5 145.5q-56 110 -82 233h-59v-401h-320q-78 0 -78 63zM545 709h35 q68 0 106.5 52t38.5 154t-38.5 154.5t-106.5 52.5h-35v-413zM1219 780q0 149 110 243.5t289 94.5q127 0 226 -46t155 -128q24 -39 24 -70q0 -45 -49 -75q-84 -55 -215 -62q-27 115 -104 115q-38 0 -59 -20t-21 -50q0 -75 137 -118q324 -104 324 -349q0 -147 -104 -243.5 t-310 -96.5q-101 0 -189 29t-137 73t-49 89q0 35 15 78t38 75q138 -77 269 -77q57 0 83.5 12.5t26.5 42.5q0 28 -23.5 47.5t-86.5 42.5q-184 66 -267 159t-83 234z" />
<glyph unicode="&#x20a9;" horiz-adv-x="2318" d="M45 612q0 41 14 88h220l-31 97h-148q-30 0 -42.5 12t-12.5 39q0 41 14 88h144l-129 401q71 50 155.5 83.5t141.5 33.5q46 0 71 -18t37 -60l117 -440h274q55 221 99 498h248q75 0 109.5 -21t47.5 -67l105 -410h272q55 222 102 498h232q87 0 124 -34.5t23 -101.5 q-42 -192 -92 -362h96q52 0 52 -66v-73h-191q-5 -15 -31 -97h170q27 0 39.5 -15t12.5 -50v-74h-271q-98 -274 -202 -487q-20 -42 -54 -58t-104 -16h-244l-143 561h-193q-69 -230 -170 -487q-17 -41 -52 -57.5t-105 -16.5h-244l-182 561h-224q-30 0 -42.5 12t-12.5 39z M633 797l26 -97h152q14 53 27 97h-205zM696 561l31 -112q1 4 17 46t24 66h-72zM1116 700h117l-59 236q-19 -95 -58 -236zM1516 797l24 -97h148q10 31 26 97h-198zM1575 561l31 -112q2 5 17 46.5t22 65.5h-70z" />
<glyph unicode="&#x20aa;" horiz-adv-x="2048" d="M147 63v1371h711q150 0 256 -31t181 -101.5t111 -188t36 -286.5v-311h-299q-78 0 -78 64v288q0 136 -51 191t-166 55h-324v-1114h-299q-78 0 -78 63zM606 606v283q134 29 273 29q104 0 104 -84v-269q0 -136 51 -191t166 -55h324v1115h299q78 0 78 -64v-1370h-711 q-150 0 -256 31t-181 101.5t-111 187.5t-36 286z" />
<glyph unicode="&#x20ab;" horiz-adv-x="1374" d="M82 459q0 113 29.5 209.5t79 163t114.5 113.5t136 69t143 22q156 0 245 -96v197h-243q-60 0 -60 55q0 69 17 125h286v117h299q78 0 78 -64v-53h74q27 0 39 -15.5t12 -50.5v-114h-125v-785q0 -80 62 -80h55q20 -65 20 -122q0 -62 -65.5 -113t-163.5 -51q-84 0 -155 45 t-105 131q-60 -96 -144.5 -141.5t-179.5 -45.5q-187 0 -317.5 136t-130.5 348zM270 -285q0 70 19 140h887q27 0 39 -15.5t12 -50.5v-149h-877q-43 0 -61.5 18.5t-18.5 56.5zM459 467q0 -95 45 -150t131 -55q61 0 113 41.5t81 114.5v284q-54 48 -135 48q-95 0 -165 -75 t-70 -208z" />
<glyph unicode="&#x20ac;" d="M-14 569q0 41 14 88h94q-4 31 -4 97h-49q-30 0 -42.5 12t-12.5 39q0 41 14 88h100q43 257 230.5 411t455.5 154q204 0 353.5 -78t226.5 -209q23 -42 23 -79q0 -57 -70 -99q-114 -65 -270 -75q-78 221 -269 221q-105 0 -177.5 -64t-100.5 -182h366q52 0 52 -66v-73h-433 q0 -50 9 -97h372q27 0 39.5 -15t12.5 -50v-74h-377q57 -105 159 -164t240 -59q94 0 184.5 20t153.5 56q24 -31 42.5 -83.5t18.5 -88.5t-40 -75.5t-105 -72.5t-156.5 -54.5t-185.5 -21.5q-269 0 -467.5 147t-265.5 396h-80q-30 0 -42.5 12t-12.5 39z" />
<glyph unicode="&#x2122;" horiz-adv-x="1572" d="M49 1319q0 -41 37 -41h145v-516q0 -31 37 -31h178v547h181v117q0 39 -31 39h-535q-12 -56 -12 -115zM657 766l74 631q75 47 146 47q37 0 53 -33l149 -274l160 297h156q34 0 37 -29l75 -674h-182q-40 0 -43 35l-33 377l-94 -187q-14 -24 -51 -24h-84l-113 211l-35 -412 h-178q-20 0 -29.5 9t-7.5 26z" />
<glyph unicode="&#x2202;" horiz-adv-x="1357" d="M78 453q0 132 67.5 240t183.5 168.5t255 60.5q79 0 152 -22.5t120 -63.5q-16 154 -78.5 227.5t-152.5 73.5q-57 0 -102.5 -37.5t-65.5 -106.5q-145 13 -258 78q-64 37 -64 98q0 36 29 84q64 94 186 149.5t273 55.5q297 0 467 -197.5t170 -547.5v-33q0 -159 -49.5 -292.5 t-135 -223.5t-202 -139.5t-248.5 -49.5q-251 0 -399 132t-148 346zM475 446q0 -69 43 -110t107 -41q91 0 154.5 74.5t78.5 205.5q-74 50 -182 50q-91 0 -146 -48.5t-55 -130.5z" />
<glyph unicode="&#x2206;" d="M45 72l477 1321q129 55 269 55q71 0 104 -22.5t55 -84.5l486 -1341h-1330q-37 0 -54 20t-7 52zM537 319h381l-191 615z" />
<glyph unicode="&#x220f;" horiz-adv-x="1492" d="M147 -164v1680h1121q78 0 78 -64v-1679h-320q-78 0 -78 63v1360h-403v-1423h-320q-78 0 -78 63z" />
<glyph unicode="&#x2211;" horiz-adv-x="1310" d="M66 1276q23 105 69 178q21 33 48 47.5t73 14.5h942q64 0 64 -78v-242h-725l327 -459v-51q0 -48 -26 -94l-310 -500h670q64 0 64 -78v-241h-1112q-64 0 -64 77v187l412 637z" />
<glyph unicode="&#x221a;" horiz-adv-x="1245" d="M66 635q0 90 22 215h309q58 0 82.5 -14.5t38.5 -57.5l88 -264l207 1063h272q47 0 65 -19t7 -77l-283 -1389q-10 -51 -37 -71.5t-73 -20.5h-301l-225 557h-103q-69 0 -69 78z" />
<glyph unicode="&#x221e;" horiz-adv-x="1613" d="M123 680q0 142 101 235t243 93q94 0 176.5 -36.5t163.5 -123.5q81 87 163.5 123.5t176.5 36.5q142 0 243 -93t101 -235t-101 -235t-243 -93q-94 0 -176.5 36.5t-163.5 123.5q-81 -87 -163.5 -123.5t-176.5 -36.5q-142 0 -243 93t-101 235zM418 680q0 -30 22 -50t52 -20 q61 0 122 70q-61 70 -122 70q-30 0 -52 -20t-22 -50zM999 680q61 -70 123 -70q30 0 52 20t22 50t-22 50t-52 20q-62 0 -123 -70z" />
<glyph unicode="&#x222b;" horiz-adv-x="1134" d="M33 -346q0 30 15 73t38 72q66 -28 166 -28q127 0 127 104v1292q0 172 96.5 262.5t276.5 90.5q93 0 176 -26t128.5 -63t45.5 -71q0 -30 -15 -73.5t-38 -72.5q-68 29 -166 29q-127 0 -127 -104v-1293q0 -172 -96.5 -262t-276.5 -90q-93 0 -176 26t-128.5 63t-45.5 71z" />
<glyph unicode="&#x2248;" horiz-adv-x="1282" d="M104 334q0 28 13 82q29 106 106 169.5t193 63.5q138 0 248 -84q70 -54 97.5 -70t55.5 -16q39 0 62 35.5t30 124.5l211 -43q33 -7 44.5 -20.5t11.5 -40.5q-3 -143 -87 -236.5t-225 -93.5q-138 0 -248 84q-70 54 -97.5 70t-55.5 16q-39 0 -62 -35.5t-30 -124.5 q-45 -6 -102.5 2.5t-96.5 24.5q-68 29 -68 92zM104 840q0 28 13 82q29 106 106 169.5t193 63.5q138 0 248 -84q70 -54 97.5 -70t55.5 -16q39 0 62 35.5t30 124.5l211 -43q33 -7 44.5 -21t11.5 -41q-3 -142 -87 -235.5t-225 -93.5q-138 0 -248 84q-70 54 -97.5 70t-55.5 16 q-39 0 -62 -35.5t-30 -124.5q-45 -6 -102.5 2.5t-96.5 24.5q-68 29 -68 92z" />
<glyph unicode="&#x2260;" horiz-adv-x="1282" d="M131 377q0 99 27 194h334l112 217h-397q-76 0 -76 80q0 101 27 195h587l113 217h107q37 0 49.5 -14.5t-0.5 -40.5l-84 -162h143q78 0 78 -64v-211h-363l-112 -217h397q78 0 78 -63v-211h-616l-111 -217h-107q-37 0 -49.5 14.5t0.5 40.5l82 162h-143q-76 0 -76 80z" />
<glyph unicode="&#x2264;" horiz-adv-x="1282" d="M131 80q0 99 27 194h915q78 0 78 -63v-211h-944q-76 0 -76 80zM131 803v198l899 373q47 23 79 3.5t32 -85.5q0 -109 -25 -215l-534 -209l487 -196q42 -17 57 -38.5t15 -60.5v-266l-938 398q-39 18 -55.5 39.5t-16.5 58.5z" />
<glyph unicode="&#x2265;" horiz-adv-x="1282" d="M131 0v211q0 63 78 63h915q27 -95 27 -194q0 -80 -76 -80h-944zM141 307v266q0 39 15 60.5t57 38.5l487 196l-534 209q-25 106 -25 215q0 66 32 85.5t79 -3.5l899 -373v-198q0 -37 -16.5 -58.5t-55.5 -39.5z" />
<glyph unicode="&#x25ca;" horiz-adv-x="1138" d="M66 721l358 692q83 39 184 39q55 0 78 -13.5t43 -52.5l344 -665l-348 -672q-15 -29 -39 -39t-74 -10h-174zM412 721l157 -305l160 305l-160 305z" />
<glyph unicode="&#x25fc;" horiz-adv-x="1105" d="M0 0v1106h1106v-1106h-1106z" />
</font>
</defs>
</svg>
