<?xml version="1.0" standalone="no"?>
<!DOCTYPE svg PUBLIC "-//W3C//DTD SVG 1.1//EN" "http://www.w3.org/Graphics/SVG/1.1/DTD/svg11.dtd" >
<svg xmlns="http://www.w3.org/2000/svg">
<metadata></metadata>
<defs>
<font id="core_rhino_75_heavyregular" horiz-adv-x="1150" >
<font-face units-per-em="2048" ascent="1638" descent="-410" />
<missing-glyph horiz-adv-x="614" />
<glyph unicode="&#xfb01;" horiz-adv-x="1456" d="M53 920q0 85 21 174h170v71q0 168 80.5 259.5t234.5 91.5q106 0 195.5 -43.5t89.5 -90.5q0 -28 -12 -64t-31 -63q-59 17 -117 17q-115 0 -115 -117v-61h641q60 0 60 -76v-692q0 -90 63 -90h53q19 -55 19 -109q0 -53 -58 -97t-147 -44q-115 0 -185.5 74.5t-70.5 244.5v535 h-375v-840h-252q-73 0 -73 59v781h-121q-70 0 -70 80zM928 1378q0 75 48.5 116.5t125.5 41.5q74 0 127 -44.5t53 -119.5t-48.5 -117.5t-125.5 -42.5q-73 0 -126.5 45.5t-53.5 120.5z" />
<glyph unicode="&#xfb02;" horiz-adv-x="1587" d="M53 920q0 85 21 174h170v45q0 379 393 379q181 0 334 -84v47q119 28 235 28q90 0 90 -73v-1051q0 -75 28 -109t85 -34q67 0 119 22q41 -59 41 -137q0 -49 -76 -95t-188 -46q-166 0 -250 109.5t-84 320.5v823q-104 33 -217 33q-102 0 -143.5 -35.5t-41.5 -114.5v-28h234 q59 0 59 -76v-178h-293v-840h-252q-73 0 -73 59v781h-121q-70 0 -70 80z" />
<glyph horiz-adv-x="682" />
<glyph horiz-adv-x="0" />
<glyph horiz-adv-x="0" />
<glyph unicode="&#xd;" horiz-adv-x="485" />
<glyph unicode=" "  horiz-adv-x="614" />
<glyph unicode="&#x09;" horiz-adv-x="614" />
<glyph unicode="&#xa0;" horiz-adv-x="614" />
<glyph unicode="!" horiz-adv-x="663" d="M152 145q0 75 49 117.5t129 42.5q74 0 128 -46t54 -122t-49.5 -119t-128.5 -43q-75 0 -128.5 46t-53.5 124zM158 1188v235q123 29 254 29q94 0 94 -74v-190q0 -384 -49 -789h-183q-37 0 -53.5 14.5t-19.5 45.5q-43 326 -43 729z" />
<glyph unicode="&#x22;" horiz-adv-x="1153" d="M178 1417q117 31 244 31q51 0 74 -18.5t20 -55.5l-33 -547h-207q-70 0 -73 60zM635 1417q117 31 244 31q51 0 74 -18.5t20 -55.5l-33 -547h-207q-71 0 -74 60z" />
<glyph unicode="#" horiz-adv-x="1476" d="M80 418q0 88 18 170h221l46 256h-134q-65 0 -65 80q0 87 18 170h222l57 331q100 23 201 23q37 0 58 -16t15 -52l-49 -286h225l58 331q100 23 200 23q37 0 58.5 -16t15.5 -52l-49 -286h141q60 0 60 -74v-176h-242l-45 -256h152q59 0 59 -74v-176h-254l-55 -338h-203 q-38 0 -56 16t-12 47l45 275h-227l-57 -338h-201q-37 0 -54.5 15.5t-13.5 47.5l43 275h-131q-65 0 -65 80zM602 588h227l43 256h-227z" />
<glyph unicode="$" horiz-adv-x="1245" d="M106 1034q0 153 98.5 264.5t266.5 145.5v194q89 25 180 25q88 0 88 -66v-151q125 -22 219 -82t144 -139q24 -43 24 -80q0 -55 -59 -84q-90 -46 -229 -57q-28 86 -84 131t-133 45q-75 0 -122.5 -40t-47.5 -104t60.5 -111t211.5 -91q219 -66 321.5 -171.5t102.5 -267.5 q0 -156 -97 -264.5t-276 -140.5v-219h-194q-74 0 -74 59v154q-151 20 -249.5 78t-98.5 118q0 37 15 80t36 74q75 -38 174.5 -59t196.5 -21q225 0 225 127q0 57 -48.5 96t-158.5 70q-246 69 -369 187.5t-123 299.5z" />
<glyph unicode="%" horiz-adv-x="1867" d="M88 1073q0 170 106 273.5t263 103.5t262.5 -103.5t105.5 -273.5t-105.5 -273.5t-262.5 -103.5t-263 103.5t-106 273.5zM346 1079q0 -79 33 -123.5t86 -44.5q45 0 73.5 41.5t28.5 114.5q0 81 -32 125.5t-84 44.5q-46 0 -75.5 -42t-29.5 -116zM543 61l575 1373h152 q39 0 51.5 -17t1.5 -45l-575 -1372h-152q-77 0 -53 61zM1042 360q0 170 106 273.5t263 103.5t263 -103.5t106 -273.5t-106 -273t-263 -103t-263 103t-106 273zM1300 367q0 -79 33 -123.5t86 -44.5q46 0 74.5 41t28.5 114q0 81 -32 125.5t-85 44.5q-46 0 -75.5 -41.5 t-29.5 -115.5z" />
<glyph unicode="&#x26;" horiz-adv-x="1558" d="M88 360q0 119 70.5 214t203.5 155q-135 188 -135 348q0 166 122 273.5t315 107.5q181 0 294 -99.5t113 -250.5q0 -119 -87 -221t-224 -158q120 -123 289 -262q126 154 202 403q74 0 127 -39q39 -26 39 -98q0 -75 -44 -191.5t-124 -224.5l37 -24q71 -49 174 -49h39 q23 -58 23 -129q0 -54 -58.5 -97t-156.5 -43q-126 0 -285 123q-191 -123 -424 -123q-140 0 -255.5 46t-185 134.5t-69.5 204.5zM414 406q0 -75 56.5 -119.5t152.5 -44.5q99 0 174 34q-163 135 -303 291q-39 -30 -59.5 -73.5t-20.5 -87.5zM545 1092q0 -53 18 -99.5t64 -109.5 q64 43 100.5 102t36.5 113q0 53 -30.5 87t-76.5 34q-47 0 -79.5 -35t-32.5 -92z" />
<glyph unicode="'" horiz-adv-x="661" d="M160 1417q117 31 246 31q49 0 72 -18.5t20 -55.5l-33 -547h-207q-71 0 -74 60z" />
<glyph unicode="(" horiz-adv-x="800" d="M178 635q0 237 70.5 456.5t197.5 374.5q64 76 132 76q70 0 135 -121q-106 -173 -163.5 -379t-57.5 -407q0 -202 58 -408t163 -379q-65 -122 -150 -122q-51 0 -117 77q-127 155 -197.5 375t-70.5 457z" />
<glyph unicode=")" horiz-adv-x="800" d="M88 -152q105 173 163 379t58 408q0 201 -57.5 407t-163.5 379q67 123 150 123q49 0 116 -78q127 -155 198 -374.5t71 -456.5t-71 -457t-198 -375q-66 -77 -116 -77q-78 0 -150 122z" />
<glyph unicode="*" horiz-adv-x="1210" d="M106 670q3 100 37 215q26 95 88 63l275 -149l-60 340q98 30 216 30q51 0 72.5 -15.5t15.5 -47.5l-58 -305l305 160q60 -83 97 -195q33 -95 -35 -104l-305 -39l245 -240q-71 -90 -155 -152q-84 -61 -111 0l-133 281l-149 -309q-96 31 -195 102q-80 56 -33 103l223 213z " />
<glyph unicode="+" horiz-adv-x="1290" d="M141 633q0 84 25 170h328v356q105 31 213 31q49 0 69.5 -17t20.5 -55v-315h282q70 0 70 -66v-180h-352v-387h-230q-73 0 -73 59v328h-285q-68 0 -68 76z" />
<glyph unicode="," horiz-adv-x="690" d="M166 -215q103 93 125 201q-53 18 -87 64.5t-34 111.5q0 78 47.5 125t122.5 47q73 0 126.5 -52t53.5 -139q0 -178 -119 -321q-51 -59 -105 -90t-75 -21q-41 20 -55 74z" />
<glyph unicode="-" horiz-adv-x="915" d="M150 627q0 97 24 180h520q68 0 68 -64v-192h-545q-67 0 -67 76z" />
<glyph unicode="." horiz-adv-x="690" d="M170 162q0 78 47.5 125t122.5 47q72 0 126 -52t54 -135q0 -78 -47.5 -125t-122.5 -47q-72 0 -126 52t-54 135z" />
<glyph unicode="/" horiz-adv-x="1130" d="M0 -150l840 1692h233q38 0 55 -21.5t0 -54.5l-839 -1691h-234q-39 0 -55 20t0 55z" />
<glyph unicode="0" horiz-adv-x="1378" d="M106 717q0 352 156 546.5t428 194.5t427 -194.5t155 -546.5t-155 -547t-427 -195t-428 195t-156 547zM446 731q0 -479 254 -479q232 0 232 450q0 480 -252 480q-234 0 -234 -451z" />
<glyph unicode="1" horiz-adv-x="1378" d="M223 1104q0 41 58 76l415 254h211q64 0 64 -70v-1364h-269q-73 0 -73 57v1000l-240 -148q-65 40 -115.5 97.5t-50.5 97.5z" />
<glyph unicode="2" horiz-adv-x="1378" d="M156 1094q0 36 18 77q63 130 191.5 208.5t306.5 78.5q242 0 385 -135.5t143 -361.5q0 -187 -114 -364t-316 -318h381q57 0 57 -74v-205h-866q-42 0 -67 12.5t-42 42.5q-36 58 -49 148q104 56 197 117.5t181.5 138.5t152.5 155t102.5 169t38.5 180q0 99 -49.5 151.5 t-136.5 52.5q-164 0 -226 -217q-130 7 -227 58q-61 30 -61 86z" />
<glyph unicode="3" horiz-adv-x="1378" d="M152 190q0 37 15 80t36 74q185 -90 389 -90q130 0 200 45.5t70 132.5q0 82 -69.5 129.5t-200.5 56.5q-45 3 -68.5 14.5t-40.5 41.5q-36 57 -49 162l291 319h-477q-68 0 -68 80q0 89 21 199h803q40 0 64 -13t42 -43q35 -56 49 -147l-362 -393q190 -40 298.5 -144.5 t108.5 -269.5q0 -194 -152.5 -321.5t-408.5 -127.5q-99 0 -192.5 21t-157.5 53.5t-102.5 70t-38.5 70.5z" />
<glyph unicode="4" horiz-adv-x="1378" d="M100 459q71 260 245 516t388 422q119 51 295 51q52 0 73 -17t21 -55v-844h121q57 0 57 -73v-203h-178v-256h-266q-74 0 -74 59v197h-526q-41 0 -65 12t-41 41q-37 63 -50 150zM455 532h327v521q-97 -91 -191 -239.5t-136 -281.5z" />
<glyph unicode="5" horiz-adv-x="1378" d="M152 190q0 37 15 80t36 74q185 -90 393 -90q123 0 197.5 51t74.5 156t-74.5 156t-197.5 51q-104 0 -211 -21q-27 -6 -49 -6q-36 0 -72 29l-47 41l94 723h791q59 0 59 -74v-205h-559l-33 -231q74 16 146 16q103 0 192.5 -31t157 -89t106.5 -148.5t39 -202.5 q0 -220 -147.5 -357t-409.5 -137q-102 0 -197.5 21t-160.5 53.5t-104 70t-39 70.5z" />
<glyph unicode="6" horiz-adv-x="1378" d="M121 674v35q0 350 169 549.5t458 199.5q151 0 269.5 -57t180.5 -158q25 -48 25 -82q0 -53 -56 -86q-95 -55 -225 -65q-18 82 -69 125t-123 43q-113 0 -190 -87.5t-91 -269.5q55 45 134.5 71t164.5 26q213 0 359.5 -133t146.5 -336q0 -210 -144 -342t-389 -132 q-280 0 -450 188.5t-170 510.5zM467 584q13 -154 89.5 -241t188.5 -87q80 0 133.5 50t53.5 136q0 96 -66.5 153.5t-171.5 57.5q-138 0 -227 -69z" />
<glyph unicode="7" horiz-adv-x="1378" d="M147 1235q0 95 23 199h901q132 0 156 -203q-182 -314 -304.5 -612t-197.5 -619h-256q-45 0 -69.5 24t-10.5 68q68 269 184.5 544.5t262.5 518.5h-621q-68 0 -68 80z" />
<glyph unicode="8" horiz-adv-x="1378" d="M113 391q0 112 68 200t188 134q-98 54 -150.5 139t-52.5 187q0 173 137.5 290t374.5 117q236 0 377 -114t141 -279q0 -93 -50 -170.5t-134 -122.5q122 -59 188 -151.5t66 -210.5q0 -192 -153 -313.5t-421 -121.5q-261 0 -420 115.5t-159 300.5zM455 403q0 -71 67.5 -116 t171.5 -45q103 0 166.5 42t63.5 107q0 70 -66.5 117.5t-243.5 99.5q-82 -38 -120.5 -91.5t-38.5 -113.5zM510 1063q0 -60 52.5 -103.5t189.5 -87.5q102 76 102 183q0 63 -49.5 100t-126.5 37q-73 0 -120.5 -35.5t-47.5 -93.5z" />
<glyph unicode="9" horiz-adv-x="1378" d="M115 985q0 210 143.5 341.5t388.5 131.5q280 0 449.5 -188t169.5 -510v-47q0 -178 -47 -319t-131.5 -232.5t-200 -139t-254.5 -47.5q-109 0 -211.5 34t-161.5 82.5t-59 92.5q0 38 14.5 82t36.5 72q137 -84 319 -84q154 0 249 90t104 270q-57 -47 -136.5 -72.5 t-166.5 -25.5q-213 0 -359.5 133t-146.5 336zM455 991q0 -97 66.5 -154t172.5 -57q138 0 226 68q-13 159 -88.5 245.5t-188.5 86.5q-79 0 -133.5 -51.5t-54.5 -137.5z" />
<glyph unicode=":" horiz-adv-x="690" d="M170 162q0 78 47.5 125t122.5 47q72 0 126 -52t54 -135q0 -78 -47.5 -125t-122.5 -47q-72 0 -126 52t-54 135zM170 946q0 78 47.5 125t122.5 47q72 0 126 -51.5t54 -134.5q0 -78 -47.5 -125t-122.5 -47q-72 0 -126 51.5t-54 134.5z" />
<glyph unicode=";" horiz-adv-x="690" d="M170 162q0 78 47.5 125t122.5 47q73 0 126.5 -52t53.5 -139q-3 -176 -121 -323q-48 -59 -95 -89.5t-68 -19.5q-19 9 -34.5 30t-21.5 44q94 90 111 201q-53 18 -87 64.5t-34 111.5zM170 946q0 78 47.5 125t122.5 47q72 0 126 -51.5t54 -134.5q0 -78 -47.5 -125t-122.5 -47 q-72 0 -126 51.5t-54 134.5z" />
<glyph unicode="&#x3c;" horiz-adv-x="1290" d="M141 608v185l903 393q47 20 75 -2t28 -78q0 -89 -19 -182l-604 -256l561 -238q35 -15 48.5 -34t13.5 -56v-231l-944 409q-33 14 -47.5 34t-14.5 56z" />
<glyph unicode="=" horiz-adv-x="1290" d="M141 393q0 85 25 168h913q70 0 70 -63v-181h-940q-68 0 -68 76zM141 872q0 87 25 170h913q70 0 70 -65v-178h-940q-68 0 -68 73z" />
<glyph unicode="&#x3e;" horiz-adv-x="1290" d="M141 109v231q0 39 20.5 60t80.5 46l522 222l-602 256q-21 88 -21 182q0 54 27 77.5t76 2.5l903 -393v-185q0 -36 -14.5 -56t-47.5 -34z" />
<glyph unicode="?" horiz-adv-x="1169" d="M88 1102q0 38 18 78q55 125 180 201.5t296 76.5q216 0 348.5 -118t132.5 -306q0 -216 -203 -377q-83 -65 -112 -108.5t-29 -97.5v-52h-268q-74 0 -74 60v35q0 100 49.5 176.5t155.5 152.5q76 56 106.5 104.5t30.5 108.5t-38 99t-99 39q-75 0 -131 -54.5t-74 -161.5 q-143 7 -232 60q-57 33 -57 84zM367 143q0 76 49.5 119t128.5 43q75 0 128.5 -46t53.5 -124q0 -76 -49 -118t-129 -42q-75 0 -128.5 45t-53.5 123z" />
<glyph unicode="@" horiz-adv-x="2088" d="M143 563q0 189 70.5 356t190.5 285t286 186t352 68q260 0 466.5 -108t322 -301t115.5 -437q0 -111 -25.5 -203.5t-76 -163t-131.5 -110t-185 -39.5q-110 0 -198.5 48t-133.5 128q-103 -166 -307 -166q-144 0 -242 110.5t-98 270.5q0 127 45.5 230.5t122 169t174 100.5 t205.5 35q141 0 253 -62t177 -163l-68 -355q-12 -65 21.5 -103t99.5 -38q84 0 138.5 81t54.5 230q0 146 -52.5 273t-146.5 219.5t-231 145.5t-300 53q-148 0 -281 -55.5t-230.5 -152.5t-154.5 -235t-57 -295q0 -159 56 -296.5t155 -235t239.5 -153.5t303.5 -56 q279 0 467 139q39 -27 47 -72q3 -16 -16.5 -42.5t-64 -58t-104.5 -58.5t-150.5 -45.5t-190.5 -18.5q-196 0 -367 69t-292 188t-190 284.5t-69 353.5zM850 492q0 -79 36 -122.5t101 -43.5q101 0 170 96l68 330q-40 43 -129 43q-96 0 -171 -86t-75 -217z" />
<glyph unicode="A" horiz-adv-x="1431" d="M47 72l481 1325q118 51 246 51q66 0 96 -20t50 -76l489 -1352h-287q-42 0 -62.5 12.5t-29.5 40.5l-69 217h-490l-86 -270h-276q-34 0 -53 20q-12 13 -12 32q0 9 3 20zM553 535h326l-164 505z" />
<glyph unicode="B" horiz-adv-x="1370" d="M156 461v973h549q249 0 383.5 -106t134.5 -281q0 -103 -53 -186t-140 -120q109 -38 174.5 -124.5t65.5 -210.5q0 -186 -137 -296t-396 -110h-159q-223 0 -322.5 108.5t-99.5 352.5zM498 850h196q92 0 138.5 44t46.5 116q0 74 -46.5 117.5t-138.5 43.5h-196v-321zM500 471 q0 -116 33.5 -161.5t113.5 -45.5h86q96 0 144.5 44.5t48.5 125.5q0 77 -52.5 119.5t-152.5 42.5h-221v-125z" />
<glyph unicode="C" horiz-adv-x="1437" d="M98 754q0 159 52.5 292t143.5 222.5t217 139.5t271 50q197 0 345 -79t221 -212q18 -35 18 -71q0 -50 -59 -86q-96 -57 -232 -64q-42 116 -120 175t-183 59q-145 0 -238.5 -112t-93.5 -308q0 -229 136 -367.5t360 -138.5q196 0 332 76q21 -28 36 -72.5t15 -79.5 q0 -43 -61 -90t-169 -80t-225 -33q-217 0 -391 96t-274.5 274.5t-100.5 408.5z" />
<glyph unicode="D" horiz-adv-x="1497" d="M156 461v973h553q148 0 274.5 -50t218.5 -141.5t144.5 -227t52.5 -298.5q0 -164 -52.5 -299t-146 -226.5t-223 -141.5t-281.5 -50h-118q-217 0 -319.5 111t-102.5 350zM498 485q0 -116 33 -161t114 -45h45q166 0 265.5 111.5t99.5 326.5t-99.5 326.5t-265.5 111.5h-192 v-670z" />
<glyph unicode="E" horiz-adv-x="1200" d="M156 479v955h862q67 0 67 -80q0 -103 -22 -199h-567v-303h419q60 0 60 -74v-203h-479v-92q0 -115 32 -161t105 -46h409q60 0 60 -73v-203h-506q-162 0 -256 44.5t-139 148.5t-45 286z" />
<glyph unicode="F" d="M160 57v1377h860q67 0 67 -80q0 -97 -20 -199h-567v-352h418q59 0 59 -74v-203h-477v-526h-267q-73 0 -73 57z" />
<glyph unicode="G" horiz-adv-x="1556" d="M96 754q0 211 91 372t251 246.5t363 85.5q194 0 345.5 -78t229.5 -204q21 -35 21 -70q0 -42 -47 -74q-42 -30 -110 -50.5t-134 -23.5q-44 104 -123.5 162t-187.5 58q-157 0 -256 -110t-99 -308q0 -114 35.5 -210t95.5 -159.5t138.5 -99t164.5 -35.5q107 0 156 36.5 t49 108.5v121h-207q-34 0 -52.5 21t-18.5 61q0 78 22 168h490q56 0 82 -25t26 -81v-238q0 -96 -33 -176t-99.5 -143t-177.5 -98.5t-257 -35.5q-157 0 -296 56t-241.5 155.5t-161.5 246.5t-59 321z" />
<glyph unicode="H" horiz-adv-x="1488" d="M160 57v1364q110 29 248 29q92 0 92 -72v-522h485v578h268q74 0 74 -60v-1374h-268q-74 0 -74 57v523h-485v-580h-267q-73 0 -73 57z" />
<glyph unicode="I" horiz-adv-x="679" d="M168 57v1364q110 29 250 29q92 0 92 -72v-1378h-268q-74 0 -74 57z" />
<glyph unicode="J" horiz-adv-x="964" d="M27 137q0 86 45 154q102 -37 198 -37q101 0 150 52.5t49 162.5v952q110 29 250 29q92 0 92 -72v-878q0 -258 -103.5 -391.5t-326.5 -133.5q-139 0 -246.5 50.5t-107.5 111.5z" />
<glyph unicode="K" horiz-adv-x="1409" d="M160 59v1364q123 29 250 29q92 0 92 -74v-532q147 110 291 267t260 341q139 -41 192 -83.5t53 -100.5q0 -38 -26 -80q-132 -214 -371 -420q148 -300 297 -459q60 -63 131 -63h33q22 -58 22 -133q0 -52 -62 -96t-148 -44q-90 0 -159 43t-134 129q-125 160 -238 426 q-51 -35 -141 -90v-483h-269q-73 0 -73 59z" />
<glyph unicode="L" horiz-adv-x="1153" d="M156 483v938q110 29 247 29q93 0 93 -72v-895q0 -118 29 -162.5t108 -44.5h414q59 0 59 -73v-203h-531q-229 0 -324 116t-95 367z" />
<glyph unicode="M" horiz-adv-x="1855" d="M117 63l141 1309q58 34 128.5 56t117.5 22q35 0 55.5 -12t38.5 -45l326 -605l350 646h242q67 0 73 -56l150 -1378h-277q-74 0 -80 61l-79 838l-234 -428q-24 -47 -98 -47h-166l-258 475l-86 -899h-271q-38 0 -57 14q-16 13 -16 40v9z" />
<glyph unicode="N" horiz-adv-x="1478" d="M160 59v1295q56 40 125 69t110 29q35 0 56 -11.5t36 -37.5l490 -785v816h268q74 0 74 -60v-1294q-56 -40 -125.5 -69t-110.5 -29q-35 0 -56 11.5t-36 37.5l-489 784v-815h-269q-73 0 -73 59z" />
<glyph unicode="O" horiz-adv-x="1611" d="M98 717q0 174 55.5 315.5t152 234t225 142t276.5 49.5q147 0 275 -49.5t224.5 -142t151.5 -234t55 -315.5t-55 -315.5t-151.5 -234t-224.5 -142.5t-275 -50q-148 0 -276.5 50t-225 142.5t-152 234t-55.5 315.5zM440 733q0 -217 108.5 -348t268.5 -131q152 0 253 113.5 t101 332.5q0 217 -108 348.5t-268 131.5q-152 0 -253.5 -114t-101.5 -333z" />
<glyph unicode="P" horiz-adv-x="1335" d="M160 59v1375h506q275 0 432 -143t157 -396q0 -238 -156 -379t-399 -141q-102 0 -198 26v-401h-269q-73 0 -73 59zM502 668q67 -13 143 -13q123 0 194.5 63.5t71.5 184.5q0 124 -68 188t-192 64h-149v-487z" />
<glyph unicode="Q" horiz-adv-x="1611" d="M98 717q0 174 55.5 315.5t152 234t225 142t276.5 49.5q147 0 275 -49.5t224.5 -142t151.5 -234t55 -315.5q0 -218 -83 -379.5t-230 -255.5q96 -137 223 -137h58q22 -52 22 -125q0 -47 -56 -83t-136 -36q-110 0 -201 78.5t-135 214.5q-81 -19 -168 -19q-148 0 -276.5 50 t-225 142.5t-152 234t-55.5 315.5zM440 733q0 -217 108.5 -348t268.5 -131q152 0 253 113.5t101 332.5q0 217 -108 348.5t-268 131.5q-152 0 -253.5 -114t-101.5 -333z" />
<glyph unicode="R" horiz-adv-x="1351" d="M160 57v1377h469q272 0 430 -136.5t158 -375.5q0 -151 -72 -263.5t-195 -173.5q76 -137 150 -196q54 -45 119 -45h38q23 -61 23 -127q0 -51 -57.5 -96.5t-149.5 -45.5q-121 0 -217 93q-137 134 -219 346q-96 9 -137 24v-438h-267q-73 0 -73 57zM500 705q45 -11 110 -11 q119 0 188.5 58t69.5 170q0 114 -68.5 173.5t-191.5 59.5h-108v-450z" />
<glyph unicode="S" horiz-adv-x="1243" d="M106 1028q0 188 139 309t365 121q175 0 302.5 -66t189.5 -167q24 -43 24 -80q0 -55 -59 -84q-90 -46 -229 -57q-28 86 -84 131t-133 45q-75 0 -122.5 -40t-47.5 -104t60.5 -111t211.5 -91q219 -66 321.5 -171.5t102.5 -267.5q0 -188 -137.5 -304t-384.5 -116 q-202 0 -334.5 63.5t-132.5 141.5q0 37 15 80t36 74q75 -38 174.5 -59t196.5 -21q223 0 223 127q0 60 -53.5 98.5t-204.5 83.5q-221 66 -330 178.5t-109 286.5z" />
<glyph unicode="T" horiz-adv-x="1292" d="M70 1235q0 83 22 199h1069q60 0 60 -74v-205h-406v-1155h-266q-74 0 -74 57v1098h-338q-67 0 -67 80z" />
<glyph unicode="U" horiz-adv-x="1484" d="M152 598v825q123 29 247 29q95 0 95 -74v-805q0 -151 66 -235t181 -84q118 0 184 83.5t66 235.5v861h269q73 0 73 -60v-776q0 -289 -158.5 -456t-433.5 -167q-274 0 -431.5 167t-157.5 456z" />
<glyph unicode="V" horiz-adv-x="1497" d="M72 1352q63 44 134.5 72t123.5 28q38 0 60 -15.5t32 -50.5l328 -997q96 202 181 481.5t136 563.5h272q44 0 63 -18q14 -14 14 -35q0 -7 -1 -15q-66 -316 -192.5 -670t-272.5 -628q-21 -39 -48.5 -53.5t-86.5 -14.5h-262z" />
<glyph unicode="W" horiz-adv-x="2308" d="M80 1352q62 43 135 71.5t123 28.5q39 0 61.5 -15t32.5 -51l270 -974q84 200 157 474.5t116 547.5h239q66 0 97.5 -18.5t42.5 -59.5l254 -944q83 209 157 481t119 541h223q63 0 91 -28q21 -21 21 -56q0 -12 -3 -25q-62 -299 -170 -629t-246 -628q-19 -38 -49 -53t-90 -15 h-231l-265 973q-44 -211 -124.5 -458t-170.5 -441q-18 -39 -49 -56.5t-90 -17.5h-225z" />
<glyph unicode="X" horiz-adv-x="1445" d="M94 98q64 172 173.5 338t256.5 297l-415 543q140 174 243 174q40 0 72 -43l321 -424q169 215 240 451h264q47 0 71 -28q13 -16 13 -37q0 -16 -8 -36q-134 -347 -395 -588l452 -591q-55 -71 -120 -121.5t-123 -50.5q-37 0 -70 41l-364 475q-180 -213 -271 -498h-264 q-46 0 -70 26q-13 14 -14 35q0 17 8 37z" />
<glyph unicode="Y" horiz-adv-x="1382" d="M55 1300q56 63 125 106.5t125 43.5q27 0 44 -11t30 -38l313 -608q95 141 178 314.5t125 326.5h242q51 0 73 -24q14 -15 14 -38q0 -14 -5 -31q-64 -206 -189 -429.5t-278 -415.5v-496h-268q-74 0 -74 57v432z" />
<glyph unicode="Z" horiz-adv-x="1286" d="M96 203l625 952h-518q-68 0 -68 80q0 78 23 199h868q42 0 66.5 -13t42.5 -43q36 -58 49 -147l-623 -955h576q59 0 59 -73v-203h-942q-42 0 -67 12.5t-42 42.5q-36 58 -49 148z" />
<glyph unicode="[" horiz-adv-x="897" d="M213 174v1362h571q68 0 68 -80q0 -76 -21 -172h-309v-1106q0 -113 26 -152.5t99 -39.5h137q60 0 60 -72v-180h-248q-199 0 -291 102.5t-92 337.5z" />
<glyph unicode="\" horiz-adv-x="1130" d="M0 1466q-17 33 0 54.5t55 21.5h234l839 -1692q16 -35 0 -55t-55 -20h-233z" />
<glyph unicode="]" horiz-adv-x="897" d="M43 1456q0 80 68 80h499q74 0 74 -59v-1280q0 -257 -87 -360t-298 -103h-246v180q0 72 60 72h137q71 0 97 39.5t26 152.5v1106h-307q-23 105 -23 172z" />
<glyph unicode="^" horiz-adv-x="1267" d="M133 834q0 24 25 63l327 537h191q50 0 75 -13t44 -43l340 -563l-127 -84q-53 -37 -90 -37q-49 0 -89 70l-206 362l-240 -417q-54 2 -115.5 18.5t-95.5 40.5q-39 28 -39 66z" />
<glyph unicode="_" horiz-adv-x="1024" d="M0 -311q0 80 16 143h938q70 0 70 -65v-154h-958q-66 0 -66 76z" />
<glyph unicode="`" horiz-adv-x="860" d="M199 1360q44 93 108 147q35 27 70 27q24 0 61 -37l224 -233l-93 -99q-24 -24 -47 -24q-24 0 -59 24z" />
<glyph unicode="a" horiz-adv-x="1230" d="M84 330q0 163 116.5 257.5t309.5 94.5q150 0 223 -39v62q0 176 -239 176q-155 0 -287 -66q-39 58 -39 121q0 40 55.5 82t154.5 71t208 29q231 0 353 -112.5t122 -331.5v-348q0 -90 65 -90h52q18 -52 18 -109q0 -53 -58 -97t-147 -44q-70 0 -130.5 38t-92.5 111 q-48 -77 -127.5 -118.5t-181.5 -41.5q-165 0 -270 101t-105 254zM408 340q0 -61 39 -94t100 -33q60 0 112 35t76 98v117q-56 18 -151 18q-84 0 -130 -38t-46 -103z" />
<glyph unicode="b" horiz-adv-x="1323" d="M135 494v989q107 26 236 26q88 0 88 -71v-443q145 123 321 123q196 0 325.5 -144.5t129.5 -381.5q0 -277 -160 -447t-424 -170q-230 0 -373 140t-143 379zM459 475q0 -119 54.5 -182.5t141.5 -63.5q104 0 179 101t75 254q0 142 -58 212t-161 70q-134 0 -231 -104v-287z " />
<glyph unicode="c" d="M88 578q0 239 149 389.5t396 150.5q153 0 268 -59t170 -154q21 -35 21 -69q0 -47 -64 -84q-79 -47 -211 -62q-40 174 -190 174q-97 0 -155 -74t-58 -206q0 -163 98 -259t254 -96q141 0 252 62q18 -27 31.5 -67t13.5 -68q0 -26 -27.5 -57t-74.5 -59t-121 -46.5t-156 -18.5 q-120 0 -228 42.5t-189.5 119t-130 191.5t-48.5 250z" />
<glyph unicode="d" horiz-adv-x="1366" d="M88 500q0 113 28 212.5t77 172.5t114 126.5t141 80t156 26.5q161 0 258 -100v477h252q74 0 74 -61v-1108q0 -90 67 -90h52q16 -56 16 -109t-58 -97t-147 -44q-78 0 -143.5 46.5t-93.5 135.5q-59 -96 -148 -144.5t-190 -48.5q-196 0 -325.5 145t-129.5 380zM414 508 q0 -135 56 -208t161 -73q72 0 134.5 49.5t96.5 141.5v385q-65 59 -172 59q-120 0 -198 -99.5t-78 -254.5z" />
<glyph unicode="e" horiz-adv-x="1204" d="M88 543q0 171 76 303t204.5 202t286.5 70q214 0 341.5 -115t127.5 -296q0 -106 -41 -183q-25 -47 -63.5 -66.5t-108.5 -19.5h-491q21 -111 100 -165t203 -54q151 0 256 57q17 -23 30 -62.5t13 -68.5q0 -58 -105.5 -114t-263.5 -56q-248 0 -406.5 161.5t-158.5 406.5z M418 645h383q16 29 16 70q0 76 -43 117.5t-119 41.5q-100 0 -162.5 -60t-74.5 -169z" />
<glyph unicode="f" horiz-adv-x="935" d="M53 920q0 96 19 174h170v65q0 178 95 269.5t269 91.5q124 0 222 -48.5t98 -97.5q0 -29 -12.5 -67.5t-32.5 -63.5q-68 29 -170 29q-76 0 -111 -31.5t-35 -97.5v-49h269q59 0 59 -74v-178h-328v-842h-250q-73 0 -73 57v785h-123q-66 0 -66 78z" />
<glyph unicode="g" horiz-adv-x="1331" d="M88 502q0 140 43 258t115 195t165 120t193 43q161 0 258 -100v76h252q74 0 74 -62v-1007q0 -105 -41.5 -200t-118.5 -169t-196.5 -118t-264.5 -44q-213 0 -328.5 82.5t-115.5 212.5q0 76 52 142.5t149 101.5q-109 63 -172.5 185.5t-63.5 283.5zM414 510q0 -135 56 -208 t161 -73q73 0 135 49t96 142v383q-65 59 -172 59q-120 0 -198 -98.5t-78 -253.5zM446 -160q0 -46 36.5 -73t103.5 -27q119 0 197.5 73.5t78.5 200.5v129q-110 -161 -336 -161q-80 -56 -80 -142z" />
<glyph unicode="h" horiz-adv-x="1327" d="M141 59v1424q111 26 236 26q90 0 90 -71v-461q58 66 143.5 103.5t173.5 37.5q177 0 273 -118.5t96 -346.5v-327q0 -90 66 -90h53q18 -63 18 -109q0 -53 -58.5 -97t-146.5 -44q-51 0 -95.5 15.5t-81.5 48t-58 90t-21 134.5v396q0 99 -39.5 146.5t-125.5 47.5 q-51 0 -104.5 -20t-92.5 -56v-788h-252q-74 0 -74 59z" />
<glyph unicode="i" horiz-adv-x="651" d="M125 1378q0 73 48.5 115.5t125.5 42.5q72 0 125 -45t53 -119q0 -75 -48 -116.5t-126 -41.5q-73 0 -125.5 44.5t-52.5 119.5zM141 274v805q106 29 236 29q88 0 88 -72v-712q0 -91 63 -91h56q16 -53 16 -106q0 -54 -57.5 -97.5t-145.5 -43.5q-51 0 -95.5 15.5t-81.5 48 t-58 90t-21 134.5z" />
<glyph unicode="j" horiz-adv-x="616" d="M-2 -307q154 164 154 385v1001q106 29 235 29q88 0 88 -72v-956q0 -125 -49.5 -240.5t-131.5 -185.5t-171 -70q-75 0 -125 109zM135 1378q0 73 48.5 115.5t125.5 42.5q72 0 125 -45t53 -119q0 -75 -48 -116.5t-126 -41.5q-73 0 -125.5 44.5t-52.5 119.5z" />
<glyph unicode="k" horiz-adv-x="1236" d="M141 59v1424q111 26 236 26q90 0 90 -71v-746q115 73 235.5 193.5t190.5 236.5q131 -41 179 -80.5t48 -93.5q0 -32 -22 -69q-86 -139 -281 -283q40 -75 94 -155.5t93 -127.5q37 -45 63.5 -62.5t56.5 -17.5h47q21 -56 21 -106q0 -58 -58.5 -99.5t-146.5 -41.5 q-143 0 -256 159q-86 128 -160 289q-14 -7 -50 -26.5t-54 -28.5v-379h-252q-74 0 -74 59z" />
<glyph unicode="l" horiz-adv-x="749" d="M135 383v1098q106 28 236 28q88 0 88 -71v-1055q0 -143 112 -143q67 0 119 22q17 -24 29 -62t12 -73q0 -50 -74.5 -95.5t-187.5 -45.5q-334 0 -334 397z" />
<glyph unicode="m" horiz-adv-x="1888" d="M141 59v1022q115 27 236 27q90 0 90 -72v-55q54 67 129 102t156 35q189 0 278 -149q66 70 151.5 109.5t178.5 39.5q164 0 259 -101t95 -312v-379q0 -90 64 -90h53q18 -52 18 -109q0 -53 -57.5 -97t-146.5 -44q-51 0 -95.5 15.5t-81.5 48t-58 90t-21 134.5v453 q0 137 -127 137q-97 0 -179 -73q7 -51 7 -89v-702h-250q-74 0 -74 59v668q0 137 -125 137q-101 0 -174 -73v-791h-252q-74 0 -74 59z" />
<glyph unicode="n" horiz-adv-x="1327" d="M141 59v1022q115 27 236 27q90 0 90 -72v-59q58 66 143.5 103.5t173.5 37.5q177 0 273 -118.5t96 -346.5v-327q0 -90 66 -90h53q18 -63 18 -109q0 -53 -58.5 -97t-146.5 -44q-51 0 -95.5 15.5t-81.5 48t-58 90t-21 134.5v396q0 99 -39.5 146.5t-125.5 47.5 q-51 0 -104.5 -20t-92.5 -56v-788h-252q-74 0 -74 59z" />
<glyph unicode="o" horiz-adv-x="1308" d="M88 547q0 133 46 242.5t124.5 180.5t180 109.5t214.5 38.5t214.5 -38.5t180.5 -109.5t125 -180.5t46 -242.5t-46.5 -243t-125 -181t-180 -109.5t-214.5 -38.5t-214.5 38.5t-180 110t-124.5 181t-46 242.5zM414 557q0 -153 69.5 -240.5t178.5 -87.5q104 0 167.5 78.5 t63.5 229.5q0 153 -69.5 240t-178.5 87q-104 0 -167.5 -78t-63.5 -229z" />
<glyph unicode="p" horiz-adv-x="1331" d="M141 -375v1454q120 29 236 29q90 0 90 -74v-90q114 174 317 174q197 0 327 -144.5t130 -381.5q0 -141 -43 -259t-115 -195.5t-165 -120t-193 -42.5q-162 0 -258 99v-510h-252q-74 0 -74 61zM467 289q66 -60 172 -60q120 0 197 100t77 255q0 135 -55.5 207.5t-159.5 72.5 q-73 0 -135.5 -49.5t-95.5 -140.5v-385z" />
<glyph unicode="q" horiz-adv-x="1331" d="M88 500q0 113 28 212.5t77 172.5t114 126.5t141 80t156 26.5q161 0 258 -100v76h252q74 0 74 -62v-1468h-252q-74 0 -74 61v520q-113 -170 -319 -170q-196 0 -325.5 145t-129.5 380zM414 508q0 -135 56 -208t161 -73q72 0 134.5 49.5t96.5 141.5v385q-65 59 -172 59 q-120 0 -198 -99.5t-78 -254.5z" />
<glyph unicode="r" horiz-adv-x="1001" d="M141 57v1033q103 28 236 28q88 0 88 -71v-105q44 76 121.5 126t169.5 50q87 0 157 -33q70 -32 70 -81q0 -47 -42.5 -98.5t-100.5 -86.5q-59 45 -152 45q-86 0 -143.5 -55t-79.5 -156v-653h-250q-74 0 -74 57z" />
<glyph unicode="s" horiz-adv-x="1044" d="M106 784q0 149 114 241.5t300 92.5q138 0 246 -47.5t162 -130.5q20 -33 20 -63q0 -44 -47 -72q-78 -48 -192 -55q-19 61 -60 95t-100 34q-57 0 -88 -26t-31 -65q0 -50 39 -80.5t131 -54.5q187 -47 272.5 -129.5t85.5 -214.5q0 -149 -112.5 -241.5t-317.5 -92.5 q-154 0 -273.5 58.5t-119.5 122.5q0 70 45 133q142 -74 303 -74q152 0 152 80q0 38 -27.5 61t-103.5 41q-398 91 -398 387z" />
<glyph unicode="t" horiz-adv-x="966" d="M53 920q0 104 19 174h164v299q103 28 233 28q90 0 90 -71v-256h275q59 0 59 -74v-178h-334v-457q0 -83 38 -120.5t112 -37.5q81 0 147 27q18 -22 30.5 -58.5t12.5 -66.5q0 -56 -82.5 -105t-208.5 -49q-178 0 -275 106.5t-97 293.5v467h-117q-66 0 -66 78z" />
<glyph unicode="u" horiz-adv-x="1275" d="M129 467v614q111 27 233 27q91 0 91 -72v-581q0 -101 49.5 -158t134.5 -57q84 0 135 57.5t51 157.5v639h250q74 0 74 -60v-567q0 -226 -140 -358t-370 -132t-369 132t-139 358z" />
<glyph unicode="v" horiz-adv-x="1236" d="M68 1018q58 41 125 66.5t112 25.5q40 0 60 -13t32 -48l228 -715q67 150 128 364t89 396h243q45 0 65 -18q14 -13 13 -33q0 -8 -2 -17q-52 -237 -149 -498.5t-207 -464.5q-19 -36 -46 -49.5t-83 -13.5h-238z" />
<glyph unicode="w" horiz-adv-x="1802" d="M76 1020q56 39 122 64.5t109 25.5q42 0 62.5 -14.5t29.5 -51.5l174 -688q99 313 158 738h225q59 0 88.5 -19.5t40.5 -62.5l158 -658q104 296 166 740h197q52 0 86 -27q26 -21 26 -56q0 -10 -2 -22q-41 -216 -113.5 -467.5t-162.5 -458.5q-27 -63 -88 -63h-273l-168 717 q-72 -408 -172 -656q-23 -61 -96 -61h-246z" />
<glyph unicode="x" horiz-adv-x="1196" d="M70 55q0 9 8 37q45 120 128 237.5t195 215.5l-305 403q117 158 219 158q45 0 78 -45l223 -297q102 121 154 330h246q80 0 80 -60q0 -17 -6 -35q-36 -111 -119.5 -231t-190.5 -221l174 -234q32 -44 59 -60.5t68 -16.5h37q21 -54 21 -109q0 -54 -53.5 -97.5t-139.5 -43.5 q-65 0 -120.5 36t-114.5 115l-146 193q-112 -138 -170 -330h-241q-84 0 -84 55z" />
<glyph unicode="y" horiz-adv-x="1292" d="M137 432v641q111 27 236 27q88 0 88 -72v-604q0 -97 42.5 -147t121.5 -50q105 0 200 76v791h250q74 0 74 -60v-1022q0 -105 -35.5 -197t-104.5 -165t-182.5 -115.5t-257.5 -42.5q-192 0 -305.5 81.5t-113.5 207.5q0 75 44 140t125 104q-182 101 -182 407zM471 -162 q0 -45 32 -72.5t91 -27.5q102 0 166.5 69t64.5 193v117q-103 -115 -247 -133q-57 -19 -82 -59t-25 -87z" />
<glyph unicode="z" horiz-adv-x="1064" d="M88 193l471 649h-383q-67 0 -67 78q0 104 20 174h694q58 0 101 -50q40 -48 55 -145l-467 -641h420q59 0 59 -74v-184h-747q-79 0 -109 53q-33 53 -47 140z" />
<glyph unicode="{" horiz-adv-x="931" d="M106 578v182q116 0 167 51.5t51 153.5v104q0 255 111 361t345 106h47q68 0 68 -80q0 -76 -21 -172h-118q-123 0 -123 -168v-137q0 -139 -52 -222t-153 -122q105 -45 155 -131.5t50 -235.5v-116q0 -166 123 -166h59q59 0 59 -72v-180h-137q-215 0 -314 102.5t-99 335.5 v131q0 95 -39 142t-123 59q-56 6 -56 74z" />
<glyph unicode="|" horiz-adv-x="679" d="M195 -350v1902q90 23 196 23q92 0 92 -74v-1911h-215q-73 0 -73 60z" />
<glyph unicode="}" horiz-adv-x="931" d="M35 1456q0 80 67 80h64q219 0 329.5 -106t110.5 -338v-127q0 -102 50.5 -153.5t166.5 -51.5v-182q0 -68 -55 -74q-84 -12 -123 -59t-39 -142v-153q0 -221 -102 -318.5t-311 -97.5h-138v180q0 72 60 72h49q125 0 125 166v137q0 138 51.5 221.5t153.5 124.5 q-101 39 -153 122t-52 222v137q0 168 -125 168h-109q-20 92 -20 172z" />
<glyph unicode="~" horiz-adv-x="1290" d="M117 590q0 19 10 69q26 108 104 169t193 61q130 0 244 -84q67 -51 98.5 -68.5t60.5 -17.5q41 0 66 36t35 128l188 -39q34 -7 45.5 -21.5t9.5 -40.5q-8 -136 -88.5 -222.5t-218.5 -86.5q-129 0 -243 84q-66 51 -98.5 68.5t-61.5 17.5q-41 0 -66 -36t-35 -126 q-91 -12 -184 27q-59 26 -59 82z" />
<glyph unicode="&#xa1;" horiz-adv-x="663" d="M152 956q0 76 49 119t129 43q75 0 128.5 -46t53.5 -124q0 -75 -49.5 -117.5t-128.5 -42.5q-74 0 -128 46t-54 122zM158 -94q0 383 49 788h182q37 0 53 -14t21 -45q43 -353 43 -729v-236q-123 -28 -254 -28q-94 0 -94 73v191z" />
<glyph unicode="&#xa2;" d="M88 578q0 201 107 342t294 182v205q98 24 181 24q46 0 67 -16t21 -51v-158q108 -21 189.5 -74.5t123.5 -126.5q21 -35 21 -69q0 -47 -64 -84q-79 -47 -211 -62q-40 174 -190 174q-97 0 -155 -74t-58 -206q0 -163 98 -259t254 -96q141 0 252 62q18 -27 31.5 -67t13.5 -68 q0 -51 -86.5 -106.5t-218.5 -69.5v-209h-195q-74 0 -74 59v174q-178 58 -289.5 209.5t-111.5 364.5z" />
<glyph unicode="&#xa3;" horiz-adv-x="1255" d="M88 641q0 72 14 115h117v205q0 232 129 364.5t359 132.5q157 0 272 -75t170 -197q18 -41 18 -74q0 -50 -59 -80q-92 -50 -225 -57q-38 203 -174 203q-67 0 -107.5 -51t-40.5 -152v-219h340q27 0 39 -15.5t12 -50.5v-100h-391v-64q0 -173 -86 -250h649q60 0 60 -73v-203 h-1014q-59 0 -59 72v172q55 44 81.5 107t26.5 159v80h-74q-57 0 -57 51z" />
<glyph unicode="&#xa4;" horiz-adv-x="1417" d="M115 1073q51 90 110 146q37 35 65.5 36.5t63.5 -32.5l140 -140q106 50 215 50q102 0 206 -48l189 189q81 -46 143 -111q36 -37 37.5 -65t-33.5 -64l-137 -139q55 -99 55 -215q0 -111 -51 -211l185 -184q-52 -88 -111 -144q-68 -65 -129 -4l-141 139q-94 -49 -213 -49 q-115 0 -207 47l-189 -188q-81 46 -143 111q-36 37 -37.5 65t33.5 64l137 139q-55 99 -55 215q0 115 51 209zM506 688q0 -103 60.5 -166t150.5 -63q83 0 138.5 60t55.5 153q0 103 -60.5 166t-150.5 63q-83 0 -138.5 -60t-55.5 -153z" />
<glyph unicode="&#xa5;" horiz-adv-x="1431" d="M59 1284q65 80 126.5 124t105.5 44q42 0 69 -41l361 -487q85 94 174.5 233t153.5 277h251q46 0 69 -26t1 -69q-78 -166 -212 -348.5t-279 -324.5v-19h208q25 0 36.5 -14t11.5 -47v-70h-256v-78h208q25 0 36.5 -14t11.5 -47v-70h-256v-307h-269q-73 0 -73 57v250h-213 q-48 0 -48 47q0 33 15 84h246v78h-213q-48 0 -48 47q0 33 15 84h246v17z" />
<glyph unicode="&#xa6;" horiz-adv-x="679" d="M195 -227v637q86 22 196 22q92 0 92 -74v-645h-215q-73 0 -73 60zM195 793v637q86 22 196 22q92 0 92 -74v-645h-215q-73 0 -73 60z" />
<glyph unicode="&#xa7;" horiz-adv-x="1056" d="M106 582q0 82 47 145.5t130 99.5q-177 104 -177 293q0 149 117 243.5t303 94.5q134 0 241 -47t161 -131q20 -33 20 -63q0 -44 -47 -72q-78 -48 -194 -55q-39 129 -158 129q-57 0 -88 -26t-31 -65q0 -50 38.5 -80.5t131.5 -60.5q184 -61 271 -142.5t87 -199.5 q0 -80 -48 -144t-122 -95q83 -43 126.5 -114t43.5 -163q0 -149 -112.5 -241.5t-317.5 -92.5q-154 0 -273.5 58t-119.5 122q0 32 13 69.5t32 64.5q142 -74 303 -74q152 0 152 80q0 37 -28.5 59.5t-102.5 42.5q-398 110 -398 365zM403 621q0 -105 168 -152q93 49 93 133 q0 105 -168 152q-93 -46 -93 -133z" />
<glyph unicode="&#xa8;" horiz-adv-x="860" d="M84 1337q0 65 39.5 104.5t101.5 39.5t107 -44t45 -114q0 -67 -39.5 -106t-101.5 -39t-107 44t-45 115zM485 1337q0 65 40 104.5t102 39.5t106.5 -44t44.5 -114q0 -67 -39 -106t-102 -39q-62 0 -107 44t-45 115z" />
<glyph unicode="&#xa9;" horiz-adv-x="1687" d="M102 717q0 202 99.5 372.5t270 269.5t372.5 99q151 0 288.5 -58.5t236.5 -157.5t157.5 -236.5t58.5 -288.5q0 -202 -99 -372.5t-269.5 -270t-372.5 -99.5t-372.5 99.5t-270 270t-99.5 372.5zM217 717q0 -130 49.5 -248t133.5 -202.5t200 -134.5t244 -50q170 0 314 84 t228 230.5t84 320.5q0 129 -49.5 246.5t-133.5 202.5t-200 135.5t-243 50.5t-243.5 -50.5t-200.5 -135.5t-133.5 -202.5t-49.5 -246.5zM461 729q0 173 110 278t281 105q104 0 185 -40.5t120 -108.5q14 -25 14 -48q0 -36 -45 -59q-67 -37 -155 -47q-32 111 -131 111 q-58 0 -95.5 -50t-37.5 -139q0 -104 65 -166.5t172 -62.5q99 0 178 37q33 -49 33 -95t-82.5 -89.5t-183.5 -43.5q-181 0 -304.5 116.5t-123.5 301.5z" />
<glyph unicode="&#xaa;" horiz-adv-x="944" d="M72 891q0 116 83 183t220 67q108 0 164 -29v45q0 121 -164 121q-119 0 -211 -47q-27 46 -27 90t91.5 86.5t211.5 42.5q168 0 263.5 -80.5t95.5 -234.5v-258q0 -50 47 -50h31q14 -44 14 -75q0 -41 -44 -73t-108 -32q-51 0 -97 26.5t-73 74.5q-34 -52 -90 -80.5t-125 -28.5 q-122 0 -202 71t-80 181zM328 897q0 -39 29.5 -62.5t68.5 -23.5q83 0 115 86v86q-41 12 -92 12q-57 0 -89 -25.5t-32 -72.5z" />
<glyph unicode="&#xab;" horiz-adv-x="1220" d="M106 594v139l420 295q30 19 47 19q41 0 41 -66q0 -72 -16 -154l-279 -188l244 -166q35 -23 35 -70v-202l-457 319q-35 27 -35 74zM606 594v139l420 295q30 19 47 19q41 0 41 -66q0 -72 -16 -154l-281 -188l246 -166q35 -23 35 -70v-202l-457 319q-35 27 -35 74z" />
<glyph unicode="&#xac;" horiz-adv-x="1290" d="M141 780q0 81 23 168h895q67 0 67 -63v-549h-231q-74 0 -74 59v310h-612q-68 0 -68 75z" />
<glyph unicode="&#xad;" horiz-adv-x="880" d="M143 627q0 94 25 180h520q68 0 68 -64v-192h-545q-68 0 -68 76z" />
<glyph unicode="&#xae;" horiz-adv-x="1687" d="M102 717q0 202 99.5 372.5t270 269.5t372.5 99q151 0 288.5 -58.5t236.5 -157.5t157.5 -236.5t58.5 -288.5q0 -202 -99 -372.5t-269.5 -270t-372.5 -99.5t-372.5 99.5t-270 270t-99.5 372.5zM217 717q0 -130 49.5 -248t133.5 -202.5t200 -134.5t244 -50q170 0 314 84 t228 230.5t84 320.5q0 129 -49.5 246.5t-133.5 202.5t-200 135.5t-243 50.5t-243.5 -50.5t-200.5 -135.5t-133.5 -202.5t-49.5 -246.5zM543 381v731h311q148 0 230.5 -76t82.5 -205q0 -75 -33.5 -134t-93.5 -93q62 -121 127 -121h23q14 -35 14 -77q0 -33 -37.5 -58.5 t-89.5 -25.5q-80 0 -135 60t-102 181q-36 0 -72 12v-241h-166q-59 0 -59 47zM768 743q21 -8 53 -8q43 0 81 25.5t38 75.5q0 54 -33 78t-100 24h-39v-195z" />
<glyph unicode="&#xaf;" horiz-adv-x="860" d="M135 1300q0 60 21 125h512q55 0 55 -69v-129h-522q-66 0 -66 73z" />
<glyph unicode="&#xb0;" horiz-adv-x="804" d="M80 1151q0 131 91.5 219t229.5 88q139 0 231.5 -88t92.5 -219q0 -132 -92.5 -220.5t-231.5 -88.5q-138 0 -229.5 88.5t-91.5 220.5zM289 1155q0 -55 33 -94t84 -39t79.5 35t28.5 90t-33 94t-84 39q-49 0 -78.5 -36t-29.5 -89z" />
<glyph unicode="&#xb1;" horiz-adv-x="1290" d="M141 76q0 85 25 168h913q70 0 70 -64v-180h-940q-68 0 -68 76zM141 805q0 85 25 168h328v323q95 31 213 31q49 0 69.5 -17.5t20.5 -54.5v-282h282q70 0 70 -64v-180h-352v-352h-230q-73 0 -73 59v293h-285q-68 0 -68 76z" />
<glyph unicode="&#xb2;" horiz-adv-x="835" d="M84 1214q0 32 18 68q36 74 119 121t185 47q151 0 240 -83t89 -222q0 -196 -221 -371h172q30 0 42.5 -12t12.5 -41v-139h-528q-63 0 -82 45q-21 50 -25 114q172 83 276.5 189t104.5 219q0 48 -24.5 73t-59.5 25q-36 0 -63.5 -31.5t-40.5 -93.5q-94 3 -176 39 q-39 19 -39 53z" />
<glyph unicode="&#xb3;" horiz-adv-x="835" d="M82 711q0 51 33 104q125 -61 245 -61q61 0 95 22t34 64q0 81 -131 90q-34 3 -49 10.5t-28 28.5q-26 44 -33 100l155 172h-241q-68 0 -68 62q0 44 17 131h489q32 0 48.5 -7.5t29.5 -29.5q28 -48 35 -99l-209 -217q107 -21 170 -84t63 -159q0 -119 -94 -196t-254 -77 q-119 0 -213 49t-94 97z" />
<glyph unicode="&#xb4;" horiz-adv-x="860" d="M199 1264l223 233q37 37 63 37q34 0 68 -27q65 -55 109 -147l-263 -195q-37 -24 -59 -24q-28 0 -49 24z" />
<glyph unicode="&#xb5;" horiz-adv-x="1288" d="M141 -408v1487q106 29 236 29q88 0 88 -72v-735q42 -34 95 -54t104 -20q165 0 165 197v670h250q74 0 74 -60v-594q0 -229 -96 -347t-275 -118q-181 0 -317 103v-545h-250q-74 0 -74 59z" />
<glyph unicode="&#xb6;" horiz-adv-x="1271" d="M88 1024q0 185 127 297.5t317 112.5h623q25 0 35 -13t10 -47v-102h-164v-1540h-116q-34 0 -47 10t-13 35v1495h-131v-1540h-127q-32 0 -45.5 10t-13.5 35v837q-198 0 -326.5 111.5t-128.5 298.5z" />
<glyph unicode="&#xb7;" horiz-adv-x="690" d="M170 721q0 78 47.5 125t122.5 47q72 0 126 -51.5t54 -134.5q0 -78 -47.5 -125t-122.5 -47q-72 0 -126 51.5t-54 134.5z" />
<glyph unicode="&#xb8;" horiz-adv-x="860" d="M219 -358q0 48 49 39q40 -9 60 -9q34 0 53.5 14t19.5 40q0 35 -29 52.5t-91 22.5q-31 15 -31 31q0 6 4 14l82 154h217l-68 -123q69 -13 109.5 -58.5t40.5 -107.5q0 -93 -73.5 -151t-190.5 -58q-94 0 -152 19v121z" />
<glyph unicode="&#xb9;" horiz-adv-x="835" d="M119 1225q0 26 43 53l246 156h135q32 0 45.5 -11.5t13.5 -38.5v-802h-190q-32 0 -46 11t-14 36v536l-114 -73q-51 31 -101 88q-18 21 -18 45z" />
<glyph unicode="&#xba;" horiz-adv-x="944" d="M70 1044q0 95 33 173t89.5 128t128.5 77.5t152 27.5t152.5 -27.5t128.5 -77.5t89.5 -128t33.5 -173q0 -126 -57.5 -220t-148 -139.5t-198.5 -45.5t-198 45.5t-147.5 139.5t-57.5 220zM326 1053q0 -99 40 -156t113 -57q65 0 103.5 50.5t38.5 147.5q0 99 -41.5 156 t-114.5 57q-64 0 -101.5 -51t-37.5 -147z" />
<glyph unicode="&#xbb;" horiz-adv-x="1220" d="M106 981q0 66 44 66q15 0 45 -19l419 -295v-139q0 -53 -34 -74l-457 -319v202q0 47 35 70l245 166l-280 188q-17 108 -17 154zM606 981q0 66 43 66q15 0 45 -19l420 -295v-139q0 -47 -35 -74l-456 -319v202q0 47 34 70l246 166l-280 188q-17 108 -17 154z" />
<glyph unicode="&#xbc;" horiz-adv-x="1998" d="M119 1225q0 26 43 53l246 156h135q32 0 45.5 -11.5t13.5 -38.5v-802h-190q-32 0 -46 11t-14 36v536l-114 -73q-51 31 -101 88q-18 21 -18 45zM606 61l576 1373h151q39 0 51.5 -17t1.5 -45l-575 -1372h-152q-77 0 -53 61zM1210 297q41 142 140 284.5t217 231.5 q85 49 202 49q44 0 61 -13.5t17 -45.5v-479h47q30 0 43 -13t13 -41v-125h-103v-145h-174q-32 0 -45.5 11t-13.5 36v98h-297q-58 0 -78 39q-22 43 -29 113zM1446 324h166v264q-51 -51 -97.5 -125t-68.5 -139z" />
<glyph unicode="&#xbd;" horiz-adv-x="1998" d="M119 1225q0 26 43 53l246 156h135q32 0 45.5 -11.5t13.5 -38.5v-802h-190q-32 0 -46 11t-14 36v536l-114 -73q-51 31 -101 88q-18 21 -18 45zM606 61l576 1373h151q39 0 51.5 -17t1.5 -45l-575 -1372h-152q-77 0 -53 61zM1245 633q0 29 19 67q36 74 118.5 121t184.5 47 q151 0 240 -83t89 -222q0 -195 -221 -370h172q30 0 43 -12.5t13 -41.5v-139h-529q-63 0 -82 45q-20 47 -24 115q172 83 276.5 188.5t104.5 218.5q0 48 -24.5 73.5t-59.5 25.5q-36 0 -64 -32t-41 -93q-94 3 -176 39q-39 19 -39 53z" />
<glyph unicode="&#xbe;" horiz-adv-x="1998" d="M82 711q0 51 33 104q125 -61 245 -61q61 0 95 22t34 64q0 81 -131 90q-34 3 -49 10.5t-28 28.5q-26 44 -33 100l155 172h-241q-68 0 -68 62q0 44 17 131h489q32 0 48.5 -7.5t29.5 -29.5q28 -48 35 -99l-209 -217q107 -21 170 -84t63 -159q0 -119 -94 -196t-254 -77 q-119 0 -213 49t-94 97zM606 61l576 1373h151q39 0 51.5 -17t1.5 -45l-575 -1372h-152q-77 0 -53 61zM1210 297q41 142 140 284.5t217 231.5q85 49 202 49q44 0 61 -13.5t17 -45.5v-479h47q30 0 43 -13t13 -41v-125h-103v-145h-174q-32 0 -45.5 11t-13.5 36v98h-297 q-58 0 -78 39q-22 43 -29 113zM1446 324h166v264q-51 -51 -97.5 -125t-68.5 -139z" />
<glyph unicode="&#xbf;" horiz-adv-x="1169" d="M104 59q0 216 203 377q83 66 112.5 109.5t29.5 97.5v51h268q74 0 74 -59v-35q0 -100 -49.5 -177t-155.5 -153q-76 -56 -106.5 -104.5t-30.5 -108.5t38 -98.5t99 -38.5q75 0 131 54t74 161q144 -7 231 -59q57 -33 57 -84q0 -37 -18 -78q-55 -125 -179.5 -202t-295.5 -77 q-216 0 -349 118t-133 306zM440 958q0 76 49 118t129 42q75 0 129 -45t54 -123q0 -76 -49.5 -119t-128.5 -43q-75 0 -129 46t-54 124z" />
<glyph unicode="&#xc0;" horiz-adv-x="1431" d="M47 72l481 1325q118 51 246 51q66 0 96 -20t50 -76l489 -1352h-287q-42 0 -62.5 12.5t-29.5 40.5l-69 217h-490l-86 -270h-276q-34 0 -53 20.5t-9 51.5zM445 1757q44 93 108 147q35 27 70 27q24 0 61 -37l224 -233l-93 -99q-24 -24 -47 -24q-24 0 -59 24zM553 535h326 l-164 505z" />
<glyph unicode="&#xc1;" horiz-adv-x="1431" d="M47 72l481 1325q118 51 246 51q66 0 96 -20t50 -76l489 -1352h-287q-42 0 -62.5 12.5t-29.5 40.5l-69 217h-490l-86 -270h-276q-34 0 -53 20.5t-9 51.5zM518 1663l223 233q37 37 64 37q35 0 67 -26q65 -55 109 -148l-262 -194q-39 -25 -60 -25q-27 0 -49 25zM553 535h326 l-164 505z" />
<glyph unicode="&#xc2;" horiz-adv-x="1431" d="M47 72l481 1325q118 51 246 51q66 0 96 -20t50 -76l489 -1352h-287q-42 0 -62.5 12.5t-29.5 40.5l-69 217h-490l-86 -270h-276q-34 0 -53 20.5t-9 51.5zM389 1659q0 27 29 53l233 211h78q29 0 46.5 -7t39.5 -28l248 -223l-78 -86q-35 -41 -65 -41q-34 0 -58 28l-147 150 l-180 -180q-86 39 -133 92q-13 16 -13 31zM553 535h326l-164 505z" />
<glyph unicode="&#xc3;" horiz-adv-x="1431" d="M47 72l481 1325q118 51 246 51q66 0 96 -20t50 -76l489 -1352h-287q-42 0 -62.5 12.5t-29.5 40.5l-69 217h-490l-86 -270h-276q-34 0 -53 20.5t-9 51.5zM395 1655q0 25 8 57q24 77 72 116.5t111 39.5q77 0 135 -45q56 -43 76 -43q21 0 32 22t17 76l129 -35 q31 -9 42 -21.5t11 -33.5q0 -93 -60 -152t-132 -59q-73 0 -131 45q-55 43 -78 43q-21 0 -32 -20.5t-17 -67.5q-68 0 -136 22q-47 16 -47 56zM553 535h326l-164 505z" />
<glyph unicode="&#xc4;" horiz-adv-x="1431" d="M47 72l481 1325q118 51 246 51q66 0 96 -20t50 -76l489 -1352h-287q-42 0 -62.5 12.5t-29.5 40.5l-69 217h-490l-86 -270h-276q-34 0 -53 20.5t-9 51.5zM369 1735q0 65 39.5 104t101.5 39t107 -44t45 -114q0 -66 -39.5 -105.5t-102.5 -39.5q-62 0 -106.5 44.5 t-44.5 115.5zM553 535h326l-164 505zM770 1735q0 65 39.5 104t101.5 39t107 -44t45 -114q0 -66 -39.5 -105.5t-101.5 -39.5t-107 44.5t-45 115.5z" />
<glyph unicode="&#xc5;" horiz-adv-x="1431" d="M47 72l481 1325q118 51 246 51q66 0 96 -20t50 -76l489 -1352h-287q-42 0 -62.5 12.5t-29.5 40.5l-69 217h-490l-86 -270h-276q-34 0 -53 20.5t-9 51.5zM502 1732q0 86 60 143.5t153 57.5t153 -57.5t60 -143.5q0 -87 -60 -144.5t-153 -57.5t-153 57.5t-60 144.5zM553 535 h326l-164 505zM647 1734q0 -32 20 -51.5t50 -19.5q29 0 47.5 17.5t18.5 47.5q0 32 -20 53t-50 21q-29 0 -47.5 -18.5t-18.5 -49.5z" />
<glyph unicode="&#xc6;" horiz-adv-x="1884" d="M35 80l620 1290q112 64 258 64h789q67 0 67 -80q0 -103 -22 -199h-567v-303h419q60 0 60 -74v-203h-479v-112q0 -94 30.5 -140.5t106.5 -46.5h409q60 0 60 -73v-203h-526q-133 0 -213.5 28.5t-121.5 86t-59 157.5h-377l-120 -272h-273q-38 0 -58 23t-3 57zM608 537h232 v512z" />
<glyph unicode="&#xc7;" horiz-adv-x="1437" d="M98 754q0 159 52.5 292t143.5 222.5t217 139.5t271 50q197 0 345 -79t221 -212q18 -35 18 -71q0 -50 -59 -86q-96 -57 -232 -64q-42 116 -120 175t-183 59q-145 0 -238.5 -112t-93.5 -308q0 -229 136 -367.5t360 -138.5q196 0 332 76q21 -28 36 -72.5t15 -79.5 q0 -59 -109 -119t-260 -77l-55 -105q69 -13 109 -58.5t40 -107.5q0 -93 -73.5 -151t-190.5 -58q-93 0 -151 19v121q0 48 49 39q40 -9 59 -9q34 0 54 14t20 40q0 35 -29.5 52.5t-91.5 22.5q-31 15 -31 31q0 4 5 14l71 140q-139 20 -256 83.5t-201.5 161.5t-132 232.5 t-47.5 290.5z" />
<glyph unicode="&#xc8;" horiz-adv-x="1200" d="M156 479v955h862q67 0 67 -80q0 -103 -22 -199h-567v-303h419q60 0 60 -74v-203h-479v-92q0 -115 32 -161t105 -46h409q60 0 60 -73v-203h-506q-162 0 -256 44.5t-139 148.5t-45 286zM363 1757q44 93 108 147q34 27 70 27q24 0 61 -37l224 -233l-93 -99q-24 -24 -47 -24 q-24 0 -59 24z" />
<glyph unicode="&#xc9;" horiz-adv-x="1200" d="M156 479v955h862q67 0 67 -80q0 -103 -22 -199h-567v-303h419q60 0 60 -74v-203h-479v-92q0 -115 32 -161t105 -46h409q60 0 60 -73v-203h-506q-162 0 -256 44.5t-139 148.5t-45 286zM392 1661l223 233q37 37 63 37q34 0 68 -27q65 -55 109 -147l-263 -195 q-38 -24 -59 -24q-28 0 -49 24z" />
<glyph unicode="&#xca;" horiz-adv-x="1200" d="M156 479v955h862q67 0 67 -80q0 -103 -22 -199h-567v-303h419q60 0 60 -74v-203h-479v-92q0 -115 32 -161t105 -46h409q60 0 60 -73v-203h-506q-162 0 -256 44.5t-139 148.5t-45 286zM287 1659q0 28 28 53l234 211h78q29 0 46.5 -7t39.5 -28l248 -223l-78 -86 q-35 -41 -66 -41q-32 0 -57 29l-148 149l-180 -180q-86 39 -133 92q-12 15 -12 31z" />
<glyph unicode="&#xcb;" horiz-adv-x="1200" d="M156 479v955h862q67 0 67 -80q0 -103 -22 -199h-567v-303h419q60 0 60 -74v-203h-479v-92q0 -115 32 -161t105 -46h409q60 0 60 -73v-203h-506q-162 0 -256 44.5t-139 148.5t-45 286zM266 1734q0 65 39.5 104.5t101.5 39.5t107 -44t45 -114q0 -66 -39.5 -105.5 t-101.5 -39.5t-107 44t-45 115zM667 1734q0 65 40 104.5t102 39.5t106.5 -44t44.5 -114q0 -66 -39 -105.5t-102 -39.5q-62 0 -107 44t-45 115z" />
<glyph unicode="&#xcc;" horiz-adv-x="679" d="M31 1757q45 95 108 148q33 26 70 26q24 0 61 -37l224 -233l-93 -98q-25 -25 -47 -25q-23 0 -59 25zM168 57v1364q110 29 250 29q92 0 92 -72v-1378h-268q-74 0 -74 57z" />
<glyph unicode="&#xcd;" horiz-adv-x="679" d="M168 57v1364q110 29 250 29q92 0 92 -72v-1378h-268q-74 0 -74 57zM185 1661l223 233q37 37 63 37q34 0 68 -27q65 -55 109 -147l-263 -195q-37 -24 -59 -24q-28 0 -49 24z" />
<glyph unicode="&#xce;" horiz-adv-x="679" d="M14 1659q0 27 29 53l233 211h78q29 0 46.5 -7t39.5 -28l248 -223l-78 -86q-35 -41 -65 -41q-34 0 -58 28l-147 150l-180 -180q-86 39 -133 92q-13 16 -13 31zM168 57v1364q110 29 250 29q92 0 92 -72v-1378h-268q-74 0 -74 57z" />
<glyph unicode="&#xcf;" horiz-adv-x="679" d="M-6 1735q0 65 39.5 104t101.5 39t107 -44t45 -114q0 -66 -39.5 -105.5t-102.5 -39.5q-62 0 -106.5 44.5t-44.5 115.5zM168 57v1364q110 29 250 29q92 0 92 -72v-1378h-268q-74 0 -74 57zM395 1735q0 65 40 104t102 39t106.5 -44t44.5 -114q0 -66 -39 -105.5t-102 -39.5 q-62 0 -107 44.5t-45 115.5z" />
<glyph unicode="&#xd0;" horiz-adv-x="1497" d="M14 684q0 68 15 115h127v635h553q148 0 274.5 -50t218 -141.5t143.5 -227t52 -298.5q0 -218 -90.5 -382t-249 -249.5t-363.5 -85.5h-119q-228 0 -323.5 108t-95.5 373v152h-84q-58 0 -58 51zM496 483q0 -121 37 -164t131 -43h26q166 0 264.5 112.5t98.5 328.5 q0 215 -98.5 326.5t-264.5 111.5h-194v-356h249q52 0 52 -66v-100h-301v-150z" />
<glyph unicode="&#xd1;" horiz-adv-x="1478" d="M160 59v1295q56 40 125 69t110 29q35 0 56 -11.5t36 -37.5l490 -785v816h268q74 0 74 -60v-1294q-56 -40 -125.5 -69t-110.5 -29q-35 0 -56 11.5t-36 37.5l-489 784v-815h-269q-73 0 -73 59zM420 1655q0 25 8 57q24 77 71.5 116.5t110.5 39.5q77 0 135 -45q56 -43 76 -43 q21 0 32 22t17 76l129 -35q31 -9 42.5 -21.5t11.5 -33.5q0 -93 -60.5 -152t-132.5 -59q-73 0 -131 45q-55 43 -78 43q-21 0 -32 -20.5t-17 -67.5q-67 0 -135 22q-47 16 -47 56z" />
<glyph unicode="&#xd2;" horiz-adv-x="1611" d="M98 717q0 174 55.5 315.5t152 234t225 142t276.5 49.5q147 0 275 -49.5t224.5 -142t151.5 -234t55 -315.5t-55 -315.5t-151.5 -234t-224.5 -142.5t-275 -50q-148 0 -276.5 50t-225 142.5t-152 234t-55.5 315.5zM440 733q0 -217 108.5 -348t268.5 -131q152 0 253 113.5 t101 332.5q0 217 -108 348.5t-268 131.5q-152 0 -253.5 -114t-101.5 -333zM537 1757q44 93 108 147q35 27 70 27q24 0 61 -37l224 -233l-93 -99q-24 -24 -47 -24q-24 0 -59 24z" />
<glyph unicode="&#xd3;" horiz-adv-x="1611" d="M98 717q0 174 55.5 315.5t152 234t225 142t276.5 49.5q147 0 275 -49.5t224.5 -142t151.5 -234t55 -315.5t-55 -315.5t-151.5 -234t-224.5 -142.5t-275 -50q-148 0 -276.5 50t-225 142.5t-152 234t-55.5 315.5zM440 733q0 -217 108.5 -348t268.5 -131q152 0 253 113.5 t101 332.5q0 217 -108 348.5t-268 131.5q-152 0 -253.5 -114t-101.5 -333zM596 1661l223 233q37 37 63 37q34 0 68 -27q65 -55 109 -147l-263 -195q-38 -24 -59 -24q-28 0 -49 24z" />
<glyph unicode="&#xd4;" horiz-adv-x="1611" d="M98 717q0 174 55.5 315.5t152 234t225 142t276.5 49.5q147 0 275 -49.5t224.5 -142t151.5 -234t55 -315.5t-55 -315.5t-151.5 -234t-224.5 -142.5t-275 -50q-148 0 -276.5 50t-225 142.5t-152 234t-55.5 315.5zM440 733q0 -217 108.5 -348t268.5 -131q152 0 253 113.5 t101 332.5q0 217 -108 348.5t-268 131.5q-152 0 -253.5 -114t-101.5 -333zM479 1659q0 27 29 53l233 211h78q29 0 46.5 -7t39.5 -28l248 -223l-78 -86q-35 -41 -65 -41q-34 0 -58 28l-147 150l-180 -180q-86 39 -133 92q-13 16 -13 31z" />
<glyph unicode="&#xd5;" horiz-adv-x="1611" d="M98 717q0 174 55.5 315.5t152 234t225 142t276.5 49.5q147 0 275 -49.5t224.5 -142t151.5 -234t55 -315.5t-55 -315.5t-151.5 -234t-224.5 -142.5t-275 -50q-148 0 -276.5 50t-225 142.5t-152 234t-55.5 315.5zM440 733q0 -217 108.5 -348t268.5 -131q152 0 253 113.5 t101 332.5q0 217 -108 348.5t-268 131.5q-152 0 -253.5 -114t-101.5 -333zM486 1654q0 26 8 58q24 76 71.5 115.5t110.5 39.5q77 0 135 -45q56 -43 76 -43q21 0 32 22.5t17 76.5l129 -35q31 -9 42 -21.5t11 -33.5q0 -93 -60 -152t-132 -59q-73 0 -131 45q-55 43 -78 43 q-21 0 -32 -20.5t-17 -67.5q-67 0 -135 22q-47 16 -47 55z" />
<glyph unicode="&#xd6;" horiz-adv-x="1611" d="M98 717q0 174 55.5 315.5t152 234t225 142t276.5 49.5q147 0 275 -49.5t224.5 -142t151.5 -234t55 -315.5t-55 -315.5t-151.5 -234t-224.5 -142.5t-275 -50q-148 0 -276.5 50t-225 142.5t-152 234t-55.5 315.5zM440 733q0 -217 108.5 -348t268.5 -131q152 0 253 113.5 t101 332.5q0 217 -108 348.5t-268 131.5q-152 0 -253.5 -114t-101.5 -333zM459 1735q0 65 39.5 104t101.5 39t107 -44t45 -114q0 -66 -39.5 -105.5t-102.5 -39.5q-62 0 -106.5 44.5t-44.5 115.5zM860 1735q0 65 39.5 104t101.5 39t107 -44t45 -114q0 -66 -39.5 -105.5 t-101.5 -39.5t-107 44.5t-45 115.5z" />
<glyph unicode="&#xd7;" horiz-adv-x="1290" d="M178 410l268 260l-268 264q57 98 117 156q71 68 125 12l225 -234l225 234q54 56 125 -12q66 -66 115 -156l-268 -264l268 -260l-152 -154q-51 -51 -92 -10l-221 227l-221 -227q-43 -43 -94 10z" />
<glyph unicode="&#xd8;" horiz-adv-x="1611" d="M82 15q-17 15 4 44l160 174q-150 197 -150 484q0 173 55.5 314.5t152 234t225 142.5t276.5 50q250 0 438 -143l109 119h127q27 0 42 -9.5t15 -23.5q0 -19 -16 -35l-156 -166q149 -195 149 -483q0 -174 -55.5 -315.5t-151.5 -234t-224.5 -142.5t-276.5 -50 q-256 0 -440 140l-107 -115h-127q-32 0 -49 15zM440 733q0 -135 45 -241l543 589q-97 97 -233 97q-73 0 -136 -27t-112.5 -80t-78 -139.5t-28.5 -198.5zM580 350q101 -96 235 -96q73 0 136 27t112 79.5t77.5 139t28.5 198.5q0 133 -45 242z" />
<glyph unicode="&#xd9;" horiz-adv-x="1484" d="M152 598v825q123 29 247 29q95 0 95 -74v-805q0 -151 66 -235t181 -84q118 0 184 83.5t66 235.5v861h269q73 0 73 -60v-776q0 -289 -158.5 -456t-433.5 -167q-274 0 -431.5 167t-157.5 456zM471 1757q44 93 108 147q34 27 70 27q24 0 61 -37l224 -233l-93 -99 q-24 -24 -47 -24q-25 0 -59 24z" />
<glyph unicode="&#xda;" horiz-adv-x="1484" d="M152 598v825q123 29 247 29q95 0 95 -74v-805q0 -151 66 -235t181 -84q118 0 184 83.5t66 235.5v861h269q73 0 73 -60v-776q0 -289 -158.5 -456t-433.5 -167q-274 0 -431.5 167t-157.5 456zM531 1661l223 233q37 37 63 37q34 0 68 -27q65 -55 109 -147l-263 -195 q-38 -24 -59 -24q-28 0 -49 24z" />
<glyph unicode="&#xdb;" horiz-adv-x="1484" d="M152 598v825q123 29 247 29q95 0 95 -74v-805q0 -151 66 -235t181 -84q118 0 184 83.5t66 235.5v861h269q73 0 73 -60v-776q0 -289 -158.5 -456t-433.5 -167q-274 0 -431.5 167t-157.5 456zM415 1659q0 27 29 53l233 211h78q29 0 46.5 -7t39.5 -28l248 -223l-78 -86 q-35 -41 -65 -41q-34 0 -58 28l-147 150l-180 -180q-86 39 -133 92q-13 16 -13 31z" />
<glyph unicode="&#xdc;" horiz-adv-x="1484" d="M152 598v825q123 29 247 29q95 0 95 -74v-805q0 -151 66 -235t181 -84q118 0 184 83.5t66 235.5v861h269q73 0 73 -60v-776q0 -289 -158.5 -456t-433.5 -167q-274 0 -431.5 167t-157.5 456zM395 1735q0 65 40 104t102 39t106.5 -44t44.5 -114q0 -66 -39 -105.5 t-102 -39.5q-62 0 -107 44.5t-45 115.5zM797 1735q0 65 39.5 104t101.5 39t107 -44t45 -114q0 -66 -39.5 -105.5t-102.5 -39.5q-62 0 -106.5 44.5t-44.5 115.5z" />
<glyph unicode="&#xdd;" horiz-adv-x="1382" d="M55 1300q56 63 125 106.5t125 43.5q27 0 44 -11t30 -38l313 -608q95 141 178 314.5t125 326.5h242q51 0 73 -24t9 -69q-64 -206 -189 -429.5t-278 -415.5v-496h-268q-74 0 -74 57v432zM494 1661l223 233q37 37 63 37q34 0 68 -27q65 -55 109 -147l-263 -195 q-37 -24 -59 -24q-28 0 -49 24z" />
<glyph unicode="&#xde;" horiz-adv-x="1335" d="M160 57v1364q110 29 248 29q92 0 92 -72v-139h166q274 0 430.5 -142.5t156.5 -394.5q0 -238 -156 -379t-399 -141q-95 0 -198 27v-209h-267q-73 0 -73 57zM500 475q75 -14 143 -14q124 0 196 63.5t72 186.5q0 124 -69 188t-193 64h-149v-488z" />
<glyph unicode="&#xdf;" horiz-adv-x="1361" d="M141 59v867q0 249 131 390.5t377 141.5q210 0 343.5 -114t133.5 -279q0 -103 -48 -172t-152 -119q75 -15 141 -50t117 -86.5t80.5 -123t29.5 -154.5q0 -166 -116.5 -275.5t-311.5 -109.5q-127 0 -216 55.5t-89 121.5q0 82 49 153q76 -37 168 -37q78 0 126 42.5t48 117.5 q0 82 -80.5 142.5t-226.5 64.5q-43 96 -37 164q1 32 15.5 50t46.5 30q123 47 123 157q0 67 -41.5 107.5t-104.5 40.5q-76 0 -120 -56t-44 -157v-971h-268q-74 0 -74 59z" />
<glyph unicode="&#xe0;" horiz-adv-x="1230" d="M84 330q0 163 116.5 257.5t309.5 94.5q150 0 223 -39v62q0 176 -239 176q-155 0 -287 -66q-39 58 -39 121q0 40 55.5 82t154.5 71t208 29q231 0 353 -112.5t122 -331.5v-348q0 -90 65 -90h52q18 -52 18 -109q0 -53 -58 -97t-147 -44q-70 0 -130.5 38t-92.5 111 q-48 -77 -127.5 -118.5t-181.5 -41.5q-165 0 -270 101t-105 254zM359 1401q44 93 108 147q35 27 70 27q24 0 61 -37l224 -233l-93 -99q-24 -24 -47 -24q-24 0 -59 24zM408 340q0 -61 39 -94t100 -33q60 0 112 35t76 98v117q-56 18 -151 18q-84 0 -130 -38t-46 -103z" />
<glyph unicode="&#xe1;" horiz-adv-x="1230" d="M84 330q0 163 116.5 257.5t309.5 94.5q150 0 223 -39v62q0 176 -239 176q-155 0 -287 -66q-39 58 -39 121q0 40 55.5 82t154.5 71t208 29q231 0 353 -112.5t122 -331.5v-348q0 -90 65 -90h52q18 -52 18 -109q0 -53 -58 -97t-147 -44q-70 0 -130.5 38t-92.5 111 q-48 -77 -127.5 -118.5t-181.5 -41.5q-165 0 -270 101t-105 254zM377 1305l223 233q37 37 63 37q34 0 68 -27q65 -55 109 -147l-263 -195q-37 -24 -59 -24q-28 0 -49 24zM408 340q0 -61 39 -94t100 -33q60 0 112 35t76 98v117q-56 18 -151 18q-84 0 -130 -38t-46 -103z" />
<glyph unicode="&#xe2;" horiz-adv-x="1230" d="M84 330q0 163 116.5 257.5t309.5 94.5q150 0 223 -39v62q0 176 -239 176q-155 0 -287 -66q-39 58 -39 121q0 40 55.5 82t154.5 71t208 29q231 0 353 -112.5t122 -331.5v-348q0 -90 65 -90h52q18 -52 18 -109q0 -53 -58 -97t-147 -44q-70 0 -130.5 38t-92.5 111 q-48 -77 -127.5 -118.5t-181.5 -41.5q-165 0 -270 101t-105 254zM280 1303q0 27 29 53l233 211h78q29 0 46.5 -7t39.5 -28l248 -223l-78 -86q-35 -41 -65 -41q-34 0 -58 28l-147 150l-180 -180q-86 39 -133 92q-13 16 -13 31zM408 340q0 -61 39 -94t100 -33q60 0 112 35 t76 98v117q-56 18 -151 18q-84 0 -130 -38t-46 -103z" />
<glyph unicode="&#xe3;" horiz-adv-x="1230" d="M84 330q0 163 116.5 257.5t309.5 94.5q150 0 223 -39v62q0 176 -239 176q-155 0 -287 -66q-39 58 -39 121q0 40 55.5 82t154.5 71t208 29q231 0 353 -112.5t122 -331.5v-348q0 -90 65 -90h52q18 -52 18 -109q0 -53 -58 -97t-147 -44q-70 0 -130.5 38t-92.5 111 q-48 -77 -127.5 -118.5t-181.5 -41.5q-165 0 -270 101t-105 254zM287 1296q0 26 8 58q24 76 71.5 115.5t110.5 39.5q77 0 135 -45q56 -43 76 -43q21 0 32 22.5t17 76.5l129 -35q31 -9 42.5 -21.5t11.5 -33.5q0 -93 -60.5 -152t-132.5 -59q-73 0 -131 45q-55 43 -78 43 q-21 0 -32 -20.5t-17 -67.5q-67 0 -135 22q-47 16 -47 55zM408 340q0 -61 39 -94t100 -33q60 0 112 35t76 98v117q-56 18 -151 18q-84 0 -130 -38t-46 -103z" />
<glyph unicode="&#xe4;" horiz-adv-x="1230" d="M84 330q0 163 116.5 257.5t309.5 94.5q150 0 223 -39v62q0 176 -239 176q-155 0 -287 -66q-39 58 -39 121q0 40 55.5 82t154.5 71t208 29q231 0 353 -112.5t122 -331.5v-348q0 -90 65 -90h52q18 -52 18 -109q0 -53 -58 -97t-147 -44q-70 0 -130.5 38t-92.5 111 q-48 -77 -127.5 -118.5t-181.5 -41.5q-165 0 -270 101t-105 254zM260 1378q0 65 39.5 104.5t101.5 39.5t107 -44t45 -114q0 -66 -39.5 -105.5t-101.5 -39.5t-107 44t-45 115zM408 340q0 -61 39 -94t100 -33q60 0 112 35t76 98v117q-56 18 -151 18q-84 0 -130 -38t-46 -103z M662 1378q0 65 39.5 104.5t101.5 39.5t106.5 -44t44.5 -114q0 -66 -39 -105.5t-102 -39.5q-62 0 -106.5 44t-44.5 115z" />
<glyph unicode="&#xe5;" horiz-adv-x="1230" d="M84 330q0 163 116.5 257.5t309.5 94.5q150 0 223 -39v62q0 176 -239 176q-155 0 -287 -66q-39 58 -39 121q0 40 55.5 82t154.5 71t208 29q231 0 353 -112.5t122 -331.5v-348q0 -90 65 -90h52q18 -52 18 -109q0 -53 -58 -97t-147 -44q-70 0 -130.5 38t-92.5 111 q-48 -77 -127.5 -118.5t-181.5 -41.5q-165 0 -270 101t-105 254zM381 1376q0 86 60 143.5t153 57.5t153 -57.5t60 -143.5q0 -87 -60 -144.5t-153 -57.5t-153 57.5t-60 144.5zM408 340q0 -61 39 -94t100 -33q60 0 112 35t76 98v117q-56 18 -151 18q-84 0 -130 -38t-46 -103z M526 1378q0 -32 20 -51.5t50 -19.5q29 0 47.5 17.5t18.5 47.5q0 32 -20 53t-50 21q-29 0 -47.5 -18.5t-18.5 -49.5z" />
<glyph unicode="&#xe6;" horiz-adv-x="1849" d="M84 330q0 163 116.5 257.5t309.5 94.5q150 0 223 -39v62q0 176 -239 176q-155 0 -287 -66q-39 58 -39 121q0 30 32.5 62t87 59t134 44t164.5 17q244 0 356 -160q137 160 375 160q201 0 326.5 -115.5t125.5 -295.5q0 -107 -40 -183q-25 -47 -63 -66.5t-107 -19.5h-494 q41 -215 305 -215q147 0 254 58q17 -23 30 -64.5t13 -71.5q0 -55 -106.5 -112.5t-262.5 -57.5q-126 0 -234.5 49.5t-180.5 135.5q-56 -86 -155 -135.5t-228 -49.5q-198 0 -307 99.5t-109 255.5zM408 340q0 -61 39 -94t100 -33q80 0 134 62t54 188q-56 18 -151 18 q-84 0 -130 -38t-46 -103zM1063 645h385q14 28 14 70q0 76 -43 117.5t-119 41.5q-100 0 -161.5 -60t-75.5 -169z" />
<glyph unicode="&#xe7;" d="M88 578q0 239 149 389.5t396 150.5q153 0 268 -59t170 -154q21 -35 21 -69q0 -47 -64 -84q-79 -47 -211 -62q-40 174 -190 174q-97 0 -155 -74t-58 -206q0 -163 98 -259t254 -96q141 0 252 62q18 -27 31.5 -67t13.5 -68q0 -47 -77.5 -99.5t-197.5 -70.5l-57 -109 q69 -13 109.5 -58.5t40.5 -107.5q0 -93 -74 -151t-191 -58q-92 0 -153 19v121q0 48 49 39q40 -9 61 -9q34 0 54 14t20 40q0 35 -29.5 52.5t-91.5 22.5q-32 16 -32 31q0 6 4 14l73 140q-209 37 -346 195.5t-137 396.5z" />
<glyph unicode="&#xe8;" horiz-adv-x="1204" d="M88 543q0 171 76 303t204.5 202t286.5 70q214 0 341.5 -115t127.5 -296q0 -106 -41 -183q-25 -47 -63.5 -66.5t-108.5 -19.5h-491q21 -111 100 -165t203 -54q151 0 256 57q17 -23 30 -62.5t13 -68.5q0 -58 -105.5 -114t-263.5 -56q-248 0 -406.5 161.5t-158.5 406.5z M379 1401q44 93 108 147q34 27 70 27q24 0 61 -37l224 -233l-93 -99q-24 -24 -47 -24q-24 0 -59 24zM418 645h383q16 29 16 70q0 76 -43 117.5t-119 41.5q-100 0 -162.5 -60t-74.5 -169z" />
<glyph unicode="&#xe9;" horiz-adv-x="1204" d="M88 543q0 171 76 303t204.5 202t286.5 70q214 0 341.5 -115t127.5 -296q0 -106 -41 -183q-25 -47 -63.5 -66.5t-108.5 -19.5h-491q21 -111 100 -165t203 -54q151 0 256 57q17 -23 30 -62.5t13 -68.5q0 -58 -105.5 -114t-263.5 -56q-248 0 -406.5 161.5t-158.5 406.5z M400 1305l223 233q37 37 63 37q34 0 68 -27q65 -55 109 -147l-263 -195q-38 -24 -59 -24q-28 0 -49 24zM418 645h383q16 29 16 70q0 76 -43 117.5t-119 41.5q-100 0 -162.5 -60t-74.5 -169z" />
<glyph unicode="&#xea;" horiz-adv-x="1204" d="M88 543q0 171 76 303t204.5 202t286.5 70q214 0 341.5 -115t127.5 -296q0 -106 -41 -183q-25 -47 -63.5 -66.5t-108.5 -19.5h-491q21 -111 100 -165t203 -54q151 0 256 57q17 -23 30 -62.5t13 -68.5q0 -58 -105.5 -114t-263.5 -56q-248 0 -406.5 161.5t-158.5 406.5z M303 1303q0 27 29 53l233 211h78q29 0 46.5 -7t39.5 -28l248 -223l-78 -86q-35 -41 -65 -41q-34 0 -58 28l-147 150l-180 -180q-87 39 -134 92q-12 15 -12 31zM418 645h383q16 29 16 70q0 76 -43 117.5t-119 41.5q-100 0 -162.5 -60t-74.5 -169z" />
<glyph unicode="&#xeb;" horiz-adv-x="1204" d="M88 543q0 171 76 303t204.5 202t286.5 70q214 0 341.5 -115t127.5 -296q0 -106 -41 -183q-25 -47 -63.5 -66.5t-108.5 -19.5h-491q21 -111 100 -165t203 -54q151 0 256 57q17 -23 30 -62.5t13 -68.5q0 -58 -105.5 -114t-263.5 -56q-248 0 -406.5 161.5t-158.5 406.5z M285 1378q0 65 39.5 104.5t101.5 39.5t107 -44t45 -114q0 -66 -39 -105.5t-102 -39.5q-62 0 -107 44t-45 115zM418 645h383q16 29 16 70q0 76 -43 117.5t-119 41.5q-100 0 -162.5 -60t-74.5 -169zM686 1378q0 65 40 104.5t102 39.5t106.5 -44t44.5 -114q0 -66 -39.5 -105.5 t-101.5 -39.5t-107 44t-45 115z" />
<glyph unicode="&#xec;" horiz-adv-x="651" d="M9 1401q44 93 108 147q34 27 70 27q24 0 61 -37l224 -233l-93 -99q-24 -24 -47 -24q-24 0 -59 24zM141 274v805q106 29 236 29q88 0 88 -72v-712q0 -91 63 -91h56q16 -53 16 -106q0 -54 -57.5 -97.5t-145.5 -43.5q-51 0 -95.5 15.5t-81.5 48t-58 90t-21 134.5z" />
<glyph unicode="&#xed;" horiz-adv-x="651" d="M123 1305l223 233q37 37 63 37q34 0 68 -27q65 -55 109 -147l-263 -195q-38 -24 -59 -24q-28 0 -49 24zM141 274v805q106 29 236 29q88 0 88 -72v-712q0 -91 63 -91h56q16 -53 16 -106q0 -54 -57.5 -97.5t-145.5 -43.5q-51 0 -95.5 15.5t-81.5 48t-58 90t-21 134.5z" />
<glyph unicode="&#xee;" horiz-adv-x="651" d="M-23 1303q0 27 29 53l233 211h78q29 0 46.5 -7t39.5 -28l248 -223l-78 -86q-35 -41 -65 -41q-34 0 -58 28l-147 150l-180 -180q-86 39 -133 92q-13 16 -13 31zM141 274v805q106 29 236 29q88 0 88 -72v-712q0 -91 63 -91h56q16 -53 16 -106q0 -54 -57.5 -97.5 t-145.5 -43.5q-51 0 -95.5 15.5t-81.5 48t-58 90t-21 134.5z" />
<glyph unicode="&#xef;" horiz-adv-x="651" d="M-43 1378q0 65 39.5 104.5t101.5 39.5t107 -44t45 -114q0 -66 -39 -105.5t-102 -39.5q-62 0 -107 44t-45 115zM141 274v805q106 29 236 29q88 0 88 -72v-712q0 -91 63 -91h56q16 -53 16 -106q0 -54 -57.5 -97.5t-145.5 -43.5q-51 0 -95.5 15.5t-81.5 48t-58 90t-21 134.5 zM358 1378q0 65 40 104.5t102 39.5t106.5 -44t44.5 -114q0 -66 -39.5 -105.5t-101.5 -39.5t-107 44t-45 115z" />
<glyph unicode="&#xf0;" horiz-adv-x="1271" d="M80 440q0 122 41 225t110 171.5t160.5 106.5t192.5 38q156 0 262 -92q-3 146 -45 217l-94 -59q-54 -33 -89 14q-28 39 -40 96l127 80q-60 41 -160 41q-141 0 -258 -57q-20 25 -31.5 63t-11.5 70q0 38 52 77t137.5 64t174.5 25q238 0 361 -123l86 51q36 21 59 -14l62 -101 l-109 -65q107 -190 107 -563q0 -349 -154 -539.5t-438 -190.5q-221 0 -361.5 132t-140.5 333zM403 440q0 -98 55 -155.5t142 -57.5q110 0 179 109t69 309q-35 39 -87.5 60.5t-107.5 21.5q-111 0 -180.5 -78t-69.5 -209z" />
<glyph unicode="&#xf1;" horiz-adv-x="1327" d="M141 59v1022q115 27 236 27q90 0 90 -72v-59q58 66 143.5 103.5t173.5 37.5q177 0 273 -118.5t96 -346.5v-327q0 -90 66 -90h53q18 -63 18 -109q0 -53 -58.5 -97t-146.5 -44q-51 0 -95.5 15.5t-81.5 48t-58 90t-21 134.5v396q0 99 -39.5 146.5t-125.5 47.5 q-51 0 -104.5 -20t-92.5 -56v-788h-252q-74 0 -74 59zM328 1296q0 26 8 58q24 76 71.5 115.5t110.5 39.5q77 0 135 -45q56 -43 76 -43q21 0 32 22.5t17 76.5l129 -35q31 -9 42.5 -21.5t11.5 -33.5q0 -93 -60.5 -152t-132.5 -59q-73 0 -131 45q-55 43 -78 43q-21 0 -32 -20.5 t-17 -67.5q-67 0 -135 22q-47 16 -47 55z" />
<glyph unicode="&#xf2;" horiz-adv-x="1308" d="M88 547q0 133 46 242.5t124.5 180.5t180 109.5t214.5 38.5t214.5 -38.5t180.5 -109.5t125 -180.5t46 -242.5t-46.5 -243t-125 -181t-180 -109.5t-214.5 -38.5t-214.5 38.5t-180 110t-124.5 181t-46 242.5zM381 1401q44 93 108 147q35 27 70 27q24 0 61 -37l224 -233 l-93 -99q-24 -24 -47 -24q-24 0 -59 24zM414 557q0 -153 69.5 -240.5t178.5 -87.5q104 0 167.5 78.5t63.5 229.5q0 153 -69.5 240t-178.5 87q-104 0 -167.5 -78t-63.5 -229z" />
<glyph unicode="&#xf3;" horiz-adv-x="1308" d="M88 547q0 133 46 242.5t124.5 180.5t180 109.5t214.5 38.5t214.5 -38.5t180.5 -109.5t125 -180.5t46 -242.5t-46.5 -243t-125 -181t-180 -109.5t-214.5 -38.5t-214.5 38.5t-180 110t-124.5 181t-46 242.5zM414 557q0 -153 69.5 -240.5t178.5 -87.5q104 0 167.5 78.5 t63.5 229.5q0 153 -69.5 240t-178.5 87q-104 0 -167.5 -78t-63.5 -229zM443 1305l223 233q37 37 63 37q34 0 68 -27q65 -55 109 -147l-263 -195q-37 -24 -59 -24q-28 0 -49 24z" />
<glyph unicode="&#xf4;" horiz-adv-x="1308" d="M88 547q0 133 46 242.5t124.5 180.5t180 109.5t214.5 38.5t214.5 -38.5t180.5 -109.5t125 -180.5t46 -242.5t-46.5 -243t-125 -181t-180 -109.5t-214.5 -38.5t-214.5 38.5t-180 110t-124.5 181t-46 242.5zM327 1303q0 27 29 53l233 211h78q29 0 46.5 -7t39.5 -28 l248 -223l-78 -86q-35 -41 -65 -41q-34 0 -58 28l-147 150l-180 -180q-86 39 -133 92q-13 16 -13 31zM414 557q0 -153 69.5 -240.5t178.5 -87.5q104 0 167.5 78.5t63.5 229.5q0 153 -69.5 240t-178.5 87q-104 0 -167.5 -78t-63.5 -229z" />
<glyph unicode="&#xf5;" horiz-adv-x="1308" d="M88 547q0 133 46 242.5t124.5 180.5t180 109.5t214.5 38.5t214.5 -38.5t180.5 -109.5t125 -180.5t46 -242.5t-46.5 -243t-125 -181t-180 -109.5t-214.5 -38.5t-214.5 38.5t-180 110t-124.5 181t-46 242.5zM334 1296q0 26 8 58q24 76 71.5 115.5t110.5 39.5q77 0 135 -45 q56 -43 76 -43q21 0 32 22.5t17 76.5l129 -35q31 -9 42 -21.5t11 -33.5q0 -93 -60 -152t-132 -59q-73 0 -131 45q-55 43 -78 43q-21 0 -32 -20.5t-17 -67.5q-67 0 -135 22q-47 16 -47 55zM414 557q0 -153 69.5 -240.5t178.5 -87.5q104 0 167.5 78.5t63.5 229.5 q0 153 -69.5 240t-178.5 87q-104 0 -167.5 -78t-63.5 -229z" />
<glyph unicode="&#xf6;" horiz-adv-x="1308" d="M88 547q0 133 46 242.5t124.5 180.5t180 109.5t214.5 38.5t214.5 -38.5t180.5 -109.5t125 -180.5t46 -242.5t-46.5 -243t-125 -181t-180 -109.5t-214.5 -38.5t-214.5 38.5t-180 110t-124.5 181t-46 242.5zM307 1378q0 65 40 104.5t102 39.5t106.5 -44t44.5 -114 q0 -66 -39 -105.5t-102 -39.5q-62 0 -107 44t-45 115zM414 557q0 -153 69.5 -240.5t178.5 -87.5q104 0 167.5 78.5t63.5 229.5q0 153 -69.5 240t-178.5 87q-104 0 -167.5 -78t-63.5 -229zM709 1378q0 65 39.5 104.5t101.5 39.5t106.5 -44t44.5 -114q0 -66 -39.5 -105.5 t-101.5 -39.5t-106.5 44t-44.5 115z" />
<glyph unicode="&#xf7;" horiz-adv-x="1290" d="M141 633q0 84 25 170h913q70 0 70 -66v-180h-940q-68 0 -68 76zM485 291q0 73 43.5 116.5t112.5 43.5q67 0 116.5 -49t49.5 -126q0 -71 -44 -114t-112 -43q-67 0 -116.5 47.5t-49.5 124.5zM485 1083q0 71 44 114.5t112 43.5q67 0 116.5 -47.5t49.5 -124.5 q0 -73 -43.5 -116.5t-112.5 -43.5q-67 0 -116.5 48.5t-49.5 125.5z" />
<glyph unicode="&#xf8;" horiz-adv-x="1308" d="M87.5 18q-12.5 18 8.5 41l111 121q-119 148 -119 367q0 133 46 242.5t124.5 180.5t180 109.5t214.5 38.5q188 0 328 -96l68 72h116q41 0 54 -18.5t-9 -41.5l-110 -121q119 -151 119 -366q0 -133 -46.5 -243t-125 -181t-180 -109.5t-214.5 -38.5q-184 0 -329 97l-66 -72 h-117q-41 0 -53.5 18zM414 557q0 -63 18 -133l359 389q-63 51 -146 51q-104 0 -167.5 -78t-63.5 -229zM516 281q61 -52 146 -52q104 0 167.5 78.5t63.5 229.5q0 75 -21 131z" />
<glyph unicode="&#xf9;" horiz-adv-x="1275" d="M129 467v614q111 27 233 27q91 0 91 -72v-581q0 -101 49.5 -158t134.5 -57q84 0 135 57.5t51 157.5v639h250q74 0 74 -60v-567q0 -226 -140 -358t-370 -132t-369 132t-139 358zM365 1401q44 93 108 147q35 27 70 27q24 0 61 -37l224 -233l-93 -99q-24 -24 -47 -24 q-24 0 -59 24z" />
<glyph unicode="&#xfa;" horiz-adv-x="1275" d="M129 467v614q111 27 233 27q91 0 91 -72v-581q0 -101 49.5 -158t134.5 -57q84 0 135 57.5t51 157.5v639h250q74 0 74 -60v-567q0 -226 -140 -358t-370 -132t-369 132t-139 358zM426 1305l223 233q37 37 63 37q34 0 68 -27q65 -55 109 -147l-263 -195q-37 -24 -59 -24 q-28 0 -49 24z" />
<glyph unicode="&#xfb;" horiz-adv-x="1275" d="M129 467v614q111 27 233 27q91 0 91 -72v-581q0 -101 49.5 -158t134.5 -57q84 0 135 57.5t51 157.5v639h250q74 0 74 -60v-567q0 -226 -140 -358t-370 -132t-369 132t-139 358zM309 1303q0 27 29 53l233 211h78q29 0 46.5 -7t39.5 -28l248 -223l-78 -86q-35 -41 -65 -41 q-34 0 -58 28l-147 150l-180 -180q-86 39 -133 92q-13 16 -13 31z" />
<glyph unicode="&#xfc;" horiz-adv-x="1275" d="M129 467v614q111 27 233 27q91 0 91 -72v-581q0 -101 49.5 -158t134.5 -57q84 0 135 57.5t51 157.5v639h250q74 0 74 -60v-567q0 -226 -140 -358t-370 -132t-369 132t-139 358zM291 1378q0 65 39.5 104.5t101.5 39.5t107 -44t45 -114q0 -66 -39.5 -105.5t-102.5 -39.5 q-62 0 -106.5 44t-44.5 115zM692 1378q0 65 40 104.5t102 39.5t106.5 -44t44.5 -114q0 -66 -39.5 -105.5t-101.5 -39.5t-107 44t-45 115z" />
<glyph unicode="&#xfd;" horiz-adv-x="1292" d="M137 432v641q111 27 236 27q88 0 88 -72v-604q0 -97 42.5 -147t121.5 -50q105 0 200 76v791h250q74 0 74 -60v-1022q0 -105 -35.5 -197t-104.5 -165t-182.5 -115.5t-257.5 -42.5q-192 0 -305.5 81.5t-113.5 207.5q0 75 44 140t125 104q-182 101 -182 407zM435 1305 l223 233q37 37 63 37q34 0 68 -27q65 -55 109 -147l-263 -195q-37 -24 -59 -24q-28 0 -49 24zM471 -162q0 -45 32 -72.5t91 -27.5q102 0 166.5 69t64.5 193v117q-103 -115 -247 -133q-57 -19 -82 -59t-25 -87z" />
<glyph unicode="&#xfe;" horiz-adv-x="1331" d="M141 -336v1817q103 28 236 28q88 0 88 -71v-473q123 153 319 153q198 0 327.5 -145t129.5 -383q0 -139 -43 -257t-115 -195t-165 -120t-193 -43q-163 0 -260 78v-448h-250q-74 0 -74 59zM465 289q65 -62 172 -62q122 0 200 100t78 255q0 137 -55.5 209.5t-161.5 72.5 q-74 0 -136.5 -49.5t-96.5 -142.5v-383z" />
<glyph unicode="&#xff;" horiz-adv-x="1292" d="M137 432v641q111 27 236 27q88 0 88 -72v-604q0 -97 42.5 -147t121.5 -50q105 0 200 76v791h250q74 0 74 -60v-1022q0 -105 -35.5 -197t-104.5 -165t-182.5 -115.5t-257.5 -42.5q-192 0 -305.5 81.5t-113.5 207.5q0 75 44 140t125 104q-182 101 -182 407zM297 1378 q0 65 39.5 104.5t101.5 39.5t107 -44t45 -114q0 -66 -39 -105.5t-102 -39.5q-62 0 -107 44t-45 115zM471 -162q0 -45 32 -72.5t91 -27.5q102 0 166.5 69t64.5 193v117q-103 -115 -247 -133q-57 -19 -82 -59t-25 -87zM698 1378q0 65 40 104.5t102 39.5t106.5 -44t44.5 -114 q0 -66 -39.5 -105.5t-101.5 -39.5t-107 44t-45 115z" />
<glyph unicode="&#x100;" horiz-adv-x="1431" d="M47 72l481 1325q118 51 246 51q66 0 96 -20t50 -76l489 -1352h-287q-42 0 -62.5 12.5t-29.5 40.5l-69 217h-490l-86 -270h-276q-34 0 -53 20.5t-9 51.5zM420 1683q0 63 20 125h512q56 0 56 -69v-129h-523q-65 0 -65 73zM553 535h326l-164 505z" />
<glyph unicode="&#x101;" horiz-adv-x="1230" d="M84 330q0 163 116.5 257.5t309.5 94.5q150 0 223 -39v62q0 176 -239 176q-155 0 -287 -66q-39 58 -39 121q0 40 55.5 82t154.5 71t208 29q231 0 353 -112.5t122 -331.5v-348q0 -90 65 -90h52q18 -52 18 -109q0 -53 -58 -97t-147 -44q-70 0 -130.5 38t-92.5 111 q-48 -77 -127.5 -118.5t-181.5 -41.5q-165 0 -270 101t-105 254zM311 1339q0 60 21 125h512q55 0 55 -69v-129h-522q-66 0 -66 73zM408 340q0 -61 39 -94t100 -33q60 0 112 35t76 98v117q-56 18 -151 18q-84 0 -130 -38t-46 -103z" />
<glyph unicode="&#x102;" horiz-adv-x="1431" d="M47 72l481 1325q118 51 246 51q66 0 96 -20t50 -76l489 -1352h-287q-42 0 -62.5 12.5t-29.5 40.5l-69 217h-490l-86 -270h-276q-34 0 -53 20.5t-9 51.5zM401 1851q29 22 73 36t81 14q30 0 44.5 -10.5t18.5 -37.5q20 -116 101 -116q48 0 72.5 37.5t27.5 123.5h150 q35 0 48 -11t11 -36q-12 -133 -93.5 -210.5t-217.5 -77.5q-124 0 -209.5 70.5t-106.5 217.5zM553 535h326l-164 505z" />
<glyph unicode="&#x103;" horiz-adv-x="1230" d="M84 330q0 163 116.5 257.5t309.5 94.5q150 0 223 -39v62q0 176 -239 176q-155 0 -287 -66q-39 58 -39 121q0 40 55.5 82t154.5 71t208 29q231 0 353 -112.5t122 -331.5v-348q0 -90 65 -90h52q18 -52 18 -109q0 -53 -58 -97t-147 -44q-70 0 -130.5 38t-92.5 111 q-48 -77 -127.5 -118.5t-181.5 -41.5q-165 0 -270 101t-105 254zM291 1493q29 22 72.5 35.5t80.5 13.5q30 0 45 -10t19 -37q20 -117 100 -117q48 0 73 38t28 124h149q35 0 48.5 -11.5t11.5 -35.5q-12 -133 -94 -211t-218 -78q-124 0 -209 71t-106 218zM408 340q0 -61 39 -94 t100 -33q60 0 112 35t76 98v117q-56 18 -151 18q-84 0 -130 -38t-46 -103z" />
<glyph unicode="&#x104;" horiz-adv-x="1431" d="M47 72l481 1325q118 51 246 51q66 0 96 -20t50 -76l489 -1352q-66 -47 -103.5 -105.5t-37.5 -113.5q0 -35 22 -55.5t62 -20.5q27 0 59 8q19 5 31 -5t12 -34v-116q-59 -35 -168 -35q-115 0 -183.5 60t-68.5 157q0 72 42.5 144t113.5 116h-68q-42 0 -62.5 12.5t-29.5 40.5 l-69 217h-490l-86 -270h-276q-34 0 -53 20.5t-9 51.5zM553 535h326l-164 505z" />
<glyph unicode="&#x105;" horiz-adv-x="1230" d="M84 330q0 163 116.5 257.5t309.5 94.5q150 0 223 -39v62q0 176 -239 176q-155 0 -287 -66q-39 58 -39 121q0 40 55.5 82t154.5 71t208 29q231 0 353 -112.5t122 -331.5v-348q0 -90 65 -90h52q18 -52 18 -109q0 -38 -33.5 -74.5t-89.5 -54.5q-135 -104 -135 -217 q0 -35 22 -55.5t62 -20.5q31 0 49 6q53 19 53 -39v-116q-56 -33 -166 -33q-117 0 -184 59t-67 156q0 74 44.5 150t129.5 124q-79 42 -113 123q-48 -77 -127.5 -118.5t-181.5 -41.5q-165 0 -270 101t-105 254zM408 340q0 -61 39 -94t100 -33q60 0 112 35t76 98v117 q-56 18 -151 18q-84 0 -130 -38t-46 -103z" />
<glyph unicode="&#x106;" horiz-adv-x="1437" d="M98 754q0 159 52.5 292t143.5 222.5t217 139.5t271 50q197 0 345 -79t221 -212q18 -35 18 -71q0 -50 -59 -86q-96 -57 -232 -64q-42 116 -120 175t-183 59q-145 0 -238.5 -112t-93.5 -308q0 -229 136 -367.5t360 -138.5q196 0 332 76q21 -28 36 -72.5t15 -79.5 q0 -43 -61 -90t-169 -80t-225 -33q-217 0 -391 96t-274.5 274.5t-100.5 408.5zM547 1661l223 233q37 37 63 37q34 0 68 -27q65 -55 109 -147l-263 -195q-38 -24 -59 -24q-28 0 -49 24z" />
<glyph unicode="&#x107;" d="M88 578q0 239 149 389.5t396 150.5q153 0 268 -59t170 -154q21 -35 21 -69q0 -47 -64 -84q-79 -47 -211 -62q-40 174 -190 174q-97 0 -155 -74t-58 -206q0 -163 98 -259t254 -96q141 0 252 62q18 -27 31.5 -67t13.5 -68q0 -26 -27.5 -57t-74.5 -59t-121 -46.5t-156 -18.5 q-120 0 -228 42.5t-189.5 119t-130 191.5t-48.5 250zM389 1305l223 233q37 37 63 37q34 0 68 -27q65 -55 109 -147l-263 -195q-38 -24 -59 -24q-28 0 -49 24z" />
<glyph unicode="&#x108;" horiz-adv-x="1437" d="M98 754q0 159 52.5 292t143.5 222.5t217 139.5t271 50q197 0 345 -79t221 -212q18 -35 18 -71q0 -50 -59 -86q-96 -57 -232 -64q-42 116 -120 175t-183 59q-145 0 -238.5 -112t-93.5 -308q0 -229 136 -367.5t360 -138.5q196 0 332 76q21 -28 36 -72.5t15 -79.5 q0 -43 -61 -90t-169 -80t-225 -33q-217 0 -391 96t-274.5 274.5t-100.5 408.5zM440 1659q0 27 29 53l233 211h78q29 0 46.5 -7t39.5 -28l248 -223l-78 -86q-35 -41 -65 -41q-34 0 -58 28l-147 150l-180 -180q-86 39 -133 92q-13 16 -13 31z" />
<glyph unicode="&#x109;" d="M88 578q0 239 149 389.5t396 150.5q153 0 268 -59t170 -154q21 -35 21 -69q0 -47 -64 -84q-79 -47 -211 -62q-40 174 -190 174q-97 0 -155 -74t-58 -206q0 -163 98 -259t254 -96q141 0 252 62q18 -27 31.5 -67t13.5 -68q0 -26 -27.5 -57t-74.5 -59t-121 -46.5t-156 -18.5 q-120 0 -228 42.5t-189.5 119t-130 191.5t-48.5 250zM278 1303q0 27 29 53l233 211h78q29 0 46.5 -7t39.5 -28l248 -223l-78 -86q-35 -41 -65 -41q-34 0 -58 28l-147 150l-180 -180q-86 39 -133 92q-13 16 -13 31z" />
<glyph unicode="&#x10a;" horiz-adv-x="1437" d="M98 754q0 159 52.5 292t143.5 222.5t217 139.5t271 50q197 0 345 -79t221 -212q18 -35 18 -71q0 -50 -59 -86q-96 -57 -232 -64q-42 116 -120 175t-183 59q-145 0 -238.5 -112t-93.5 -308q0 -229 136 -367.5t360 -138.5q196 0 332 76q21 -28 36 -72.5t15 -79.5 q0 -43 -61 -90t-169 -80t-225 -33q-217 0 -391 96t-274.5 274.5t-100.5 408.5zM618 1735q0 65 40 104t102 39t107.5 -44t45.5 -114q0 -66 -39.5 -105.5t-101.5 -39.5q-63 0 -108.5 44.5t-45.5 115.5z" />
<glyph unicode="&#x10b;" d="M88 578q0 239 149 389.5t396 150.5q153 0 268 -59t170 -154q21 -35 21 -69q0 -47 -64 -84q-79 -47 -211 -62q-40 174 -190 174q-97 0 -155 -74t-58 -206q0 -163 98 -259t254 -96q141 0 252 62q18 -27 31.5 -67t13.5 -68q0 -26 -27.5 -57t-74.5 -59t-121 -46.5t-156 -18.5 q-120 0 -228 42.5t-189.5 119t-130 191.5t-48.5 250zM467 1378q0 65 39.5 104.5t101.5 39.5t108 -44t46 -114q0 -66 -39 -105.5t-102 -39.5t-108.5 44t-45.5 115z" />
<glyph unicode="&#x10c;" horiz-adv-x="1437" d="M98 754q0 159 52.5 292t143.5 222.5t217 139.5t271 50q197 0 345 -79t221 -212q18 -35 18 -71q0 -50 -59 -86q-96 -57 -232 -64q-42 116 -120 175t-183 59q-145 0 -238.5 -112t-93.5 -308q0 -229 136 -367.5t360 -138.5q196 0 332 76q21 -28 36 -72.5t15 -79.5 q0 -43 -61 -90t-169 -80t-225 -33q-217 0 -391 96t-274.5 274.5t-100.5 408.5zM455 1784q30 63 66.5 101t64.5 38q26 0 55 -29l150 -149l186 186l96 -90q33 -30 33 -53q0 -22 -31 -49l-221 -201h-80q-45 0 -86 35z" />
<glyph unicode="&#x10d;" d="M88 578q0 239 149 389.5t396 150.5q153 0 268 -59t170 -154q21 -35 21 -69q0 -47 -64 -84q-79 -47 -211 -62q-40 174 -190 174q-97 0 -155 -74t-58 -206q0 -163 98 -259t254 -96q141 0 252 62q18 -27 31.5 -67t13.5 -68q0 -26 -27.5 -57t-74.5 -59t-121 -46.5t-156 -18.5 q-120 0 -228 42.5t-189.5 119t-130 191.5t-48.5 250zM281 1427q30 64 66.5 102t64.5 38q26 0 55 -29l149 -149l187 186l96 -90q33 -30 33 -53t-31 -50l-221 -200h-80q-45 0 -86 35z" />
<glyph unicode="&#x10e;" horiz-adv-x="1497" d="M156 461v973h553q148 0 274.5 -50t218.5 -141.5t144.5 -227t52.5 -298.5q0 -164 -52.5 -299t-146 -226.5t-223 -141.5t-281.5 -50h-118q-217 0 -319.5 111t-102.5 350zM332 1783q30 64 66.5 102t64.5 38q27 0 56 -29l149 -149l186 186l97 -90q32 -29 32 -53t-30 -50 l-221 -200h-80q-45 0 -86 35zM498 485q0 -116 33 -161t114 -45h45q166 0 265.5 111.5t99.5 326.5t-99.5 326.5t-265.5 111.5h-192v-670z" />
<glyph unicode="&#x10f;" horiz-adv-x="1691" d="M88 500q0 113 28 212.5t77 172.5t114 126.5t141 80t156 26.5q161 0 258 -100v477h252q74 0 74 -61v-1108q0 -90 67 -90h52q16 -56 16 -109t-58 -97t-147 -44q-78 0 -143.5 46.5t-93.5 135.5q-59 -96 -148 -144.5t-190 -48.5q-196 0 -325.5 145t-129.5 380zM414 508 q0 -135 56 -208t161 -73q72 0 134.5 49.5t96.5 141.5v385q-65 59 -172 59q-120 0 -198 -99.5t-78 -254.5zM1321 971q47 42 81 95.5t44 104.5q-53 18 -87 65t-34 112q0 78 47.5 125t122.5 47q73 0 126.5 -52t53.5 -139q0 -178 -119 -321q-51 -59 -105 -90t-75 -21 q-41 20 -55 74z" />
<glyph unicode="&#x110;" horiz-adv-x="1497" d="M14 684q0 68 15 115h127v635h553q148 0 274.5 -50t218 -141.5t143.5 -227t52 -298.5q0 -218 -90.5 -382t-249 -249.5t-363.5 -85.5h-119q-228 0 -323.5 108t-95.5 373v152h-84q-58 0 -58 51zM496 483q0 -121 37 -164t131 -43h26q166 0 264.5 112.5t98.5 328.5 q0 215 -98.5 326.5t-264.5 111.5h-194v-356h249q52 0 52 -66v-100h-301v-150z" />
<glyph unicode="&#x111;" horiz-adv-x="1366" d="M88 500q0 113 28 212.5t77 172.5t114 126.5t141 80t156 26.5q161 0 258 -100v190h-260q-55 0 -55 52q0 64 12 114h303v121h252q74 0 74 -61v-60h72q27 0 39 -15t12 -50v-101h-123v-882q0 -90 67 -90h52q16 -56 16 -109t-58 -97t-147 -44q-78 0 -143.5 46.5t-93.5 135.5 q-59 -96 -148 -144.5t-190 -48.5q-196 0 -325.5 145t-129.5 380zM414 508q0 -135 56 -208t161 -73q72 0 134.5 49.5t96.5 141.5v385q-65 59 -172 59q-120 0 -198 -99.5t-78 -254.5z" />
<glyph unicode="&#x112;" horiz-adv-x="1200" d="M156 479v955h862q67 0 67 -80q0 -103 -22 -199h-567v-303h419q60 0 60 -74v-203h-479v-92q0 -115 32 -161t105 -46h409q60 0 60 -73v-203h-506q-162 0 -256 44.5t-139 148.5t-45 286zM317 1698q0 60 21 125h512q55 0 55 -70v-129h-522q-66 0 -66 74z" />
<glyph unicode="&#x113;" horiz-adv-x="1204" d="M88 543q0 171 76 303t204.5 202t286.5 70q214 0 341.5 -115t127.5 -296q0 -106 -41 -183q-25 -47 -63.5 -66.5t-108.5 -19.5h-491q21 -111 100 -165t203 -54q151 0 256 57q17 -23 30 -62.5t13 -68.5q0 -58 -105.5 -114t-263.5 -56q-248 0 -406.5 161.5t-158.5 406.5z M346 1339q0 60 21 125h512q55 0 55 -69v-129h-522q-66 0 -66 73zM418 645h383q16 29 16 70q0 76 -43 117.5t-119 41.5q-100 0 -162.5 -60t-74.5 -169z" />
<glyph unicode="&#x114;" horiz-adv-x="1200" d="M156 479v955h862q67 0 67 -80q0 -103 -22 -199h-567v-303h419q60 0 60 -74v-203h-479v-92q0 -115 32 -161t105 -46h409q60 0 60 -73v-203h-506q-162 0 -256 44.5t-139 148.5t-45 286zM295 1851q29 22 73 36t81 14q30 0 44.5 -10.5t18.5 -37.5q20 -116 100 -116 q49 0 73.5 37.5t27.5 123.5h149q35 0 48.5 -11.5t11.5 -35.5q-12 -133 -94 -210.5t-218 -77.5q-124 0 -209 70.5t-106 217.5z" />
<glyph unicode="&#x115;" horiz-adv-x="1204" d="M88 543q0 171 76 303t204.5 202t286.5 70q214 0 341.5 -115t127.5 -296q0 -106 -41 -183q-25 -47 -63.5 -66.5t-108.5 -19.5h-491q21 -111 100 -165t203 -54q151 0 256 57q17 -23 30 -62.5t13 -68.5q0 -58 -105.5 -114t-263.5 -56q-248 0 -406.5 161.5t-158.5 406.5z M326 1493q29 22 72.5 35.5t80.5 13.5q30 0 45 -10t19 -37q20 -117 100 -117q48 0 72.5 38t27.5 124h150q35 0 48 -11t11 -36q-12 -133 -93.5 -211t-217.5 -78q-124 0 -209 71t-106 218zM418 645h383q16 29 16 70q0 76 -43 117.5t-119 41.5q-100 0 -162.5 -60t-74.5 -169z " />
<glyph unicode="&#x116;" horiz-adv-x="1200" d="M156 479v955h862q67 0 67 -80q0 -103 -22 -199h-567v-303h419q60 0 60 -74v-203h-479v-92q0 -115 32 -161t105 -46h409q60 0 60 -73v-203h-506q-162 0 -256 44.5t-139 148.5t-45 286zM463 1735q0 65 39.5 104t101.5 39t108 -44t46 -114q0 -66 -39.5 -105.5t-102.5 -39.5 q-62 0 -107.5 44.5t-45.5 115.5z" />
<glyph unicode="&#x117;" horiz-adv-x="1204" d="M88 543q0 171 76 303t204.5 202t286.5 70q214 0 341.5 -115t127.5 -296q0 -106 -41 -183q-25 -47 -63.5 -66.5t-108.5 -19.5h-491q21 -111 100 -165t203 -54q151 0 256 57q17 -23 30 -62.5t13 -68.5q0 -58 -105.5 -114t-263.5 -56q-248 0 -406.5 161.5t-158.5 406.5z M418 645h383q16 29 16 70q0 76 -43 117.5t-119 41.5q-100 0 -162.5 -60t-74.5 -169zM492 1378q0 65 39.5 104.5t101.5 39.5t107.5 -44t45.5 -114q0 -66 -39 -105.5t-102 -39.5t-108 44t-45 115z" />
<glyph unicode="&#x118;" horiz-adv-x="1200" d="M156 461v973h864q65 0 65 -80q0 -94 -20 -199h-567v-301h420q57 0 57 -74v-205h-477v-90q0 -118 29 -162t108 -44h409q58 0 58 -74v-205h-70q-66 -47 -103.5 -105.5t-37.5 -113.5q0 -35 22 -55.5t62 -20.5q31 0 49 6q24 9 38.5 -0.5t14.5 -38.5v-116q-56 -33 -168 -33 q-116 0 -184 59.5t-68 155.5q0 72 42.5 144.5t113.5 117.5h-235q-217 0 -319.5 111t-102.5 350z" />
<glyph unicode="&#x119;" horiz-adv-x="1204" d="M88 543q0 171 76 303t204.5 202t286.5 70q214 0 341.5 -115t127.5 -296q0 -106 -41 -183q-25 -47 -63.5 -66.5t-108.5 -19.5h-491q21 -111 100 -165t203 -54q151 0 256 57q17 -23 30 -62.5t13 -68.5q0 -35 -45.5 -74.5t-124.5 -66.5q-73 -50 -110 -109.5t-37 -113.5 q0 -36 22 -56t61 -20q30 0 48 6q53 19 53 -39v-116q-56 -33 -166 -33q-116 0 -184 59.5t-68 155.5q0 63 33 129t88 113q-225 20 -364.5 176.5t-139.5 386.5zM418 645h383q16 29 16 70q0 76 -43 117.5t-119 41.5q-100 0 -162.5 -60t-74.5 -169z" />
<glyph unicode="&#x11a;" horiz-adv-x="1200" d="M156 479v955h862q67 0 67 -80q0 -103 -22 -199h-567v-303h419q60 0 60 -74v-203h-479v-92q0 -115 32 -161t105 -46h409q60 0 60 -73v-203h-506q-162 0 -256 44.5t-139 148.5t-45 286zM289 1783q30 64 66.5 102t64.5 38q27 0 56 -29l149 -149l186 186l97 -90 q32 -29 32 -53t-30 -50l-221 -200h-80q-45 0 -86 35z" />
<glyph unicode="&#x11b;" horiz-adv-x="1204" d="M88 543q0 171 76 303t204.5 202t286.5 70q214 0 341.5 -115t127.5 -296q0 -106 -41 -183q-25 -47 -63.5 -66.5t-108.5 -19.5h-491q21 -111 100 -165t203 -54q151 0 256 57q17 -23 30 -62.5t13 -68.5q0 -58 -105.5 -114t-263.5 -56q-248 0 -406.5 161.5t-158.5 406.5z M307 1427q30 64 66.5 102t64.5 38q27 0 56 -29l149 -149l186 186l97 -90q32 -29 32 -53t-30 -50l-221 -200h-80q-45 0 -86 35zM418 645h383q16 29 16 70q0 76 -43 117.5t-119 41.5q-100 0 -162.5 -60t-74.5 -169z" />
<glyph unicode="&#x11c;" horiz-adv-x="1556" d="M96 754q0 211 91 372t251 246.5t363 85.5q194 0 345.5 -78t229.5 -204q21 -35 21 -70q0 -42 -47 -74q-42 -30 -110 -50.5t-134 -23.5q-44 104 -123.5 162t-187.5 58q-157 0 -256 -110t-99 -308q0 -114 35.5 -210t95.5 -159.5t138.5 -99t164.5 -35.5q107 0 156 36.5 t49 108.5v121h-207q-34 0 -52.5 21t-18.5 61q0 78 22 168h490q56 0 82 -25t26 -81v-238q0 -96 -33 -176t-99.5 -143t-177.5 -98.5t-257 -35.5q-157 0 -296 56t-241.5 155.5t-161.5 246.5t-59 321zM453 1659q0 28 28 53l234 211h78q29 0 46.5 -7t39.5 -28l247 -223l-77 -86 q-35 -41 -66 -41q-32 0 -57 29l-148 149l-180 -180q-86 39 -133 92q-12 15 -12 31z" />
<glyph unicode="&#x11d;" horiz-adv-x="1331" d="M88 502q0 140 43 258t115 195t165 120t193 43q161 0 258 -100v76h252q74 0 74 -62v-1007q0 -105 -41.5 -200t-118.5 -169t-196.5 -118t-264.5 -44q-213 0 -328.5 82.5t-115.5 212.5q0 76 52 142.5t149 101.5q-109 63 -172.5 185.5t-63.5 283.5zM369 1303q0 28 28 53 l234 211h78q29 0 46.5 -7t39.5 -28l247 -223l-77 -86q-35 -41 -66 -41q-33 0 -57 28l-148 150l-180 -180q-86 39 -133 92q-12 15 -12 31zM414 510q0 -135 56 -208t161 -73q73 0 135 49t96 142v383q-65 59 -172 59q-120 0 -198 -98.5t-78 -253.5zM446 -160q0 -46 36.5 -73 t103.5 -27q119 0 197.5 73.5t78.5 200.5v129q-110 -161 -336 -161q-80 -56 -80 -142z" />
<glyph unicode="&#x11e;" horiz-adv-x="1556" d="M96 754q0 211 91 372t251 246.5t363 85.5q194 0 345.5 -78t229.5 -204q21 -35 21 -70q0 -42 -47 -74q-42 -30 -110 -50.5t-134 -23.5q-44 104 -123.5 162t-187.5 58q-157 0 -256 -110t-99 -308q0 -114 35.5 -210t95.5 -159.5t138.5 -99t164.5 -35.5q107 0 156 36.5 t49 108.5v121h-207q-34 0 -52.5 21t-18.5 61q0 78 22 168h490q56 0 82 -25t26 -81v-238q0 -96 -33 -176t-99.5 -143t-177.5 -98.5t-257 -35.5q-157 0 -296 56t-241.5 155.5t-161.5 246.5t-59 321zM463 1851q29 22 72.5 35.5t80.5 13.5q30 0 45 -10t19 -37q20 -117 100 -117 q48 0 72.5 38t27.5 124h150q35 0 48 -11t11 -36q-12 -133 -93.5 -211t-217.5 -78q-124 0 -209 71t-106 218z" />
<glyph unicode="&#x11f;" horiz-adv-x="1331" d="M88 502q0 140 43 258t115 195t165 120t193 43q161 0 258 -100v76h252q74 0 74 -62v-1007q0 -105 -41.5 -200t-118.5 -169t-196.5 -118t-264.5 -44q-213 0 -328.5 82.5t-115.5 212.5q0 76 52 142.5t149 101.5q-109 63 -172.5 185.5t-63.5 283.5zM379 1493q29 22 72.5 35.5 t80.5 13.5q30 0 45 -10t19 -37q20 -117 100 -117q48 0 72.5 38t27.5 124h150q35 0 48 -11t11 -36q-12 -133 -93.5 -211t-217.5 -78q-124 0 -209 71t-106 218zM414 510q0 -135 56 -208t161 -73q73 0 135 49t96 142v383q-65 59 -172 59q-120 0 -198 -98.5t-78 -253.5z M446 -160q0 -46 36.5 -73t103.5 -27q119 0 197.5 73.5t78.5 200.5v129q-110 -161 -336 -161q-80 -56 -80 -142z" />
<glyph unicode="&#x120;" horiz-adv-x="1556" d="M96 754q0 211 91 372t251 246.5t363 85.5q194 0 345.5 -78t229.5 -204q21 -35 21 -70q0 -42 -47 -74q-42 -30 -110 -50.5t-134 -23.5q-44 104 -123.5 162t-187.5 58q-157 0 -256 -110t-99 -308q0 -114 35.5 -210t95.5 -159.5t138.5 -99t164.5 -35.5q107 0 156 36.5 t49 108.5v121h-207q-34 0 -52.5 21t-18.5 61q0 78 22 168h490q56 0 82 -25t26 -81v-238q0 -96 -33 -176t-99.5 -143t-177.5 -98.5t-257 -35.5q-157 0 -296 56t-241.5 155.5t-161.5 246.5t-59 321zM625 1735q0 65 39.5 104t101.5 39t108 -44t46 -114q0 -66 -39.5 -105.5 t-102.5 -39.5q-62 0 -107.5 44.5t-45.5 115.5z" />
<glyph unicode="&#x121;" horiz-adv-x="1331" d="M88 502q0 140 43 258t115 195t165 120t193 43q161 0 258 -100v76h252q74 0 74 -62v-1007q0 -105 -41.5 -200t-118.5 -169t-196.5 -118t-264.5 -44q-213 0 -328.5 82.5t-115.5 212.5q0 76 52 142.5t149 101.5q-109 63 -172.5 185.5t-63.5 283.5zM414 510q0 -135 56 -208 t161 -73q73 0 135 49t96 142v383q-65 59 -172 59q-120 0 -198 -98.5t-78 -253.5zM446 -160q0 -46 36.5 -73t103.5 -27q119 0 197.5 73.5t78.5 200.5v129q-110 -161 -336 -161q-80 -56 -80 -142zM545 1378q0 65 39.5 104.5t101.5 39.5t108 -44t46 -114q0 -66 -39.5 -105.5 t-102.5 -39.5t-108 44t-45 115z" />
<glyph unicode="&#x122;" horiz-adv-x="1556" d="M96 754q0 211 91 372t251 246.5t363 85.5q194 0 345.5 -78t229.5 -204q21 -35 21 -70q0 -42 -47 -74q-42 -30 -110 -50.5t-134 -23.5q-44 104 -123.5 162t-187.5 58q-157 0 -256 -110t-99 -308q0 -114 35.5 -210t95.5 -159.5t138.5 -99t164.5 -35.5q107 0 156 36.5 t49 108.5v121h-207q-34 0 -52.5 21t-18.5 61q0 78 22 168h490q56 0 82 -25t26 -81v-238q0 -96 -33 -176t-99.5 -143t-177.5 -98.5t-257 -35.5q-157 0 -296 56t-241.5 155.5t-161.5 246.5t-59 321zM700 -221q0 60 44.5 99.5t111.5 39.5q66 0 113 -43.5t47 -110.5 q0 -128 -94 -239q-43 -49 -93 -74.5t-71 -15.5q-15 6 -28.5 24t-18.5 37q77 68 96 142q-48 14 -77.5 51.5t-29.5 89.5z" />
<glyph unicode="&#x123;" horiz-adv-x="1331" d="M88 502q0 140 43 258t115 195t165 120t193 43q161 0 258 -100v76h252q74 0 74 -62v-1007q0 -105 -41.5 -200t-118.5 -169t-196.5 -118t-264.5 -44q-213 0 -328.5 82.5t-115.5 212.5q0 76 52 142.5t149 101.5q-109 63 -172.5 185.5t-63.5 283.5zM414 510q0 -135 56 -208 t161 -73q73 0 135 49t96 142v383q-65 59 -172 59q-120 0 -198 -98.5t-78 -253.5zM446 -160q0 -46 36.5 -73t103.5 -27q119 0 197.5 73.5t78.5 200.5v129q-110 -161 -336 -161q-80 -56 -80 -142zM532 1335q0 128 95 240q43 49 93 74.5t71 15.5q15 -6 28.5 -24t18.5 -37 q-78 -69 -97 -142q48 -14 77.5 -51.5t29.5 -89.5q0 -60 -44.5 -99.5t-111.5 -39.5q-66 0 -113 43t-47 110z" />
<glyph unicode="&#x124;" horiz-adv-x="1488" d="M160 57v1364q110 29 248 29q92 0 92 -72v-522h485v578h268q74 0 74 -60v-1374h-268q-74 0 -74 57v523h-485v-580h-267q-73 0 -73 57zM415 1659q0 27 29 53l233 211h78q29 0 46.5 -7t39.5 -28l248 -223l-78 -86q-35 -41 -65 -41q-34 0 -58 28l-147 150l-180 -180 q-86 39 -133 92q-13 16 -13 31z" />
<glyph unicode="&#x125;" horiz-adv-x="1327" d="M125 1665q0 27 29 53l233 211h78q29 0 46.5 -7t39.5 -28l248 -223l-78 -86q-35 -41 -66 -41q-32 0 -57 29l-147 149l-181 -180q-86 39 -133 92q-12 15 -12 31zM141 59v1362q115 27 236 27q90 0 90 -72v-399q58 66 143.5 103.5t173.5 37.5q177 0 273 -118.5t96 -346.5 v-327q0 -90 66 -90h53q18 -63 18 -109q0 -53 -58.5 -97t-146.5 -44q-51 0 -95.5 15.5t-81.5 48t-58 90t-21 134.5v396q0 99 -39.5 146.5t-125.5 47.5q-51 0 -104.5 -20t-92.5 -56v-788h-252q-74 0 -74 59z" />
<glyph unicode="&#x126;" horiz-adv-x="1488" d="M16 1096q0 60 13 114h131v211q110 29 248 29q92 0 92 -72v-168h485v224h268q74 0 74 -60v-164h92q27 0 39 -15t12 -50v-101h-143v-1044h-268q-74 0 -74 57v523h-485v-580h-267q-73 0 -73 57v987h-88q-56 0 -56 52zM500 856h485v188h-485v-188z" />
<glyph unicode="&#x127;" horiz-adv-x="1327" d="M18 1260q0 68 15 114h108v109q111 26 236 26q90 0 90 -71v-64h264q27 0 39 -15t12 -50v-101h-315v-231q58 66 143.5 103.5t173.5 37.5q177 0 273 -118.5t96 -346.5v-327q0 -90 66 -90h53q18 -63 18 -109q0 -53 -58.5 -97t-146.5 -44q-51 0 -95.5 15.5t-81.5 48t-58 90 t-21 134.5v396q0 99 -39.5 146.5t-125.5 47.5q-51 0 -104.5 -20t-92.5 -56v-788h-252q-74 0 -74 59v1149h-65q-58 0 -58 52z" />
<glyph unicode="&#x128;" horiz-adv-x="679" d="M23 1655q0 25 8 57q24 77 71.5 116.5t110.5 39.5q77 0 135 -45q56 -43 76 -43q21 0 32 22t17 76l129 -35q31 -9 42 -21.5t11 -33.5q0 -93 -60 -152t-132 -59q-73 0 -131 45q-55 43 -78 43q-21 0 -32 -20.5t-17 -67.5q-67 0 -135 22q-47 16 -47 56zM168 57v1364 q110 29 250 29q92 0 92 -72v-1378h-268q-74 0 -74 57z" />
<glyph unicode="&#x129;" horiz-adv-x="651" d="M-14 1296q0 26 8 58q24 76 71.5 115.5t110.5 39.5q77 0 135 -45q56 -43 76 -43q21 0 32 22.5t17 76.5l129 -35q31 -9 42 -21.5t11 -33.5q0 -93 -60 -152t-132 -59q-73 0 -131 45q-55 43 -78 43q-21 0 -32 -20.5t-17 -67.5q-67 0 -135 22q-47 16 -47 55zM141 274v805 q106 29 236 29q88 0 88 -72v-712q0 -91 63 -91h56q16 -53 16 -106q0 -54 -57.5 -97.5t-145.5 -43.5q-51 0 -95.5 15.5t-81.5 48t-58 90t-21 134.5z" />
<glyph unicode="&#x12a;" horiz-adv-x="679" d="M45 1697q0 60 21 125h512q55 0 55 -69v-129h-522q-66 0 -66 73zM168 57v1364q110 29 250 29q92 0 92 -72v-1378h-268q-74 0 -74 57z" />
<glyph unicode="&#x12b;" horiz-adv-x="651" d="M10 1339q0 60 21 125h512q55 0 55 -69v-129h-522q-66 0 -66 73zM141 274v805q106 29 236 29q88 0 88 -72v-712q0 -91 63 -91h56q16 -53 16 -106q0 -54 -57.5 -97.5t-145.5 -43.5q-51 0 -95.5 15.5t-81.5 48t-58 90t-21 134.5z" />
<glyph unicode="&#x12c;" horiz-adv-x="679" d="M25 1851q29 22 72.5 36t80.5 14q30 0 45 -10.5t19 -37.5q20 -116 100 -116q48 0 72.5 37.5t27.5 123.5h150q35 0 48 -11t11 -36q-12 -133 -93.5 -210.5t-217.5 -77.5q-124 0 -209 70.5t-106 217.5zM168 57v1364q110 29 250 29q92 0 92 -72v-1378h-268q-74 0 -74 57z" />
<glyph unicode="&#x12d;" horiz-adv-x="651" d="M-10 1493q29 22 72.5 35.5t80.5 13.5q30 0 45 -10t19 -37q20 -117 100 -117q48 0 73 38t28 124h149q35 0 48 -11t11 -36q-12 -133 -93.5 -211t-217.5 -78q-124 0 -209 71t-106 218zM141 274v805q106 29 236 29q88 0 88 -72v-712q0 -91 63 -91h56q16 -53 16 -106 q0 -54 -57.5 -97.5t-145.5 -43.5q-51 0 -95.5 15.5t-81.5 48t-58 90t-21 134.5z" />
<glyph unicode="&#x12e;" horiz-adv-x="679" d="M135 -260q0 72 42.5 144t113.5 116q-57 0 -90 25t-33 69v1327q110 29 250 29q92 0 92 -72v-1378q-66 -47 -103.5 -105.5t-37.5 -113.5q0 -35 22 -55.5t62 -20.5q13 0 37 6t32 6q33 0 33 -43v-116q-59 -35 -168 -35q-115 0 -183.5 60t-68.5 157z" />
<glyph unicode="&#x12f;" horiz-adv-x="651" d="M125 1378q0 73 48.5 115.5t125.5 42.5q72 0 125 -45t53 -119q0 -75 -48 -116.5t-126 -41.5q-73 0 -125.5 44.5t-52.5 119.5zM137 -260q0 70 42 142t118 120q-71 28 -113.5 109.5t-42.5 210.5v757q106 29 236 29q88 0 88 -72v-712q0 -91 63 -91h56q16 -53 16 -106 q0 -29 -19 -58t-51 -49q-159 -120 -159 -239q0 -35 22 -55.5t62 -20.5q25 0 49 8q23 8 38 -1.5t15 -37.5v-116q-68 -35 -168 -35q-115 0 -183.5 60t-68.5 157z" />
<glyph unicode="&#x130;" horiz-adv-x="679" d="M168 57v1364q110 29 250 29q92 0 92 -72v-1378h-268q-74 0 -74 57zM193 1734q0 65 39.5 104.5t101.5 39.5t108 -44t46 -114q0 -66 -39.5 -105.5t-102.5 -39.5t-108 44t-45 115z" />
<glyph unicode="&#x131;" horiz-adv-x="651" d="M141 274v805q106 29 236 29q88 0 88 -72v-712q0 -91 63 -91h56q16 -53 16 -106q0 -54 -57.5 -97.5t-145.5 -43.5q-51 0 -95.5 15.5t-81.5 48t-58 90t-21 134.5z" />
<glyph unicode="&#x132;" horiz-adv-x="1542" d="M119 57v1364q110 29 250 29q92 0 92 -72v-1378h-268q-74 0 -74 57zM621 137q0 86 45 154q102 -37 198 -37q101 0 150 52.5t49 162.5v952q110 29 250 29q92 0 92 -72v-878q0 -258 -103.5 -391.5t-326.5 -133.5q-139 0 -246.5 50.5t-107.5 111.5z" />
<glyph unicode="&#x133;" horiz-adv-x="1257" d="M125 1378q0 73 48.5 115.5t125.5 42.5q72 0 125 -45t53 -119q0 -75 -48 -116.5t-126 -41.5q-73 0 -125.5 44.5t-52.5 119.5zM141 274v805q106 29 236 29q88 0 88 -72v-712q0 -91 63 -91h56q16 -53 16 -106q0 -54 -57.5 -97.5t-145.5 -43.5q-51 0 -95.5 15.5t-81.5 48 t-58 90t-21 134.5zM639 -307q154 164 154 385v1001q106 29 235 29q88 0 88 -72v-956q0 -125 -49.5 -240.5t-131.5 -185.5t-171 -70q-75 0 -125 109zM776 1378q0 73 48.5 115.5t125.5 42.5q72 0 125 -45t53 -119q0 -75 -48 -116.5t-126 -41.5q-73 0 -125.5 44.5t-52.5 119.5z " />
<glyph unicode="&#x134;" horiz-adv-x="964" d="M27 137q0 86 45 154q102 -37 198 -37q101 0 150 52.5t49 162.5v952q110 29 250 29q92 0 92 -72v-878q0 -258 -103.5 -391.5t-326.5 -133.5q-139 0 -246.5 50.5t-107.5 111.5zM305 1659q0 27 29 53l233 211h78q29 0 46.5 -7t39.5 -28l248 -223l-78 -86q-35 -41 -65 -41 q-34 0 -58 28l-147 150l-180 -180q-86 39 -133 92q-13 16 -13 31z" />
<glyph unicode="&#x135;" horiz-adv-x="616" d="M-20 1303q0 28 28 53l234 211h77q29 0 47 -7.5t40 -27.5l247 -223l-78 -86q-35 -41 -65 -41q-33 0 -57 28l-148 150l-180 -180q-86 39 -133 92q-12 15 -12 31zM-2 -307q154 164 154 385v1001q106 29 235 29q88 0 88 -72v-956q0 -125 -49.5 -240.5t-131.5 -185.5t-171 -70 q-75 0 -125 109z" />
<glyph unicode="&#x136;" horiz-adv-x="1409" d="M160 59v1364q123 29 250 29q92 0 92 -74v-532q147 110 291 267t260 341q139 -41 192 -83.5t53 -100.5q0 -38 -26 -80q-132 -214 -371 -420q148 -300 297 -459q60 -63 131 -63h33q22 -58 22 -133q0 -52 -62 -96t-148 -44q-90 0 -159 43t-134 129q-125 160 -238 426 q-51 -35 -141 -90v-483h-269q-73 0 -73 59zM578 -221q0 60 44 99.5t111 39.5q66 0 113 -43.5t47 -110.5q0 -128 -94 -239q-43 -49 -93 -74.5t-71 -15.5q-15 6 -28.5 24t-18.5 37q77 68 96 142q-47 14 -76.5 51.5t-29.5 89.5z" />
<glyph unicode="&#x137;" horiz-adv-x="1236" d="M141 59v1424q111 26 236 26q90 0 90 -71v-746q115 73 235.5 193.5t190.5 236.5q131 -41 179 -80.5t48 -93.5q0 -32 -22 -69q-86 -139 -281 -283q40 -75 94 -155.5t93 -127.5q37 -45 63.5 -62.5t56.5 -17.5h47q21 -56 21 -106q0 -58 -58.5 -99.5t-146.5 -41.5 q-143 0 -256 159q-86 128 -160 289q-14 -7 -50 -26.5t-54 -28.5v-379h-252q-74 0 -74 59zM485 -221q0 60 44.5 99.5t111.5 39.5q66 0 113 -43.5t47 -110.5q0 -128 -94 -239q-43 -49 -93 -74.5t-71 -15.5q-15 6 -28.5 24t-18.5 37q77 68 96 142q-48 14 -77.5 51.5t-29.5 89.5 z" />
<glyph unicode="&#x138;" horiz-adv-x="1236" d="M141 59v1022q115 27 236 27q90 0 90 -72v-344q115 73 235.5 193.5t190.5 236.5q131 -41 179 -80.5t48 -93.5q0 -32 -22 -69q-86 -139 -281 -283q40 -75 94 -155.5t93 -127.5q37 -45 63.5 -62.5t56.5 -17.5h47q21 -56 21 -106q0 -58 -58.5 -99.5t-146.5 -41.5 q-143 0 -256 159q-86 128 -160 289q-14 -7 -50 -26.5t-54 -28.5v-379h-252q-74 0 -74 59z" />
<glyph unicode="&#x139;" horiz-adv-x="1153" d="M148 1661l223 233q37 37 63 37q34 0 68 -27q65 -55 109 -147l-263 -195q-38 -24 -59 -24q-28 0 -49 24zM156 483v938q110 29 247 29q93 0 93 -72v-895q0 -118 29 -162.5t108 -44.5h414q59 0 59 -73v-203h-531q-229 0 -324 116t-95 367z" />
<glyph unicode="&#x13a;" horiz-adv-x="749" d="M135 383v1036q110 29 236 29q88 0 88 -72v-993q0 -143 112 -143q67 0 119 22q17 -24 29 -62t12 -73q0 -50 -74.5 -95.5t-187.5 -45.5q-334 0 -334 397zM139 1661l223 233q37 37 64 37q36 0 68 -26q63 -53 108 -148l-262 -194q-39 -25 -59 -25q-28 0 -50 25z" />
<glyph unicode="&#x13b;" horiz-adv-x="1153" d="M156 483v938q110 29 247 29q93 0 93 -72v-895q0 -118 29 -162.5t108 -44.5h414q59 0 59 -73v-203h-531q-229 0 -324 116t-95 367zM528 -221q0 60 44.5 99.5t111.5 39.5q66 0 113 -43.5t47 -110.5q0 -128 -94 -239q-43 -49 -93 -74.5t-71 -15.5q-15 6 -28.5 24t-18.5 37 q77 68 96 142q-48 14 -77.5 51.5t-29.5 89.5z" />
<glyph unicode="&#x13c;" horiz-adv-x="749" d="M135 383v1098q106 28 236 28q88 0 88 -71v-1055q0 -143 112 -143q67 0 119 22q17 -24 29 -62t12 -73q0 -50 -74.5 -95.5t-187.5 -45.5q-334 0 -334 397zM291 -221q0 60 44 99.5t111 39.5q66 0 113 -43.5t47 -110.5q0 -128 -94 -239q-43 -49 -93 -74.5t-71 -15.5 q-15 6 -28.5 24t-18.5 37q77 68 96 142q-47 14 -76.5 51.5t-29.5 89.5z" />
<glyph unicode="&#x13d;" horiz-adv-x="1153" d="M156 483v938q110 29 247 29q93 0 93 -72v-895q0 -118 29 -162.5t108 -44.5h414q59 0 59 -73v-203h-531q-229 0 -324 116t-95 367zM625 971q47 42 81 95.5t44 104.5q-53 18 -87 65t-34 112q0 78 47.5 125t122.5 47q73 0 126.5 -52t53.5 -139q0 -178 -119 -321 q-51 -59 -105 -90t-75 -21q-41 20 -55 74z" />
<glyph unicode="&#x13e;" horiz-adv-x="964" d="M135 383v1098q106 28 236 28q88 0 88 -71v-1055q0 -143 112 -143q67 0 119 22q17 -24 29 -62t12 -73q0 -50 -74.5 -95.5t-187.5 -45.5q-334 0 -334 397zM592 971q47 42 81 95.5t44 104.5q-53 18 -87 65t-34 112q0 78 47.5 125t122.5 47q73 0 126.5 -52t53.5 -139 q0 -178 -119 -321q-51 -59 -105 -90t-75 -21q-41 20 -55 74z" />
<glyph unicode="&#x13f;" horiz-adv-x="1153" d="M156 483v938q110 29 247 29q93 0 93 -72v-895q0 -118 29 -162.5t108 -44.5h414q59 0 59 -73v-203h-531q-229 0 -324 116t-95 367zM699 792q0 65 39.5 104.5t101.5 39.5t108 -44t46 -114q0 -66 -39.5 -105.5t-102.5 -39.5t-108 44t-45 115z" />
<glyph unicode="&#x140;" horiz-adv-x="946" d="M135 383v1098q106 28 236 28q88 0 88 -71v-1055q0 -143 112 -143q67 0 119 22q17 -24 29 -62t12 -73q0 -50 -74.5 -95.5t-187.5 -45.5q-334 0 -334 397zM631 793q0 65 39.5 104t101.5 39t108 -44t46 -114q0 -66 -39.5 -105.5t-102.5 -39.5q-62 0 -107.5 44.5t-45.5 115.5 z" />
<glyph unicode="&#x141;" horiz-adv-x="1157" d="M-35 625l193 90v706q110 29 250 29q92 0 92 -72v-501l260 127q41 18 59 -7q35 -51 55 -139l-374 -178v-197q0 -118 29 -162.5t108 -44.5h412q59 0 59 -73v-203h-498q-120 0 -203 21t-140 70t-83 129t-26 198v98l-80 -37q-40 -20 -64 10q-31 39 -49 136z" />
<glyph unicode="&#x142;" horiz-adv-x="776" d="M-27 664l189 92v727q111 26 235 26q88 0 88 -71v-531l127 62q44 20 62 -8q33 -52 51 -138l-240 -114v-324q0 -143 115 -143q67 0 119 22q39 -64 39 -137q0 -55 -73.5 -98t-188.5 -43q-161 0 -247.5 99.5t-86.5 297.5v172l-76 -35q-43 -19 -63 6q-30 38 -50 138z" />
<glyph unicode="&#x143;" horiz-adv-x="1478" d="M160 59v1295q56 40 125 69t110 29q35 0 56 -11.5t36 -37.5l490 -785v816h268q74 0 74 -60v-1294q-56 -40 -125.5 -69t-110.5 -29q-35 0 -56 11.5t-36 37.5l-489 784v-815h-269q-73 0 -73 59zM539 1661l223 233q37 37 63 37q34 0 68 -27q65 -55 109 -147l-263 -195 q-38 -24 -59 -24q-28 0 -49 24z" />
<glyph unicode="&#x144;" horiz-adv-x="1327" d="M141 59v1022q115 27 236 27q90 0 90 -72v-59q58 66 143.5 103.5t173.5 37.5q177 0 273 -118.5t96 -346.5v-327q0 -90 66 -90h53q18 -63 18 -109q0 -53 -58.5 -97t-146.5 -44q-51 0 -95.5 15.5t-81.5 48t-58 90t-21 134.5v396q0 99 -39.5 146.5t-125.5 47.5 q-51 0 -104.5 -20t-92.5 -56v-788h-252q-74 0 -74 59zM449 1305l223 233q37 37 63 37q34 0 68 -27q65 -55 109 -147l-263 -195q-37 -24 -59 -24q-28 0 -49 24z" />
<glyph unicode="&#x145;" horiz-adv-x="1478" d="M160 59v1295q56 40 125 69t110 29q35 0 56 -11.5t36 -37.5l490 -785v816h268q74 0 74 -60v-1294q-56 -40 -125.5 -69t-110.5 -29q-35 0 -56 11.5t-36 37.5l-489 784v-815h-269q-73 0 -73 59zM600 -221q0 60 44.5 99.5t111.5 39.5q66 0 112.5 -43t46.5 -111 q0 -128 -94 -239q-43 -49 -93 -74.5t-71 -15.5q-15 6 -28.5 24t-18.5 37q78 69 97 142q-48 14 -77.5 51.5t-29.5 89.5z" />
<glyph unicode="&#x146;" horiz-adv-x="1327" d="M141 59v1022q115 27 236 27q90 0 90 -72v-59q58 66 143.5 103.5t173.5 37.5q177 0 273 -118.5t96 -346.5v-327q0 -90 66 -90h53q18 -63 18 -109q0 -53 -58.5 -97t-146.5 -44q-51 0 -95.5 15.5t-81.5 48t-58 90t-21 134.5v396q0 99 -39.5 146.5t-125.5 47.5 q-51 0 -104.5 -20t-92.5 -56v-788h-252q-74 0 -74 59zM522 -221q0 60 44.5 99.5t111.5 39.5q66 0 113 -43.5t47 -110.5q0 -127 -95 -239q-43 -49 -92.5 -74.5t-70.5 -15.5q-15 6 -29 24t-19 37q78 69 97 142q-48 14 -77.5 51.5t-29.5 89.5z" />
<glyph unicode="&#x147;" horiz-adv-x="1478" d="M160 59v1295q56 40 125 69t110 29q35 0 56 -11.5t36 -37.5l490 -785v816h268q74 0 74 -60v-1294q-56 -40 -125.5 -69t-110.5 -29q-35 0 -56 11.5t-36 37.5l-489 784v-815h-269q-73 0 -73 59zM412 1784q30 63 66.5 101t64.5 38q26 0 55 -29l150 -149l186 186l96 -90 q33 -30 33 -53q0 -22 -31 -49l-221 -201h-80q-45 0 -86 35z" />
<glyph unicode="&#x148;" horiz-adv-x="1327" d="M141 59v1022q115 27 236 27q90 0 90 -72v-59q58 66 143.5 103.5t173.5 37.5q177 0 273 -118.5t96 -346.5v-327q0 -90 66 -90h53q18 -63 18 -109q0 -53 -58.5 -97t-146.5 -44q-51 0 -95.5 15.5t-81.5 48t-58 90t-21 134.5v396q0 99 -39.5 146.5t-125.5 47.5 q-51 0 -104.5 -20t-92.5 -56v-788h-252q-74 0 -74 59zM324 1427q30 64 66.5 102t64.5 38q26 0 55 -29l149 -149l187 186l96 -90q33 -30 33 -53t-31 -50l-221 -200h-80q-45 0 -86 35z" />
<glyph unicode="&#x149;" horiz-adv-x="1531" d="M-16 971q47 42 81 95.5t44 104.5q-53 18 -87 65t-34 112q0 78 47.5 125t122.5 47q73 0 126.5 -52t53.5 -139q0 -178 -119 -321q-51 -59 -105 -90t-75 -21q-41 20 -55 74zM344 59v1022q115 27 236 27q90 0 90 -72v-59q58 66 143.5 103.5t173.5 37.5q177 0 273 -118.5 t96 -346.5v-327q0 -90 65 -90h54q18 -63 18 -109q0 -53 -58.5 -97t-146.5 -44q-51 0 -95.5 15.5t-81.5 48t-58 90t-21 134.5v396q0 99 -40 146.5t-126 47.5q-51 0 -104 -20t-92 -56v-788h-252q-74 0 -74 59z" />
<glyph unicode="&#x14a;" horiz-adv-x="1478" d="M160 57v1297q53 39 123 67.5t112 28.5q35 0 56 -11.5t36 -37.5l490 -819v852h266q74 0 74 -60v-1351q0 -119 -39.5 -218.5t-103.5 -169.5q-50 -55 -109 -84.5t-107 -29.5q-38 0 -76.5 35t-58.5 88q73 76 113.5 176.5t40.5 206.5v26l-477 797v-850h-267q-73 0 -73 57z" />
<glyph unicode="&#x14b;" horiz-adv-x="1292" d="M141 57v1022q106 29 236 29q88 0 88 -72v-61q58 67 144 105t173 38q179 0 275 -118.5t96 -348.5v-628q0 -236 -143 -390q-50 -53 -106 -81.5t-101 -28.5q-40 0 -76 34t-55 85q157 163 157 387v639q0 96 -38.5 146t-126.5 50q-51 0 -104.5 -20.5t-94.5 -55.5v-788h-250 q-74 0 -74 57z" />
<glyph unicode="&#x14c;" horiz-adv-x="1611" d="M98 717q0 174 55.5 315.5t152 234t225 142t276.5 49.5q147 0 275 -49.5t224.5 -142t151.5 -234t55 -315.5t-55 -315.5t-151.5 -234t-224.5 -142.5t-275 -50q-148 0 -276.5 50t-225 142.5t-152 234t-55.5 315.5zM440 733q0 -217 108.5 -348t268.5 -131q152 0 253 113.5 t101 332.5q0 217 -108 348.5t-268 131.5q-152 0 -253.5 -114t-101.5 -333zM510 1697q0 60 21 125h512q55 0 55 -69v-129h-522q-66 0 -66 73z" />
<glyph unicode="&#x14d;" horiz-adv-x="1308" d="M88 547q0 133 46 242.5t124.5 180.5t180 109.5t214.5 38.5t214.5 -38.5t180.5 -109.5t125 -180.5t46 -242.5t-46.5 -243t-125 -181t-180 -109.5t-214.5 -38.5t-214.5 38.5t-180 110t-124.5 181t-46 242.5zM352 1339q0 60 21 125h512q55 0 55 -69v-129h-522q-66 0 -66 73z M414 557q0 -153 69.5 -240.5t178.5 -87.5q104 0 167.5 78.5t63.5 229.5q0 153 -69.5 240t-178.5 87q-104 0 -167.5 -78t-63.5 -229z" />
<glyph unicode="&#x14e;" horiz-adv-x="1611" d="M98 717q0 174 55.5 315.5t152 234t225 142t276.5 49.5q147 0 275 -49.5t224.5 -142t151.5 -234t55 -315.5t-55 -315.5t-151.5 -234t-224.5 -142.5t-275 -50q-148 0 -276.5 50t-225 142.5t-152 234t-55.5 315.5zM440 733q0 -217 108.5 -348t268.5 -131q152 0 253 113.5 t101 332.5q0 217 -108 348.5t-268 131.5q-152 0 -253.5 -114t-101.5 -333zM492 1851q29 22 72.5 36t80.5 14q30 0 45 -10.5t19 -37.5q20 -116 100 -116q48 0 72.5 37.5t27.5 123.5h150q35 0 48 -11t11 -36q-12 -133 -93.5 -210.5t-217.5 -77.5q-124 0 -209 70.5t-106 217.5z " />
<glyph unicode="&#x14f;" horiz-adv-x="1308" d="M88 547q0 133 46 242.5t124.5 180.5t180 109.5t214.5 38.5t214.5 -38.5t180.5 -109.5t125 -180.5t46 -242.5t-46.5 -243t-125 -181t-180 -109.5t-214.5 -38.5t-214.5 38.5t-180 110t-124.5 181t-46 242.5zM338 1493q29 21 73 35t81 14q30 0 44.5 -10t18.5 -37 q20 -117 100 -117q48 0 73 38t28 124h149q35 0 48.5 -11.5t11.5 -35.5q-12 -133 -94 -211t-218 -78q-124 0 -209 71t-106 218zM414 557q0 -153 69.5 -240.5t178.5 -87.5q104 0 167.5 78.5t63.5 229.5q0 153 -69.5 240t-178.5 87q-104 0 -167.5 -78t-63.5 -229z" />
<glyph unicode="&#x150;" horiz-adv-x="1611" d="M98 717q0 174 55.5 315.5t152 234t225 142t276.5 49.5q147 0 275 -49.5t224.5 -142t151.5 -234t55 -315.5t-55 -315.5t-151.5 -234t-224.5 -142.5t-275 -50q-148 0 -276.5 50t-225 142.5t-152 234t-55.5 315.5zM379 1661l223 233q37 37 64 37q34 0 67 -26 q65 -55 109 -148l-262 -194q-39 -25 -60 -25q-27 0 -49 25zM440 733q0 -217 108.5 -348t268.5 -131q152 0 253 113.5t101 332.5q0 217 -108 348.5t-268 131.5q-152 0 -253.5 -114t-101.5 -333zM809 1661l223 233q37 37 64 37q34 0 67 -26q65 -55 109 -148l-262 -194 q-39 -25 -60 -25q-27 0 -49 25z" />
<glyph unicode="&#x151;" horiz-adv-x="1308" d="M88 547q0 133 46 242.5t124.5 180.5t180 109.5t214.5 38.5t214.5 -38.5t180.5 -109.5t125 -180.5t46 -242.5t-46.5 -243t-125 -181t-180 -109.5t-214.5 -38.5t-214.5 38.5t-180 110t-124.5 181t-46 242.5zM227 1305l224 233q37 37 63 37q34 0 68 -27q64 -54 108 -147 l-262 -195q-38 -24 -59 -24q-29 0 -50 24zM414 557q0 -153 69.5 -240.5t178.5 -87.5q104 0 167.5 78.5t63.5 229.5q0 153 -69.5 240t-178.5 87q-104 0 -167.5 -78t-63.5 -229zM657 1305l224 233q37 37 63 37q34 0 68 -27q64 -54 108 -147l-262 -195q-38 -24 -59 -24 q-28 0 -49 24z" />
<glyph unicode="&#x152;" horiz-adv-x="2062" d="M96 717q0 168 52 308.5t141.5 234.5t209 146t255.5 52q71 0 142 -20.5t122 -57.5v54h862q68 0 68 -80q0 -99 -23 -199h-567v-303h420q59 0 59 -74v-203h-479v-92q0 -115 32 -161t105 -46h410q59 0 59 -73v-203h-526q-203 0 -303 94q-156 -119 -377 -119q-138 0 -258.5 51 t-210 144.5t-141.5 235t-52 311.5zM440 733q0 -217 108 -348t267 -131q130 0 211 61q-8 57 -8 146v653q-86 64 -223 64q-73 0 -136 -27t-112.5 -80t-78 -139.5t-28.5 -198.5z" />
<glyph unicode="&#x153;" horiz-adv-x="2009" d="M88 547q0 133 45 242.5t121.5 180.5t174.5 109.5t206 38.5q137 0 247 -53t173 -147q66 94 175.5 147t242.5 53q205 0 330.5 -115.5t125.5 -295.5q0 -106 -41 -183q-24 -46 -63 -64t-109 -18h-491q20 -112 100 -169.5t203 -57.5q151 0 256 57q17 -24 30 -61t13 -66 q0 -55 -106.5 -112.5t-262.5 -57.5q-130 0 -235.5 53t-167.5 148q-63 -96 -172.5 -148.5t-247.5 -52.5q-86 0 -166.5 24t-149.5 72.5t-120.5 116t-81 160t-29.5 199.5zM414 557q0 -153 69.5 -240.5t178.5 -87.5q104 0 167.5 78.5t63.5 229.5q0 153 -69.5 240t-178.5 87 q-104 0 -167.5 -78t-63.5 -229zM1221 641h385q16 27 16 74q0 76 -43.5 120t-118.5 44q-99 0 -162 -64t-77 -174z" />
<glyph unicode="&#x154;" horiz-adv-x="1351" d="M160 57v1377h469q272 0 430 -136.5t158 -375.5q0 -151 -72 -263.5t-195 -173.5q76 -137 150 -196q54 -45 119 -45h38q23 -61 23 -127q0 -51 -57.5 -96.5t-149.5 -45.5q-121 0 -217 93q-137 134 -219 346q-96 9 -137 24v-438h-267q-73 0 -73 57zM402 1661l223 233 q37 37 63 37q34 0 68 -27q65 -55 109 -147l-263 -195q-37 -24 -59 -24q-28 0 -49 24zM500 705q45 -11 110 -11q119 0 188.5 58t69.5 170q0 114 -68.5 173.5t-191.5 59.5h-108v-450z" />
<glyph unicode="&#x155;" horiz-adv-x="1001" d="M141 57v1033q103 28 236 28q88 0 88 -71v-105q44 76 121.5 126t169.5 50q87 0 157 -33q70 -32 70 -81q0 -47 -42.5 -98.5t-100.5 -86.5q-59 45 -152 45q-86 0 -143.5 -55t-79.5 -156v-653h-250q-74 0 -74 57zM342 1305l223 233q37 37 63 37q34 0 68 -27q65 -55 109 -147 l-263 -195q-37 -24 -59 -24q-28 0 -49 24z" />
<glyph unicode="&#x156;" horiz-adv-x="1351" d="M160 57v1377h469q272 0 430 -136.5t158 -375.5q0 -151 -72 -263.5t-195 -173.5q76 -137 150 -196q54 -45 119 -45h38q23 -61 23 -127q0 -51 -57.5 -96.5t-149.5 -45.5q-121 0 -217 93q-137 134 -219 346q-96 9 -137 24v-438h-267q-73 0 -73 57zM500 705q45 -11 110 -11 q119 0 188.5 58t69.5 170q0 114 -68.5 173.5t-191.5 59.5h-108v-450zM537 -221q0 60 44 99.5t111 39.5q66 0 113 -43.5t47 -110.5q0 -128 -94 -239q-43 -49 -93 -74.5t-71 -15.5q-15 6 -28.5 24t-18.5 37q77 68 96 142q-47 14 -76.5 51.5t-29.5 89.5z" />
<glyph unicode="&#x157;" horiz-adv-x="1001" d="M141 57v1033q103 28 236 28q88 0 88 -71v-105q44 76 121.5 126t169.5 50q87 0 157 -33q70 -32 70 -81q0 -47 -42.5 -98.5t-100.5 -86.5q-59 45 -152 45q-86 0 -143.5 -55t-79.5 -156v-653h-250q-74 0 -74 57zM152 -221q0 60 44 99.5t111 39.5q66 0 113 -43.5t47 -110.5 q0 -128 -94 -239q-43 -49 -93 -74.5t-71 -15.5q-15 6 -28.5 24t-18.5 37q77 68 96 142q-47 14 -76.5 51.5t-29.5 89.5z" />
<glyph unicode="&#x158;" horiz-adv-x="1351" d="M160 57v1377h469q272 0 430 -136.5t158 -375.5q0 -151 -72 -263.5t-195 -173.5q76 -137 150 -196q54 -45 119 -45h38q23 -61 23 -127q0 -51 -57.5 -96.5t-149.5 -45.5q-121 0 -217 93q-137 134 -219 346q-96 9 -137 24v-438h-267q-73 0 -73 57zM295 1784q30 63 66.5 101 t64.5 38q26 0 55 -29l150 -149l186 186l96 -90q33 -30 33 -53q0 -22 -31 -49l-221 -201h-80q-45 0 -86 35zM500 705q45 -11 110 -11q119 0 188.5 58t69.5 170q0 114 -68.5 173.5t-191.5 59.5h-108v-450z" />
<glyph unicode="&#x159;" horiz-adv-x="1001" d="M141 57v1033q103 28 236 28q88 0 88 -71v-105q44 76 121.5 126t169.5 50q87 0 157 -33q70 -32 70 -81q0 -47 -42.5 -98.5t-100.5 -86.5q-59 45 -152 45q-86 0 -143.5 -55t-79.5 -156v-653h-250q-74 0 -74 57zM211 1427q30 64 66.5 102t64.5 38q26 0 55 -29l150 -149 l186 186l96 -90q33 -30 33 -53t-31 -50l-221 -200h-80q-45 0 -86 35z" />
<glyph unicode="&#x15a;" horiz-adv-x="1243" d="M106 1028q0 188 139 309t365 121q175 0 302.5 -66t189.5 -167q24 -43 24 -80q0 -55 -59 -84q-90 -46 -229 -57q-28 86 -84 131t-133 45q-75 0 -122.5 -40t-47.5 -104t60.5 -111t211.5 -91q219 -66 321.5 -171.5t102.5 -267.5q0 -188 -137.5 -304t-384.5 -116 q-202 0 -334.5 63.5t-132.5 141.5q0 37 15 80t36 74q75 -38 174.5 -59t196.5 -21q223 0 223 127q0 60 -53.5 98.5t-204.5 83.5q-221 66 -330 178.5t-109 286.5zM387 1661l223 233q37 37 63 37q34 0 68 -27q65 -55 109 -147l-263 -195q-38 -24 -59 -24q-28 0 -49 24z" />
<glyph unicode="&#x15b;" horiz-adv-x="1044" d="M106 784q0 149 114 241.5t300 92.5q138 0 246 -47.5t162 -130.5q20 -33 20 -63q0 -44 -47 -72q-78 -48 -192 -55q-19 61 -60 95t-100 34q-57 0 -88 -26t-31 -65q0 -50 39 -80.5t131 -54.5q187 -47 272.5 -129.5t85.5 -214.5q0 -149 -112.5 -241.5t-317.5 -92.5 q-154 0 -273.5 58.5t-119.5 122.5q0 70 45 133q142 -74 303 -74q152 0 152 80q0 38 -27.5 61t-103.5 41q-398 91 -398 387zM291 1305l223 233q37 37 63 37q34 0 68 -27q65 -55 109 -147l-263 -195q-37 -24 -59 -24q-28 0 -49 24z" />
<glyph unicode="&#x15c;" horiz-adv-x="1243" d="M106 1028q0 188 139 309t365 121q175 0 302.5 -66t189.5 -167q24 -43 24 -80q0 -55 -59 -84q-90 -46 -229 -57q-28 86 -84 131t-133 45q-75 0 -122.5 -40t-47.5 -104t60.5 -111t211.5 -91q219 -66 321.5 -171.5t102.5 -267.5q0 -188 -137.5 -304t-384.5 -116 q-202 0 -334.5 63.5t-132.5 141.5q0 37 15 80t36 74q75 -38 174.5 -59t196.5 -21q223 0 223 127q0 60 -53.5 98.5t-204.5 83.5q-221 66 -330 178.5t-109 286.5zM272 1659q0 27 29 53l233 211h78q29 0 46.5 -7t39.5 -28l248 -223l-78 -86q-35 -41 -65 -41q-34 0 -58 28 l-147 150l-180 -180q-86 39 -133 92q-13 16 -13 31z" />
<glyph unicode="&#x15d;" horiz-adv-x="1044" d="M106 784q0 149 114 241.5t300 92.5q138 0 246 -47.5t162 -130.5q20 -33 20 -63q0 -44 -47 -72q-78 -48 -192 -55q-19 61 -60 95t-100 34q-57 0 -88 -26t-31 -65q0 -50 39 -80.5t131 -54.5q187 -47 272.5 -129.5t85.5 -214.5q0 -149 -112.5 -241.5t-317.5 -92.5 q-154 0 -273.5 58.5t-119.5 122.5q0 70 45 133q142 -74 303 -74q152 0 152 80q0 38 -27.5 61t-103.5 41q-398 91 -398 387zM184 1303q0 27 29 53l233 211h78q29 0 46.5 -7t39.5 -28l248 -223l-78 -86q-35 -41 -65 -41q-34 0 -58 28l-147 150l-180 -180q-86 39 -133 92 q-13 16 -13 31z" />
<glyph unicode="&#x15e;" horiz-adv-x="1243" d="M106 1028q0 188 139 309t365 121q175 0 302.5 -66t189.5 -167q24 -43 24 -80q0 -55 -59 -84q-90 -46 -229 -57q-28 86 -84 131t-133 45q-75 0 -122.5 -40t-47.5 -104t60.5 -111t211.5 -91q219 -66 321.5 -171.5t102.5 -267.5q0 -149 -87.5 -254.5t-250.5 -144.5l-64 -119 q68 -14 109 -59.5t41 -106.5q0 -93 -74 -151t-190 -58q-93 0 -154 19v121q0 48 49 39q40 -9 62 -9q34 0 54 14t20 40q0 66 -121 75q-33 17 -33 31q0 6 4 14l70 131q-178 7 -301 71t-123 132q0 37 15 80t36 74q75 -38 174.5 -59t196.5 -21q225 0 225 127q0 59 -54 98t-206 84 q-221 66 -330 178.5t-109 286.5z" />
<glyph unicode="&#x15f;" horiz-adv-x="1044" d="M106 784q0 149 114 241.5t300 92.5q138 0 246 -47.5t162 -130.5q20 -33 20 -63q0 -44 -47 -72q-78 -48 -192 -55q-19 61 -60 95t-100 34q-57 0 -88 -26t-31 -65q0 -50 39 -80.5t131 -54.5q187 -47 272.5 -129.5t85.5 -214.5q0 -118 -70.5 -201.5t-201.5 -113.5l-63 -117 q69 -13 109 -58.5t40 -107.5q0 -93 -73.5 -151t-190.5 -58q-94 0 -152 19v121q0 49 50 39q41 -9 59 -9q34 0 54 14t20 40q0 35 -29.5 52.5t-91.5 22.5q-31 15 -31 31q0 6 4 14l70 134q-133 12 -229.5 65.5t-96.5 110.5q0 70 45 133q142 -74 303 -74q152 0 152 80 q0 38 -27.5 61t-103.5 41q-398 91 -398 387z" />
<glyph unicode="&#x160;" horiz-adv-x="1243" d="M106 1028q0 188 139 309t365 121q175 0 302.5 -66t189.5 -167q24 -43 24 -80q0 -55 -59 -84q-90 -46 -229 -57q-28 86 -84 131t-133 45q-75 0 -122.5 -40t-47.5 -104t60.5 -111t211.5 -91q219 -66 321.5 -171.5t102.5 -267.5q0 -188 -137.5 -304t-384.5 -116 q-202 0 -334.5 63.5t-132.5 141.5q0 37 15 80t36 74q75 -38 174.5 -59t196.5 -21q223 0 223 127q0 60 -53.5 98.5t-204.5 83.5q-221 66 -330 178.5t-109 286.5zM274 1784q30 63 67 101t65 38q26 0 55 -29l149 -149l187 186l96 -90q33 -30 33 -53q0 -22 -31 -49l-221 -201 h-80q-45 0 -86 35z" />
<glyph unicode="&#x161;" horiz-adv-x="1044" d="M106 784q0 149 114 241.5t300 92.5q138 0 246 -47.5t162 -130.5q20 -33 20 -63q0 -44 -47 -72q-78 -48 -192 -55q-19 61 -60 95t-100 34q-57 0 -88 -26t-31 -65q0 -50 39 -80.5t131 -54.5q187 -47 272.5 -129.5t85.5 -214.5q0 -149 -112.5 -241.5t-317.5 -92.5 q-154 0 -273.5 58.5t-119.5 122.5q0 70 45 133q142 -74 303 -74q152 0 152 80q0 38 -27.5 61t-103.5 41q-398 91 -398 387zM186 1427q30 64 66.5 102t64.5 38q27 0 56 -29l149 -149l187 186l96 -90q33 -30 33 -53t-31 -50l-221 -200h-80q-45 0 -86 35z" />
<glyph unicode="&#x162;" horiz-adv-x="1292" d="M70 1235q0 83 22 199h1069q60 0 60 -74v-205h-406v-1155h-39l-67 -123q69 -13 109 -58.5t40 -107.5q0 -93 -73.5 -151t-190.5 -58q-94 0 -152 19v121q0 49 50 39q41 -9 59 -9q34 0 54 14t20 40q0 35 -29.5 52.5t-91.5 22.5q-31 15 -31 31q0 6 4 14l82 154h-10 q-74 0 -74 57v1098h-338q-67 0 -67 80z" />
<glyph unicode="&#x163;" horiz-adv-x="966" d="M53 920q0 104 19 174h164v299q103 28 233 28q90 0 90 -71v-256h275q59 0 59 -74v-178h-334v-457q0 -83 38 -120.5t112 -37.5q81 0 147 27q18 -22 30.5 -58.5t12.5 -66.5q0 -45 -58.5 -89t-152.5 -58l-57 -105q69 -13 109 -58.5t40 -107.5q0 -93 -73.5 -151t-190.5 -58 q-93 0 -151 19v121q0 48 49 39q40 -9 59 -9q34 0 54 14t20 40q0 35 -29.5 52.5t-91.5 22.5q-31 15 -31 31q0 6 4 14l78 148q-116 34 -178.5 133t-62.5 248v467h-117q-66 0 -66 78z" />
<glyph unicode="&#x164;" horiz-adv-x="1292" d="M70 1235q0 83 22 199h1069q60 0 60 -74v-205h-406v-1155h-266q-74 0 -74 57v1098h-338q-67 0 -67 80zM309 1783q30 64 66.5 102t64.5 38q27 0 56 -29l149 -149l186 186l97 -90q32 -29 32 -53t-30 -50l-221 -200h-80q-45 0 -86 35z" />
<glyph unicode="&#x165;" horiz-adv-x="1333" d="M53 920q0 104 19 174h164v299q103 28 233 28q90 0 90 -71v-256h275q59 0 59 -74v-178h-334v-457q0 -83 38 -120.5t112 -37.5q81 0 147 27q18 -22 30.5 -58.5t12.5 -66.5q0 -56 -82.5 -105t-208.5 -49q-178 0 -275 106.5t-97 293.5v467h-117q-66 0 -66 78zM961 971 q102 92 124 200q-53 18 -86.5 65t-33.5 112q0 78 47.5 125t122.5 47q73 0 126.5 -52t53.5 -139q0 -178 -119 -321q-51 -59 -105 -90t-75 -21q-41 20 -55 74z" />
<glyph unicode="&#x166;" horiz-adv-x="1292" d="M70 1235q0 95 22 199h1069q60 0 60 -74v-205h-406v-367h184q27 0 39.5 -15t12.5 -50v-102h-236v-621h-266q-74 0 -74 57v564h-180q-57 0 -57 53q0 56 14 114h223v367h-338q-67 0 -67 80z" />
<glyph unicode="&#x167;" horiz-adv-x="966" d="M53 920q0 104 19 174h164v299q103 28 233 28q90 0 90 -71v-256h275q59 0 59 -74v-178h-334v-207h209q27 0 39 -15.5t12 -50.5v-100h-260v-84q0 -83 38 -120.5t112 -37.5q81 0 147 27q18 -22 30.5 -58.5t12.5 -66.5q0 -56 -82.5 -105t-208.5 -49q-178 0 -275 106.5 t-97 293.5v94h-84q-58 0 -58 51q0 68 15 115h127v207h-117q-66 0 -66 78z" />
<glyph unicode="&#x168;" horiz-adv-x="1484" d="M152 598v825q123 29 247 29q95 0 95 -74v-805q0 -151 66 -235t181 -84q118 0 184 83.5t66 235.5v861h269q73 0 73 -60v-776q0 -289 -158.5 -456t-433.5 -167q-274 0 -431.5 167t-157.5 456zM422 1654q0 26 8 58q24 76 71.5 115.5t110.5 39.5q77 0 135 -45q56 -43 76 -43 q21 0 32 22.5t17 76.5l129 -35q31 -9 42 -21.5t11 -33.5q0 -93 -60 -152t-132 -59q-73 0 -131 45q-55 43 -78 43q-21 0 -32 -20.5t-17 -67.5q-67 0 -135 22q-47 16 -47 55z" />
<glyph unicode="&#x169;" horiz-adv-x="1275" d="M129 467v614q111 27 233 27q91 0 91 -72v-581q0 -101 49.5 -158t134.5 -57q84 0 135 57.5t51 157.5v639h250q74 0 74 -60v-567q0 -226 -140 -358t-370 -132t-369 132t-139 358zM317 1296q0 22 9 58q24 76 71.5 115.5t110.5 39.5q77 0 135 -45q56 -43 76 -43q21 0 32 22.5 t17 76.5l129 -35q31 -9 42 -21.5t11 -33.5q0 -93 -60 -152t-132 -59q-73 0 -131 45q-55 43 -78 43q-21 0 -32 -20.5t-17 -67.5q-67 0 -135 22q-48 16 -48 55z" />
<glyph unicode="&#x16a;" horiz-adv-x="1484" d="M152 598v825q123 29 247 29q95 0 95 -74v-805q0 -151 66 -235t181 -84q118 0 184 83.5t66 235.5v861h269q73 0 73 -60v-776q0 -289 -158.5 -456t-433.5 -167q-274 0 -431.5 167t-157.5 456zM446 1697q0 60 21 125h512q55 0 55 -69v-129h-522q-66 0 -66 73z" />
<glyph unicode="&#x16b;" horiz-adv-x="1275" d="M129 467v614q111 27 233 27q91 0 91 -72v-581q0 -101 49.5 -158t134.5 -57q84 0 135 57.5t51 157.5v639h250q74 0 74 -60v-567q0 -226 -140 -358t-370 -132t-369 132t-139 358zM342 1339q0 60 21 125h512q55 0 55 -69v-129h-522q-66 0 -66 73z" />
<glyph unicode="&#x16c;" horiz-adv-x="1484" d="M152 598v825q123 29 247 29q95 0 95 -74v-805q0 -151 66 -235t181 -84q118 0 184 83.5t66 235.5v861h269q73 0 73 -60v-776q0 -289 -158.5 -456t-433.5 -167q-274 0 -431.5 167t-157.5 456zM426 1851q29 22 73 36t81 14q30 0 44.5 -10.5t18.5 -37.5q20 -116 100 -116 q49 0 73.5 37.5t27.5 123.5h149q35 0 48.5 -11.5t11.5 -35.5q-12 -133 -94 -210.5t-218 -77.5q-124 0 -209 70.5t-106 217.5z" />
<glyph unicode="&#x16d;" horiz-adv-x="1275" d="M129 467v614q111 27 233 27q91 0 91 -72v-581q0 -101 49.5 -158t134.5 -57q84 0 135 57.5t51 157.5v639h250q74 0 74 -60v-567q0 -226 -140 -358t-370 -132t-369 132t-139 358zM322 1493q29 22 72.5 35.5t80.5 13.5q30 0 45 -10t19 -37q20 -117 100 -117q48 0 72.5 38 t27.5 124h150q35 0 48 -11t11 -36q-12 -133 -93.5 -211t-217.5 -78q-124 0 -209 71t-106 218z" />
<glyph unicode="&#x16e;" horiz-adv-x="1484" d="M152 598v825q123 29 247 29q95 0 95 -74v-805q0 -151 66 -235t181 -84q118 0 184 83.5t66 235.5v861h269q73 0 73 -60v-776q0 -289 -158.5 -456t-433.5 -167q-274 0 -431.5 167t-157.5 456zM528 1733q0 86 60 143t153 57t153 -57t60 -143q0 -87 -60 -145t-153 -58 t-153 58t-60 145zM674 1735q0 -32 19.5 -52t49.5 -20q28 0 47 18t19 48q0 32 -20 52.5t-50 20.5q-29 0 -47 -18t-18 -49z" />
<glyph unicode="&#x16f;" horiz-adv-x="1275" d="M129 467v614q111 27 233 27q91 0 91 -72v-581q0 -101 49.5 -158t134.5 -57q84 0 135 57.5t51 157.5v639h250q74 0 74 -60v-567q0 -226 -140 -358t-370 -132t-369 132t-139 358zM424 1376q0 86 60 143.5t153 57.5t153 -57.5t60 -143.5q0 -87 -60 -144.5t-153 -57.5 t-153 57.5t-60 144.5zM569 1378q0 -32 20 -51.5t50 -19.5q29 0 47.5 17.5t18.5 47.5q0 32 -20 53t-50 21q-29 0 -47.5 -18.5t-18.5 -49.5z" />
<glyph unicode="&#x170;" horiz-adv-x="1484" d="M152 598v825q123 29 247 29q95 0 95 -74v-805q0 -151 66 -235t181 -84q118 0 184 83.5t66 235.5v861h269q73 0 73 -60v-776q0 -289 -158.5 -456t-433.5 -167q-274 0 -431.5 167t-157.5 456zM336 1661l223 233q37 37 64 37q35 0 67 -26q65 -55 109 -148l-262 -194 q-39 -25 -60 -25q-27 0 -49 25zM766 1661l223 233q37 37 64 37q35 0 67 -26q65 -55 109 -148l-262 -194q-39 -25 -60 -25q-27 0 -49 25z" />
<glyph unicode="&#x171;" horiz-adv-x="1275" d="M129 467v614q111 27 233 27q91 0 91 -72v-581q0 -101 49.5 -158t134.5 -57q84 0 135 57.5t51 157.5v639h250q74 0 74 -60v-567q0 -226 -140 -358t-370 -132t-369 132t-139 358zM221 1305l223 233q37 37 64 37q33 0 67 -27q65 -55 109 -147l-262 -195q-38 -24 -60 -24 q-28 0 -49 24zM651 1305l223 233q37 37 64 37q34 0 68 -27q64 -54 108 -147l-262 -195q-38 -24 -59 -24q-29 0 -50 24z" />
<glyph unicode="&#x172;" horiz-adv-x="1484" d="M152 598v825q123 29 247 29q95 0 95 -74v-805q0 -151 66 -235t181 -84q118 0 184 83.5t66 235.5v861h269q73 0 73 -60v-776q0 -223 -96 -376t-270 -212q-71 -50 -113.5 -109.5t-42.5 -119.5q0 -35 22 -55.5t62 -20.5q28 0 49 6q53 16 53 -39v-116q-56 -33 -168 -33 q-116 0 -183.5 59.5t-67.5 155.5q0 63 32.5 127.5t89.5 111.5q-255 12 -401.5 177.5t-146.5 443.5z" />
<glyph unicode="&#x173;" horiz-adv-x="1275" d="M129 467v614q111 27 233 27q91 0 91 -72v-581q0 -101 49.5 -158t134.5 -57q84 0 135 57.5t51 157.5v639h250q74 0 74 -60v-567q0 -151 -65 -261.5t-181 -170.5q-199 -117 -199 -254q0 -35 22 -55.5t62 -20.5q29 0 50 6q53 16 53 -39v-116q-56 -33 -168 -33 q-116 0 -184 59.5t-68 155.5q0 64 33.5 129.5t91.5 112.5q-213 12 -339 141.5t-126 345.5z" />
<glyph unicode="&#x174;" horiz-adv-x="2308" d="M80 1352q62 43 135 71.5t123 28.5q39 0 61.5 -15t32.5 -51l270 -974q84 200 157 474.5t116 547.5h239q66 0 97.5 -18.5t42.5 -59.5l254 -944q83 209 157 481t119 541h223q62 0 90.5 -28.5t18.5 -80.5q-62 -299 -170 -629t-246 -628q-19 -38 -49 -53t-90 -15h-231 l-265 973q-44 -211 -124.5 -458t-170.5 -441q-18 -39 -49 -56.5t-90 -17.5h-225zM837 1659q0 27 29 53l233 211h78q29 0 46.5 -7t39.5 -28l248 -223l-78 -86q-35 -41 -65 -41q-34 0 -58 28l-147 150l-180 -180q-86 39 -133 92q-13 16 -13 31z" />
<glyph unicode="&#x175;" horiz-adv-x="1802" d="M76 1020q56 39 122 64.5t109 25.5q42 0 62.5 -14.5t29.5 -51.5l174 -688q99 313 158 738h225q59 0 88.5 -19.5t40.5 -62.5l158 -658q104 296 166 740h197q52 0 86 -27t24 -78q-41 -216 -113.5 -467.5t-162.5 -458.5q-27 -63 -88 -63h-273l-168 717q-72 -408 -172 -656 q-23 -61 -96 -61h-246zM585 1303q0 27 29 53l233 211h78q29 0 46.5 -7t39.5 -28l248 -223l-78 -86q-35 -41 -65 -41q-34 0 -58 28l-147 150l-180 -180q-86 39 -133 92q-13 16 -13 31z" />
<glyph unicode="&#x176;" horiz-adv-x="1382" d="M55 1300q56 63 125 106.5t125 43.5q27 0 44 -11t30 -38l313 -608q95 141 178 314.5t125 326.5h242q51 0 73 -24t9 -69q-64 -206 -189 -429.5t-278 -415.5v-496h-268q-74 0 -74 57v432zM362 1659q0 27 29 53l234 211h77q29 0 46.5 -7t39.5 -28l248 -223l-78 -86 q-35 -41 -65 -41q-32 0 -57 29l-148 149l-180 -180q-86 39 -133 92q-13 16 -13 31z" />
<glyph unicode="&#x177;" horiz-adv-x="1292" d="M137 432v641q111 27 236 27q88 0 88 -72v-604q0 -97 42.5 -147t121.5 -50q105 0 200 76v791h250q74 0 74 -60v-1022q0 -105 -35.5 -197t-104.5 -165t-182.5 -115.5t-257.5 -42.5q-192 0 -305.5 81.5t-113.5 207.5q0 75 44 140t125 104q-182 101 -182 407zM315 1303 q0 27 29 53l234 211h77q29 0 46.5 -7t39.5 -28l248 -223l-78 -86q-35 -41 -65 -41q-34 0 -58 28l-147 150l-180 -180q-86 39 -133 92q-13 16 -13 31zM471 -162q0 -45 32 -72.5t91 -27.5q102 0 166.5 69t64.5 193v117q-103 -115 -247 -133q-57 -19 -82 -59t-25 -87z" />
<glyph unicode="&#x178;" horiz-adv-x="1382" d="M55 1300q56 63 125 106.5t125 43.5q27 0 44 -11t30 -38l313 -608q95 141 178 314.5t125 326.5h242q51 0 73 -24t9 -69q-64 -206 -189 -429.5t-278 -415.5v-496h-268q-74 0 -74 57v432zM346 1771q0 65 39.5 104.5t101.5 39.5t107 -44t45 -114q0 -67 -39.5 -106t-101.5 -39 t-107 44t-45 115zM747 1771q0 65 40 104.5t102 39.5t106.5 -44t44.5 -114q0 -67 -39 -106t-102 -39q-62 0 -107 44t-45 115z" />
<glyph unicode="&#x179;" horiz-adv-x="1286" d="M96 203l625 952h-518q-68 0 -68 80q0 78 23 199h868q42 0 66.5 -13t42.5 -43q36 -58 49 -147l-623 -955h576q59 0 59 -73v-203h-942q-42 0 -67 12.5t-42 42.5q-36 58 -49 148zM451 1661l223 233q37 37 63 37q34 0 68 -27q65 -55 109 -147l-263 -195q-37 -24 -59 -24 q-28 0 -49 24z" />
<glyph unicode="&#x17a;" horiz-adv-x="1064" d="M88 193l471 649h-383q-67 0 -67 78q0 104 20 174h694q58 0 101 -50q40 -48 55 -145l-467 -641h420q59 0 59 -74v-184h-747q-79 0 -109 53q-33 53 -47 140zM330 1305l223 233q37 37 63 37q34 0 68 -27q65 -55 109 -147l-263 -195q-38 -24 -59 -24q-28 0 -49 24z" />
<glyph unicode="&#x17b;" horiz-adv-x="1286" d="M96 203l625 952h-518q-68 0 -68 80q0 78 23 199h868q42 0 66.5 -13t42.5 -43q36 -58 49 -147l-623 -955h576q59 0 59 -73v-203h-942q-42 0 -67 12.5t-42 42.5q-36 58 -49 148zM492 1734q0 65 39.5 104.5t101.5 39.5t108 -44t46 -114q0 -66 -39.5 -105.5t-102.5 -39.5 t-108 44t-45 115z" />
<glyph unicode="&#x17c;" horiz-adv-x="1064" d="M88 193l471 649h-383q-67 0 -67 78q0 104 20 174h694q58 0 101 -50q40 -48 55 -145l-467 -641h420q59 0 59 -74v-184h-747q-79 0 -109 53q-33 53 -47 140zM377 1378q0 65 39.5 104.5t101.5 39.5t108 -44t46 -114q0 -66 -39.5 -105.5t-102.5 -39.5t-108 44t-45 115z" />
<glyph unicode="&#x17d;" horiz-adv-x="1286" d="M96 203l625 952h-518q-68 0 -68 80q0 78 23 199h868q42 0 66.5 -13t42.5 -43q36 -58 49 -147l-623 -955h576q59 0 59 -73v-203h-942q-42 0 -67 12.5t-42 42.5q-36 58 -49 148zM319 1784q30 63 67 101t65 38q26 0 55 -29l149 -149l187 186l96 -90q33 -30 33 -53 q0 -22 -31 -49l-221 -201h-80q-45 0 -86 35z" />
<glyph unicode="&#x17e;" horiz-adv-x="1064" d="M88 193l471 649h-383q-67 0 -67 78q0 104 20 174h694q58 0 101 -50q40 -48 55 -145l-467 -641h420q59 0 59 -74v-184h-747q-79 0 -109 53q-33 53 -47 140zM201 1427q30 64 66.5 102t64.5 38q26 0 55 -29l150 -149l186 186l96 -90q33 -30 33 -53t-31 -50l-221 -200h-80 q-45 0 -86 35z" />
<glyph unicode="&#x17f;" horiz-adv-x="935" d="M53 920q0 96 19 174h170v65q0 178 95 269.5t269 91.5q124 0 222 -48.5t98 -97.5q0 -29 -12.5 -67.5t-32.5 -63.5q-68 29 -170 29q-76 0 -111 -31.5t-35 -97.5v-1143h-250q-73 0 -73 57v785h-123q-66 0 -66 78z" />
<glyph unicode="&#x191;" d="M6 -356q73 76 113.5 176.5t40.5 206.5v1407h860q67 0 67 -80q0 -97 -20 -199h-567v-352h418q59 0 59 -74v-203h-477v-460q0 -88 -15 -168q-17 -82 -59.5 -155.5t-92.5 -120.5t-100 -74t-88 -27q-41 0 -80.5 35t-58.5 88z" />
<glyph unicode="&#x192;" horiz-adv-x="935" d="M-117 -360q0 28 13 65.5t32 65.5q68 -29 168 -29q76 0 111 32t35 97v971h-123q-66 0 -66 78q0 96 19 174h170v65q0 178 95 269.5t269 91.5q124 0 222 -48.5t98 -97.5q0 -29 -12.5 -67.5t-32.5 -63.5q-68 29 -170 29q-146 0 -146 -129v-49h269q59 0 59 -74v-178h-328v-987 q0 -178 -94.5 -269.5t-267.5 -91.5q-125 0 -222.5 48.5t-97.5 97.5z" />
<glyph unicode="&#x1fa;" horiz-adv-x="1431" d="M47 72l481 1325q15 8 27 10q-51 57 -51 137q0 86 59.5 144.5t151.5 58.5q93 0 153 -58.5t60 -144.5q0 -73 -45 -127q24 -28 37 -65l489 -1352h-287q-42 0 -62.5 12.5t-29.5 40.5l-69 217h-490l-86 -270h-276q-34 0 -53 20.5t-9 51.5zM551 1868l162 176q31 31 57 31 q25 0 47 -19q51 -45 92 -119l-198 -147q-27 -21 -47 -21q-19 0 -39 23zM553 535h326l-164 505zM647 1546q0 -32 20 -51.5t50 -19.5q28 0 46.5 17.5t18.5 47.5q0 32 -20 53t-49 21t-47.5 -18.5t-18.5 -49.5z" />
<glyph unicode="&#x1fb;" horiz-adv-x="1230" d="M84 330q0 163 116.5 257.5t309.5 94.5q150 0 223 -39v62q0 176 -239 176q-155 0 -287 -66q-39 58 -39 121q0 40 55.5 82t154.5 71t208 29q231 0 353 -112.5t122 -331.5v-348q0 -90 65 -90h52q18 -52 18 -109q0 -53 -58 -97t-147 -44q-70 0 -130.5 38t-92.5 111 q-48 -77 -127.5 -118.5t-181.5 -41.5q-165 0 -270 101t-105 254zM381 1368q0 86 59.5 144.5t151.5 58.5q93 0 153 -58.5t60 -144.5t-60 -144.5t-153 -58.5q-92 0 -151.5 58.5t-59.5 144.5zM408 340q0 -61 39 -94t100 -33q60 0 112 35t76 98v117q-56 18 -151 18 q-84 0 -130 -38t-46 -103zM428 1692l162 176q30 30 57 30q26 0 47 -18q51 -45 92 -119l-198 -147q-27 -21 -47 -21q-19 0 -39 23zM524 1370q0 -32 20 -52t50 -20q28 0 46.5 18t18.5 48q0 32 -20 53t-49 21t-47.5 -18.5t-18.5 -49.5z" />
<glyph unicode="&#x1fc;" horiz-adv-x="1884" d="M35 80l620 1290q112 64 258 64h789q67 0 67 -80q0 -103 -22 -199h-567v-303h419q60 0 60 -74v-203h-479v-112q0 -94 30.5 -140.5t106.5 -46.5h409q60 0 60 -73v-203h-526q-133 0 -213.5 28.5t-121.5 86t-59 157.5h-377l-120 -272h-273q-38 0 -58 23t-3 57zM608 537h232 v512zM977 1661l223 233q37 37 63 37q34 0 68 -27q65 -55 109 -147l-263 -195q-37 -24 -59 -24q-28 0 -49 24z" />
<glyph unicode="&#x1fd;" horiz-adv-x="1849" d="M84 330q0 163 116.5 257.5t309.5 94.5q150 0 223 -39v62q0 176 -239 176q-155 0 -287 -66q-39 58 -39 121q0 30 32.5 62t87 59t134 44t164.5 17q244 0 356 -160q137 160 375 160q201 0 326.5 -115.5t125.5 -295.5q0 -107 -40 -183q-25 -47 -63 -66.5t-107 -19.5h-494 q41 -215 305 -215q147 0 254 58q17 -23 30 -64.5t13 -71.5q0 -55 -106.5 -112.5t-262.5 -57.5q-126 0 -234.5 49.5t-180.5 135.5q-56 -86 -155 -135.5t-228 -49.5q-198 0 -307 99.5t-109 255.5zM408 340q0 -61 39 -94t100 -33q80 0 134 62t54 188q-56 18 -151 18 q-84 0 -130 -38t-46 -103zM711 1305l223 233q37 37 63 37q34 0 68 -27q65 -55 109 -147l-263 -195q-37 -24 -59 -24q-28 0 -49 24zM1063 645h385q14 28 14 70q0 76 -43 117.5t-119 41.5q-100 0 -161.5 -60t-75.5 -169z" />
<glyph unicode="&#x1fe;" horiz-adv-x="1611" d="M82 15q-17 15 4 44l160 174q-150 197 -150 484q0 173 55.5 314.5t152 234t225 142.5t276.5 50q250 0 438 -143l109 119h127q27 0 42 -9.5t15 -23.5q0 -19 -16 -35l-156 -166q149 -195 149 -483q0 -174 -55.5 -315.5t-151.5 -234t-224.5 -142.5t-276.5 -50 q-256 0 -440 140l-107 -115h-127q-32 0 -49 15zM440 733q0 -135 45 -241l543 589q-97 97 -233 97q-73 0 -136 -27t-112.5 -80t-78 -139.5t-28.5 -198.5zM580 350q101 -96 235 -96q73 0 136 27t112 79.5t77.5 139t28.5 198.5q0 133 -45 242zM596 1661l223 233q37 37 63 37 q34 0 68 -27q65 -55 109 -147l-263 -195q-38 -24 -59 -24q-28 0 -49 24z" />
<glyph unicode="&#x1ff;" horiz-adv-x="1308" d="M87.5 18q-12.5 18 8.5 41l111 121q-119 148 -119 367q0 133 46 242.5t124.5 180.5t180 109.5t214.5 38.5q188 0 328 -96l68 72h116q41 0 54 -18.5t-9 -41.5l-110 -121q119 -151 119 -366q0 -133 -46.5 -243t-125 -181t-180 -109.5t-214.5 -38.5q-184 0 -329 97l-66 -72 h-117q-41 0 -53.5 18zM414 557q0 -63 18 -133l359 389q-63 51 -146 51q-104 0 -167.5 -78t-63.5 -229zM443 1305l223 233q37 37 63 37q34 0 68 -27q65 -55 109 -147l-263 -195q-37 -24 -59 -24q-28 0 -49 24zM516 281q61 -52 146 -52q104 0 167.5 78.5t63.5 229.5 q0 75 -21 131z" />
<glyph unicode="&#x218;" horiz-adv-x="1243" d="M106 1028q0 188 139 309t365 121q175 0 302.5 -66t189.5 -167q24 -43 24 -80q0 -55 -59 -84q-90 -46 -229 -57q-28 86 -84 131t-133 45q-75 0 -122.5 -40t-47.5 -104t60.5 -111t211.5 -91q219 -66 321.5 -171.5t102.5 -267.5q0 -188 -137.5 -304t-384.5 -116 q-202 0 -334.5 63.5t-132.5 141.5q0 37 15 80t36 74q75 -38 174.5 -59t196.5 -21q223 0 223 127q0 60 -53.5 98.5t-204.5 83.5q-221 66 -330 178.5t-109 286.5zM524 -221q0 60 44.5 99.5t111.5 39.5q66 0 113 -43.5t47 -110.5q0 -127 -95 -239q-43 -49 -92.5 -74.5 t-70.5 -15.5q-15 6 -28.5 24t-18.5 37q77 68 96 142q-48 14 -77.5 51.5t-29.5 89.5z" />
<glyph unicode="&#x219;" horiz-adv-x="1044" d="M106 784q0 149 114 241.5t300 92.5q138 0 246 -47.5t162 -130.5q20 -33 20 -63q0 -44 -47 -72q-78 -48 -192 -55q-19 61 -60 95t-100 34q-57 0 -88 -26t-31 -65q0 -50 39 -80.5t131 -54.5q187 -47 272.5 -129.5t85.5 -214.5q0 -149 -112.5 -241.5t-317.5 -92.5 q-154 0 -273.5 58.5t-119.5 122.5q0 70 45 133q142 -74 303 -74q152 0 152 80q0 38 -27.5 61t-103.5 41q-398 91 -398 387zM403 -221q0 60 44.5 99.5t111.5 39.5q66 0 113 -43.5t47 -110.5q0 -128 -94 -239q-43 -49 -93 -74.5t-71 -15.5q-15 6 -28.5 24t-18.5 37 q77 68 96 142q-48 14 -77.5 51.5t-29.5 89.5z" />
<glyph unicode="&#x21a;" horiz-adv-x="1292" d="M70 1235q0 83 22 199h1069q60 0 60 -74v-205h-406v-1155h-266q-74 0 -74 57v1098h-338q-67 0 -67 80zM489 -221q0 60 44.5 99.5t111.5 39.5q66 0 113 -43.5t47 -110.5q0 -128 -94 -239q-43 -49 -93 -74.5t-71 -15.5q-15 6 -28.5 24t-18.5 37q77 68 96 142 q-48 14 -77.5 51.5t-29.5 89.5z" />
<glyph unicode="&#x21b;" horiz-adv-x="966" d="M53 920q0 104 19 174h164v299q103 28 233 28q90 0 90 -71v-256h275q59 0 59 -74v-178h-334v-457q0 -83 38 -120.5t112 -37.5q81 0 147 27q18 -22 30.5 -58.5t12.5 -66.5q0 -56 -82.5 -105t-208.5 -49q-178 0 -275 106.5t-97 293.5v467h-117q-66 0 -66 78zM422 -221 q0 60 44.5 99.5t111.5 39.5q66 0 112.5 -43t46.5 -111q0 -128 -94 -239q-43 -49 -93 -74.5t-71 -15.5q-15 6 -28.5 24t-18.5 37q77 68 96 142q-47 14 -76.5 51.5t-29.5 89.5z" />
<glyph unicode="&#x2c6;" horiz-adv-x="860" d="M96 1262q0 27 29 53l233 211h78q29 0 46.5 -7t39.5 -28l248 -223l-78 -86q-35 -41 -65 -41q-34 0 -58 28l-147 150l-180 -180q-86 39 -133 92q-13 16 -13 31z" />
<glyph unicode="&#x2c7;" horiz-adv-x="860" d="M94 1386q30 64 66.5 102t64.5 38q27 0 56 -29l149 -149l186 186l97 -90q32 -29 32 -53t-30 -50l-221 -200h-80q-45 0 -86 35z" />
<glyph unicode="&#x2d8;" horiz-adv-x="860" d="M115 1452q29 22 72.5 35.5t80.5 13.5q30 0 45 -10t19 -37q20 -117 100 -117q48 0 72.5 38t27.5 124h150q35 0 48 -11t11 -36q-12 -133 -93.5 -211t-217.5 -78q-124 0 -209 71t-106 218z" />
<glyph unicode="&#x2d9;" horiz-adv-x="860" d="M283 1337q0 65 39.5 104.5t101.5 39.5t108 -44t46 -114q0 -66 -39.5 -105.5t-102.5 -39.5t-108 44t-45 115z" />
<glyph unicode="&#x2da;" horiz-adv-x="860" d="M217 1335q0 86 60 143.5t153 57.5t153 -57.5t60 -143.5q0 -87 -60 -144.5t-153 -57.5t-153 57.5t-60 144.5zM362 1337q0 -32 20 -51.5t50 -19.5q29 0 47.5 17.5t18.5 47.5q0 32 -20 53t-50 21q-29 0 -47.5 -18.5t-18.5 -49.5z" />
<glyph unicode="&#x2db;" horiz-adv-x="860" d="M217 -262q0 71 43 144t113 118h219q-66 -47 -103.5 -105.5t-37.5 -113.5q0 -35 22 -55.5t62 -20.5q28 0 49 6q53 16 53 -39v-116q-56 -33 -168 -33q-116 0 -184 59.5t-68 155.5z" />
<glyph unicode="&#x2dc;" horiz-adv-x="860" d="M111 1257q0 26 8 58q24 76 71.5 115.5t110.5 39.5q77 0 135 -45q56 -43 76 -43q21 0 32 22.5t17 76.5l129 -35q31 -9 42 -21.5t11 -33.5q0 -93 -60 -152t-132 -59q-73 0 -131 45q-55 43 -78 43q-21 0 -32 -20.5t-17 -67.5q-67 0 -135 22q-47 16 -47 55z" />
<glyph unicode="&#x2dd;" horiz-adv-x="860" d="M-16 1264l223 233q37 37 63 37q34 0 68 -27q64 -54 108 -147l-262 -195q-37 -24 -59 -24q-28 0 -49 24zM414 1264l223 233q37 37 63 37q34 0 68 -27q65 -55 109 -147l-263 -195q-38 -24 -59 -24q-28 0 -49 24z" />
<glyph unicode="&#x3a9;" horiz-adv-x="1630" d="M106 770q0 149 51.5 276.5t143.5 218t224 142t288 51.5q157 0 289.5 -51.5t224.5 -142t143.5 -218t51.5 -276.5q0 -150 -70 -282.5t-188 -211.5h178q59 0 59 -73v-203h-620v168q0 39 15.5 64t53.5 53q230 162 230 448q0 209 -102.5 327t-264.5 118q-160 0 -262 -118 t-102 -327q0 -144 59 -258t168 -190q39 -28 55.5 -53t16.5 -64v-168h-553q-68 0 -68 78q0 96 20 198h218q-118 79 -188.5 212t-70.5 282z" />
<glyph unicode="&#x400;" horiz-adv-x="1200" d="M156 479v955h862q67 0 67 -80q0 -103 -22 -199h-567v-303h419q60 0 60 -74v-203h-479v-92q0 -115 32 -161t105 -46h409q60 0 60 -73v-203h-506q-162 0 -256 44.5t-139 148.5t-45 286zM363 1757q44 93 108 147q34 27 70 27q24 0 61 -37l224 -233l-93 -99q-24 -24 -47 -24 q-24 0 -59 24z" />
<glyph unicode="&#x401;" horiz-adv-x="1200" d="M156 479v955h862q67 0 67 -80q0 -103 -22 -199h-567v-303h419q60 0 60 -74v-203h-479v-92q0 -115 32 -161t105 -46h409q60 0 60 -73v-203h-506q-162 0 -256 44.5t-139 148.5t-45 286zM266 1734q0 65 39.5 104.5t101.5 39.5t107 -44t45 -114q0 -66 -39.5 -105.5 t-101.5 -39.5t-107 44t-45 115zM667 1734q0 65 40 104.5t102 39.5t106.5 -44t44.5 -114q0 -66 -39 -105.5t-102 -39.5q-62 0 -107 44t-45 115z" />
<glyph unicode="&#x402;" horiz-adv-x="1581" d="M70 1235q0 83 22 199h1069q60 0 60 -74v-205h-406v-342q57 48 131.5 74t149.5 26q177 0 272.5 -119t95.5 -348v-364q0 -114 -37 -212.5t-92.5 -158.5t-115.5 -93.5t-111 -33.5q-40 0 -79.5 33.5t-59.5 85.5q74 77 114.5 177t40.5 206v352q0 105 -35 149t-108 44 q-94 0 -166 -60v-571h-266q-74 0 -74 57v1098h-338q-67 0 -67 80z" />
<glyph unicode="&#x403;" d="M160 57v1377h868q59 0 59 -74v-205h-587v-1155h-267q-73 0 -73 57zM428 1661l223 233q37 37 64 37q35 0 67 -26q65 -55 109 -148l-262 -194q-39 -25 -60 -25q-27 0 -49 25z" />
<glyph unicode="&#x404;" horiz-adv-x="1437" d="M98 754q0 159 52.5 292t143.5 222.5t217 139.5t271 50q197 0 345 -79t221 -212q18 -35 18 -71q0 -50 -59 -86q-96 -57 -232 -64q-42 116 -120 175t-183 59q-131 0 -220.5 -91t-107.5 -255h490q59 0 59 -74v-191h-524q50 -149 172.5 -232t294.5 -83q196 0 332 76 q21 -28 36 -72.5t15 -79.5q0 -43 -61 -90t-169 -80t-225 -33q-217 0 -391 96t-274.5 274.5t-100.5 408.5z" />
<glyph unicode="&#x405;" horiz-adv-x="1243" d="M106 1028q0 188 139 309t365 121q175 0 302.5 -66t189.5 -167q24 -43 24 -80q0 -55 -59 -84q-90 -46 -229 -57q-28 86 -84 131t-133 45q-75 0 -122.5 -40t-47.5 -104t60.5 -111t211.5 -91q219 -66 321.5 -171.5t102.5 -267.5q0 -188 -137.5 -304t-384.5 -116 q-202 0 -334.5 63.5t-132.5 141.5q0 37 15 80t36 74q75 -38 174.5 -59t196.5 -21q223 0 223 127q0 60 -53.5 98.5t-204.5 83.5q-221 66 -330 178.5t-109 286.5z" />
<glyph unicode="&#x406;" horiz-adv-x="679" d="M168 57v1364q110 29 250 29q92 0 92 -72v-1378h-268q-74 0 -74 57z" />
<glyph unicode="&#x407;" horiz-adv-x="679" d="M-6 1734q0 65 39.5 104.5t101.5 39.5t107 -44t45 -114q0 -66 -39.5 -105.5t-101.5 -39.5t-107 44t-45 115zM168 57v1364q110 29 250 29q92 0 92 -72v-1378h-268q-74 0 -74 57zM395 1734q0 65 40 104.5t102 39.5t106.5 -44t44.5 -114q0 -66 -39 -105.5t-102 -39.5 q-62 0 -107 44t-45 115z" />
<glyph unicode="&#x408;" horiz-adv-x="964" d="M27 137q0 86 45 154q102 -37 198 -37q101 0 150 52.5t49 162.5v952q110 29 250 29q92 0 92 -72v-878q0 -258 -103.5 -391.5t-326.5 -133.5q-139 0 -246.5 50.5t-107.5 111.5z" />
<glyph unicode="&#x409;" horiz-adv-x="2299" d="M16 129q0 84 45 154q72 -29 150 -29q46 0 77.5 21.5t57.5 81.5t41 163q59 393 59 914h914q74 0 74 -60v-481q124 55 286 55q221 0 359.5 -120t138.5 -330q0 -244 -160.5 -371t-453.5 -127h-66q-226 0 -335 116t-109 355v684h-310q-12 -407 -55 -680q-42 -264 -142.5 -382 t-277.5 -118q-108 0 -200.5 48t-92.5 106zM1434 492q0 -113 32 -164.5t99 -51.5h49q120 0 190 49t70 154t-60.5 153t-183.5 48q-107 0 -196 -29v-159z" />
<glyph unicode="&#x40a;" horiz-adv-x="2152" d="M160 57v1364q110 29 248 29q92 0 92 -72v-522h446v578h266q74 0 74 -60v-487q124 55 287 55q221 0 359.5 -120t138.5 -330q0 -244 -161 -371t-454 -127h-65q-227 0 -336 116.5t-109 354.5v115h-446v-580h-267q-73 0 -73 57zM1286 485q0 -113 32 -164t99 -51h49 q120 0 190 49t70 154t-60.5 153t-182.5 48q-108 0 -197 -29v-160z" />
<glyph unicode="&#x40b;" horiz-adv-x="1640" d="M70 1235q0 95 22 199h1069q60 0 60 -74v-205h-406v-342q57 48 131.5 74t149.5 26q177 0 272.5 -119t95.5 -348v-108q0 -90 66 -90h53q16 -46 16 -101q0 -65 -52 -111t-152 -46q-56 0 -102.5 16t-85.5 51t-61 98t-22 150v84q0 139 -30 190.5t-113 51.5q-94 0 -166 -60 v-571h-266q-74 0 -74 57v1098h-338q-67 0 -67 80z" />
<glyph unicode="&#x40c;" horiz-adv-x="1409" d="M160 59v1364q123 29 250 29q92 0 92 -74v-532q147 110 291 267t260 341q139 -41 192 -83.5t53 -100.5q0 -38 -26 -80q-132 -214 -371 -420q148 -300 297 -459q60 -63 131 -63h33q22 -58 22 -133q0 -52 -62 -96t-148 -44q-90 0 -159 43t-134 129q-125 160 -238 426 q-51 -35 -141 -90v-483h-269q-73 0 -73 59zM486 1661l223 233q37 37 63 37q34 0 68 -27q65 -55 109 -147l-263 -195q-37 -24 -59 -24q-28 0 -49 24z" />
<glyph unicode="&#x40d;" horiz-adv-x="1478" d="M160 78v1343q110 29 248 29q92 0 92 -72v-798l489 821q15 26 36 37.5t56 11.5q42 0 112.5 -28.5t123.5 -67.5v-1354h-266q-74 0 -74 57v795l-490 -821q-28 -47 -92 -47q-42 0 -112 27.5t-123 66.5zM481 1757q44 93 109 148q33 26 69 26q25 0 62 -37l223 -233l-92 -98 q-25 -25 -47 -25q-24 0 -60 25z" />
<glyph unicode="&#x40e;" horiz-adv-x="1378" d="M92 1313q58 65 122.5 100t117.5 35q41 0 62.5 -14t41.5 -54l277 -581q157 279 274 635h203q59 0 90 -23.5t31 -62.5q0 -15 -8 -39q-123 -321 -320.5 -681t-411.5 -628h-176q-57 0 -88 23.5t-31 58.5q0 27 23 53q102 136 227 334zM387 1851q29 22 73 36t81 14 q30 0 44.5 -10.5t18.5 -37.5q20 -116 101 -116q48 0 72.5 37.5t27.5 123.5h149q35 0 48.5 -11.5t11.5 -35.5q-12 -133 -94 -210.5t-218 -77.5q-124 0 -209 70.5t-106 217.5z" />
<glyph unicode="&#x40f;" horiz-adv-x="1495" d="M156 463v958q110 29 247 29q93 0 93 -72v-895q0 -120 28.5 -163.5t102.5 -43.5h366v1158h267q73 0 73 -60v-1374h-391v-301h-268q-74 0 -74 59v242q-235 0 -339.5 108.5t-104.5 354.5z" />
<glyph unicode="&#x410;" horiz-adv-x="1431" d="M47 72l481 1325q118 51 246 51q66 0 96 -20t50 -76l489 -1352h-287q-42 0 -62.5 12.5t-29.5 40.5l-69 217h-490l-86 -270h-276q-34 0 -53 20.5t-9 51.5zM553 535h326l-164 505z" />
<glyph unicode="&#x411;" horiz-adv-x="1370" d="M156 471v963h897q59 0 59 -74v-205h-616v-262q124 55 286 55q221 0 359.5 -120t138.5 -330q0 -244 -160.5 -371t-453.5 -127h-66q-226 0 -335 116t-109 355zM496 492q0 -113 32 -164.5t99 -51.5h49q120 0 190 49t70 154t-60.5 153t-183.5 48q-107 0 -196 -29v-159z" />
<glyph unicode="&#x412;" horiz-adv-x="1370" d="M156 461v973h549q249 0 383.5 -106t134.5 -281q0 -103 -53 -186t-140 -120q109 -38 174.5 -124.5t65.5 -210.5q0 -186 -137 -296t-396 -110h-159q-223 0 -322.5 108.5t-99.5 352.5zM498 850h196q92 0 138.5 44t46.5 116q0 74 -46.5 117.5t-138.5 43.5h-196v-321zM500 471 q0 -116 33.5 -161.5t113.5 -45.5h86q96 0 144.5 44.5t48.5 125.5q0 77 -52.5 119.5t-152.5 42.5h-221v-125z" />
<glyph unicode="&#x413;" d="M160 57v1377h868q59 0 59 -74v-205h-587v-1155h-267q-73 0 -73 57z" />
<glyph unicode="&#x414;" horiz-adv-x="1400" d="M53 -242v521h121q130 472 150 1155h780q74 0 74 -60v-1095h86q73 0 73 -60v-520h-268q-74 0 -74 59v242h-602v-301h-266q-74 0 -74 59zM514 276h324v879h-195q-28 -475 -129 -879z" />
<glyph unicode="&#x415;" horiz-adv-x="1200" d="M156 479v955h862q67 0 67 -80q0 -103 -22 -199h-567v-303h419q60 0 60 -74v-203h-479v-92q0 -115 32 -161t105 -46h409q60 0 60 -73v-203h-506q-162 0 -256 44.5t-139 148.5t-45 286z" />
<glyph unicode="&#x416;" horiz-adv-x="2093" d="M35 115q0 75 22 133h37q79 0 123 57q67 83 137 211.5t127 282.5q-221 197 -338 391q-22 40 -22 80q0 58 53.5 100.5t192.5 83.5q103 -172 240.5 -326.5t266.5 -257.5v553q127 29 250 29q93 0 93 -74v-508q129 101 266 256t241 328q141 -41 194.5 -83.5t53.5 -100.5 q0 -40 -22 -80q-119 -197 -340 -391q121 -317 264 -494q44 -57 125 -57h37q20 -62 20 -133q0 -55 -62.5 -97.5t-150.5 -42.5q-90 0 -157.5 46.5t-135.5 148.5q-113 162 -202 428q-80 -54 -131 -86v-512h-269q-74 0 -74 59v453q-66 41 -129 86q-82 -245 -204 -428 q-68 -99 -137.5 -147t-155.5 -48q-88 0 -150.5 42.5t-62.5 97.5z" />
<glyph unicode="&#x417;" horiz-adv-x="1257" d="M96 1143q0 39 21 74q67 108 195.5 174.5t314.5 66.5q218 0 355.5 -113t137.5 -292q0 -108 -59 -193.5t-154 -124.5q117 -40 184.5 -126t67.5 -201q0 -192 -150.5 -312.5t-422.5 -120.5q-129 0 -241 34t-173 82t-61 95q0 37 15 80t36 72q162 -84 375 -84q139 0 210.5 41 t71.5 117q0 182 -327 182h-25q-66 0 -66 80q0 90 21 184h76q142 0 211 45.5t69 126.5q0 68 -46.5 108t-125.5 40t-137.5 -45t-83.5 -136q-147 8 -235 66q-54 33 -54 80z" />
<glyph unicode="&#x418;" horiz-adv-x="1478" d="M160 78v1343q110 29 248 29q92 0 92 -72v-798l489 821q15 26 36 37.5t56 11.5q42 0 112.5 -28.5t123.5 -67.5v-1354h-266q-74 0 -74 57v795l-490 -821q-28 -47 -92 -47q-42 0 -112 27.5t-123 66.5z" />
<glyph unicode="&#x419;" horiz-adv-x="1478" d="M160 78v1343q110 29 248 29q92 0 92 -72v-798l489 821q15 26 36 37.5t56 11.5q42 0 112.5 -28.5t123.5 -67.5v-1354h-266q-74 0 -74 57v795l-490 -821q-28 -47 -92 -47q-42 0 -112 27.5t-123 66.5zM426 1851q29 22 73 36t81 14q30 0 44.5 -10.5t18.5 -37.5 q20 -116 100 -116q49 0 73.5 37.5t27.5 123.5h149q35 0 48.5 -11.5t11.5 -35.5q-12 -133 -94 -210.5t-218 -77.5q-124 0 -209 70.5t-106 217.5z" />
<glyph unicode="&#x41a;" horiz-adv-x="1409" d="M160 59v1364q123 29 250 29q92 0 92 -74v-532q147 110 291 267t260 341q139 -41 192 -83.5t53 -100.5q0 -38 -26 -80q-132 -214 -371 -420q148 -300 297 -459q60 -63 131 -63h33q22 -58 22 -133q0 -52 -62 -96t-148 -44q-90 0 -159 43t-134 129q-125 160 -238 426 q-51 -35 -141 -90v-483h-269q-73 0 -73 59z" />
<glyph unicode="&#x41b;" horiz-adv-x="1622" d="M16 129q0 84 45 154q72 -29 150 -29q71 0 112 57.5t66 216.5q57 359 57 906h943q73 0 73 -60v-1374h-268q-74 0 -74 57v1098h-336q-11 -359 -55 -670q-37 -266 -141.5 -388t-278.5 -122q-108 0 -200.5 48.5t-92.5 105.5z" />
<glyph unicode="&#x41c;" horiz-adv-x="1855" d="M117 63l141 1309q58 34 128.5 56t117.5 22q35 0 55.5 -12t38.5 -45l326 -605l350 646h242q67 0 73 -56l150 -1378h-277q-74 0 -80 61l-79 838l-234 -428q-24 -47 -98 -47h-166l-258 475l-86 -899h-271q-38 0 -57 14.5t-16 48.5z" />
<glyph unicode="&#x41d;" horiz-adv-x="1488" d="M160 57v1364q110 29 248 29q92 0 92 -72v-522h485v578h268q74 0 74 -60v-1374h-268q-74 0 -74 57v523h-485v-580h-267q-73 0 -73 57z" />
<glyph unicode="&#x41e;" horiz-adv-x="1611" d="M98 717q0 174 55.5 315.5t152 234t225 142t276.5 49.5q147 0 275 -49.5t224.5 -142t151.5 -234t55 -315.5t-55 -315.5t-151.5 -234t-224.5 -142.5t-275 -50q-148 0 -276.5 50t-225 142.5t-152 234t-55.5 315.5zM440 733q0 -217 108.5 -348t268.5 -131q152 0 253 113.5 t101 332.5q0 217 -108 348.5t-268 131.5q-152 0 -253.5 -114t-101.5 -333z" />
<glyph unicode="&#x41f;" horiz-adv-x="1488" d="M160 57v1377h1093q74 0 74 -60v-1374h-266q-74 0 -74 57v1098h-487v-1155h-267q-73 0 -73 57z" />
<glyph unicode="&#x420;" horiz-adv-x="1335" d="M160 59v1375h506q275 0 432 -143t157 -396q0 -238 -156 -379t-399 -141q-102 0 -198 26v-401h-269q-73 0 -73 59zM502 668q67 -13 143 -13q123 0 194.5 63.5t71.5 184.5q0 124 -68 188t-192 64h-149v-487z" />
<glyph unicode="&#x421;" horiz-adv-x="1437" d="M98 754q0 159 52.5 292t143.5 222.5t217 139.5t271 50q197 0 345 -79t221 -212q18 -35 18 -71q0 -50 -59 -86q-96 -57 -232 -64q-42 116 -120 175t-183 59q-145 0 -238.5 -112t-93.5 -308q0 -229 136 -367.5t360 -138.5q196 0 332 76q21 -28 36 -72.5t15 -79.5 q0 -43 -61 -90t-169 -80t-225 -33q-217 0 -391 96t-274.5 274.5t-100.5 408.5z" />
<glyph unicode="&#x422;" horiz-adv-x="1292" d="M70 1235q0 83 22 199h1069q60 0 60 -74v-205h-406v-1155h-266q-74 0 -74 57v1098h-338q-67 0 -67 80z" />
<glyph unicode="&#x423;" horiz-adv-x="1378" d="M92 1313q58 65 122.5 100t117.5 35q41 0 62.5 -14t41.5 -54l277 -581q157 279 274 635h203q59 0 90 -23.5t31 -62.5q0 -15 -8 -39q-123 -321 -320.5 -681t-411.5 -628h-176q-57 0 -88 23.5t-31 58.5q0 27 23 53q102 136 227 334z" />
<glyph unicode="&#x424;" horiz-adv-x="1630" d="M84 723q0 113 45 211t122.5 167t178.5 112t215 55v155q123 29 248 29q94 0 94 -74v-104q113 -12 213.5 -55t178 -111.5t122.5 -167t45 -211.5q0 -114 -45 -212.5t-122.5 -167t-178 -112t-213.5 -55.5v-182h-268q-74 0 -74 59v119q-114 12 -215 55t-178.5 111.5 t-122.5 166.5t-45 212zM422 741q0 -110 61.5 -189t167.5 -108v568q-100 -14 -164.5 -84.5t-64.5 -186.5zM979 438q100 14 165.5 84t65.5 187q0 109 -62 188.5t-169 108.5v-568z" />
<glyph unicode="&#x425;" horiz-adv-x="1445" d="M94 98q64 172 173.5 338t256.5 297l-415 543q140 174 243 174q40 0 72 -43l321 -424q169 215 240 451h264q47 0 70.5 -28t5.5 -73q-134 -347 -395 -588l452 -591q-55 -71 -120 -121.5t-123 -50.5q-37 0 -70 41l-364 475q-180 -213 -271 -498h-264q-47 0 -70.5 25.5 t-5.5 72.5z" />
<glyph unicode="&#x426;" horiz-adv-x="1556" d="M156 463v958q110 29 247 29q93 0 93 -72v-895q0 -120 28.5 -163.5t102.5 -43.5h366v1158h267q73 0 73 -60v-1098h86q74 0 74 -59v-518h-268q-74 0 -74 59v242h-551q-235 0 -339.5 108.5t-104.5 354.5z" />
<glyph unicode="&#x427;" horiz-adv-x="1425" d="M137 934v487q110 29 250 29q92 0 92 -72v-450q0 -122 69 -185t189 -63q111 0 187 39v715h268q74 0 74 -60v-1374h-269q-73 0 -73 57v408q-106 -64 -277 -64q-223 0 -366.5 141.5t-143.5 391.5z" />
<glyph unicode="&#x428;" horiz-adv-x="1921" d="M156 461v960q110 29 247 29q93 0 93 -72v-895q0 -120 28.5 -163.5t102.5 -43.5h159v1158h269q73 0 73 -60v-1098h289v1158h269q73 0 73 -60v-1374h-1159q-235 0 -339.5 108.5t-104.5 352.5z" />
<glyph unicode="&#x429;" horiz-adv-x="1982" d="M156 461v960q110 29 247 29q93 0 93 -72v-895q0 -120 28.5 -163.5t102.5 -43.5h159v1158h269q73 0 73 -60v-1098h289v1158h269q73 0 73 -60v-1098h86q74 0 74 -59v-518h-268q-74 0 -74 59v242h-977q-235 0 -339.5 108.5t-104.5 352.5z" />
<glyph unicode="&#x42a;" horiz-adv-x="1681" d="M70 1235q0 83 22 199h656q67 0 67 -66v-475q124 55 287 55q221 0 359 -120t138 -330q0 -244 -160.5 -371t-453.5 -127h-65q-227 0 -336 116.5t-109 354.5v684h-338q-67 0 -67 80zM815 492q0 -113 32 -164.5t99 -51.5h49q120 0 190 49t70 154t-60.5 153t-182.5 48 q-108 0 -197 -29v-159z" />
<glyph unicode="&#x42b;" horiz-adv-x="1970" d="M156 471v950q110 29 247 29q93 0 93 -72v-485q124 55 286 55q221 0 359.5 -120t138.5 -330q0 -244 -160.5 -371t-453.5 -127h-66q-226 0 -335 116t-109 355zM496 492q0 -113 32 -164.5t99 -51.5h49q120 0 190 49t70 154t-60.5 153t-183.5 48q-107 0 -196 -29v-159z M1466 57v1364q113 29 250 29q92 0 92 -72v-1378h-268q-74 0 -74 57z" />
<glyph unicode="&#x42c;" horiz-adv-x="1361" d="M156 471v950q110 29 247 29q93 0 93 -72v-485q124 55 286 55q221 0 359.5 -120t138.5 -330q0 -244 -160.5 -371t-453.5 -127h-66q-226 0 -335 116t-109 355zM496 492q0 -113 32 -164.5t99 -51.5h49q120 0 190 49t70 154t-60.5 153t-183.5 48q-107 0 -196 -29v-159z" />
<glyph unicode="&#x42d;" horiz-adv-x="1445" d="M78 1096q0 32 20 71q73 133 220.5 212t345.5 79q145 0 271 -50t217 -139.5t143.5 -222.5t52.5 -292q0 -230 -100.5 -408.5t-274.5 -274.5t-391 -96q-117 0 -225.5 33t-170 80t-61.5 90q0 34 15.5 78.5t35.5 73.5q140 -76 334 -76q173 0 295.5 82t167.5 233h-455 q-65 0 -65 80q0 103 20 185h526q-17 163 -107 254.5t-218 91.5q-107 0 -184.5 -59t-118.5 -175q-134 7 -234 64q-59 38 -59 86z" />
<glyph unicode="&#x42e;" horiz-adv-x="2172" d="M160 59v1364q123 29 250 29q92 0 92 -74v-526h168q25 190 124.5 328.5t247 208t326.5 69.5q148 0 276.5 -49.5t225 -142t152 -234t55.5 -315.5t-55.5 -315.5t-152 -234t-225 -142.5t-276.5 -50q-271 0 -463.5 158t-234.5 440h-168v-573h-269q-73 0 -73 59zM1001 733 q0 -217 108.5 -348t268.5 -131q73 0 136 27t112.5 79.5t78 140t28.5 199.5q0 217 -108.5 348.5t-268.5 131.5q-152 0 -253.5 -114t-101.5 -333z" />
<glyph unicode="&#x42f;" horiz-adv-x="1355" d="M74 117q0 69 22 127h39q65 0 119 45q72 58 149 196q-123 61 -194.5 173.5t-71.5 263.5q0 239 158 375.5t430 136.5h405q64 0 64 -70v-1364h-266q-74 0 -74 57v381q-41 -15 -137 -24q-82 -212 -219 -346q-96 -93 -217 -93q-92 0 -149.5 45.5t-57.5 96.5zM485 922 q0 -112 69.5 -170t188.5 -58q66 0 111 11v450h-109q-123 0 -191.5 -59.5t-68.5 -173.5z" />
<glyph unicode="&#x430;" horiz-adv-x="1230" d="M84 330q0 163 116.5 257.5t309.5 94.5q150 0 223 -39v62q0 176 -239 176q-155 0 -287 -66q-39 58 -39 121q0 40 55.5 82t154.5 71t208 29q231 0 353 -112.5t122 -331.5v-348q0 -90 65 -90h52q18 -52 18 -109q0 -53 -58 -97t-147 -44q-70 0 -130.5 38t-92.5 111 q-48 -77 -127.5 -118.5t-181.5 -41.5q-165 0 -270 101t-105 254zM408 340q0 -61 39 -94t100 -33q60 0 112 35t76 98v117q-56 18 -151 18q-84 0 -130 -38t-46 -103z" />
<glyph unicode="&#x431;" horiz-adv-x="1318" d="M125 625q0 156 21 277t58.5 204.5t96.5 142t128.5 91t160.5 49.5l229 43q132 24 256 92q27 -26 49.5 -68t22.5 -76q0 -60 -89.5 -115.5t-223.5 -78.5q-213 -35 -290 -100t-87 -220q59 68 148.5 103t193.5 35q90 0 170 -34.5t140 -97t95 -155t35 -201.5 q0 -234 -155.5 -387.5t-397.5 -153.5q-256 0 -408.5 177t-152.5 473zM446 602q0 -175 66.5 -275t173.5 -100q99 0 164 75t65 204q0 120 -62 183t-167 63q-64 0 -127 -31t-113 -86v-33z" />
<glyph unicode="&#x432;" horiz-adv-x="1157" d="M137 356v738h490q185 0 292 -88.5t107 -219.5q0 -70 -33 -127t-92 -86q79 -29 127.5 -93t48.5 -154q0 -144 -109.5 -235t-308.5 -91h-188q-169 0 -251.5 85.5t-82.5 270.5zM455 338q0 -60 15.5 -83.5t53.5 -23.5h92q144 0 144 111q0 53 -40 81t-116 28h-149v-113z M455 657h153q55 0 84 28t29 75q0 46 -29 73t-84 27h-153v-203z" />
<glyph unicode="&#x433;" horiz-adv-x="985" d="M141 59v1035h731q60 0 60 -74v-178h-465v-842h-252q-74 0 -74 59z" />
<glyph unicode="&#x434;" horiz-adv-x="1239" d="M43 -182v434h119q107 321 137 842h676q74 0 74 -60v-782h75q74 0 74 -59v-435h-252q-74 0 -74 60v182h-505v-242h-250q-74 0 -74 60zM471 252h266v590h-162q-24 -319 -104 -590z" />
<glyph unicode="&#x435;" horiz-adv-x="1204" d="M88 543q0 171 76 303t204.5 202t286.5 70q214 0 341.5 -115t127.5 -296q0 -106 -41 -183q-25 -47 -63.5 -66.5t-108.5 -19.5h-491q21 -111 100 -165t203 -54q151 0 256 57q17 -23 30 -62.5t13 -68.5q0 -58 -105.5 -114t-263.5 -56q-248 0 -406.5 161.5t-158.5 406.5z M418 645h383q16 29 16 70q0 76 -43 117.5t-119 41.5q-100 0 -162.5 -60t-74.5 -169z" />
<glyph unicode="&#x436;" horiz-adv-x="1693" d="M43 121q0 57 20 119h43q66 0 115 84q57 94 139 311q-176 153 -225 252q-18 38 -18 67q0 49 49.5 87.5t175.5 78.5q62 -106 154 -211t190 -182v352q106 29 232 29q88 0 88 -72v-309q96 76 187.5 180.5t156.5 212.5q128 -41 176.5 -79.5t48.5 -90.5q0 -28 -16 -59 q-32 -56 -93.5 -124.5t-134.5 -131.5q80 -229 137 -316q29 -43 58 -61t67 -18h35q21 -56 21 -119q0 -53 -55 -94t-136 -41q-137 0 -235 170q-79 138 -117 321q-83 -50 -100 -59v-418h-246q-74 0 -74 57v361q-59 30 -100 59q-51 -221 -141 -356t-212 -135q-82 0 -136 43 t-54 92z" />
<glyph unicode="&#x437;" horiz-adv-x="1097" d="M106 870q0 31 21 66q53 84 165 133t259 49q187 0 303.5 -88t116.5 -219q0 -86 -46.5 -151t-129.5 -99q95 -30 149.5 -95t54.5 -157q0 -149 -123.5 -241.5t-336.5 -92.5q-168 0 -293 60.5t-125 124.5q0 29 12.5 65.5t30.5 61.5q138 -72 299 -72q211 0 211 111 q0 108 -215 108h-27q-31 0 -45 18t-14 60q0 82 18 147h60q196 0 196 119q0 43 -34 72t-93 29q-133 0 -176 -134q-113 6 -190 56q-48 31 -48 69z" />
<glyph unicode="&#x438;" horiz-adv-x="1290" d="M141 82v997q106 29 236 29q88 0 88 -72v-524l373 551q27 45 84 45q45 0 111 -28.5t114 -67.5v-1012h-250q-74 0 -74 57v523l-374 -551q-28 -41 -82 -41q-47 0 -113 27t-113 67z" />
<glyph unicode="&#x439;" horiz-adv-x="1290" d="M141 82v997q106 29 236 29q88 0 88 -72v-524l373 551q27 45 84 45q45 0 111 -28.5t114 -67.5v-1012h-250q-74 0 -74 57v523l-374 -551q-28 -41 -82 -41q-47 0 -113 27t-113 67zM328 1493q29 22 72.5 35.5t80.5 13.5q30 0 45 -10t19 -37q20 -117 100 -117q48 0 72.5 38 t27.5 124h150q35 0 48 -11t11 -36q-12 -133 -93.5 -211t-217.5 -78q-124 0 -209 71t-106 218z" />
<glyph unicode="&#x43a;" horiz-adv-x="1236" d="M141 59v1022q115 27 236 27q90 0 90 -72v-344q115 73 235.5 193.5t190.5 236.5q131 -41 179 -80.5t48 -93.5q0 -32 -22 -69q-86 -139 -281 -283q40 -75 94 -155.5t93 -127.5q37 -45 63.5 -62.5t56.5 -17.5h47q21 -56 21 -106q0 -58 -58.5 -99.5t-146.5 -41.5 q-143 0 -256 159q-86 128 -160 289q-14 -7 -50 -26.5t-54 -28.5v-379h-252q-74 0 -74 59z" />
<glyph unicode="&#x43b;" horiz-adv-x="1372" d="M16 113q0 76 41 135q48 -23 105 -23q60 0 92 38.5t45 148.5q35 297 35 682h821q74 0 74 -60v-1034h-250q-74 0 -74 57v785h-262q-10 -323 -41 -508q-30 -180 -110 -269.5t-224 -89.5q-88 0 -170 44t-82 94z" />
<glyph unicode="&#x43c;" horiz-adv-x="1562" d="M104 53l113 977q57 34 125.5 56t114.5 22q33 0 52 -12.5t38 -46.5l231 -402l252 447h232q69 0 75 -60l123 -1034h-254q-37 0 -53.5 13.5t-19.5 43.5l-72 600l-164 -276q-17 -35 -66 -35h-153l-184 311l-76 -657h-240q-36 0 -56.5 14.5t-17.5 38.5z" />
<glyph unicode="&#x43d;" horiz-adv-x="1261" d="M141 57v1022q106 29 236 29q88 0 88 -72v-346h330v404h249q74 0 74 -60v-1034h-250q-73 0 -73 57v381h-330v-438h-250q-74 0 -74 57z" />
<glyph unicode="&#x43e;" horiz-adv-x="1308" d="M88 547q0 133 46 242.5t124.5 180.5t180 109.5t214.5 38.5t214.5 -38.5t180.5 -109.5t125 -180.5t46 -242.5t-46.5 -243t-125 -181t-180 -109.5t-214.5 -38.5t-214.5 38.5t-180 110t-124.5 181t-46 242.5zM414 557q0 -153 69.5 -240.5t178.5 -87.5q104 0 167.5 78.5 t63.5 229.5q0 153 -69.5 240t-178.5 87q-104 0 -167.5 -78t-63.5 -229z" />
<glyph unicode="&#x43f;" horiz-adv-x="1261" d="M141 57v1037h903q74 0 74 -60v-1034h-250q-73 0 -73 57v785h-330v-842h-250q-74 0 -74 57z" />
<glyph unicode="&#x440;" horiz-adv-x="1331" d="M141 -375v1454q120 29 236 29q90 0 90 -74v-90q114 174 317 174q197 0 327 -144.5t130 -381.5q0 -141 -43 -259t-115 -195.5t-165 -120t-193 -42.5q-162 0 -258 99v-510h-252q-74 0 -74 61zM467 289q66 -60 172 -60q120 0 197 100t77 255q0 135 -55.5 207.5t-159.5 72.5 q-73 0 -135.5 -49.5t-95.5 -140.5v-385z" />
<glyph unicode="&#x441;" d="M88 578q0 239 149 389.5t396 150.5q153 0 268 -59t170 -154q21 -35 21 -69q0 -47 -64 -84q-79 -47 -211 -62q-40 174 -190 174q-97 0 -155 -74t-58 -206q0 -163 98 -259t254 -96q141 0 252 62q18 -27 31.5 -67t13.5 -68q0 -26 -27.5 -57t-74.5 -59t-121 -46.5t-156 -18.5 q-120 0 -228 42.5t-189.5 119t-130 191.5t-48.5 250z" />
<glyph unicode="&#x442;" horiz-adv-x="1118" d="M57 920q0 96 19 174h923q60 0 60 -74v-178h-338v-842h-252q-74 0 -74 57v785h-272q-66 0 -66 78z" />
<glyph unicode="&#x443;" horiz-adv-x="1292" d="M137 432v641q111 27 236 27q88 0 88 -72v-604q0 -97 42.5 -147t121.5 -50q105 0 200 76v791h250q74 0 74 -60v-1022q0 -105 -35.5 -197t-104.5 -165t-182.5 -115.5t-257.5 -42.5q-192 0 -305.5 81.5t-113.5 207.5q0 75 44 140t125 104q-182 101 -182 407zM471 -162 q0 -45 32 -72.5t91 -27.5q102 0 166.5 69t64.5 193v117q-103 -115 -247 -133q-57 -19 -82 -59t-25 -87z" />
<glyph unicode="&#x444;" horiz-adv-x="1617" d="M84 547q0 232 151.5 379t409.5 180v375q103 28 221 28q88 0 88 -71v-330q266 -28 423 -176t157 -385q0 -239 -157 -386.5t-423 -174.5v-381h-235q-74 0 -74 59v324q-258 30 -409.5 177t-151.5 382zM406 559q0 -122 64.5 -205.5t174.5 -113.5v620q-112 -22 -175.5 -99.5 t-63.5 -201.5zM954 227q121 19 189.5 98.5t68.5 209.5q0 124 -70.5 209t-187.5 112v-629z" />
<glyph unicode="&#x445;" horiz-adv-x="1196" d="M70 55q0 9 8 37q45 120 128 237.5t195 215.5l-305 403q117 158 219 158q45 0 78 -45l223 -297q102 121 154 330h246q80 0 80 -60q0 -17 -6 -35q-36 -111 -119.5 -231t-190.5 -221l174 -234q32 -44 59 -60.5t68 -16.5h37q21 -54 21 -109q0 -54 -53.5 -97.5t-139.5 -43.5 q-65 0 -120.5 36t-114.5 115l-146 193q-112 -138 -170 -330h-241q-84 0 -84 55z" />
<glyph unicode="&#x446;" horiz-adv-x="1312" d="M137 356v723q106 29 236 29q88 0 88 -72v-635q0 -90 21.5 -119.5t78.5 -29.5h240v842h250q73 0 73 -60v-782h72q74 0 74 -59v-435h-250q-74 0 -74 60v182h-434q-96 0 -163.5 17.5t-116.5 58t-72 109.5t-23 171z" />
<glyph unicode="&#x447;" horiz-adv-x="1255" d="M115 766v313q106 29 235 29q88 0 88 -72v-278q0 -207 156 -207q53 0 105 20.5t89 55.5v467h250q74 0 74 -60v-1034h-250q-74 0 -74 57v353q-53 -56 -128 -88.5t-162 -32.5q-174 0 -278.5 124.5t-104.5 352.5z" />
<glyph unicode="&#x448;" horiz-adv-x="1683" d="M137 356v723q106 29 236 29q88 0 88 -72v-635q0 -90 21.5 -119.5t78.5 -29.5h117v842h250q73 0 73 -60v-782h216v842h251q72 0 72 -60v-1034h-1028q-96 0 -163.5 17.5t-116.5 58t-72 109.5t-23 171z" />
<glyph unicode="&#x449;" horiz-adv-x="1730" d="M137 356v723q106 29 236 29q88 0 88 -72v-635q0 -90 21.5 -119.5t78.5 -29.5h117v842h250q73 0 73 -60v-782h216v842h251q72 0 72 -60v-782h74q74 0 74 -59v-435h-250q-74 0 -74 60v182h-852q-96 0 -163.5 17.5t-116.5 58t-72 109.5t-23 171z" />
<glyph unicode="&#x44a;" horiz-adv-x="1423" d="M57 920q0 96 19 174h569q74 0 74 -60v-289q103 39 223 39q177 0 291.5 -102t114.5 -276q0 -191 -135.5 -298.5t-393.5 -107.5h-49q-96 0 -163.5 17.5t-116.5 58t-72 109.5t-23 171v486h-272q-66 0 -66 78zM719 401q0 -90 21.5 -119.5t78.5 -29.5h33q89 0 130.5 34 t41.5 109q0 137 -170 137q-73 0 -135 -20v-111z" />
<glyph unicode="&#x44b;" horiz-adv-x="1748" d="M137 356v723q106 29 236 29q88 0 88 -72v-291q103 39 223 39q177 0 291.5 -102t114.5 -276q0 -191 -135.5 -298.5t-393.5 -107.5h-49q-96 0 -163.5 17.5t-116.5 58t-72 109.5t-23 171zM461 401q0 -90 21.5 -119.5t78.5 -29.5h33q89 0 130.5 34t41.5 109q0 137 -170 137 q-73 0 -135 -20v-111zM1231 274v805q106 29 235 29q88 0 88 -72v-712q0 -91 66 -91h53q19 -63 19 -106q0 -54 -58.5 -97.5t-146.5 -43.5q-51 0 -95.5 15.5t-81.5 48t-58 90t-21 134.5z" />
<glyph unicode="&#x44c;" horiz-adv-x="1165" d="M137 356v723q106 29 236 29q88 0 88 -72v-291q103 39 223 39q177 0 291.5 -102t114.5 -276q0 -191 -135.5 -298.5t-393.5 -107.5h-49q-96 0 -163.5 17.5t-116.5 58t-72 109.5t-23 171zM461 401q0 -90 21.5 -119.5t78.5 -29.5h33q89 0 130.5 34t41.5 109q0 137 -170 137 q-73 0 -135 -20v-111z" />
<glyph unicode="&#x44d;" d="M59 836q0 34 21 69q55 95 170 154t268 59q247 0 396 -150.5t149 -389.5q0 -135 -48.5 -250t-130 -191.5t-189.5 -119t-228 -42.5q-82 0 -156 18.5t-121 46.5t-74.5 59t-27.5 57q0 28 13.5 68t31.5 67q111 -62 252 -62q113 0 197.5 51t124.5 144h-269q-67 0 -67 80 q0 90 20 160h340q-17 95 -72 147.5t-135 52.5q-150 0 -190 -174q-132 15 -211 62q-64 37 -64 84z" />
<glyph unicode="&#x44e;" horiz-adv-x="1802" d="M141 59v1022q115 27 236 27q90 0 90 -72v-348h131q43 201 196.5 315.5t354.5 114.5q113 0 214.5 -38.5t180 -109.5t124.5 -180.5t46 -242.5t-46 -242.5t-124.5 -181t-180 -110t-214.5 -38.5q-136 0 -252.5 52.5t-199 158.5t-105.5 250h-125v-436h-252q-74 0 -74 59z M909 557q0 -153 69.5 -240.5t178.5 -87.5q104 0 168 78.5t64 229.5q0 153 -69.5 240t-178.5 87q-104 0 -168 -78t-64 -229z" />
<glyph unicode="&#x44f;" horiz-adv-x="1185" d="M106 98q0 56 19 111h39q53 0 90 37q58 55 100 143q-98 46 -153.5 128.5t-55.5 195.5q0 176 126.5 278.5t330.5 102.5h369q73 0 73 -60v-1034h-249q-74 0 -74 59v285q-47 -12 -100 -12q-52 -135 -125 -234q-91 -123 -211 -123q-78 0 -128.5 39.5t-50.5 83.5zM465 713 q0 -68 50 -107t130 -39q44 0 76 4v291h-82q-174 0 -174 -149z" />
<glyph unicode="&#x450;" horiz-adv-x="1204" d="M88 543q0 171 76 303t204.5 202t286.5 70q214 0 341.5 -115t127.5 -296q0 -106 -41 -183q-25 -47 -63.5 -66.5t-108.5 -19.5h-491q21 -111 100 -165t203 -54q151 0 256 57q17 -23 30 -62.5t13 -68.5q0 -58 -105.5 -114t-263.5 -56q-248 0 -406.5 161.5t-158.5 406.5z M379 1401q44 93 108 147q34 27 70 27q24 0 61 -37l224 -233l-93 -99q-24 -24 -47 -24q-24 0 -59 24zM418 645h383q16 29 16 70q0 76 -43 117.5t-119 41.5q-100 0 -162.5 -60t-74.5 -169z" />
<glyph unicode="&#x451;" horiz-adv-x="1204" d="M88 543q0 171 76 303t204.5 202t286.5 70q214 0 341.5 -115t127.5 -296q0 -106 -41 -183q-25 -47 -63.5 -66.5t-108.5 -19.5h-491q21 -111 100 -165t203 -54q151 0 256 57q17 -23 30 -62.5t13 -68.5q0 -58 -105.5 -114t-263.5 -56q-248 0 -406.5 161.5t-158.5 406.5z M285 1378q0 65 39.5 104.5t101.5 39.5t107 -44t45 -114q0 -66 -39.5 -105.5t-102.5 -39.5q-62 0 -106.5 44t-44.5 115zM418 645h383q16 29 16 70q0 76 -43 117.5t-119 41.5q-100 0 -162.5 -60t-74.5 -169zM686 1378q0 65 39.5 104.5t101.5 39.5t107 -44t45 -114 q0 -66 -39.5 -105.5t-101.5 -39.5t-107 44t-45 115z" />
<glyph unicode="&#x452;" horiz-adv-x="1290" d="M18 1260q0 60 13 114h110v107q103 28 236 28q88 0 88 -71v-64h266q27 0 39 -15t12 -50v-101h-317v-233q58 67 144 105t173 38q179 0 275 -118.5t96 -348.5v-633q0 -125 -49.5 -240t-131.5 -185t-171 -70q-76 0 -125 108q153 163 153 385v652q0 97 -42.5 146.5 t-122.5 49.5q-51 0 -104.5 -20.5t-94.5 -55.5v-788h-250q-74 0 -74 57v1151h-67q-56 0 -56 52z" />
<glyph unicode="&#x453;" horiz-adv-x="985" d="M141 59v1035h731q60 0 60 -74v-178h-465v-842h-252q-74 0 -74 59zM309 1305l223 233q37 37 64 37q34 0 68 -27q64 -54 108 -147l-262 -195q-37 -24 -59 -24q-29 0 -50 24z" />
<glyph unicode="&#x454;" d="M88 578q0 239 149 389.5t396 150.5q153 0 268 -59t170 -154q21 -35 21 -69q0 -47 -64 -84q-79 -47 -211 -62q-40 174 -190 174q-80 0 -135 -52.5t-72 -147.5h340q20 -70 20 -160q0 -80 -67 -80h-269q40 -93 124.5 -144t197.5 -51q141 0 252 62q18 -27 31.5 -67t13.5 -68 q0 -26 -27.5 -57t-74.5 -59t-121 -46.5t-156 -18.5q-120 0 -228 42.5t-189.5 119t-130 191.5t-48.5 250z" />
<glyph unicode="&#x455;" horiz-adv-x="1044" d="M106 784q0 149 114 241.5t300 92.5q138 0 246 -47.5t162 -130.5q20 -33 20 -63q0 -44 -47 -72q-78 -48 -192 -55q-19 61 -60 95t-100 34q-57 0 -88 -26t-31 -65q0 -50 39 -80.5t131 -54.5q187 -47 272.5 -129.5t85.5 -214.5q0 -149 -112.5 -241.5t-317.5 -92.5 q-154 0 -273.5 58.5t-119.5 122.5q0 70 45 133q142 -74 303 -74q152 0 152 80q0 38 -27.5 61t-103.5 41q-398 91 -398 387z" />
<glyph unicode="&#x456;" horiz-adv-x="651" d="M125 1378q0 73 48.5 115.5t125.5 42.5q72 0 125 -45t53 -119q0 -75 -48 -116.5t-126 -41.5q-73 0 -125.5 44.5t-52.5 119.5zM141 274v805q106 29 236 29q88 0 88 -72v-712q0 -91 63 -91h56q16 -53 16 -106q0 -54 -57.5 -97.5t-145.5 -43.5q-51 0 -95.5 15.5t-81.5 48 t-58 90t-21 134.5z" />
<glyph unicode="&#x457;" horiz-adv-x="651" d="M-43 1378q0 65 39.5 104.5t101.5 39.5t107 -44t45 -114q0 -66 -39 -105.5t-102 -39.5q-62 0 -107 44t-45 115zM141 274v805q106 29 236 29q88 0 88 -72v-712q0 -91 63 -91h56q16 -53 16 -106q0 -54 -57.5 -97.5t-145.5 -43.5q-51 0 -95.5 15.5t-81.5 48t-58 90t-21 134.5 zM358 1378q0 65 40 104.5t102 39.5t106.5 -44t44.5 -114q0 -66 -39.5 -105.5t-101.5 -39.5t-107 44t-45 115z" />
<glyph unicode="&#x458;" horiz-adv-x="616" d="M-2 -307q154 164 154 385v1001q106 29 235 29q88 0 88 -72v-956q0 -125 -49.5 -240.5t-131.5 -185.5t-171 -70q-75 0 -125 109zM135 1378q0 73 48.5 115.5t125.5 42.5q72 0 125 -45t53 -119q0 -75 -48 -116.5t-126 -41.5q-73 0 -125.5 44.5t-52.5 119.5z" />
<glyph unicode="&#x459;" horiz-adv-x="1918" d="M16 113q0 76 41 135q48 -23 105 -23q45 0 73.5 26.5t45.5 88.5q53 209 53 754h807q73 0 73 -60v-289q103 39 224 39q176 0 290.5 -102t114.5 -276q0 -191 -135 -298.5t-393 -107.5h-49q-96 0 -163.5 17.5t-116.5 58t-72 109.5t-23 171v486h-248q-10 -346 -39 -498 q-33 -187 -111.5 -278t-224.5 -91q-88 0 -170 44t-82 94zM1214 401q0 -90 22 -119.5t79 -29.5h33q89 0 130.5 34t41.5 109q0 137 -170 137q-74 0 -136 -20v-111z" />
<glyph unicode="&#x45a;" horiz-adv-x="1808" d="M141 57v1022q106 29 236 29q88 0 88 -72v-346h315v404h250q74 0 74 -60v-289q103 39 223 39q177 0 291.5 -102t114.5 -276q0 -191 -135.5 -298.5t-393.5 -107.5h-49q-96 0 -163.5 17.5t-116.5 58t-72 109.5t-23 171v82h-315v-438h-250q-74 0 -74 57zM1104 401 q0 -90 21.5 -119.5t78.5 -29.5h33q89 0 130.5 34t41.5 109q0 137 -170 137q-73 0 -135 -20v-111z" />
<glyph unicode="&#x45b;" horiz-adv-x="1327" d="M18 1260q0 68 15 114h108v109q111 26 236 26q90 0 90 -71v-64h264q27 0 39 -15t12 -50v-101h-315v-231q58 66 143.5 103.5t173.5 37.5q177 0 273 -118.5t96 -346.5v-327q0 -90 66 -90h53q18 -63 18 -109q0 -53 -58.5 -97t-146.5 -44q-51 0 -95.5 15.5t-81.5 48t-58 90 t-21 134.5v396q0 99 -39.5 146.5t-125.5 47.5q-51 0 -104.5 -20t-92.5 -56v-788h-252q-74 0 -74 59v1149h-65q-58 0 -58 52z" />
<glyph unicode="&#x45c;" horiz-adv-x="1236" d="M141 59v1022q115 27 236 27q90 0 90 -72v-344q115 73 235.5 193.5t190.5 236.5q131 -41 179 -80.5t48 -93.5q0 -32 -22 -69q-86 -139 -281 -283q40 -75 94 -155.5t93 -127.5q37 -45 63.5 -62.5t56.5 -17.5h47q21 -56 21 -106q0 -58 -58.5 -99.5t-146.5 -41.5 q-143 0 -256 159q-86 128 -160 289q-14 -7 -50 -26.5t-54 -28.5v-379h-252q-74 0 -74 59zM397 1305l224 233q37 37 63 37q34 0 68 -27q64 -54 108 -147l-262 -195q-38 -24 -59 -24q-29 0 -50 24z" />
<glyph unicode="&#x45d;" horiz-adv-x="1290" d="M141 82v997q106 29 236 29q88 0 88 -72v-524l373 551q27 45 84 45q45 0 111 -28.5t114 -67.5v-1012h-250q-74 0 -74 57v523l-374 -551q-28 -41 -82 -41q-47 0 -113 27t-113 67zM371 1401q44 93 108 147q35 27 70 27q24 0 61 -37l224 -233l-93 -99q-24 -24 -47 -24 q-24 0 -59 24z" />
<glyph unicode="&#x45e;" horiz-adv-x="1292" d="M137 432v641q111 27 236 27q88 0 88 -72v-604q0 -97 42.5 -147t121.5 -50q105 0 200 76v791h250q74 0 74 -60v-1022q0 -105 -35.5 -197t-104.5 -165t-182.5 -115.5t-257.5 -42.5q-192 0 -305.5 81.5t-113.5 207.5q0 75 44 140t125 104q-182 101 -182 407zM326 1493 q29 22 72.5 35.5t80.5 13.5q30 0 45 -10t19 -37q20 -117 100 -117q48 0 72.5 38t27.5 124h150q35 0 48 -11t11 -36q-12 -133 -93.5 -211t-217.5 -78q-124 0 -209 71t-106 218zM471 -162q0 -45 32 -72.5t91 -27.5q102 0 166.5 69t64.5 193v117q-103 -115 -247 -133 q-57 -19 -82 -59t-25 -87z" />
<glyph unicode="&#x45f;" horiz-adv-x="1267" d="M137 356v723q106 29 236 29q88 0 88 -72v-635q0 -90 21.5 -119.5t78.5 -29.5h240v842h250q73 0 73 -60v-1034h-301v-242h-250q-73 0 -73 60v182q-93 1 -158.5 19t-112.5 59t-69.5 109.5t-22.5 168.5z" />
<glyph unicode="&#x490;" d="M160 57v1377h588v243q117 31 247 31q92 0 92 -74v-479h-587v-1155h-267q-73 0 -73 57z" />
<glyph unicode="&#x491;" horiz-adv-x="985" d="M141 59v1035h467v223q107 26 236 26q88 0 88 -71v-430h-465v-842h-252q-74 0 -74 59z" />
<glyph unicode="&#x1e80;" horiz-adv-x="2308" d="M80 1352q62 43 135 71.5t123 28.5q39 0 61.5 -15t32.5 -51l270 -974q84 200 157 474.5t116 547.5h239q66 0 97.5 -18.5t42.5 -59.5l254 -944q83 209 157 481t119 541h223q62 0 90.5 -28.5t18.5 -80.5q-62 -299 -170 -629t-246 -628q-19 -38 -49 -53t-90 -15h-231 l-265 973q-44 -211 -124.5 -458t-170.5 -441q-18 -39 -49 -56.5t-90 -17.5h-225zM893 1757q44 93 108 147q35 27 70 27q24 0 61 -37l224 -233l-93 -99q-24 -24 -47 -24q-24 0 -59 24z" />
<glyph unicode="&#x1e81;" horiz-adv-x="1802" d="M76 1020q56 39 122 64.5t109 25.5q42 0 62.5 -14.5t29.5 -51.5l174 -688q99 313 158 738h225q59 0 88.5 -19.5t40.5 -62.5l158 -658q104 296 166 740h197q52 0 86 -27t24 -78q-41 -216 -113.5 -467.5t-162.5 -458.5q-27 -63 -88 -63h-273l-168 717q-72 -408 -172 -656 q-23 -61 -96 -61h-246zM623 1401q44 93 108 147q35 27 70 27q24 0 61 -37l223 -233l-92 -99q-24 -24 -47 -24q-24 0 -59 24z" />
<glyph unicode="&#x1e82;" horiz-adv-x="2308" d="M80 1352q62 43 135 71.5t123 28.5q39 0 61.5 -15t32.5 -51l270 -974q84 200 157 474.5t116 547.5h239q66 0 97.5 -18.5t42.5 -59.5l254 -944q83 209 157 481t119 541h223q62 0 90.5 -28.5t18.5 -80.5q-62 -299 -170 -629t-246 -628q-19 -38 -49 -53t-90 -15h-231 l-265 973q-44 -211 -124.5 -458t-170.5 -441q-18 -39 -49 -56.5t-90 -17.5h-225zM928 1661l223 233q37 37 63 37q34 0 68 -27q65 -55 109 -147l-263 -195q-38 -24 -59 -24q-28 0 -49 24z" />
<glyph unicode="&#x1e83;" horiz-adv-x="1802" d="M76 1020q56 39 122 64.5t109 25.5q42 0 62.5 -14.5t29.5 -51.5l174 -688q99 313 158 738h225q59 0 88.5 -19.5t40.5 -62.5l158 -658q104 296 166 740h197q52 0 86 -27t24 -78q-41 -216 -113.5 -467.5t-162.5 -458.5q-27 -63 -88 -63h-273l-168 717q-72 -408 -172 -656 q-23 -61 -96 -61h-246zM674 1305l223 233q37 37 64 37q33 0 67 -27q65 -55 109 -147l-263 -195q-38 -24 -59 -24q-28 0 -49 24z" />
<glyph unicode="&#x1e84;" horiz-adv-x="2308" d="M80 1352q62 43 135 71.5t123 28.5q39 0 61.5 -15t32.5 -51l270 -974q84 200 157 474.5t116 547.5h239q66 0 97.5 -18.5t42.5 -59.5l254 -944q83 209 157 481t119 541h223q62 0 90.5 -28.5t18.5 -80.5q-62 -299 -170 -629t-246 -628q-19 -38 -49 -53t-90 -15h-231 l-265 973q-44 -211 -124.5 -458t-170.5 -441q-18 -39 -49 -56.5t-90 -17.5h-225zM817 1734q0 65 39.5 104.5t101.5 39.5t107 -44t45 -114q0 -66 -39 -105.5t-102 -39.5q-62 0 -107 44t-45 115zM1218 1734q0 65 40 104.5t102 39.5t106.5 -44t44.5 -114q0 -66 -39.5 -105.5 t-101.5 -39.5t-107 44t-45 115z" />
<glyph unicode="&#x1e85;" horiz-adv-x="1802" d="M76 1020q56 39 122 64.5t109 25.5q42 0 62.5 -14.5t29.5 -51.5l174 -688q99 313 158 738h225q59 0 88.5 -19.5t40.5 -62.5l158 -658q104 296 166 740h197q52 0 86 -27t24 -78q-41 -216 -113.5 -467.5t-162.5 -458.5q-27 -63 -88 -63h-273l-168 717q-72 -408 -172 -656 q-23 -61 -96 -61h-246zM565 1378q0 65 40 104.5t102 39.5t106.5 -44t44.5 -114q0 -66 -39 -105.5t-102 -39.5q-62 0 -107 44t-45 115zM967 1378q0 65 39.5 104.5t101.5 39.5t107 -44t45 -114q0 -66 -39.5 -105.5t-102.5 -39.5q-62 0 -106.5 44t-44.5 115z" />
<glyph unicode="&#x1ef2;" horiz-adv-x="1382" d="M55 1300q56 63 125 106.5t125 43.5q27 0 44 -11t30 -38l313 -608q95 141 178 314.5t125 326.5h242q51 0 73 -24t9 -69q-64 -206 -189 -429.5t-278 -415.5v-496h-268q-74 0 -74 57v432zM412 1757q44 93 108 147q35 27 70 27q24 0 61 -37l224 -233l-93 -99q-24 -24 -47 -24 q-25 0 -59 24z" />
<glyph unicode="&#x1ef3;" horiz-adv-x="1292" d="M137 432v641q111 27 236 27q88 0 88 -72v-604q0 -97 42.5 -147t121.5 -50q105 0 200 76v791h250q74 0 74 -60v-1022q0 -105 -35.5 -197t-104.5 -165t-182.5 -115.5t-257.5 -42.5q-192 0 -305.5 81.5t-113.5 207.5q0 75 44 140t125 104q-182 101 -182 407zM371 1401 q44 93 108 147q35 27 70 27q24 0 61 -37l224 -233l-93 -99q-24 -24 -47 -24q-24 0 -59 24zM471 -162q0 -45 32 -72.5t91 -27.5q102 0 166.5 69t64.5 193v117q-103 -115 -247 -133q-57 -19 -82 -59t-25 -87z" />
<glyph unicode="&#x2000;" horiz-adv-x="1037" />
<glyph unicode="&#x2001;" horiz-adv-x="2075" />
<glyph unicode="&#x2002;" horiz-adv-x="1037" />
<glyph unicode="&#x2003;" horiz-adv-x="2075" />
<glyph unicode="&#x2004;" horiz-adv-x="691" />
<glyph unicode="&#x2005;" horiz-adv-x="518" />
<glyph unicode="&#x2006;" horiz-adv-x="345" />
<glyph unicode="&#x2007;" horiz-adv-x="345" />
<glyph unicode="&#x2008;" horiz-adv-x="259" />
<glyph unicode="&#x2009;" horiz-adv-x="409" />
<glyph unicode="&#x200a;" horiz-adv-x="115" />
<glyph unicode="&#x2010;" horiz-adv-x="915" d="M150 627q0 97 24 180h520q68 0 68 -64v-192h-545q-67 0 -67 76z" />
<glyph unicode="&#x2011;" horiz-adv-x="915" d="M150 627q0 97 24 180h520q68 0 68 -64v-192h-545q-67 0 -67 76z" />
<glyph unicode="&#x2012;" horiz-adv-x="1374" d="M150 627q0 97 24 180h979q68 0 68 -64v-192h-1004q-67 0 -67 76z" />
<glyph unicode="&#x2013;" horiz-adv-x="1024" d="M0 627q0 101 23 180h931q70 0 70 -64v-192h-958q-66 0 -66 76z" />
<glyph unicode="&#x2014;" horiz-adv-x="2048" d="M0 627q0 101 23 180h1955q70 0 70 -64v-192h-1982q-66 0 -66 76z" />
<glyph unicode="&#x2015;" horiz-adv-x="2048" d="M190 627q0 90 23 180h1575q67 0 67 -64v-192h-1597q-68 0 -68 76z" />
<glyph unicode="&#x2016;" horiz-adv-x="1001" d="M178 -211v1722q86 23 176 23q78 0 78 -55v-1745h-184q-38 0 -54 13.5t-16 41.5zM569 -211v1722q90 23 176 23q80 0 80 -55v-1745h-186q-70 0 -70 55z" />
<glyph unicode="&#x2017;" horiz-adv-x="1202" d="M88 -145q0 58 18 114h951q29 0 42 -16t13 -53v-117h-969q-55 0 -55 72zM88 -422q0 56 18 115h951q29 0 42 -16.5t13 -53.5v-117h-969q-55 0 -55 72z" />
<glyph unicode="&#x2018;" horiz-adv-x="690" d="M164 1073q0 179 119 322q50 59 104.5 89.5t75.5 20.5q41 -20 55 -73q-103 -93 -125 -201q53 -18 87 -64.5t34 -111.5q0 -78 -47.5 -125t-122.5 -47q-73 0 -126.5 51.5t-53.5 138.5z" />
<glyph unicode="&#x2019;" horiz-adv-x="690" d="M166 971q47 42 81 95.5t44 104.5q-53 18 -87 65t-34 112q0 78 47.5 125t122.5 47q73 0 126.5 -52t53.5 -139q0 -178 -119 -321q-51 -59 -105 -90t-75 -21q-41 20 -55 74z" />
<glyph unicode="&#x201a;" horiz-adv-x="690" d="M166 -215q103 93 125 201q-53 18 -87 64.5t-34 111.5q0 78 47.5 125t122.5 47q73 0 126.5 -52t53.5 -139q0 -178 -119 -321q-51 -59 -105 -90t-75 -21q-41 20 -55 74z" />
<glyph unicode="&#x201b;" horiz-adv-x="690" d="M166 1329q0 87 53.5 139t126.5 52q75 0 122.5 -47t47.5 -125q0 -65 -34 -112t-87 -65q10 -51 44 -104.5t81 -95.5q-14 -54 -55 -74q-21 -10 -75 21t-105 90q-119 143 -119 321z" />
<glyph unicode="&#x201c;" horiz-adv-x="1142" d="M164 1073q0 179 119 322q50 59 104.5 89.5t75.5 20.5q41 -20 55 -73q-103 -93 -125 -201q53 -18 87 -64.5t34 -111.5q0 -78 -47.5 -125t-122.5 -47q-73 0 -126.5 51.5t-53.5 138.5zM618 1073q0 179 119 322q50 59 105 89.5t76 20.5q41 -20 55 -73q-103 -93 -125 -201 q53 -18 87 -64.5t34 -111.5q0 -78 -47.5 -125t-122.5 -47q-73 0 -127 51.5t-54 138.5z" />
<glyph unicode="&#x201d;" horiz-adv-x="1142" d="M166 971q47 42 81 95.5t44 104.5q-53 18 -87 65t-34 112q0 78 47.5 125t122.5 47q73 0 126.5 -52t53.5 -139q0 -178 -119 -321q-51 -59 -105 -90t-75 -21q-41 20 -55 74zM618 971q47 42 81 95.5t44 104.5q-53 18 -86.5 65t-33.5 112q0 78 47.5 125t122.5 47 q73 0 126.5 -52t53.5 -139q0 -178 -119 -321q-51 -59 -105 -90t-75 -21q-19 9 -34.5 30t-21.5 44z" />
<glyph unicode="&#x201e;" horiz-adv-x="1142" d="M166 -215q103 93 125 201q-53 18 -87 64.5t-34 111.5q0 78 47.5 125t122.5 47q73 0 126.5 -52t53.5 -139q0 -178 -119 -321q-51 -59 -105 -90t-75 -21q-41 20 -55 74zM618 -215q103 93 125 201q-53 18 -86.5 64.5t-33.5 111.5q0 78 47.5 125t122.5 47q73 0 126.5 -52 t53.5 -139q0 -178 -119 -321q-51 -59 -105 -90t-75 -21q-19 9 -34.5 30t-21.5 44z" />
<glyph unicode="&#x201f;" d="M166 1329q0 87 53.5 139t126.5 52q75 0 122.5 -47t47.5 -125q0 -65 -34 -112t-87 -65q10 -51 44 -104.5t81 -95.5q-14 -54 -55 -74q-21 -10 -75 21t-105 90q-119 143 -119 321zM627 1329q0 87 53.5 139t126.5 52q75 0 122.5 -47t47.5 -125q0 -65 -34 -112t-87 -65 q10 -51 44 -104.5t81 -95.5q-14 -54 -55 -74q-21 -10 -76 21t-105 90q-118 142 -118 321z" />
<glyph unicode="&#x2020;" horiz-adv-x="1134" d="M88 993q0 84 23 193l315 -29l-20 344q114 31 231 31q91 0 88 -66l-18 -309l274 25q32 3 47.5 -15t15.5 -55v-211l-331 27v-1196h-228q-35 0 -50 12t-15 39v1145l-266 -23q-33 -3 -49.5 20.5t-16.5 67.5z" />
<glyph unicode="&#x2021;" d="M96 168q0 90 25 192l307 -26v594l-264 -23q-32 -3 -50 21t-18 67q0 88 25 193l313 -29l-20 344q114 31 231 31q91 0 88 -62l-18 -313l274 25q32 3 48 -15t16 -55v-211l-332 27v-594l268 22q64 6 64 -71v-209l-338 28q2 -35 7 -98.5t8 -115.5t3 -97q0 -61 -88 -61 q-120 0 -231 30l20 342l-276 -24q-32 -3 -47 20t-15 68z" />
<glyph unicode="&#x2022;" horiz-adv-x="958" d="M178 694q0 134 81.5 214.5t211.5 80.5q127 0 218 -88t91 -235q0 -134 -81.5 -214.5t-211.5 -80.5q-127 0 -218 88t-91 235z" />
<glyph unicode="&#x2024;" horiz-adv-x="690" d="M170 162q0 78 47.5 125t122.5 47q72 0 126 -52t54 -135q0 -78 -47.5 -125t-122.5 -47q-72 0 -126 52t-54 135z" />
<glyph unicode="&#x2025;" horiz-adv-x="1380" d="M170 162q0 78 47.5 125t122.5 47q72 0 126 -52t54 -135q0 -78 -47.5 -125t-122.5 -47q-72 0 -126 52t-54 135zM860 162q0 78 47.5 125t122.5 47q72 0 126 -52t54 -135q0 -78 -47.5 -125t-122.5 -47q-72 0 -126 52t-54 135z" />
<glyph unicode="&#x2026;" horiz-adv-x="2070" d="M170 162q0 78 47.5 125t122.5 47q72 0 126 -52t54 -135q0 -78 -47.5 -125t-122.5 -47q-72 0 -126 52t-54 135zM860 162q0 78 47.5 125t122.5 47q72 0 126 -52t54 -135q0 -78 -47.5 -125t-122.5 -47q-72 0 -126 52t-54 135zM1550 162q0 78 47.5 125t122.5 47 q72 0 126.5 -52t54.5 -135q0 -78 -47.5 -125t-122.5 -47q-72 0 -126.5 52t-54.5 135z" />
<glyph unicode="&#x202f;" horiz-adv-x="415" />
<glyph unicode="&#x2030;" horiz-adv-x="2676" d="M88 1073q0 170 106 273.5t263 103.5t262.5 -103.5t105.5 -273.5t-105.5 -273.5t-262.5 -103.5t-263 103.5t-106 273.5zM346 1079q0 -79 33 -123.5t86 -44.5q45 0 73.5 41.5t28.5 114.5q0 81 -32 125.5t-84 44.5q-46 0 -75.5 -42t-29.5 -116zM543 61l575 1373h152 q39 0 51.5 -17t1.5 -45l-575 -1372h-152q-77 0 -53 61zM1042 360q0 170 106 273.5t263 103.5t263 -103.5t106 -273.5t-106 -273t-263 -103t-263 103t-106 273zM1300 367q0 -79 33 -123.5t86 -44.5q46 0 74.5 41t28.5 114q0 81 -32 125.5t-85 44.5q-46 0 -75.5 -41.5 t-29.5 -115.5zM1851 360q0 170 106 273.5t263 103.5t263 -103.5t106 -273.5t-106 -273t-263 -103t-263 103t-106 273zM2109 367q0 -79 33 -123.5t86 -44.5q44 0 73.5 41t29.5 114q0 81 -32 125.5t-85 44.5q-46 0 -75.5 -41.5t-29.5 -115.5z" />
<glyph unicode="&#x2032;" horiz-adv-x="696" d="M135 891l121 526q95 31 217 31q54 0 76 -22t8 -60l-186 -532h-166q-40 0 -58 14.5t-12 42.5z" />
<glyph unicode="&#x2033;" horiz-adv-x="1120" d="M135 891l121 526q95 31 217 31q54 0 76 -22t8 -60l-186 -532h-166q-40 0 -58 14.5t-12 42.5zM559 891l121 526q95 31 217 31q54 0 76 -22t8 -60l-186 -532h-166q-40 0 -58 14.5t-12 42.5z" />
<glyph unicode="&#x2039;" horiz-adv-x="720" d="M106 594v139l420 295q30 19 47 19q41 0 41 -66q0 -72 -16 -154l-279 -188l244 -166q35 -23 35 -70v-202l-457 319q-35 27 -35 74z" />
<glyph unicode="&#x203a;" horiz-adv-x="720" d="M106 981q0 66 44 66q15 0 45 -19l419 -295v-139q0 -50 -34 -74l-457 -319v202q0 47 35 70l245 166l-280 188q-17 108 -17 154z" />
<glyph unicode="&#x203c;" horiz-adv-x="1216" d="M152 145q0 75 49 117.5t129 42.5q74 0 128 -46t54 -122t-49.5 -119t-128.5 -43q-75 0 -128.5 46t-53.5 124zM158 1188v235q123 29 254 29q94 0 94 -74v-190q0 -384 -49 -789h-183q-37 0 -53.5 14.5t-19.5 45.5q-43 326 -43 729zM705 145q0 75 49 117.5t129 42.5 q74 0 128 -46t54 -122t-49.5 -119t-128.5 -43q-75 0 -128.5 46t-53.5 124zM711 1188v235q123 29 254 29q94 0 94 -74v-190q0 -384 -49 -789h-183q-37 0 -53.5 14.5t-19.5 45.5q-43 326 -43 729z" />
<glyph unicode="&#x203e;" horiz-adv-x="860" d="M135 1300q0 60 21 125h512q55 0 55 -69v-129h-522q-66 0 -66 73z" />
<glyph unicode="&#x2044;" horiz-adv-x="411" d="M-184 61l575 1373h152q39 0 51.5 -17t1.5 -45l-576 -1372h-151q-77 0 -53 61z" />
<glyph unicode="&#x205f;" horiz-adv-x="518" />
<glyph unicode="&#x20a0;" horiz-adv-x="1646" d="M70 965q0 146 67 259.5t182.5 173.5t258.5 60q142 0 244.5 -53t156.5 -148q14 -25 14 -55q0 -32 -45 -59q-35 -23 -88 -37t-106 -16q-49 139 -179 139q-89 0 -142.5 -70t-53.5 -190q0 -148 80.5 -238t226.5 -90q74 0 145 21v344h670q55 0 55 -68q0 -94 -16 -162h-399 v-153h284q52 0 52 -64v-166h-336v-10q0 -89 25 -123.5t91 -34.5h267q51 0 51 -61v-164h-389q-183 0 -269 93t-86 294v70q-72 -41 -210 -41q-113 0 -214 39.5t-175.5 110t-118 174t-43.5 225.5z" />
<glyph unicode="&#x20a1;" horiz-adv-x="1437" d="M98 754q0 203 83 359.5t226 243.5t326 99l37 158h53q32 0 43 -10.5t6 -34.5l-26 -113q46 -3 102 -16l39 174h53q32 0 43.5 -10.5t6.5 -34.5l-35 -158q198 -73 293 -244q18 -35 18 -71q0 -50 -59 -86q-96 -57 -232 -64q-39 96 -94 148l-186 -824q69 -16 141 -16 q196 0 332 76q21 -28 36 -72.5t15 -79.5q0 -43 -61 -90t-169 -80t-225 -33q-56 0 -135 11l-37 -166h-53q-32 0 -43 10.5t-6 34.5l33 143q-46 14 -97 37l-51 -225h-53q-32 0 -43 10.5t-6 34.5l53 235q-154 100 -241 270t-87 384zM440 760q0 -156 72 -281l154 680 q-102 -35 -164 -138.5t-62 -260.5zM600 371q49 -42 92 -62l193 850q-49 19 -101 19z" />
<glyph unicode="&#x20a2;" horiz-adv-x="1437" d="M98 754q0 159 52.5 292t143.5 222.5t217 139.5t271 50q197 0 345 -79t221 -212q18 -35 18 -71q0 -50 -59 -86q-96 -57 -232 -64q-42 116 -120 175t-183 59q-145 0 -238.5 -112t-93.5 -308q0 -141 54 -251t153 -175v522q82 21 195 21q63 0 63 -58v-88q30 64 95 105t143 41 q51 0 96 -22t45 -69q0 -39 -29 -82.5t-79 -76.5q-46 30 -107 30q-63 0 -106 -43t-58 -122v-238h31q196 0 332 76q21 -28 36 -72.5t15 -79.5q0 -43 -61 -90t-169 -80t-225 -33q-217 0 -391 96t-274.5 274.5t-100.5 408.5z" />
<glyph unicode="&#x20a3;" d="M4 543q0 40 14 84h142v114h-109q-25 0 -36 11t-11 36q0 37 14 84h142v562h860q67 0 67 -80q0 -97 -20 -199h-567v-283h418q25 0 36 -14t11 -47v-70h-465v-114h418q25 0 36 -14.5t11 -47.5v-67h-465v-498h-267q-73 0 -73 57v441h-109q-25 0 -36 10.5t-11 34.5z" />
<glyph unicode="&#x20a4;" horiz-adv-x="1255" d="M88 506q0 35 14 82h119v114h-86q-47 0 -47 48q0 37 14 84h119v129q0 231 128.5 363t357.5 132q158 0 273.5 -74t168.5 -196q18 -40 18 -76q0 -48 -57 -80q-42 -24 -103.5 -38.5t-121.5 -16.5q-38 203 -174 203q-66 0 -107 -52t-41 -153v-141h334q25 0 36 -14.5t11 -47.5 v-70h-381v-114h334q25 0 36 -13.5t11 -46.5v-69h-387q-15 -121 -80 -180h647q60 0 60 -74v-205h-1012q-59 0 -59 74v170q90 72 104 215h-82q-25 0 -36 11t-11 36z" />
<glyph unicode="&#x20a6;" horiz-adv-x="1501" d="M4 575q0 35 14 82h142v115h-109q-25 0 -36 11t-11 36q0 37 14 84h142v451q56 40 125 69t110 29q35 0 56 -11.5t36 -37.5l490 -821v852h268q74 0 74 -60v-471h131q25 0 36 -14t11 -47v-70h-178v-115h131q25 0 36 -14t11 -47v-68h-178v-448q-56 -40 -125.5 -69t-110.5 -29 q-35 0 -56 11.5t-36 37.5l-489 821v-852h-269q-73 0 -73 59v469h-109q-25 0 -36 11t-11 36z" />
<glyph unicode="&#x20a7;" horiz-adv-x="2523" d="M160 57v1377h348q202 0 338.5 -89t187.5 -251h119v299q103 28 221 28q90 0 90 -71v-256h228q56 0 59 -66q36 33 118 61.5t165 28.5q125 0 221 -47.5t149 -132.5q23 -38 23 -64q0 -40 -47 -69q-70 -47 -193 -55q-15 62 -46.5 94.5t-76.5 32.5q-44 0 -69 -25.5t-25 -63.5 q0 -45 31 -70.5t108 -49.5q172 -53 250 -130.5t78 -201.5q0 -336 -448 -336h-426q-203 0 -306.5 104.5t-103.5 303.5v434h-94q-12 -143 -85 -250t-188.5 -162t-257.5 -55q-23 0 -41 6v-381h-254q-73 0 -73 57zM487 655q18 -2 54 -2q81 0 136.5 66.5t55.5 191.5 q0 124 -54.5 191t-135.5 67h-56v-514zM1464 406q0 -82 38 -119t112 -37h328q100 0 133.5 12.5t33.5 56.5q0 40 -33 66t-114 49q-151 42 -233 128.5t-82 215.5q0 33 8 64h-191v-436z" />
<glyph unicode="&#x20a8;" horiz-adv-x="2082" d="M160 57v1377h362q274 0 431 -136.5t157 -375.5q0 -136 -58 -241.5t-161 -170.5q50 -132 98.5 -196t116.5 -64h43q27 -62 27 -133q0 -55 -60.5 -98.5t-146.5 -43.5q-256 0 -373 439h-37q-13 0 -59 4v-418h-267q-73 0 -73 57zM500 692h49q100 0 156.5 57.5t56.5 172.5 q0 116 -56 174.5t-155 58.5h-51v-463zM1212 784q0 147 106.5 240.5t278.5 93.5q123 0 218.5 -47.5t148.5 -132.5q21 -35 21 -64q0 -36 -31 -57q-39 -27 -96.5 -45.5t-110.5 -21.5q-18 61 -55.5 91.5t-79.5 30.5q-43 0 -64.5 -23t-21.5 -58q0 -95 153 -144 q157 -53 236.5 -135t79.5 -205q0 -145 -103 -238.5t-293 -93.5q-152 0 -255 56.5t-103 122.5q0 33 12.5 71t32.5 64q142 -74 268 -74q62 0 97 21t35 55q0 36 -28.5 60.5t-98.5 49.5q-181 61 -264 153t-83 230z" />
<glyph unicode="&#x20a9;" horiz-adv-x="2308" d="M45 565q0 35 14 82h242l-33 103h-176q-25 0 -36 11t-11 36q0 37 14 84h168l-147 471q62 43 135 71.5t123 28.5q39 0 61.5 -15t32.5 -51l137 -505h291q73 291 115 553h235q66 0 97.5 -18.5t42.5 -59.5l127 -475h286q77 295 121 553h223q62 0 90.5 -28.5t18.5 -80.5 q-40 -193 -113 -444h113q25 0 36 -14.5t11 -47.5v-69h-199q-6 -18 -17 -51.5t-17 -51.5h186q25 0 36 -14t11 -47v-68h-278q-83 -233 -185 -450q-19 -38 -49 -53t-90 -15h-231l-138 518h-258q-67 -214 -164 -450q-15 -37 -46.5 -52.5t-92.5 -15.5h-225l-164 518h-250 q-25 0 -36 11t-11 36zM604 750l29 -103h162q10 33 30 103h-221zM668 518l34 -129q36 87 50 129h-84zM1073 647h187l-27 103h-131q-2 -8 -29 -103zM1137 881h61l-33 125q-6 -29 -28 -125zM1511 750l27 -103h160q28 91 31 103h-218zM1573 518l35 -129q28 69 47 129h-82z" />
<glyph unicode="&#x20aa;" horiz-adv-x="1974" d="M160 57v1377h649q290 0 426.5 -140t136.5 -460v-318h-256q-74 0 -74 57v285q0 169 -56 233t-181 64h-318v-1155h-254q-73 0 -73 57zM600 598v293q127 27 236 27q94 0 94 -74v-271q0 -169 56 -233t181 -64h318v1158h254q73 0 73 -60v-1374h-649q-290 0 -426.5 139 t-136.5 459z" />
<glyph unicode="&#x20ab;" horiz-adv-x="1366" d="M88 461q0 113 30.5 208.5t82 161.5t120 112.5t143 68.5t152.5 22q150 0 248 -98v211h-262q-55 0 -55 51q0 66 12 115h305v121h250q74 0 74 -60v-61h72q27 0 39 -15.5t12 -50.5v-100h-123v-823q0 -91 65 -91h52q18 -49 18 -106q0 -55 -57 -98t-146 -43q-79 0 -145 46.5 t-94 135.5q-58 -96 -146.5 -144.5t-189.5 -48.5q-193 0 -325 136t-132 350zM276 -281q0 55 17 129h864q27 0 39 -15t12 -50v-135h-862q-37 0 -53.5 17.5t-16.5 53.5zM414 469q0 -110 57 -176t160 -66q72 0 134.5 50t98.5 143v301q-70 61 -174 61q-115 0 -195.5 -85 t-80.5 -228z" />
<glyph unicode="&#x20ac;" horiz-adv-x="1437" d="M-4 563q0 42 10 84h96q-6 37 -6 76v39h-55q-26 0 -35.5 11t-9.5 36q0 39 10 84h100q28 171 122.5 300t237.5 197t314 68q198 0 345.5 -79.5t220.5 -213.5q20 -36 20 -71q0 -40 -47 -73.5t-112 -52.5t-134 -24q-41 117 -118.5 175.5t-184.5 58.5q-117 0 -202.5 -75 t-114.5 -210h397q25 0 36 -14.5t11 -47.5v-69h-457v-37q0 -22 9 -78h401q25 0 36 -14t11 -47v-68h-408q60 -128 176 -196t277 -68q86 0 174.5 19.5t151.5 54.5q20 -29 35.5 -73.5t15.5 -76.5q0 -44 -61.5 -91t-170 -79.5t-225.5 -32.5q-269 0 -467.5 146t-267.5 397h-86 q-26 0 -35.5 10t-9.5 35z" />
<glyph unicode="&#x2122;" horiz-adv-x="1558" d="M53 1331q0 45 10 103h523q37 0 37 -43v-103h-187v-557h-153q-23 0 -32 7.5t-9 25.5v524h-150q-39 0 -39 43zM662 768l71 631q65 45 131 45q38 0 54 -33l153 -287l164 310h135q39 0 43 -33l74 -670h-156q-24 0 -35 7.5t-12 27.5l-39 393l-98 -198q-13 -25 -53 -25h-84 l-117 223l-39 -428h-152q-18 0 -30.5 8t-9.5 29z" />
<glyph unicode="&#x2202;" horiz-adv-x="1343" d="M84 449q0 203 146.5 336t359.5 133q86 0 166.5 -26t134.5 -71q-16 182 -93 269.5t-188 87.5q-72 0 -123 -43t-71 -125q-131 10 -223 65q-58 34 -58 86q0 38 27 82q62 101 180 158t270 57q288 0 456.5 -199.5t168.5 -549.5v-35q0 -159 -47.5 -291t-131 -221t-197 -138 t-245.5 -49q-243 0 -387.5 132t-144.5 342zM426 442q0 -87 53.5 -137.5t134.5 -50.5q111 0 188.5 88t90.5 242q-93 69 -227 69q-106 0 -173 -57.5t-67 -153.5z" />
<glyph unicode="&#x2206;" horiz-adv-x="1431" d="M47 72l481 1325q118 51 246 51q66 0 96 -20t50 -76l489 -1352h-1300q-34 0 -53 20.5t-9 51.5zM473 276h485l-243 752z" />
<glyph unicode="&#x220f;" horiz-adv-x="1474" d="M160 -168v1684h1081q74 0 74 -60v-1683h-268q-74 0 -74 59v1405h-473v-1464h-267q-73 0 -73 59z" />
<glyph unicode="&#x2211;" horiz-adv-x="1292" d="M70 1290q11 40 20.5 69t25 60.5t33.5 51t44.5 32.5t58.5 13h928q59 0 59 -74v-205h-770l360 -504v-53q0 -43 -26 -88l-332 -543h709q59 0 59 -72v-204h-1089q-60 0 -60 73v166l422 664z" />
<glyph unicode="&#x221a;" horiz-adv-x="1220" d="M70 649q0 73 18 176h272q54 0 76.5 -13t36.5 -50l129 -350l234 1165h225q80 0 65 -82l-288 -1413q-9 -44 -35 -63t-72 -19h-262l-233 575h-103q-63 0 -63 74z" />
<glyph unicode="&#x221e;" horiz-adv-x="1605" d="M133 680q0 139 98.5 230t237.5 91q188 0 334 -167q146 167 334 167q139 0 237.5 -91t98.5 -230q0 -138 -98.5 -229t-237.5 -91q-186 0 -334 166q-145 -166 -334 -166q-139 0 -237.5 91t-98.5 229zM397 680q0 -39 28 -64.5t67 -25.5q75 0 147 90q-74 92 -147 92 q-39 0 -67 -26t-28 -66zM967 680q72 -90 147 -90q39 0 66.5 25t27.5 65t-27.5 66t-66.5 26q-73 0 -147 -92z" />
<glyph unicode="&#x222b;" horiz-adv-x="1116" d="M35 -360q0 29 12.5 67t32.5 62q71 -27 170 -27q76 0 110.5 31t34.5 98v1288q0 178 95.5 269.5t269.5 91.5q124 0 221.5 -48.5t97.5 -97.5q0 -29 -12.5 -67t-32.5 -62q-71 27 -170 27q-76 0 -110.5 -31t-34.5 -98v-1288q0 -177 -95 -269t-268 -92q-125 0 -223 48.5 t-98 97.5z" />
<glyph unicode="&#x2248;" horiz-adv-x="1290" d="M117 346q0 20 10 70q26 108 104 168.5t193 60.5q130 0 244 -84q67 -51 98.5 -68.5t60.5 -17.5q41 0 66 36t35 128l188 -39q34 -7 45.5 -21t9.5 -40q-8 -136 -88.5 -223t-218.5 -87q-129 0 -243 84q-66 51 -98.5 68.5t-61.5 17.5q-41 0 -66 -35.5t-35 -125.5 q-42 -6 -94.5 2t-89.5 24q-59 26 -59 82zM117 831q0 20 10 70q26 108 104 168.5t193 60.5q131 0 244 -83q67 -51 98.5 -68.5t60.5 -17.5q41 0 66 36t35 127l188 -39q34 -7 45.5 -21t9.5 -40q-8 -136 -88.5 -222.5t-218.5 -86.5q-129 0 -243 84q-66 51 -98.5 68.5t-61.5 17.5 q-41 0 -66 -36t-35 -126q-91 -12 -184 27q-59 26 -59 81z" />
<glyph unicode="&#x2260;" horiz-adv-x="1290" d="M141 393q0 85 25 168h326l120 238h-403q-68 0 -68 73q0 87 25 170h573l119 232h107q37 0 49.5 -14.5t-0.5 -40.5l-90 -177h155q70 0 70 -65v-178h-352l-121 -238h403q70 0 70 -63v-181h-600l-117 -231h-106q-37 0 -50 14.5t0 40.5l89 176h-156q-68 0 -68 76z" />
<glyph unicode="&#x2264;" horiz-adv-x="1290" d="M141 74q0 80 23 170h915q68 0 68 -66v-178h-938q-68 0 -68 74zM141 797v186l891 377q45 20 73 -3.5t28 -76.5q0 -89 -19 -182l-590 -240l547 -227q35 -15 48.5 -34t13.5 -54v-234l-930 400q-33 14 -47.5 34t-14.5 54z" />
<glyph unicode="&#x2265;" horiz-adv-x="1290" d="M141 0v178q0 66 70 66h913q23 -90 23 -170q0 -39 -16 -56.5t-52 -17.5h-938zM156 309v234q0 41 18.5 59.5t79.5 44.5l510 211l-590 240q-18 88 -18 182q0 54 26.5 77.5t75.5 2.5l889 -377v-186q0 -34 -14.5 -54t-47.5 -34z" />
<glyph unicode="&#x25ca;" horiz-adv-x="1114" d="M70 721l362 696q72 35 162 35q43 0 61.5 -11.5t34.5 -43.5l352 -676l-352 -678q-12 -25 -33.5 -34t-64.5 -9h-148zM373 721l182 -354l186 354l-186 354z" />
<glyph unicode="&#x25fc;" horiz-adv-x="1105" d="M0 0v1106h1106v-1106h-1106z" />
</font>
</defs>
</svg>
