<?xml version="1.0" standalone="no"?>
<!DOCTYPE svg PUBLIC "-//W3C//DTD SVG 1.1//EN" "http://www.w3.org/Graphics/SVG/1.1/DTD/svg11.dtd" >
<svg xmlns="http://www.w3.org/2000/svg">
<metadata></metadata>
<defs>
<font id="core_rhino_45_regularregular" horiz-adv-x="1177" >
<font-face units-per-em="2048" ascent="1638" descent="-410" />
<missing-glyph horiz-adv-x="614" />
<glyph unicode="&#xfb01;" horiz-adv-x="1337" d="M63 995q0 49 13 99h207v61q0 174 85 269.5t228 95.5q96 0 165.5 -34.5t69.5 -64.5q0 -49 -26 -82q-66 27 -162 27q-182 0 -182 -203v-69h629q25 0 35 -14t10 -46v-796q0 -58 17 -83.5t54 -25.5h45q11 -25 11 -63q0 -30 -36 -55t-93 -25q-177 0 -177 237v719h-495v-942 h-121q-32 0 -44.5 10t-12.5 35v897h-177q-43 0 -43 53zM936 1401q0 49 29.5 78.5t74.5 29.5t78 -32t33 -84q0 -49 -29 -78t-75 -29q-45 0 -78 32t-33 83z" />
<glyph unicode="&#xfb02;" horiz-adv-x="1441" d="M63 995q0 49 13 99h207v49q0 377 381 377q80 0 166.5 -20t144.5 -52v43q66 16 123 16q55 0 55 -43v-1179q0 -80 31 -117t94 -37q65 0 119 23q22 -33 22 -72q0 -32 -53 -64t-135 -32q-125 0 -190.5 79t-65.5 226v1030q-115 45 -266 45q-141 0 -194.5 -50t-53.5 -167v-55 h325q25 0 36.5 -14t11.5 -46v-92h-373v-942h-121q-32 0 -44.5 10t-12.5 35v897h-177q-43 0 -43 53z" />
<glyph horiz-adv-x="682" />
<glyph horiz-adv-x="0" />
<glyph horiz-adv-x="0" />
<glyph unicode="&#xd;" horiz-adv-x="485" />
<glyph unicode=" "  horiz-adv-x="614" />
<glyph unicode="&#x09;" horiz-adv-x="614" />
<glyph unicode="&#xa0;" horiz-adv-x="614" />
<glyph unicode="!" horiz-adv-x="602" d="M186 100q0 52 31.5 83.5t79.5 31.5q50 0 85.5 -34.5t35.5 -90.5q0 -53 -32 -84t-81 -31t-84 34.5t-35 90.5zM199 1161v269q66 16 141 16q63 0 63 -45v-240q0 -393 -28 -794h-94q-30 0 -41.5 10.5t-14.5 34.5q-26 396 -26 749z" />
<glyph unicode="&#x22;" horiz-adv-x="952" d="M217 1425q72 21 143 21q65 0 62 -47l-27 -545h-100q-30 0 -41.5 9.5t-13.5 33.5zM528 1425q72 21 144 21q32 0 47.5 -12t13.5 -35l-26 -545h-101q-30 0 -41.5 9.5t-13.5 33.5z" />
<glyph unicode="#" horiz-adv-x="1427" d="M96 418q0 44 15 106h223l65 383h-184q-43 0 -43 54q0 48 14 106h240l63 360q62 19 127 19q29 0 43.5 -11.5t10.5 -35.5l-60 -332h324l61 360q62 19 127 19q29 0 43.5 -11.5t10.5 -35.5l-58 -332h166q24 0 34.5 -13.5t10.5 -43.5v-103h-237l-66 -383h182q24 0 34.5 -13.5 t10.5 -43.5v-102h-256l-61 -365h-119q-36 0 -48 13t-7 40l51 312h-321l-62 -365h-121q-36 0 -48 13t-7 40l53 312h-168q-43 0 -43 53zM518 524h324l65 383h-323z" />
<glyph unicode="$" horiz-adv-x="1216" d="M129 1065q0 154 104 259t277 128v195q53 16 108 16q56 0 56 -43v-166q133 -15 235.5 -79t157.5 -161q14 -24 14 -49t-39 -47q-59 -32 -124 -35q-42 102 -124 157.5t-198 55.5q-122 0 -199.5 -62.5t-77.5 -164.5q0 -96 79 -161t270 -126q226 -73 327 -173.5t101 -248.5 q0 -152 -104.5 -253.5t-286.5 -124.5v-211h-107q-31 0 -44 11t-13 36v159q-100 7 -183.5 33.5t-127.5 59.5t-44 63q0 48 25 84q167 -82 369 -82q160 0 243.5 59.5t83.5 157.5q0 97 -74 161t-239 108q-229 62 -347 170t-118 274z" />
<glyph unicode="%" horiz-adv-x="1792" d="M109 1090q0 162 96.5 261t240.5 99q145 0 242.5 -99t97.5 -261q0 -163 -97.5 -262t-242.5 -99t-241 98.5t-96 262.5zM268 1098q0 -108 51.5 -170t137.5 -62q76 0 122 59t46 158q0 107 -51 168.5t-136 61.5q-77 0 -123.5 -58t-46.5 -157zM539 31q0 10 6 22l577 1381h78 q53 0 53 -31q0 -11 -6 -23l-577 -1380h-78q-53 0 -53 31zM1006 344q0 162 96.5 261.5t240.5 99.5q145 0 242.5 -99.5t97.5 -261.5q0 -163 -97.5 -261.5t-242.5 -98.5t-241 98.5t-96 261.5zM1165 352q0 -108 51.5 -169.5t137.5 -61.5q76 0 122 59t46 158q0 106 -51 167.5 t-136 61.5q-77 0 -123.5 -58t-46.5 -157z" />
<glyph unicode="&#x26;" horiz-adv-x="1495" d="M109 344q0 124 72 229t206 177q-79 102 -111 185t-32 173q0 148 110 249t271 101q159 0 260.5 -91.5t101.5 -231.5q0 -131 -97.5 -235.5t-262.5 -174.5q82 -93 191.5 -199t195.5 -170q180 202 254 475q55 -4 86 -28q22 -16 22 -68q0 -94 -65.5 -229t-169.5 -250 q88 -66 155 -102q50 -27 103 -27h41q10 -33 10 -66t-35.5 -59.5t-91.5 -26.5q-68 0 -127 33q-88 49 -188 127q-216 -160 -457 -160q-191 0 -316.5 102.5t-125.5 266.5zM287 352q0 -99 75 -158t199 -59q166 0 318 107q-222 191 -410 405q-182 -114 -182 -295zM426 1110 q0 -69 27 -135.5t90 -149.5q120 56 188 132.5t68 166.5q0 85 -50.5 135t-130.5 50q-82 0 -137 -56.5t-55 -142.5z" />
<glyph unicode="'" horiz-adv-x="598" d="M195 1425q72 21 143 21q32 0 47.5 -12t13.5 -35l-26 -545h-101q-30 0 -41.5 9.5t-13.5 33.5z" />
<glyph unicode="(" horiz-adv-x="782" d="M219 635q0 253 73.5 472t203.5 366q81 91 127 69q35 -21 51 -67q-275 -337 -275 -840t275 -840q-16 -46 -51 -67q-46 -22 -127 69q-130 147 -203.5 366t-73.5 472z" />
<glyph unicode=")" horiz-adv-x="782" d="M109 -205q276 338 276 840t-276 840q16 46 51 67q46 22 127 -69q130 -147 204 -366.5t74 -471.5t-74 -471.5t-204 -366.5q-81 -91 -127 -69q-35 21 -51 67z" />
<glyph unicode="*" horiz-adv-x="1239" d="M131 717q0 69 21 131q10 30 23.5 39.5t35.5 3.5l334 -133l-25 379q82 20 133 20q58 0 58 -43l-25 -358l354 139q42 -56 62 -119q15 -56 -23 -65l-348 -90l242 -293q-40 -57 -92 -95q-49 -32 -74 3l-193 305l-204 -320q-64 20 -119 60q-24 18 -28.5 33.5t7.5 33.5l228 275 z" />
<glyph unicode="+" horiz-adv-x="1329" d="M174 655q0 59 12 99h387v401q61 21 123 21q56 0 56 -43v-379h354q25 0 36 -13t11 -45v-92h-401v-420h-121q-31 0 -44.5 10t-13.5 35v375h-358q-22 0 -31.5 11.5t-9.5 39.5z" />
<glyph unicode="," horiz-adv-x="673" d="M195 -225q99 96 114 205q-39 11 -63.5 43t-24.5 77q0 52 31.5 83.5t81.5 31.5q49 0 84 -35t35 -98q0 -151 -105 -275q-33 -42 -70 -64t-49 -17q-27 16 -34 49z" />
<glyph unicode="-" horiz-adv-x="956" d="M186 655q0 51 13 105h526q25 0 36 -13.5t11 -44.5v-102h-545q-41 0 -41 55z" />
<glyph unicode="." horiz-adv-x="673" d="M221 100q0 52 31.5 83.5t81.5 31.5q48 0 83.5 -34.5t35.5 -90.5q0 -52 -31.5 -83.5t-81.5 -31.5q-48 0 -83.5 34.5t-35.5 90.5z" />
<glyph unicode="/" horiz-adv-x="1011" d="M-10 -190q0 8 6 20l850 1712h123q51 0 51 -35q0 -8 -6 -20l-850 -1712h-123q-51 0 -51 35z" />
<glyph unicode="0" horiz-adv-x="1349" d="M129 717q0 349 144.5 545t400.5 196q257 0 402 -195t145 -546q0 -350 -144.5 -546t-400.5 -196t-401.5 196t-145.5 546zM317 733q0 -182 41 -314.5t125 -207t205 -74.5q164 0 254 146.5t90 416.5q0 277 -94 436.5t-274 159.5q-165 0 -256 -146.5t-91 -416.5z" />
<glyph unicode="1" horiz-adv-x="1349" d="M252 1114q0 29 37 51l420 269h112q58 0 58 -48v-1386h-129q-32 0 -45 10t-13 35v1178l-342 -219q-49 24 -84 71q-14 21 -14 39z" />
<glyph unicode="2" horiz-adv-x="1349" d="M172 1114q0 23 12 47q60 135 181.5 216t291.5 81q220 0 357 -131.5t137 -349.5q0 -441 -600 -817h563q25 0 36 -14t11 -46v-100h-860q-47 0 -68 33q-25 41 -34 96q764 425 764 856q0 145 -84.5 228t-225.5 83q-116 0 -199 -70.5t-122 -197.5q-78 7 -127 37q-33 18 -33 49 z" />
<glyph unicode="3" horiz-adv-x="1349" d="M172 137q0 45 25 86q177 -86 387 -86q174 0 275.5 69.5t101.5 194.5q0 266 -396 301q-48 3 -67 33q-26 43 -33 101l399 438h-620q-43 0 -43 53q0 49 14 107h782q47 0 68 -33q27 -45 33 -96l-424 -471q221 -36 348 -143t127 -290q0 -194 -150 -310t-393 -116 q-88 0 -171.5 17t-139.5 42t-89.5 53t-33.5 50z" />
<glyph unicode="4" horiz-adv-x="1349" d="M117 422q80 284 269 555t423 434q82 37 184 37q43 0 58.5 -13.5t15.5 -48.5v-933h145q25 0 35 -13.5t10 -44.5v-102h-190v-293h-129q-31 0 -44 10t-13 35v248h-662q-26 0 -40.5 7t-26.5 26q-26 44 -35 96zM322 453h559v798q-178 -124 -338 -351t-221 -447z" />
<glyph unicode="5" horiz-adv-x="1349" d="M174 137q0 45 25 86q174 -86 389 -86q175 0 278 79.5t103 225.5q0 148 -102.5 228t-276.5 80q-131 0 -244 -25q-27 -6 -43 -6q-20 0 -39 16l-22 21l90 678h727q25 0 35 -13.5t10 -44.5v-102h-621l-53 -393q82 28 203 28q235 0 378.5 -126.5t143.5 -340.5 q0 -206 -143 -336.5t-396 -130.5q-92 0 -177 17t-141.5 42t-90 52.5t-33.5 50.5z" />
<glyph unicode="6" horiz-adv-x="1349" d="M147 670v32q0 348 166.5 552t431.5 204q149 0 259.5 -62.5t166.5 -176.5q15 -30 15 -58q0 -29 -37 -51q-46 -30 -125 -37q-24 110 -96 166.5t-176 56.5q-84 0 -156 -32.5t-129 -95.5t-92 -165t-41 -233q73 62 175 99.5t214 37.5q103 0 194.5 -33.5t160 -93.5t108 -149.5 t39.5 -196.5q0 -197 -136.5 -328t-357.5 -131q-264 0 -424 186.5t-160 508.5zM334 614q9 -223 120 -350t285 -127q128 0 213.5 80t85.5 211q0 148 -98 232.5t-248 84.5q-211 0 -358 -131z" />
<glyph unicode="7" horiz-adv-x="1349" d="M164 1327q0 49 14 107h889q47 0 68 -33q25 -41 34 -96q-389 -638 -544 -1305h-129q-65 0 -52 57q176 661 512 1217h-749q-43 0 -43 53z" />
<glyph unicode="8" horiz-adv-x="1349" d="M133 381q0 125 78.5 218.5t232.5 145.5q-134 60 -195 143t-61 193q0 160 130.5 268.5t347.5 108.5q218 0 346.5 -108.5t128.5 -268.5q0 -100 -59.5 -187.5t-163.5 -152.5q150 -65 222 -152.5t72 -205.5q0 -182 -146 -295t-392 -113q-244 0 -392.5 112t-148.5 294z M322 377q0 -107 101.5 -174.5t250.5 -67.5q151 0 250.5 69t99.5 173q0 105 -92 175.5t-318 127.5q-292 -100 -292 -303zM377 1085q0 -94 83 -156t298 -126q194 117 194 280q0 94 -81.5 153.5t-204.5 59.5t-206 -59t-83 -152z" />
<glyph unicode="9" horiz-adv-x="1349" d="M141 999q0 197 136.5 328t357.5 131q264 0 424 -186t160 -508v-33q0 -187 -47 -333t-131 -237.5t-195.5 -138.5t-245.5 -47q-90 0 -179 27t-141.5 64t-52.5 69q0 45 25 86q137 -84 315 -84q89 0 166 28.5t142 88.5t106 164.5t49 243.5q-75 -62 -176 -99t-211 -37 q-103 0 -194.5 33.5t-160 93.5t-108 149.5t-39.5 196.5zM328 1006q0 -148 98 -233t248 -85q101 0 194 33.5t164 95.5q-10 225 -121 352t-284 127q-128 0 -213.5 -79.5t-85.5 -210.5z" />
<glyph unicode=":" horiz-adv-x="673" d="M221 100q0 52 31.5 83.5t81.5 31.5q48 0 83.5 -34.5t35.5 -90.5q0 -52 -31.5 -83.5t-81.5 -31.5q-48 0 -83.5 34.5t-35.5 90.5zM221 1004q0 52 31.5 83t81.5 31q48 0 83.5 -34.5t35.5 -90.5q0 -52 -31.5 -83t-81.5 -31q-48 0 -83.5 34.5t-35.5 90.5z" />
<glyph unicode=";" horiz-adv-x="673" d="M195 -225q99 96 114 205q-39 11 -63.5 43t-24.5 77q0 52 31.5 83.5t81.5 31.5q49 0 84 -35t35 -98q0 -151 -105 -275q-33 -42 -70 -64t-49 -17q-27 16 -34 49zM221 1004q0 52 31.5 83t81.5 31q48 0 83.5 -34.5t35.5 -90.5q0 -52 -31.5 -83t-81.5 -31q-48 0 -83.5 34.5 t-35.5 90.5z" />
<glyph unicode="&#x3c;" horiz-adv-x="1329" d="M174 641v125l909 391q15 6 29 6q41 0 41 -63q0 -44 -10 -99l-768 -321l735 -309q43 -19 43 -66v-133l-938 403q-41 15 -41 66z" />
<glyph unicode="=" horiz-adv-x="1329" d="M174 430q0 54 12 98h920q25 0 36 -13t11 -44v-94h-938q-41 0 -41 53zM174 883q0 55 12 98h920q25 0 36 -13t11 -44v-95h-938q-41 0 -41 54z" />
<glyph unicode="&#x3e;" horiz-adv-x="1329" d="M174 172v133q0 48 43 66l735 309l-770 321q-8 44 -8 99q0 63 39 63q14 0 29 -6l911 -391v-125q0 -51 -43 -66z" />
<glyph unicode="?" horiz-adv-x="1140" d="M109 1114q0 24 10 47q54 137 170 217t280 80q195 0 318 -110t123 -287q0 -119 -55 -211t-181 -199q-84 -71 -112.5 -116.5t-28.5 -110.5v-57h-127q-32 0 -44.5 10t-12.5 35v30q0 93 43 165t151 161q97 78 136.5 143.5t39.5 149.5q0 105 -70 170t-180 65 q-106 0 -188.5 -70.5t-110.5 -197.5q-81 7 -127 37q-34 19 -34 49zM426 100q0 52 31.5 83.5t79.5 31.5q49 0 83.5 -34t34.5 -91q0 -53 -31 -84t-79 -31q-49 0 -84 34.5t-35 90.5z" />
<glyph unicode="@" horiz-adv-x="2091" d="M154 563q0 189 70 356t189.5 285t283.5 186t347 68q191 0 357.5 -64.5t284 -176t184.5 -268t67 -335.5q0 -146 -51 -263.5t-144.5 -186t-213.5 -68.5q-93 0 -164 50t-102 137q-132 -177 -351 -177q-144 0 -243 107t-99 272q0 124 46.5 228t123.5 170t173 102.5t198 36.5 q122 0 220.5 -52.5t158.5 -138.5l-80 -421q-15 -84 19 -134.5t110 -50.5q106 0 181 108t75 277q0 152 -54.5 284.5t-151.5 228.5t-238 151t-306 55q-151 0 -288.5 -58t-238.5 -158t-160.5 -243t-59.5 -305q0 -161 58 -303.5t159 -244.5t245 -161t308 -59q281 0 481 150 q35 -21 41 -60q1 -15 -19.5 -41t-66 -56.5t-106 -58t-150 -45.5t-188.5 -18q-192 0 -360.5 69t-287.5 187.5t-188 284.5t-69 354zM743 489q0 -108 55 -171.5t148 -63.5q83 0 159.5 37t131.5 104l78 402q-64 82 -211 82q-144 0 -252.5 -111t-108.5 -279z" />
<glyph unicode="A" horiz-adv-x="1374" d="M53 39q0 8 4 20l508 1352q79 35 164 35q38 0 56 -13t32 -49l520 -1384h-141q-34 0 -50 9.5t-24 31.5l-118 332h-635l-133 -373h-127q-25 0 -40.5 10.5t-15.5 28.5zM424 530h524l-262 727z" />
<glyph unicode="B" horiz-adv-x="1341" d="M190 356v1078h508q225 0 352.5 -108t127.5 -273q0 -112 -56 -193.5t-155 -120.5q119 -34 188.5 -123.5t69.5 -216.5q0 -184 -130 -291.5t-372 -107.5h-221q-156 0 -234 83t-78 273zM377 373q0 -123 32 -169t115 -46h203q307 0 307 250q0 241 -336 241h-321v-276zM377 807 h307q151 0 227 60.5t76 172.5q0 109 -78.5 171.5t-224.5 62.5h-307v-467z" />
<glyph unicode="C" horiz-adv-x="1406" d="M119 760q0 163 52.5 296.5t142.5 220.5t206.5 134t247.5 47q188 0 330 -82.5t209 -218.5q10 -20 10 -35q0 -46 -55 -69q-47 -21 -105 -27q-51 129 -154.5 199.5t-244.5 70.5q-88 0 -168 -35t-143.5 -100t-101.5 -167.5t-38 -227.5q0 -194 80.5 -339t217 -218.5 t308.5 -73.5q191 0 332 78q25 -41 25 -86q0 -31 -50 -66t-141.5 -60.5t-193.5 -25.5q-217 0 -390.5 94.5t-274.5 274.5t-101 416z" />
<glyph unicode="D" horiz-adv-x="1478" d="M193 358v1076h485q145 0 270 -50t216.5 -141.5t143.5 -227t52 -298.5t-52 -298.5t-143.5 -227t-216.5 -141.5t-270 -50h-176q-157 0 -233 82.5t-76 275.5zM379 373q0 -122 31 -167.5t114 -45.5h131q106 0 198 36t162.5 103.5t111 175t40.5 242.5t-40.5 242.5t-111 175 t-162.5 103.5t-198 36h-276v-901z" />
<glyph unicode="E" horiz-adv-x="1175" d="M190 356v1078h811q41 0 41 -54q0 -56 -12 -106h-653v-483h510q25 0 35 -13.5t10 -44.5v-102h-555v-258q0 -119 34.5 -167t112.5 -48h490q25 0 35 -13.5t10 -44.5v-100h-557q-159 0 -235.5 82.5t-76.5 273.5z" />
<glyph unicode="F" horiz-adv-x="1124" d="M195 45v1389h811q41 0 41 -54q0 -52 -13 -106h-653v-492h510q25 0 35 -12.5t10 -44.5v-100h-555v-625h-129q-31 0 -44 10t-13 35z" />
<glyph unicode="G" horiz-adv-x="1533" d="M119 760q0 160 53 293t144 221t211.5 136t256.5 48q187 0 331.5 -77.5t219.5 -209.5q11 -22 11 -34q0 -47 -56 -70q-48 -21 -104 -27q-49 123 -154 189.5t-246 66.5q-96 0 -182.5 -36t-152.5 -102.5t-105 -167.5t-39 -224q0 -144 46.5 -264t126 -199.5t184 -123.5 t221.5 -44q149 0 224 50t75 137v241h-291q-43 0 -43 51q0 53 14 107h459q25 0 36 -12.5t11 -44.5v-340q0 -157 -131.5 -253t-357.5 -96q-160 0 -300 56.5t-242 157.5t-161 248.5t-59 322.5z" />
<glyph unicode="H" horiz-adv-x="1478" d="M195 45v1380q68 21 131 21q55 0 55 -43v-606h715v637h129q30 0 43.5 -11.5t13.5 -36.5v-1386h-129q-32 0 -44.5 10t-12.5 35v594h-715v-639h-129q-31 0 -44 10t-13 35z" />
<glyph unicode="I" horiz-adv-x="600" d="M207 45v1380q68 21 129 21q57 0 57 -43v-1403h-129q-32 0 -44.5 10t-12.5 35z" />
<glyph unicode="J" horiz-adv-x="864" d="M33 88q0 40 24 86q92 -37 199 -37q233 0 233 250v1040q62 19 129 19q58 0 58 -43v-1020q0 -195 -97.5 -301.5t-281.5 -106.5q-98 0 -181 37.5t-83 75.5z" />
<glyph unicode="K" horiz-adv-x="1351" d="M195 45v1380q68 21 131 21q55 0 55 -43v-678q189 128 374.5 315.5t329.5 405.5q75 -25 105.5 -48t30.5 -55q0 -27 -17 -53q-166 -262 -459 -510q103 -189 215.5 -350.5t200.5 -243.5q54 -51 109 -51h39q10 -33 10 -74q0 -33 -37 -59.5t-94 -26.5q-92 0 -184 95 q-181 187 -398 604q-114 -90 -225 -156v-518h-129q-31 0 -44 10t-13 35z" />
<glyph unicode="L" horiz-adv-x="1118" d="M190 356v1069q68 21 132 21q55 0 55 -43v-1030q0 -119 34.5 -167t112.5 -48h494q45 0 45 -58v-100h-561q-159 0 -235.5 82.5t-76.5 273.5z" />
<glyph unicode="M" horiz-adv-x="1835" d="M143 49l148 1348q79 49 143 49q22 0 35 -8t25 -29l421 -764l437 789h131q31 0 43.5 -11t15.5 -37l152 -1386h-138q-32 0 -46 10.5t-17 36.5l-111 1104l-368 -664q-17 -32 -72 -32h-106l-385 696l-119 -1151h-131q-33 0 -47 12q-12 10 -12 29q0 4 1 8z" />
<glyph unicode="N" horiz-adv-x="1470" d="M197 45v1344q32 25 71.5 41t65.5 16q33 0 55 -31l698 -1104v1123h130q30 0 43.5 -10.5t13.5 -34.5v-1344q-32 -25 -71.5 -41t-65.5 -16q-35 0 -56 30l-698 1104v-1122h-129q-30 0 -43.5 10.5t-13.5 34.5z" />
<glyph unicode="O" horiz-adv-x="1583" d="M121 717q0 178 53.5 321t146 233.5t213 138.5t257.5 48q110 0 210 -29.5t184 -90.5t146 -148t96.5 -208.5t34.5 -264.5q0 -178 -53.5 -321t-145.5 -234t-213 -139t-259 -48q-109 0 -208.5 30t-184 91t-146 148t-96.5 208.5t-35 264.5zM311 735q0 -141 39 -256t107 -189 t157 -113.5t191 -39.5q92 0 174 34t148.5 100.5t105.5 176.5t39 250q0 141 -39 256t-107 189t-157 113.5t-191 39.5q-92 0 -174.5 -34t-148.5 -100.5t-105 -176.5t-39 -250z" />
<glyph unicode="P" horiz-adv-x="1306" d="M197 45v1389h450q257 0 409 -139.5t152 -383.5q0 -159 -73 -276.5t-195 -175.5t-276 -58q-159 0 -281 39v-440h-129q-30 0 -43.5 10.5t-13.5 34.5zM383 590q108 -27 252 -27q175 0 279 92t104 263q0 174 -102 265t-279 91h-254v-684z" />
<glyph unicode="Q" horiz-adv-x="1583" d="M121 717q0 178 53.5 321t146 233.5t213 138.5t257.5 48q110 0 210 -29.5t184 -90.5t146 -148t96.5 -208.5t34.5 -264.5q0 -235 -87.5 -401.5t-241.5 -254.5q116 -198 260 -198h39q10 -33 10 -66q0 -31 -37 -55.5t-98 -24.5q-92 0 -172.5 74.5t-139.5 214.5 q-102 -31 -204 -31q-109 0 -208.5 30t-184 91t-146 148t-96.5 208.5t-35 264.5zM311 735q0 -141 39.5 -256t107.5 -189t157 -113.5t190 -39.5q92 0 174 34t148.5 100.5t105.5 176.5t39 250q0 141 -39 256t-107 189t-157 113.5t-191 39.5q-92 0 -174.5 -34t-148.5 -100.5 t-105 -176.5t-39 -250z" />
<glyph unicode="R" horiz-adv-x="1337" d="M195 45v1389h419q258 0 410 -132t152 -364q0 -180 -91.5 -299.5t-248.5 -167.5q131 -210 249 -301q54 -43 107 -43h37q10 -33 10 -66t-36.5 -59.5t-94.5 -26.5q-80 0 -156 64q-151 125 -301 403q-161 0 -270 35v-477h-129q-31 0 -44 10t-13 35zM381 627q106 -25 221 -25 q175 0 278 87t103 249t-102.5 249t-278.5 87h-221v-647z" />
<glyph unicode="S" horiz-adv-x="1216" d="M129 1065q0 173 130.5 283t336.5 110q159 0 283.5 -66.5t187.5 -177.5q14 -24 14 -49t-39 -47q-59 -32 -124 -35q-42 102 -124 157.5t-198 55.5q-122 0 -199.5 -62.5t-77.5 -164.5q0 -96 79 -161t270 -126q226 -73 327 -173.5t101 -248.5q0 -173 -134 -279t-360 -106 q-86 0 -165.5 15.5t-133 39t-85.5 51t-32 52.5q0 48 25 84q167 -82 369 -82q160 0 243.5 59.5t83.5 157.5q0 97 -74 161t-239 108q-229 62 -347 170t-118 274z" />
<glyph unicode="T" horiz-adv-x="1251" d="M86 1327q0 49 14 107h1016q25 0 36 -14t11 -46v-100h-446v-1274h-129q-31 0 -44.5 10t-13.5 35v1229h-401q-43 0 -43 53z" />
<glyph unicode="U" horiz-adv-x="1472" d="M184 602v823q68 21 131 21q56 0 56 -43v-815q0 -205 98 -329t266 -124q167 0 266 124t99 329v846h129q30 0 43.5 -11.5t13.5 -36.5v-784q0 -289 -147 -458t-404 -169t-404 169t-147 458z" />
<glyph unicode="V" horiz-adv-x="1464" d="M88 1391q77 53 143 53q42 0 54 -37l440 -1186q137 236 257.5 558t195.5 655h133q33 0 47 -13q10 -9 10 -25q0 -7 -2 -14q-165 -718 -514 -1335q-14 -26 -31 -36.5t-51 -10.5h-162z" />
<glyph unicode="W" horiz-adv-x="2279" d="M98 1391q80 53 144 53q23 0 35.5 -8t19.5 -29l348 -1188q232 510 369 1215h170q68 0 82 -50l336 -1165q246 527 374 1215h135q33 0 47 -13q10 -9 10 -26q0 -6 -1 -13q-133 -677 -436 -1335q-12 -26 -31 -36.5t-53 -10.5h-162l-342 1200q-135 -622 -381 -1153 q-20 -47 -84 -47h-154z" />
<glyph unicode="X" horiz-adv-x="1402" d="M104 35q0 14 9 35q77 181 198 353t273 314l-455 604q77 103 135 103q17 0 27 -6t22 -23l412 -547q249 264 369 566h141q49 0 49 -37q0 -16 -8 -35q-70 -167 -186.5 -332t-260.5 -305l484 -637q-76 -102 -135 -102q-31 0 -50 28l-438 582q-256 -256 -393 -596h-141 q-52 0 -52 35z" />
<glyph unicode="Y" horiz-adv-x="1353" d="M78 1362q79 82 139 82q31 0 49 -33l410 -749q280 380 416 772h133q32 0 45 -16q8 -9 8 -22q0 -8 -4 -18q-177 -473 -510 -889v-489h-129q-32 0 -44.5 10t-12.5 35v436z" />
<glyph unicode="Z" horiz-adv-x="1249" d="M119 129l770 1145h-692q-43 0 -43 53q0 49 14 107h854q47 0 68 -33q25 -41 34 -96l-770 -1147h740q25 0 36 -13.5t11 -44.5v-100h-920q-26 0 -40.5 7t-26.5 26q-26 44 -35 96z" />
<glyph unicode="[" horiz-adv-x="858" d="M260 109v1427h500q43 0 43 -53q0 -37 -12 -99h-353v-1269q0 -129 34.5 -179.5t117.5 -50.5h158q25 0 36 -13t11 -44v-94h-220q-162 0 -238.5 88t-76.5 287z" />
<glyph unicode="\" horiz-adv-x="1011" d="M-10 1507q0 35 51 35h123l850 -1712q6 -12 6 -20q0 -35 -51 -35h-123l-850 1712q-6 12 -6 20z" />
<glyph unicode="]" horiz-adv-x="858" d="M53 1483q0 53 43 53h443q31 0 44 -11t13 -36v-1380q0 -200 -75.5 -287.5t-239.5 -87.5h-220v94q0 30 11.5 43.5t36.5 13.5h157q85 0 118.5 49.5t33.5 180.5v1269h-352q-13 67 -13 99z" />
<glyph unicode="^" horiz-adv-x="1273" d="M164 815q0 19 16 45l352 574h134q60 0 92 -52l352 -573l-92 -55q-24 -15 -41 -15q-26 0 -49 41l-299 490l-322 -527q-56 0 -112 31q-31 17 -31 41z" />
<glyph unicode="_" horiz-adv-x="1024" d="M0 -287q0 32 8 68h971q24 0 34.5 -12.5t10.5 -44.5v-62h-981q-43 0 -43 51z" />
<glyph unicode="`" horiz-adv-x="854" d="M231 1389q24 49 64 84q21 18 45 18q20 0 43 -23l240 -237l-56 -60q-16 -16 -32 -16t-41 19z" />
<glyph unicode="a" horiz-adv-x="1214" d="M109 317q0 167 117 262t317 95q78 0 159.5 -17.5t139.5 -46.5v90q0 131 -83.5 198t-240.5 67q-167 0 -293 -66q-24 27 -24 78q0 29 45.5 61.5t131 56t183.5 23.5q216 0 337.5 -108.5t121.5 -317.5v-450q0 -62 19.5 -87.5t58.5 -25.5h41q10 -30 10 -63q0 -30 -37 -55 t-96 -25q-65 0 -111.5 48t-56.5 130q-55 -88 -151.5 -138.5t-217.5 -50.5q-166 0 -268 95t-102 247zM287 324q0 -93 64.5 -145t164.5 -52q99 0 187 52t139 147v149q-48 21 -128 33t-149 12q-133 0 -205.5 -51.5t-72.5 -144.5z" />
<glyph unicode="b" horiz-adv-x="1306" d="M170 475v1016q66 16 123 16q55 0 55 -43v-526q69 84 170.5 132t218.5 48q96 0 180 -37t146.5 -103.5t98.5 -167t36 -220.5q0 -172 -70.5 -312t-198 -221.5t-286.5 -81.5q-219 0 -346 134.5t-127 365.5zM348 475q0 -169 85 -257.5t214 -88.5q153 0 262 130t109 325 q0 189 -91 286t-235 97q-91 0 -184 -50.5t-160 -134.5v-307z" />
<glyph unicode="c" horiz-adv-x="1130" d="M109 580q0 164 69 287.5t186.5 187t266.5 63.5q146 0 254.5 -61t156.5 -158q11 -22 11 -37q0 -33 -33 -51q-48 -28 -121 -35q-61 189 -276 189q-143 0 -238.5 -104t-95.5 -277q0 -88 24.5 -163t66 -128.5t97.5 -91t119.5 -56t130.5 -18.5q147 0 270 63q25 -36 25 -77 q0 -29 -40 -60.5t-117 -54.5t-167 -23q-113 0 -218 41t-188 116t-133 191.5t-50 256.5z" />
<glyph unicode="d" horiz-adv-x="1335" d="M109 504q0 132 43 247t116 195t172.5 126t210.5 46q187 0 307 -108v485h121q31 0 44.5 -11t13.5 -36v-1206q0 -62 19 -87.5t58 -25.5h41q11 -33 11 -63t-37 -55t-96 -25q-70 0 -116.5 52t-55.5 150q-55 -98 -157.5 -155.5t-228.5 -57.5q-203 0 -334.5 143.5t-131.5 385.5 zM289 508q0 -178 87.5 -279.5t237.5 -101.5q104 0 197.5 73t146.5 212v442q-117 111 -280 111q-167 0 -278 -130.5t-111 -326.5z" />
<glyph unicode="e" d="M109 547q0 130 43.5 239t117 180.5t170.5 111.5t205 40q192 0 313 -113t121 -288q0 -92 -30 -160q-21 -48 -52.5 -66t-89.5 -18h-614q17 -164 124 -254t263 -90q153 0 272 64q25 -32 25 -80q0 -46 -94.5 -92t-231.5 -46q-154 0 -277.5 72.5t-194 203.5t-70.5 296z M293 625h596q16 37 16 84q0 118 -71.5 187t-196.5 69q-139 0 -234 -92t-110 -248z" />
<glyph unicode="f" horiz-adv-x="876" d="M63 995q0 49 13 99h207v61q0 178 88 271.5t243 93.5q96 0 174 -35t78 -68q0 -49 -26 -82q-78 31 -185 31q-102 0 -148 -49.5t-46 -153.5v-69h325q25 0 36.5 -14t11.5 -46v-92h-373v-942h-121q-32 0 -44.5 10t-12.5 35v897h-177q-43 0 -43 53z" />
<glyph unicode="g" horiz-adv-x="1310" d="M109 504q0 132 43 247t116 195t172.5 126t210.5 46q187 0 307 -108v84h121q31 0 44.5 -11t13.5 -36v-1027q0 -103 -39.5 -197.5t-113 -168.5t-189 -118t-256.5 -44q-178 0 -285 78.5t-107 200.5q0 76 48 145.5t143 120.5l8 -4q-110 62 -173.5 184t-63.5 287zM289 508 q0 -178 87.5 -279.5t237.5 -101.5q104 0 197.5 73t146.5 212v442q-117 111 -280 111q-167 0 -278 -130.5t-111 -326.5zM326 -209q0 -66 57.5 -106.5t159.5 -40.5q177 0 296 101.5t119 268.5v170q-56 -97 -157.5 -153t-225.5 -56q-59 0 -129 17q-120 -83 -120 -201z" />
<glyph unicode="h" horiz-adv-x="1312" d="M174 45v1444q62 18 123 18q55 0 55 -43v-489q71 65 170.5 104t202.5 39q188 0 288.5 -124.5t100.5 -348.5v-407q0 -58 17.5 -83.5t54.5 -25.5h45q10 -22 10 -63q0 -30 -36 -55t-93 -25q-176 0 -176 237v434q0 308 -258 308q-85 0 -173 -34.5t-153 -96.5v-834h-121 q-32 0 -44.5 10t-12.5 35z" />
<glyph unicode="i" horiz-adv-x="552" d="M152 1401q0 49 29.5 78.5t74.5 29.5q46 0 78.5 -32t32.5 -84q0 -49 -29.5 -78t-75.5 -29q-45 0 -77.5 32t-32.5 83zM174 223v864q65 19 123 19q55 0 55 -43v-825q0 -58 17.5 -83.5t54.5 -25.5h45q10 -23 10 -63q0 -30 -36 -55t-93 -25q-176 0 -176 237z" />
<glyph unicode="j" horiz-adv-x="538" d="M8 -346q176 171 176 377v1056q65 19 123 19q55 0 55 -43v-1045q0 -91 -29.5 -174t-80.5 -143q-47 -58 -95.5 -88.5t-78.5 -30.5q-20 0 -41 23t-29 49zM162 1401q0 49 29.5 78.5t74.5 29.5q46 0 78.5 -32t32.5 -84q0 -49 -29.5 -78t-75.5 -29q-45 0 -77.5 32t-32.5 83z " />
<glyph unicode="k" horiz-adv-x="1185" d="M174 45v1444q62 18 123 18q55 0 55 -43v-893q158 95 316.5 239t263.5 296q68 -24 94.5 -47t26.5 -53q0 -63 -121 -183.5t-275 -234.5q73 -115 161 -223.5t159 -176.5q62 -59 102 -59h41q10 -30 10 -63q0 -30 -36 -55t-90 -25q-73 0 -150 71q-81 75 -170.5 192t-163.5 247 q-80 -53 -168 -101v-395h-121q-32 0 -44.5 10t-12.5 35z" />
<glyph unicode="l" horiz-adv-x="641" d="M174 291v1200q66 16 123 16q55 0 55 -43v-1179q0 -80 31 -117t94 -37q65 0 119 23q22 -33 22 -72q0 -32 -53 -64t-135 -32q-125 0 -190.5 79t-65.5 226z" />
<glyph unicode="m" horiz-adv-x="1875" d="M174 45v1042q65 19 123 19q55 0 55 -43v-92q64 71 148 109t174 38q204 0 291 -164q76 77 171.5 120.5t194.5 43.5q157 0 250.5 -97.5t93.5 -293.5v-489q0 -58 17.5 -83.5t54.5 -25.5h45q10 -22 10 -63q0 -30 -36 -55t-93 -25q-176 0 -176 237v510q0 118 -55 175t-150 57 q-76 0 -150.5 -35.5t-135.5 -102.5q8 -66 8 -102v-725h-121q-31 0 -44 10t-13 35v686q0 117 -54.5 175.5t-148.5 58.5q-162 0 -281 -142v-823h-121q-32 0 -44.5 10t-12.5 35z" />
<glyph unicode="n" horiz-adv-x="1312" d="M174 45v1042q65 19 123 19q55 0 55 -43v-88q71 65 170.5 104t202.5 39q188 0 288.5 -124.5t100.5 -348.5v-407q0 -58 17.5 -83.5t54.5 -25.5h45q10 -22 10 -63q0 -30 -36 -55t-93 -25q-176 0 -176 237v434q0 308 -258 308q-85 0 -173 -34.5t-153 -96.5v-834h-121 q-32 0 -44.5 10t-12.5 35z" />
<glyph unicode="o" horiz-adv-x="1286" d="M109 547q0 132 42.5 241.5t116 180.5t170 110t205.5 39t205.5 -39t170 -110t116.5 -180.5t43 -241.5t-43 -241.5t-116.5 -181t-170 -110.5t-205.5 -39t-205.5 39t-170 110.5t-116 181t-42.5 241.5zM291 559q0 -202 106 -316t256 -114q145 0 243.5 104t98.5 302 q0 202 -106 316t-256 114q-145 0 -243.5 -104t-98.5 -302z" />
<glyph unicode="p" horiz-adv-x="1310" d="M174 -391v1481q66 16 123 16q55 0 55 -43v-156q55 97 156.5 154t226.5 57q203 0 335 -143t132 -385q0 -132 -43 -247.5t-116 -195.5t-173 -126t-211 -46q-186 0 -307 109v-520h-121q-30 0 -43.5 10.5t-13.5 34.5zM352 240q117 -111 281 -111q167 0 278 130.5t111 326.5 q0 178 -88 279.5t-238 101.5q-104 0 -197.5 -73t-146.5 -212v-442z" />
<glyph unicode="q" horiz-adv-x="1310" d="M109 504q0 132 43 247t116 195t172.5 126t210.5 46q187 0 307 -108v84h121q31 0 44.5 -11t13.5 -36v-1483h-121q-32 0 -45 11t-13 36v573q-56 -97 -157.5 -153t-225.5 -56q-203 0 -334.5 143.5t-131.5 385.5zM289 508q0 -178 87.5 -279.5t237.5 -101.5q104 0 197.5 73 t146.5 212v442q-117 111 -280 111q-167 0 -278 -130.5t-111 -326.5z" />
<glyph unicode="r" horiz-adv-x="929" d="M174 45v1042q65 19 123 19q55 0 55 -43v-131q51 87 133 136.5t187 49.5q118 0 186 -43q29 -18 39 -30.5t10 -32.5q0 -24 -18 -45q-26 -36 -72 -62q-78 60 -194 60q-98 0 -168 -61.5t-103 -182.5v-721h-121q-32 0 -44.5 10t-12.5 35z" />
<glyph unicode="s" horiz-adv-x="1021" d="M129 805q0 139 106.5 226t278.5 87q127 0 227.5 -49.5t147.5 -134.5q12 -24 12 -37q0 -26 -29 -49q-46 -34 -122 -43q-27 76 -91.5 118t-148.5 42q-91 0 -147 -45t-56 -115q0 -75 61 -120t203 -81q178 -44 259 -121t81 -200q0 -142 -103.5 -225t-293.5 -83 q-95 0 -179.5 24.5t-129.5 57t-45 60.5q0 50 26 80q143 -70 306 -70q241 0 241 147q0 67 -49.5 108t-173.5 69q-198 45 -289.5 132t-91.5 222z" />
<glyph unicode="t" horiz-adv-x="927" d="M66 995q0 55 12 99h184v309q66 16 123 16q55 0 55 -43v-282h348q46 0 46 -58v-94h-394v-604q0 -107 54.5 -158t146.5 -51q102 0 172 33q27 -31 27 -78q0 -39 -68.5 -74t-171.5 -35q-155 0 -246.5 96.5t-91.5 278.5v592h-153q-43 0 -43 53z" />
<glyph unicode="u" horiz-adv-x="1257" d="M156 461v626q65 19 123 19q55 0 55 -43v-614q0 -147 84.5 -234.5t210.5 -87.5t209.5 87.5t83.5 234.5v645h120q31 0 44.5 -11t13.5 -36v-586q0 -225 -129.5 -355.5t-341.5 -130.5q-213 0 -343 130.5t-130 355.5z" />
<glyph unicode="v" horiz-adv-x="1206" d="M84 1053q75 55 137 55q19 0 29 -7t16 -26l330 -897q104 178 199.5 427.5t146.5 488.5h119q33 0 47 -13q10 -9 10 -25q0 -7 -2 -14q-58 -252 -166 -518.5t-239 -486.5q-22 -37 -72 -37h-158z" />
<glyph unicode="w" horiz-adv-x="1789" d="M92 1051q81 57 141 57q33 0 43 -35l256 -893q169 386 254 914h154q58 0 72 -52l252 -862q170 390 249 914h123q53 0 53 -39q0 -6 -1 -13q-88 -524 -306 -1001q-17 -41 -67 -41h-168l-246 879q-76 -430 -254 -842q-15 -37 -65 -37h-164z" />
<glyph unicode="x" horiz-adv-x="1159" d="M86 33q0 10 6 22q53 127 151 259t216 239l-348 457q62 94 120 94q26 0 41 -21l314 -413q200 211 284 424h134q45 0 45 -35q0 -9 -7 -23q-53 -126 -149 -257t-211 -238l258 -340q31 -40 56.5 -56t58.5 -16h30q9 -27 9 -57q0 -34 -33.5 -60t-91.5 -26q-45 0 -84.5 28.5 t-93.5 100.5l-234 309q-199 -199 -293 -424h-131q-47 0 -47 33z" />
<glyph unicode="y" horiz-adv-x="1284" d="M170 449v641q66 16 123 16q55 0 55 -43v-627q0 -307 258 -307q85 0 173 34.5t153 96.5v836h121q31 0 44 -10t13 -35v-1045q0 -104 -35 -196t-101.5 -163.5t-173 -113t-239.5 -41.5q-172 0 -275.5 77.5t-103.5 199.5q0 157 172 258q-184 109 -184 422zM360 -211 q0 -66 55 -106.5t150 -40.5q164 0 265.5 93t101.5 253v131q-71 -65 -170.5 -104.5t-202.5 -39.5q-25 0 -90 9q-109 -75 -109 -195z" />
<glyph unicode="z" horiz-adv-x="1034" d="M109 125l591 817h-532q-23 0 -33 12.5t-10 40.5q0 53 12 99h694q46 0 64 -29q25 -40 35 -96l-594 -819h565q45 0 45 -58v-92h-739q-46 0 -64 29q-24 37 -34 96z" />
<glyph unicode="{" horiz-adv-x="839" d="M129 612v99q110 0 163.5 60.5t53.5 162.5v262q0 92 27.5 159t78 106t114.5 57t145 18h41q41 0 41 -53q0 -49 -13 -99h-102q-72 0 -113 -49t-41 -141v-248q0 -121 -42.5 -196.5t-135.5 -114.5q93 -41 135.5 -115.5t42.5 -195.5v-250q0 -92 43 -140.5t111 -48.5h72 q25 0 35 -13t10 -44v-94h-68q-85 0 -151 16.5t-119.5 54t-82 105.5t-28.5 164v262q0 97 -44 151.5t-124 65.5q-27 3 -38 16t-11 43z" />
<glyph unicode="|" horiz-adv-x="632" d="M240 -362v1925q40 12 96 12q57 0 57 -43v-1942h-96q-32 0 -44.5 11.5t-12.5 36.5z" />
<glyph unicode="}" horiz-adv-x="839" d="M43 -172q0 30 10.5 43.5t34.5 13.5h55q71 0 112.5 48.5t41.5 140.5v250q0 121 42.5 195.5t135.5 115.5q-93 39 -135.5 114.5t-42.5 196.5v248q0 93 -43 141.5t-111 48.5h-86q-12 46 -12 99q0 28 10 40.5t33 12.5h41q80 0 144 -18t114 -57t77.5 -106t27.5 -159v-262 q0 -102 53.5 -162.5t163.5 -60.5v-99q0 -30 -11.5 -43t-38.5 -16q-80 -11 -123.5 -66t-43.5 -151v-262q0 -96 -28.5 -164t-82 -105.5t-119.5 -54t-151 -16.5h-68v94z" />
<glyph unicode="~" horiz-adv-x="1329" d="M162 588q0 23 8 47q28 100 96.5 157.5t179.5 57.5q115 0 224 -76q91 -64 127.5 -83t70.5 -19q106 0 136 180l126 -27q41 -9 35 -47q-21 -120 -93 -189t-193 -69q-115 0 -224 76q-91 64 -127.5 83t-70.5 19q-105 0 -135 -178q-68 -4 -121 19q-39 16 -39 49z" />
<glyph unicode="&#xa1;" horiz-adv-x="602" d="M186 1004q0 53 32 83.5t81 30.5t84 -34.5t35 -90.5q0 -52 -31.5 -83t-79.5 -31q-50 0 -85.5 34.5t-35.5 90.5zM201 -68q0 394 28 795h95q29 0 40.5 -10t14.5 -35q27 -411 27 -750v-268q-66 -16 -142 -16q-63 0 -63 45v239z" />
<glyph unicode="&#xa2;" horiz-adv-x="1130" d="M109 580q0 218 116 358t307 172v205q50 16 109 16q55 0 55 -43v-174q123 -13 213 -71t133 -144q11 -22 11 -37q0 -33 -33 -51q-48 -28 -121 -35q-61 189 -276 189q-143 0 -238.5 -104t-95.5 -277q0 -88 24.5 -163t66 -128.5t97.5 -91t119.5 -56t130.5 -18.5q147 0 270 63 q25 -36 25 -77q0 -47 -93.5 -92t-226.5 -46v-204h-108q-31 0 -44 11t-13 36v180q-185 50 -306.5 203t-121.5 379z" />
<glyph unicode="&#xa3;" horiz-adv-x="1220" d="M109 653q0 47 8 78h131v258q0 218 118 343.5t310 125.5q149 0 260 -79t162 -208q12 -27 12 -49q0 -30 -43 -49q-59 -27 -121 -33q-33 129 -104 192.5t-166 63.5q-110 0 -176 -78t-66 -221v-266h422q25 0 36 -12.5t11 -44.5v-60h-469v-129q0 -129 -23 -205t-75 -122h751 q46 0 46 -58v-100h-955q-25 0 -36 12.5t-11 44.5v86q71 59 94 128t23 200v143h-96q-43 0 -43 39z" />
<glyph unicode="&#xa4;" horiz-adv-x="1417" d="M141 1126q25 45 66 86q39 39 69 9l168 -168q116 80 265 80q142 0 260 -78l188 188q44 -21 86 -63q39 -39 8 -70l-166 -168q84 -117 84 -262q0 -144 -79 -260l186 -187q-25 -45 -66 -86q-38 -39 -69 -8l-168 168q-116 -80 -264 -80q-142 0 -260 78l-189 -188 q-44 21 -86 63q-39 39 -8 70l166 168q-84 117 -84 262q0 144 80 260zM422 692q0 -143 86.5 -228t212.5 -85q113 0 193.5 81.5t80.5 207.5q0 143 -86.5 228t-212.5 85q-113 0 -193.5 -81.5t-80.5 -207.5z" />
<glyph unicode="&#xa5;" horiz-adv-x="1341" d="M70 1358q74 86 133 86q20 0 32 -6.5t25 -26.5l414 -592q116 122 228 287t185 328h125q58 0 58 -35q0 -10 -15 -45q-88 -180 -219.5 -364t-279.5 -331v-22h250q20 0 28 -10.5t8 -38.5v-51h-286v-91h250q20 0 28 -10.5t8 -38.5v-53h-286v-344h-129q-31 0 -44.5 10t-13.5 35 v299h-258q-28 0 -28 35q0 27 8 67h278v91h-258q-28 0 -28 34q0 26 8 66h278v20z" />
<glyph unicode="&#xa6;" horiz-adv-x="632" d="M240 -240v646q40 12 96 12q57 0 57 -43v-662h-96q-32 0 -44.5 11t-12.5 36zM240 793v647q40 12 96 12q57 0 57 -43v-661h-96q-32 0 -44.5 10t-12.5 35z" />
<glyph unicode="&#xa7;" horiz-adv-x="1032" d="M129 612q0 85 48 149t136 101q-184 100 -184 283q0 139 106.5 226t278.5 87q127 0 227.5 -49.5t147.5 -134.5q10 -20 10 -37q0 -28 -27 -49q-46 -34 -129 -43q-26 77 -87.5 118.5t-145.5 41.5q-91 0 -147 -45t-56 -115q0 -74 60 -118t204 -87q174 -53 257 -130.5 t83 -193.5q0 -174 -176 -249q176 -86 176 -265q0 -141 -103.5 -224t-293.5 -83q-143 0 -248.5 48t-105.5 96q0 47 26 77q144 -67 306 -67q241 0 241 145q0 66 -51 106.5t-172 69.5q-201 49 -291 131t-90 211zM307 623q0 -84 65.5 -126.5t198.5 -72.5q81 23 121.5 72.5 t40.5 105.5q0 83 -66 126t-198 73q-81 -25 -121.5 -73.5t-40.5 -104.5z" />
<glyph unicode="&#xa8;" horiz-adv-x="854" d="M139 1325q0 47 29 76t74 29q43 0 74.5 -31t31.5 -82q0 -47 -28.5 -76t-71.5 -29q-45 0 -77 31t-32 82zM504 1325q0 47 28.5 76t73.5 29q43 0 75 -31.5t32 -81.5q0 -47 -29 -76t-72 -29q-45 0 -76.5 31t-31.5 82z" />
<glyph unicode="&#xa9;" horiz-adv-x="1687" d="M102 717q0 202 99.5 372.5t270 269.5t372.5 99q151 0 288.5 -58.5t236.5 -157.5t157.5 -236.5t58.5 -288.5q0 -202 -99 -372.5t-269.5 -270t-372.5 -99.5t-372.5 99.5t-270 270t-99.5 372.5zM205 717q0 -176 85.5 -325t232.5 -235.5t321 -86.5t321 86.5t232.5 235.5 t85.5 325q0 131 -50.5 251t-136 206.5t-204 138t-248.5 51.5t-248.5 -51.5t-204 -138t-136 -206.5t-50.5 -251zM489 741q0 166 103 268.5t258 102.5q93 0 170 -40t113 -105q8 -16 8 -31q0 -18 -21 -33q-36 -23 -90 -33q-56 125 -184 125q-93 0 -151 -67t-58 -185 q0 -141 84 -223t211 -82q102 0 174 35q16 -28 16 -57q0 -33 -69 -63.5t-156 -30.5q-108 0 -200 50t-150 147t-58 222z" />
<glyph unicode="&#xaa;" horiz-adv-x="917" d="M86 883q0 112 81.5 182t217.5 70q138 0 223 -45v61q0 178 -215 178q-119 0 -211 -47q-18 25 -18 68q0 31 78 65.5t184 34.5q156 0 248 -79t92 -226v-320q0 -36 13 -50.5t44 -14.5h19q10 -23 10 -49q0 -28 -28 -46t-72 -18q-46 0 -82 27.5t-49 77.5q-38 -54 -104 -83.5 t-146 -29.5q-122 0 -203.5 68.5t-81.5 175.5zM246 885q0 -61 47 -94t115 -33q135 0 200 121v104q-67 33 -176 33q-89 0 -137.5 -33t-48.5 -98z" />
<glyph unicode="&#xab;" horiz-adv-x="1208" d="M129 616v82l426 301q24 17 37 17q31 0 31 -49q0 -47 -13 -101l-334 -227l316 -217q29 -20 29 -60v-131l-461 324q-31 27 -31 61zM584 616v82l426 301q24 17 37 17q30 0 30 -49q0 -51 -12 -101l-334 -227l316 -217q28 -19 28 -60v-131l-461 324q-30 26 -30 61z" />
<glyph unicode="&#xac;" horiz-adv-x="1329" d="M174 831q0 59 12 99h899q25 0 36.5 -13t11.5 -45v-514h-121q-31 0 -44.5 10t-13.5 35v377h-739q-22 0 -31.5 11.5t-9.5 39.5z" />
<glyph unicode="&#xad;" horiz-adv-x="888" d="M174 655q0 55 12 105h527q25 0 36 -13.5t11 -44.5v-102h-545q-41 0 -41 55z" />
<glyph unicode="&#xae;" horiz-adv-x="1687" d="M102 717q0 202 99.5 372.5t270 269.5t372.5 99q151 0 288.5 -58.5t236.5 -157.5t157.5 -236.5t58.5 -288.5q0 -202 -99 -372.5t-269.5 -270t-372.5 -99.5t-372.5 99.5t-270 270t-99.5 372.5zM205 717q0 -177 85.5 -326t232.5 -235t321 -86q173 0 319.5 86t232 235 t85.5 326q0 174 -85 322.5t-232 235.5t-320 87q-130 0 -248.5 -51.5t-204 -138t-136 -206t-50.5 -249.5zM565 360v752h277q141 0 224 -73.5t83 -194.5q0 -86 -44 -150t-120 -94q48 -82 109 -143q27 -27 61 -27h21q8 -20 8 -49q0 -24 -27.5 -41.5t-66.5 -17.5q-50 0 -93 40 q-85 78 -149 213q-80 0 -135 17v-258h-113q-35 0 -35 26zM713 705q54 -13 110 -13q80 0 128 39t48 113q0 151 -190 151h-96v-290z" />
<glyph unicode="&#xaf;" horiz-adv-x="854" d="M152 1305q0 38 12 84h498q21 0 29.5 -12t8.5 -40v-80h-512q-36 0 -36 48z" />
<glyph unicode="&#xb0;" horiz-adv-x="811" d="M98 1161q0 127 87.5 212t220.5 85t220 -85t87 -212t-87 -212t-220 -85t-220.5 85t-87.5 212zM238 1165q0 -81 49.5 -133.5t122.5 -52.5q72 0 117.5 49.5t45.5 128.5q0 81 -49.5 133.5t-122.5 52.5q-72 0 -117.5 -49.5t-45.5 -128.5z" />
<glyph unicode="&#xb1;" horiz-adv-x="1329" d="M174 51q0 55 12 99h920q25 0 36 -13.5t11 -44.5v-92h-938q-22 0 -31.5 11.5t-9.5 39.5zM174 807q0 58 12 98h387v402q58 20 123 20q56 0 56 -43v-379h354q25 0 36 -12.5t11 -44.5v-92h-401v-420h-121q-31 0 -44.5 10t-13.5 35v375h-358q-22 0 -31.5 11.5t-9.5 39.5z" />
<glyph unicode="&#xb2;" horiz-adv-x="813" d="M98 1237q0 16 8 35q35 80 111.5 129t181.5 49q135 0 219 -79t84 -208q0 -247 -327 -461h293q39 0 39 -47v-73h-517q-38 0 -53 28q-16 28 -22 78q90 47 165.5 99.5t139 113t99.5 129t36 135.5q0 77 -44.5 120.5t-113.5 43.5q-127 0 -172 -158q-57 3 -100 27q-27 16 -27 39 z" />
<glyph unicode="&#xb3;" horiz-adv-x="813" d="M92 678q0 35 19 67q121 -59 239 -59q97 0 150 36.5t53 98.5q0 73 -53 113.5t-158 52.5q-46 6 -59 39q-13 30 -15 51l213 236h-334q-21 0 -29.5 9.5t-8.5 33.5q0 36 10 78h471q42 0 61 -31q15 -27 21 -62l-234 -260q260 -54 260 -258q0 -118 -92 -188t-244 -70 q-70 0 -134 19t-100 45t-36 49z" />
<glyph unicode="&#xb4;" horiz-adv-x="854" d="M231 1231l240 237q23 23 43 23q24 0 45 -18q40 -35 64 -84l-263 -215q-25 -19 -41 -19t-32 16z" />
<glyph unicode="&#xb5;" horiz-adv-x="1271" d="M174 -420v1507q65 19 123 19q55 0 55 -43v-793q65 -62 153 -96.5t173 -34.5q258 0 258 307v648h121q31 0 44 -11t13 -36v-588q0 -224 -100.5 -348.5t-288.5 -124.5q-103 0 -202.5 39t-170.5 104v-596h-121q-32 0 -44.5 11t-12.5 36z" />
<glyph unicode="&#xb6;" horiz-adv-x="1208" d="M109 1065q0 117 59.5 202t156 126t216.5 41h542q22 0 30.5 -11.5t8.5 -40.5v-49h-170v-1601h-61q-29 0 -40 8.5t-11 30.5v1562h-172v-1601h-66q-30 0 -40.5 8.5t-10.5 30.5v923q-125 0 -223.5 41t-158.5 126.5t-60 203.5z" />
<glyph unicode="&#xb7;" horiz-adv-x="673" d="M221 684q0 52 31.5 83.5t81.5 31.5q48 0 83.5 -34.5t35.5 -90.5q0 -52 -31.5 -83.5t-81.5 -31.5q-48 0 -83.5 34.5t-35.5 90.5z" />
<glyph unicode="&#xb8;" horiz-adv-x="854" d="M227 -395q0 37 31 37q10 0 42.5 -6.5t51.5 -6.5q50 0 79.5 20t29.5 58q0 97 -178 109q-25 12 -25 24q0 5 4 13l78 147h158l-68 -121q85 -14 133.5 -60t48.5 -116q0 -88 -65.5 -139t-175.5 -51q-85 0 -144 20v72z" />
<glyph unicode="&#xb9;" horiz-adv-x="813" d="M137 1237q0 21 23 37l254 160h78q26 0 36.5 -9.5t10.5 -31.5v-811h-101q-26 0 -36.5 9t-10.5 30v647l-182 -115q-33 18 -57 49q-15 22 -15 35z" />
<glyph unicode="&#xba;" horiz-adv-x="917" d="M74 1044q0 190 112.5 298t272.5 108t272.5 -108t112.5 -298q0 -97 -31.5 -175.5t-85.5 -128t-122.5 -75.5t-145.5 -26t-145.5 26t-122.5 75.5t-85.5 128t-31.5 175.5zM231 1053q0 -129 65 -209t171 -80q95 0 158 72.5t63 199.5q0 129 -65.5 209t-171.5 80 q-95 0 -157.5 -72.5t-62.5 -199.5z" />
<glyph unicode="&#xbb;" horiz-adv-x="1208" d="M129 967q0 49 31 49q13 0 37 -17l426 -301v-82q0 -34 -31 -61l-461 -324v131q0 40 29 60l315 217l-334 227q-12 49 -12 101zM584 967q0 49 30 49q13 0 37 -17l426 -301v-82q0 -35 -30 -61l-461 -324v131q0 41 28 60l316 217l-334 227q-12 49 -12 101z" />
<glyph unicode="&#xbc;" horiz-adv-x="1939" d="M137 1237q0 21 23 37l254 160h78q26 0 36.5 -9.5t10.5 -31.5v-811h-101q-26 0 -36.5 9t-10.5 30v647l-182 -115q-33 18 -57 49q-15 22 -15 35zM602 33q0 12 6 24l576 1377h80q49 0 49 -33q0 -13 -6 -25l-576 -1376h-80q-49 0 -49 33zM1190 270q46 159 164 325.5 t258 254.5q46 12 96 12q34 0 46.5 -11t12.5 -38v-522h74q20 0 28.5 -11t8.5 -36v-74h-111v-170h-98q-26 0 -36.5 9t-10.5 30v131h-358q-39 0 -54 27q-17 31 -20 73zM1346 291h276v414q-83 -71 -160 -187t-116 -227z" />
<glyph unicode="&#xbd;" horiz-adv-x="1939" d="M137 1237q0 21 23 37l254 160h78q26 0 36.5 -9.5t10.5 -31.5v-811h-101q-26 0 -36.5 9t-10.5 30v647l-182 -115q-33 18 -57 49q-15 22 -15 35zM602 33q0 12 6 24l576 1377h80q49 0 49 -33q0 -13 -6 -25l-576 -1376h-80q-49 0 -49 33zM1223 655q0 16 8 35q35 80 111.5 129 t181.5 49q135 0 219 -78.5t84 -207.5q0 -246 -328 -461h293q39 0 39 -47v-74h-516q-38 0 -53 29q-17 30 -23 77q90 47 165.5 99.5t139 113.5t99.5 129.5t36 135.5q0 77 -44.5 120.5t-112.5 43.5q-127 0 -172 -158q-61 4 -101 26q-26 16 -26 39z" />
<glyph unicode="&#xbe;" horiz-adv-x="1939" d="M92 678q0 35 19 67q121 -59 239 -59q97 0 150 36.5t53 98.5q0 73 -53 113.5t-158 52.5q-46 6 -59 39q-13 30 -15 51l213 236h-334q-21 0 -29.5 9.5t-8.5 33.5q0 36 10 78h471q42 0 61 -31q15 -27 21 -62l-234 -260q260 -54 260 -258q0 -118 -92 -188t-244 -70 q-70 0 -134 19t-100 45t-36 49zM602 33q0 12 6 24l576 1377h80q49 0 49 -33q0 -13 -6 -25l-576 -1376h-80q-49 0 -49 33zM1190 270q46 159 164 325.5t258 254.5q46 12 96 12q34 0 46.5 -11t12.5 -38v-522h74q20 0 28.5 -11t8.5 -36v-74h-111v-170h-98q-26 0 -36.5 9 t-10.5 30v131h-358q-39 0 -54 27q-17 31 -20 73zM1346 291h276v414q-83 -71 -160 -187t-116 -227z" />
<glyph unicode="&#xbf;" horiz-adv-x="1140" d="M131 33q0 119 55 210.5t181 198.5q84 71 112.5 117t28.5 111v57h127q32 0 44.5 -10t12.5 -35v-31q0 -92 -42.5 -164t-151.5 -161q-97 -78 -136.5 -143.5t-39.5 -149.5q0 -105 70 -170.5t179 -65.5q106 0 188.5 71t110.5 198q81 -7 127 -37q35 -20 35 -49q0 -25 -10 -48 q-54 -137 -170.5 -217t-280.5 -80q-195 0 -317.5 110.5t-122.5 287.5zM485 1004q0 53 31 83.5t80 30.5t84 -34.5t35 -90.5q0 -52 -31.5 -83t-79.5 -31q-49 0 -84 34.5t-35 90.5z" />
<glyph unicode="&#xc0;" horiz-adv-x="1374" d="M53 39q0 8 4 20l508 1352q79 35 164 35q38 0 56 -13t32 -49l520 -1384h-141q-34 0 -50 9.5t-24 31.5l-118 332h-635l-133 -373h-127q-25 0 -40.5 10.5t-15.5 28.5zM424 530h524l-262 727zM452 1786q24 49 64 84q21 18 45 18q20 0 43 -23l240 -237l-56 -60 q-16 -16 -32 -16t-41 19z" />
<glyph unicode="&#xc1;" horiz-adv-x="1374" d="M53 39q0 8 4 20l508 1352q79 35 164 35q38 0 56 -13t32 -49l520 -1384h-141q-34 0 -50 9.5t-24 31.5l-118 332h-635l-133 -373h-127q-25 0 -40.5 10.5t-15.5 28.5zM424 530h524l-262 727zM524 1630l240 238q22 22 43 22q24 0 45 -18q39 -33 63 -84l-262 -215 q-25 -19 -41 -19q-15 0 -32 17z" />
<glyph unicode="&#xc2;" horiz-adv-x="1374" d="M53 39q0 8 4 20l508 1352q79 35 164 35q38 0 56 -13t32 -49l520 -1384h-141q-34 0 -50 9.5t-24 31.5l-118 332h-635l-133 -373h-127q-25 0 -40.5 10.5t-15.5 28.5zM389 1632q0 15 12 27l234 225h55q27 0 40.5 -5.5t31.5 -23.5l237 -227l-57 -62q-20 -20 -39 -20 q-22 0 -51 29l-168 168l-197 -197q-98 37 -98 86zM424 530h524l-262 727z" />
<glyph unicode="&#xc3;" horiz-adv-x="1374" d="M53 39q0 8 4 20l508 1352q79 35 164 35q38 0 56 -13t32 -49l520 -1384h-141q-34 0 -50 9.5t-24 31.5l-118 332h-635l-133 -373h-127q-25 0 -40.5 10.5t-15.5 28.5zM391 1661q0 28 10 55q42 121 158 121q40 0 71.5 -12t67.5 -43q55 -45 86 -45q28 0 43.5 22t24.5 82 l92 -24q25 -6 33 -20t2 -40q-15 -74 -59 -116t-111 -42q-70 0 -137 56q-55 45 -86 45q-27 0 -42.5 -20.5t-25.5 -77.5q-57 0 -94 16q-33 14 -33 43zM424 530h524l-262 727z" />
<glyph unicode="&#xc4;" horiz-adv-x="1374" d="M53 39q0 8 4 20l508 1352q79 35 164 35q38 0 56 -13t32 -49l520 -1384h-141q-34 0 -50 9.5t-24 31.5l-118 332h-635l-133 -373h-127q-25 0 -40.5 10.5t-15.5 28.5zM399 1722q0 47 29 76t74 29q43 0 74.5 -31t31.5 -82q0 -47 -28.5 -75.5t-71.5 -28.5q-45 0 -77 30.5 t-32 81.5zM424 530h524l-262 727zM764 1722q0 47 28.5 76t73.5 29q43 0 75 -31.5t32 -81.5q0 -46 -28.5 -75t-72.5 -29q-45 0 -76.5 30.5t-31.5 81.5z" />
<glyph unicode="&#xc5;" horiz-adv-x="1374" d="M53 39q0 8 4 20l508 1352q79 35 164 35q38 0 56 -13t32 -49l520 -1384h-141q-34 0 -50 9.5t-24 31.5l-118 332h-635l-133 -373h-127q-25 0 -40.5 10.5t-15.5 28.5zM424 530h524l-262 727zM496 1718q0 77 54.5 129.5t135.5 52.5q82 0 136 -52.5t54 -129.5t-54 -129.5 t-136 -52.5q-81 0 -135.5 52.5t-54.5 129.5zM598 1722q0 -42 27 -68t67 -26q36 0 59 24t23 62q0 42 -26 68t-66 26q-36 0 -60 -24t-24 -62z" />
<glyph unicode="&#xc6;" horiz-adv-x="1824" d="M31 39q0 8 6 20l663 1334q80 41 193 41h758q43 0 43 -54q0 -44 -15 -106h-655v-483h514q45 0 45 -58v-102h-559v-258q0 -123 32 -169t115 -46h494q45 0 45 -58v-100h-561q-159 0 -234 85t-75 288h-441l-180 -373h-131q-25 0 -41 10.5t-16 28.5zM475 530h365v746z" />
<glyph unicode="&#xc7;" horiz-adv-x="1406" d="M119 760q0 163 52.5 296.5t142.5 220.5t206.5 134t247.5 47q188 0 330 -82.5t209 -218.5q10 -20 10 -35q0 -46 -55 -69q-47 -21 -105 -27q-51 129 -154.5 199.5t-244.5 70.5q-88 0 -168 -35t-143.5 -100t-101.5 -167.5t-38 -227.5q0 -194 80.5 -339t217 -218.5 t308.5 -73.5q191 0 332 78q25 -41 25 -86q0 -30 -47.5 -64t-134.5 -59.5t-185 -28.5l-53 -96q85 -14 133.5 -60t48.5 -116q0 -88 -65.5 -139t-175.5 -51q-85 0 -144 20v72q0 37 31 37q10 0 42.5 -6.5t51.5 -6.5q50 0 79.5 20t29.5 58q0 97 -179 109q-24 12 -24 24q0 5 4 13 l70 133q-282 42 -457.5 249t-175.5 525z" />
<glyph unicode="&#xc8;" horiz-adv-x="1175" d="M190 356v1078h811q41 0 41 -54q0 -56 -12 -106h-653v-483h510q25 0 35 -13.5t10 -44.5v-102h-555v-258q0 -119 34.5 -167t112.5 -48h490q25 0 35 -13.5t10 -44.5v-100h-557q-159 0 -235.5 82.5t-76.5 273.5zM393 1786q24 49 64 84q21 18 45 18q20 0 43 -23l240 -237 l-56 -60q-16 -16 -32 -16t-41 19z" />
<glyph unicode="&#xc9;" horiz-adv-x="1175" d="M190 356v1078h811q41 0 41 -54q0 -56 -12 -106h-653v-483h510q25 0 35 -13.5t10 -44.5v-102h-555v-258q0 -119 34.5 -167t112.5 -48h490q25 0 35 -13.5t10 -44.5v-100h-557q-159 0 -235.5 82.5t-76.5 273.5zM421 1628l240 237q23 23 43 23q24 0 45 -18q40 -35 64 -84 l-263 -215q-25 -19 -41 -19t-32 16z" />
<glyph unicode="&#xca;" horiz-adv-x="1175" d="M190 356v1078h811q41 0 41 -54q0 -56 -12 -106h-653v-483h510q25 0 35 -13.5t10 -44.5v-102h-555v-258q0 -119 34.5 -167t112.5 -48h490q25 0 35 -13.5t10 -44.5v-100h-557q-159 0 -235.5 82.5t-76.5 273.5zM313 1632q0 14 13 27l233 225h55q27 0 40.5 -5.5t31.5 -23.5 l238 -227l-58 -61q-21 -21 -39 -21q-22 0 -51 29l-168 168l-196 -197q-99 38 -99 86z" />
<glyph unicode="&#xcb;" horiz-adv-x="1175" d="M190 356v1078h811q41 0 41 -54q0 -56 -12 -106h-653v-483h510q25 0 35 -13.5t10 -44.5v-102h-555v-258q0 -119 34.5 -167t112.5 -48h490q25 0 35 -13.5t10 -44.5v-100h-557q-159 0 -235.5 82.5t-76.5 273.5zM321 1722q0 47 29 76t74 29q43 0 74.5 -31t31.5 -82 q0 -47 -28.5 -76t-71.5 -29q-45 0 -77 31t-32 82zM686 1722q0 47 28.5 76t73.5 29q43 0 75 -31.5t32 -81.5q0 -47 -29 -76t-72 -29q-45 0 -76.5 31t-31.5 82z" />
<glyph unicode="&#xcc;" horiz-adv-x="600" d="M27 1786q24 51 63 84q21 18 45 18q21 0 43 -22l240 -238l-56 -59q-17 -17 -32 -17q-16 0 -41 19zM207 45v1380q68 21 129 21q57 0 57 -43v-1403h-129q-32 0 -44.5 10t-12.5 35z" />
<glyph unicode="&#xcd;" horiz-adv-x="600" d="M182 1628l240 237q23 23 43 23q24 0 45 -18q40 -35 64 -84l-263 -215q-25 -19 -41 -19t-32 16zM207 45v1380q68 21 129 21q57 0 57 -43v-1403h-129q-32 0 -44.5 10t-12.5 35z" />
<glyph unicode="&#xce;" horiz-adv-x="600" d="M4 1632q0 15 12 27l234 225h55q27 0 40.5 -5.5t31.5 -23.5l237 -227l-57 -62q-20 -20 -39 -20q-22 0 -51 29l-168 168l-197 -197q-98 37 -98 86zM207 45v1380q68 21 129 21q57 0 57 -43v-1403h-129q-32 0 -44.5 10t-12.5 35z" />
<glyph unicode="&#xcf;" horiz-adv-x="600" d="M14 1722q0 47 29 76t74 29q43 0 74.5 -31t31.5 -82q0 -47 -28.5 -75.5t-71.5 -28.5q-45 0 -77 30.5t-32 81.5zM207 45v1380q68 21 129 21q57 0 57 -43v-1403h-129q-32 0 -44.5 10t-12.5 35zM379 1722q0 47 28.5 76t73.5 29q43 0 75 -31.5t32 -81.5q0 -46 -29 -75t-72 -29 q-45 0 -76.5 30.5t-31.5 81.5z" />
<glyph unicode="&#xd0;" horiz-adv-x="1478" d="M53 696q0 47 8 78h129v660h488q145 0 269.5 -50t215.5 -141.5t143 -227t52 -298.5t-52 -298.5t-143 -227t-215.5 -141.5t-269.5 -50h-176q-166 0 -239 89.5t-73 309.5v258h-94q-43 0 -43 39zM377 373q0 -123 32 -169t115 -46h131q105 0 197 36t162.5 104.5t111.5 176.5 t41 242t-41 241.5t-111.5 175.5t-162.5 104t-197 36h-278v-500h368q25 0 35.5 -12.5t10.5 -44.5v-60h-414v-284z" />
<glyph unicode="&#xd1;" horiz-adv-x="1470" d="M197 45v1344q32 25 71.5 41t65.5 16q33 0 55 -31l698 -1104v1123h130q30 0 43.5 -10.5t13.5 -34.5v-1344q-32 -25 -71.5 -41t-65.5 -16q-35 0 -56 30l-698 1104v-1122h-129q-30 0 -43.5 10.5t-13.5 34.5zM440 1661q0 26 11 55q42 121 157 121q74 0 140 -55q55 -45 86 -45 q28 0 43 22t24 82l92 -24q25 -6 33 -20t2 -40q-15 -74 -59 -116t-111 -42q-70 0 -137 56q-55 45 -86 45q-27 0 -42.5 -20.5t-25.5 -77.5q-57 0 -94 16q-33 14 -33 43z" />
<glyph unicode="&#xd2;" horiz-adv-x="1583" d="M121 717q0 178 53.5 321t146 233.5t213 138.5t257.5 48q110 0 210 -29.5t184 -90.5t146 -148t96.5 -208.5t34.5 -264.5q0 -178 -53.5 -321t-145.5 -234t-213 -139t-259 -48q-109 0 -208.5 30t-184 91t-146 148t-96.5 208.5t-35 264.5zM311 735q0 -141 39 -256t107 -189 t157 -113.5t191 -39.5q92 0 174 34t148.5 100.5t105.5 176.5t39 250q0 141 -39 256t-107 189t-157 113.5t-191 39.5q-92 0 -174.5 -34t-148.5 -100.5t-105 -176.5t-39 -250zM557 1786q24 49 64 84q21 18 45 18q20 0 43 -23l240 -237l-56 -60q-16 -16 -32 -16t-41 19z" />
<glyph unicode="&#xd3;" horiz-adv-x="1583" d="M121 717q0 178 53.5 321t146 233.5t213 138.5t257.5 48q110 0 210 -29.5t184 -90.5t146 -148t96.5 -208.5t34.5 -264.5q0 -178 -53.5 -321t-145.5 -234t-213 -139t-259 -48q-109 0 -208.5 30t-184 91t-146 148t-96.5 208.5t-35 264.5zM311 735q0 -141 39 -256t107 -189 t157 -113.5t191 -39.5q92 0 174 34t148.5 100.5t105.5 176.5t39 250q0 141 -39 256t-107 189t-157 113.5t-191 39.5q-92 0 -174.5 -34t-148.5 -100.5t-105 -176.5t-39 -250zM616 1628l240 237q23 23 43 23q24 0 45 -18q40 -35 64 -84l-263 -215q-25 -19 -41 -19t-32 16z" />
<glyph unicode="&#xd4;" horiz-adv-x="1583" d="M121 717q0 178 53.5 321t146 233.5t213 138.5t257.5 48q110 0 210 -29.5t184 -90.5t146 -148t96.5 -208.5t34.5 -264.5q0 -178 -53.5 -321t-145.5 -234t-213 -139t-259 -48q-109 0 -208.5 30t-184 91t-146 148t-96.5 208.5t-35 264.5zM311 735q0 -141 39 -256t107 -189 t157 -113.5t191 -39.5q92 0 174 34t148.5 100.5t105.5 176.5t39 250q0 141 -39 256t-107 189t-157 113.5t-191 39.5q-92 0 -174.5 -34t-148.5 -100.5t-105 -176.5t-39 -250zM493 1632q0 15 12 27l234 225h55q27 0 40.5 -5.5t31.5 -23.5l237 -227l-57 -62q-20 -20 -39 -20 q-22 0 -51 29l-168 168l-197 -197q-98 37 -98 86z" />
<glyph unicode="&#xd5;" horiz-adv-x="1583" d="M121 717q0 178 53.5 321t146 233.5t213 138.5t257.5 48q110 0 210 -29.5t184 -90.5t146 -148t96.5 -208.5t34.5 -264.5q0 -178 -53.5 -321t-145.5 -234t-213 -139t-259 -48q-109 0 -208.5 30t-184 91t-146 148t-96.5 208.5t-35 264.5zM311 735q0 -141 39 -256t107 -189 t157 -113.5t191 -39.5q92 0 174 34t148.5 100.5t105.5 176.5t39 250q0 141 -39 256t-107 189t-157 113.5t-191 39.5q-92 0 -174.5 -34t-148.5 -100.5t-105 -176.5t-39 -250zM496 1661q0 28 10 55q42 121 158 121q72 0 139 -56q55 -45 86 -45q28 0 43.5 22.5t24.5 82.5 l92 -25q25 -6 33 -19.5t2 -39.5q-15 -74 -59 -116t-111 -42q-71 0 -137 55q-56 46 -86 46q-27 0 -42.5 -21t-25.5 -78q-55 0 -94 17q-33 14 -33 43z" />
<glyph unicode="&#xd6;" horiz-adv-x="1583" d="M121 717q0 178 53.5 321t146 233.5t213 138.5t257.5 48q110 0 210 -29.5t184 -90.5t146 -148t96.5 -208.5t34.5 -264.5q0 -178 -53.5 -321t-145.5 -234t-213 -139t-259 -48q-109 0 -208.5 30t-184 91t-146 148t-96.5 208.5t-35 264.5zM311 735q0 -141 39 -256t107 -189 t157 -113.5t191 -39.5q92 0 174 34t148.5 100.5t105.5 176.5t39 250q0 141 -39 256t-107 189t-157 113.5t-191 39.5q-92 0 -174.5 -34t-148.5 -100.5t-105 -176.5t-39 -250zM502 1722q0 47 28.5 76t73.5 29q43 0 75 -31.5t32 -81.5q0 -46 -28.5 -75t-72.5 -29 q-45 0 -76.5 30.5t-31.5 81.5zM866 1722q0 47 29 76t74 29q43 0 74.5 -31t31.5 -82q0 -47 -28.5 -75.5t-71.5 -28.5q-45 0 -77 30.5t-32 81.5z" />
<glyph unicode="&#xd7;" horiz-adv-x="1329" d="M231 362l316 314l-316 315q23 44 52.5 78.5t56.5 34.5q16 0 37 -21l285 -290l284 290q21 21 37 21q27 0 56.5 -34.5t52.5 -78.5l-316 -315l316 -314l-80 -79q-23 -23 -41 -23q-15 0 -31 16l-278 283l-279 -283q-16 -16 -31 -16q-18 0 -41 23z" />
<glyph unicode="&#xd8;" horiz-adv-x="1583" d="M97.5 15q-6.5 15 11.5 34l157 174q-145 195 -145 494q0 178 53.5 321t146 233.5t213 138.5t257.5 48q269 0 450 -166l129 142h78q31 0 38 -15.5t-11 -34.5l-160 -174q147 -193 147 -493q0 -178 -53.5 -321t-145.5 -234t-213 -139t-259 -48q-271 0 -449 166l-129 -141h-78 q-31 0 -37.5 15zM311 735q0 -216 88 -366l715 784q-134 143 -336 143q-92 0 -174.5 -34t-148.5 -100.5t-105 -176.5t-39 -250zM467 279q136 -142 338 -142q92 0 174 34t148.5 100.5t105.5 176.5t39 250q0 211 -90 365z" />
<glyph unicode="&#xd9;" horiz-adv-x="1472" d="M184 602v823q68 21 131 21q56 0 56 -43v-815q0 -205 98 -329t266 -124q167 0 266 124t99 329v846h129q30 0 43.5 -11.5t13.5 -36.5v-784q0 -289 -147 -458t-404 -169t-404 169t-147 458zM501 1786q24 49 64 84q21 18 45 18q20 0 43 -23l240 -237l-56 -60q-16 -16 -32 -16 t-41 19z" />
<glyph unicode="&#xda;" horiz-adv-x="1472" d="M184 602v823q68 21 131 21q56 0 56 -43v-815q0 -205 98 -329t266 -124q167 0 266 124t99 329v846h129q30 0 43.5 -11.5t13.5 -36.5v-784q0 -289 -147 -458t-404 -169t-404 169t-147 458zM563 1628l240 237q23 23 43 23q24 0 45 -18q40 -35 64 -84l-263 -215 q-25 -19 -41 -19t-32 16z" />
<glyph unicode="&#xdb;" horiz-adv-x="1472" d="M184 602v823q68 21 131 21q56 0 56 -43v-815q0 -205 98 -329t266 -124q167 0 266 124t99 329v846h129q30 0 43.5 -11.5t13.5 -36.5v-784q0 -289 -147 -458t-404 -169t-404 169t-147 458zM436 1632q0 15 12 27l234 225h55q27 0 40.5 -5.5t31.5 -23.5l237 -227l-57 -62 q-20 -20 -39 -20q-22 0 -51 29l-168 168l-197 -197q-98 37 -98 86z" />
<glyph unicode="&#xdc;" horiz-adv-x="1472" d="M184 602v823q68 21 131 21q56 0 56 -43v-815q0 -205 98 -329t266 -124q167 0 266 124t99 329v846h129q30 0 43.5 -11.5t13.5 -36.5v-784q0 -289 -147 -458t-404 -169t-404 169t-147 458zM446 1722q0 47 29 76t74 29q43 0 74.5 -31t31.5 -82q0 -47 -28.5 -75.5 t-71.5 -28.5q-45 0 -77 30.5t-32 81.5zM811 1722q0 47 28.5 76t73.5 29q43 0 75 -31.5t32 -81.5q0 -47 -28.5 -75.5t-71.5 -28.5q-45 0 -77 30.5t-32 81.5z" />
<glyph unicode="&#xdd;" horiz-adv-x="1353" d="M78 1362q79 82 139 82q31 0 49 -33l410 -749q280 380 416 772h133q32 0 45 -16t4 -40q-177 -473 -510 -889v-489h-129q-32 0 -44.5 10t-12.5 35v436zM522 1628l240 237q23 23 43 23q24 0 45 -18q40 -35 64 -84l-263 -215q-25 -19 -41 -19t-32 16z" />
<glyph unicode="&#xde;" horiz-adv-x="1306" d="M195 45v1380q68 21 131 21q55 0 55 -43v-174h266q257 0 408 -139.5t151 -384.5q0 -159 -72.5 -275.5t-194 -174.5t-275.5 -58q-167 0 -283 39v-236h-129q-31 0 -44 10t-13 35zM381 385q104 -29 254 -29q174 0 278.5 92.5t104.5 264.5q0 173 -102.5 264.5t-278.5 91.5 h-256v-684z" />
<glyph unicode="&#xdf;" horiz-adv-x="1304" d="M174 45v907q0 236 120.5 371t332.5 135q192 0 314 -110.5t122 -268.5q0 -112 -62.5 -194t-171.5 -121q174 -39 283 -151.5t109 -266.5q0 -162 -119 -266.5t-316 -104.5q-128 0 -215.5 44t-87.5 92q0 45 25 86q102 -60 242 -60q126 0 206 66t80 172q0 117 -110.5 201.5 t-290.5 101.5q-25 52 -25 90q0 28 11 41.5t34 19.5q106 28 165 91t59 149q0 100 -71 163.5t-179 63.5q-122 0 -195.5 -83t-73.5 -230v-983h-129q-30 0 -43.5 10.5t-13.5 34.5z" />
<glyph unicode="&#xe0;" horiz-adv-x="1214" d="M109 317q0 167 117 262t317 95q78 0 159.5 -17.5t139.5 -46.5v90q0 131 -83.5 198t-240.5 67q-167 0 -293 -66q-24 27 -24 78q0 29 45.5 61.5t131 56t183.5 23.5q216 0 337.5 -108.5t121.5 -317.5v-450q0 -62 19.5 -87.5t58.5 -25.5h41q10 -30 10 -63q0 -30 -37 -55 t-96 -25q-65 0 -111.5 48t-56.5 130q-55 -88 -151.5 -138.5t-217.5 -50.5q-166 0 -268 95t-102 247zM287 324q0 -93 64.5 -145t164.5 -52q99 0 187 52t139 147v149q-48 21 -128 33t-149 12q-133 0 -205.5 -51.5t-72.5 -144.5zM385 1430q24 49 64 84q21 18 45 18q20 0 43 -23 l240 -237l-56 -60q-16 -16 -32 -16t-41 19z" />
<glyph unicode="&#xe1;" horiz-adv-x="1214" d="M109 317q0 167 117 262t317 95q78 0 159.5 -17.5t139.5 -46.5v90q0 131 -83.5 198t-240.5 67q-167 0 -293 -66q-24 27 -24 78q0 29 45.5 61.5t131 56t183.5 23.5q216 0 337.5 -108.5t121.5 -317.5v-450q0 -62 19.5 -87.5t58.5 -25.5h41q10 -30 10 -63q0 -30 -37 -55 t-96 -25q-65 0 -111.5 48t-56.5 130q-55 -88 -151.5 -138.5t-217.5 -50.5q-166 0 -268 95t-102 247zM287 324q0 -93 64.5 -145t164.5 -52q99 0 187 52t139 147v149q-48 21 -128 33t-149 12q-133 0 -205.5 -51.5t-72.5 -144.5zM405 1272l240 237q23 23 43 23q24 0 45 -18 q40 -35 64 -84l-263 -215q-25 -19 -41 -19t-32 16z" />
<glyph unicode="&#xe2;" horiz-adv-x="1214" d="M109 317q0 167 117 262t317 95q78 0 159.5 -17.5t139.5 -46.5v90q0 131 -83.5 198t-240.5 67q-167 0 -293 -66q-24 27 -24 78q0 29 45.5 61.5t131 56t183.5 23.5q216 0 337.5 -108.5t121.5 -317.5v-450q0 -62 19.5 -87.5t58.5 -25.5h41q10 -30 10 -63q0 -30 -37 -55 t-96 -25q-65 0 -111.5 48t-56.5 130q-55 -88 -151.5 -138.5t-217.5 -50.5q-166 0 -268 95t-102 247zM287 324q0 -93 64.5 -145t164.5 -52q99 0 187 52t139 147v149q-48 21 -128 33t-149 12q-133 0 -205.5 -51.5t-72.5 -144.5zM303 1276q0 15 12 27l234 225h55 q27 0 40.5 -5.5t31.5 -23.5l237 -227l-57 -62q-20 -20 -39 -20q-22 0 -51 29l-168 168l-197 -197q-98 37 -98 86z" />
<glyph unicode="&#xe3;" horiz-adv-x="1214" d="M109 317q0 167 117 262t317 95q78 0 159.5 -17.5t139.5 -46.5v90q0 131 -83.5 198t-240.5 67q-167 0 -293 -66q-24 27 -24 78q0 29 45.5 61.5t131 56t183.5 23.5q216 0 337.5 -108.5t121.5 -317.5v-450q0 -62 19.5 -87.5t58.5 -25.5h41q10 -30 10 -63q0 -30 -37 -55 t-96 -25q-65 0 -111.5 48t-56.5 130q-55 -88 -151.5 -138.5t-217.5 -50.5q-166 0 -268 95t-102 247zM287 324q0 -93 64.5 -145t164.5 -52q99 0 187 52t139 147v149q-48 21 -128 33t-149 12q-133 0 -205.5 -51.5t-72.5 -144.5zM303 1303q0 28 10 55q42 121 158 121 q72 0 139 -56q55 -45 86 -45q28 0 43.5 22.5t24.5 82.5l92 -25q25 -6 33 -19.5t2 -39.5q-15 -74 -59 -116t-111 -42q-71 0 -137 55q-55 45 -86 45q-27 0 -42.5 -20.5t-25.5 -77.5q-55 0 -94 17q-33 14 -33 43z" />
<glyph unicode="&#xe4;" horiz-adv-x="1214" d="M109 317q0 167 117 262t317 95q78 0 159.5 -17.5t139.5 -46.5v90q0 131 -83.5 198t-240.5 67q-167 0 -293 -66q-24 27 -24 78q0 29 45.5 61.5t131 56t183.5 23.5q216 0 337.5 -108.5t121.5 -317.5v-450q0 -62 19.5 -87.5t58.5 -25.5h41q10 -30 10 -63q0 -30 -37 -55 t-96 -25q-65 0 -111.5 48t-56.5 130q-55 -88 -151.5 -138.5t-217.5 -50.5q-166 0 -268 95t-102 247zM287 324q0 -93 64.5 -145t164.5 -52q99 0 187 52t139 147v149q-48 21 -128 33t-149 12q-133 0 -205.5 -51.5t-72.5 -144.5zM311 1366q0 47 29 75.5t74 28.5q43 0 74.5 -31 t31.5 -81q0 -47 -28.5 -76t-71.5 -29q-45 0 -77 31t-32 82zM676 1366q0 47 28.5 75.5t73.5 28.5q43 0 75 -31t32 -81q0 -47 -29 -76t-72 -29q-45 0 -76.5 31t-31.5 82z" />
<glyph unicode="&#xe5;" horiz-adv-x="1214" d="M109 317q0 167 117 262t317 95q78 0 159.5 -17.5t139.5 -46.5v90q0 131 -83.5 198t-240.5 67q-167 0 -293 -66q-24 27 -24 78q0 29 45.5 61.5t131 56t183.5 23.5q216 0 337.5 -108.5t121.5 -317.5v-450q0 -62 19.5 -87.5t58.5 -25.5h41q10 -30 10 -63q0 -30 -37 -55 t-96 -25q-65 0 -111.5 48t-56.5 130q-55 -88 -151.5 -138.5t-217.5 -50.5q-166 0 -268 95t-102 247zM287 324q0 -93 64.5 -145t164.5 -52q99 0 187 52t139 147v149q-48 21 -128 33t-149 12q-133 0 -205.5 -51.5t-72.5 -144.5zM396 1362q0 77 54.5 129.5t135.5 52.5 q82 0 136 -52.5t54 -129.5t-54 -129.5t-136 -52.5q-81 0 -135.5 52.5t-54.5 129.5zM498 1366q0 -42 27 -68t67 -26q36 0 59 24t23 62q0 42 -26 68t-66 26q-36 0 -60 -24t-24 -62z" />
<glyph unicode="&#xe6;" horiz-adv-x="1908" d="M109 317q0 166 117.5 261.5t316.5 95.5q79 0 160 -18t139 -48v92q0 131 -83.5 198t-240.5 67q-167 0 -293 -66q-24 27 -24 78q0 29 45.5 61.5t131 56t183.5 23.5q145 0 251.5 -56t150.5 -159q62 99 172 157t241 58q192 0 313 -114t121 -287q0 -244 -172 -244h-616 q17 -164 124.5 -255t264.5 -91q147 0 270 63q25 -29 25 -77q0 -46 -94 -92t-230 -46q-141 0 -258 63t-190 173q-66 -110 -175.5 -173t-248.5 -63q-190 0 -295.5 95.5t-105.5 246.5zM287 322q0 -92 65 -143.5t164 -51.5q103 0 193 57t135 172q0 74 -2 117q-48 22 -127.5 34.5 t-149.5 12.5q-133 0 -205.5 -52.5t-72.5 -145.5zM1022 623h596q16 36 16 86q0 117 -71.5 186.5t-196.5 69.5q-137 0 -232 -93t-112 -249z" />
<glyph unicode="&#xe7;" horiz-adv-x="1130" d="M109 580q0 164 69 287.5t186.5 187t266.5 63.5q146 0 254.5 -61t156.5 -158q11 -22 11 -37q0 -33 -33 -51q-48 -28 -121 -35q-61 189 -276 189q-143 0 -238.5 -104t-95.5 -277q0 -88 24.5 -163t66 -128.5t97.5 -91t119.5 -56t130.5 -18.5q147 0 270 63q25 -36 25 -77 q0 -43 -82 -86t-201 -50l-53 -98q85 -14 133.5 -60t48.5 -116q0 -88 -65.5 -139t-175.5 -51q-85 0 -144 20v72q0 37 31 37q10 0 42.5 -6.5t51.5 -6.5q50 0 79.5 20t29.5 58q0 97 -178 109q-25 12 -25 24q0 5 4 13l70 133q-98 18 -183.5 66t-152 121.5t-105 178.5t-38.5 228z " />
<glyph unicode="&#xe8;" d="M109 547q0 130 43.5 239t117 180.5t170.5 111.5t205 40q192 0 313 -113t121 -288q0 -92 -30 -160q-21 -48 -52.5 -66t-89.5 -18h-614q17 -164 124 -254t263 -90q153 0 272 64q25 -32 25 -80q0 -46 -94.5 -92t-231.5 -46q-154 0 -277.5 72.5t-194 203.5t-70.5 296z M293 625h596q16 37 16 84q0 118 -71.5 187t-196.5 69q-139 0 -234 -92t-110 -248zM403 1430q24 49 64 84q21 18 45 18q20 0 43 -23l240 -237l-56 -60q-16 -16 -32 -16t-41 19z" />
<glyph unicode="&#xe9;" d="M109 547q0 130 43.5 239t117 180.5t170.5 111.5t205 40q192 0 313 -113t121 -288q0 -92 -30 -160q-21 -48 -52.5 -66t-89.5 -18h-614q17 -164 124 -254t263 -90q153 0 272 64q25 -32 25 -80q0 -46 -94.5 -92t-231.5 -46q-154 0 -277.5 72.5t-194 203.5t-70.5 296z M293 625h596q16 37 16 84q0 118 -71.5 187t-196.5 69q-139 0 -234 -92t-110 -248zM417 1272l240 237q23 23 43 23q24 0 45 -18q40 -35 64 -84l-263 -215q-25 -19 -41 -19t-32 16z" />
<glyph unicode="&#xea;" d="M109 547q0 130 43.5 239t117 180.5t170.5 111.5t205 40q192 0 313 -113t121 -288q0 -92 -30 -160q-21 -48 -52.5 -66t-89.5 -18h-614q17 -164 124 -254t263 -90q153 0 272 64q25 -32 25 -80q0 -46 -94.5 -92t-231.5 -46q-154 0 -277.5 72.5t-194 203.5t-70.5 296z M293 625h596q16 37 16 84q0 118 -71.5 187t-196.5 69q-139 0 -234 -92t-110 -248zM319 1276q0 14 13 27l233 225h56q27 0 39.5 -5t31.5 -24l238 -227l-58 -62q-20 -20 -38 -20q-23 0 -52 29l-168 167l-196 -196q-99 38 -99 86z" />
<glyph unicode="&#xeb;" d="M109 547q0 130 43.5 239t117 180.5t170.5 111.5t205 40q192 0 313 -113t121 -288q0 -92 -30 -160q-21 -48 -52.5 -66t-89.5 -18h-614q17 -164 124 -254t263 -90q153 0 272 64q25 -32 25 -80q0 -46 -94.5 -92t-231.5 -46q-154 0 -277.5 72.5t-194 203.5t-70.5 296z M293 625h596q16 37 16 84q0 118 -71.5 187t-196.5 69q-139 0 -234 -92t-110 -248zM332 1366q0 47 29 76t74 29q43 0 74.5 -31t31.5 -82q0 -47 -28.5 -76t-71.5 -29q-45 0 -77 31t-32 82zM697 1366q0 47 28.5 76t73.5 29q43 0 75 -31.5t32 -81.5q0 -47 -29 -76t-72 -29 q-45 0 -76.5 31t-31.5 82z" />
<glyph unicode="&#xec;" horiz-adv-x="552" d="M4 1430q24 49 64 84q21 18 45 18q20 0 43 -23l240 -237l-56 -60q-16 -16 -32 -16t-41 19zM174 223v864q65 19 123 19q55 0 55 -43v-825q0 -58 17.5 -83.5t54.5 -25.5h45q10 -23 10 -63q0 -30 -36 -55t-93 -25q-176 0 -176 237z" />
<glyph unicode="&#xed;" horiz-adv-x="552" d="M118 1272l240 237q23 23 43 23q24 0 45 -18q40 -35 64 -84l-263 -215q-25 -19 -41 -19t-32 16zM174 223v864q65 19 123 19q55 0 55 -43v-825q0 -58 17.5 -83.5t54.5 -25.5h45q10 -23 10 -63q0 -30 -36 -55t-93 -25q-176 0 -176 237z" />
<glyph unicode="&#xee;" horiz-adv-x="552" d="M-33 1276q0 15 12 27l234 225h55q27 0 40.5 -5.5t31.5 -23.5l237 -227l-57 -62q-20 -20 -39 -20q-22 0 -51 29l-168 168l-197 -197q-98 37 -98 86zM174 223v864q65 19 123 19q55 0 55 -43v-825q0 -58 17.5 -83.5t54.5 -25.5h45q10 -23 10 -63q0 -30 -36 -55t-93 -25 q-176 0 -176 237z" />
<glyph unicode="&#xef;" horiz-adv-x="552" d="M-23 1366q0 47 29 75.5t74 28.5q43 0 74.5 -31t31.5 -81q0 -47 -28.5 -76t-71.5 -29q-45 0 -77 31t-32 82zM174 223v864q65 19 123 19q55 0 55 -43v-825q0 -58 17.5 -83.5t54.5 -25.5h45q10 -23 10 -63q0 -30 -36 -55t-93 -25q-176 0 -176 237zM342 1366q0 47 28.5 75.5 t73.5 28.5q43 0 75 -31t32 -81q0 -47 -28.5 -76t-71.5 -29q-45 0 -77 31t-32 82z" />
<glyph unicode="&#xf0;" horiz-adv-x="1230" d="M98 434q0 125 43 230t115 173t162.5 106t187.5 38q95 0 181.5 -31.5t148.5 -93.5q-12 204 -76 324l-164 -101q-37 -21 -55 13q-22 36 -31 71l181 111q-95 92 -242 92q-140 0 -262 -61q-25 33 -25 77q0 29 44 61t119 54.5t153 22.5q233 0 366 -154l105 64q39 25 67 -23 l29 -55l-135 -82q108 -199 108 -557q0 -359 -142.5 -548.5t-408.5 -189.5q-202 0 -335.5 130t-133.5 329zM279 440q0 -139 82 -226t210 -87q171 0 269 140t98 413v18q-115 129 -305 129q-153 0 -253.5 -102.5t-100.5 -284.5z" />
<glyph unicode="&#xf1;" horiz-adv-x="1312" d="M174 45v1042q65 19 123 19q55 0 55 -43v-88q71 65 170.5 104t202.5 39q188 0 288.5 -124.5t100.5 -348.5v-407q0 -58 17.5 -83.5t54.5 -25.5h45q10 -22 10 -63q0 -30 -36 -55t-93 -25q-176 0 -176 237v434q0 308 -258 308q-85 0 -173 -34.5t-153 -96.5v-834h-121 q-32 0 -44.5 10t-12.5 35zM348 1303q0 28 10 55q42 121 158 121q72 0 139 -56q55 -45 86 -45q28 0 43.5 22.5t24.5 82.5l92 -25q25 -6 33 -19.5t2 -39.5q-15 -74 -59 -116t-111 -42q-71 0 -137 55q-55 45 -86 45q-27 0 -42.5 -20.5t-25.5 -77.5q-55 0 -94 17q-33 14 -33 43z " />
<glyph unicode="&#xf2;" horiz-adv-x="1286" d="M109 547q0 132 42.5 241.5t116 180.5t170 110t205.5 39t205.5 -39t170 -110t116.5 -180.5t43 -241.5t-43 -241.5t-116.5 -181t-170 -110.5t-205.5 -39t-205.5 39t-170 110.5t-116 181t-42.5 241.5zM291 559q0 -202 106 -316t256 -114q145 0 243.5 104t98.5 302 q0 202 -106 316t-256 114q-145 0 -243.5 -104t-98.5 -302zM405 1430q24 49 64 84q21 18 45 18q20 0 43 -23l240 -237l-56 -60q-16 -16 -32 -16t-41 19z" />
<glyph unicode="&#xf3;" horiz-adv-x="1286" d="M109 547q0 132 42.5 241.5t116 180.5t170 110t205.5 39t205.5 -39t170 -110t116.5 -180.5t43 -241.5t-43 -241.5t-116.5 -181t-170 -110.5t-205.5 -39t-205.5 39t-170 110.5t-116 181t-42.5 241.5zM291 559q0 -202 106 -316t256 -114q145 0 243.5 104t98.5 302 q0 202 -106 316t-256 114q-145 0 -243.5 -104t-98.5 -302zM467 1272l240 237q23 23 43 23q24 0 45 -18q40 -35 64 -84l-263 -215q-25 -19 -41 -19t-32 16z" />
<glyph unicode="&#xf4;" horiz-adv-x="1286" d="M109 547q0 132 42.5 241.5t116 180.5t170 110t205.5 39t205.5 -39t170 -110t116.5 -180.5t43 -241.5t-43 -241.5t-116.5 -181t-170 -110.5t-205.5 -39t-205.5 39t-170 110.5t-116 181t-42.5 241.5zM291 559q0 -202 106 -316t256 -114q145 0 243.5 104t98.5 302 q0 202 -106 316t-256 114q-145 0 -243.5 -104t-98.5 -302zM346 1276q0 15 12 27l234 225h55q27 0 40.5 -5.5t31.5 -23.5l237 -227l-57 -62q-20 -20 -39 -20q-22 0 -51 29l-168 168l-197 -197q-98 37 -98 86z" />
<glyph unicode="&#xf5;" horiz-adv-x="1286" d="M109 547q0 132 42.5 241.5t116 180.5t170 110t205.5 39t205.5 -39t170 -110t116.5 -180.5t43 -241.5t-43 -241.5t-116.5 -181t-170 -110.5t-205.5 -39t-205.5 39t-170 110.5t-116 181t-42.5 241.5zM291 559q0 -202 106 -316t256 -114q145 0 243.5 104t98.5 302 q0 202 -106 316t-256 114q-145 0 -243.5 -104t-98.5 -302zM346 1303q0 28 10 55q42 121 158 121q72 0 139 -56q55 -45 86 -45q28 0 43.5 22.5t24.5 82.5l92 -25q25 -6 33 -19.5t2 -39.5q-15 -74 -59 -116t-111 -42q-71 0 -137 55q-56 46 -86 46q-27 0 -42.5 -21t-25.5 -78 q-55 0 -94 17q-33 14 -33 43z" />
<glyph unicode="&#xf6;" horiz-adv-x="1286" d="M109 547q0 132 42.5 241.5t116 180.5t170 110t205.5 39t205.5 -39t170 -110t116.5 -180.5t43 -241.5t-43 -241.5t-116.5 -181t-170 -110.5t-205.5 -39t-205.5 39t-170 110.5t-116 181t-42.5 241.5zM291 559q0 -202 106 -316t256 -114q145 0 243.5 104t98.5 302 q0 202 -106 316t-256 114q-145 0 -243.5 -104t-98.5 -302zM354 1366q0 47 29 75.5t74 28.5q43 0 74.5 -31t31.5 -81q0 -47 -28.5 -76t-71.5 -29q-45 0 -77 31t-32 82zM719 1366q0 47 28.5 75.5t73.5 28.5q43 0 75 -31t32 -81q0 -47 -29 -76t-72 -29q-45 0 -76.5 31t-31.5 82 z" />
<glyph unicode="&#xf7;" horiz-adv-x="1329" d="M174 655q0 59 12 99h920q25 0 36 -13t11 -45v-92h-938q-22 0 -31.5 11.5t-9.5 39.5zM549 295q0 53 31.5 84t81.5 31q48 0 83 -34.5t35 -90.5q0 -52 -31 -83.5t-81 -31.5q-48 0 -83.5 34.5t-35.5 90.5zM549 1073q0 52 31.5 83.5t81.5 31.5q48 0 83 -34.5t35 -90.5 q0 -53 -31 -84t-81 -31q-48 0 -83.5 34.5t-35.5 90.5z" />
<glyph unicode="&#xf8;" horiz-adv-x="1286" d="M107.5 13.5q-8.5 13.5 11.5 35.5l108 119q-118 150 -118 379q0 132 42.5 241.5t116 180.5t170 110t205.5 39q199 0 342 -119l86 95h66q34 0 42 -14t-12 -36l-110 -120q121 -150 121 -377q0 -132 -43 -241.5t-116.5 -181t-170 -110.5t-205.5 -39q-202 0 -342 119l-86 -94 h-65q-34 0 -42.5 13.5zM291 559q0 -151 61 -254l516 565q-103 95 -235 95q-145 0 -243.5 -104t-98.5 -302zM416 221q100 -92 237 -92q145 0 243.5 104t98.5 302q0 141 -61 253z" />
<glyph unicode="&#xf9;" horiz-adv-x="1257" d="M156 461v626q65 19 123 19q55 0 55 -43v-614q0 -147 84.5 -234.5t210.5 -87.5t209.5 87.5t83.5 234.5v645h120q31 0 44.5 -11t13.5 -36v-586q0 -225 -129.5 -355.5t-341.5 -130.5q-213 0 -343 130.5t-130 355.5zM391 1430q24 49 64 84q21 18 45 18q20 0 43 -23l240 -237 l-56 -60q-16 -16 -32 -16t-41 19z" />
<glyph unicode="&#xfa;" horiz-adv-x="1257" d="M156 461v626q65 19 123 19q55 0 55 -43v-614q0 -147 84.5 -234.5t210.5 -87.5t209.5 87.5t83.5 234.5v645h120q31 0 44.5 -11t13.5 -36v-586q0 -225 -129.5 -355.5t-341.5 -130.5q-213 0 -343 130.5t-130 355.5zM452 1272l240 237q23 23 43 23q24 0 45 -18q40 -35 64 -84 l-263 -215q-25 -19 -41 -19t-32 16z" />
<glyph unicode="&#xfb;" horiz-adv-x="1257" d="M156 461v626q65 19 123 19q55 0 55 -43v-614q0 -147 84.5 -234.5t210.5 -87.5t209.5 87.5t83.5 234.5v645h120q31 0 44.5 -11t13.5 -36v-586q0 -225 -129.5 -355.5t-341.5 -130.5q-213 0 -343 130.5t-130 355.5zM330 1276q0 15 12 27l234 225h55q27 0 40.5 -5.5 t31.5 -23.5l237 -227l-57 -62q-20 -20 -39 -20q-22 0 -51 29l-168 168l-197 -197q-98 37 -98 86z" />
<glyph unicode="&#xfc;" horiz-adv-x="1257" d="M156 461v626q65 19 123 19q55 0 55 -43v-614q0 -147 84.5 -234.5t210.5 -87.5t209.5 87.5t83.5 234.5v645h120q31 0 44.5 -11t13.5 -36v-586q0 -225 -129.5 -355.5t-341.5 -130.5q-213 0 -343 130.5t-130 355.5zM340 1366q0 47 28.5 75.5t73.5 28.5q43 0 75 -31t32 -81 q0 -47 -28.5 -76t-71.5 -29q-45 0 -77 31t-32 82zM705 1366q0 47 28.5 75.5t73.5 28.5q43 0 74.5 -31t31.5 -81q0 -47 -28.5 -76t-71.5 -29q-45 0 -76.5 31t-31.5 82z" />
<glyph unicode="&#xfd;" horiz-adv-x="1284" d="M170 449v641q66 16 123 16q55 0 55 -43v-627q0 -307 258 -307q85 0 173 34.5t153 96.5v836h121q31 0 44 -10t13 -35v-1045q0 -104 -35 -196t-101.5 -163.5t-173 -113t-239.5 -41.5q-172 0 -275.5 77.5t-103.5 199.5q0 157 172 258q-184 109 -184 422zM360 -211 q0 -66 55 -106.5t150 -40.5q164 0 265.5 93t101.5 253v131q-71 -65 -170.5 -104.5t-202.5 -39.5q-25 0 -90 9q-109 -75 -109 -195zM467 1272l240 237q23 23 43 23q24 0 45 -18q40 -35 64 -84l-263 -215q-25 -19 -41 -19t-32 16z" />
<glyph unicode="&#xfe;" horiz-adv-x="1318" d="M174 -350v1841q66 16 123 16q55 0 55 -43v-557q55 97 156.5 154t226.5 57q203 0 335 -143t132 -385q0 -132 -43 -247.5t-116 -195.5t-173 -126t-211 -46q-186 0 -307 109v-479h-121q-30 0 -43.5 10.5t-13.5 34.5zM352 240q117 -111 281 -111q167 0 278 130.5t111 326.5 q0 178 -88 279.5t-238 101.5q-104 0 -197.5 -73t-146.5 -212v-442z" />
<glyph unicode="&#xff;" horiz-adv-x="1284" d="M170 449v641q66 16 123 16q55 0 55 -43v-627q0 -307 258 -307q85 0 173 34.5t153 96.5v836h121q31 0 44 -10t13 -35v-1045q0 -104 -35 -196t-101.5 -163.5t-173 -113t-239.5 -41.5q-172 0 -275.5 77.5t-103.5 199.5q0 157 172 258q-184 109 -184 422zM350 1366 q0 47 29 76t74 29q43 0 74.5 -31t31.5 -82q0 -47 -28.5 -76t-71.5 -29q-45 0 -77 31t-32 82zM360 -211q0 -66 55 -106.5t150 -40.5q164 0 265.5 93t101.5 253v131q-71 -65 -170.5 -104.5t-202.5 -39.5q-25 0 -90 9q-109 -75 -109 -195zM715 1366q0 47 28.5 76t73.5 29 q43 0 75 -31.5t32 -81.5q0 -47 -29 -76t-72 -29q-45 0 -76.5 31t-31.5 82z" />
<glyph unicode="&#x100;" horiz-adv-x="1374" d="M53 39q0 8 4 20l508 1352q79 35 164 35q38 0 56 -13t32 -49l520 -1384h-141q-34 0 -50 9.5t-24 31.5l-118 332h-635l-133 -373h-127q-25 0 -40.5 10.5t-15.5 28.5zM412 1702q0 38 12 84h498q22 0 30.5 -11.5t8.5 -39.5v-80h-512q-37 0 -37 47zM424 530h524l-262 727z" />
<glyph unicode="&#x101;" horiz-adv-x="1214" d="M109 317q0 167 117 262t317 95q78 0 159.5 -17.5t139.5 -46.5v90q0 131 -83.5 198t-240.5 67q-167 0 -293 -66q-24 27 -24 78q0 29 45.5 61.5t131 56t183.5 23.5q216 0 337.5 -108.5t121.5 -317.5v-450q0 -62 19.5 -87.5t58.5 -25.5h41q10 -30 10 -63q0 -30 -37 -55 t-96 -25q-65 0 -111.5 48t-56.5 130q-55 -88 -151.5 -138.5t-217.5 -50.5q-166 0 -268 95t-102 247zM287 324q0 -93 64.5 -145t164.5 -52q99 0 187 52t139 147v149q-48 21 -128 33t-149 12q-133 0 -205.5 -51.5t-72.5 -144.5zM324 1343q0 38 12 84h498q21 0 29.5 -11.5 t8.5 -39.5v-80h-512q-36 0 -36 47z" />
<glyph unicode="&#x102;" horiz-adv-x="1374" d="M53 39q0 8 4 20l508 1352q79 35 164 35q38 0 56 -13t32 -49l520 -1384h-141q-34 0 -50 9.5t-24 31.5l-118 332h-635l-133 -373h-127q-25 0 -40.5 10.5t-15.5 28.5zM395 1833q56 31 103 31q25 0 35.5 -9t15.5 -32q12 -65 48 -99t89 -34q130 0 148 174h90q31 0 44.5 -10.5 t10.5 -30.5q-17 -108 -91 -181t-202 -73q-114 0 -193.5 68.5t-97.5 195.5zM424 530h524l-262 727z" />
<glyph unicode="&#x103;" horiz-adv-x="1214" d="M109 317q0 167 117 262t317 95q78 0 159.5 -17.5t139.5 -46.5v90q0 131 -83.5 198t-240.5 67q-167 0 -293 -66q-24 27 -24 78q0 29 45.5 61.5t131 56t183.5 23.5q216 0 337.5 -108.5t121.5 -317.5v-450q0 -62 19.5 -87.5t58.5 -25.5h41q10 -30 10 -63q0 -30 -37 -55 t-96 -25q-65 0 -111.5 48t-56.5 130q-55 -88 -151.5 -138.5t-217.5 -50.5q-166 0 -268 95t-102 247zM287 324q0 -93 64.5 -145t164.5 -52q99 0 187 52t139 147v149q-48 21 -128 33t-149 12q-133 0 -205.5 -51.5t-72.5 -144.5zM307 1475q54 30 103 30q25 0 35.5 -9t15.5 -32 q12 -65 48 -99t89 -34q129 0 147 174h91q31 0 44.5 -10.5t10.5 -30.5q-17 -108 -91 -181t-202 -73q-114 0 -193.5 69t-97.5 196z" />
<glyph unicode="&#x104;" horiz-adv-x="1374" d="M53 39q0 8 4 20l508 1352q79 35 164 35q38 0 56 -13t32 -49l520 -1384q-73 -51 -111 -111.5t-38 -119.5q0 -41 27.5 -68t82.5 -27q39 0 68 13q49 19 49 -35v-72q-60 -31 -143 -31q-114 0 -175 56t-61 145q0 66 40 135.5t108 114.5q-29 1 -42.5 10.5t-19.5 30.5l-118 332 h-635l-133 -373h-127q-25 0 -40.5 10.5t-15.5 28.5zM424 530h524l-262 727z" />
<glyph unicode="&#x105;" horiz-adv-x="1214" d="M109 317q0 167 117 262t317 95q78 0 159.5 -17.5t139.5 -46.5v90q0 131 -83.5 198t-240.5 67q-167 0 -293 -66q-24 27 -24 78q0 29 45.5 61.5t131 56t183.5 23.5q216 0 337.5 -108.5t121.5 -317.5v-450q0 -62 19.5 -87.5t58.5 -25.5h41q10 -30 10 -63q0 -24 -25.5 -46.5 t-66.5 -29.5q-66 -50 -100.5 -108t-34.5 -113q0 -41 27.5 -68t82.5 -27q39 0 68 13q49 19 49 -35v-72q-60 -31 -143 -31q-114 0 -175 56t-61 145q0 65 39 133.5t119 126.5q-68 46 -80 154q-55 -88 -151.5 -138.5t-217.5 -50.5q-166 0 -268 95t-102 247zM287 324 q0 -93 64.5 -145t164.5 -52q99 0 187 52t139 147v149q-48 21 -128 33t-149 12q-133 0 -205.5 -51.5t-72.5 -144.5z" />
<glyph unicode="&#x106;" horiz-adv-x="1406" d="M119 760q0 163 52.5 296.5t142.5 220.5t206.5 134t247.5 47q188 0 330 -82.5t209 -218.5q10 -20 10 -35q0 -46 -55 -69q-47 -21 -105 -27q-51 129 -154.5 199.5t-244.5 70.5q-88 0 -168 -35t-143.5 -100t-101.5 -167.5t-38 -227.5q0 -194 80.5 -339t217 -218.5 t308.5 -73.5q191 0 332 78q25 -41 25 -86q0 -31 -50 -66t-141.5 -60.5t-193.5 -25.5q-217 0 -390.5 94.5t-274.5 274.5t-101 416zM569 1628l240 237q23 23 43 23q24 0 45 -18q40 -35 64 -84l-263 -215q-25 -19 -41 -19t-32 16z" />
<glyph unicode="&#x107;" horiz-adv-x="1130" d="M109 580q0 164 69 287.5t186.5 187t266.5 63.5q146 0 254.5 -61t156.5 -158q11 -22 11 -37q0 -33 -33 -51q-48 -28 -121 -35q-61 189 -276 189q-143 0 -238.5 -104t-95.5 -277q0 -88 24.5 -163t66 -128.5t97.5 -91t119.5 -56t130.5 -18.5q147 0 270 63q25 -36 25 -77 q0 -29 -40 -60.5t-117 -54.5t-167 -23q-113 0 -218 41t-188 116t-133 191.5t-50 256.5zM415 1272l240 237q23 23 43 23q24 0 45 -18q40 -35 64 -84l-263 -215q-25 -19 -41 -19t-32 16z" />
<glyph unicode="&#x108;" horiz-adv-x="1406" d="M119 760q0 163 52.5 296.5t142.5 220.5t206.5 134t247.5 47q188 0 330 -82.5t209 -218.5q10 -20 10 -35q0 -46 -55 -69q-47 -21 -105 -27q-51 129 -154.5 199.5t-244.5 70.5q-88 0 -168 -35t-143.5 -100t-101.5 -167.5t-38 -227.5q0 -194 80.5 -339t217 -218.5 t308.5 -73.5q191 0 332 78q25 -41 25 -86q0 -31 -50 -66t-141.5 -60.5t-193.5 -25.5q-217 0 -390.5 94.5t-274.5 274.5t-101 416zM457 1632q0 15 12 27l234 225h55q27 0 40.5 -5.5t31.5 -23.5l237 -227l-57 -62q-20 -20 -39 -20q-22 0 -51 29l-168 168l-197 -197 q-98 37 -98 86z" />
<glyph unicode="&#x109;" horiz-adv-x="1130" d="M109 580q0 164 69 287.5t186.5 187t266.5 63.5q146 0 254.5 -61t156.5 -158q11 -22 11 -37q0 -33 -33 -51q-48 -28 -121 -35q-61 189 -276 189q-143 0 -238.5 -104t-95.5 -277q0 -88 24.5 -163t66 -128.5t97.5 -91t119.5 -56t130.5 -18.5q147 0 270 63q25 -36 25 -77 q0 -29 -40 -60.5t-117 -54.5t-167 -23q-113 0 -218 41t-188 116t-133 191.5t-50 256.5zM301 1276q0 15 12 27l234 225h55q27 0 40.5 -5.5t31.5 -23.5l237 -227l-57 -62q-20 -20 -39 -20q-22 0 -51 29l-168 168l-197 -197q-98 37 -98 86z" />
<glyph unicode="&#x10a;" horiz-adv-x="1406" d="M119 760q0 163 52.5 296.5t142.5 220.5t206.5 134t247.5 47q188 0 330 -82.5t209 -218.5q10 -20 10 -35q0 -46 -55 -69q-47 -21 -105 -27q-51 129 -154.5 199.5t-244.5 70.5q-88 0 -168 -35t-143.5 -100t-101.5 -167.5t-38 -227.5q0 -194 80.5 -339t217 -218.5 t308.5 -73.5q191 0 332 78q25 -41 25 -86q0 -31 -50 -66t-141.5 -60.5t-193.5 -25.5q-217 0 -390.5 94.5t-274.5 274.5t-101 416zM647 1722q0 47 29 76t74 29q43 0 74.5 -31t31.5 -82q0 -47 -28.5 -75.5t-71.5 -28.5q-45 0 -77 30.5t-32 81.5z" />
<glyph unicode="&#x10b;" horiz-adv-x="1130" d="M109 580q0 164 69 287.5t186.5 187t266.5 63.5q146 0 254.5 -61t156.5 -158q11 -22 11 -37q0 -33 -33 -51q-48 -28 -121 -35q-61 189 -276 189q-143 0 -238.5 -104t-95.5 -277q0 -88 24.5 -163t66 -128.5t97.5 -91t119.5 -56t130.5 -18.5q147 0 270 63q25 -36 25 -77 q0 -29 -40 -60.5t-117 -54.5t-167 -23q-113 0 -218 41t-188 116t-133 191.5t-50 256.5zM502 1366q0 47 28.5 75.5t73.5 28.5q43 0 75 -31t32 -81q0 -47 -29 -76t-72 -29q-45 0 -76.5 31t-31.5 82z" />
<glyph unicode="&#x10c;" horiz-adv-x="1406" d="M119 760q0 163 52.5 296.5t142.5 220.5t206.5 134t247.5 47q188 0 330 -82.5t209 -218.5q10 -20 10 -35q0 -46 -55 -69q-47 -21 -105 -27q-51 129 -154.5 199.5t-244.5 70.5q-88 0 -168 -35t-143.5 -100t-101.5 -167.5t-38 -227.5q0 -194 80.5 -339t217 -218.5 t308.5 -73.5q191 0 332 78q25 -41 25 -86q0 -31 -50 -66t-141.5 -60.5t-193.5 -25.5q-217 0 -390.5 94.5t-274.5 274.5t-101 416zM463 1800q56 84 94 84q25 0 51 -26l170 -170l205 204l74 -67q14 -11 14 -27q0 -17 -18 -35l-224 -215q-18 -2 -57 -2q-38 0 -70 25z" />
<glyph unicode="&#x10d;" horiz-adv-x="1130" d="M109 580q0 164 69 287.5t186.5 187t266.5 63.5q146 0 254.5 -61t156.5 -158q11 -22 11 -37q0 -33 -33 -51q-48 -28 -121 -35q-61 189 -276 189q-143 0 -238.5 -104t-95.5 -277q0 -88 24.5 -163t66 -128.5t97.5 -91t119.5 -56t130.5 -18.5q147 0 270 63q25 -36 25 -77 q0 -29 -40 -60.5t-117 -54.5t-167 -23q-113 0 -218 41t-188 116t-133 191.5t-50 256.5zM293 1444q56 84 94 84q24 0 51 -27l170 -170l205 205l74 -68q14 -11 14 -26q0 -17 -18 -35l-224 -215q-18 -2 -57 -2t-70 24z" />
<glyph unicode="&#x10e;" horiz-adv-x="1478" d="M193 358v1076h485q145 0 270 -50t216.5 -141.5t143.5 -227t52 -298.5t-52 -298.5t-143.5 -227t-216.5 -141.5t-270 -50h-176q-157 0 -233 82.5t-76 275.5zM338 1800q56 84 94 84q24 0 51 -27l170 -170l205 205l74 -68q14 -11 14 -26q0 -16 -19 -35l-223 -215 q-18 -2 -57 -2q-38 0 -70 25zM379 373q0 -122 31 -167.5t114 -45.5h131q106 0 198 36t162.5 103.5t111 175t40.5 242.5t-40.5 242.5t-111 175t-162.5 103.5t-198 36h-276v-901z" />
<glyph unicode="&#x10f;" horiz-adv-x="1548" d="M109 504q0 132 43 247t116 195t172.5 126t210.5 46q187 0 307 -108v485h121q31 0 44.5 -11t13.5 -36v-1206q0 -62 19 -87.5t58 -25.5h41q11 -33 11 -63t-37 -55t-96 -25q-70 0 -116.5 52t-55.5 150q-55 -98 -157.5 -155.5t-228.5 -57.5q-203 0 -334.5 143.5t-131.5 385.5 zM289 508q0 -178 87.5 -279.5t237.5 -101.5q104 0 197.5 73t146.5 212v442q-117 111 -280 111q-167 0 -278 -130.5t-111 -326.5zM1270 1073q99 96 114 205q-38 11 -63 43t-25 78q0 52 31.5 83t81.5 31q49 0 84 -35t35 -98q0 -150 -105 -274q-34 -42 -70 -64.5t-48 -17.5 q-28 16 -35 49z" />
<glyph unicode="&#x110;" horiz-adv-x="1478" d="M53 696q0 47 8 78h129v660h488q145 0 269.5 -50t215.5 -141.5t143 -227t52 -298.5t-52 -298.5t-143 -227t-215.5 -141.5t-269.5 -50h-176q-166 0 -239 89.5t-73 309.5v258h-94q-43 0 -43 39zM377 373q0 -123 32 -169t115 -46h131q105 0 197 36t162.5 104.5t111.5 176.5 t41 242t-41 241.5t-111.5 175.5t-162.5 104t-197 36h-278v-500h368q25 0 35.5 -12.5t10.5 -44.5v-60h-414v-284z" />
<glyph unicode="&#x111;" horiz-adv-x="1335" d="M109 504q0 132 43 247t116 195t172.5 126t210.5 46q187 0 307 -108v229h-321q-43 0 -43 39q0 49 8 80h356v137h121q31 0 44.5 -11t13.5 -36v-90h77q25 0 35.5 -13.5t10.5 -44.5v-61h-123v-997q0 -62 19 -87.5t58 -25.5h41q11 -33 11 -63t-37 -55t-96 -25q-70 0 -116.5 52 t-55.5 150q-55 -98 -157.5 -155.5t-228.5 -57.5q-203 0 -334.5 143.5t-131.5 385.5zM289 508q0 -178 87.5 -279.5t237.5 -101.5q104 0 197.5 73t146.5 212v442q-117 111 -280 111q-167 0 -278 -130.5t-111 -326.5z" />
<glyph unicode="&#x112;" horiz-adv-x="1175" d="M190 356v1078h811q41 0 41 -54q0 -56 -12 -106h-653v-483h510q25 0 35 -13.5t10 -44.5v-102h-555v-258q0 -119 34.5 -167t112.5 -48h490q25 0 35 -13.5t10 -44.5v-100h-557q-159 0 -235.5 82.5t-76.5 273.5zM334 1702q0 38 12 84h498q22 0 30.5 -11.5t8.5 -39.5v-80h-512 q-37 0 -37 47z" />
<glyph unicode="&#x113;" d="M109 547q0 130 43.5 239t117 180.5t170.5 111.5t205 40q192 0 313 -113t121 -288q0 -92 -30 -160q-21 -48 -52.5 -66t-89.5 -18h-614q17 -164 124 -254t263 -90q153 0 272 64q25 -32 25 -80q0 -46 -94.5 -92t-231.5 -46q-154 0 -277.5 72.5t-194 203.5t-70.5 296z M293 625h596q16 37 16 84q0 118 -71.5 187t-196.5 69q-139 0 -234 -92t-110 -248zM352 1343q0 34 13 84h497q22 0 30.5 -11.5t8.5 -39.5v-80h-512q-37 0 -37 47z" />
<glyph unicode="&#x114;" horiz-adv-x="1175" d="M190 356v1078h811q41 0 41 -54q0 -56 -12 -106h-653v-483h510q25 0 35 -13.5t10 -44.5v-102h-555v-258q0 -119 34.5 -167t112.5 -48h490q25 0 35 -13.5t10 -44.5v-100h-557q-159 0 -235.5 82.5t-76.5 273.5zM317 1833q56 31 103 31q25 0 35.5 -9t15.5 -32q12 -65 48 -99 t89 -34q130 0 148 174h90q31 0 44.5 -10.5t10.5 -30.5q-17 -108 -91 -181t-202 -73q-114 0 -193.5 68.5t-97.5 195.5z" />
<glyph unicode="&#x115;" d="M109 547q0 130 43.5 239t117 180.5t170.5 111.5t205 40q192 0 313 -113t121 -288q0 -92 -30 -160q-21 -48 -52.5 -66t-89.5 -18h-614q17 -164 124 -254t263 -90q153 0 272 64q25 -32 25 -80q0 -46 -94.5 -92t-231.5 -46q-154 0 -277.5 72.5t-194 203.5t-70.5 296z M293 625h596q16 37 16 84q0 118 -71.5 187t-196.5 69q-139 0 -234 -92t-110 -248zM336 1475q54 30 102 30q25 0 35.5 -9t15.5 -32q12 -65 48.5 -99t89.5 -34q129 0 147 174h90q62 0 56 -41q-17 -108 -91 -181t-202 -73q-114 0 -193.5 69t-97.5 196z" />
<glyph unicode="&#x116;" horiz-adv-x="1175" d="M190 356v1078h811q41 0 41 -54q0 -56 -12 -106h-653v-483h510q25 0 35 -13.5t10 -44.5v-102h-555v-258q0 -119 34.5 -167t112.5 -48h490q25 0 35 -13.5t10 -44.5v-100h-557q-159 0 -235.5 82.5t-76.5 273.5zM502 1722q0 47 28.5 76t73.5 29q43 0 75 -31.5t32 -81.5 q0 -46 -28.5 -75t-72.5 -29q-45 0 -76.5 30.5t-31.5 81.5z" />
<glyph unicode="&#x117;" d="M109 547q0 130 43.5 239t117 180.5t170.5 111.5t205 40q192 0 313 -113t121 -288q0 -92 -30 -160q-21 -48 -52.5 -66t-89.5 -18h-614q17 -164 124 -254t263 -90q153 0 272 64q25 -32 25 -80q0 -46 -94.5 -92t-231.5 -46q-154 0 -277.5 72.5t-194 203.5t-70.5 296z M293 625h596q16 37 16 84q0 118 -71.5 187t-196.5 69q-139 0 -234 -92t-110 -248zM522 1366q0 47 29 75.5t74 28.5q43 0 74.5 -31t31.5 -81q0 -47 -28.5 -76t-71.5 -29q-45 0 -77 31t-32 82z" />
<glyph unicode="&#x118;" horiz-adv-x="1175" d="M190 356v1078h811q41 0 41 -54q0 -56 -12 -106h-653v-483h510q25 0 35 -13.5t10 -44.5v-102h-555v-258q0 -119 34.5 -167t112.5 -48h490q25 0 35 -13.5t10 -44.5v-100h-82q-73 -51 -111.5 -111.5t-38.5 -119.5q0 -41 28 -68t83 -27q39 0 68 13q49 19 49 -35v-72 q-60 -31 -144 -31q-114 0 -174.5 56t-60.5 145q0 66 40 135.5t107 114.5h-321q-159 0 -235.5 82.5t-76.5 273.5z" />
<glyph unicode="&#x119;" d="M109 547q0 130 43.5 239t117 180.5t170.5 111.5t205 40q192 0 313 -113t121 -288q0 -92 -30 -160q-21 -48 -52.5 -66t-89.5 -18h-614q17 -164 124 -254t263 -90q153 0 272 64q25 -32 25 -80q0 -33 -51 -68t-135 -53q-136 -103 -136 -223q0 -41 28 -68t83 -27q39 0 68 13 q49 19 49 -35v-72q-60 -31 -144 -31q-114 0 -174.5 56t-60.5 145q0 58 30.5 119t83.5 108q-223 11 -366 169t-143 401zM293 625h596q16 37 16 84q0 118 -71.5 187t-196.5 69q-139 0 -234 -92t-110 -248z" />
<glyph unicode="&#x11a;" horiz-adv-x="1175" d="M190 356v1078h811q41 0 41 -54q0 -56 -12 -106h-653v-483h510q25 0 35 -13.5t10 -44.5v-102h-555v-258q0 -119 34.5 -167t112.5 -48h490q25 0 35 -13.5t10 -44.5v-100h-557q-159 0 -235.5 82.5t-76.5 273.5zM303 1800q56 84 94 84q24 0 51 -27l170 -170l205 205l74 -68 q14 -11 14 -26q0 -16 -19 -35l-223 -215q-18 -2 -57 -2q-38 0 -70 25z" />
<glyph unicode="&#x11b;" d="M109 547q0 130 43.5 239t117 180.5t170.5 111.5t205 40q192 0 313 -113t121 -288q0 -92 -30 -160q-21 -48 -52.5 -66t-89.5 -18h-614q17 -164 124 -254t263 -90q153 0 272 64q25 -32 25 -80q0 -46 -94.5 -92t-231.5 -46q-154 0 -277.5 72.5t-194 203.5t-70.5 296z M293 625h596q16 37 16 84q0 118 -71.5 187t-196.5 69q-139 0 -234 -92t-110 -248zM314 1444q56 84 94 84q24 0 51 -27l170 -170l205 205l74 -68q14 -11 14 -26q0 -16 -19 -35l-223 -215q-18 -2 -57 -2q-38 0 -70 25z" />
<glyph unicode="&#x11c;" horiz-adv-x="1533" d="M119 760q0 160 53 293t144 221t211.5 136t256.5 48q187 0 331.5 -77.5t219.5 -209.5q11 -22 11 -34q0 -47 -56 -70q-48 -21 -104 -27q-49 123 -154 189.5t-246 66.5q-96 0 -182.5 -36t-152.5 -102.5t-105 -167.5t-39 -224q0 -144 46.5 -264t126 -199.5t184 -123.5 t221.5 -44q149 0 224 50t75 137v241h-291q-43 0 -43 51q0 53 14 107h459q25 0 36 -12.5t11 -44.5v-340q0 -157 -131.5 -253t-357.5 -96q-160 0 -300 56.5t-242 157.5t-161 248.5t-59 322.5zM467 1632q0 15 12 27l234 225h55q27 0 40.5 -5.5t31.5 -23.5l237 -227l-57 -61 q-21 -21 -39 -21q-22 0 -51 29l-168 168l-197 -197q-98 37 -98 86z" />
<glyph unicode="&#x11d;" horiz-adv-x="1310" d="M109 504q0 132 43 247t116 195t172.5 126t210.5 46q187 0 307 -108v84h121q31 0 44.5 -11t13.5 -36v-1027q0 -103 -39.5 -197.5t-113 -168.5t-189 -118t-256.5 -44q-178 0 -285 78.5t-107 200.5q0 76 48 145.5t143 120.5l8 -4q-110 62 -173.5 184t-63.5 287zM289 508 q0 -178 87.5 -279.5t237.5 -101.5q104 0 197.5 73t146.5 212v442q-117 111 -280 111q-167 0 -278 -130.5t-111 -326.5zM326 -209q0 -66 57.5 -106.5t159.5 -40.5q177 0 296 101.5t119 268.5v170q-56 -97 -157.5 -153t-225.5 -56q-59 0 -129 17q-120 -83 -120 -201zM383 1276 q0 15 12 27l234 225h55q27 0 40.5 -5.5t31.5 -23.5l237 -227l-57 -62q-20 -20 -39 -20q-22 0 -51 29l-168 167l-197 -196q-98 37 -98 86z" />
<glyph unicode="&#x11e;" horiz-adv-x="1533" d="M119 760q0 160 53 293t144 221t211.5 136t256.5 48q187 0 331.5 -77.5t219.5 -209.5q11 -22 11 -34q0 -47 -56 -70q-48 -21 -104 -27q-49 123 -154 189.5t-246 66.5q-96 0 -182.5 -36t-152.5 -102.5t-105 -167.5t-39 -224q0 -144 46.5 -264t126 -199.5t184 -123.5 t221.5 -44q149 0 224 50t75 137v241h-291q-43 0 -43 51q0 53 14 107h459q25 0 36 -12.5t11 -44.5v-340q0 -157 -131.5 -253t-357.5 -96q-160 0 -300 56.5t-242 157.5t-161 248.5t-59 322.5zM471 1833q54 30 103 30q25 0 35.5 -9t15.5 -32q12 -65 48 -99t89 -34 q129 0 147 174h91q31 0 44.5 -10.5t10.5 -30.5q-17 -108 -91 -181t-202 -73q-114 0 -193.5 69t-97.5 196z" />
<glyph unicode="&#x11f;" horiz-adv-x="1310" d="M109 504q0 132 43 247t116 195t172.5 126t210.5 46q187 0 307 -108v84h121q31 0 44.5 -11t13.5 -36v-1027q0 -103 -39.5 -197.5t-113 -168.5t-189 -118t-256.5 -44q-178 0 -285 78.5t-107 200.5q0 76 48 145.5t143 120.5l8 -4q-110 62 -173.5 184t-63.5 287zM289 508 q0 -178 87.5 -279.5t237.5 -101.5q104 0 197.5 73t146.5 212v442q-117 111 -280 111q-167 0 -278 -130.5t-111 -326.5zM326 -209q0 -66 57.5 -106.5t159.5 -40.5q177 0 296 101.5t119 268.5v170q-56 -97 -157.5 -153t-225.5 -56q-59 0 -129 17q-120 -83 -120 -201zM387 1475 q54 30 103 30q25 0 35.5 -9t15.5 -32q12 -65 48 -99t89 -34q129 0 147 174h91q31 0 44.5 -10.5t10.5 -30.5q-17 -108 -91 -181t-202 -73q-114 0 -193.5 69t-97.5 196z" />
<glyph unicode="&#x120;" horiz-adv-x="1533" d="M119 760q0 160 53 293t144 221t211.5 136t256.5 48q187 0 331.5 -77.5t219.5 -209.5q11 -22 11 -34q0 -47 -56 -70q-48 -21 -104 -27q-49 123 -154 189.5t-246 66.5q-96 0 -182.5 -36t-152.5 -102.5t-105 -167.5t-39 -224q0 -144 46.5 -264t126 -199.5t184 -123.5 t221.5 -44q149 0 224 50t75 137v241h-291q-43 0 -43 51q0 53 14 107h459q25 0 36 -12.5t11 -44.5v-340q0 -157 -131.5 -253t-357.5 -96q-160 0 -300 56.5t-242 157.5t-161 248.5t-59 322.5zM657 1722q0 47 29 76t74 29q43 0 74.5 -31t31.5 -82q0 -47 -28.5 -75.5 t-71.5 -28.5q-45 0 -77 30.5t-32 81.5z" />
<glyph unicode="&#x121;" horiz-adv-x="1310" d="M109 504q0 132 43 247t116 195t172.5 126t210.5 46q187 0 307 -108v84h121q31 0 44.5 -11t13.5 -36v-1027q0 -103 -39.5 -197.5t-113 -168.5t-189 -118t-256.5 -44q-178 0 -285 78.5t-107 200.5q0 76 48 145.5t143 120.5l8 -4q-110 62 -173.5 184t-63.5 287zM289 508 q0 -178 87.5 -279.5t237.5 -101.5q104 0 197.5 73t146.5 212v442q-117 111 -280 111q-167 0 -278 -130.5t-111 -326.5zM326 -209q0 -66 57.5 -106.5t159.5 -40.5q177 0 296 101.5t119 268.5v170q-56 -97 -157.5 -153t-225.5 -56q-59 0 -129 17q-120 -83 -120 -201zM574 1366 q0 47 28.5 76t73.5 29q43 0 74.5 -31t31.5 -82q0 -47 -28.5 -76t-71.5 -29q-45 0 -76.5 31t-31.5 82z" />
<glyph unicode="&#x122;" horiz-adv-x="1533" d="M119 760q0 160 53 293t144 221t211.5 136t256.5 48q187 0 331.5 -77.5t219.5 -209.5q11 -22 11 -34q0 -47 -56 -70q-48 -21 -104 -27q-49 123 -154 189.5t-246 66.5q-96 0 -182.5 -36t-152.5 -102.5t-105 -167.5t-39 -224q0 -144 46.5 -264t126 -199.5t184 -123.5 t221.5 -44q149 0 224 50t75 137v241h-291q-43 0 -43 51q0 53 14 107h459q25 0 36 -12.5t11 -44.5v-340q0 -157 -131.5 -253t-357.5 -96q-160 0 -300 56.5t-242 157.5t-161 248.5t-59 322.5zM721 -461q82 75 98 164q-35 9 -57.5 39t-22.5 72q0 48 32 77t75 29q47 0 79.5 -31 t32.5 -84q0 -127 -81 -227q-35 -43 -71 -68t-48 -18q-26 10 -37 47z" />
<glyph unicode="&#x123;" horiz-adv-x="1310" d="M109 504q0 132 43 247t116 195t172.5 126t210.5 46q187 0 307 -108v84h121q31 0 44.5 -11t13.5 -36v-1027q0 -103 -39.5 -197.5t-113 -168.5t-189 -118t-256.5 -44q-178 0 -285 78.5t-107 200.5q0 76 48 145.5t143 120.5l8 -4q-110 62 -173.5 184t-63.5 287zM289 508 q0 -178 87.5 -279.5t237.5 -101.5q104 0 197.5 73t146.5 212v442q-117 111 -280 111q-167 0 -278 -130.5t-111 -326.5zM326 -209q0 -66 57.5 -106.5t159.5 -40.5q177 0 296 101.5t119 268.5v170q-56 -97 -157.5 -153t-225.5 -56q-59 0 -129 17q-120 -83 -120 -201zM567 1294 q0 127 82 228q35 43 71 68t48 18q26 -10 37 -47q-82 -75 -98 -164q35 -9 57 -39t22 -72q0 -48 -31.5 -77t-74.5 -29q-47 0 -80 30.5t-33 83.5z" />
<glyph unicode="&#x124;" horiz-adv-x="1478" d="M195 45v1380q68 21 131 21q55 0 55 -43v-606h715v637h129q30 0 43.5 -11.5t13.5 -36.5v-1386h-129q-32 0 -44.5 10t-12.5 35v594h-715v-639h-129q-31 0 -44 10t-13 35zM442 1632q0 15 12 27l234 225h55q27 0 40.5 -5.5t31.5 -23.5l237 -227l-57 -62q-20 -20 -39 -20 q-22 0 -51 29l-168 168l-197 -197q-98 37 -98 86z" />
<glyph unicode="&#x125;" horiz-adv-x="1312" d="M137 1632q0 14 13 27l233 225h55q27 0 40.5 -5.5t31.5 -23.5l238 -227l-58 -61q-21 -21 -39 -21q-22 0 -51 29l-168 168l-196 -197q-99 38 -99 86zM174 45v1403q62 18 123 18q55 0 55 -43v-448q71 65 170.5 104t202.5 39q188 0 288.5 -124.5t100.5 -348.5v-407 q0 -58 17.5 -83.5t54.5 -25.5h45q10 -22 10 -63q0 -30 -36 -55t-93 -25q-176 0 -176 237v434q0 308 -258 308q-85 0 -173 -34.5t-153 -96.5v-834h-121q-32 0 -44.5 10t-12.5 35z" />
<glyph unicode="&#x126;" horiz-adv-x="1478" d="M53 1094q0 46 8 77h134v254q68 21 131 21q55 0 55 -43v-232h715v263h129q30 0 43.5 -11.5t13.5 -36.5v-215h96q25 0 35 -12.5t10 -44.5v-59h-141v-1055h-129q-32 0 -44.5 10t-12.5 35v594h-715v-639h-129q-31 0 -44 10t-13 35v1010h-99q-43 0 -43 39zM381 797h715v258 h-715v-258z" />
<glyph unicode="&#x127;" horiz-adv-x="1312" d="M49 1278q0 49 8 80h117v131q62 18 123 18q55 0 55 -43v-106h318q25 0 36 -13.5t11 -44.5v-61h-365v-264q71 65 170.5 104t202.5 39q188 0 288.5 -124.5t100.5 -348.5v-407q0 -58 17.5 -83.5t54.5 -25.5h45q10 -22 10 -63q0 -30 -36 -55t-93 -25q-176 0 -176 237v434 q0 308 -258 308q-85 0 -173 -34.5t-153 -96.5v-834h-121q-32 0 -44.5 10t-12.5 35v1194h-82q-43 0 -43 39z" />
<glyph unicode="&#x128;" horiz-adv-x="600" d="M8 1661q0 28 10 55q42 121 158 121q40 0 71.5 -12t67.5 -43q55 -45 86 -45q28 0 43.5 22t24.5 82l92 -24q25 -6 33 -20t2 -40q-15 -74 -59 -116t-111 -42q-70 0 -137 56q-55 45 -86 45q-27 0 -42.5 -20.5t-25.5 -77.5q-57 0 -94 16q-33 14 -33 43zM207 45v1380 q68 21 129 21q57 0 57 -43v-1403h-129q-32 0 -44.5 10t-12.5 35z" />
<glyph unicode="&#x129;" horiz-adv-x="552" d="M-31 1303q0 28 10 55q42 121 158 121q72 0 139 -56q55 -45 86 -45q28 0 43.5 22.5t24.5 82.5l92 -25q25 -6 33 -19.5t2 -39.5q-15 -74 -59 -116t-111 -42q-71 0 -137 55q-56 46 -86 46q-27 0 -42.5 -21t-25.5 -78q-55 0 -94 17q-33 14 -33 43zM174 223v864q65 19 123 19 q55 0 55 -43v-825q0 -58 17.5 -83.5t54.5 -25.5h45q10 -23 10 -63q0 -30 -36 -55t-93 -25q-176 0 -176 237z" />
<glyph unicode="&#x12a;" horiz-adv-x="600" d="M27 1702q0 38 12 84h498q21 0 29.5 -12t8.5 -40v-80h-512q-36 0 -36 48zM207 45v1380q68 21 129 21q57 0 57 -43v-1403h-129q-32 0 -44.5 10t-12.5 35z" />
<glyph unicode="&#x12b;" horiz-adv-x="552" d="M-10 1343q0 38 12 84h498q22 0 30.5 -11.5t8.5 -39.5v-80h-512q-37 0 -37 47zM174 223v864q65 19 123 19q55 0 55 -43v-825q0 -58 17.5 -83.5t54.5 -25.5h45q10 -23 10 -63q0 -30 -36 -55t-93 -25q-176 0 -176 237z" />
<glyph unicode="&#x12c;" horiz-adv-x="600" d="M10 1833q56 31 103 31q25 0 35.5 -9t15.5 -32q12 -65 48 -99t89 -34q130 0 148 174h90q31 0 44.5 -10.5t10.5 -30.5q-17 -108 -91 -181t-202 -73q-114 0 -193.5 68.5t-97.5 195.5zM207 45v1380q68 21 129 21q57 0 57 -43v-1403h-129q-32 0 -44.5 10t-12.5 35z" />
<glyph unicode="&#x12d;" horiz-adv-x="552" d="M-27 1475q54 30 103 30q25 0 35.5 -9t15.5 -32q12 -65 48 -99t89 -34q130 0 148 174h90q31 0 44.5 -10.5t10.5 -30.5q-17 -108 -91 -181t-202 -73q-114 0 -193.5 69t-97.5 196zM174 223v864q65 19 123 19q55 0 55 -43v-825q0 -58 17.5 -83.5t54.5 -25.5h45q10 -23 10 -63 q0 -30 -36 -55t-93 -25q-176 0 -176 237z" />
<glyph unicode="&#x12e;" horiz-adv-x="600" d="M92 -250q0 66 41 136.5t109 115.5q-35 3 -35 43v1380q68 21 129 21q57 0 57 -43v-1403q-73 -51 -111 -111.5t-38 -119.5q0 -41 27.5 -68t82.5 -27q39 0 68 13q49 19 49 -35v-72q-60 -31 -143 -31q-114 0 -175 56t-61 145z" />
<glyph unicode="&#x12f;" horiz-adv-x="552" d="M121 -250q0 65 39.5 134.5t109.5 117.5q-96 45 -96 221v864q65 19 123 19q55 0 55 -43v-825q0 -58 17.5 -83.5t54.5 -25.5h45q10 -23 10 -63q0 -20 -16.5 -39t-44.5 -29q-72 -51 -109 -111t-37 -118q0 -41 28 -68t83 -27q39 0 68 13q49 19 49 -35v-72q-60 -31 -144 -31 q-114 0 -174.5 56t-60.5 145zM152 1401q0 49 29.5 78.5t74.5 29.5q46 0 78.5 -32t32.5 -84q0 -49 -29.5 -78t-75.5 -29q-45 0 -77.5 32t-32.5 83z" />
<glyph unicode="&#x130;" horiz-adv-x="600" d="M197 1722q0 47 28.5 76t73.5 29q43 0 74.5 -31t31.5 -82q0 -47 -28.5 -76t-71.5 -29q-45 0 -76.5 31t-31.5 82zM207 45v1380q68 21 129 21q57 0 57 -43v-1403h-129q-32 0 -44.5 10t-12.5 35z" />
<glyph unicode="&#x131;" horiz-adv-x="552" d="M174 223v864q65 19 123 19q55 0 55 -43v-825q0 -58 17.5 -83.5t54.5 -25.5h45q10 -23 10 -63q0 -30 -36 -55t-93 -25q-176 0 -176 237z" />
<glyph unicode="&#x132;" horiz-adv-x="1392" d="M201 45v1380q68 21 129 21q57 0 57 -43v-1403h-129q-32 0 -44.5 10t-12.5 35zM594 88q0 40 24 86q92 -37 199 -37q234 0 234 250v1040q62 19 129 19q57 0 57 -43v-1020q0 -195 -97.5 -301.5t-281.5 -106.5q-98 0 -181 37.5t-83 75.5z" />
<glyph unicode="&#x133;" horiz-adv-x="1077" d="M152 1401q0 49 29.5 78.5t74.5 29.5q46 0 78.5 -32t32.5 -84q0 -49 -29.5 -78t-75.5 -29q-45 0 -77.5 32t-32.5 83zM174 223v864q65 19 123 19q55 0 55 -43v-825q0 -58 17.5 -83.5t54.5 -25.5h45q10 -23 10 -63q0 -30 -36 -55t-93 -25q-176 0 -176 237zM547 -346 q176 171 176 377v1056q65 19 123 19q55 0 55 -43v-1045q0 -91 -29.5 -174t-80.5 -143q-47 -58 -96 -88.5t-79 -30.5q-20 0 -40.5 23t-28.5 49zM700 1401q0 49 30 78.5t75 29.5q46 0 78 -32t32 -84q0 -49 -29 -78t-75 -29q-45 0 -78 32t-33 83z" />
<glyph unicode="&#x134;" horiz-adv-x="864" d="M33 88q0 40 24 86q92 -37 199 -37q233 0 233 250v1040q62 19 129 19q58 0 58 -43v-1020q0 -195 -97.5 -301.5t-281.5 -106.5q-98 0 -181 37.5t-83 75.5zM276 1632q0 15 12 27l234 225h55q27 0 40.5 -5.5t31.5 -23.5l237 -227l-57 -62q-20 -20 -39 -20q-22 0 -51 29 l-168 168l-197 -197q-98 37 -98 86z" />
<glyph unicode="&#x135;" horiz-adv-x="559" d="M-29 1276q0 14 13 27l233 225h55q27 0 40.5 -5.5t31.5 -23.5l238 -227l-58 -62q-20 -20 -39 -20q-22 0 -51 29l-168 167l-196 -196q-99 38 -99 86zM8 -346q176 171 176 377v1056q65 19 123 19q55 0 55 -43v-1045q0 -91 -29.5 -174t-80.5 -143q-47 -58 -95.5 -88.5 t-78.5 -30.5q-20 0 -41 23t-29 49z" />
<glyph unicode="&#x136;" horiz-adv-x="1351" d="M195 45v1380q68 21 131 21q55 0 55 -43v-678q189 128 374.5 315.5t329.5 405.5q75 -25 105.5 -48t30.5 -55q0 -27 -17 -53q-166 -262 -459 -510q103 -189 215.5 -350.5t200.5 -243.5q54 -51 109 -51h39q10 -33 10 -74q0 -33 -37 -59.5t-94 -26.5q-92 0 -184 95 q-181 187 -398 604q-114 -90 -225 -156v-518h-129q-31 0 -44 10t-13 35zM571 -461q83 77 99 164q-35 9 -57.5 39t-22.5 72q0 48 31.5 77t74.5 29q47 0 80 -31t33 -84q0 -126 -82 -227q-35 -43 -71 -68t-48 -18q-26 10 -37 47z" />
<glyph unicode="&#x137;" horiz-adv-x="1185" d="M174 45v1444q62 18 123 18q55 0 55 -43v-893q158 95 316.5 239t263.5 296q68 -24 94.5 -47t26.5 -53q0 -63 -121 -183.5t-275 -234.5q73 -115 161 -223.5t159 -176.5q62 -59 102 -59h41q10 -30 10 -63q0 -30 -36 -55t-90 -25q-73 0 -150 71q-81 75 -170.5 192t-163.5 247 q-80 -53 -168 -101v-395h-121q-32 0 -44.5 10t-12.5 35zM479 -461q83 77 99 164q-35 9 -57.5 39t-22.5 72q0 48 31.5 77t74.5 29q47 0 80 -31t33 -84q0 -126 -82 -227q-35 -43 -71 -68t-48 -18q-26 10 -37 47z" />
<glyph unicode="&#x138;" horiz-adv-x="1185" d="M174 45v1042q65 19 123 19q55 0 55 -43v-492q158 95 316.5 239t263.5 296q68 -24 94.5 -47t26.5 -53q0 -63 -121 -183.5t-275 -234.5q73 -115 161 -223.5t159 -176.5q62 -59 102 -59h41q10 -30 10 -63q0 -30 -36 -55t-90 -25q-73 0 -150 71q-81 75 -170.5 192t-163.5 247 q-80 -53 -168 -101v-395h-121q-32 0 -44.5 10t-12.5 35z" />
<glyph unicode="&#x139;" horiz-adv-x="1118" d="M165 1628l240 237q23 23 43 23q24 0 45 -18q40 -35 64 -84l-263 -215q-25 -19 -41 -19t-32 16zM190 356v1069q68 21 132 21q55 0 55 -43v-1030q0 -119 34.5 -167t112.5 -48h494q45 0 45 -58v-100h-561q-159 0 -235.5 82.5t-76.5 273.5z" />
<glyph unicode="&#x13a;" horiz-adv-x="641" d="M141 1628l240 238q22 22 43 22q24 0 45 -18q39 -33 63 -84l-262 -215q-25 -19 -41 -19q-15 0 -32 17zM174 291v1159q66 16 123 16q55 0 55 -43v-1138q0 -80 31 -117t94 -37q65 0 119 23q22 -33 22 -72q0 -32 -53 -64t-135 -32q-125 0 -190.5 79t-65.5 226z" />
<glyph unicode="&#x13b;" horiz-adv-x="1118" d="M190 356v1069q68 21 132 21q55 0 55 -43v-1030q0 -119 34.5 -167t112.5 -48h494q45 0 45 -58v-100h-561q-159 0 -235.5 82.5t-76.5 273.5zM551 -461q82 75 98 164q-35 9 -57.5 39t-22.5 72q0 48 32 77t75 29q47 0 79.5 -31t32.5 -84q0 -127 -81 -227q-35 -43 -71 -68 t-48 -18q-26 10 -37 47z" />
<glyph unicode="&#x13c;" horiz-adv-x="641" d="M174 291v1200q66 16 123 16q55 0 55 -43v-1179q0 -80 31 -117t94 -37q65 0 119 23q22 -33 22 -72q0 -32 -53 -64t-135 -32q-125 0 -190.5 79t-65.5 226zM281 -461q82 75 98 164q-35 9 -57.5 39t-22.5 72q0 48 32 77t75 29q47 0 79.5 -31t32.5 -84q0 -126 -82 -227 q-35 -43 -71 -68t-48 -18q-25 9 -36 47z" />
<glyph unicode="&#x13d;" horiz-adv-x="1118" d="M190 356v1069q68 21 132 21q55 0 55 -43v-1030q0 -119 34.5 -167t112.5 -48h494q45 0 45 -58v-100h-561q-159 0 -235.5 82.5t-76.5 273.5zM512 1073q100 97 115 205q-38 11 -63 43t-25 78q0 52 31 83t81 31q49 0 84 -35t35 -98q0 -151 -104 -274q-34 -42 -70.5 -64.5 t-48.5 -17.5q-28 16 -35 49z" />
<glyph unicode="&#x13e;" horiz-adv-x="763" d="M174 291v1200q66 16 123 16q55 0 55 -43v-1179q0 -80 31 -117t94 -37q65 0 119 23q22 -33 22 -72q0 -32 -53 -64t-135 -32q-125 0 -190.5 79t-65.5 226zM485 1073q100 97 115 205q-38 11 -63 43t-25 78q0 52 31.5 83t81.5 31q49 0 83.5 -35t34.5 -98q0 -151 -104 -274 q-34 -42 -70.5 -64.5t-48.5 -17.5q-28 16 -35 49z" />
<glyph unicode="&#x13f;" horiz-adv-x="1118" d="M190 356v1069q68 21 132 21q55 0 55 -43v-1030q0 -119 34.5 -167t112.5 -48h494q45 0 45 -58v-100h-561q-159 0 -235.5 82.5t-76.5 273.5zM695 772q0 47 28.5 76t73.5 29q43 0 74.5 -31t31.5 -82q0 -47 -28.5 -76t-71.5 -29q-45 0 -76.5 31t-31.5 82z" />
<glyph unicode="&#x140;" horiz-adv-x="798" d="M174 291v1200q66 16 123 16q55 0 55 -43v-1179q0 -80 31 -117t94 -37q65 0 119 23q22 -33 22 -72q0 -32 -53 -64t-135 -32q-125 0 -190.5 79t-65.5 226zM565 780q0 47 29 76t74 29q43 0 74.5 -31t31.5 -82q0 -47 -28.5 -75.5t-71.5 -28.5q-45 0 -77 30.5t-32 81.5z" />
<glyph unicode="&#x141;" horiz-adv-x="1118" d="M6 625l184 88v712q68 21 132 21q55 0 55 -43v-602l340 162q16 8 28 8q24 0 39 -37q14 -33 19 -64l-426 -202v-295q0 -123 32 -169t115 -46h494q45 0 45 -58v-100h-535q-92 0 -153 17.5t-104 60.5t-62 117.5t-19 187.5v197l-98 -48q-16 -8 -29 -8q-23 0 -38 37 q-14 33 -19 64z" />
<glyph unicode="&#x142;" horiz-adv-x="641" d="M-12 662l186 88v739q62 18 123 18q55 0 55 -43v-628l152 71q16 8 28 8q24 0 39 -36q14 -33 19 -64l-238 -113v-417q0 -81 30.5 -117.5t92.5 -36.5q67 0 121 23q22 -33 22 -72q0 -32 -54 -64t-136 -32q-132 0 -193 87.5t-61 262.5v280l-100 -47q-16 -8 -29 -8 q-24 0 -39 37q-12 29 -18 64z" />
<glyph unicode="&#x143;" horiz-adv-x="1470" d="M197 45v1344q32 25 71.5 41t65.5 16q33 0 55 -31l698 -1104v1123h130q30 0 43.5 -10.5t13.5 -34.5v-1344q-32 -25 -71.5 -41t-65.5 -16q-35 0 -56 30l-698 1104v-1122h-129q-30 0 -43.5 10.5t-13.5 34.5zM569 1628l240 237q23 23 43 23q24 0 45 -18q40 -35 64 -84 l-263 -215q-25 -19 -41 -19t-32 16z" />
<glyph unicode="&#x144;" horiz-adv-x="1312" d="M174 45v1042q65 19 123 19q55 0 55 -43v-88q71 65 170.5 104t202.5 39q188 0 288.5 -124.5t100.5 -348.5v-407q0 -58 17.5 -83.5t54.5 -25.5h45q10 -22 10 -63q0 -30 -36 -55t-93 -25q-176 0 -176 237v434q0 308 -258 308q-85 0 -173 -34.5t-153 -96.5v-834h-121 q-32 0 -44.5 10t-12.5 35zM479 1272l240 237q23 23 43 23q24 0 45 -18q40 -35 64 -84l-263 -215q-25 -19 -41 -19t-32 16z" />
<glyph unicode="&#x145;" horiz-adv-x="1470" d="M197 45v1344q32 25 71.5 41t65.5 16q33 0 55 -31l698 -1104v1123h130q30 0 43.5 -10.5t13.5 -34.5v-1344q-32 -25 -71.5 -41t-65.5 -16q-35 0 -56 30l-698 1104v-1122h-129q-30 0 -43.5 10.5t-13.5 34.5zM618 -461q83 77 99 164q-35 9 -57.5 39t-22.5 72q0 48 31.5 77 t74.5 29q47 0 80 -31t33 -84q0 -126 -82 -227q-35 -43 -71 -68t-48 -18q-26 10 -37 47z" />
<glyph unicode="&#x146;" horiz-adv-x="1312" d="M174 45v1042q65 19 123 19q55 0 55 -43v-88q71 65 170.5 104t202.5 39q188 0 288.5 -124.5t100.5 -348.5v-407q0 -58 17.5 -83.5t54.5 -25.5h45q10 -22 10 -63q0 -30 -36 -55t-93 -25q-176 0 -176 237v434q0 308 -258 308q-85 0 -173 -34.5t-153 -96.5v-834h-121 q-32 0 -44.5 10t-12.5 35zM545 -461q82 75 98 164q-35 9 -57.5 39t-22.5 72q0 48 32 77t75 29q47 0 79.5 -31t32.5 -84q0 -126 -82 -227q-35 -43 -71 -68t-47 -18q-26 10 -37 47z" />
<glyph unicode="&#x147;" horiz-adv-x="1470" d="M197 45v1344q32 25 71.5 41t65.5 16q33 0 55 -31l698 -1104v1123h130q30 0 43.5 -10.5t13.5 -34.5v-1344q-32 -25 -71.5 -41t-65.5 -16q-35 0 -56 30l-698 1104v-1122h-129q-30 0 -43.5 10.5t-13.5 34.5zM426 1800q56 84 94 84q25 0 51 -26l170 -170l205 204l74 -67 q14 -11 14 -27q0 -17 -18 -35l-223 -215q-18 -2 -58 -2q-37 0 -69 25z" />
<glyph unicode="&#x148;" horiz-adv-x="1312" d="M174 45v1042q65 19 123 19q55 0 55 -43v-88q71 65 170.5 104t202.5 39q188 0 288.5 -124.5t100.5 -348.5v-407q0 -58 17.5 -83.5t54.5 -25.5h45q10 -22 10 -63q0 -30 -36 -55t-93 -25q-176 0 -176 237v434q0 308 -258 308q-85 0 -173 -34.5t-153 -96.5v-834h-121 q-32 0 -44.5 10t-12.5 35zM336 1444q56 84 94 84q24 0 51 -27l170 -170l205 205l74 -68q14 -11 14 -26q0 -17 -18 -35l-224 -215q-18 -2 -57 -2t-70 24z" />
<glyph unicode="&#x149;" horiz-adv-x="1390" d="M4 1073q100 97 115 205q-38 11 -63 43t-25 78q0 52 31 83t81 31q49 0 84 -35t35 -98q0 -151 -104 -274q-34 -42 -70.5 -64.5t-48.5 -17.5q-28 16 -35 49zM252 45v1042q65 19 123 19q55 0 55 -43v-88q71 65 170.5 104t202.5 39q188 0 288.5 -124.5t100.5 -348.5v-407 q0 -58 17.5 -83.5t54.5 -25.5h45q10 -22 10 -63q0 -30 -36 -55t-93 -25q-176 0 -176 237v434q0 308 -258 308q-85 0 -173 -34.5t-153 -96.5v-834h-121q-32 0 -44.5 10t-12.5 35z" />
<glyph unicode="&#x14a;" horiz-adv-x="1470" d="M197 45v1344q32 25 71.5 41t65.5 16q33 0 55 -31l698 -1100v1119h130q30 0 43.5 -10.5t13.5 -34.5v-1432q0 -90 -29.5 -173t-79.5 -144q-57 -68 -113 -97.5t-79 -17.5q-17 8 -32 27t-21 42q167 162 167 375v39l-704 1110v-1118h-129q-30 0 -43.5 10.5t-13.5 34.5z" />
<glyph unicode="&#x14b;" horiz-adv-x="1292" d="M174 45v1042q65 19 123 19q55 0 55 -43v-88q71 65 170.5 104t202.5 39q188 0 288.5 -124.5t100.5 -348.5v-686q0 -91 -29.5 -174t-80.5 -143q-47 -58 -96 -88.5t-79 -30.5q-20 0 -40.5 22.5t-28.5 48.5q176 171 176 377v686q0 308 -258 308q-85 0 -173 -34.5t-153 -96.5 v-834h-121q-32 0 -44.5 10t-12.5 35z" />
<glyph unicode="&#x14c;" horiz-adv-x="1583" d="M121 717q0 178 53.5 321t146 233.5t213 138.5t257.5 48q110 0 210 -29.5t184 -90.5t146 -148t96.5 -208.5t34.5 -264.5q0 -178 -53.5 -321t-145.5 -234t-213 -139t-259 -48q-109 0 -208.5 30t-184 91t-146 148t-96.5 208.5t-35 264.5zM311 735q0 -141 39 -256t107 -189 t157 -113.5t191 -39.5q92 0 174 34t148.5 100.5t105.5 176.5t39 250q0 141 -39 256t-107 189t-157 113.5t-191 39.5q-92 0 -174.5 -34t-148.5 -100.5t-105 -176.5t-39 -250zM514 1702q0 38 12 84h498q21 0 29.5 -12t8.5 -40v-80h-512q-36 0 -36 48z" />
<glyph unicode="&#x14d;" horiz-adv-x="1286" d="M109 547q0 132 42.5 241.5t116 180.5t170 110t205.5 39t205.5 -39t170 -110t116.5 -180.5t43 -241.5t-43 -241.5t-116.5 -181t-170 -110.5t-205.5 -39t-205.5 39t-170 110.5t-116 181t-42.5 241.5zM291 559q0 -202 106 -316t256 -114q145 0 243.5 104t98.5 302 q0 202 -106 316t-256 114q-145 0 -243.5 -104t-98.5 -302zM367 1344q0 38 12 84h498q21 0 29.5 -12t8.5 -40v-80h-512q-36 0 -36 48z" />
<glyph unicode="&#x14e;" horiz-adv-x="1583" d="M121 717q0 178 53.5 321t146 233.5t213 138.5t257.5 48q110 0 210 -29.5t184 -90.5t146 -148t96.5 -208.5t34.5 -264.5q0 -178 -53.5 -321t-145.5 -234t-213 -139t-259 -48q-109 0 -208.5 30t-184 91t-146 148t-96.5 208.5t-35 264.5zM311 735q0 -141 39 -256t107 -189 t157 -113.5t191 -39.5q92 0 174 34t148.5 100.5t105.5 176.5t39 250q0 141 -39 256t-107 189t-157 113.5t-191 39.5q-92 0 -174.5 -34t-148.5 -100.5t-105 -176.5t-39 -250zM498 1833q56 31 102 31q25 0 35.5 -9t15.5 -32q12 -65 48 -99t89 -34q130 0 148 174h90 q31 0 44.5 -10.5t10.5 -30.5q-17 -108 -91 -181t-202 -73q-114 0 -193 68.5t-97 195.5z" />
<glyph unicode="&#x14f;" horiz-adv-x="1286" d="M109 547q0 132 42.5 241.5t116 180.5t170 110t205.5 39t205.5 -39t170 -110t116.5 -180.5t43 -241.5t-43 -241.5t-116.5 -181t-170 -110.5t-205.5 -39t-205.5 39t-170 110.5t-116 181t-42.5 241.5zM291 559q0 -202 106 -316t256 -114q145 0 243.5 104t98.5 302 q0 202 -106 316t-256 114q-145 0 -243.5 -104t-98.5 -302zM350 1475q54 30 103 30q25 0 35.5 -9t15.5 -32q12 -65 48 -99t89 -34q129 0 147 174h91q31 0 44.5 -10.5t10.5 -30.5q-17 -108 -91 -181t-202 -73q-114 0 -193.5 69t-97.5 196z" />
<glyph unicode="&#x150;" horiz-adv-x="1583" d="M121 717q0 178 53.5 321t146 233.5t213 138.5t257.5 48q110 0 210 -29.5t184 -90.5t146 -148t96.5 -208.5t34.5 -264.5q0 -178 -53.5 -321t-145.5 -234t-213 -139t-259 -48q-109 0 -208.5 30t-184 91t-146 148t-96.5 208.5t-35 264.5zM311 735q0 -141 39 -256t107 -189 t157 -113.5t191 -39.5q92 0 174 34t148.5 100.5t105.5 176.5t39 250q0 141 -39 256t-107 189t-157 113.5t-191 39.5q-92 0 -174.5 -34t-148.5 -100.5t-105 -176.5t-39 -250zM449 1628l239 238q22 22 43 22q24 0 45 -18q40 -35 64 -84l-262 -215q-25 -19 -41 -19t-33 17z M780 1628l240 238q22 22 43 22q24 0 45 -18q39 -33 63 -84l-262 -215q-25 -19 -41 -19q-15 0 -32 17z" />
<glyph unicode="&#x151;" horiz-adv-x="1286" d="M109 547q0 132 42.5 241.5t116 180.5t170 110t205.5 39t205.5 -39t170 -110t116.5 -180.5t43 -241.5t-43 -241.5t-116.5 -181t-170 -110.5t-205.5 -39t-205.5 39t-170 110.5t-116 181t-42.5 241.5zM291 559q0 -202 106 -316t256 -114q145 0 243.5 104t98.5 302 q0 202 -106 316t-256 114q-145 0 -243.5 -104t-98.5 -302zM301 1272l240 237q23 23 43 23q23 0 45 -19q39 -34 63 -83l-262 -216q-24 -18 -41 -18t-33 16zM633 1272l239 237q23 23 43 23q24 0 46 -19q39 -34 63 -83l-262 -216q-24 -18 -41 -18t-33 16z" />
<glyph unicode="&#x152;" horiz-adv-x="2011" d="M119 717q0 175 53.5 318t143 234t204.5 140t242 49q160 0 262 -74v50h813q41 0 41 -54q0 -56 -12 -106h-656v-483h512q25 0 35 -13.5t10 -44.5v-102h-557v-258q0 -119 34 -167t112 -48h493q25 0 35 -13.5t10 -44.5v-100h-561q-151 0 -225 74q-137 -99 -332 -99 q-133 0 -250.5 47.5t-209 138t-144.5 234t-53 322.5zM309 733q0 -141 39.5 -256t107.5 -189t157.5 -113.5t191.5 -39.5q139 0 237 62q-18 67 -18 159v875q-108 65 -248 65q-73 0 -140 -21t-127 -65.5t-104 -109.5t-70 -159.5t-26 -207.5z" />
<glyph unicode="&#x153;" horiz-adv-x="2066" d="M109 547q0 132 42.5 241.5t116 180.5t170 110t205.5 39q140 0 260.5 -70t183.5 -196q62 125 183 195.5t262 70.5q192 0 313 -114t121 -287q0 -244 -172 -244h-616q18 -164 125 -255t264 -91q150 0 270 63q27 -31 27 -77t-94.5 -92t-231.5 -46q-150 0 -269.5 69.5 t-181.5 197.5q-63 -130 -182 -198.5t-262 -68.5q-109 0 -205.5 38.5t-170 110t-116 181t-42.5 242.5zM291 559q0 -202 106 -316t256 -114q145 0 243.5 104t98.5 302q0 202 -106 316t-256 114q-145 0 -243.5 -104t-98.5 -302zM1180 623h594q18 41 18 86q0 116 -72.5 186 t-197.5 70q-137 0 -232 -93t-110 -249z" />
<glyph unicode="&#x154;" horiz-adv-x="1337" d="M195 45v1389h419q258 0 410 -132t152 -364q0 -180 -91.5 -299.5t-248.5 -167.5q131 -210 249 -301q54 -43 107 -43h37q10 -33 10 -66t-36.5 -59.5t-94.5 -26.5q-80 0 -156 64q-151 125 -301 403q-161 0 -270 35v-477h-129q-31 0 -44 10t-13 35zM381 627q106 -25 221 -25 q175 0 278 87t103 249t-102.5 249t-278.5 87h-221v-647zM434 1628l240 237q23 23 43 23q24 0 45 -18q40 -35 64 -84l-263 -215q-25 -19 -41 -19t-32 16z" />
<glyph unicode="&#x155;" horiz-adv-x="929" d="M174 45v1042q65 19 123 19q55 0 55 -43v-131q51 87 133 136.5t187 49.5q118 0 186 -43q29 -18 39 -30.5t10 -32.5q0 -24 -18 -45q-26 -36 -72 -62q-78 60 -194 60q-98 0 -168 -61.5t-103 -182.5v-721h-121q-32 0 -44.5 10t-12.5 35zM335 1272l240 237q23 23 43 23 q24 0 45 -18q40 -35 64 -84l-263 -215q-25 -19 -41 -19t-32 16z" />
<glyph unicode="&#x156;" horiz-adv-x="1337" d="M195 45v1389h419q258 0 410 -132t152 -364q0 -180 -91.5 -299.5t-248.5 -167.5q131 -210 249 -301q54 -43 107 -43h37q10 -33 10 -66t-36.5 -59.5t-94.5 -26.5q-80 0 -156 64q-151 125 -301 403q-161 0 -270 35v-477h-129q-31 0 -44 10t-13 35zM381 627q106 -25 221 -25 q175 0 278 87t103 249t-102.5 249t-278.5 87h-221v-647zM541 -461q82 75 98 164q-35 9 -57.5 39t-22.5 72q0 48 32 77t75 29q47 0 79.5 -31t32.5 -84q0 -126 -82 -227q-35 -43 -71 -68t-47 -18q-26 10 -37 47z" />
<glyph unicode="&#x157;" horiz-adv-x="929" d="M139 -461q83 77 99 164q-35 9 -57.5 39t-22.5 72q0 48 31.5 77t74.5 29q47 0 80 -31t33 -84q0 -126 -82 -227q-35 -43 -71 -68t-48 -18q-26 10 -37 47zM174 45v1042q65 19 123 19q55 0 55 -43v-131q51 87 133 136.5t187 49.5q118 0 186 -43q29 -18 39 -30.5t10 -32.5 q0 -24 -18 -45q-26 -36 -72 -62q-78 60 -194 60q-98 0 -168 -61.5t-103 -182.5v-721h-121q-32 0 -44.5 10t-12.5 35z" />
<glyph unicode="&#x158;" horiz-adv-x="1337" d="M195 45v1389h419q258 0 410 -132t152 -364q0 -180 -91.5 -299.5t-248.5 -167.5q131 -210 249 -301q54 -43 107 -43h37q10 -33 10 -66t-36.5 -59.5t-94.5 -26.5q-80 0 -156 64q-151 125 -301 403q-161 0 -270 35v-477h-129q-31 0 -44 10t-13 35zM317 1800q56 84 95 84 q25 0 51 -26l170 -170l205 204l73 -67q15 -12 15 -27q0 -16 -19 -35l-223 -215q-18 -2 -57 -2q-38 0 -70 25zM381 627q106 -25 221 -25q175 0 278 87t103 249t-102.5 249t-278.5 87h-221v-647z" />
<glyph unicode="&#x159;" horiz-adv-x="929" d="M174 45v1042q65 19 123 19q55 0 55 -43v-131q51 87 133 136.5t187 49.5q118 0 186 -43q29 -18 39 -30.5t10 -32.5q0 -24 -18 -45q-26 -36 -72 -62q-78 60 -194 60q-98 0 -168 -61.5t-103 -182.5v-721h-121q-32 0 -44.5 10t-12.5 35zM203 1444q56 84 94 84q24 0 51 -27 l170 -170l205 205l74 -68q14 -11 14 -26q0 -17 -18 -35l-224 -215q-18 -2 -57 -2t-70 24z" />
<glyph unicode="&#x15a;" horiz-adv-x="1216" d="M129 1065q0 173 130.5 283t336.5 110q159 0 283.5 -66.5t187.5 -177.5q14 -24 14 -49t-39 -47q-59 -32 -124 -35q-42 102 -124 157.5t-198 55.5q-122 0 -199.5 -62.5t-77.5 -164.5q0 -96 79 -161t270 -126q226 -73 327 -173.5t101 -248.5q0 -173 -134 -279t-360 -106 q-86 0 -165.5 15.5t-133 39t-85.5 51t-32 52.5q0 48 25 84q167 -82 369 -82q160 0 243.5 59.5t83.5 157.5q0 97 -74 161t-239 108q-229 62 -347 170t-118 274zM411 1628l240 237q23 23 43 23q24 0 45 -18q40 -35 64 -84l-263 -215q-25 -19 -41 -19t-32 16z" />
<glyph unicode="&#x15b;" horiz-adv-x="1021" d="M129 805q0 139 106.5 226t278.5 87q127 0 227.5 -49.5t147.5 -134.5q12 -24 12 -37q0 -26 -29 -49q-46 -34 -122 -43q-27 76 -91.5 118t-148.5 42q-91 0 -147 -45t-56 -115q0 -75 61 -120t203 -81q178 -44 259 -121t81 -200q0 -142 -103.5 -225t-293.5 -83 q-95 0 -179.5 24.5t-129.5 57t-45 60.5q0 50 26 80q143 -70 306 -70q241 0 241 147q0 67 -49.5 108t-173.5 69q-198 45 -289.5 132t-91.5 222zM315 1272l240 237q23 23 43 23q24 0 45 -18q40 -35 64 -84l-263 -215q-25 -19 -41 -19t-32 16z" />
<glyph unicode="&#x15c;" horiz-adv-x="1216" d="M129 1065q0 173 130.5 283t336.5 110q159 0 283.5 -66.5t187.5 -177.5q14 -24 14 -49t-39 -47q-59 -32 -124 -35q-42 102 -124 157.5t-198 55.5q-122 0 -199.5 -62.5t-77.5 -164.5q0 -96 79 -161t270 -126q226 -73 327 -173.5t101 -248.5q0 -173 -134 -279t-360 -106 q-86 0 -165.5 15.5t-133 39t-85.5 51t-32 52.5q0 48 25 84q167 -82 369 -82q160 0 243.5 59.5t83.5 157.5q0 97 -74 161t-239 108q-229 62 -347 170t-118 274zM291 1632q0 15 12 27l234 225h55q27 0 40.5 -5.5t31.5 -23.5l237 -227l-57 -62q-20 -20 -39 -20q-22 0 -51 29 l-168 168l-197 -197q-98 37 -98 86z" />
<glyph unicode="&#x15d;" horiz-adv-x="1021" d="M129 805q0 139 106.5 226t278.5 87q127 0 227.5 -49.5t147.5 -134.5q12 -24 12 -37q0 -26 -29 -49q-46 -34 -122 -43q-27 76 -91.5 118t-148.5 42q-91 0 -147 -45t-56 -115q0 -75 61 -120t203 -81q178 -44 259 -121t81 -200q0 -142 -103.5 -225t-293.5 -83 q-95 0 -179.5 24.5t-129.5 57t-45 60.5q0 50 26 80q143 -70 306 -70q241 0 241 147q0 67 -49.5 108t-173.5 69q-198 45 -289.5 132t-91.5 222zM205 1276q0 15 12 27l234 225h55q27 0 40.5 -5.5t31.5 -23.5l237 -227l-57 -62q-20 -20 -39 -20q-22 0 -51 29l-168 168 l-197 -197q-98 37 -98 86z" />
<glyph unicode="&#x15e;" horiz-adv-x="1216" d="M129 1065q0 173 130.5 283t336.5 110q159 0 283.5 -66.5t187.5 -177.5q14 -24 14 -49t-39 -47q-59 -32 -124 -35q-42 102 -124 157.5t-198 55.5q-122 0 -199.5 -62.5t-77.5 -164.5q0 -96 79 -161t270 -126q226 -73 327 -173.5t101 -248.5q0 -139 -89.5 -236.5 t-248.5 -131.5l-62 -113q86 -14 134.5 -60t48.5 -116q0 -88 -66 -139t-176 -51q-84 0 -143 20v72q0 37 30 37q10 0 42.5 -6.5t51.5 -6.5q50 0 79.5 20t29.5 58q0 97 -178 109q-25 12 -25 24q0 5 4 13l64 122q-165 1 -285.5 53t-120.5 105q0 48 25 84q167 -82 369 -82 q160 0 243.5 59.5t83.5 157.5q0 97 -74 161t-239 108q-229 62 -347 170t-118 274z" />
<glyph unicode="&#x15f;" horiz-adv-x="1021" d="M129 805q0 139 106.5 226t278.5 87q127 0 227.5 -49.5t147.5 -134.5q12 -24 12 -37q0 -26 -29 -49q-46 -34 -122 -43q-27 76 -91.5 118t-148.5 42q-91 0 -147 -45t-56 -115q0 -75 61 -120t203 -81q178 -44 259 -121t81 -200q0 -117 -70.5 -194.5t-203.5 -100.5l-59 -109 q85 -14 133.5 -60t48.5 -116q0 -88 -66 -139t-176 -51q-84 0 -143 20v72q0 37 31 37q10 0 42.5 -6.5t51.5 -6.5q50 0 79 20t29 58q0 97 -178 109q-24 12 -24 24q0 5 4 13l65 124q-128 7 -221.5 52.5t-93.5 87.5q0 50 26 80q143 -70 306 -70q241 0 241 147q0 67 -49.5 108 t-173.5 69q-198 45 -289.5 132t-91.5 222z" />
<glyph unicode="&#x160;" horiz-adv-x="1216" d="M129 1065q0 173 130.5 283t336.5 110q159 0 283.5 -66.5t187.5 -177.5q14 -24 14 -49t-39 -47q-59 -32 -124 -35q-42 102 -124 157.5t-198 55.5q-122 0 -199.5 -62.5t-77.5 -164.5q0 -96 79 -161t270 -126q226 -73 327 -173.5t101 -248.5q0 -173 -134 -279t-360 -106 q-86 0 -165.5 15.5t-133 39t-85.5 51t-32 52.5q0 48 25 84q167 -82 369 -82q160 0 243.5 59.5t83.5 157.5q0 97 -74 161t-239 108q-229 62 -347 170t-118 274zM283 1800q56 84 94 84q25 0 51 -26l170 -170l205 204l74 -67q14 -11 14 -27t-19 -35l-223 -215q-18 -2 -57 -2 q-38 0 -70 25z" />
<glyph unicode="&#x161;" horiz-adv-x="1021" d="M129 805q0 139 106.5 226t278.5 87q127 0 227.5 -49.5t147.5 -134.5q12 -24 12 -37q0 -26 -29 -49q-46 -34 -122 -43q-27 76 -91.5 118t-148.5 42q-91 0 -147 -45t-56 -115q0 -75 61 -120t203 -81q178 -44 259 -121t81 -200q0 -142 -103.5 -225t-293.5 -83 q-95 0 -179.5 24.5t-129.5 57t-45 60.5q0 50 26 80q143 -70 306 -70q241 0 241 147q0 67 -49.5 108t-173.5 69q-198 45 -289.5 132t-91.5 222zM197 1444q56 84 94 84q24 0 51 -27l170 -170l205 205l74 -68q14 -11 14 -26q0 -16 -19 -35l-223 -215q-18 -2 -57 -2t-70 24z" />
<glyph unicode="&#x162;" horiz-adv-x="1251" d="M86 1327q0 49 14 107h1016q25 0 36 -14t11 -46v-100h-446v-1274l-68 -121q85 -14 133.5 -60t48.5 -116q0 -88 -65.5 -139t-175.5 -51q-85 0 -144 20v72q0 37 31 37q10 0 42.5 -6.5t51.5 -6.5q50 0 79.5 20t29.5 58q0 97 -178 109q-25 12 -25 24q0 5 4 13l80 151 q-31 4 -31 41v1229h-401q-43 0 -43 53z" />
<glyph unicode="&#x163;" horiz-adv-x="927" d="M66 995q0 55 12 99h184v309q66 16 123 16q55 0 55 -43v-282h348q46 0 46 -58v-94h-394v-604q0 -107 54.5 -158t146.5 -51q102 0 172 33q27 -31 27 -78q0 -36 -59 -69.5t-152 -39.5l-54 -96q86 -14 134.5 -60t48.5 -116q0 -88 -66 -139t-176 -51q-84 0 -143 20v72 q0 37 30 37q10 0 43 -6.5t52 -6.5q50 0 79 20t29 58q0 97 -178 109q-25 12 -25 24q0 3 5 13l73 141q-102 33 -160.5 125t-58.5 231v592h-153q-43 0 -43 53z" />
<glyph unicode="&#x164;" horiz-adv-x="1251" d="M86 1327q0 49 14 107h1016q25 0 36 -14t11 -46v-100h-446v-1274h-129q-31 0 -44.5 10t-13.5 35v1229h-401q-43 0 -43 53zM310 1800q56 84 94 84q24 0 51 -27l170 -170l205 205l74 -68q14 -11 14 -26q0 -16 -19 -35l-223 -215q-18 -2 -57 -2q-38 0 -70 25z" />
<glyph unicode="&#x165;" d="M66 995q0 55 12 99h184v309q66 16 123 16q55 0 55 -43v-282h348q46 0 46 -58v-94h-394v-604q0 -107 54.5 -158t146.5 -51q102 0 172 33q27 -31 27 -78q0 -39 -68.5 -74t-171.5 -35q-155 0 -246.5 96.5t-91.5 278.5v592h-153q-43 0 -43 53zM899 1073q100 97 115 205 q-38 11 -63 43t-25 78q0 52 31 83t81 31q49 0 84 -35t35 -98q0 -151 -104 -274q-34 -42 -70.5 -64.5t-48.5 -17.5q-28 16 -35 49z" />
<glyph unicode="&#x166;" horiz-adv-x="1251" d="M86 1327q0 49 14 107h1016q25 0 36 -14t11 -46v-100h-446v-498h211q24 0 34.5 -13.5t10.5 -43.5v-62h-256v-657h-129q-31 0 -44.5 10t-13.5 35v612h-213q-41 0 -41 39q0 46 9 80h245v498h-401q-43 0 -43 53z" />
<glyph unicode="&#x167;" horiz-adv-x="927" d="M66 995q0 55 12 99h184v309q66 16 123 16q55 0 55 -43v-282h348q46 0 46 -58v-94h-394v-330h260q25 0 35 -13t10 -44v-61h-305v-156q0 -107 54.5 -158t146.5 -51q102 0 172 33q27 -31 27 -78q0 -39 -68.5 -74t-171.5 -35q-155 0 -246.5 96.5t-91.5 278.5v144h-100 q-41 0 -41 38q0 49 8 80h133v330h-153q-43 0 -43 53z" />
<glyph unicode="&#x168;" horiz-adv-x="1472" d="M184 602v823q68 21 131 21q56 0 56 -43v-815q0 -205 98 -329t266 -124q167 0 266 124t99 329v846h129q30 0 43.5 -11.5t13.5 -36.5v-784q0 -289 -147 -458t-404 -169t-404 169t-147 458zM440 1661q0 28 10 55q42 121 158 121q72 0 139 -56q55 -45 86 -45q28 0 43.5 22.5 t24.5 82.5l92 -25q25 -6 33 -19.5t2 -39.5q-15 -74 -59 -116t-111 -42q-71 0 -137 55q-56 46 -86 46q-27 0 -42.5 -21t-25.5 -78q-55 0 -94 17q-33 14 -33 43z" />
<glyph unicode="&#x169;" horiz-adv-x="1257" d="M156 461v626q65 19 123 19q55 0 55 -43v-614q0 -147 84.5 -234.5t210.5 -87.5t209.5 87.5t83.5 234.5v645h120q31 0 44.5 -11t13.5 -36v-586q0 -225 -129.5 -355.5t-341.5 -130.5q-213 0 -343 130.5t-130 355.5zM334 1303q0 28 10 55q42 121 158 121q72 0 139 -56 q55 -45 86 -45q28 0 43.5 22.5t24.5 82.5l92 -25q25 -6 33 -19.5t2 -39.5q-15 -74 -59 -116t-111 -42q-72 0 -138 55q-55 45 -86 45q-27 0 -42 -20.5t-25 -77.5q-55 0 -94 17q-33 14 -33 43z" />
<glyph unicode="&#x16a;" horiz-adv-x="1472" d="M184 602v823q68 21 131 21q56 0 56 -43v-815q0 -205 98 -329t266 -124q167 0 266 124t99 329v846h129q30 0 43.5 -11.5t13.5 -36.5v-784q0 -289 -147 -458t-404 -169t-404 169t-147 458zM459 1702q0 38 12 84h498q21 0 29.5 -12t8.5 -40v-80h-512q-36 0 -36 48z" />
<glyph unicode="&#x16b;" horiz-adv-x="1257" d="M156 461v626q65 19 123 19q55 0 55 -43v-614q0 -147 84.5 -234.5t210.5 -87.5t209.5 87.5t83.5 234.5v645h120q31 0 44.5 -11t13.5 -36v-586q0 -225 -129.5 -355.5t-341.5 -130.5q-213 0 -343 130.5t-130 355.5zM353 1344q0 38 12 84h498q21 0 29.5 -12t8.5 -40v-80h-512 q-36 0 -36 48z" />
<glyph unicode="&#x16c;" horiz-adv-x="1472" d="M184 602v823q68 21 131 21q56 0 56 -43v-815q0 -205 98 -329t266 -124q167 0 266 124t99 329v846h129q30 0 43.5 -11.5t13.5 -36.5v-784q0 -289 -147 -458t-404 -169t-404 169t-147 458zM442 1833q56 31 103 31q25 0 35.5 -9t15.5 -32q12 -65 48 -99t89 -34 q130 0 148 174h90q31 0 44.5 -10.5t10.5 -30.5q-17 -108 -91 -181t-202 -73q-114 0 -193.5 68.5t-97.5 195.5z" />
<glyph unicode="&#x16d;" horiz-adv-x="1257" d="M156 461v626q65 19 123 19q55 0 55 -43v-614q0 -147 84.5 -234.5t210.5 -87.5t209.5 87.5t83.5 234.5v645h120q31 0 44.5 -11t13.5 -36v-586q0 -225 -129.5 -355.5t-341.5 -130.5q-213 0 -343 130.5t-130 355.5zM336 1475q54 30 102 30q25 0 35.5 -9t15.5 -32 q12 -65 48.5 -99t89.5 -34q129 0 147 174h90q62 0 56 -41q-17 -108 -91 -181t-202 -73q-114 0 -193.5 69t-97.5 196z" />
<glyph unicode="&#x16e;" horiz-adv-x="1472" d="M184 602v823q68 21 131 21q56 0 56 -43v-815q0 -205 98 -329t266 -124q167 0 266 124t99 329v846h129q30 0 43.5 -11.5t13.5 -36.5v-784q0 -289 -147 -458t-404 -169t-404 169t-147 458zM543 1718q0 77 54.5 130t135.5 53q82 0 136.5 -53t54.5 -130t-54 -129.5 t-137 -52.5q-81 0 -135.5 52.5t-54.5 129.5zM645 1722q0 -42 27 -68t67 -26q36 0 59 24t23 62q0 42 -26 68t-66 26q-36 0 -60 -24t-24 -62z" />
<glyph unicode="&#x16f;" horiz-adv-x="1257" d="M156 461v626q65 19 123 19q55 0 55 -43v-614q0 -147 84.5 -234.5t210.5 -87.5t209.5 87.5t83.5 234.5v645h120q31 0 44.5 -11t13.5 -36v-586q0 -225 -129.5 -355.5t-341.5 -130.5q-213 0 -343 130.5t-130 355.5zM437 1362q0 77 54.5 129.5t135.5 52.5q82 0 136 -52.5 t54 -129.5t-54 -129.5t-136 -52.5q-81 0 -135.5 52.5t-54.5 129.5zM539 1366q0 -42 27 -68t67 -26q36 0 59 24t23 62q0 42 -26 68t-66 26q-36 0 -60 -24t-24 -62z" />
<glyph unicode="&#x170;" horiz-adv-x="1472" d="M184 602v823q68 21 131 21q56 0 56 -43v-815q0 -205 98 -329t266 -124q167 0 266 124t99 329v846h129q30 0 43.5 -11.5t13.5 -36.5v-784q0 -289 -147 -458t-404 -169t-404 169t-147 458zM432 1628l240 238q22 22 43 22q24 0 45 -18q39 -33 63 -84l-262 -215 q-25 -19 -41 -19t-33 17zM764 1628l240 238q22 22 43 22q24 0 45 -18q39 -33 63 -84l-262 -215q-25 -19 -41 -19t-33 17z" />
<glyph unicode="&#x171;" horiz-adv-x="1257" d="M156 461v626q65 19 123 19q55 0 55 -43v-614q0 -147 84.5 -234.5t210.5 -87.5t209.5 87.5t83.5 234.5v645h120q31 0 44.5 -11t13.5 -36v-586q0 -225 -129.5 -355.5t-341.5 -130.5q-213 0 -343 130.5t-130 355.5zM299 1272l240 237q23 23 43 23q23 0 45 -19q39 -34 63 -83 l-262 -216q-24 -18 -41 -18t-33 16zM631 1272l239 237q23 23 43 23q23 0 45 -19q41 -36 64 -83l-262 -216q-24 -18 -41 -18t-33 16z" />
<glyph unicode="&#x172;" horiz-adv-x="1472" d="M184 602v823q68 21 131 21q56 0 56 -43v-815q0 -205 98 -329t266 -124q167 0 266 124t99 329v846h129q30 0 43.5 -11.5t13.5 -36.5v-784q0 -241 -103.5 -401t-291.5 -207q-69 -50 -105 -109t-36 -116q0 -41 27.5 -68t82.5 -27q39 0 68 13q49 19 49 -35v-72 q-60 -31 -143 -31q-114 0 -175 56t-61 145q0 58 30.5 119t84.5 106q-248 7 -388.5 175.5t-140.5 451.5z" />
<glyph unicode="&#x173;" horiz-adv-x="1257" d="M156 461v626q65 19 123 19q55 0 55 -43v-614q0 -147 84.5 -234.5t210.5 -87.5t209.5 87.5t83.5 234.5v645h120q31 0 44.5 -11t13.5 -36v-586q0 -178 -84.5 -298.5t-229.5 -164.5q-145 -104 -145 -229q0 -41 28 -68t83 -27q38 0 67 13q49 19 49 -35v-72q-60 -31 -143 -31 q-114 0 -175 56t-61 145q0 58 30.5 119t84.5 106q-203 8 -325.5 137.5t-122.5 348.5z" />
<glyph unicode="&#x174;" horiz-adv-x="2279" d="M98 1391q80 53 144 53q23 0 35.5 -8t19.5 -29l348 -1188q232 510 369 1215h170q68 0 82 -50l336 -1165q246 527 374 1215h135q34 0 47.5 -13t8.5 -39q-133 -677 -436 -1335q-12 -26 -31 -36.5t-53 -10.5h-162l-342 1200q-135 -622 -381 -1153q-20 -47 -84 -47h-154z M846 1632q0 15 12 27l234 225h55q27 0 40.5 -5.5t31.5 -23.5l237 -227l-57 -62q-20 -20 -39 -20q-22 0 -51 29l-168 168l-197 -197q-98 37 -98 86z" />
<glyph unicode="&#x175;" horiz-adv-x="1789" d="M92 1051q81 57 141 57q33 0 43 -35l256 -893q169 386 254 914h154q58 0 72 -52l252 -862q170 390 249 914h123q61 0 52 -52q-88 -524 -306 -1001q-17 -41 -67 -41h-168l-246 879q-76 -430 -254 -842q-15 -37 -65 -37h-164zM606 1276q0 15 12 27l234 225h55 q27 0 40.5 -5.5t31.5 -23.5l237 -227l-57 -62q-20 -20 -39 -20q-22 0 -51 29l-168 168l-197 -197q-98 37 -98 86z" />
<glyph unicode="&#x176;" horiz-adv-x="1355" d="M78 1362q79 82 139 82q31 0 49 -33l410 -749q280 380 416 772h133q32 0 45 -16t4 -40q-177 -473 -510 -889v-489h-129q-32 0 -44.5 10t-12.5 35v436zM385 1632q0 15 12 27l234 225h55q27 0 40.5 -5.5t31.5 -23.5l237 -227l-57 -61q-21 -21 -39 -21q-22 0 -51 29l-168 168 l-197 -197q-98 37 -98 86z" />
<glyph unicode="&#x177;" horiz-adv-x="1284" d="M170 449q0 -313 184 -422q-172 -101 -172 -258q0 -122 103.5 -199.5t275.5 -77.5q133 0 239.5 41.5t173 113t101.5 163.5t35 196v1045q0 25 -13 35t-44 10h-121v-836q-65 -62 -153 -96.5t-173 -34.5q-258 0 -258 307v627q0 43 -55 43q-57 0 -123 -16v-641zM342 1276 q0 15 12 27l234 225h55q27 0 40.5 -5.5t31.5 -23.5l237 -227l-57 -62q-20 -20 -39 -20q-22 0 -51 29l-168 167l-197 -196q-98 37 -98 86zM360 -211q0 120 109 195q65 -9 90 -9q103 0 202.5 39.5t170.5 104.5v-131q0 -160 -101.5 -253t-265.5 -93q-95 0 -150 40.5t-55 106.5z " />
<glyph unicode="&#x178;" horiz-adv-x="1353" d="M78 1362q79 82 139 82q31 0 49 -33l410 -749q280 380 416 772h133q32 0 45 -16t4 -40q-177 -473 -510 -889v-489h-129q-32 0 -44.5 10t-12.5 35v436zM389 1722q0 47 29 76t74 29q43 0 74.5 -31t31.5 -82q0 -47 -28.5 -76t-71.5 -29q-45 0 -77 31t-32 82zM754 1722 q0 47 28.5 76t73.5 29q43 0 75 -31.5t32 -81.5q0 -47 -29 -76t-72 -29q-45 0 -76.5 31t-31.5 82z" />
<glyph unicode="&#x179;" horiz-adv-x="1249" d="M119 129l770 1145h-692q-43 0 -43 53q0 49 14 107h854q47 0 68 -33q25 -41 34 -96l-770 -1147h740q25 0 36 -13.5t11 -44.5v-100h-920q-26 0 -40.5 7t-26.5 26q-26 44 -35 96zM469 1628l240 237q23 23 43 23q24 0 45 -18q40 -35 64 -84l-263 -215q-25 -19 -41 -19t-32 16 z" />
<glyph unicode="&#x17a;" horiz-adv-x="1034" d="M109 125l591 817h-532q-23 0 -33 12.5t-10 40.5q0 53 12 99h694q46 0 64 -29q25 -40 35 -96l-594 -819h565q45 0 45 -58v-92h-739q-46 0 -64 29q-24 37 -34 96zM352 1272l240 237q23 23 43 23q24 0 45 -18q40 -35 64 -84l-263 -215q-25 -19 -41 -19t-32 16z" />
<glyph unicode="&#x17b;" horiz-adv-x="1249" d="M119 129l770 1145h-692q-43 0 -43 53q0 49 14 107h854q47 0 68 -33q25 -41 34 -96l-770 -1147h740q25 0 36 -13.5t11 -44.5v-100h-920q-26 0 -40.5 7t-26.5 26q-26 44 -35 96zM512 1722q0 47 28.5 76t73.5 29q43 0 74.5 -31t31.5 -82q0 -47 -28.5 -76t-71.5 -29 q-45 0 -76.5 31t-31.5 82z" />
<glyph unicode="&#x17c;" horiz-adv-x="1034" d="M109 125l591 817h-532q-23 0 -33 12.5t-10 40.5q0 53 12 99h694q46 0 64 -29q25 -40 35 -96l-594 -819h565q45 0 45 -58v-92h-739q-46 0 -64 29q-24 37 -34 96zM406 1366q0 47 28.5 76t73.5 29q43 0 74.5 -31t31.5 -82q0 -47 -28.5 -76t-71.5 -29q-45 0 -76.5 31 t-31.5 82z" />
<glyph unicode="&#x17d;" horiz-adv-x="1249" d="M119 129l770 1145h-692q-43 0 -43 53q0 49 14 107h854q47 0 68 -33q25 -41 34 -96l-770 -1147h740q25 0 36 -13.5t11 -44.5v-100h-920q-26 0 -40.5 7t-26.5 26q-26 44 -35 96zM319 1800q56 84 95 84q25 0 51 -26l170 -170l205 204l73 -67q15 -12 15 -27q0 -16 -19 -35 l-223 -215q-18 -2 -57 -2q-38 0 -70 25z" />
<glyph unicode="&#x17e;" horiz-adv-x="1034" d="M109 125l591 817h-532q-23 0 -33 12.5t-10 40.5q0 53 12 99h694q46 0 64 -29q25 -40 35 -96l-594 -819h565q45 0 45 -58v-92h-739q-46 0 -64 29q-24 37 -34 96zM215 1444q56 84 94 84q24 0 51 -27l170 -170l205 205l74 -68q14 -11 14 -26q0 -17 -18 -35l-223 -215 q-18 -2 -58 -2q-38 0 -69 24z" />
<glyph unicode="&#x17f;" horiz-adv-x="876" d="M63 995q0 49 13 99h207v61q0 178 88 271.5t243 93.5q96 0 174 -35t78 -68q0 -49 -26 -82q-78 31 -185 31q-102 0 -148 -49.5t-46 -153.5v-1163h-121q-32 0 -44.5 10t-12.5 35v897h-177q-43 0 -43 53z" />
<glyph unicode="&#x191;" horiz-adv-x="1124" d="M27 -406q168 163 168 375v1465h811q41 0 41 -54q0 -52 -13 -106h-653v-492h510q25 0 35 -12.5t10 -44.5v-100h-555v-668q0 -90 -29.5 -173t-79.5 -144q-57 -68 -113 -97.5t-79 -17.5q-17 8 -32 27t-21 42z" />
<glyph unicode="&#x192;" horiz-adv-x="876" d="M-121 -403q0 43 25 81q75 -30 182 -30q102 0 149.5 47t47.5 155v1092h-177q-43 0 -43 53q0 49 13 99h207v61q0 176 88.5 270.5t242.5 94.5q96 0 174 -35t78 -68q0 -49 -26 -82q-78 31 -185 31q-102 0 -148 -47.5t-46 -155.5v-69h325q25 0 36.5 -14t11.5 -46v-92h-373 v-1083q0 -175 -90.5 -270t-243.5 -95q-93 0 -170.5 35t-77.5 68z" />
<glyph unicode="&#x1fa;" horiz-adv-x="1374" d="M53 39q0 8 4 20l502 1338q-63 53 -63 141q0 77 54 129.5t136 52.5q83 0 137 -52.5t54 -129.5q0 -88 -66 -141l6 -13l520 -1384h-141q-34 0 -50 9.5t-24 31.5l-118 332h-635l-133 -373h-127q-25 0 -40.5 10.5t-15.5 28.5zM424 530h524l-262 727zM539 1819l176 174 q20 20 37 20q22 0 41 -16q38 -34 57 -76l-193 -156q-22 -16 -36 -16q-15 0 -29 14zM598 1542q0 -43 26.5 -69.5t65.5 -26.5q36 0 60 24t24 62q0 43 -26.5 69.5t-65.5 26.5q-37 0 -60.5 -24t-23.5 -62z" />
<glyph unicode="&#x1fb;" horiz-adv-x="1214" d="M109 317q0 167 117 262t317 95q78 0 159.5 -17.5t139.5 -46.5v90q0 131 -83.5 198t-240.5 67q-167 0 -293 -66q-24 27 -24 78q0 29 45.5 61.5t131 56t183.5 23.5q216 0 337.5 -108.5t121.5 -317.5v-450q0 -62 19.5 -87.5t58.5 -25.5h41q10 -30 10 -63q0 -30 -37 -55 t-96 -25q-65 0 -111.5 48t-56.5 130q-55 -88 -151.5 -138.5t-217.5 -50.5q-166 0 -268 95t-102 247zM287 324q0 -93 64.5 -145t164.5 -52q99 0 187 52t139 147v149q-48 21 -128 33t-149 12q-133 0 -205.5 -51.5t-72.5 -144.5zM397 1362q0 77 54 129.5t137 52.5 q82 0 136 -52.5t54 -129.5q0 -78 -53.5 -130t-136.5 -52t-137 52t-54 130zM440 1642l176 175q20 20 37 20q22 0 41 -16q40 -36 58 -76l-193 -156q-22 -16 -37 -16q-14 0 -28 14zM500 1366q0 -43 26.5 -69.5t65.5 -26.5q36 0 60 24t24 62q0 43 -26.5 69.5t-65.5 26.5 q-37 0 -60.5 -24t-23.5 -62z" />
<glyph unicode="&#x1fc;" horiz-adv-x="1824" d="M31 39q0 8 6 20l663 1334q80 41 193 41h758q43 0 43 -54q0 -44 -15 -106h-655v-483h514q45 0 45 -58v-102h-559v-258q0 -123 32 -169t115 -46h494q45 0 45 -58v-100h-561q-159 0 -234 85t-75 288h-441l-180 -373h-131q-25 0 -41 10.5t-16 28.5zM475 530h365v746z M981 1628l240 237q23 23 43 23q24 0 45 -18q40 -35 64 -84l-263 -215q-25 -19 -41 -19t-32 16z" />
<glyph unicode="&#x1fd;" horiz-adv-x="1908" d="M109 317q0 166 117.5 261.5t316.5 95.5q79 0 160 -18t139 -48v92q0 131 -83.5 198t-240.5 67q-167 0 -293 -66q-24 27 -24 78q0 29 45.5 61.5t131 56t183.5 23.5q145 0 251.5 -56t150.5 -159q62 99 172 157t241 58q192 0 313 -114t121 -287q0 -244 -172 -244h-616 q17 -164 124.5 -255t264.5 -91q147 0 270 63q25 -29 25 -77q0 -46 -94 -92t-230 -46q-141 0 -258 63t-190 173q-66 -110 -175.5 -173t-248.5 -63q-190 0 -295.5 95.5t-105.5 246.5zM287 322q0 -92 65 -143.5t164 -51.5q103 0 193 57t135 172q0 74 -2 117q-48 22 -127.5 34.5 t-149.5 12.5q-133 0 -205.5 -52.5t-72.5 -145.5zM780 1272l240 237q23 23 43 23q24 0 45 -18q40 -35 64 -84l-263 -215q-25 -19 -41 -19t-32 16zM1022 623h596q16 36 16 86q0 117 -71.5 186.5t-196.5 69.5q-137 0 -232 -93t-112 -249z" />
<glyph unicode="&#x1fe;" horiz-adv-x="1583" d="M97.5 15q-6.5 15 11.5 34l157 174q-145 195 -145 494q0 178 53.5 321t146 233.5t213 138.5t257.5 48q269 0 450 -166l129 142h78q31 0 38 -15.5t-11 -34.5l-160 -174q147 -193 147 -493q0 -178 -53.5 -321t-145.5 -234t-213 -139t-259 -48q-271 0 -449 166l-129 -141h-78 q-31 0 -37.5 15zM311 735q0 -216 88 -366l715 784q-134 143 -336 143q-92 0 -174.5 -34t-148.5 -100.5t-105 -176.5t-39 -250zM467 279q136 -142 338 -142q92 0 174 34t148.5 100.5t105.5 176.5t39 250q0 211 -90 365zM616 1628l240 237q23 23 43 23q24 0 45 -18 q40 -35 64 -84l-263 -215q-25 -19 -41 -19t-32 16z" />
<glyph unicode="&#x1ff;" horiz-adv-x="1286" d="M107.5 13.5q-8.5 13.5 11.5 35.5l108 119q-118 150 -118 379q0 132 42.5 241.5t116 180.5t170 110t205.5 39q199 0 342 -119l86 95h66q34 0 42 -14t-12 -36l-110 -120q121 -150 121 -377q0 -132 -43 -241.5t-116.5 -181t-170 -110.5t-205.5 -39q-202 0 -342 119l-86 -94 h-65q-34 0 -42.5 13.5zM291 559q0 -151 61 -254l516 565q-103 95 -235 95q-145 0 -243.5 -104t-98.5 -302zM416 221q100 -92 237 -92q145 0 243.5 104t98.5 302q0 141 -61 253zM467 1272l240 237q23 23 43 23q24 0 45 -18q40 -35 64 -84l-263 -215q-25 -19 -41 -19t-32 16z " />
<glyph unicode="&#x218;" horiz-adv-x="1216" d="M129 1065q0 173 130.5 283t336.5 110q159 0 283.5 -66.5t187.5 -177.5q14 -24 14 -49t-39 -47q-59 -32 -124 -35q-42 102 -124 157.5t-198 55.5q-122 0 -199.5 -62.5t-77.5 -164.5q0 -96 79 -161t270 -126q226 -73 327 -173.5t101 -248.5q0 -173 -134 -279t-360 -106 q-86 0 -165.5 15.5t-133 39t-85.5 51t-32 52.5q0 48 25 84q167 -82 369 -82q160 0 243.5 59.5t83.5 157.5q0 97 -74 161t-239 108q-229 62 -347 170t-118 274zM545 -461q82 75 98 164q-35 9 -57.5 39t-22.5 72q0 48 32 77t75 29q47 0 79.5 -31t32.5 -84q0 -126 -82 -227 q-35 -43 -71 -68t-47 -18q-26 10 -37 47z" />
<glyph unicode="&#x219;" horiz-adv-x="1021" d="M129 805q0 139 106.5 226t278.5 87q127 0 227.5 -49.5t147.5 -134.5q12 -24 12 -37q0 -26 -29 -49q-46 -34 -122 -43q-27 76 -91.5 118t-148.5 42q-91 0 -147 -45t-56 -115q0 -75 61 -120t203 -81q178 -44 259 -121t81 -200q0 -142 -103.5 -225t-293.5 -83 q-95 0 -179.5 24.5t-129.5 57t-45 60.5q0 50 26 80q143 -70 306 -70q241 0 241 147q0 67 -49.5 108t-173.5 69q-198 45 -289.5 132t-91.5 222zM432 -461q82 75 98 164q-35 9 -57 39t-22 72q0 48 31.5 77t74.5 29q47 0 80 -31t33 -84q0 -126 -82 -227q-35 -43 -71 -68 t-48 -18q-26 10 -37 47z" />
<glyph unicode="&#x21a;" horiz-adv-x="1251" d="M86 1327q0 49 14 107h1016q25 0 36 -14t11 -46v-100h-446v-1274h-129q-31 0 -44.5 10t-13.5 35v1229h-401q-43 0 -43 53zM498 -461q82 75 98 164q-35 9 -57.5 39t-22.5 72q0 48 32 77t75 29q47 0 79.5 -31t32.5 -84q0 -126 -82 -227q-35 -43 -71 -68t-47 -18 q-26 10 -37 47z" />
<glyph unicode="&#x21b;" horiz-adv-x="927" d="M66 995q0 55 12 99h184v309q66 16 123 16q55 0 55 -43v-282h348q46 0 46 -58v-94h-394v-604q0 -107 54.5 -158t146.5 -51q102 0 172 33q27 -31 27 -78q0 -39 -68.5 -74t-171.5 -35q-155 0 -246.5 96.5t-91.5 278.5v592h-153q-43 0 -43 53zM432 -461q82 75 98 164 q-35 9 -57 39t-22 72q0 48 31.5 77t74.5 29q47 0 80 -31t33 -84q0 -126 -82 -227q-35 -43 -71 -68t-48 -18q-26 10 -37 47z" />
<glyph unicode="&#x2c6;" horiz-adv-x="854" d="M131 1235q0 15 12 27l234 225h55q27 0 40.5 -5.5t31.5 -23.5l237 -227l-57 -62q-20 -20 -39 -20q-22 0 -51 29l-168 168l-197 -197q-98 37 -98 86z" />
<glyph unicode="&#x2c7;" horiz-adv-x="854" d="M113 1403q56 84 94 84q24 0 51 -27l170 -170l205 205l74 -68q14 -11 14 -26q0 -16 -19 -35l-223 -215q-18 -2 -57 -2q-38 0 -70 25z" />
<glyph unicode="&#x2d8;" horiz-adv-x="854" d="M135 1434q54 30 103 30q25 0 35.5 -9t15.5 -32q12 -65 48 -99t89 -34q129 0 147 174h91q31 0 44.5 -10.5t10.5 -30.5q-17 -108 -91 -181t-202 -73q-114 0 -193.5 69t-97.5 196z" />
<glyph unicode="&#x2d9;" horiz-adv-x="854" d="M322 1325q0 47 28.5 76t73.5 29q43 0 74.5 -31t31.5 -82q0 -47 -28.5 -76t-71.5 -29q-45 0 -76.5 31t-31.5 82z" />
<glyph unicode="&#x2da;" horiz-adv-x="854" d="M236 1321q0 77 54.5 129.5t135.5 52.5q82 0 136 -52.5t54 -129.5t-54 -129.5t-136 -52.5q-81 0 -135.5 52.5t-54.5 129.5zM338 1325q0 -42 27 -68t67 -26q36 0 59 24t23 62q0 42 -26 68t-66 26q-36 0 -60 -24t-24 -62z" />
<glyph unicode="&#x2db;" horiz-adv-x="854" d="M231 -250q0 66 40 135.5t108 114.5h153q-73 -51 -111 -111.5t-38 -119.5q0 -41 28 -68t83 -27q38 0 67 13q49 19 49 -35v-72q-60 -31 -143 -31q-114 0 -175 56t-61 145z" />
<glyph unicode="&#x2dc;" horiz-adv-x="854" d="M131 1264q0 28 10 55q42 121 158 121q72 0 139 -56q55 -45 86 -45q28 0 43.5 22.5t24.5 82.5l92 -25q25 -6 33 -19.5t2 -39.5q-15 -74 -59 -116t-111 -42q-71 0 -137 55q-56 46 -86 46q-27 0 -42.5 -21t-25.5 -78q-55 0 -94 17q-33 14 -33 43z" />
<glyph unicode="&#x2dd;" horiz-adv-x="854" d="M66 1231l239 237q23 23 43 23q24 0 45 -18q40 -35 64 -84l-262 -215q-25 -19 -41 -19q-17 0 -33 16zM397 1231l240 237q23 23 43 23q24 0 45 -18q39 -33 63 -84l-262 -215q-25 -19 -41 -19t-32 16z" />
<glyph unicode="&#x3a9;" horiz-adv-x="1603" d="M129 739q0 163 51 298.5t140.5 227.5t213 142.5t267.5 50.5t267.5 -50.5t213 -142.5t140.5 -227.5t51 -298.5q0 -184 -81.5 -334.5t-220.5 -246.5h234q25 0 36 -13.5t11 -44.5v-100h-545v100q0 39 37 60q158 91 248 241.5t90 333.5q0 137 -39 246t-106 176.5t-152.5 103 t-183.5 35.5t-183.5 -35.5t-153 -103t-106.5 -176.5t-39 -246q0 -185 89.5 -334t248.5 -241q37 -19 37 -60v-100h-499q-23 0 -33 11.5t-10 39.5q0 57 12 107h266q-139 98 -220 247.5t-81 333.5z" />
<glyph unicode="&#x400;" horiz-adv-x="1175" d="M190 356v1078h811q41 0 41 -54q0 -56 -12 -106h-653v-483h510q25 0 35 -13.5t10 -44.5v-102h-555v-258q0 -119 34.5 -167t112.5 -48h490q25 0 35 -13.5t10 -44.5v-100h-557q-159 0 -235.5 82.5t-76.5 273.5zM393 1786q24 49 64 84q21 18 45 18q20 0 43 -23l240 -237 l-56 -60q-16 -16 -32 -16t-41 19z" />
<glyph unicode="&#x401;" horiz-adv-x="1175" d="M190 356v1078h811q41 0 41 -54q0 -56 -12 -106h-653v-483h510q25 0 35 -13.5t10 -44.5v-102h-555v-258q0 -119 34.5 -167t112.5 -48h490q25 0 35 -13.5t10 -44.5v-100h-557q-159 0 -235.5 82.5t-76.5 273.5zM321 1722q0 47 29 76t74 29q43 0 74.5 -31t31.5 -82 q0 -47 -28.5 -76t-71.5 -29q-45 0 -77 31t-32 82zM686 1722q0 47 28.5 76t73.5 29q43 0 75 -31.5t32 -81.5q0 -47 -29 -76t-72 -29q-45 0 -76.5 31t-31.5 82z" />
<glyph unicode="&#x402;" horiz-adv-x="1579" d="M86 1327q0 49 14 107h1016q25 0 36 -14t11 -46v-100h-446v-481q149 120 330 120q186 0 287.5 -124.5t101.5 -348.5v-422q0 -90 -29.5 -173t-79.5 -144q-57 -68 -113 -97.5t-79 -17.5q-40 18 -54 70q168 163 168 375v415q0 154 -60.5 231t-189.5 77q-72 0 -146.5 -29.5 t-135.5 -83.5v-641h-129q-31 0 -44.5 10t-13.5 35v1229h-401q-43 0 -43 53z" />
<glyph unicode="&#x403;" horiz-adv-x="1128" d="M195 45v1389h811q45 0 45 -60v-100h-670v-1274h-129q-31 0 -44 10t-13 35zM440 1628l240 238q22 22 43 22q24 0 45 -18q39 -33 63 -84l-262 -215q-25 -19 -41 -19q-15 0 -32 17z" />
<glyph unicode="&#x404;" horiz-adv-x="1406" d="M119 760q0 163 52.5 296.5t142.5 220.5t206.5 134t247.5 47q188 0 330 -82.5t209 -218.5q10 -20 10 -35q0 -46 -55 -69q-47 -21 -105 -27q-51 129 -154.5 199.5t-244.5 70.5q-86 0 -165 -33.5t-141.5 -95.5t-101.5 -159.5t-43 -216.5h647q24 0 34.5 -13t10.5 -45v-100 h-682q39 -234 201.5 -366t394.5 -132q191 0 332 78q25 -41 25 -86q0 -31 -50 -66t-141.5 -60.5t-193.5 -25.5q-217 0 -390.5 94.5t-274.5 274.5t-101 416z" />
<glyph unicode="&#x405;" horiz-adv-x="1216" d="M129 1065q0 173 130.5 283t336.5 110q159 0 283.5 -66.5t187.5 -177.5q14 -24 14 -49t-39 -47q-59 -32 -124 -35q-42 102 -124 157.5t-198 55.5q-122 0 -199.5 -62.5t-77.5 -164.5q0 -96 79 -161t270 -126q226 -73 327 -173.5t101 -248.5q0 -173 -134 -279t-360 -106 q-86 0 -165.5 15.5t-133 39t-85.5 51t-32 52.5q0 48 25 84q167 -82 369 -82q160 0 243.5 59.5t83.5 157.5q0 97 -74 161t-239 108q-229 62 -347 170t-118 274z" />
<glyph unicode="&#x406;" horiz-adv-x="600" d="M207 45v1380q68 21 129 21q57 0 57 -43v-1403h-129q-32 0 -44.5 10t-12.5 35z" />
<glyph unicode="&#x407;" horiz-adv-x="600" d="M14 1722q0 47 29 76t74 29q43 0 74.5 -31t31.5 -82q0 -47 -28.5 -76t-71.5 -29q-45 0 -77 31t-32 82zM207 45v1380q68 21 129 21q57 0 57 -43v-1403h-129q-32 0 -44.5 10t-12.5 35zM379 1722q0 47 28.5 76t73.5 29q43 0 75 -31.5t32 -81.5q0 -47 -29 -76t-72 -29 q-45 0 -76.5 31t-31.5 82z" />
<glyph unicode="&#x408;" horiz-adv-x="864" d="M33 88q0 40 24 86q92 -37 199 -37q233 0 233 250v1040q62 19 129 19q58 0 58 -43v-1020q0 -195 -97.5 -301.5t-281.5 -106.5q-98 0 -181 37.5t-83 75.5z" />
<glyph unicode="&#x409;" horiz-adv-x="2281" d="M20 74q0 44 27 88q56 -27 131 -27q71 0 114.5 56t67.5 192q82 462 82 1051h820q30 0 43.5 -11.5t13.5 -36.5v-497q138 61 336 61q239 0 383.5 -122t144.5 -343q0 -234 -158 -359.5t-432 -125.5h-166q-73 0 -125.5 17t-91.5 57t-58 110t-19 172v918h-506 q-15 -516 -80 -912q-35 -213 -112.5 -300t-209.5 -87q-78 0 -141.5 33t-63.5 66zM1319 373q0 -129 29 -172t104 -43h119q195 0 307.5 76t112.5 241q0 313 -377 313q-162 0 -295 -47v-368z" />
<glyph unicode="&#x40a;" horiz-adv-x="2205" d="M195 45v1380q68 21 131 21q55 0 55 -43v-606h676v637h129q30 0 43.5 -11.5t13.5 -36.5v-497q138 61 336 61q239 0 383.5 -122t144.5 -343q0 -234 -158.5 -359.5t-432.5 -125.5h-164q-106 0 -168 34.5t-94.5 122.5t-32.5 242v240h-676v-639h-129q-31 0 -44 10t-13 35z M1243 373q0 -129 28.5 -172t102.5 -43h121q195 0 307.5 76t112.5 241q0 313 -377 313q-162 0 -295 -47v-368z" />
<glyph unicode="&#x40b;" horiz-adv-x="1613" d="M86 1327q0 49 14 107h1016q25 0 36 -14t11 -46v-100h-446v-481q152 120 330 120q186 0 287.5 -124.5t101.5 -348.5v-202q0 -58 17 -83.5t54 -25.5h45q11 -25 11 -63q0 -30 -36 -55t-93 -25q-185 0 -185 241v219q0 154 -60.5 231t-189.5 77q-72 0 -146.5 -29.5 t-135.5 -83.5v-641h-129q-31 0 -44.5 10t-13.5 35v1229h-401q-43 0 -43 53z" />
<glyph unicode="&#x40c;" horiz-adv-x="1351" d="M195 45v1380q68 21 131 21q55 0 55 -43v-678q189 128 374.5 315.5t329.5 405.5q75 -25 105.5 -48t30.5 -55q0 -27 -17 -53q-166 -262 -459 -510q103 -189 215.5 -350.5t200.5 -243.5q54 -51 109 -51h39q10 -33 10 -74q0 -33 -37 -59.5t-94 -26.5q-92 0 -184 95 q-181 187 -398 604q-114 -90 -225 -156v-518h-129q-31 0 -44 10t-13 35zM495 1628l240 237q23 23 43 23q24 0 45 -18q40 -35 64 -84l-263 -215q-25 -19 -41 -19t-32 16z" />
<glyph unicode="&#x40d;" horiz-adv-x="1470" d="M195 45v1380q68 21 131 21q55 0 55 -43v-1092l700 1102q11 18 22 25.5t32 7.5q26 0 66 -17.5t73 -42.5v-1386h-129q-32 0 -45 10t-13 35v1075l-700 -1102q-18 -30 -53 -30q-27 0 -67 16.5t-72 40.5zM512 1786q24 51 63 84q21 18 46 18q21 0 43 -22l239 -238l-55 -59 q-17 -17 -33 -17t-41 19z" />
<glyph unicode="&#x40e;" horiz-adv-x="1333" d="M113 1362q73 82 135 82q21 0 32.5 -8t22.5 -29l387 -789q236 412 375 816h127q57 0 57 -35q0 -9 -4 -21q-118 -332 -324.5 -707t-437.5 -671h-127q-43 0 -43 29q0 15 19 43q132 177 254 370zM391 1833q56 31 103 31q25 0 35.5 -9t15.5 -32q12 -65 48 -99t89 -34 q129 0 147 174h91q31 0 44.5 -10.5t10.5 -30.5q-17 -108 -91 -181t-202 -73q-114 0 -193.5 68.5t-97.5 195.5z" />
<glyph unicode="&#x40f;" horiz-adv-x="1482" d="M190 403v1022q68 21 132 21q55 0 55 -43v-1030q0 -66 9 -109.5t27.5 -66t41 -31t55.5 -8.5h590v1276h129q30 0 43.5 -11.5t13.5 -36.5v-1386h-436v-301h-129q-32 0 -44.5 11t-12.5 36v254h-177q-105 0 -167.5 35t-96 124.5t-33.5 243.5z" />
<glyph unicode="&#x410;" horiz-adv-x="1374" d="M53 39q0 8 4 20l508 1352q79 35 164 35q38 0 56 -13t32 -49l520 -1384h-141q-34 0 -50 9.5t-24 31.5l-118 332h-635l-133 -373h-127q-25 0 -40.5 10.5t-15.5 28.5zM424 530h524l-262 727z" />
<glyph unicode="&#x411;" horiz-adv-x="1351" d="M190 356v1078h826q25 0 36 -13.5t11 -44.5v-102h-686v-385q142 61 338 61q239 0 383.5 -122t144.5 -343q0 -234 -159 -359.5t-433 -125.5h-164q-151 0 -224 79t-73 277zM377 373q0 -129 29 -172t104 -43h121q195 0 307.5 76t112.5 241q0 313 -377 313q-164 0 -297 -47 v-368z" />
<glyph unicode="&#x412;" horiz-adv-x="1341" d="M190 356v1078h508q225 0 352.5 -108t127.5 -273q0 -112 -56 -193.5t-155 -120.5q119 -34 188.5 -123.5t69.5 -216.5q0 -184 -130 -291.5t-372 -107.5h-221q-156 0 -234 83t-78 273zM377 373q0 -123 32 -169t115 -46h203q307 0 307 250q0 241 -336 241h-321v-276zM377 807 h307q151 0 227 60.5t76 172.5q0 109 -78.5 171.5t-224.5 62.5h-307v-467z" />
<glyph unicode="&#x413;" horiz-adv-x="1128" d="M195 45v1389h811q45 0 45 -60v-100h-670v-1274h-129q-31 0 -44 10t-13 35z" />
<glyph unicode="&#x414;" horiz-adv-x="1345" d="M63 158h109q167 579 182 1276h709q32 0 44.5 -11.5t12.5 -36.5v-1228h80q30 0 43.5 -10.5t13.5 -34.5v-414h-129q-31 0 -44 11t-13 36v254h-821v-301h-127q-32 0 -46 11t-14 36v412zM365 158h569v1116h-402q-13 -267 -56 -563t-111 -553z" />
<glyph unicode="&#x415;" horiz-adv-x="1175" d="M190 356v1078h811q41 0 41 -54q0 -56 -12 -106h-653v-483h510q25 0 35 -13.5t10 -44.5v-102h-555v-258q0 -119 34.5 -167t112.5 -48h490q25 0 35 -13.5t10 -44.5v-100h-557q-159 0 -235.5 82.5t-76.5 273.5z" />
<glyph unicode="&#x416;" horiz-adv-x="2013" d="M41 61q0 41 10 74h37q59 0 121 62q86 86 181.5 254t180.5 374q-128 112 -243 243.5t-174 242.5q-9 18 -9 30q0 36 31 58q24 19 103 47q129 -198 294 -369t338 -295v643q68 21 131 21q56 0 56 -43v-621q173 124 338.5 295t294.5 369q77 -27 102 -47q31 -22 31 -58 q0 -12 -9 -30q-59 -111 -174 -242.5t-243 -243.5q85 -206 180.5 -374t181.5 -254q62 -62 121 -62h37q10 -33 10 -74q0 -32 -37.5 -59t-95.5 -27q-83 0 -160 74q-96 92 -196 267t-187 393q-90 -72 -194 -140v-569h-129q-31 0 -44.5 10t-13.5 35v524q-104 68 -194 140 q-87 -218 -187 -393t-196 -267q-77 -74 -160 -74q-58 0 -95.5 27t-37.5 59z" />
<glyph unicode="&#x417;" horiz-adv-x="1224" d="M121 1165q0 18 10 41q56 112 180 182t289 70q203 0 334 -107t131 -274q0 -121 -76.5 -211.5t-200.5 -126.5q147 -37 232.5 -132.5t85.5 -227.5q0 -187 -147.5 -295.5t-391.5 -108.5q-86 0 -168.5 17.5t-139 43t-91.5 55t-35 54.5q0 45 25 86q174 -94 393 -94 q171 0 270 63.5t99 180.5q0 127 -112 201.5t-329 74.5h-22q-22 0 -31.5 12t-9.5 40q0 57 12 106h45q193 0 299.5 68.5t106.5 183.5q0 109 -73.5 169t-205.5 60q-244 0 -319 -223q-58 6 -105 27q-55 25 -55 65z" />
<glyph unicode="&#x418;" horiz-adv-x="1470" d="M195 45v1380q68 21 131 21q55 0 55 -43v-1092l700 1102q11 18 22 25.5t32 7.5q26 0 66 -17.5t73 -42.5v-1386h-129q-32 0 -45 10t-13 35v1075l-700 -1102q-18 -30 -53 -30q-27 0 -67 16.5t-72 40.5z" />
<glyph unicode="&#x419;" horiz-adv-x="1470" d="M195 45v1380q68 21 131 21q55 0 55 -43v-1092l700 1102q11 18 22 25.5t32 7.5q26 0 66 -17.5t73 -42.5v-1386h-129q-32 0 -45 10t-13 35v1075l-700 -1102q-18 -30 -53 -30q-27 0 -67 16.5t-72 40.5zM442 1833q56 31 103 31q25 0 35.5 -9t15.5 -32q12 -65 48 -99t89 -34 q130 0 148 174h90q31 0 44.5 -10.5t10.5 -30.5q-17 -108 -91 -181t-202 -73q-114 0 -193.5 68.5t-97.5 195.5z" />
<glyph unicode="&#x41a;" horiz-adv-x="1351" d="M195 45v1380q68 21 131 21q55 0 55 -43v-678q189 128 374.5 315.5t329.5 405.5q75 -25 105.5 -48t30.5 -55q0 -27 -17 -53q-166 -262 -459 -510q103 -189 215.5 -350.5t200.5 -243.5q54 -51 109 -51h39q10 -33 10 -74q0 -33 -37 -59.5t-94 -26.5q-92 0 -184 95 q-181 187 -398 604q-114 -90 -225 -156v-518h-129q-31 0 -44 10t-13 35z" />
<glyph unicode="&#x41b;" horiz-adv-x="1556" d="M20 74q0 44 27 88q56 -27 131 -27q71 0 114.5 56t67.5 192q82 462 82 1051h861q30 0 43.5 -11.5t13.5 -36.5v-1386h-129q-32 0 -44.5 10t-12.5 35v1229h-547q-15 -516 -80 -912q-35 -213 -112.5 -300t-209.5 -87q-78 0 -141.5 33t-63.5 66z" />
<glyph unicode="&#x41c;" horiz-adv-x="1835" d="M143 49l148 1348q79 49 143 49q22 0 35 -8t25 -29l421 -764l437 789h131q31 0 43.5 -11t15.5 -37l152 -1386h-138q-32 0 -46 10.5t-17 36.5l-111 1104l-368 -664q-17 -32 -72 -32h-106l-385 696l-119 -1151h-131q-32 0 -46.5 12t-11.5 37z" />
<glyph unicode="&#x41d;" horiz-adv-x="1478" d="M195 45v1380q68 21 131 21q55 0 55 -43v-606h715v637h129q30 0 43.5 -11.5t13.5 -36.5v-1386h-129q-32 0 -44.5 10t-12.5 35v594h-715v-639h-129q-31 0 -44 10t-13 35z" />
<glyph unicode="&#x41e;" horiz-adv-x="1583" d="M121 717q0 178 53.5 321t146 233.5t213 138.5t257.5 48q110 0 210 -29.5t184 -90.5t146 -148t96.5 -208.5t34.5 -264.5q0 -178 -53.5 -321t-145.5 -234t-213 -139t-259 -48q-109 0 -208.5 30t-184 91t-146 148t-96.5 208.5t-35 264.5zM311 735q0 -141 39 -256t107 -189 t157 -113.5t191 -39.5q92 0 174 34t148.5 100.5t105.5 176.5t39 250q0 141 -39 256t-107 189t-157 113.5t-191 39.5q-92 0 -174.5 -34t-148.5 -100.5t-105 -176.5t-39 -250z" />
<glyph unicode="&#x41f;" horiz-adv-x="1480" d="M195 45v1389h1032q30 0 43.5 -11.5t13.5 -36.5v-1386h-129q-32 0 -44.5 10t-12.5 35v1229h-717v-1274h-129q-31 0 -44 10t-13 35z" />
<glyph unicode="&#x420;" horiz-adv-x="1306" d="M197 45v1389h450q257 0 409 -139.5t152 -383.5q0 -159 -73 -276.5t-195 -175.5t-276 -58q-159 0 -281 39v-440h-129q-30 0 -43.5 10.5t-13.5 34.5zM383 590q108 -27 252 -27q175 0 279 92t104 263q0 174 -102 265t-279 91h-254v-684z" />
<glyph unicode="&#x421;" horiz-adv-x="1406" d="M119 760q0 163 52.5 296.5t142.5 220.5t206.5 134t247.5 47q188 0 330 -82.5t209 -218.5q10 -20 10 -35q0 -46 -55 -69q-47 -21 -105 -27q-51 129 -154.5 199.5t-244.5 70.5q-88 0 -168 -35t-143.5 -100t-101.5 -167.5t-38 -227.5q0 -194 80.5 -339t217 -218.5 t308.5 -73.5q191 0 332 78q25 -41 25 -86q0 -31 -50 -66t-141.5 -60.5t-193.5 -25.5q-217 0 -390.5 94.5t-274.5 274.5t-101 416z" />
<glyph unicode="&#x422;" horiz-adv-x="1251" d="M86 1327q0 49 14 107h1016q25 0 36 -14t11 -46v-100h-446v-1274h-129q-31 0 -44.5 10t-13.5 35v1229h-401q-43 0 -43 53z" />
<glyph unicode="&#x423;" horiz-adv-x="1333" d="M113 1362q73 82 135 82q21 0 32.5 -8t22.5 -29l387 -789q236 412 375 816h127q57 0 57 -35q0 -9 -4 -21q-118 -332 -324.5 -707t-437.5 -671h-127q-43 0 -43 29q0 15 19 43q132 177 254 370z" />
<glyph unicode="&#x424;" horiz-adv-x="1548" d="M104 723q0 99 31.5 184.5t85.5 147.5t128 108.5t157 73t174 35.5v153q68 21 131 21q55 0 55 -43v-131q91 -9 174 -35t157 -72.5t128 -108.5t85.5 -147.5t31.5 -185.5t-31.5 -186.5t-85.5 -149t-128 -109t-157 -73t-174 -35.5v-170h-129q-31 0 -44 10t-13 35v125 q-115 12 -216 52t-183 106.5t-129.5 168t-47.5 226.5zM293 741q0 -165 106 -272.5t281 -132.5v776q-111 -12 -196 -55t-138 -124.5t-53 -191.5zM866 330q170 18 278.5 114t108.5 261q0 164 -106.5 271t-280.5 132v-778z" />
<glyph unicode="&#x425;" horiz-adv-x="1402" d="M104 35q0 14 9 35q77 181 198 353t273 314l-455 604q77 103 135 103q17 0 27 -6t22 -23l412 -547q249 264 369 566h141q49 0 49 -37q0 -16 -8 -35q-70 -167 -186.5 -332t-260.5 -305l484 -637q-76 -102 -135 -102q-31 0 -50 28l-438 582q-256 -256 -393 -596h-141 q-52 0 -52 35z" />
<glyph unicode="&#x426;" horiz-adv-x="1511" d="M193 358v1069q62 19 129 19q57 0 57 -43v-1030q0 -128 29 -170.5t104 -42.5h590v1274h127q32 0 44.5 -10.5t12.5 -34.5v-1229h80q31 0 44 -11t13 -36v-414h-129q-30 0 -43.5 10.5t-13.5 34.5v256h-750q-74 0 -126 17t-91 57t-58 110.5t-19 173.5z" />
<glyph unicode="&#x427;" horiz-adv-x="1406" d="M170 901v524q68 21 129 21q57 0 57 -43v-492q0 -172 98 -261t267 -89q182 0 303 62v811h129q30 0 43.5 -11.5t13.5 -36.5v-1386h-129q-31 0 -44 10t-13 35v430q-130 -74 -334 -74q-231 0 -375.5 134t-144.5 366z" />
<glyph unicode="&#x428;" horiz-adv-x="1861" d="M190 356v1069q68 21 132 21q55 0 55 -43v-1030q0 -129 29 -172t104 -43h326v1276h129q30 0 43.5 -11.5t13.5 -36.5v-1228h457v1276h129q30 0 43.5 -11.5t13.5 -36.5v-1386h-1178q-151 0 -224 79t-73 277z" />
<glyph unicode="&#x429;" horiz-adv-x="1890" d="M193 358v1069q62 19 129 19q57 0 57 -43v-1030q0 -128 29 -170.5t104 -42.5h324v1274h129q30 0 43.5 -10.5t13.5 -34.5v-1229h457v1274h129q32 0 44.5 -10.5t12.5 -34.5v-1229h80q31 0 44 -11t13 -36v-414h-129q-30 0 -43.5 10.5t-13.5 34.5v256h-1129q-74 0 -126 17 t-91 57t-58 110.5t-19 173.5z" />
<glyph unicode="&#x42a;" horiz-adv-x="1681" d="M86 1327q0 49 14 107h570q25 0 36 -13.5t11 -44.5v-487q142 61 338 61q239 0 382.5 -122t143.5 -343q0 -234 -158 -359.5t-432 -125.5h-164q-105 0 -167.5 35t-96 123t-33.5 241v875h-401q-43 0 -43 53zM717 373q0 -129 29 -172t104 -43h121q195 0 307.5 76t112.5 241 q0 313 -377 313q-164 0 -297 -47v-368z" />
<glyph unicode="&#x42b;" horiz-adv-x="1847" d="M190 356v1069q68 21 132 21q55 0 55 -43v-514q142 61 338 61q239 0 383.5 -122t144.5 -343q0 -234 -159 -359.5t-433 -125.5h-164q-148 0 -222.5 81.5t-74.5 274.5zM377 373q0 -129 29 -172t104 -43h121q195 0 307.5 76t112.5 241q0 313 -377 313q-164 0 -297 -47v-368z M1464 45v1380q68 21 129 21q58 0 58 -43v-1403h-129q-31 0 -44.5 10t-13.5 35z" />
<glyph unicode="&#x42c;" horiz-adv-x="1341" d="M190 356v1069q68 21 132 21q55 0 55 -43v-514q142 61 338 61q239 0 383.5 -122t144.5 -343q0 -234 -159 -359.5t-433 -125.5h-164q-148 0 -222.5 81.5t-74.5 274.5zM377 373q0 -129 29 -172t104 -43h121q195 0 307.5 76t112.5 241q0 313 -377 313q-164 0 -297 -47v-368z " />
<glyph unicode="&#x42d;" horiz-adv-x="1429" d="M111 1122q0 15 10 35q67 136 208.5 218.5t329.5 82.5q131 0 248 -47t206.5 -134t142.5 -221t53 -296q0 -236 -101 -416t-274.5 -274.5t-390.5 -94.5q-102 0 -193.5 25.5t-141.5 60.5t-50 66q0 47 24 86q141 -78 332 -78q232 0 394.5 132t201.5 366h-641q-22 0 -31.5 11.5 t-9.5 39.5q0 60 12 107h680q-4 119 -42.5 216.5t-101 159.5t-141.5 95.5t-165 33.5q-141 0 -245 -70.5t-155 -199.5q-56 6 -104 27q-55 23 -55 69z" />
<glyph unicode="&#x42e;" horiz-adv-x="2082" d="M195 45v1380q68 21 131 21q55 0 55 -43v-612h242q11 161 68 290t147.5 210t205.5 124t246 43q137 0 258 -48t213.5 -138.5t146.5 -233.5t54 -321q0 -179 -54 -322.5t-147 -234t-213 -138t-258 -47.5q-103 0 -197.5 26t-175.5 80t-143 131.5t-101.5 185t-49.5 235.5h-242 v-633h-129q-31 0 -44 10t-13 35zM809 733q0 -141 39.5 -256t107.5 -189t157.5 -113.5t191.5 -39.5q73 0 140 21t127 65.5t104 109.5t70 159.5t26 207.5q0 141 -39 256t-107 189t-157.5 113.5t-192.5 39.5q-73 0 -140 -21t-127 -65.5t-104 -109.5t-70 -159.5t-26 -207.5z" />
<glyph unicode="&#x42f;" horiz-adv-x="1345" d="M104 61q0 29 11 66h37q52 0 106 43q120 92 250 301q-157 48 -248.5 167.5t-91.5 299.5q0 232 151.5 364t409.5 132h363q32 0 44.5 -11.5t12.5 -36.5v-1386h-129q-31 0 -44 10t-13 35v432q-109 -35 -271 -35q-150 -278 -301 -403q-76 -64 -155 -64q-58 0 -95 26.5 t-37 59.5zM360 938q0 -162 103 -249t278 -87q116 0 222 25v647h-222q-176 0 -278.5 -87t-102.5 -249z" />
<glyph unicode="&#x430;" horiz-adv-x="1214" d="M109 317q0 167 117 262t317 95q78 0 159.5 -17.5t139.5 -46.5v90q0 131 -83.5 198t-240.5 67q-167 0 -293 -66q-24 27 -24 78q0 29 45.5 61.5t131 56t183.5 23.5q216 0 337.5 -108.5t121.5 -317.5v-450q0 -62 19.5 -87.5t58.5 -25.5h41q10 -30 10 -63q0 -30 -37 -55 t-96 -25q-65 0 -111.5 48t-56.5 130q-55 -88 -151.5 -138.5t-217.5 -50.5q-166 0 -268 95t-102 247zM287 324q0 -93 64.5 -145t164.5 -52q99 0 187 52t139 147v149q-48 21 -128 33t-149 12q-133 0 -205.5 -51.5t-72.5 -144.5z" />
<glyph unicode="&#x431;" horiz-adv-x="1290" d="M141 610q0 166 18.5 291t51.5 209.5t86 142t115 88.5t145 48l213 45q212 45 285 86q43 -43 43 -78q0 -34 -74.5 -74.5t-208.5 -71.5l-205 -47q-149 -34 -206.5 -120.5t-75.5 -278.5q73 87 178.5 136.5t224.5 49.5q196 0 327.5 -139t131.5 -350q0 -250 -145 -411 t-375 -161q-247 0 -388 169.5t-141 465.5zM322 606q0 -233 93 -356t255 -123q142 0 241 113t99 295q0 165 -93 256.5t-235 91.5q-98 0 -193.5 -52t-166.5 -139v-86z" />
<glyph unicode="&#x432;" horiz-adv-x="1136" d="M170 299v795h444q176 0 274.5 -85t98.5 -212q0 -77 -38.5 -136t-106.5 -90q90 -31 143 -95.5t53 -162.5q0 -142 -106.5 -227.5t-300.5 -85.5h-201q-130 0 -195 69.5t-65 229.5zM348 326q0 -105 25.5 -140.5t91.5 -35.5h151q244 0 244 169q0 166 -268 166h-244v-159z M348 635h246q111 0 163 41t52 112q0 154 -215 154h-246v-307z" />
<glyph unicode="&#x433;" horiz-adv-x="964" d="M174 45v1049h680q45 0 45 -60v-92h-547v-942h-121q-32 0 -44.5 10t-12.5 35z" />
<glyph unicode="&#x434;" d="M53 150h103q132 412 155 944h617q31 0 44 -11t13 -36v-897h70q57 0 57 -46v-346h-121q-32 0 -44.5 11t-12.5 36v195h-703v-242h-120q-31 0 -44.5 11t-13.5 36v345zM336 150h471v792h-336q-29 -429 -135 -792z" />
<glyph unicode="&#x435;" d="M109 547q0 130 43.5 239t117 180.5t170.5 111.5t205 40q192 0 313 -113t121 -288q0 -92 -30 -160q-21 -48 -52.5 -66t-89.5 -18h-614q17 -164 124 -254t263 -90q153 0 272 64q25 -32 25 -80q0 -46 -94.5 -92t-231.5 -46q-154 0 -277.5 72.5t-194 203.5t-70.5 296z M293 625h596q16 37 16 84q0 118 -71.5 187t-196.5 69q-139 0 -234 -92t-110 -248z" />
<glyph unicode="&#x436;" horiz-adv-x="1640" d="M55 66q0 30 11 63h40q33 0 62 16.5t63 65.5q95 128 205 434q-203 170 -297 322q-10 23 -10 41q0 30 26 53t93 45q96 -142 223.5 -269t259.5 -219v472q66 16 125 16q53 0 53 -43v-445q132 92 260 219t224 269q67 -22 92.5 -44.5t25.5 -53.5q0 -18 -10 -41 q-94 -152 -297 -322q110 -306 205 -434q34 -49 63 -65.5t62 -16.5h41q10 -30 10 -63q0 -29 -37.5 -54.5t-85.5 -25.5q-64 0 -113.5 34t-95.5 105q-110 176 -184 420q-79 -60 -160 -109v-436h-121q-30 0 -43.5 10.5t-13.5 34.5v391q-81 49 -160 109q-74 -244 -184 -420 q-46 -71 -95.5 -105t-113.5 -34q-48 0 -85.5 25.5t-37.5 54.5z" />
<glyph unicode="&#x437;" horiz-adv-x="1067" d="M129 883q0 22 12 43q50 86 151.5 139t242.5 53q169 0 274.5 -85.5t105.5 -219.5q0 -91 -52.5 -159t-143.5 -99q106 -30 166.5 -99.5t60.5 -170.5q0 -139 -113 -224.5t-323 -85.5q-91 0 -178 25t-138 60t-51 67q0 44 25 80q147 -80 321 -80q135 0 206 46t71 122 q0 85 -77.5 131.5t-219.5 46.5h-18q-43 0 -43 51q0 56 12 99h33q282 0 282 176q0 76 -58.5 121t-144.5 45q-92 0 -157 -43t-92 -127q-75 7 -121 34q-33 18 -33 54z" />
<glyph unicode="&#x438;" horiz-adv-x="1282" d="M174 43v1049q66 16 123 16q55 0 55 -43v-795l570 809q20 29 59 29q25 0 61.5 -15t65.5 -40v-1053h-121q-30 0 -43.5 10.5t-13.5 34.5v780l-570 -809q-20 -28 -59 -28q-25 0 -61.5 15t-65.5 40z" />
<glyph unicode="&#x439;" horiz-adv-x="1282" d="M174 43v1049q66 16 123 16q55 0 55 -43v-795l570 809q20 29 59 29q25 0 61.5 -15t65.5 -40v-1053h-121q-30 0 -43.5 10.5t-13.5 34.5v780l-570 -809q-20 -28 -59 -28q-25 0 -61.5 15t-65.5 40zM348 1475q54 30 103 30q25 0 35.5 -9t15.5 -32q12 -65 48 -99t89 -34 q129 0 147 174h91q31 0 44.5 -10.5t10.5 -30.5q-17 -108 -91 -181t-202 -73q-114 0 -193.5 69t-97.5 196z" />
<glyph unicode="&#x43a;" horiz-adv-x="1185" d="M174 45v1042q65 19 123 19q55 0 55 -43v-492q158 95 316.5 239t263.5 296q68 -24 94.5 -47t26.5 -53q0 -63 -121 -183.5t-275 -234.5q73 -115 161 -223.5t159 -176.5q62 -59 102 -59h41q10 -30 10 -63q0 -30 -36 -55t-90 -25q-73 0 -150 71q-81 75 -170.5 192t-163.5 247 q-80 -53 -168 -101v-395h-121q-32 0 -44.5 10t-12.5 35z" />
<glyph unicode="&#x43b;" horiz-adv-x="1337" d="M23 66q0 42 24 81q53 -24 113 -24q61 0 96 48t53 179q47 332 47 744h752q30 0 42.5 -11t12.5 -36v-1047h-121q-30 0 -43.5 10.5t-13.5 34.5v897h-453q-8 -334 -45 -616q-24 -188 -91.5 -269.5t-188.5 -81.5q-68 0 -126 29.5t-58 61.5z" />
<glyph unicode="&#x43c;" horiz-adv-x="1548" d="M127 45l131 1016q31 20 70 32.5t65 12.5q40 0 58 -35l321 -565l334 588h123q30 0 43 -11t16 -36l133 -1047h-127q-30 0 -42 9.5t-15 33.5l-100 805l-267 -473q-17 -29 -59 -29h-121l-282 502l-107 -848h-121q-31 0 -43.5 11.5t-9.5 33.5z" />
<glyph unicode="&#x43d;" horiz-adv-x="1253" d="M174 45v1042q65 19 123 19q55 0 55 -43v-424h549v455h121q31 0 44 -11t13 -36v-1047h-121q-32 0 -44.5 10t-12.5 35v444h-549v-489h-121q-32 0 -44.5 10t-12.5 35z" />
<glyph unicode="&#x43e;" horiz-adv-x="1286" d="M109 547q0 132 42.5 241.5t116 180.5t170 110t205.5 39t205.5 -39t170 -110t116.5 -180.5t43 -241.5t-43 -241.5t-116.5 -181t-170 -110.5t-205.5 -39t-205.5 39t-170 110.5t-116 181t-42.5 241.5zM291 559q0 -202 106 -316t256 -114q145 0 243.5 104t98.5 302 q0 202 -106 316t-256 114q-145 0 -243.5 -104t-98.5 -302z" />
<glyph unicode="&#x43f;" horiz-adv-x="1253" d="M174 45v1049h848q31 0 44 -11t13 -36v-1047h-121q-32 0 -44.5 10t-12.5 35v897h-549v-942h-121q-32 0 -44.5 10t-12.5 35z" />
<glyph unicode="&#x440;" horiz-adv-x="1310" d="M174 -391v1481q66 16 123 16q55 0 55 -43v-156q55 97 156.5 154t226.5 57q203 0 335 -143t132 -385q0 -132 -43 -247.5t-116 -195.5t-173 -126t-211 -46q-186 0 -307 109v-520h-121q-30 0 -43.5 10.5t-13.5 34.5zM352 240q117 -111 281 -111q167 0 278 130.5t111 326.5 q0 178 -88 279.5t-238 101.5q-104 0 -197.5 -73t-146.5 -212v-442z" />
<glyph unicode="&#x441;" horiz-adv-x="1130" d="M109 580q0 164 69 287.5t186.5 187t266.5 63.5q146 0 254.5 -61t156.5 -158q11 -22 11 -37q0 -33 -33 -51q-48 -28 -121 -35q-61 189 -276 189q-143 0 -238.5 -104t-95.5 -277q0 -88 24.5 -163t66 -128.5t97.5 -91t119.5 -56t130.5 -18.5q147 0 270 63q25 -36 25 -77 q0 -29 -40 -60.5t-117 -54.5t-167 -23q-113 0 -218 41t-188 116t-133 191.5t-50 256.5z" />
<glyph unicode="&#x442;" horiz-adv-x="1075" d="M68 995q0 53 12 99h881q45 0 45 -60v-92h-379v-942h-121q-32 0 -44.5 10t-12.5 35v897h-338q-43 0 -43 53z" />
<glyph unicode="&#x443;" horiz-adv-x="1284" d="M170 449v641q66 16 123 16q55 0 55 -43v-627q0 -307 258 -307q85 0 173 34.5t153 96.5v836h121q31 0 44 -10t13 -35v-1045q0 -104 -35 -196t-101.5 -163.5t-173 -113t-239.5 -41.5q-172 0 -275.5 77.5t-103.5 199.5q0 157 172 258q-184 109 -184 422zM360 -211 q0 -66 55 -106.5t150 -40.5q164 0 265.5 93t101.5 253v131q-71 -65 -170.5 -104.5t-202.5 -39.5q-25 0 -90 9q-109 -75 -109 -195z" />
<glyph unicode="&#x444;" horiz-adv-x="1560" d="M104 547q0 243 159.5 391t418.5 174v379q62 18 123 18q55 0 55 -43v-354q173 -14 305.5 -82t210.5 -192.5t78 -290.5q0 -167 -78 -292.5t-210.5 -193t-305.5 -79.5v-377h-121q-31 0 -44 11t-13 36v330q-169 15 -298 83.5t-204.5 193t-75.5 288.5zM285 559 q0 -180 108.5 -289t288.5 -135v823q-181 -20 -289 -119.5t-108 -279.5zM860 131q188 14 301 115.5t113 285.5t-114 293.5t-300 132.5v-827z" />
<glyph unicode="&#x445;" horiz-adv-x="1161" d="M86 33q0 10 6 22q53 127 151 259t216 239l-348 457q62 94 120 94q26 0 41 -21l314 -413q200 211 284 424h134q45 0 45 -35q0 -9 -7 -23q-53 -126 -149 -257t-211 -238l258 -340q31 -40 56.5 -56t58.5 -16h30q9 -27 9 -57q0 -34 -33.5 -60t-91.5 -26q-45 0 -84.5 28.5 t-93.5 100.5l-234 309q-199 -199 -293 -424h-131q-47 0 -47 33z" />
<glyph unicode="&#x446;" horiz-adv-x="1277" d="M170 301v789q66 16 123 16q55 0 55 -43v-737q0 -104 25.5 -140t93.5 -36h440v944h121q30 0 43.5 -10.5t13.5 -34.5v-899h70q31 0 44 -10.5t13 -35.5v-346h-120q-58 0 -58 45v197h-602q-131 0 -196.5 69.5t-65.5 231.5z" />
<glyph unicode="&#x447;" horiz-adv-x="1255" d="M141 758v329q65 19 123 19q55 0 55 -43v-318q0 -152 62.5 -228.5t193.5 -76.5q87 0 174.5 33.5t153.5 95.5v525h121q31 0 44 -11t13 -36v-1047h-120q-32 0 -45 10t-13 35v379q-71 -63 -170.5 -100t-202.5 -37q-189 0 -289 123.5t-100 347.5z" />
<glyph unicode="&#x448;" horiz-adv-x="1636" d="M170 301v789q66 16 123 16q55 0 55 -43v-737q0 -104 25.5 -140t93.5 -36h260v944h121q30 0 43.5 -10.5t13.5 -34.5v-899h377v944h121q32 0 44.5 -10.5t12.5 -34.5v-1049h-1028q-131 0 -196.5 69.5t-65.5 231.5z" />
<glyph unicode="&#x449;" horiz-adv-x="1652" d="M170 301v789q66 16 123 16q55 0 55 -43v-737q0 -104 25.5 -140t93.5 -36h260v944h121q30 0 43.5 -10.5t13.5 -34.5v-899h377v944h121q32 0 44.5 -10.5t12.5 -34.5v-899h70q32 0 44.5 -10.5t12.5 -35.5v-346h-119q-32 0 -44.5 10.5t-12.5 34.5v197h-979 q-131 0 -196.5 69.5t-65.5 231.5z" />
<glyph unicode="&#x44a;" horiz-adv-x="1427" d="M68 995q0 53 12 99h489q31 0 44.5 -11t13.5 -36v-332q120 43 278 43q196 0 313 -97.5t117 -267.5q0 -184 -128.5 -288.5t-379.5 -104.5h-118q-130 0 -195 69.5t-65 229.5v643h-338q-43 0 -43 53zM627 326q0 -105 25 -140.5t91 -35.5h101q152 0 231.5 61.5t79.5 171.5 q0 107 -74 164t-215 57q-130 0 -239 -31v-247z" />
<glyph unicode="&#x44b;" horiz-adv-x="1599" d="M170 299v788q65 19 123 19q55 0 55 -43v-348q120 43 279 43q196 0 313 -97.5t117 -267.5q0 -184 -128.5 -288.5t-379.5 -104.5h-119q-130 0 -195 69.5t-65 229.5zM348 326q0 -105 25.5 -140.5t91.5 -35.5h102q150 0 230 61.5t80 171.5q0 107 -74 164t-215 57 q-132 0 -240 -31v-247zM1223 223v864q65 19 123 19q55 0 55 -43v-825q0 -58 17.5 -83.5t54.5 -25.5h45q10 -22 10 -63q0 -30 -36 -55t-93 -25q-176 0 -176 237z" />
<glyph unicode="&#x44c;" horiz-adv-x="1148" d="M170 299v788q65 19 123 19q55 0 55 -43v-348q120 43 279 43q196 0 313 -97.5t117 -267.5q0 -184 -128.5 -288.5t-379.5 -104.5h-119q-130 0 -195 69.5t-65 229.5zM348 326q0 -105 25.5 -140.5t91.5 -35.5h102q150 0 230 61.5t80 171.5q0 107 -74 164t-215 57 q-132 0 -240 -31v-247z" />
<glyph unicode="&#x44d;" horiz-adv-x="1163" d="M111 862q0 17 10 37q48 97 156.5 158t254.5 61q149 0 267 -63.5t187 -187t69 -287.5q0 -112 -32.5 -210t-89 -169.5t-131.5 -123t-161 -77t-176 -25.5t-167 23t-117 54.5t-40 60.5q0 41 25 77q123 -63 270 -63q153 0 272.5 89.5t153.5 252.5h-430q-22 0 -31.5 11.5 t-9.5 39.5q0 54 12 98h471q-10 158 -103.5 252.5t-229.5 94.5q-109 0 -178.5 -50t-98.5 -139q-73 7 -121 35q-32 18 -32 51z" />
<glyph unicode="&#x44e;" horiz-adv-x="1716" d="M174 45v1042q65 19 123 19q55 0 55 -43v-434h191q26 227 174 358t354 131q109 0 205.5 -39t170 -110t116.5 -180.5t43 -241.5q0 -133 -43 -242.5t-116.5 -181t-170 -110t-205.5 -38.5q-210 0 -359.5 134.5t-170.5 369.5h-189v-479h-121q-32 0 -44.5 10t-12.5 35zM719 559 q0 -103 30 -187t80.5 -136.5t115 -80.5t136.5 -28q70 0 131 25t109 74t76 128.5t28 180.5q0 103 -30 186t-81 135.5t-115.5 80.5t-135.5 28q-70 0 -131 -25t-109 -74t-76 -128t-28 -179z" />
<glyph unicode="&#x44f;" d="M129 55q0 37 8 56h31q51 0 100 43q90 79 162 204q-124 39 -193 130t-69 225q0 178 120 279.5t326 101.5h330q32 0 44.5 -11t12.5 -36v-1047h-120q-31 0 -44.5 10t-13.5 35v313q-81 -26 -225 -26q-104 -201 -225 -303q-62 -54 -133 -54q-48 0 -79.5 25t-31.5 55zM348 713 q0 -113 81 -170.5t224 -57.5q95 0 170 17v440h-168q-146 0 -226.5 -57.5t-80.5 -171.5z" />
<glyph unicode="&#x450;" d="M109 547q0 130 43.5 239t117 180.5t170.5 111.5t205 40q192 0 313 -113t121 -288q0 -92 -30 -160q-21 -48 -52.5 -66t-89.5 -18h-614q17 -164 124 -254t263 -90q153 0 272 64q25 -32 25 -80q0 -46 -94.5 -92t-231.5 -46q-154 0 -277.5 72.5t-194 203.5t-70.5 296z M293 625h596q16 37 16 84q0 118 -71.5 187t-196.5 69q-139 0 -234 -92t-110 -248zM403 1430q24 49 64 84q21 18 45 18q20 0 43 -23l240 -237l-56 -60q-16 -16 -32 -16t-41 19z" />
<glyph unicode="&#x451;" d="M109 547q0 130 43.5 239t117 180.5t170.5 111.5t205 40q192 0 313 -113t121 -288q0 -92 -30 -160q-21 -48 -52.5 -66t-89.5 -18h-614q17 -164 124 -254t263 -90q153 0 272 64q25 -32 25 -80q0 -46 -94.5 -92t-231.5 -46q-154 0 -277.5 72.5t-194 203.5t-70.5 296z M293 625h596q16 37 16 84q0 118 -71.5 187t-196.5 69q-139 0 -234 -92t-110 -248zM332 1366q0 47 28.5 75.5t73.5 28.5q43 0 75 -31t32 -81q0 -47 -29 -76t-72 -29q-45 0 -76.5 31t-31.5 82zM696 1366q0 47 29 75.5t74 28.5q43 0 74.5 -31t31.5 -81q0 -47 -28.5 -76 t-71.5 -29q-45 0 -77 31t-32 82z" />
<glyph unicode="&#x452;" horiz-adv-x="1280" d="M49 1278q0 49 8 80h117v131q62 18 123 18q55 0 55 -43v-106h318q25 0 36 -13.5t11 -44.5v-61h-365v-264q71 65 170.5 104t202.5 39q188 0 288.5 -124.5t100.5 -348.5v-686q0 -91 -29.5 -174t-80.5 -143q-47 -58 -96 -88.5t-79 -30.5q-20 0 -40.5 22.5t-28.5 48.5 q176 171 176 377v686q0 308 -258 308q-85 0 -173 -34.5t-153 -96.5v-834h-121q-32 0 -44.5 10t-12.5 35v1194h-82q-43 0 -43 39z" />
<glyph unicode="&#x453;" horiz-adv-x="966" d="M178 45v1049h680q25 0 36 -14t11 -46v-92h-549v-942h-120q-31 0 -44.5 10t-13.5 35zM362 1272q17 17 55 57t67 69t63 61t60 49.5t40 17.5q17 0 32 -8t29.5 -25.5t23 -30t22.5 -35.5q-20 -16 -100.5 -85t-131 -106.5t-69.5 -37.5q-17 0 -29 12h-4q-42 42 -58 62z" />
<glyph unicode="&#x454;" horiz-adv-x="1130" d="M109 580q0 164 69 287.5t186.5 187t266.5 63.5q146 0 254.5 -61t156.5 -158q11 -22 11 -37q0 -33 -33 -51q-48 -28 -121 -35q-61 189 -276 189q-136 0 -230 -94.5t-104 -252.5h436q25 0 36 -12.5t11 -44.5v-92h-471q34 -163 153.5 -252.5t272.5 -89.5q147 0 270 63 q25 -36 25 -77q0 -29 -40 -60.5t-117 -54.5t-167 -23q-113 0 -218 41t-188 116t-133 191.5t-50 256.5z" />
<glyph unicode="&#x455;" horiz-adv-x="1021" d="M129 805q0 139 106.5 226t278.5 87q127 0 227.5 -49.5t147.5 -134.5q12 -24 12 -37q0 -26 -29 -49q-46 -34 -122 -43q-27 76 -91.5 118t-148.5 42q-91 0 -147 -45t-56 -115q0 -75 61 -120t203 -81q178 -44 259 -121t81 -200q0 -142 -103.5 -225t-293.5 -83 q-95 0 -179.5 24.5t-129.5 57t-45 60.5q0 50 26 80q143 -70 306 -70q241 0 241 147q0 67 -49.5 108t-173.5 69q-198 45 -289.5 132t-91.5 222z" />
<glyph unicode="&#x456;" horiz-adv-x="552" d="M152 1401q0 49 29.5 78.5t74.5 29.5q46 0 78.5 -32t32.5 -84q0 -49 -29.5 -78t-75.5 -29q-45 0 -77.5 32t-32.5 83zM174 223v864q65 19 123 19q55 0 55 -43v-825q0 -58 17.5 -83.5t54.5 -25.5h45q10 -23 10 -63q0 -30 -36 -55t-93 -25q-176 0 -176 237z" />
<glyph unicode="&#x457;" horiz-adv-x="552" d="M-23 1366q0 47 29 76t74 29q43 0 74.5 -31t31.5 -82q0 -47 -28.5 -76t-71.5 -29q-45 0 -77 31t-32 82zM174 223v864q65 19 123 19q55 0 55 -43v-825q0 -58 17.5 -83.5t54.5 -25.5h45q10 -23 10 -63q0 -30 -36 -55t-93 -25q-176 0 -176 237zM342 1366q0 47 28.5 76 t73.5 29q43 0 75 -31.5t32 -81.5q0 -47 -29 -76t-72 -29q-45 0 -76.5 31t-31.5 82z" />
<glyph unicode="&#x458;" horiz-adv-x="538" d="M8 -346q176 171 176 377v1056q65 19 123 19q55 0 55 -43v-1045q0 -91 -29.5 -174t-80.5 -143q-47 -58 -95.5 -88.5t-78.5 -30.5q-20 0 -41 23t-29 49zM162 1401q0 49 29.5 78.5t74.5 29.5q46 0 78.5 -32t32.5 -84q0 -49 -29.5 -78t-75.5 -29q-45 0 -77.5 32t-32.5 83z " />
<glyph unicode="&#x459;" horiz-adv-x="1937" d="M20 66q0 45 27 79q52 -22 113 -22t95.5 47.5t53.5 179.5q45 318 45 744h725q56 0 56 -50v-329q124 43 278 43q197 0 314.5 -97.5t117.5 -267.5q0 -184 -128.5 -288.5t-379.5 -104.5h-118q-131 0 -197 69.5t-66 229.5v643h-426q-3 -272 -45 -618q-24 -188 -90.5 -268.5 t-187.5 -80.5q-69 0 -128 29.5t-59 61.5zM1135 326q0 -104 25.5 -140t92.5 -36h101q151 0 230 61t79 172q0 107 -74 164t-215 57q-130 0 -239 -31v-247z" />
<glyph unicode="&#x45a;" horiz-adv-x="1853" d="M174 45v1042q65 19 123 19q55 0 55 -43v-424h520v455h121q32 0 45 -11t13 -36v-332q124 43 278 43q197 0 313.5 -97.5t116.5 -267.5q0 -184 -127.5 -288.5t-378.5 -104.5h-118q-131 0 -197 69.5t-66 229.5v190h-520v-489h-121q-32 0 -44.5 10t-12.5 35zM1051 326 q0 -104 25.5 -140t92.5 -36h101q151 0 230 61t79 172q0 107 -74 164t-215 57q-130 0 -239 -31v-247z" />
<glyph unicode="&#x45b;" horiz-adv-x="1312" d="M49 1278q0 49 8 80h117v131q62 18 123 18q55 0 55 -43v-106h318q25 0 36 -13.5t11 -44.5v-61h-365v-264q71 65 170.5 104t202.5 39q188 0 288.5 -124.5t100.5 -348.5v-407q0 -58 17.5 -83.5t54.5 -25.5h45q10 -22 10 -63q0 -30 -36 -55t-93 -25q-176 0 -176 237v434 q0 308 -258 308q-85 0 -173 -34.5t-153 -96.5v-834h-121q-32 0 -44.5 10t-12.5 35v1194h-82q-43 0 -43 39z" />
<glyph unicode="&#x45c;" horiz-adv-x="1185" d="M174 45v1042q65 19 123 19q55 0 55 -43v-492q158 95 316.5 239t263.5 296q68 -24 94.5 -47t26.5 -53q0 -63 -121 -183.5t-275 -234.5q73 -115 161 -223.5t159 -176.5q62 -59 102 -59h41q10 -30 10 -63q0 -30 -36 -55t-90 -25q-73 0 -150 71q-81 75 -170.5 192t-163.5 247 q-80 -53 -168 -101v-395h-121q-32 0 -44.5 10t-12.5 35zM422 1272l240 237q23 23 43 23q23 0 45 -19q39 -34 63 -83l-262 -216q-24 -18 -41 -18t-33 16z" />
<glyph unicode="&#x45d;" horiz-adv-x="1282" d="M174 43v1049q66 16 123 16q55 0 55 -43v-795l570 809q20 29 59 29q25 0 61.5 -15t65.5 -40v-1053h-121q-30 0 -43.5 10.5t-13.5 34.5v780l-570 -809q-20 -28 -59 -28q-25 0 -61.5 15t-65.5 40zM403 1430q23 47 64 83q22 19 45 19q20 0 43 -23l240 -237l-56 -60 q-16 -16 -32 -16q-17 0 -41 18z" />
<glyph unicode="&#x45e;" horiz-adv-x="1284" d="M170 449v641q66 16 123 16q55 0 55 -43v-627q0 -307 258 -307q85 0 173 34.5t153 96.5v836h121q31 0 44 -10t13 -35v-1045q0 -104 -35 -196t-101.5 -163.5t-173 -113t-239.5 -41.5q-172 0 -275.5 77.5t-103.5 199.5q0 157 172 258q-184 109 -184 422zM348 1475 q54 30 103 30q25 0 35.5 -9t15.5 -32q12 -65 48 -99t89 -34q129 0 147 174h91q31 0 44.5 -10.5t10.5 -30.5q-17 -108 -91 -181t-202 -73q-114 0 -193.5 69t-97.5 196zM360 -211q0 -66 55 -106.5t150 -40.5q164 0 265.5 93t101.5 253v131q-71 -65 -170.5 -104.5t-202.5 -39.5 q-25 0 -90 9q-109 -75 -109 -195z" />
<glyph unicode="&#x45f;" horiz-adv-x="1259" d="M170 299v788q65 19 123 19q55 0 55 -43v-737q0 -102 27.5 -139t89.5 -37h442v944h121q31 0 44 -11t13 -36v-1047h-350v-242h-121q-32 0 -44.5 11t-12.5 36v195h-127q-130 0 -195 69.5t-65 229.5z" />
<glyph unicode="&#x490;" horiz-adv-x="1128" d="M197 45v1389h667v256q62 18 131 18q56 0 56 -43v-391h-668v-1274h-129q-30 0 -43.5 10.5t-13.5 34.5z" />
<glyph unicode="&#x491;" horiz-adv-x="964" d="M174 45v1049h547v231q62 18 123 18q55 0 55 -43v-358h-547v-942h-121q-32 0 -44.5 10t-12.5 35z" />
<glyph unicode="&#x1e80;" horiz-adv-x="2279" d="M98 1391q80 53 144 53q23 0 35.5 -8t19.5 -29l348 -1188q232 510 369 1215h170q68 0 82 -50l336 -1165q246 527 374 1215h135q34 0 47.5 -13t8.5 -39q-133 -677 -436 -1335q-12 -26 -31 -36.5t-53 -10.5h-162l-342 1200q-135 -622 -381 -1153q-20 -47 -84 -47h-154z M905 1786q24 49 64 84q21 18 45 18q20 0 43 -23l240 -237l-56 -60q-16 -16 -32 -16t-41 19z" />
<glyph unicode="&#x1e81;" horiz-adv-x="1789" d="M92 1051q81 57 141 57q33 0 43 -35l256 -893q169 386 254 914h154q58 0 72 -52l252 -862q170 390 249 914h123q61 0 52 -52q-88 -524 -306 -1001q-17 -41 -67 -41h-168l-246 879q-76 -430 -254 -842q-15 -37 -65 -37h-164zM649 1430q23 47 64 83q22 19 45 19q20 0 43 -23 l239 -237l-55 -60q-16 -16 -33 -16t-41 18z" />
<glyph unicode="&#x1e82;" horiz-adv-x="2279" d="M98 1391q80 53 144 53q23 0 35.5 -8t19.5 -29l348 -1188q232 510 369 1215h170q68 0 82 -50l336 -1165q246 527 374 1215h135q34 0 47.5 -13t8.5 -39q-133 -677 -436 -1335q-12 -26 -31 -36.5t-53 -10.5h-162l-342 1200q-135 -622 -381 -1153q-20 -47 -84 -47h-154z M942 1628l240 237q23 23 43 23q24 0 45 -18q40 -35 64 -84l-263 -215q-25 -19 -41 -19t-32 16z" />
<glyph unicode="&#x1e83;" horiz-adv-x="1789" d="M92 1051q81 57 141 57q33 0 43 -35l256 -893q169 386 254 914h154q58 0 72 -52l252 -862q170 390 249 914h123q61 0 52 -52q-88 -524 -306 -1001q-17 -41 -67 -41h-168l-246 879q-76 -430 -254 -842q-15 -37 -65 -37h-164zM700 1272l240 237q23 23 43 23q23 0 45 -19 q41 -36 64 -83l-263 -216q-24 -18 -41 -18q-16 0 -32 16z" />
<glyph unicode="&#x1e84;" horiz-adv-x="2279" d="M98 1391q80 53 144 53q23 0 35.5 -8t19.5 -29l348 -1188q232 510 369 1215h170q68 0 82 -50l336 -1165q246 527 374 1215h135q34 0 47.5 -13t8.5 -39q-133 -677 -436 -1335q-12 -26 -31 -36.5t-53 -10.5h-162l-342 1200q-135 -622 -381 -1153q-20 -47 -84 -47h-154z M854 1722q0 47 29 76t74 29q43 0 74.5 -31t31.5 -82q0 -47 -28.5 -76t-71.5 -29q-45 0 -77 31t-32 82zM1219 1722q0 47 28.5 76t73.5 29q43 0 75 -31.5t32 -81.5q0 -47 -29 -76t-72 -29q-45 0 -76.5 31t-31.5 82z" />
<glyph unicode="&#x1e85;" horiz-adv-x="1789" d="M92 1051q81 57 141 57q33 0 43 -35l256 -893q169 386 254 914h154q58 0 72 -52l252 -862q170 390 249 914h123q61 0 52 -52q-88 -524 -306 -1001q-17 -41 -67 -41h-168l-246 879q-76 -430 -254 -842q-15 -37 -65 -37h-164zM610 1366q0 47 29 75.5t74 28.5q43 0 74.5 -31 t31.5 -81q0 -47 -28.5 -76t-71.5 -29q-45 0 -77 31t-32 82zM975 1366q0 47 28.5 75.5t73.5 28.5q43 0 75 -31t32 -81q0 -47 -29 -76t-72 -29q-45 0 -76.5 31t-31.5 82z" />
<glyph unicode="&#x1ef2;" horiz-adv-x="1353" d="M78 1362q79 82 139 82q31 0 49 -33l410 -749q280 380 416 772h133q32 0 45 -16t4 -40q-177 -473 -510 -889v-489h-129q-32 0 -44.5 10t-12.5 35v436zM438 1786q24 49 64 84q21 18 45 18q20 0 43 -23l240 -237l-56 -60q-16 -16 -32 -16t-41 19z" />
<glyph unicode="&#x1ef3;" horiz-adv-x="1284" d="M170 449q0 -313 184 -422q-172 -101 -172 -258q0 -122 103.5 -199.5t275.5 -77.5q133 0 239.5 41.5t173 113t101.5 163.5t35 196v1045q0 25 -13 35t-44 10h-121v-836q-65 -62 -153 -96.5t-173 -34.5q-258 0 -258 307v627q0 43 -55 43q-57 0 -123 -16v-641zM360 -211 q0 120 109 195q65 -9 90 -9q103 0 202.5 39.5t170.5 104.5v-131q0 -160 -101.5 -253t-265.5 -93q-95 0 -150 40.5t-55 106.5zM406 1430q24 49 63 83q22 19 45 19q20 0 43 -23l240 -237l-56 -60q-16 -16 -32 -16q-17 0 -41 18z" />
<glyph unicode="&#x2000;" horiz-adv-x="1006" />
<glyph unicode="&#x2001;" horiz-adv-x="2013" />
<glyph unicode="&#x2002;" horiz-adv-x="1006" />
<glyph unicode="&#x2003;" horiz-adv-x="2013" />
<glyph unicode="&#x2004;" horiz-adv-x="671" />
<glyph unicode="&#x2005;" horiz-adv-x="503" />
<glyph unicode="&#x2006;" horiz-adv-x="335" />
<glyph unicode="&#x2007;" horiz-adv-x="335" />
<glyph unicode="&#x2008;" horiz-adv-x="251" />
<glyph unicode="&#x2009;" horiz-adv-x="409" />
<glyph unicode="&#x200a;" horiz-adv-x="111" />
<glyph unicode="&#x2010;" horiz-adv-x="933" d="M176 655q0 55 12 105h527q25 0 36 -13.5t11 -44.5v-102h-545q-41 0 -41 55z" />
<glyph unicode="&#x2011;" horiz-adv-x="956" d="M186 655q0 51 13 105h526q25 0 36 -13.5t11 -44.5v-102h-545q-41 0 -41 55z" />
<glyph unicode="&#x2012;" horiz-adv-x="1392" d="M174 655q0 47 14 105h986q45 0 45 -58v-102h-1002q-43 0 -43 55z" />
<glyph unicode="&#x2013;" horiz-adv-x="1024" d="M0 655q0 47 14 105h965q45 0 45 -58v-102h-981q-43 0 -43 55z" />
<glyph unicode="&#x2014;" horiz-adv-x="2048" d="M0 655q0 47 14 105h1989q45 0 45 -58v-102h-2005q-43 0 -43 55z" />
<glyph unicode="&#x2015;" horiz-adv-x="2048" d="M205 655q0 47 14 105h1579q45 0 45 -58v-102h-1595q-43 0 -43 55z" />
<glyph unicode="&#x2016;" horiz-adv-x="915" d="M219 -221v1743q66 12 107 12q57 0 57 -43v-1757h-107q-32 0 -44.5 10.5t-12.5 34.5zM532 -221v1743q66 12 109 12q55 0 55 -43v-1757h-106q-58 0 -58 45z" />
<glyph unicode="&#x2017;" horiz-adv-x="1228" d="M102 -129q0 31 11 80h968q24 0 34.5 -13.5t10.5 -43.5v-78h-981q-43 0 -43 55zM102 -367q0 31 11 80h968q24 0 34.5 -13.5t10.5 -43.5v-78h-981q-43 0 -43 55z" />
<glyph unicode="&#x2018;" horiz-adv-x="673" d="M221 1155q0 151 105 275q34 42 70 64t48 17q28 -16 35 -49q-99 -96 -114 -205q39 -11 63.5 -43t24.5 -77q0 -52 -31.5 -83.5t-81.5 -31.5q-49 0 -84 35t-35 98z" />
<glyph unicode="&#x2019;" horiz-adv-x="673" d="M195 1079q99 96 114 205q-38 11 -63 43t-25 78q0 52 31.5 83.5t81.5 31.5q49 0 84 -35.5t35 -98.5q0 -150 -105 -274q-34 -42 -70.5 -64.5t-48.5 -17.5q-27 16 -34 49z" />
<glyph unicode="&#x201a;" horiz-adv-x="673" d="M195 -225q99 96 114 205q-39 11 -63.5 43t-24.5 77q0 52 31.5 83.5t81.5 31.5q49 0 84 -35t35 -98q0 -151 -105 -275q-33 -42 -70 -64t-49 -17q-27 16 -34 49z" />
<glyph unicode="&#x201b;" horiz-adv-x="673" d="M221 1386q0 63 35 98.5t84 35.5q50 0 81.5 -31.5t31.5 -83.5q0 -46 -25 -78t-63 -43q15 -109 114 -205q-7 -33 -35 -49q-12 -5 -48 17.5t-70 64.5q-105 124 -105 274z" />
<glyph unicode="&#x201c;" horiz-adv-x="1005" d="M221 1155q0 151 105 275q34 42 70 64t48 17q28 -16 35 -49q-99 -96 -114 -205q39 -11 63.5 -43t24.5 -77q0 -52 -31.5 -83.5t-81.5 -31.5q-49 0 -84 35t-35 98zM553 1155q0 152 104 275q33 42 70 64t49 17q28 -16 35 -49q-100 -97 -115 -205q39 -11 63.5 -43t24.5 -77 q0 -52 -31 -83.5t-81 -31.5q-49 0 -84 35t-35 98z" />
<glyph unicode="&#x201d;" horiz-adv-x="1005" d="M195 1079q99 96 114 205q-38 11 -63 43t-25 78q0 52 31.5 83.5t81.5 31.5q49 0 84 -35.5t35 -98.5q0 -150 -105 -274q-34 -42 -70.5 -64.5t-48.5 -17.5q-27 16 -34 49zM526 1079q100 97 115 205q-38 11 -63 43t-25 78q0 52 31.5 83.5t81.5 31.5q49 0 83.5 -35.5 t34.5 -98.5q0 -151 -104 -274q-34 -42 -70.5 -64.5t-48.5 -17.5q-28 16 -35 49z" />
<glyph unicode="&#x201e;" horiz-adv-x="1005" d="M195 -225q99 96 114 205q-39 11 -63.5 43t-24.5 77q0 52 31.5 83.5t81.5 31.5q49 0 84 -35t35 -98q0 -151 -105 -275q-33 -42 -70 -64t-49 -17q-27 16 -34 49zM526 -225q100 97 115 205q-39 11 -63.5 43t-24.5 77q0 52 31.5 83.5t81.5 31.5q49 0 83.5 -35t34.5 -98 q0 -152 -104 -275q-33 -42 -70 -64t-49 -17q-28 16 -35 49z" />
<glyph unicode="&#x201f;" horiz-adv-x="1005" d="M221 1386q0 63 35 98.5t84 35.5q50 0 81.5 -31.5t31.5 -83.5q0 -46 -25 -78t-63 -43q15 -109 114 -205q-7 -33 -35 -49q-12 -5 -48 17.5t-70 64.5q-105 124 -105 274zM553 1386q0 63 35 98.5t84 35.5q50 0 81 -31.5t31 -83.5q0 -46 -25 -78t-63 -43q15 -108 115 -205 q-7 -33 -35 -49q-12 -5 -48.5 17.5t-70.5 64.5q-104 123 -104 274z" />
<glyph unicode="&#x2020;" horiz-adv-x="1067" d="M109 1083q0 49 10 97l342 -19l-17 355q59 16 121 16q31 0 45 -10.5t13 -32.5l-17 -328l305 19q25 0 35 -14t10 -46v-92l-346 19v-1315h-96q-31 0 -44 11t-13 36v1268l-305 -17q-23 0 -33 12t-10 41z" />
<glyph unicode="&#x2021;" horiz-adv-x="1089" d="M119 137q0 48 10 96l338 -18v832l-305 -17q-22 0 -32.5 12t-10.5 41q0 49 10 97l342 -19l-14 355q56 16 118 16q61 0 58 -39l-17 -332l306 19q25 0 36 -14t11 -46v-92l-348 19v-832l301 18q25 0 36 -13t11 -44v-94l-353 18l17 -325q2 -22 -12 -32.5t-46 -10.5 q-62 0 -118 16l14 352l-309 -16q-22 0 -32.5 12t-10.5 41z" />
<glyph unicode="&#x2022;" horiz-adv-x="884" d="M219 690q0 100 60.5 160.5t156.5 60.5q95 0 163.5 -66.5t68.5 -174.5q0 -100 -60.5 -160.5t-158.5 -60.5q-94 0 -162 66.5t-68 174.5z" />
<glyph unicode="&#x2024;" horiz-adv-x="673" d="M221 100q0 52 31.5 83.5t81.5 31.5q48 0 83.5 -34.5t35.5 -90.5q0 -52 -31.5 -83.5t-81.5 -31.5q-48 0 -83.5 34.5t-35.5 90.5z" />
<glyph unicode="&#x2025;" horiz-adv-x="1347" d="M221 100q0 52 31.5 83.5t81.5 31.5q48 0 83.5 -34.5t35.5 -90.5q0 -52 -31.5 -83.5t-81.5 -31.5q-48 0 -83.5 34.5t-35.5 90.5zM895 100q0 52 31.5 83.5t81.5 31.5q48 0 83 -34.5t35 -90.5q0 -52 -31 -83.5t-81 -31.5q-48 0 -83.5 34.5t-35.5 90.5z" />
<glyph unicode="&#x2026;" horiz-adv-x="2021" d="M221 100q0 52 31.5 83.5t81.5 31.5q48 0 83.5 -34.5t35.5 -90.5q0 -52 -31.5 -83.5t-81.5 -31.5q-48 0 -83.5 34.5t-35.5 90.5zM895 100q0 52 31.5 83.5t81.5 31.5q48 0 83 -34.5t35 -90.5q0 -52 -31 -83.5t-81 -31.5q-48 0 -83.5 34.5t-35.5 90.5zM1569 100 q0 52 31 83.5t81 31.5q48 0 83.5 -34.5t35.5 -90.5q0 -52 -31 -83.5t-81 -31.5q-48 0 -83.5 34.5t-35.5 90.5z" />
<glyph unicode="&#x202f;" horiz-adv-x="402" />
<glyph unicode="&#x2030;" horiz-adv-x="2576" d="M109 1090q0 162 96.5 261t240.5 99q145 0 242.5 -99t97.5 -261q0 -163 -97.5 -262t-242.5 -99t-241 98.5t-96 262.5zM268 1098q0 -108 51.5 -170t137.5 -62q76 0 122 59t46 158q0 107 -51 168.5t-136 61.5q-77 0 -123.5 -58t-46.5 -157zM539 31q0 10 6 22l577 1381h78 q53 0 53 -31q0 -11 -6 -23l-577 -1380h-78q-53 0 -53 31zM1006 344q0 162 96.5 261.5t240.5 99.5q145 0 242.5 -99.5t97.5 -261.5q0 -163 -97.5 -261.5t-242.5 -98.5t-241 98.5t-96 261.5zM1165 352q0 -108 51.5 -169.5t137.5 -61.5q76 0 122 59t46 158q0 106 -51 167.5 t-136 61.5q-77 0 -123.5 -58t-46.5 -157zM1790 344q0 162 97 261.5t241 99.5q145 0 242.5 -99.5t97.5 -261.5q0 -163 -97.5 -261.5t-242.5 -98.5t-241.5 98.5t-96.5 261.5zM1950 352q0 -108 51 -169.5t137 -61.5q76 0 122 59t46 158q0 107 -50.5 168t-135.5 61 q-77 0 -123.5 -58t-46.5 -157z" />
<glyph unicode="&#x2032;" horiz-adv-x="643" d="M166 920l127 510q53 18 125 18q77 0 55 -66l-168 -508h-86q-31 0 -45 11.5t-8 34.5z" />
<glyph unicode="&#x2033;" horiz-adv-x="985" d="M166 920l127 510q53 18 125 18q77 0 55 -66l-168 -508h-86q-31 0 -45 11.5t-8 34.5zM496 920l139 510q53 18 125 18q77 0 55 -66l-180 -508h-86q-31 0 -45 11.5t-8 34.5z" />
<glyph unicode="&#x2039;" horiz-adv-x="755" d="M129 616v82l426 301q24 17 37 17q31 0 31 -49q0 -47 -13 -101l-334 -227l316 -217q29 -20 29 -60v-131l-461 324q-31 27 -31 61z" />
<glyph unicode="&#x203a;" horiz-adv-x="755" d="M129 967q0 49 31 49q13 0 37 -17l426 -301v-82q0 -34 -31 -61l-461 -324v131q0 40 29 60l315 217l-334 227q-12 49 -12 101z" />
<glyph unicode="&#x203c;" horiz-adv-x="1036" d="M186 100q0 52 31.5 83.5t79.5 31.5q50 0 85.5 -34.5t35.5 -90.5q0 -53 -32 -84t-81 -31t-84 34.5t-35 90.5zM199 1161v269q66 16 141 16q63 0 63 -45v-240q0 -393 -28 -794h-94q-30 0 -41.5 10.5t-14.5 34.5q-26 396 -26 749zM618 100q0 52 31.5 83.5t79.5 31.5 q50 0 85.5 -34.5t35.5 -90.5q0 -53 -32 -84t-81 -31t-84 34.5t-35 90.5zM631 1161v269q66 16 141 16q64 0 64 -45v-240q0 -378 -29 -794h-94q-30 0 -41.5 10.5t-14.5 34.5q-26 396 -26 749z" />
<glyph unicode="&#x203e;" horiz-adv-x="854" d="M152 1305q0 38 12 84h498q21 0 29.5 -12t8.5 -40v-80h-512q-36 0 -36 48z" />
<glyph unicode="&#x2044;" horiz-adv-x="350" d="M-180 33q0 12 6 24l575 1377h80q49 0 49 -33q0 -13 -6 -25l-575 -1376h-80q-49 0 -49 33z" />
<glyph unicode="&#x205f;" horiz-adv-x="503" />
<glyph unicode="&#x20a0;" horiz-adv-x="1591" d="M86 969q0 223 132.5 356t328.5 133q118 0 209 -46t145 -132q21 -35 21 -59q0 -29 -33 -45q-54 -26 -105 -29q-59 158 -237 158q-119 0 -199 -93.5t-80 -240.5q0 -97 30 -175t82 -128t119.5 -76.5t145.5 -26.5q100 0 168 23v418h627q41 0 41 -54q0 -50 -13 -100h-473v-266 h365q25 0 35 -13.5t10 -44.5v-94h-410v-67q0 -122 32 -168.5t116 -46.5h315q25 0 35 -13.5t10 -44.5v-94h-381q-161 0 -235 86t-74 295v72q-75 -35 -203 -35q-225 0 -374.5 151t-149.5 400z" />
<glyph unicode="&#x20a1;" horiz-adv-x="1406" d="M119 760q0 155 47.5 283.5t129.5 215t189 137.5t230 60l37 158h51q29 0 38 -10.5t3 -38.5l-25 -109q58 -6 115 -18l41 176h51q29 0 38 -10.5t3 -38.5l-37 -158q193 -78 277 -250q10 -20 10 -35q0 -46 -55 -69q-47 -21 -105 -27q-57 137 -166 207l-246 -1079 q84 -19 168 -19q191 0 332 78q25 -41 25 -86q0 -31 -50 -66t-141.5 -60.5t-193.5 -25.5q-89 0 -176 19l-39 -174h-52q-29 0 -37.5 10.5t-2.5 38.5l32 149q-56 21 -108 48l-56 -246h-51q-29 0 -38 10.5t-3 38.5l58 254q-139 104 -216 267t-77 370zM307 766q0 -272 152 -440 l219 962q-160 -29 -265.5 -167t-105.5 -355zM543 248q53 -40 106 -62l248 1090q-52 15 -115 18z" />
<glyph unicode="&#x20a2;" horiz-adv-x="1406" d="M119 760q0 163 52.5 296.5t142.5 220.5t206.5 134t247.5 47q188 0 330 -82.5t209 -218.5q10 -20 10 -35q0 -46 -55 -69q-47 -21 -105 -27q-51 129 -154.5 199.5t-244.5 70.5q-88 0 -168 -35t-143.5 -100t-101.5 -167.5t-38 -227.5q0 -201 87 -347.5t235 -217.5v673 q46 15 137 15q41 0 41 -35v-123q31 70 100.5 114t153.5 44q69 0 121 -25q41 -17 41 -53q0 -21 -17 -45q-21 -33 -67 -66q-53 35 -127 35t-128 -47.5t-77 -134.5v-410q66 -8 106 -8q191 0 332 78q25 -41 25 -86q0 -31 -50 -66t-141.5 -60.5t-193.5 -25.5q-217 0 -390.5 94.5 t-274.5 274.5t-101 416z" />
<glyph unicode="&#x20a3;" horiz-adv-x="1124" d="M41 543q0 32 10 65h142v152h-123q-29 0 -29 35q0 34 10 67h142v572h813q41 0 41 -54q0 -52 -13 -106h-655v-412h514q20 0 28.5 -10.5t8.5 -38.5v-53h-551v-152h514q21 0 29 -10t8 -39v-51h-551v-508h-129q-32 0 -44.5 10t-12.5 35v463h-123q-29 0 -29 35z" />
<glyph unicode="&#x20a4;" horiz-adv-x="1220" d="M106 502q0 30 11 67h131v150h-113q-29 0 -29 37q0 28 11 65h131v168q0 218 118 343.5t310 125.5q149 0 260 -79t162 -208q12 -27 12 -49q0 -30 -43 -49q-59 -27 -121 -33q-33 129 -104 192.5t-166 63.5q-110 0 -176 -78t-66 -221v-176h408q22 0 30.5 -10.5t8.5 -38.5v-53 h-447v-150h408q22 0 30.5 -11t8.5 -40v-51h-447q-1 -120 -24.5 -192t-73.5 -117h751q46 0 46 -58v-100h-955q-25 0 -36 12.5t-11 44.5v86q70 58 93.5 126.5t23.5 197.5h-113q-29 0 -29 35z" />
<glyph unicode="&#x20a6;" horiz-adv-x="1470" d="M57 590q0 20 9 65h127v125h-107q-29 0 -29 35q0 21 9 66h127v508q32 24 72 40.5t65 16.5q36 0 55 -31l342 -534h365v553h129q30 0 43.5 -10.5t13.5 -34.5v-508h98q21 0 29 -11t8 -39v-51h-135v-125h98q22 0 29.5 -10.5t7.5 -38.5v-51h-135v-510q-32 -24 -72 -40.5 t-65 -16.5q-35 0 -56 30l-344 537h-362v-555h-129q-30 0 -43.5 10.5t-13.5 34.5v510h-107q-29 0 -29 35zM379 655h299l-82 125h-217v-125zM379 881h153l-153 237v-237zM793 780l79 -125h220v125h-299zM936 555l156 -240v240h-156z" />
<glyph unicode="&#x20a7;" horiz-adv-x="2369" d="M195 45v1389h241q435 0 541 -340h164v307q61 18 123 18q55 0 55 -43v-282h305q38 0 41 -43q93 67 231 67q120 0 206.5 -48t135.5 -134q13 -22 13 -39q0 -26 -29 -49q-51 -38 -125 -43q-58 160 -205 160q-76 0 -122 -44.5t-46 -109.5q0 -76 53 -116.5t177 -73.5 q307 -82 307 -320q0 -140 -99.5 -220.5t-287.5 -80.5h-391q-163 0 -252.5 105.5t-89.5 300.5v536h-142v-29q0 -121 -40 -219.5t-107.5 -161.5t-154.5 -97t-183 -34q-67 0 -133 17v-418h-129q-31 0 -44 10t-13 35zM381 571q41 -10 104 -10q138 0 233 94t95 263q0 170 -94 263 t-236 93h-102v-703zM1319 362q0 -108 54.5 -159t146.5 -51h333q230 0 230 143q0 65 -43 106t-148 68q-177 43 -261.5 125t-84.5 215q0 73 31 133h-258v-580z" />
<glyph unicode="&#x20a8;" horiz-adv-x="2000" d="M195 45v1389h311q257 0 409 -132.5t152 -363.5q0 -162 -76 -276t-207 -170q78 -192 181 -310q28 -31 53.5 -43t60.5 -12h37q8 -24 8 -59q0 -37 -35.5 -65t-101.5 -28q-52 0 -90.5 20.5t-77.5 67.5q-120 144 -209 383q-29 -4 -88 -4q-82 0 -141 15v-457h-129q-31 0 -44 10 t-13 35zM381 612q46 -10 113 -10q175 0 277.5 87t102.5 249t-102 249t-278 87h-113v-662zM1190 807q0 139 94 225t248 86q114 0 200.5 -49t133.5 -135q12 -24 12 -45t-29 -43q-45 -33 -123 -41q-28 77 -79.5 118.5t-118.5 41.5q-73 0 -117.5 -44t-44.5 -112 q0 -75 54.5 -119.5t168.5 -83.5q152 -50 226.5 -128t74.5 -195q0 -137 -95.5 -222.5t-260.5 -85.5q-134 0 -223.5 46.5t-89.5 93.5q0 53 24 80q139 -68 268 -68q94 0 146.5 38.5t52.5 108.5q0 63 -44 106.5t-140 72.5q-172 53 -255 139t-83 215z" />
<glyph unicode="&#x20a9;" horiz-adv-x="2279" d="M55 557q0 31 11 68h268l-39 123h-211q-29 0 -29 34q0 31 11 68h198l-166 541q80 53 144 53q23 0 35.5 -8t19.5 -29l162 -557h415q81 285 140 584h170q68 0 82 -50l153 -534h418q75 251 139 584h135q34 0 47.5 -13t8.5 -39q-49 -249 -131 -532h157q22 0 30.5 -10.5 t8.5 -38.5v-53h-229q-6 -20 -41 -123h231q22 0 30.5 -11t8.5 -39v-53h-305q-84 -233 -196 -475q-12 -26 -31 -36.5t-53 -10.5h-162l-150 522h-383q-93 -265 -190 -475q-20 -47 -84 -47h-154l-159 522h-281q-29 0 -29 35zM489 748l35 -123h279q10 29 41 123h-355zM555 522 l90 -303q67 146 123 303h-213zM987 625h320l-35 123h-246q-7 -23 -20.5 -65.5t-18.5 -57.5zM1055 850h186l-98 350q-45 -205 -88 -350zM1448 748l37 -123h280q16 45 39 123h-356zM1513 522l89 -303q64 140 124 303h-213z" />
<glyph unicode="&#x20aa;" horiz-adv-x="1837" d="M195 45v1389h503q267 0 395 -145t128 -441v-332h-129q-31 0 -44.5 10t-13.5 35v277q0 126 -22.5 212.5t-67.5 135t-103.5 68.5t-140.5 20h-319v-1274h-129q-31 0 -44 10t-13 35zM614 586v311q68 21 131 21q56 0 56 -44v-280q0 -126 21 -211.5t65 -134.5t103.5 -69.5 t144.5 -20.5h319v1276h129q30 0 43.5 -11.5t13.5 -36.5v-1386h-503q-267 0 -395 145t-128 441z" />
<glyph unicode="&#x20ab;" horiz-adv-x="1335" d="M109 463q0 123 43.5 230.5t117 182.5t172.5 117.5t209 42.5q180 0 307 -108v250h-329q-41 0 -41 39q0 48 8 79h362v138h121q58 0 58 -48v-90h77q25 0 35.5 -13t10.5 -44v-61h-123v-936q0 -62 19 -87.5t58 -25.5h41q11 -33 11 -63t-37 -55t-96 -25q-70 0 -116.5 52 t-55.5 150q-140 -213 -386 -213q-199 0 -332.5 134t-133.5 354zM289 467q0 -155 89.5 -247.5t235.5 -92.5q108 0 199.5 71.5t144.5 213.5v360q-117 111 -280 111q-165 0 -277 -119t-112 -297zM291 -270q0 54 12 88h807q25 0 36 -13.5t11 -44.5v-84h-825q-41 0 -41 54z" />
<glyph unicode="&#x20ac;" horiz-adv-x="1406" d="M12 563q0 29 11 66h104q-8 55 -8 131v20h-78q-29 0 -29 35q0 31 11 68h104q18 135 76.5 245t145 181.5t194 110t225.5 38.5q188 0 330 -82.5t209 -218.5q10 -20 10 -35q0 -46 -55 -69q-47 -21 -105 -27q-51 129 -154.5 199.5t-244.5 70.5q-161 0 -285.5 -109.5 t-157.5 -303.5h504q20 0 28.5 -10.5t8.5 -38.5v-54h-549v-14q0 -65 10 -137h502q21 0 29 -10t8 -39v-52h-514q62 -187 214.5 -290t356.5 -103q191 0 332 78q25 -41 25 -86q0 -31 -50 -66t-141.5 -60.5t-193.5 -25.5q-273 0 -473 148t-265 405h-106q-29 0 -29 35z" />
<glyph unicode="&#x2122;" horiz-adv-x="1509" d="M63 1364q0 28 11 70h491q24 0 34.5 -11t10.5 -37v-61h-209v-594h-82q-27 0 -38 9t-11 28v557h-166q-41 0 -41 39zM655 770l70 639q54 35 92 35q19 0 28.5 -6t18.5 -23l172 -334l181 353h81q49 0 52 -39l71 -664h-86q-27 0 -37.5 7t-11.5 30l-51 469l-131 -268 q-14 -25 -51 -25h-72l-145 293l-54 -506h-77q-28 0 -39 8.5t-11 30.5z" />
<glyph unicode="&#x2202;" horiz-adv-x="1314" d="M104 434q0 107 39.5 196.5t108 149.5t160 93.5t194.5 33.5q112 0 214 -37.5t175 -99.5q-6 131 -41 233t-91.5 165t-128.5 95.5t-156 32.5q-104 0 -176.5 -56.5t-96.5 -166.5q-79 7 -125 37q-37 22 -37 51q0 28 15 58q56 114 166.5 176.5t259.5 62.5q265 0 431.5 -204 t166.5 -552v-32q0 -322 -160 -508.5t-424 -186.5q-221 0 -357.5 131t-136.5 328zM291 428q0 -131 85.5 -211t213.5 -80q174 0 285 127t120 350q-147 131 -358 131q-150 0 -248 -84.5t-98 -232.5z" />
<glyph unicode="&#x2206;" horiz-adv-x="1378" d="M49 41q0 6 4 18l514 1352q79 35 164 35q38 0 57 -13.5t31 -48.5l527 -1384h-1242q-25 0 -40 11t-15 30zM287 158h803l-402 1099z" />
<glyph unicode="&#x220f;" horiz-adv-x="1439" d="M195 -180v1696h991q30 0 43.5 -11.5t13.5 -36.5v-1695h-129q-32 0 -44.5 11t-12.5 36v1536h-676v-1583h-129q-31 0 -44 11t-13 36z" />
<glyph unicode="&#x2211;" horiz-adv-x="1247" d="M86 1360q10 66 41 123q18 33 68 33h940q25 0 36 -13.5t11 -44.5v-102h-885q345 -489 451 -639v-43q0 -30 -21 -64q-76 -121 -213.5 -351.5t-196.5 -326.5h818q25 0 36 -13t11 -44v-102h-1030q-25 0 -36.5 13.5t-11.5 45.5v96q91 146 260 420t205 332q-91 126 -256 359.5 t-227 320.5z" />
<glyph unicode="&#x221a;" horiz-adv-x="1167" d="M88 692q0 28 8 86h187q35 0 51.5 -8.5t25.5 -30.5l240 -561l309 1399h101q56 0 47 -47l-322 -1477q-12 -53 -84 -53h-139l-276 641h-107q-22 0 -31.5 11.5t-9.5 39.5z" />
<glyph unicode="&#x221e;" horiz-adv-x="1609" d="M164 682q0 131 92 215t219 84q176 0 330 -197q144 197 330 197q127 0 219 -85t92 -216t-92 -214t-219 -83q-178 0 -330 195q-143 -195 -330 -195q-127 0 -219 84t-92 215zM326 682q0 -73 46 -116.5t113 -43.5q61 0 117.5 35.5t122.5 122.5q-70 89 -124.5 124.5 t-115.5 35.5q-67 0 -113 -42.5t-46 -115.5zM885 680q69 -88 123 -123t114 -35q68 0 114 42.5t46 115.5t-46 116.5t-114 43.5q-61 0 -116.5 -35.5t-120.5 -124.5z" />
<glyph unicode="&#x222b;" horiz-adv-x="1075" d="M43 -403q0 41 25 79q70 -28 184 -28q102 0 149.5 47t47.5 155v1305q0 176 89 270.5t242 94.5q95 0 173.5 -35t78.5 -68q0 -47 -26 -80q-72 29 -185 29q-102 0 -148 -47.5t-46 -155.5v-1304q0 -176 -90 -270.5t-244 -94.5q-95 0 -172.5 35t-77.5 68z" />
<glyph unicode="&#x2248;" horiz-adv-x="1329" d="M162 367q0 23 8 47q28 100 96.5 157.5t179.5 57.5q115 0 224 -76q91 -64 127.5 -83t70.5 -19q106 0 136 180l126 -27q41 -9 35 -47q-21 -120 -93 -189t-193 -69q-115 0 -224 76q-91 64 -127.5 83t-70.5 19q-105 0 -135 -178q-70 -4 -121 18q-39 16 -39 50zM162 797 q0 23 8 47q28 100 96.5 157.5t179.5 57.5q115 0 224 -76q91 -64 127.5 -83t70.5 -19q106 0 136 180l126 -27q41 -9 35 -47q-21 -120 -93 -189t-193 -69q-115 0 -224 76q-91 64 -127.5 83t-70.5 19q-105 0 -135 -178q-68 -4 -121 19q-39 16 -39 49z" />
<glyph unicode="&#x2260;" horiz-adv-x="1329" d="M174 430q0 54 12 98h320l156 301h-447q-41 0 -41 54q0 55 12 98h553l146 279h84q51 0 51 -29q0 -13 -6 -25l-117 -225h209q25 0 36 -13t11 -44v-95h-334l-155 -301h442q25 0 36 -13t11 -44v-94h-569l-142 -277h-84q-53 0 -53 27q0 12 8 25l115 225h-213q-41 0 -41 53z " />
<glyph unicode="&#x2264;" horiz-adv-x="1306" d="M164 51q0 55 12 99h920q25 0 36 -13.5t11 -44.5v-92h-938q-22 0 -31.5 11.5t-9.5 39.5zM164 799v125l891 391q15 6 28 6q41 0 41 -64q0 -43 -10 -98l-749 -321l716 -310q43 -19 43 -65v-133l-919 403q-41 15 -41 66z" />
<glyph unicode="&#x2265;" horiz-adv-x="1306" d="M164 0v92q0 31 11 44.5t36 13.5h919q13 -47 13 -99q0 -28 -9.5 -39.5t-31.5 -11.5h-938zM182 330v133q0 46 43 65l717 310l-749 321q-11 61 -11 98q0 64 41 64q14 0 29 -6l891 -391v-125q0 -51 -41 -66z" />
<glyph unicode="&#x25ca;" horiz-adv-x="1062" d="M88 723l371 711q49 18 100 18q35 0 49 -29l367 -700l-365 -690q-17 -33 -67 -33h-74zM266 723l264 -504l267 504l-267 506z" />
<glyph unicode="&#x25fc;" horiz-adv-x="1105" d="M0 0v1106h1106v-1106h-1106z" />
</font>
</defs>
</svg>
