<?xml version="1.0" standalone="no"?>
<!DOCTYPE svg PUBLIC "-//W3C//DTD SVG 1.1//EN" "http://www.w3.org/Graphics/SVG/1.1/DTD/svg11.dtd" >
<svg xmlns="http://www.w3.org/2000/svg">
<metadata></metadata>
<defs>
<font id="core_rhino_25_thinregular" horiz-adv-x="1171" >
<font-face units-per-em="2048" ascent="1638" descent="-410" />
<missing-glyph horiz-adv-x="614" />
<glyph unicode="&#xfb01;" horiz-adv-x="1271" d="M74 1038q0 28 8 56h231v88q0 159 82.5 248.5t225.5 89.5q58 0 111.5 -13t81.5 -29.5t28 -29.5q0 -22 -15 -45q-79 35 -196 35q-110 0 -169 -62t-59 -182v-100h607q20 0 27 -8.5t7 -32.5v-885q0 -57 19 -81t57 -24h37q6 -15 6 -34q0 -16 -23 -29.5t-57 -13.5 q-58 0 -93.5 44.5t-35.5 137.5v844h-551v-1012h-49q-23 0 -32 7.5t-9 27.5v977h-215q-24 0 -24 26zM936 1446q0 29 17 46t44 17t46.5 -19t19.5 -50q0 -29 -17.5 -46.5t-44.5 -17.5t-46 19.5t-19 50.5z" />
<glyph unicode="&#xfb02;" horiz-adv-x="1353" d="M74 1038q0 28 8 56h231v88q0 163 87 250.5t259 87.5q176 0 306 -60v33q30 10 61 10q29 0 29 -24v-1239q0 -90 35 -131t104 -41t121 22q14 -17 14 -43q0 -19 -45.5 -40t-103.5 -21q-102 0 -158.5 62.5t-56.5 191.5v1146q-125 52 -295 52q-138 0 -202.5 -60.5t-64.5 -183.5 v-100h371q20 0 27.5 -9t7.5 -32v-41h-406v-1012h-49q-23 0 -32 7.5t-9 27.5v977h-215q-24 0 -24 26z" />
<glyph horiz-adv-x="682" />
<glyph horiz-adv-x="0" />
<glyph horiz-adv-x="0" />
<glyph unicode="&#xd;" horiz-adv-x="485" />
<glyph unicode=" "  horiz-adv-x="614" />
<glyph unicode="&#x09;" horiz-adv-x="614" />
<glyph unicode="&#xa0;" horiz-adv-x="614" />
<glyph unicode="!" horiz-adv-x="544" d="M209 45q0 29 17 46.5t44 17.5t46.5 -19.5t19.5 -50.5q0 -29 -17.5 -46.5t-44.5 -17.5t-46 19.5t-19 50.5zM221 1161v271q33 10 68 10t35 -25v-256q0 -311 -19 -809h-33q-19 0 -24.5 7.5t-7.5 27.5q-19 431 -19 774z" />
<glyph unicode="&#x22;" horiz-adv-x="792" d="M246 1432q30 10 61 10q29 0 29 -25l-8 -563h-33q-20 0 -28.5 7t-8.5 24zM457 1432q30 10 61 10q29 0 29 -25l-8 -563h-33q-20 0 -28.5 7t-8.5 24z" />
<glyph unicode="#" horiz-adv-x="1417" d="M111 420q0 27 8 55h233l82 483h-223q-25 0 -25 27q0 23 9 55h254l67 392q30 10 62 10q19 0 26 -7.5t4 -25.5l-63 -369h434l68 392q30 10 61 10q19 0 26.5 -7.5t4.5 -25.5l-64 -369h197q20 0 27.5 -9t7.5 -32v-41h-246l-82 -483h217q20 0 27.5 -9t7.5 -32v-41h-266 l-66 -393h-53q-43 0 -37 37l59 356h-434l-65 -393h-54q-42 0 -36 37l59 356h-203q-24 0 -24 27zM449 475h434l82 483h-435z" />
<glyph unicode="$" horiz-adv-x="1212" d="M147 1085q0 156 111 258t289 113v197q30 10 61 10q29 0 29 -25v-182q145 -10 254 -77t166 -167q16 -30 -13 -49q-27 -17 -61 -20q-57 114 -158 173.5t-237 59.5q-156 0 -253 -77t-97 -205q0 -120 85.5 -197t282.5 -137q246 -75 358.5 -168t112.5 -250t-109 -254 t-300 -111v-206h-50q-23 0 -31.5 7t-8.5 27v172q-148 4 -260.5 46.5t-112.5 85.5q0 26 14 43q176 -95 391 -95q185 0 281 77.5t96 201.5t-97.5 205t-307.5 139q-218 60 -326.5 158.5t-108.5 246.5z" />
<glyph unicode="%" horiz-adv-x="1748" d="M123 1090q0 161 90 260.5t229 99.5q140 0 230 -99.5t90 -260.5t-90.5 -261t-229.5 -100t-229 100t-90 261zM213 1098q0 -135 64 -211t174 -76q99 0 160 72.5t61 197.5q0 135 -64 211t-174 76q-99 0 -160 -72.5t-61 -197.5zM547 37l586 1397h36q24 0 31.5 -10.5t1.5 -26.5 l-586 -1397h-36q-24 0 -31.5 10.5t-1.5 26.5zM987 344q0 161 90.5 261t229.5 100t229 -100t90 -261t-90 -260.5t-229 -99.5q-140 0 -230 99.5t-90 260.5zM1077 352q0 -135 64 -210.5t174 -75.5q99 0 160 72.5t61 197.5q0 135 -64 211t-174 76q-99 0 -160 -73t-61 -198z" />
<glyph unicode="&#x26;" horiz-adv-x="1472" d="M123 328q0 129 77.5 242t221.5 180q-89 115 -124.5 198t-35.5 172q0 147 104 242.5t255 95.5q140 0 240 -86t100 -221q0 -77 -29.5 -141t-88 -115t-128.5 -90.5t-166 -79.5q86 -101 212.5 -226t250.5 -225q108 109 184 249.5t92 285.5q29 0 47 -12q17 -11 17 -43 q0 -115 -81 -267.5t-192 -265.5q65 -48 158 -108q49 -32 79 -44t66 -12h35q6 -15 6 -32q0 -20 -21 -35t-50 -15q-41 0 -81 16.5t-100 55.5q-66 41 -159 113q-233 -185 -488 -185q-180 0 -290.5 97t-110.5 256zM213 330q0 -125 89 -199t235 -74q221 0 411 156 q-268 226 -481 481q-124 -58 -189 -157t-65 -207zM352 1128q0 -82 33.5 -158.5t120.5 -189.5q177 74 270.5 160.5t93.5 200.5q0 109 -73.5 172t-184.5 63q-108 0 -184 -70t-76 -178z" />
<glyph unicode="'" horiz-adv-x="532" d="M221 1432q30 10 62 10q28 0 28 -25l-8 -563h-33q-20 0 -28.5 7t-8.5 24z" />
<glyph unicode="(" horiz-adv-x="772" d="M246 635q0 301 88 524.5t231 360.5q34 32 58 24q17 -7 26 -37q-313 -307 -313 -872q0 -566 313 -873q-9 -29 -26 -36q-24 -8 -58 24q-143 137 -231 360.5t-88 524.5z" />
<glyph unicode=")" horiz-adv-x="772" d="M123 -238q313 307 313 873q0 565 -313 872q9 30 27 37q23 8 57 -24q143 -137 231 -360.5t88 -524.5t-88 -524.5t-231 -360.5q-34 -32 -57 -24q-18 7 -27 36z" />
<glyph unicode="*" horiz-adv-x="1280" d="M147 756q0 32 11 61q11 33 37 23l407 -146l-12 449q36 12 63 12q31 0 31 -27l-12 -434l426 154q18 -20 30 -57q9 -31 -14 -37l-418 -125l279 -359q-14 -25 -43 -43q-27 -18 -43 4l-252 361l-256 -369q-27 9 -55 29q-25 19 -11 39l260 338z" />
<glyph unicode="+" horiz-adv-x="1372" d="M197 666q0 27 8 55h436v444q33 11 61 11q29 0 29 -25v-430h410q20 0 27.5 -9t7.5 -32v-41h-445v-455h-49q-23 0 -32 7.5t-9 27.5v420h-420q-24 0 -24 27z" />
<glyph unicode="," horiz-adv-x="671" d="M229 -215q90 90 99 190q-24 3 -40 22t-16 48t17.5 47.5t44.5 18.5q28 0 46.5 -19.5t18.5 -54.5q0 -67 -24 -129t-62 -103q-15 -17 -30 -28.5t-24.5 -15t-12.5 -1.5q-13 7 -17 25z" />
<glyph unicode="-" horiz-adv-x="1003" d="M209 666q0 27 8 55h543q20 0 27.5 -9t7.5 -32v-41h-562q-24 0 -24 27z" />
<glyph unicode="." horiz-adv-x="671" d="M272 45q0 29 17.5 47.5t44.5 18.5t46 -19.5t19 -50.5q0 -29 -17.5 -47.5t-43.5 -18.5q-27 0 -46.5 19.5t-19.5 50.5z" />
<glyph unicode="/" horiz-adv-x="923" d="M-6 -188l860 1730h47q45 0 29 -37l-860 -1730h-47q-45 0 -29 37z" />
<glyph unicode="0" horiz-adv-x="1343" d="M143 717q0 350 141.5 545.5t387.5 195.5t387 -195.5t141 -545.5t-141 -546t-387 -196t-387.5 196t-141.5 546zM233 727q0 -316 120.5 -493t328.5 -177q202 0 315 174t113 476q0 316 -120 492.5t-328 176.5q-203 0 -316 -173.5t-113 -475.5z" />
<glyph unicode="1" horiz-adv-x="1343" d="M283 1133q0 12 12 18l438 283h43q23 0 32 -7.5t9 -27.5v-1399h-49q-23 0 -32 7.5t-9 27.5v1300l-397 -262q-25 16 -41 41q-6 9 -6 19z" />
<glyph unicode="2" horiz-adv-x="1343" d="M184 1135q0 8 6 20q62 139 183.5 221t281.5 82q210 0 341.5 -133.5t131.5 -349.5q0 -480 -718 -893h694q20 0 27.5 -9t7.5 -32v-41h-869q-28 0 -39 16q-14 21 -18 52q190 100 336 201.5t258.5 214.5t171.5 237t59 254q0 183 -104 292t-283 109q-134 0 -233.5 -74.5 t-153.5 -216.5q-35 3 -61 21q-19 13 -19 29z" />
<glyph unicode="3" horiz-adv-x="1343" d="M184 111q0 25 15 43q174 -97 401 -97q122 0 219.5 38t156 113.5t58.5 178.5q0 340 -499 377q-31 3 -39 16q-16 23 -19 51l469 521h-708q-25 0 -25 26q0 28 8 56h791q28 0 39 -17q14 -21 18 -51l-477 -530q250 -29 392 -138.5t142 -302.5q0 -99 -41.5 -179.5 t-112.5 -132.5t-165 -80t-201 -28q-112 0 -214 25.5t-155 56.5t-53 54z" />
<glyph unicode="4" horiz-adv-x="1343" d="M135 369q91 320 316.5 618t482.5 449q30 12 67 12q23 0 32 -7.5t9 -27.5v-1030h164q20 0 27.5 -9t7.5 -32v-41h-199v-301h-49q-23 0 -32 7.5t-9 27.5v266h-759q-28 0 -39 16q-15 23 -19 52zM240 383h712v965q-230 -139 -433 -412.5t-279 -552.5z" />
<glyph unicode="5" horiz-adv-x="1343" d="M190 111q0 25 15 43q169 -97 387 -97q217 0 333.5 103.5t116.5 271.5t-114.5 271.5t-331.5 103.5q-124 0 -240 -29q-42 -10 -53 -10q-12 0 -33 18l-14 13l86 635h705q20 0 27 -8.5t7 -32.5v-41h-665l-70 -504q125 41 260 41q249 0 388 -121t139 -336q0 -204 -143 -330.5 t-392 -126.5q-107 0 -205.5 25.5t-150.5 56.5t-52 54z" />
<glyph unicode="6" horiz-adv-x="1343" d="M162 682v27q0 174 45 316.5t124 236.5t186.5 145t232.5 51q146 0 254.5 -65.5t152.5 -178.5q6 -15 6 -26q0 -17 -24 -31q-26 -13 -60 -16q-35 117 -124 176t-201 59q-142 0 -254.5 -77t-178.5 -224.5t-69 -343.5q84 79 204.5 127.5t254.5 48.5q100 0 189.5 -33.5 t157 -94.5t107 -154t39.5 -205q0 -188 -132.5 -316.5t-338.5 -128.5q-262 0 -416.5 190t-154.5 517zM252 639q9 -268 142 -425t339 -157q161 0 271 105t110 258q0 189 -120 297t-298 108q-252 0 -444 -186z" />
<glyph unicode="7" horiz-adv-x="1343" d="M186 1378q0 24 9 56h899q28 0 39 -17q14 -21 18 -51q-195 -287 -341.5 -639.5t-236.5 -726.5h-51q-22 0 -30 9t-5 24q90 350 232.5 691.5t320.5 627.5h-829q-25 0 -25 26z" />
<glyph unicode="8" horiz-adv-x="1343" d="M150 354q0 279 350 410q-156 62 -225.5 140.5t-69.5 195.5q0 155 130.5 256.5t328.5 101.5q202 0 329 -103.5t127 -254.5q0 -115 -74.5 -211.5t-197.5 -159.5q180 -71 262 -158.5t82 -210.5q0 -166 -143 -275.5t-377 -109.5q-226 0 -374 106.5t-148 272.5zM240 354 q0 -90 60.5 -159t158 -103.5t213.5 -34.5q189 0 309.5 85t120.5 214q0 125 -102.5 205t-354.5 156l-41 12q-195 -68 -279.5 -159.5t-84.5 -215.5zM295 1104q0 -109 90 -181t311 -141l60 -18q130 65 202 150.5t72 185.5q0 122 -102.5 199t-263.5 77q-160 0 -264.5 -76.5 t-104.5 -195.5z" />
<glyph unicode="9" horiz-adv-x="1343" d="M158 1014q0 188 132.5 316t338.5 128q262 0 416.5 -189.5t154.5 -516.5v-27q0 -181 -45 -324.5t-125.5 -236t-190.5 -141t-241 -48.5q-91 0 -176 23t-131.5 52.5t-46.5 51.5q0 26 14 43q152 -88 340 -88q222 0 364 166.5t148 478.5q-82 -79 -203.5 -127.5t-255.5 -48.5 q-135 0 -246 57t-179 169.5t-68 261.5zM248 1014q0 -189 120 -297.5t298 -108.5q247 0 444 187q-9 268 -142 424.5t-339 156.5q-161 0 -271 -105t-110 -257z" />
<glyph unicode=":" horiz-adv-x="671" d="M272 45q0 29 17.5 47.5t44.5 18.5t46 -19.5t19 -50.5q0 -29 -17.5 -47.5t-43.5 -18.5q-27 0 -46.5 19.5t-19.5 50.5zM272 1053q0 29 17.5 47t44.5 18t46 -19t19 -50q0 -29 -17.5 -47.5t-43.5 -18.5q-27 0 -46.5 19.5t-19.5 50.5z" />
<glyph unicode=";" horiz-adv-x="671" d="M229 -215q90 90 99 190q-24 3 -40 22t-16 48t17.5 47.5t44.5 18.5q28 0 46.5 -19.5t18.5 -54.5q0 -67 -24 -129t-62 -103q-15 -17 -30 -28.5t-24.5 -15t-12.5 -1.5q-13 7 -17 25zM272 1053q0 29 17.5 47t44.5 18t46 -19t19 -50q0 -29 -17.5 -47.5t-43.5 -18.5 q-27 0 -46.5 19.5t-19.5 50.5z" />
<glyph unicode="&#x3c;" horiz-adv-x="1372" d="M197 670v55l946 408q14 6 23.5 -1t9.5 -24q0 -32 -7 -57l-878 -371l842 -354q25 -10 34 -20t9 -32v-61l-938 403q-23 9 -32 20.5t-9 33.5z" />
<glyph unicode="=" horiz-adv-x="1372" d="M197 446q0 28 8 56h936q20 0 27.5 -9t7.5 -32v-41h-955q-24 0 -24 26zM197 885q0 27 8 55h936q20 0 27.5 -9t7.5 -32v-41h-955q-24 0 -24 27z" />
<glyph unicode="&#x3e;" horiz-adv-x="1372" d="M197 213v61q0 22 9 32t34 20l841 354l-878 371q-6 21 -6 57q0 17 9 24t23 1l947 -408v-55q0 -22 -9 -33.5t-32 -20.5z" />
<glyph unicode="?" horiz-adv-x="1134" d="M123 1133q0 9 6 24q55 137 170 219t276 82q180 0 296 -108t116 -275q0 -120 -54 -212t-173 -185q-105 -84 -137.5 -135.5t-32.5 -120.5v-70h-49q-23 0 -32 7.5t-9 27.5v37q0 84 40.5 153t155.5 158q106 81 153.5 160t47.5 180q0 135 -93 218t-231 83q-273 0 -370 -291 q-36 4 -62 21q-18 12 -18 27zM481 45q0 29 17.5 46.5t44.5 17.5t46 -19.5t19 -50.5q0 -29 -17 -46.5t-44 -17.5t-46.5 19.5t-19.5 50.5z" />
<glyph unicode="@" horiz-adv-x="2093" d="M172 563q0 189 70.5 356t189 284.5t279 186t336.5 68.5q185 0 348.5 -66.5t278 -179.5t181 -268t66.5 -328q0 -221 -108.5 -370.5t-270.5 -149.5q-102 0 -164.5 57.5t-70.5 153.5q-153 -201 -387 -201q-143 0 -237.5 102t-94.5 273q0 120 46 223.5t120.5 171.5t169 106 t192.5 38q111 0 201 -44t149 -120l-84 -412q-25 -121 19.5 -197.5t142.5 -76.5q120 0 207.5 124t87.5 314q0 163 -59.5 306.5t-163 247t-251.5 163t-318 59.5q-157 0 -302 -62t-253 -169.5t-173 -261.5t-65 -328q0 -133 39 -257.5t112 -226t171 -177.5t221.5 -118t257.5 -42 q148 0 272 41.5t238 132.5q26 -13 26 -37q0 -13 -23 -37t-70.5 -54t-109 -57t-150.5 -45t-183 -18q-183 0 -346.5 69t-281.5 187.5t-186.5 285t-68.5 353.5zM678 487q0 -136 68.5 -216.5t181.5 -80.5q211 0 352 187l90 450q-92 111 -260 111q-78 0 -155.5 -33.5t-139 -91.5 t-99.5 -144t-38 -182z" />
<glyph unicode="A" horiz-adv-x="1347" d="M66 35l552 1390q39 17 78 17q25 0 37 -27l563 -1415h-59q-33 0 -45 31l-150 381h-737l-162 -412h-49q-32 0 -32 19q0 7 4 16zM336 494h674l-336 858z" />
<glyph unicode="B" horiz-adv-x="1323" d="M217 299v1135h475q216 0 338.5 -107.5t122.5 -265.5q0 -247 -238 -328q135 -33 210 -121.5t75 -224.5q0 -169 -125 -278t-360 -109h-250q-126 0 -187 68t-61 231zM307 313q0 -133 37 -182t129 -49h246q188 0 289.5 81.5t101.5 221.5q0 303 -405 303h-398v-375zM307 770 h381q187 0 281 76t94 215q0 129 -102 210t-273 81h-381v-582z" />
<glyph unicode="C" horiz-adv-x="1406" d="M135 764q0 131 34.5 244t95 194.5t140.5 140t171.5 87t187.5 28.5q188 0 328 -84t208 -219q6 -11 6 -20q0 -17 -18 -29q-26 -18 -61 -21q-64 140 -185.5 215.5t-277.5 75.5q-104 0 -200 -41t-172 -116t-121.5 -192t-45.5 -257q0 -162 54.5 -298t147 -226t213.5 -139.5 t255 -49.5q206 0 350 88q15 -18 15 -43q0 -39 -112.5 -83t-256.5 -44q-159 0 -298 57t-240 158t-159.5 250t-58.5 324z" />
<glyph unicode="D" horiz-adv-x="1480" d="M217 299v1135h430q202 0 359.5 -85.5t248.5 -249.5t91 -382t-91 -382t-248.5 -249.5t-359.5 -85.5h-182q-126 0 -187 68t-61 231zM307 313q0 -133 37 -182t129 -49h180q123 0 231 41t191.5 118.5t131.5 200t48 275.5t-48 275.5t-131.5 200t-191.5 118.5t-231 41h-346 v-1039z" />
<glyph unicode="E" horiz-adv-x="1161" d="M217 299v1135h784q25 0 25 -27t-8 -55h-711v-607h574q20 0 27 -8.5t7 -31.5v-41h-608v-351q0 -133 37 -182t129 -49h535q20 0 27 -8.5t7 -32.5v-41h-577q-126 0 -187 68t-61 231z" />
<glyph unicode="F" horiz-adv-x="1116" d="M221 35v1399h785q24 0 24 -27t-8 -55h-711v-607h574q20 0 27.5 -8.5t7.5 -31.5v-41h-609v-664h-49q-23 0 -32 7.5t-9 27.5z" />
<glyph unicode="G" horiz-adv-x="1533" d="M135 764q0 131 35 244t96 194.5t142 140t173.5 87t190.5 28.5q193 0 338 -84t215 -223q12 -28 -14 -45q-30 -18 -62 -21q-69 149 -194.5 220t-284.5 71q-105 0 -202 -41t-174 -116t-123 -192t-46 -257q0 -131 35 -245t97 -199t145.5 -146t184 -92t208.5 -31 q177 0 271 63.5t94 168.5v313h-357q-24 0 -24 27t8 55h428q20 0 27.5 -9t7.5 -32v-348q0 -153 -121 -236.5t-338 -83.5q-159 0 -298 57t-240 158t-159.5 250t-58.5 324z" />
<glyph unicode="H" horiz-adv-x="1478" d="M221 35v1397q30 10 62 10q28 0 28 -25v-657h856v674h50q23 0 31.5 -7.5t8.5 -27.5v-1399h-49q-23 0 -32 7.5t-9 27.5v643h-856v-678h-49q-23 0 -32 7.5t-9 27.5z" />
<glyph unicode="I" horiz-adv-x="557" d="M233 35v1397q30 10 62 10q29 0 29 -25v-1417h-50q-23 0 -32 7.5t-9 27.5z" />
<glyph unicode="J" horiz-adv-x="817" d="M37 51q0 25 14 43q84 -37 207 -37q119 0 187.5 75.5t68.5 227.5v1072q30 10 61 10q29 0 29 -25v-1057q0 -183 -86.5 -284t-259.5 -101q-75 0 -148 24.5t-73 51.5z" />
<glyph unicode="K" horiz-adv-x="1343" d="M221 35v1397q30 10 62 10q28 0 28 -25v-782q225 143 443 353t381 454q69 -14 69 -47q0 -17 -12 -35q-192 -290 -500 -549q114 -212 232 -388t215 -282q43 -48 73.5 -66t63.5 -18h24q7 -18 7 -32q0 -19 -23 -34.5t-53 -15.5q-42 0 -76.5 21t-79.5 72q-221 250 -446 690 q-169 -133 -318 -226v-532h-49q-23 0 -32 7.5t-9 27.5z" />
<glyph unicode="L" horiz-adv-x="1114" d="M217 299v1133q30 10 62 10q28 0 28 -25v-1104q0 -133 37 -182t129 -49h545q20 0 27.5 -9t7.5 -32v-41h-588q-126 0 -187 68t-61 231z" />
<glyph unicode="M" horiz-adv-x="1837" d="M162 35l151 1376q45 33 80 33q23 0 37 -25l488 -862l493 877h68q23 0 32.5 -7.5t10.5 -27.5l155 -1399h-59q-23 0 -31 7t-10 28l-135 1274l-469 -834q-11 -20 -43 -20h-58l-479 854l-139 -1309h-51q-24 0 -33 7.5t-8 27.5z" />
<glyph unicode="N" horiz-adv-x="1470" d="M221 35v1374q45 33 80 33q23 0 37 -23l821 -1288v1303h49q23 0 32 -7.5t9 -27.5v-1374q-45 -33 -80 -33q-19 0 -36 22l-822 1289v-1303h-49q-23 0 -32 7.5t-9 27.5z" />
<glyph unicode="O" horiz-adv-x="1576" d="M135 717q0 144 34 265.5t94.5 208.5t142.5 147.5t178.5 90t203.5 29.5q134 0 251 -47.5t207.5 -137.5t143 -233.5t52.5 -322.5t-52.5 -322.5t-143 -234t-207.5 -138t-251 -47.5q-106 0 -203 29.5t-179 90.5t-142.5 148t-94.5 208.5t-34 265.5zM229 733q0 -169 46 -301 t126 -212.5t182.5 -121.5t221.5 -41q86 0 165 24.5t148 76.5t120 127t80.5 181.5t29.5 233.5q0 136 -30 248.5t-82.5 191t-125.5 132t-158 79t-180 25.5q-109 0 -205.5 -40t-172.5 -117t-120.5 -202.5t-44.5 -283.5z" />
<glyph unicode="P" horiz-adv-x="1288" d="M221 35v1399h402q249 0 402 -137t153 -379q0 -125 -43.5 -224.5t-118.5 -162.5t-173 -96.5t-210 -33.5q-174 0 -322 50v-451h-49q-23 0 -32 7.5t-9 27.5zM311 524q130 -41 322 -41q204 0 329 116t125 319q0 140 -61 239.5t-164 147t-237 47.5h-314v-828z" />
<glyph unicode="Q" horiz-adv-x="1576" d="M135 717q0 144 34 265.5t94.5 208.5t142.5 147.5t178.5 90t203.5 29.5q134 0 251 -47.5t207.5 -137.5t143 -233.5t52.5 -322.5q0 -242 -91.5 -411.5t-248.5 -254.5q147 -252 276 -252h31q6 -12 6 -35q0 -17 -23 -32t-63 -15q-72 0 -145 68.5t-158 230.5 q-112 -41 -238 -41q-106 0 -203 29.5t-179 90.5t-142.5 148t-94.5 208.5t-34 265.5zM229 733q0 -169 46.5 -301t127 -212.5t182.5 -121.5t220 -41q86 0 165 24.5t148 76.5t120 127t80.5 181.5t29.5 233.5q0 136 -30 248.5t-82.5 191t-125.5 132t-158 79t-180 25.5 q-109 0 -205.5 -40t-172.5 -117t-120.5 -202.5t-44.5 -283.5z" />
<glyph unicode="R" horiz-adv-x="1339" d="M221 35v1399h389q250 0 402.5 -131.5t152.5 -364.5q0 -190 -101 -311.5t-267 -163.5q135 -214 264 -334q49 -45 77 -58.5t64 -13.5h21q6 -15 6 -32q0 -21 -19.5 -35.5t-48.5 -14.5q-39 0 -79 23t-95 78q-134 134 -274 373q-54 -7 -92 -7q-162 0 -310 50v-492h-49 q-23 0 -32 7.5t-9 27.5zM311 565q130 -41 310 -41q204 0 329 109.5t125 304.5q0 102 -35 182t-97.5 130t-146.5 76t-184 26h-301v-787z" />
<glyph unicode="S" horiz-adv-x="1212" d="M147 1085q0 165 124 269t317 104q162 0 285.5 -69t183.5 -177q16 -30 -13 -49q-27 -17 -61 -20q-57 114 -158 173.5t-237 59.5q-156 0 -253 -77t-97 -205q0 -120 85.5 -197t282.5 -137q246 -75 358.5 -168t112.5 -250q0 -168 -125.5 -267.5t-339.5 -99.5 q-157 0 -282 44.5t-125 89.5q0 26 14 43q176 -95 391 -95q185 0 281 77.5t96 201.5t-97.5 205t-307.5 139q-218 60 -326.5 158.5t-108.5 246.5z" />
<glyph unicode="T" horiz-adv-x="1236" d="M98 1378q0 28 8 56h998q20 0 27.5 -9t7.5 -32v-41h-475v-1352h-50q-23 0 -32 7.5t-9 27.5v1317h-450q-25 0 -25 26z" />
<glyph unicode="U" horiz-adv-x="1474" d="M209 596v836q30 10 61 10q29 0 29 -25v-829q0 -240 121 -385.5t317 -145.5t317.5 145.5t121.5 385.5v846h49q23 0 32 -7.5t9 -27.5v-803q0 -286 -145 -453.5t-384 -167.5q-238 0 -383 167.5t-145 453.5z" />
<glyph unicode="V" horiz-adv-x="1437" d="M98 1407q39 31 70 31q19 0 31 -29l516 -1292q326 560 526 1317h51q23 0 31 -8q5 -6 5 -17q0 -5 -1 -12q-213 -787 -555 -1368q-10 -17 -20 -23t-27 -6h-66z" />
<glyph unicode="W" horiz-adv-x="2260" d="M111 1407q39 31 69 31q22 0 31 -29l412 -1298q272 552 442 1323h86q36 0 47 -33l389 -1288q311 608 455 1321h55q23 0 31 -8q5 -6 5 -17q0 -5 -1 -12q-79 -374 -194.5 -703t-288.5 -665q-15 -29 -47 -29h-78l-394 1317q-149 -687 -446 -1288q-13 -29 -47 -29h-78z" />
<glyph unicode="X" horiz-adv-x="1380" d="M121 35q180 413 512 708l-490 641q26 54 58 54q14 0 30 -19l474 -620q306 276 460 635h54q43 0 28 -35q-154 -356 -491 -668l524 -686q-26 -53 -57 -53q-16 0 -31 18l-508 664q-306 -267 -481 -674h-53q-33 0 -33 19q0 7 4 16z" />
<glyph unicode="Y" horiz-adv-x="1331" d="M88 1395q40 43 68 43q18 0 34 -25l469 -833q314 372 496 854h51q38 0 38 -22q0 -7 -3 -15q-92 -244 -231.5 -479.5t-311.5 -436.5v-481h-49q-23 0 -32 7.5t-9 27.5v442z" />
<glyph unicode="Z" horiz-adv-x="1230" d="M135 68l842 1284h-789q-24 0 -24 26q0 28 8 56h862q28 0 39 -17q16 -23 19 -51l-842 -1284h823q20 0 27.5 -9t7.5 -32v-41h-915q-28 0 -39 16q-15 23 -19 52z" />
<glyph unicode="[" horiz-adv-x="849" d="M295 86v1450h469q24 0 24 -27t-8 -55h-395v-1360q0 -111 18.5 -171.5t55.5 -83.5t102 -23h187q20 0 27 -8.5t7 -32.5v-41h-227q-143 0 -201.5 80.5t-58.5 271.5z" />
<glyph unicode="\" horiz-adv-x="923" d="M-6 1505q-16 37 29 37h47l860 -1730q16 -37 -29 -37h-47z" />
<glyph unicode="]" horiz-adv-x="849" d="M61 1509q0 27 25 27h428q23 0 32 -7.5t9 -27.5v-1415q0 -191 -58.5 -271.5t-201.5 -80.5h-227v41q0 24 7 32.5t27 8.5h187q65 0 102 23t55.5 83.5t18.5 171.5v1360h-395q-9 32 -9 55z" />
<glyph unicode="^" horiz-adv-x="1265" d="M193 811l395 623h63q23 0 33 -17l397 -624l-41 -29q-26 -17 -43 8l-366 584l-379 -604q-28 3 -53 20q-20 15 -6 39z" />
<glyph unicode="_" horiz-adv-x="1024" d="M0 -293q0 27 8 55h981q20 0 27.5 -9t7.5 -32v-40h-999q-25 0 -25 26z" />
<glyph unicode="`" horiz-adv-x="839" d="M246 1423q10 27 24 41q13 13 25 13q9 0 24 -15l275 -258l-29 -30q-9 -9 -16 -9t-21 11z" />
<glyph unicode="a" horiz-adv-x="1214" d="M123 324q0 164 114.5 257t307.5 93q191 0 366 -82v133q0 156 -97.5 233.5t-260.5 77.5q-199 0 -324 -73q-14 18 -14 43q0 16 27.5 35t73 36.5t113 29t138.5 11.5q198 0 316 -103.5t118 -297.5v-535q0 -64 19 -91.5t59 -27.5h35q6 -15 6 -34q0 -16 -23 -29.5t-57 -13.5 q-58 0 -93.5 49.5t-35.5 150.5v15q-59 -98 -167.5 -162t-241.5 -64q-173 0 -276 97t-103 252zM213 324q0 -123 83.5 -195t203.5 -72q124 0 230 63t181 193v199q-76 38 -173.5 59t-192.5 21q-154 0 -243 -73.5t-89 -194.5z" />
<glyph unicode="b" horiz-adv-x="1296" d="M193 473v1020q30 10 61 10q29 0 29 -24v-592q75 105 192 168t244 63q197 0 326 -142t129 -384q0 -124 -41 -237.5t-111 -197t-168.5 -133t-208.5 -49.5q-210 0 -331 135t-121 363zM283 473q0 -204 103 -310t263 -106q118 0 218 72.5t158 196.5t58 268q0 209 -105 325.5 t-269 116.5q-118 0 -233.5 -68.5t-192.5 -187.5v-307z" />
<glyph unicode="c" horiz-adv-x="1124" d="M123 584q0 123 41 225t111 168.5t162.5 103.5t195.5 37q137 0 243 -65t154 -160q6 -11 6 -20q0 -17 -18 -29q-26 -17 -62 -21q-42 99 -123.5 156t-199.5 57q-87 0 -164 -31.5t-133.5 -88.5t-89.5 -143t-33 -189q0 -127 46 -230t120 -166t162.5 -97t179.5 -34 q156 0 270 66q15 -18 15 -43q0 -20 -39.5 -44t-111.5 -42.5t-150 -18.5q-111 0 -214.5 41.5t-186 116.5t-132 192.5t-49.5 258.5z" />
<glyph unicode="d" horiz-adv-x="1320" d="M123 502q0 167 66.5 307t191 224.5t281.5 84.5q100 0 191.5 -37t160.5 -102v516h49q23 0 32 -7.5t9 -27.5v-1278q0 -64 19 -91.5t59 -27.5h35q6 -15 6 -34q0 -16 -23 -29.5t-57 -13.5q-58 0 -93.5 49.5t-35.5 150.5v64q-63 -123 -176 -199t-254 -76q-204 0 -332.5 141.5 t-128.5 385.5zM213 500q0 -209 106.5 -326t274.5 -117q128 0 240 85t180 249v490q-149 155 -350 155q-127 0 -230.5 -71t-162 -193.5t-58.5 -271.5z" />
<glyph unicode="e" d="M123 557q0 125 42.5 231.5t113.5 178t163.5 111.5t192.5 40q188 0 307 -113.5t119 -293.5q0 -69 -23 -136q-14 -41 -35.5 -54t-64.5 -13h-723q10 -138 75.5 -242.5t162.5 -156.5t209 -52q162 0 280 68q14 -17 14 -43q0 -14 -23 -32.5t-61 -35t-97 -28t-122 -11.5 q-111 0 -208.5 42.5t-168.5 117.5t-112 184.5t-41 237.5zM213 590h735q23 51 23 121q0 146 -94.5 235.5t-245.5 89.5q-78 0 -151 -32t-130.5 -88.5t-94.5 -141.5t-42 -184z" />
<glyph unicode="f" horiz-adv-x="854" d="M74 1038q0 28 8 56h231v88q0 159 82.5 248.5t225.5 89.5q58 0 111.5 -13t81.5 -29.5t28 -29.5q0 -22 -15 -45q-79 35 -196 35q-110 0 -169 -62t-59 -182v-100h371q20 0 27.5 -9t7.5 -32v-41h-406v-1012h-49q-23 0 -32 7.5t-9 27.5v977h-215q-24 0 -24 26z" />
<glyph unicode="g" horiz-adv-x="1300" d="M123 502q0 167 66.5 307t191 224.5t281.5 84.5q100 0 191.5 -37t160.5 -102v115h49q23 0 32 -7.5t9 -27.5v-1028q0 -153 -71 -274.5t-209 -193t-322 -71.5q-144 0 -241 71.5t-97 192.5q0 170 186 279q-107 63 -167 183t-60 284zM213 500q0 -209 106.5 -326t274.5 -117 q128 0 240 85t180 249v490q-149 155 -350 155q-127 0 -230.5 -71t-162 -193.5t-58.5 -271.5zM254 -244q0 -80 69 -131t177 -51q234 0 374 128.5t140 322.5v225q-63 -123 -176 -199t-254 -76q-83 0 -156 25q-174 -101 -174 -244z" />
<glyph unicode="h" horiz-adv-x="1306" d="M197 35v1458q30 10 61 10q29 0 29 -24v-523q88 75 197.5 118.5t220.5 43.5q191 0 288 -117.5t97 -326.5v-506q0 -57 18.5 -81t56.5 -24h37q6 -15 6 -34q0 -16 -23 -29.5t-57 -13.5q-58 0 -93.5 44.5t-35.5 137.5v498q0 185 -75 277.5t-230 92.5q-105 0 -212 -43 t-195 -127v-866h-49q-23 0 -32 7.5t-9 27.5z" />
<glyph unicode="i" horiz-adv-x="514" d="M178 1446q0 29 17.5 46t44.5 17t46 -19t19 -50q0 -29 -17 -46.5t-44 -17.5t-46.5 19.5t-19.5 50.5zM197 168v924q30 10 61 10q29 0 29 -25v-909q0 -57 18.5 -81t56.5 -24h37q7 -18 7 -34t-23 -29.5t-57 -13.5q-58 0 -93.5 44.5t-35.5 137.5z" />
<glyph unicode="j" horiz-adv-x="495" d="M23 -379q184 152 184 387v1084q30 10 61 10q29 0 29 -25v-1063q0 -177 -82 -301q-31 -46 -66.5 -78.5t-60.5 -44.5q-17 -8 -27 -8q-5 0 -8 2q-9 5 -18 16t-12 21zM188 1446q0 29 17.5 46t44.5 17t46 -19t19 -50q0 -29 -17 -46.5t-44 -17.5t-46.5 19.5t-19.5 50.5z" />
<glyph unicode="k" d="M197 35v1458q30 10 61 10q29 0 29 -24v-973q418 253 676 598q61 -18 61 -51q0 -14 -10 -27q-176 -218 -430 -414q87 -143 185.5 -270.5t174.5 -200.5q45 -45 70 -61.5t51 -16.5h39q6 -15 6 -34q0 -15 -23.5 -29t-48.5 -14q-41 0 -78.5 21.5t-93.5 82.5q-181 192 -350 473 q-121 -87 -229 -149v-414h-49q-23 0 -32 7.5t-9 27.5z" />
<glyph unicode="l" horiz-adv-x="585" d="M197 240v1253q30 10 61 10q29 0 29 -24v-1239q0 -90 35 -131t104 -41t121 22q14 -17 14 -43q0 -19 -45.5 -40t-103.5 -21q-102 0 -158.5 62.5t-56.5 191.5z" />
<glyph unicode="m" horiz-adv-x="1880" d="M197 35v1057q30 10 61 10q29 0 29 -25v-137q69 83 161.5 130.5t192.5 47.5q105 0 184 -49t117 -143q78 91 178 141.5t209 50.5q150 0 242 -95.5t92 -274.5v-580q0 -57 19 -81t57 -24h37q6 -15 6 -34q0 -16 -23 -29.5t-57 -13.5q-58 0 -93.5 44.5t-35.5 137.5v577 q0 150 -66.5 220.5t-187.5 70.5q-86 0 -180 -49t-172 -145q8 -62 8 -94v-748h-49q-23 0 -32 7.5t-9 27.5v710q0 150 -66.5 220.5t-187.5 70.5q-88 0 -177.5 -49t-166.5 -147v-840h-49q-23 0 -32 7.5t-9 27.5z" />
<glyph unicode="n" horiz-adv-x="1306" d="M197 35v1057q30 10 61 10q29 0 29 -25v-121q88 75 197.5 118.5t220.5 43.5q191 0 288 -117.5t97 -326.5v-506q0 -57 18.5 -81t56.5 -24h37q6 -15 6 -34q0 -16 -23 -29.5t-57 -13.5q-58 0 -93.5 44.5t-35.5 137.5v498q0 185 -75 277.5t-230 92.5q-105 0 -212 -43 t-195 -127v-866h-49q-23 0 -32 7.5t-9 27.5z" />
<glyph unicode="o" horiz-adv-x="1286" d="M123 547q0 130 41.5 239t112.5 181t165.5 111.5t200.5 39.5t200.5 -39.5t165.5 -111.5t112.5 -181t41.5 -239t-41.5 -239t-112.5 -181t-165.5 -112t-200.5 -40t-200.5 40t-165.5 112t-112.5 181t-41.5 239zM213 559q0 -121 36.5 -218.5t98.5 -158.5t140.5 -93t166.5 -32 q81 0 155.5 31t133.5 88.5t94 150.5t35 208q0 121 -36.5 218.5t-98.5 158t-140.5 92.5t-166.5 32q-81 0 -155 -30.5t-133.5 -88.5t-94.5 -150.5t-35 -207.5z" />
<glyph unicode="p" horiz-adv-x="1300" d="M197 -401v1493q30 10 61 10q29 0 29 -25v-233q62 123 175.5 198.5t254.5 75.5q204 0 332.5 -141t128.5 -385q0 -125 -39.5 -237.5t-109 -196.5t-171 -133.5t-219.5 -49.5q-102 0 -193 36.5t-159 101.5v-549h-49q-23 0 -32 7.5t-9 27.5zM287 211q151 -154 350 -154 q192 0 321 155t129 382q0 209 -106 325.5t-274 116.5q-128 0 -240 -85t-180 -249v-491z" />
<glyph unicode="q" horiz-adv-x="1300" d="M123 502q0 167 66.5 307t191 224.5t281.5 84.5q100 0 191.5 -37t160.5 -102v115h49q23 0 32 -7.5t9 -27.5v-1495h-49q-23 0 -32 7.5t-9 27.5v651q-63 -123 -176 -199t-254 -76q-204 0 -332.5 141.5t-128.5 385.5zM213 500q0 -209 106.5 -326t274.5 -117q128 0 240 85 t180 249v490q-149 155 -350 155q-127 0 -230.5 -71t-162 -193.5t-58.5 -271.5z" />
<glyph unicode="r" horiz-adv-x="874" d="M197 35v1057q30 10 61 10q29 0 29 -25v-153q110 194 323 194q133 0 215 -53q25 -17 25 -33q0 -13 -12 -28q-17 -20 -43 -33q-80 65 -207 65q-96 0 -174.5 -67t-126.5 -201v-768h-49q-23 0 -32 7.5t-9 27.5z" />
<glyph unicode="s" horiz-adv-x="1017" d="M147 827q0 129 98.5 210t256.5 81q125 0 221.5 -48.5t144.5 -129.5q18 -29 -12 -49q-21 -14 -57 -21q-39 80 -118.5 123t-180.5 43q-112 0 -187 -59.5t-75 -157.5q0 -91 71 -147.5t244 -100.5q181 -46 261.5 -119t80.5 -190q0 -135 -101 -211t-288 -76q-81 0 -159 20.5 t-121.5 46.5t-43.5 44q0 27 15 45q141 -74 305 -74q148 0 225.5 50.5t77.5 148.5q0 82 -65.5 139t-217.5 94q-193 46 -284 127.5t-91 210.5z" />
<glyph unicode="t" horiz-adv-x="913" d="M74 1038q0 28 8 56h211v311q30 10 61 10q29 0 29 -24v-297h391q20 0 27.5 -9t7.5 -32v-41h-426v-690q0 -134 60 -199.5t165 -65.5q110 0 191 41q16 -19 16 -43q0 -25 -64.5 -52.5t-148.5 -27.5q-142 0 -225.5 90t-83.5 250v697h-195q-24 0 -24 26z" />
<glyph unicode="u" horiz-adv-x="1249" d="M176 461v631q30 10 62 10q28 0 28 -25v-620q0 -183 102.5 -291.5t256.5 -108.5t256 108.5t102 291.5v637h49q23 0 32 -7.5t9 -27.5v-598q0 -220 -127 -353t-321 -133q-195 0 -322 133t-127 353z" />
<glyph unicode="v" horiz-adv-x="1196" d="M94 1075q39 31 68 31q19 0 31 -29l397 -966q125 198 236 454t186 529h47q37 0 37 -24q0 -6 -2 -13q-161 -570 -449 -1028q-10 -17 -20 -23t-27 -6h-66z" />
<glyph unicode="w" horiz-adv-x="1785" d="M106 1077q39 31 70 31q22 0 31 -29l317 -964q105 209 182 441.5t136 537.5h69q19 0 29 -7t16 -26l326 -944q218 435 307 977h47q22 0 30 -8q5 -6 6 -18q0 -5 -1 -11q-45 -276 -123 -520t-207 -506q-9 -18 -19 -24.5t-28 -6.5h-71l-318 954q-98 -468 -323 -925 q-15 -29 -47 -29h-70z" />
<glyph unicode="x" horiz-adv-x="1132" d="M102 35q115 273 398 512l-381 497q26 54 57 54q15 0 31 -19l358 -471q243 209 361 486h53q44 0 29 -35q-119 -281 -392 -518l328 -426q41 -52 90 -52h27q6 -15 6 -34q0 -14 -23 -28.5t-51 -14.5q-63 0 -131 88l-313 405q-254 -215 -365 -479h-53q-33 0 -33 19q0 7 4 16z " />
<glyph unicode="y" horiz-adv-x="1282" d="M193 420v672q30 10 61 10q29 0 29 -25v-649q0 -371 305 -371q105 0 212 43t195 127v875h49q23 0 32 -7.5t9 -27.5v-1036q0 -157 -60.5 -277.5t-183.5 -191t-294 -70.5q-150 0 -245 72.5t-95 195.5q0 160 168 263q-182 101 -182 397zM297 -240q0 -81 70 -133.5t178 -52.5 q226 0 338 120t112 324v119q-89 -75 -197.5 -118.5t-219.5 -43.5q-54 0 -123 15q-158 -96 -158 -230z" />
<glyph unicode="z" horiz-adv-x="1026" d="M123 68l674 944h-633q-25 0 -25 26q0 28 8 56h707q28 0 39 -17q14 -21 18 -51l-673 -944h655q20 0 27.5 -9t7.5 -32v-41h-748q-28 0 -39 16q-14 21 -18 52z" />
<glyph unicode="{" horiz-adv-x="815" d="M147 629v47q110 0 164 75t54 183v262q0 170 90.5 255t242.5 85h37q25 0 25 -27t-8 -55h-70q-102 0 -164.5 -67t-62.5 -179v-262q0 -121 -38.5 -197t-121.5 -114q83 -38 121.5 -114t38.5 -197v-263q0 -112 62.5 -178.5t164.5 -66.5h49q20 0 27.5 -9t7.5 -32v-41h-68 q-152 0 -242.5 85t-90.5 255v262q0 101 -45 171t-130 83q-27 5 -35 12t-8 27z" />
<glyph unicode="|" horiz-adv-x="630" d="M270 -375v1940q30 10 62 10q28 0 28 -25v-1960h-49q-23 0 -32 7.5t-9 27.5z" />
<glyph unicode="}" horiz-adv-x="815" d="M49 -225q0 23 7.5 32t27.5 9h49q102 0 164.5 66.5t62.5 178.5v263q0 121 38.5 197t121.5 114q-83 38 -121.5 114t-38.5 197v262q0 112 -62.5 179t-164.5 67h-70q-8 28 -8 55t25 27h37q152 0 243 -85t91 -255v-262q0 -108 53.5 -183t163.5 -75v-47q0 -20 -8 -27t-35 -12 q-85 -13 -129.5 -83t-44.5 -171v-262q0 -170 -91 -255t-243 -85h-68v41z" />
<glyph unicode="~" horiz-adv-x="1372" d="M205 623q28 100 97 157.5t163 57.5q126 0 246 -103q66 -55 108 -75.5t90 -20.5q62 0 110 51t68 146l66 -15q24 -6 18 -30q-26 -110 -95.5 -172t-168.5 -62q-126 0 -245 102q-66 55 -109 76t-90 21q-62 0 -110 -51t-68 -146q-38 -4 -66 12q-23 13 -14 52z" />
<glyph unicode="&#xa1;" horiz-adv-x="544" d="M209 1055q0 29 17 46t44 17t46.5 -19t19.5 -50q0 -29 -17.5 -46.5t-44.5 -17.5t-46 19.5t-19 50.5zM221 -68q0 311 19 809h32q19 0 25 -7t8 -27q19 -431 19 -775v-270q-33 -10 -68 -10t-35 24v256z" />
<glyph unicode="&#xa2;" horiz-adv-x="1124" d="M123 584q0 114 35.5 210t97 162.5t143.5 107.5t176 50v207q30 10 62 10q29 0 29 -24v-191q125 -7 221.5 -71t142.5 -152q16 -30 -12 -49q-26 -17 -62 -21q-42 99 -123.5 156t-199.5 57q-87 0 -164 -31.5t-133.5 -88.5t-89.5 -143t-33 -189q0 -102 30 -189.5t80.5 -148.5 t116 -104.5t136 -64t141.5 -20.5q150 0 270 66q14 -17 14 -43q0 -20 -38.5 -44t-109.5 -42.5t-148 -18.5h-23v-204h-49q-24 0 -32.5 7t-8.5 27v183q-95 18 -179 66t-149 121.5t-103 179t-38 229.5z" />
<glyph unicode="&#xa3;" horiz-adv-x="1220" d="M123 664q0 27 8 47h139v290q0 215 111 336t287 121q143 0 253 -82.5t158 -220.5q13 -35 -10 -49q-26 -16 -65 -19q-90 289 -338 289q-135 0 -220.5 -97t-85.5 -265v-303h500q20 0 27.5 -9t7.5 -32v-33h-535v-264q0 -200 -94 -291h821q20 0 27.5 -9t7.5 -32v-41h-934 q-20 0 -27 8.5t-7 32.5v35q61 58 88.5 117.5t27.5 164.5v279h-123q-24 0 -24 27z" />
<glyph unicode="&#xa4;" horiz-adv-x="1417" d="M160 1165q7 24 30 47q20 20 37 2l183 -186q130 105 299 105q170 0 297 -105l190 193q22 -6 47 -31q19 -20 2 -37l-180 -184q104 -123 104 -289q0 -168 -102 -291l190 -194q-7 -25 -30 -48q-19 -19 -37 -2l-184 185q-125 -103 -297 -103q-170 0 -297 105l-191 -193 q-22 6 -47 31q-20 20 -2 37l180 184q-104 123 -104 289q0 170 102 291zM330 694q0 -120 56 -211.5t144.5 -136.5t192.5 -45q93 0 175.5 44t135.5 129.5t53 191.5q0 120 -56 211.5t-144.5 136.5t-192.5 45q-93 0 -175.5 -44t-135.5 -129.5t-53 -191.5z" />
<glyph unicode="&#xa5;" horiz-adv-x="1341" d="M88 1395q40 43 68 43q18 0 34 -25l484 -696q141 142 274.5 335.5t218.5 381.5h52q50 0 34 -37q-97 -204 -239.5 -411.5t-302.5 -362.5v-21h270q20 0 27.5 -9t7.5 -32v-33h-305v-90h270q20 0 27.5 -9t7.5 -32v-32h-305v-365h-49q-23 0 -32 7.5t-9 27.5v330h-287 q-25 0 -25 26q0 27 8 47h304v90h-287q-25 0 -25 27t8 47h304v19z" />
<glyph unicode="&#xa6;" horiz-adv-x="630" d="M270 -252v660q30 10 62 10q28 0 28 -25v-680h-49q-23 0 -32 7.5t-9 27.5zM270 782v660q30 10 62 10q28 0 28 -25v-679h-49q-24 0 -32.5 7t-8.5 27z" />
<glyph unicode="&#xa7;" horiz-adv-x="1030" d="M147 631q0 88 50.5 154.5t144.5 103.5q-195 101 -195 278q0 129 98.5 210t256.5 81q125 0 221.5 -48.5t144.5 -129.5q18 -29 -12 -49q-21 -14 -57 -21q-39 80 -118.5 123t-180.5 43q-112 0 -187 -59.5t-75 -157.5q0 -91 71 -146.5t244 -101.5q183 -50 262.5 -122.5 t79.5 -192.5q0 -169 -186 -258q97 -44 141.5 -105.5t44.5 -150.5q0 -135 -101 -211t-288 -76q-83 0 -161 20t-120.5 45.5t-42.5 43.5q0 27 15 45q137 -72 305 -72q148 0 225.5 50.5t77.5 148.5q0 84 -66.5 142.5t-216.5 90.5q-199 42 -287 119.5t-88 202.5zM236 629 q0 -93 83 -152.5t285 -101.5q96 30 148.5 90.5t52.5 130.5q0 93 -83.5 152.5t-285.5 101.5q-96 -30 -148 -90.5t-52 -130.5z" />
<glyph unicode="&#xa8;" horiz-adv-x="839" d="M190 1323q0 29 17.5 47.5t44.5 18.5t46 -19.5t19 -50.5q0 -29 -17.5 -47.5t-43.5 -18.5q-27 0 -46.5 19.5t-19.5 50.5zM522 1323q0 29 17.5 47.5t44.5 18.5t46 -19.5t19 -50.5q0 -29 -17.5 -47.5t-43.5 -18.5q-27 0 -46.5 19.5t-19.5 50.5z" />
<glyph unicode="&#xa9;" horiz-adv-x="1687" d="M102 717q0 202 99.5 372.5t270 269.5t372.5 99q151 0 288.5 -58.5t236.5 -157.5t157.5 -236.5t58.5 -288.5q0 -202 -99 -372.5t-269.5 -270t-372.5 -99.5t-372.5 99.5t-270 270t-99.5 372.5zM180 717q0 -182 88.5 -336t241.5 -244t334 -90t334 90t241 244t88 336 q0 136 -52 260t-140.5 213.5t-211.5 142.5t-259 53t-259 -53t-211.5 -142.5t-141 -213.5t-52.5 -260zM500 743q0 164 98 266.5t254 102.5q90 0 159 -36t109 -97q10 -17 10 -31q0 -12 -16 -22q-24 -14 -49 -17q-61 133 -217 133q-117 0 -193.5 -82t-76.5 -215 q0 -157 97.5 -255.5t250.5 -98.5q46 0 95.5 11.5t80.5 31.5q10 -17 10 -37q0 -24 -66.5 -49.5t-150.5 -25.5q-79 0 -150.5 30t-126 83.5t-86.5 133.5t-32 174z" />
<glyph unicode="&#xaa;" horiz-adv-x="901" d="M98 883q0 116 87 184t223 68q146 0 256 -58v88q0 104 -64 159.5t-186 55.5q-134 0 -238 -51q-12 15 -12 39q0 13 33 32t96 34.5t133 15.5q148 0 231.5 -75.5t83.5 -215.5v-360q0 -84 56 -84h24q6 -12 6 -37q0 -11 -19.5 -21t-43.5 -10q-45 0 -72.5 34.5t-27.5 106.5v3 q-40 -66 -116 -109t-165 -43q-124 0 -204.5 69t-80.5 175zM176 883q0 -83 60 -128.5t147 -45.5q179 0 281 182v117q-100 57 -256 57q-105 0 -168.5 -48.5t-63.5 -133.5z" />
<glyph unicode="&#xab;" horiz-adv-x="1187" d="M147 637v25l437 311q24 18 39 18q18 0 18 -30q0 -28 -8 -52l-387 -270l372 -260q21 -15 21 -39v-74l-471 336q-21 15 -21 35zM547 637v25l436 311q24 18 39 18q18 0 18 -30q0 -28 -8 -52l-387 -270l373 -260q20 -14 20 -39v-74l-471 336q-20 14 -20 35z" />
<glyph unicode="&#xac;" horiz-adv-x="1372" d="M197 862q0 28 8 56h915q20 0 27.5 -9t7.5 -32v-504h-49q-23 0 -32 7.5t-9 27.5v428h-844q-24 0 -24 26z" />
<glyph unicode="&#xad;" horiz-adv-x="1003" d="M209 666q0 27 8 55h543q20 0 27.5 -9t7.5 -32v-41h-562q-24 0 -24 27z" />
<glyph unicode="&#xae;" horiz-adv-x="1687" d="M102 717q0 202 99.5 372.5t270 269.5t372.5 99q151 0 288.5 -58.5t236.5 -157.5t157.5 -236.5t58.5 -288.5q0 -202 -99 -372.5t-269.5 -270t-372.5 -99.5t-372.5 99.5t-270 270t-99.5 372.5zM180 717q0 -182 88.5 -336t241.5 -244t334 -90t334 90t241 244t88 336 q0 136 -52 260t-140.5 213.5t-211.5 142.5t-259 53t-259 -53t-211.5 -142.5t-141 -213.5t-52.5 -260zM584 358v754h250q145 0 227 -69.5t82 -192.5q0 -97 -47.5 -164.5t-134.5 -93.5q51 -91 118 -164q20 -21 34.5 -28t37.5 -7h16q7 -21 7 -31q0 -17 -18.5 -28.5t-43.5 -11.5 q-43 0 -102 67q-67 75 -125 189q-21 -3 -43 -3q-101 0 -180 23v-264h-48q-30 0 -30 24zM662 664q78 -19 159 -19q122 0 183 53t61 152q0 89 -61 140.5t-164 51.5h-178v-378z" />
<glyph unicode="&#xaf;" horiz-adv-x="839" d="M150 1311q0 27 8 47h497q20 0 27.5 -9t7.5 -32v-33h-516q-24 0 -24 27z" />
<glyph unicode="&#xb0;" horiz-adv-x="819" d="M111 1161q0 127 84.5 212t214.5 85t214.5 -85t84.5 -212t-84.5 -212t-214.5 -85t-214.5 85t-84.5 212zM188 1167q0 -108 67 -170.5t161 -62.5q91 0 153 60t62 161q0 108 -67 171t-161 63q-91 0 -153 -60.5t-62 -161.5z" />
<glyph unicode="&#xb1;" horiz-adv-x="1372" d="M197 27q0 27 8 55h936q20 0 27.5 -9t7.5 -32v-41h-955q-24 0 -24 27zM197 817q0 27 8 55h436v445q30 10 61 10q29 0 29 -24v-431h410q20 0 27.5 -9t7.5 -32v-40h-445v-455h-49q-23 0 -32 7.5t-9 27.5v420h-420q-24 0 -24 26z" />
<glyph unicode="&#xb2;" horiz-adv-x="802" d="M106 1247q0 9 7 23q40 83 116.5 131.5t171.5 48.5q127 0 203 -78.5t76 -202.5q0 -141 -111 -276t-284 -238h372q15 0 21 -5.5t6 -22.5v-45h-508q-27 0 -37 18t-14 47q213 113 343 249t130 267q0 101 -58 157t-139 56q-156 0 -223 -168q-25 0 -55 15q-17 10 -17 24z" />
<glyph unicode="&#xb3;" horiz-adv-x="802" d="M94 662q0 27 12 43q51 -30 118.5 -48t131.5 -18q116 0 181 48.5t65 123.5q0 97 -63.5 149t-200.5 74q-19 3 -27 17q-8 11 -12 36l250 273h-420q-20 0 -20 22q0 28 8 52h487q26 0 37 -19q10 -18 14 -47l-256 -278q140 -29 212.5 -95.5t72.5 -179.5q0 -114 -92 -182 t-234 -68q-57 0 -108.5 10.5t-84 26t-52 32t-19.5 28.5z" />
<glyph unicode="&#xb4;" horiz-adv-x="839" d="M246 1204l274 258q15 15 25 15q11 0 24 -13q15 -15 25 -41l-283 -247q-14 -11 -20 -11q-8 0 -17 9z" />
<glyph unicode="&#xb5;" horiz-adv-x="1286" d="M197 -432v1524q30 10 61 10q29 0 29 -25v-819q88 -97 197 -149t216 -52q158 0 239 93t81 278v666h49q23 0 32 -7.5t9 -27.5v-639q0 -207 -103 -326t-296 -119q-117 0 -228.5 50.5t-195.5 136.5v-629h-49q-23 0 -32 7.5t-9 27.5z" />
<glyph unicode="&#xb6;" horiz-adv-x="1157" d="M123 1092q0 106 58 185.5t148.5 118t198.5 38.5h494q22 0 29.5 -10t7.5 -38v-34h-170v-1620h-43q-28 0 -37.5 7.5t-9.5 29.5v1583h-172v-1620h-43q-28 0 -37.5 7.5t-9.5 29.5v981q-174 0 -294 91.5t-120 250.5z" />
<glyph unicode="&#xb7;" horiz-adv-x="671" d="M272 682q0 29 17.5 47.5t44.5 18.5t46 -19.5t19 -50.5q0 -29 -17.5 -47.5t-43.5 -18.5q-27 0 -46.5 19.5t-19.5 50.5z" />
<glyph unicode="&#xb8;" horiz-adv-x="839" d="M242 -428q0 19 8.5 23.5t30.5 -1.5q46 -12 88 -12q72 0 111.5 28t39.5 79q0 123 -223 141q-25 12 -25 25q0 4 4 12l72 133h84l-63 -119q109 -13 169 -64t60 -128q0 -85 -58.5 -130.5t-162.5 -45.5q-77 0 -135 22v37z" />
<glyph unicode="&#xb9;" horiz-adv-x="802" d="M152 1249q0 10 10 17l264 168h43q31 0 31 -27v-825h-54q-28 0 -28 26v731l-225 -143q-20 11 -33 31q-8 11 -8 22z" />
<glyph unicode="&#xba;" horiz-adv-x="901" d="M76 1044q0 97 30.5 175.5t83 128t119.5 76t142 26.5t142 -26.5t119 -76t82.5 -128t30.5 -175.5t-30.5 -175.5t-83 -128t-119 -75.5t-141.5 -26t-142 26t-119.5 75.5t-83 128t-30.5 175.5zM154 1053q0 -156 86.5 -250t218.5 -94q121 0 205 87t84 240q0 156 -87 250 t-219 94q-121 0 -204.5 -87t-83.5 -240z" />
<glyph unicode="&#xbb;" horiz-adv-x="1187" d="M147 961q0 30 19 30q15 0 39 -18l436 -311v-25q0 -21 -20 -35l-471 -336v74q0 25 20 39l373 260l-387 270q-9 27 -9 52zM547 961q0 30 18 30q15 0 39 -18l436 -311v-25q0 -21 -20 -35l-471 -336v74q0 25 20 39l373 260l-387 270q-8 24 -8 52z" />
<glyph unicode="&#xbc;" horiz-adv-x="1884" d="M152 1249q0 10 10 17l264 168h43q31 0 31 -27v-825h-54q-28 0 -28 26v731l-225 -143q-20 11 -33 31q-8 11 -8 22zM598 37l586 1397h37q23 0 30.5 -10.5t1.5 -26.5l-585 -1397h-37q-24 0 -31.5 10.5t-1.5 26.5zM1159 246q58 181 172 339t260 263q41 14 72 14q33 0 33 -31 v-577h92q15 0 21 -6t6 -23v-45h-119v-180h-54q-28 0 -28 27v153h-404q-25 0 -36 19q-12 20 -15 47zM1249 254h365v514q-114 -88 -214.5 -227t-150.5 -287z" />
<glyph unicode="&#xbd;" horiz-adv-x="1884" d="M152 1249q0 10 10 17l264 168h43q31 0 31 -27v-825h-54q-28 0 -28 26v731l-225 -143q-20 11 -33 31q-8 11 -8 22zM598 37l586 1397h37q23 0 30.5 -10.5t1.5 -26.5l-585 -1397h-37q-24 0 -31.5 10.5t-1.5 26.5zM1188 666q0 -15 16 -25q28 -14 56 -14q67 168 223 168 q81 0 138.5 -56t57.5 -157q0 -131 -130 -267t-343 -249q3 -28 15 -48q10 -18 36 -18h508v45q0 17 -5.5 23t-20.5 6h-373q173 103 284 238t111 276q0 124 -75.5 202t-202.5 78q-95 0 -172 -48.5t-117 -131.5q-6 -12 -6 -22z" />
<glyph unicode="&#xbe;" horiz-adv-x="1884" d="M94 662q0 -12 19.5 -28.5t52 -32t84 -26t108.5 -10.5q142 0 234 68t92 182q0 113 -72.5 179.5t-212.5 95.5l256 278q-4 29 -14 47q-11 19 -37 19h-487q-8 -24 -8 -52q0 -22 20 -22h420l-250 -273q4 -25 12 -36q8 -14 27 -17q137 -22 200.5 -74t63.5 -149 q0 -75 -65 -123.5t-181 -48.5q-64 0 -131.5 18t-118.5 48q-12 -16 -12 -43zM598 37l586 1397h37q23 0 30.5 -10.5t1.5 -26.5l-585 -1397h-37q-24 0 -31.5 10.5t-1.5 26.5zM1159 246q58 181 172 339t260 263q41 14 72 14q33 0 33 -31v-577h92q15 0 21 -6t6 -23v-45h-119v-180 h-54q-28 0 -28 27v153h-404q-25 0 -36 19q-12 20 -15 47zM1249 254h365v514q-114 -88 -214.5 -227t-150.5 -287z" />
<glyph unicode="&#xbf;" horiz-adv-x="1134" d="M147 18q0 -167 116 -275t296 -108q161 0 276.5 82.5t170.5 219.5q6 15 6 24q0 14 -19 27q-25 16 -61 20q-48 -146 -143.5 -218.5t-227.5 -72.5q-138 0 -230.5 83t-92.5 218q0 101 47 180t153 160q115 89 156 158.5t41 153.5v37q0 20 -8.5 27t-32.5 7h-49v-69 q0 -69 -32.5 -120.5t-137.5 -135.5q-119 -93 -173.5 -185.5t-54.5 -212.5zM526 1055q0 29 17.5 46t44.5 17t46 -19t19 -50q0 -29 -17 -46.5t-44 -17.5t-46.5 19.5t-19.5 50.5z" />
<glyph unicode="&#xc0;" horiz-adv-x="1347" d="M66 35l552 1390q39 17 78 17q25 0 37 -27l563 -1415h-59q-33 0 -45 31l-150 381h-737l-162 -412h-49q-43 0 -28 35zM336 494h674l-336 858zM461 1820q10 27 24 41q13 13 25 13q9 0 24 -15l275 -258l-29 -30q-9 -9 -16 -9t-21 11z" />
<glyph unicode="&#xc1;" horiz-adv-x="1347" d="M66 35l552 1390q39 17 78 17q25 0 37 -27l563 -1415h-59q-33 0 -45 31l-150 381h-737l-162 -412h-49q-43 0 -28 35zM336 494h674l-336 858zM535 1604l274 258q14 14 25 14q12 0 24 -12q15 -15 25 -41l-283 -248q-12 -10 -20 -10q-9 0 -17 8z" />
<glyph unicode="&#xc2;" horiz-adv-x="1347" d="M66 35l552 1390q39 17 78 17q25 0 37 -27l563 -1415h-59q-33 0 -45 31l-150 381h-737l-162 -412h-49q-43 0 -28 35zM336 494h674l-336 858zM381 1601q0 11 14 25l250 246h23q22 0 33 -11l268 -264l-37 -41q-8 -8 -14 -8q-11 0 -21 10l-229 228l-234 -234q-26 10 -41 25 q-12 12 -12 24z" />
<glyph unicode="&#xc3;" horiz-adv-x="1347" d="M66 35l552 1390q39 17 78 17q25 0 37 -27l563 -1415h-59q-33 0 -45 31l-150 381h-737l-162 -412h-49q-43 0 -28 35zM336 494h674l-336 858zM385 1657q0 21 12 57q37 109 146 109q83 0 151 -76q61 -66 107 -66q38 0 57.5 27.5t26.5 106.5l53 -11q14 -3 18.5 -12t1.5 -29 q-25 -151 -155 -151q-84 0 -152 76q-60 65 -106 65q-38 0 -58 -28t-26 -105q-43 0 -62 8q-14 7 -14 29z" />
<glyph unicode="&#xc4;" horiz-adv-x="1347" d="M66 35l552 1390q39 17 78 17q25 0 37 -27l563 -1415h-59q-33 0 -45 31l-150 381h-737l-162 -412h-49q-43 0 -28 35zM336 494h674l-336 858zM444 1720q0 29 17.5 47.5t44.5 18.5t46 -19.5t19 -50.5q0 -29 -17 -47t-44 -18t-46.5 19t-19.5 50zM776 1720q0 29 17.5 47.5 t44.5 18.5t46 -19.5t19 -50.5q0 -29 -17 -47t-44 -18t-46.5 19t-19.5 50z" />
<glyph unicode="&#xc5;" horiz-adv-x="1347" d="M66 35l552 1390q39 17 78 17q25 0 37 -27l563 -1415h-59q-33 0 -45 31l-150 381h-737l-162 -412h-49q-43 0 -28 35zM336 494h674l-336 858zM483 1718q0 77 56 129.5t135 52.5t134.5 -52.5t55.5 -129.5t-55.5 -129.5t-134.5 -52.5t-135 52.5t-56 129.5zM557 1724 q0 -57 34 -90t89 -33q46 0 78.5 32t32.5 79q0 57 -34 90t-89 33q-46 0 -78.5 -32t-32.5 -79z" />
<glyph unicode="&#xc6;" horiz-adv-x="1777" d="M41 35l721 1376q48 23 119 23h737q24 0 24 -27t-8 -55h-721v-607h584q20 0 27.5 -8.5t7.5 -31.5v-41h-619v-351q0 -133 37 -182t129 -49h545q20 0 27.5 -9t7.5 -32v-41h-588q-126 0 -187 68t-61 231v113h-489l-215 -412h-49q-44 0 -29 35zM377 494h446v858z" />
<glyph unicode="&#xc7;" horiz-adv-x="1406" d="M135 764q0 131 34.5 244t95 194.5t140.5 140t171.5 87t187.5 28.5q188 0 328 -84t208 -219q16 -30 -12 -49q-26 -18 -61 -21q-64 140 -185.5 215.5t-277.5 75.5q-104 0 -200 -41t-172 -116t-121.5 -192t-45.5 -257q0 -162 54.5 -298t147 -226t213.5 -139.5t255 -49.5 q206 0 350 88q15 -18 15 -43q0 -39 -112.5 -83t-256.5 -44h-23l-51 -94q110 -13 170 -64t60 -128q0 -85 -59 -130.5t-163 -45.5q-77 0 -135 22v37q0 19 8.5 23.5t30.5 -1.5q46 -12 88 -12q72 0 112 28t40 79q0 59 -56.5 95.5t-167.5 45.5q-24 12 -24 25q0 4 4 12l61 115 q-287 36 -469 248t-182 534z" />
<glyph unicode="&#xc8;" horiz-adv-x="1161" d="M217 299v1135h784q25 0 25 -27t-8 -55h-711v-607h574q20 0 27 -8.5t7 -31.5v-41h-608v-351q0 -133 37 -182t129 -49h535q20 0 27 -8.5t7 -32.5v-41h-577q-126 0 -187 68t-61 231zM420 1820q10 27 24 41q13 13 25 13q9 0 24 -15l275 -258l-29 -30q-9 -9 -16 -9t-21 11z " />
<glyph unicode="&#xc9;" horiz-adv-x="1161" d="M217 299v1135h784q25 0 25 -27t-8 -55h-711v-607h574q20 0 27 -8.5t7 -31.5v-41h-608v-351q0 -133 37 -182t129 -49h535q20 0 27 -8.5t7 -32.5v-41h-577q-126 0 -187 68t-61 231zM449 1601l274 258q15 15 25 15q11 0 24 -13q15 -15 25 -41l-283 -247q-14 -11 -20 -11 q-8 0 -17 9z" />
<glyph unicode="&#xca;" horiz-adv-x="1161" d="M217 299q0 -163 61 -231t187 -68h577v41q0 24 -7 32.5t-27 8.5h-535q-92 0 -129 49t-37 182v351h608v41q0 23 -7 31.5t-27 8.5h-574v607h711q8 28 8 55t-25 27h-784v-1135zM326 1602q0 10 14 24l250 246h22q23 0 33 -10l268 -265l-36 -41q-8 -8 -15 -8q-9 0 -20 11 l-230 227l-233 -234q-26 10 -41 25q-12 12 -12 25z" />
<glyph unicode="&#xcb;" horiz-adv-x="1161" d="M217 299v1135h784q25 0 25 -27t-8 -55h-711v-607h574q20 0 27 -8.5t7 -31.5v-41h-608v-351q0 -133 37 -182t129 -49h535q20 0 27 -8.5t7 -32.5v-41h-577q-126 0 -187 68t-61 231zM383 1720q0 29 17.5 47.5t44.5 18.5t46 -19.5t19 -50.5q0 -29 -17.5 -47.5t-43.5 -18.5 q-27 0 -46.5 19.5t-19.5 50.5zM715 1720q0 29 17.5 47.5t44.5 18.5t46 -19.5t19 -50.5q0 -29 -17.5 -47.5t-43.5 -18.5q-27 0 -46.5 19.5t-19.5 50.5z" />
<glyph unicode="&#xcc;" horiz-adv-x="557" d="M27 1821q10 27 24 41q12 12 25 12q10 0 24 -14l275 -258l-29 -31q-8 -8 -16 -8t-21 10zM233 35v1397q30 10 62 10q29 0 29 -25v-1417h-50q-23 0 -32 7.5t-9 27.5z" />
<glyph unicode="&#xcd;" horiz-adv-x="557" d="M183 1601l274 258q15 15 25 15q11 0 24 -13q15 -15 25 -41l-283 -247q-14 -11 -20 -11q-8 0 -17 9zM233 35v1397q30 10 62 10q29 0 29 -25v-1417h-50q-23 0 -32 7.5t-9 27.5z" />
<glyph unicode="&#xce;" horiz-adv-x="557" d="M-14 1601q0 11 14 25l250 246h23q22 0 33 -11l268 -264l-37 -41q-8 -8 -14 -8q-11 0 -21 10l-229 228l-234 -234q-26 10 -41 25q-12 12 -12 24zM233 35v1397q30 10 62 10q29 0 29 -25v-1417h-50q-23 0 -32 7.5t-9 27.5z" />
<glyph unicode="&#xcf;" horiz-adv-x="557" d="M49 1720q0 29 17.5 47.5t44.5 18.5t46 -19.5t19 -50.5q0 -29 -17 -47t-44 -18t-46.5 19t-19.5 50zM233 35v1397q30 10 62 10q29 0 29 -25v-1417h-50q-23 0 -32 7.5t-9 27.5zM381 1720q0 29 17.5 47.5t43.5 18.5q27 0 46.5 -19.5t19.5 -50.5q0 -29 -17.5 -47t-44.5 -18 t-46 19t-19 50z" />
<glyph unicode="&#xd0;" horiz-adv-x="1480" d="M72 707q0 27 8 47h137v680h430q202 0 359.5 -85.5t248.5 -249.5t91 -382t-91 -382t-248.5 -249.5t-359.5 -85.5h-182q-126 0 -187 68t-61 231v381h-121q-24 0 -24 27zM307 313q0 -133 37 -182t129 -49h180q123 0 231 41t191.5 118.5t131.5 200t48 275.5t-48 275.5 t-131.5 200t-191.5 118.5t-231 41h-346v-598h475q20 0 27.5 -9t7.5 -32v-33h-510v-367z" />
<glyph unicode="&#xd1;" horiz-adv-x="1470" d="M221 35v1374q45 33 80 33q23 0 37 -23l821 -1288v1303h49q23 0 32 -7.5t9 -27.5v-1374q-45 -33 -80 -33q-19 0 -36 22l-822 1289v-1303h-49q-23 0 -32 7.5t-9 27.5zM451 1657q0 21 12 57q37 109 145 109q84 0 152 -76q61 -66 106 -66q38 0 57.5 27.5t26.5 106.5l54 -11 q14 -3 18.5 -12t1.5 -29q-25 -151 -156 -151q-83 0 -151 76q-60 65 -107 65q-38 0 -58 -28t-26 -105q-42 0 -61 8q-14 7 -14 29z" />
<glyph unicode="&#xd2;" horiz-adv-x="1576" d="M135 717q0 144 34 265.5t94.5 208.5t142.5 147.5t178.5 90t203.5 29.5q134 0 251 -47.5t207.5 -137.5t143 -233.5t52.5 -322.5t-52.5 -322.5t-143 -234t-207.5 -138t-251 -47.5q-106 0 -203 29.5t-179 90.5t-142.5 148t-94.5 208.5t-34 265.5zM229 733q0 -169 46 -301 t126 -212.5t182.5 -121.5t221.5 -41q86 0 165 24.5t148 76.5t120 127t80.5 181.5t29.5 233.5q0 136 -30 248.5t-82.5 191t-125.5 132t-158 79t-180 25.5q-109 0 -205.5 -40t-172.5 -117t-120.5 -202.5t-44.5 -283.5zM578 1820q10 27 24 41q13 13 25 13q9 0 24 -15l275 -258 l-29 -30q-9 -9 -16 -9t-21 11z" />
<glyph unicode="&#xd3;" horiz-adv-x="1576" d="M135 717q0 144 34 265.5t94.5 208.5t142.5 147.5t178.5 90t203.5 29.5q134 0 251 -47.5t207.5 -137.5t143 -233.5t52.5 -322.5t-52.5 -322.5t-143 -234t-207.5 -138t-251 -47.5q-106 0 -203 29.5t-179 90.5t-142.5 148t-94.5 208.5t-34 265.5zM229 733q0 -169 46 -301 t126 -212.5t182.5 -121.5t221.5 -41q86 0 165 24.5t148 76.5t120 127t80.5 181.5t29.5 233.5q0 136 -30 248.5t-82.5 191t-125.5 132t-158 79t-180 25.5q-109 0 -205.5 -40t-172.5 -117t-120.5 -202.5t-44.5 -283.5zM637 1601l274 258q15 15 25 15q11 0 24 -13 q15 -15 25 -41l-283 -247q-14 -11 -20 -11q-8 0 -17 9z" />
<glyph unicode="&#xd4;" horiz-adv-x="1576" d="M135 717q0 144 34 265.5t94.5 208.5t142.5 147.5t178.5 90t203.5 29.5q134 0 251 -47.5t207.5 -137.5t143 -233.5t52.5 -322.5t-52.5 -322.5t-143 -234t-207.5 -138t-251 -47.5q-106 0 -203 29.5t-179 90.5t-142.5 148t-94.5 208.5t-34 265.5zM229 733q0 -169 46 -301 t126 -212.5t182.5 -121.5t221.5 -41q86 0 165 24.5t148 76.5t120 127t80.5 181.5t29.5 233.5q0 136 -30 248.5t-82.5 191t-125.5 132t-158 79t-180 25.5q-109 0 -205.5 -40t-172.5 -117t-120.5 -202.5t-44.5 -283.5zM495 1601q0 11 14 25l250 246h23q22 0 33 -11l268 -264 l-37 -41q-8 -8 -14 -8q-11 0 -21 10l-229 228l-234 -234q-26 10 -41 25q-12 12 -12 24z" />
<glyph unicode="&#xd5;" horiz-adv-x="1576" d="M135 717q0 144 34 265.5t94.5 208.5t142.5 147.5t178.5 90t203.5 29.5q134 0 251 -47.5t207.5 -137.5t143 -233.5t52.5 -322.5t-52.5 -322.5t-143 -234t-207.5 -138t-251 -47.5q-106 0 -203 29.5t-179 90.5t-142.5 148t-94.5 208.5t-34 265.5zM229 733q0 -169 46 -301 t126 -212.5t182.5 -121.5t221.5 -41q86 0 165 24.5t148 76.5t120 127t80.5 181.5t29.5 233.5q0 136 -30 248.5t-82.5 191t-125.5 132t-158 79t-180 25.5q-109 0 -205.5 -40t-172.5 -117t-120.5 -202.5t-44.5 -283.5zM502 1657q0 21 12 57q36 108 146 108q84 0 151 -75 q61 -66 107 -66q38 0 57.5 27t26.5 106l53 -10q26 -6 21 -41q-25 -152 -156 -152q-84 0 -152 76q-61 66 -106 66q-38 0 -58 -28t-26 -105q-43 0 -62 8q-14 7 -14 29z" />
<glyph unicode="&#xd6;" horiz-adv-x="1576" d="M135 717q0 -144 34 -265.5t94.5 -208.5t142.5 -148t179 -90.5t203 -29.5q134 0 251 47.5t207.5 138t143 234t52.5 322.5t-52.5 322.5t-143 233.5t-207.5 137.5t-251 47.5q-107 0 -203.5 -29.5t-178.5 -90t-142.5 -147.5t-94.5 -208.5t-34 -265.5zM229 733 q0 158 44.5 283.5t120.5 202.5t172.5 117t205.5 40q95 0 180 -25.5t158 -79t125.5 -132t82.5 -191t30 -248.5q0 -127 -29.5 -233.5t-80.5 -181.5t-120 -127t-148 -76.5t-165 -24.5q-119 0 -221.5 41t-182.5 121.5t-126 212.5t-46 301zM559 1720q0 29 17.5 47.5t44.5 18.5 t46 -19.5t19 -50.5q0 -29 -17 -47t-44 -18t-46.5 19t-19.5 50zM891 1720q0 29 17.5 47.5t43.5 18.5q27 0 46.5 -19.5t19.5 -50.5q0 -29 -17.5 -47t-44.5 -18t-46 19t-19 50z" />
<glyph unicode="&#xd7;" horiz-adv-x="1372" d="M281 330l346 352l-346 356q14 31 32 49q19 16 35 0l338 -346l338 346q16 16 35 0q20 -20 33 -49l-349 -356l349 -352l-33 -33q-27 -27 -51 -2l-322 328l-321 -328q-25 -25 -52 2z" />
<glyph unicode="&#xd8;" horiz-adv-x="1576" d="M103.5 14q-6.5 14 13.5 33l162 176q-144 194 -144 494q0 144 34 265.5t94.5 208.5t142.5 147.5t178.5 90t203.5 29.5q133 0 250 -46.5t205 -137.5l148 160h45q31 0 37.5 -14.5t-13.5 -33.5l-162 -176q144 -198 144 -493q0 -179 -52.5 -322.5t-143 -234t-207.5 -138 t-251 -47.5q-276 0 -456 183l-146 -158h-45q-31 0 -37.5 14zM229 733q0 -264 113 -440l840 913q-76 84 -182.5 127t-227.5 43q-109 0 -205.5 -40t-172.5 -117t-120.5 -202.5t-44.5 -283.5zM395 225q152 -168 410 -168q86 0 165 24.5t148 76.5t120 127t80.5 181.5t29.5 233.5 q0 270 -115 439z" />
<glyph unicode="&#xd9;" horiz-adv-x="1474" d="M209 596v836q30 10 61 10q29 0 29 -25v-829q0 -240 121 -385.5t317 -145.5t317.5 145.5t121.5 385.5v846h49q23 0 32 -7.5t9 -27.5v-803q0 -286 -145 -453.5t-384 -167.5q-238 0 -383 167.5t-145 453.5zM527 1820q10 27 24 41q13 13 25 13q9 0 24 -15l275 -258l-29 -30 q-9 -9 -16 -9t-21 11z" />
<glyph unicode="&#xda;" horiz-adv-x="1474" d="M209 596v836q30 10 61 10q29 0 29 -25v-829q0 -240 121 -385.5t317 -145.5t317.5 145.5t121.5 385.5v846h49q23 0 32 -7.5t9 -27.5v-803q0 -286 -145 -453.5t-384 -167.5q-238 0 -383 167.5t-145 453.5zM588 1601l274 258q15 15 25 15q11 0 24 -13q15 -15 25 -41 l-283 -247q-14 -11 -20 -11q-8 0 -17 9z" />
<glyph unicode="&#xdb;" horiz-adv-x="1474" d="M209 596v836q30 10 61 10q29 0 29 -25v-829q0 -240 121 -385.5t317 -145.5t317.5 145.5t121.5 385.5v846h49q23 0 32 -7.5t9 -27.5v-803q0 -286 -145 -453.5t-384 -167.5q-238 0 -383 167.5t-145 453.5zM444 1601q0 11 14 25l250 246h23q22 0 33 -11l268 -264l-37 -41 q-8 -8 -14 -8q-11 0 -21 10l-229 228l-234 -234q-26 10 -41 25q-12 12 -12 24z" />
<glyph unicode="&#xdc;" horiz-adv-x="1474" d="M209 596q0 -286 145 -453.5t383 -167.5q239 0 384 167.5t145 453.5v803q0 20 -9 27.5t-32 7.5h-49v-846q0 -240 -121.5 -385.5t-317.5 -145.5t-317 145.5t-121 385.5v829q0 25 -29 25q-31 0 -61 -10v-836zM508 1720q0 29 17.5 47.5t43.5 18.5q27 0 46.5 -19.5t19.5 -50.5 q0 -29 -17.5 -47t-44.5 -18t-46 19t-19 50zM840 1720q0 29 17.5 47.5t43.5 18.5q27 0 46.5 -19.5t19.5 -50.5q0 -29 -17.5 -47t-44.5 -18t-46 19t-19 50z" />
<glyph unicode="&#xdd;" horiz-adv-x="1331" d="M88 1395q40 43 68 43q18 0 34 -25l469 -833q314 372 496 854h51q49 0 35 -37q-92 -244 -231.5 -479.5t-311.5 -436.5v-481h-49q-23 0 -32 7.5t-9 27.5v442zM533 1601l274 258q15 15 25 15q11 0 24 -13q15 -15 25 -41l-283 -247q-14 -11 -20 -11q-8 0 -17 9z" />
<glyph unicode="&#xde;" horiz-adv-x="1288" d="M221 35v1397q30 10 62 10q28 0 28 -25v-188h312q249 0 402 -137t153 -379q0 -125 -43.5 -224.5t-118.5 -162.5t-173 -96t-210 -33q-176 0 -322 49v-246h-49q-23 0 -32 7.5t-9 27.5zM311 319q127 -40 322 -40q204 0 329 115.5t125 318.5q0 141 -61 240t-164 146.5 t-237 47.5h-314v-828z" />
<glyph unicode="&#xdf;" horiz-adv-x="1280" d="M197 35v944q0 226 116.5 352.5t309.5 126.5q181 0 293 -103.5t112 -256.5q0 -120 -72 -206.5t-198 -127.5q201 -43 314.5 -157.5t113.5 -274.5q0 -70 -28.5 -133.5t-82 -114t-139.5 -80t-193 -29.5q-113 0 -216 35.5t-103 71.5q0 26 14 43q59 -32 140.5 -50t156.5 -18 q158 0 259.5 79.5t101.5 199.5q0 142 -110.5 243t-352.5 146q-12 30 -12 49q0 24 36 33q129 27 205 106t76 179q0 125 -87 204.5t-226 79.5q-151 0 -244.5 -101.5t-93.5 -285.5v-989h-49q-23 0 -32 7.5t-9 27.5z" />
<glyph unicode="&#xe0;" horiz-adv-x="1214" d="M123 324q0 164 114.5 257t307.5 93q191 0 366 -82v133q0 156 -97.5 233.5t-260.5 77.5q-199 0 -324 -73q-14 18 -14 43q0 16 27.5 35t73 36.5t113 29t138.5 11.5q198 0 316 -103.5t118 -297.5v-535q0 -64 19 -91.5t59 -27.5h35q6 -15 6 -34q0 -16 -23 -29.5t-57 -13.5 q-58 0 -93.5 49.5t-35.5 150.5v15q-59 -98 -167.5 -162t-241.5 -64q-173 0 -276 97t-103 252zM213 324q0 -123 83.5 -195t203.5 -72q124 0 230 63t181 193v199q-76 38 -173.5 59t-192.5 21q-154 0 -243 -73.5t-89 -194.5zM406 1464q10 27 24 41q13 13 25 13q9 0 24 -15 l275 -258l-29 -30q-9 -9 -16 -9t-21 11z" />
<glyph unicode="&#xe1;" horiz-adv-x="1214" d="M123 324q0 164 114.5 257t307.5 93q191 0 366 -82v133q0 156 -97.5 233.5t-260.5 77.5q-199 0 -324 -73q-14 18 -14 43q0 16 27.5 35t73 36.5t113 29t138.5 11.5q198 0 316 -103.5t118 -297.5v-535q0 -64 19 -91.5t59 -27.5h35q6 -15 6 -34q0 -16 -23 -29.5t-57 -13.5 q-58 0 -93.5 49.5t-35.5 150.5v15q-59 -98 -167.5 -162t-241.5 -64q-173 0 -276 97t-103 252zM213 324q0 -123 83.5 -195t203.5 -72q124 0 230 63t181 193v199q-76 38 -173.5 59t-192.5 21q-154 0 -243 -73.5t-89 -194.5zM426 1245l274 258q15 15 25 15q11 0 24 -13 q15 -15 25 -41l-283 -247q-14 -11 -20 -11q-8 0 -17 9z" />
<glyph unicode="&#xe2;" horiz-adv-x="1214" d="M123 324q0 164 114.5 257t307.5 93q191 0 366 -82v133q0 156 -97.5 233.5t-260.5 77.5q-199 0 -324 -73q-14 18 -14 43q0 16 27.5 35t73 36.5t113 29t138.5 11.5q198 0 316 -103.5t118 -297.5v-535q0 -64 19 -91.5t59 -27.5h35q6 -15 6 -34q0 -16 -23 -29.5t-57 -13.5 q-58 0 -93.5 49.5t-35.5 150.5v15q-59 -98 -167.5 -162t-241.5 -64q-173 0 -276 97t-103 252zM213 324q0 -123 83.5 -195t203.5 -72q124 0 230 63t181 193v199q-76 38 -173.5 59t-192.5 21q-154 0 -243 -73.5t-89 -194.5zM311 1245q0 11 14 25l250 246h23q22 0 33 -11 l268 -264l-37 -41q-8 -8 -14 -8q-11 0 -21 10l-229 228l-234 -234q-26 10 -41 25q-12 12 -12 24z" />
<glyph unicode="&#xe3;" horiz-adv-x="1214" d="M123 324q0 164 114.5 257t307.5 93q191 0 366 -82v133q0 156 -97.5 233.5t-260.5 77.5q-199 0 -324 -73q-14 18 -14 43q0 16 27.5 35t73 36.5t113 29t138.5 11.5q198 0 316 -103.5t118 -297.5v-535q0 -64 19 -91.5t59 -27.5h35q6 -15 6 -34q0 -16 -23 -29.5t-57 -13.5 q-58 0 -93.5 49.5t-35.5 150.5v15q-59 -98 -167.5 -162t-241.5 -64q-173 0 -276 97t-103 252zM213 324q0 -123 83.5 -195t203.5 -72q124 0 230 63t181 193v199q-76 38 -173.5 59t-192.5 21q-154 0 -243 -73.5t-89 -194.5zM307 1298q0 22 12 58q36 108 146 108q84 0 151 -75 q61 -66 107 -66q38 0 57.5 27t26.5 106l53 -10q26 -6 21 -41q-25 -152 -156 -152q-84 0 -152 76q-61 66 -106 66q-38 0 -58 -28t-26 -105q-42 0 -61 8q-15 8 -15 28z" />
<glyph unicode="&#xe4;" horiz-adv-x="1214" d="M123 324q0 164 114.5 257t307.5 93q191 0 366 -82v133q0 156 -97.5 233.5t-260.5 77.5q-199 0 -324 -73q-14 18 -14 43q0 16 27.5 35t73 36.5t113 29t138.5 11.5q198 0 316 -103.5t118 -297.5v-535q0 -64 19 -91.5t59 -27.5h35q6 -15 6 -34q0 -16 -23 -29.5t-57 -13.5 q-58 0 -93.5 49.5t-35.5 150.5v15q-59 -98 -167.5 -162t-241.5 -64q-173 0 -276 97t-103 252zM213 324q0 -123 83.5 -195t203.5 -72q124 0 230 63t181 193v199q-76 38 -173.5 59t-192.5 21q-154 0 -243 -73.5t-89 -194.5zM369 1364q0 29 17.5 47.5t43.5 18.5 q27 0 46.5 -19.5t19.5 -50.5q0 -29 -17.5 -47.5t-44.5 -18.5t-46 19.5t-19 50.5zM700 1364q0 29 17.5 47.5t44.5 18.5t46 -19.5t19 -50.5q0 -29 -17.5 -47.5t-43.5 -18.5q-27 0 -46.5 19.5t-19.5 50.5z" />
<glyph unicode="&#xe5;" horiz-adv-x="1214" d="M123 324q0 164 114.5 257t307.5 93q191 0 366 -82v133q0 156 -97.5 233.5t-260.5 77.5q-199 0 -324 -73q-14 18 -14 43q0 16 27.5 35t73 36.5t113 29t138.5 11.5q198 0 316 -103.5t118 -297.5v-535q0 -64 19 -91.5t59 -27.5h35q6 -15 6 -34q0 -16 -23 -29.5t-57 -13.5 q-58 0 -93.5 49.5t-35.5 150.5v15q-59 -98 -167.5 -162t-241.5 -64q-173 0 -276 97t-103 252zM213 324q0 -123 83.5 -195t203.5 -72q124 0 230 63t181 193v199q-76 38 -173.5 59t-192.5 21q-154 0 -243 -73.5t-89 -194.5zM395 1362q0 77 56 129.5t135 52.5t134.5 -52.5 t55.5 -129.5t-55.5 -129.5t-134.5 -52.5t-135 52.5t-56 129.5zM469 1368q0 -57 34 -90t89 -33q46 0 78.5 32t32.5 79q0 57 -34 90t-89 33q-46 0 -78.5 -32t-32.5 -79z" />
<glyph unicode="&#xe6;" horiz-adv-x="1959" d="M123 319q0 164 115 259.5t307 95.5q194 0 366 -90v141q0 156 -97.5 233.5t-260.5 77.5q-199 0 -324 -73q-14 18 -14 43q0 16 27.5 35t73 36.5t113 29t138.5 11.5q159 0 269.5 -70t146.5 -202q65 127 184.5 199.5t255.5 72.5q188 0 307 -113.5t119 -293.5q0 -72 -22 -136 q-14 -41 -35.5 -54t-65.5 -13h-722q7 -104 47 -190.5t101 -142.5t138 -87t160 -31q163 0 281 68q14 -17 14 -43q0 -14 -23 -32.5t-61 -35t-97 -28t-122 -11.5q-149 0 -268 72t-189 201q-87 -132 -210.5 -202.5t-272.5 -70.5q-172 0 -275.5 96t-103.5 248zM213 319 q0 -119 84 -190.5t203 -71.5q127 0 244 67.5t200 211.5q-27 80 -33 168q-75 42 -172.5 65t-193.5 23q-153 0 -242.5 -75.5t-89.5 -197.5zM1001 590h736q22 49 22 121q0 146 -94.5 235.5t-245.5 89.5q-78 0 -151 -32t-130.5 -88.5t-94.5 -141.5t-42 -184z" />
<glyph unicode="&#xe7;" horiz-adv-x="1124" d="M123 584q0 123 41 225t111 168.5t162.5 103.5t195.5 37q137 0 243 -65t154 -160q16 -30 -12 -49q-26 -17 -62 -21q-42 99 -123.5 156t-199.5 57q-87 0 -164 -31.5t-133.5 -88.5t-89.5 -143t-33 -189q0 -102 30 -189.5t80.5 -148.5t116 -104.5t136 -64t141.5 -20.5 q150 0 270 66q14 -17 14 -43q0 -20 -38.5 -44t-109.5 -42.5t-148 -18.5h-17l-49 -94q109 -13 169 -64t60 -128q0 -85 -58.5 -130.5t-162.5 -45.5q-77 0 -135 22v37q0 19 8.5 23.5t30.5 -1.5q46 -12 88 -12q72 0 112 28t40 79q0 59 -56.5 95.5t-167.5 45.5q-24 12 -24 25 q0 4 4 12l61 117q-98 16 -184.5 63t-154 121t-107 182t-39.5 234z" />
<glyph unicode="&#xe8;" d="M123 557q0 125 42.5 231.5t113.5 178t163.5 111.5t192.5 40q188 0 307 -113.5t119 -293.5q0 -69 -23 -136q-14 -41 -35.5 -54t-64.5 -13h-723q10 -138 75.5 -242.5t162.5 -156.5t209 -52q162 0 280 68q14 -17 14 -43q0 -14 -23 -32.5t-61 -35t-97 -28t-122 -11.5 q-111 0 -208.5 42.5t-168.5 117.5t-112 184.5t-41 237.5zM213 590h735q23 51 23 121q0 146 -94.5 235.5t-245.5 89.5q-78 0 -151 -32t-130.5 -88.5t-94.5 -141.5t-42 -184zM424 1464q10 27 24 41q13 13 25 13q9 0 24 -15l275 -258l-29 -30q-9 -9 -16 -9t-21 11z" />
<glyph unicode="&#xe9;" d="M123 557q0 125 42.5 231.5t113.5 178t163.5 111.5t192.5 40q188 0 307 -113.5t119 -293.5q0 -69 -23 -136q-14 -41 -35.5 -54t-64.5 -13h-723q10 -138 75.5 -242.5t162.5 -156.5t209 -52q162 0 280 68q14 -17 14 -43q0 -14 -23 -32.5t-61 -35t-97 -28t-122 -11.5 q-111 0 -208.5 42.5t-168.5 117.5t-112 184.5t-41 237.5zM213 590h735q23 51 23 121q0 146 -94.5 235.5t-245.5 89.5q-78 0 -151 -32t-130.5 -88.5t-94.5 -141.5t-42 -184zM424 1245l274 258q15 15 25 15q11 0 24 -13q15 -15 25 -41l-283 -247q-14 -11 -20 -11q-8 0 -17 9z " />
<glyph unicode="&#xea;" d="M123 557q0 125 42.5 231.5t113.5 178t163.5 111.5t192.5 40q188 0 307 -113.5t119 -293.5q0 -69 -23 -136q-14 -41 -35.5 -54t-64.5 -13h-723q10 -138 75.5 -242.5t162.5 -156.5t209 -52q162 0 280 68q14 -17 14 -43q0 -14 -23 -32.5t-61 -35t-97 -28t-122 -11.5 q-111 0 -208.5 42.5t-168.5 117.5t-112 184.5t-41 237.5zM213 590h735q23 51 23 121q0 146 -94.5 235.5t-245.5 89.5q-78 0 -151 -32t-130.5 -88.5t-94.5 -141.5t-42 -184zM328 1245q0 11 14 25l250 246h22q22 0 33 -11l268 -264l-36 -41q-8 -8 -15 -8q-10 0 -20 10 l-230 228l-233 -234q-26 10 -41 25q-12 12 -12 24z" />
<glyph unicode="&#xeb;" d="M123 557q0 125 42.5 231.5t113.5 178t163.5 111.5t192.5 40q188 0 307 -113.5t119 -293.5q0 -69 -23 -136q-14 -41 -35.5 -54t-64.5 -13h-723q10 -138 75.5 -242.5t162.5 -156.5t209 -52q162 0 280 68q14 -17 14 -43q0 -14 -23 -32.5t-61 -35t-97 -28t-122 -11.5 q-111 0 -208.5 42.5t-168.5 117.5t-112 184.5t-41 237.5zM213 590h735q23 51 23 121q0 146 -94.5 235.5t-245.5 89.5q-78 0 -151 -32t-130.5 -88.5t-94.5 -141.5t-42 -184zM389 1364q0 29 17.5 47.5t44.5 18.5t46 -19.5t19 -50.5q0 -29 -17.5 -47.5t-43.5 -18.5 q-27 0 -46.5 19.5t-19.5 50.5zM721 1364q0 29 17.5 47.5t44.5 18.5t46 -19.5t19 -50.5q0 -29 -17.5 -47.5t-43.5 -18.5q-27 0 -46.5 19.5t-19.5 50.5z" />
<glyph unicode="&#xec;" horiz-adv-x="514" d="M4 1464q10 27 24 41q13 13 25 13q9 0 24 -15l275 -258l-29 -30q-9 -9 -16 -9t-21 11zM197 168v924q30 10 61 10q29 0 29 -25v-909q0 -57 18.5 -81t56.5 -24h37q7 -18 7 -34t-23 -29.5t-57 -13.5q-58 0 -93.5 44.5t-35.5 137.5z" />
<glyph unicode="&#xed;" horiz-adv-x="514" d="M119 1245l274 258q15 15 25 15q11 0 24 -13q15 -15 25 -41l-283 -247q-14 -11 -20 -11q-8 0 -17 9zM197 168v924q30 10 61 10q29 0 29 -25v-909q0 -57 18.5 -81t56.5 -24h37q7 -18 7 -34t-23 -29.5t-57 -13.5q-58 0 -93.5 44.5t-35.5 137.5z" />
<glyph unicode="&#xee;" horiz-adv-x="514" d="M-49 1245q0 11 14 25l250 246h23q22 0 33 -11l268 -264l-37 -41q-8 -8 -14 -8q-11 0 -21 10l-229 228l-234 -234q-26 10 -41 25q-12 12 -12 24zM197 168v924q30 10 61 10q29 0 29 -25v-909q0 -57 18.5 -81t56.5 -24h37q7 -18 7 -34t-23 -29.5t-57 -13.5q-58 0 -93.5 44.5 t-35.5 137.5z" />
<glyph unicode="&#xef;" horiz-adv-x="514" d="M12 1364q0 29 17.5 47.5t44.5 18.5t46 -19.5t19 -50.5q0 -29 -17.5 -47.5t-43.5 -18.5q-27 0 -46.5 19.5t-19.5 50.5zM197 168v924q30 10 61 10q29 0 29 -25v-909q0 -57 18.5 -81t56.5 -24h37q7 -18 7 -34t-23 -29.5t-57 -13.5q-58 0 -93.5 44.5t-35.5 137.5zM344 1364 q0 29 17.5 47.5t44.5 18.5t46 -19.5t19 -50.5q0 -29 -17.5 -47.5t-43.5 -18.5q-27 0 -46.5 19.5t-19.5 50.5z" />
<glyph unicode="&#xf0;" horiz-adv-x="1218" d="M111 424q0 129 43.5 236.5t116.5 176.5t165 106.5t191 37.5q104 0 204 -35.5t173 -107.5q-8 249 -99 407l-237 -143q-20 -11 -33 8q-15 27 -19 45l248 150q-114 133 -303 133q-147 0 -272 -64q-15 19 -15 43q0 33 94.5 68t202.5 35q231 0 367 -170l117 71q19 11 29 7.5 t22 -23.5l16 -27l-143 -88q117 -197 117 -557q0 -371 -143 -564.5t-396 -193.5q-195 0 -320.5 124t-125.5 325zM201 424q0 -159 98.5 -263t257.5 -104q204 0 326.5 168.5t122.5 489.5v22q-156 162 -377 162q-81 0 -157 -31t-137 -89t-97.5 -150.5t-36.5 -204.5z" />
<glyph unicode="&#xf1;" horiz-adv-x="1306" d="M197 35v1057q30 10 61 10q29 0 29 -25v-121q88 75 197.5 118.5t220.5 43.5q191 0 288 -117.5t97 -326.5v-506q0 -57 18.5 -81t56.5 -24h37q6 -15 6 -34q0 -16 -23 -29.5t-57 -13.5q-58 0 -93.5 44.5t-35.5 137.5v498q0 185 -75 277.5t-230 92.5q-105 0 -212 -43 t-195 -127v-866h-49q-23 0 -32 7.5t-9 27.5zM354 1298q0 19 13 58q36 108 145 108q85 0 152 -75q61 -66 106 -66q38 0 57.5 27t26.5 106l53 -10q26 -6 21 -41q-25 -152 -156 -152q-83 0 -151 76q-61 66 -107 66q-38 0 -58 -28t-26 -105q-42 0 -61 8q-15 8 -15 28z" />
<glyph unicode="&#xf2;" horiz-adv-x="1286" d="M123 547q0 130 41.5 239t112.5 181t165.5 111.5t200.5 39.5t200.5 -39.5t165.5 -111.5t112.5 -181t41.5 -239t-41.5 -239t-112.5 -181t-165.5 -112t-200.5 -40t-200.5 40t-165.5 112t-112.5 181t-41.5 239zM213 559q0 -121 36.5 -218.5t98.5 -158.5t140.5 -93t166.5 -32 q81 0 155.5 31t133.5 88.5t94 150.5t35 208q0 121 -36.5 218.5t-98.5 158t-140.5 92.5t-166.5 32q-81 0 -155 -30.5t-133.5 -88.5t-94.5 -150.5t-35 -207.5zM430 1464q10 27 24 41q13 13 25 13q9 0 24 -15l275 -258l-29 -30q-9 -9 -16 -9t-21 11z" />
<glyph unicode="&#xf3;" horiz-adv-x="1286" d="M123 547q0 130 41.5 239t112.5 181t165.5 111.5t200.5 39.5t200.5 -39.5t165.5 -111.5t112.5 -181t41.5 -239t-41.5 -239t-112.5 -181t-165.5 -112t-200.5 -40t-200.5 40t-165.5 112t-112.5 181t-41.5 239zM213 559q0 -121 36.5 -218.5t98.5 -158.5t140.5 -93t166.5 -32 q81 0 155.5 31t133.5 88.5t94 150.5t35 208q0 121 -36.5 218.5t-98.5 158t-140.5 92.5t-166.5 32q-81 0 -155 -30.5t-133.5 -88.5t-94.5 -150.5t-35 -207.5zM492 1245l274 258q15 15 25 15q11 0 24 -13q15 -15 25 -41l-283 -247q-14 -11 -20 -11q-8 0 -17 9z" />
<glyph unicode="&#xf4;" horiz-adv-x="1286" d="M123 547q0 130 41.5 239t112.5 181t165.5 111.5t200.5 39.5t200.5 -39.5t165.5 -111.5t112.5 -181t41.5 -239t-41.5 -239t-112.5 -181t-165.5 -112t-200.5 -40t-200.5 40t-165.5 112t-112.5 181t-41.5 239zM213 559q0 -121 36.5 -218.5t98.5 -158.5t140.5 -93t166.5 -32 q81 0 155.5 31t133.5 88.5t94 150.5t35 208q0 121 -36.5 218.5t-98.5 158t-140.5 92.5t-166.5 32q-81 0 -155 -30.5t-133.5 -88.5t-94.5 -150.5t-35 -207.5zM356 1245q0 11 14 25l250 246h23q22 0 33 -11l268 -264l-37 -41q-8 -8 -14 -8q-11 0 -21 10l-229 228l-234 -234 q-26 10 -41 25q-12 12 -12 24z" />
<glyph unicode="&#xf5;" horiz-adv-x="1286" d="M123 547q0 130 41.5 239t112.5 181t165.5 111.5t200.5 39.5t200.5 -39.5t165.5 -111.5t112.5 -181t41.5 -239t-41.5 -239t-112.5 -181t-165.5 -112t-200.5 -40t-200.5 40t-165.5 112t-112.5 181t-41.5 239zM213 559q0 -121 36.5 -218.5t98.5 -158.5t140.5 -93t166.5 -32 q81 0 155.5 31t133.5 88.5t94 150.5t35 208q0 121 -36.5 218.5t-98.5 158t-140.5 92.5t-166.5 32q-81 0 -155 -30.5t-133.5 -88.5t-94.5 -150.5t-35 -207.5zM354 1299q0 21 12 57q36 108 146 108q84 0 151 -75q61 -66 107 -66q38 0 57.5 27t26.5 106l53 -10q26 -6 21 -41 q-25 -152 -156 -152q-84 0 -152 76q-61 66 -106 66q-38 0 -58 -28t-26 -105q-43 0 -62 8q-14 7 -14 29z" />
<glyph unicode="&#xf6;" horiz-adv-x="1286" d="M123 547q0 130 41.5 239t112.5 181t165.5 111.5t200.5 39.5t200.5 -39.5t165.5 -111.5t112.5 -181t41.5 -239t-41.5 -239t-112.5 -181t-165.5 -112t-200.5 -40t-200.5 40t-165.5 112t-112.5 181t-41.5 239zM213 559q0 -121 36.5 -218.5t98.5 -158.5t140.5 -93t166.5 -32 q81 0 155.5 31t133.5 88.5t94 150.5t35 208q0 121 -36.5 218.5t-98.5 158t-140.5 92.5t-166.5 32q-81 0 -155 -30.5t-133.5 -88.5t-94.5 -150.5t-35 -207.5zM414 1364q0 29 17.5 47.5t43.5 18.5q27 0 46.5 -19.5t19.5 -50.5q0 -29 -17.5 -47.5t-44.5 -18.5t-46 19.5 t-19 50.5zM745 1364q0 29 17.5 47.5t44.5 18.5t46 -19.5t19 -50.5q0 -29 -17.5 -47.5t-43.5 -18.5q-27 0 -46.5 19.5t-19.5 50.5z" />
<glyph unicode="&#xf7;" horiz-adv-x="1372" d="M197 666q0 -27 24 -27h955v41q0 23 -7.5 32t-27.5 9h-936q-8 -28 -8 -55zM623 295q0 29 17 47t44 18t46.5 -19t19.5 -50q0 -29 -17.5 -47.5t-44.5 -18.5t-46 19.5t-19 50.5zM623 1069q0 29 17.5 47.5t43.5 18.5q27 0 46.5 -19.5t19.5 -50.5q0 -29 -17.5 -47.5 t-44.5 -18.5t-46 19.5t-19 50.5z" />
<glyph unicode="&#xf8;" horiz-adv-x="1286" d="M115 14q-6 14 12 33l113 123q-117 149 -117 377q0 130 41.5 239t112.5 181t165.5 111.5t200.5 39.5q204 0 348 -135l101 111h43q31 0 36.5 -14t-12.5 -33l-115 -123q119 -154 119 -377q0 -130 -41.5 -239t-112.5 -181t-165.5 -112t-200.5 -40q-205 0 -348 134l-100 -109 h-43q-31 0 -37 14zM213 559q0 -190 90 -321l627 680q-121 118 -299 118q-81 0 -155 -30.5t-133.5 -88.5t-94.5 -150.5t-35 -207.5zM354 174q123 -117 301 -117q81 0 155.5 31t133.5 88.5t94 150.5t35 208q0 187 -90 321z" />
<glyph unicode="&#xf9;" horiz-adv-x="1249" d="M176 461v631q30 10 62 10q28 0 28 -25v-620q0 -183 102.5 -291.5t256.5 -108.5t256 108.5t102 291.5v637h49q23 0 32 -7.5t9 -27.5v-598q0 -220 -127 -353t-321 -133q-195 0 -322 133t-127 353zM412 1464q10 27 24 41q13 13 25 13q9 0 24 -15l275 -258l-29 -30 q-9 -9 -16 -9t-21 11z" />
<glyph unicode="&#xfa;" horiz-adv-x="1249" d="M176 461v631q30 10 62 10q28 0 28 -25v-620q0 -183 102.5 -291.5t256.5 -108.5t256 108.5t102 291.5v637h49q23 0 32 -7.5t9 -27.5v-598q0 -220 -127 -353t-321 -133q-195 0 -322 133t-127 353zM471 1245l274 258q15 15 25 15q11 0 24 -13q15 -15 25 -41l-283 -247 q-14 -11 -20 -11q-8 0 -17 9z" />
<glyph unicode="&#xfb;" horiz-adv-x="1249" d="M176 461v631q30 10 62 10q28 0 28 -25v-620q0 -183 102.5 -291.5t256.5 -108.5t256 108.5t102 291.5v637h49q23 0 32 -7.5t9 -27.5v-598q0 -220 -127 -353t-321 -133q-195 0 -322 133t-127 353zM338 1245q0 11 14 25l250 246h23q22 0 33 -11l268 -264l-37 -41 q-8 -8 -14 -8q-11 0 -21 10l-229 228l-234 -234q-26 10 -41 25q-12 12 -12 24z" />
<glyph unicode="&#xfc;" horiz-adv-x="1249" d="M176 461q0 -220 127 -353t322 -133q194 0 321 133t127 353v598q0 20 -9 27.5t-32 7.5h-49v-637q0 -183 -102 -291.5t-256 -108.5t-256.5 108.5t-102.5 291.5v620q0 25 -28 25q-32 0 -62 -10v-631zM395 1364q0 29 17.5 47.5t44.5 18.5t46 -19.5t19 -50.5 q0 -29 -17.5 -47.5t-43.5 -18.5q-27 0 -46.5 19.5t-19.5 50.5zM727 1364q0 29 17.5 47.5t43.5 18.5q27 0 46.5 -19.5t19.5 -50.5q0 -29 -17.5 -47.5t-43.5 -18.5q-27 0 -46.5 19.5t-19.5 50.5z" />
<glyph unicode="&#xfd;" horiz-adv-x="1282" d="M193 420v672q30 10 61 10q29 0 29 -25v-649q0 -371 305 -371q105 0 212 43t195 127v875h49q23 0 32 -7.5t9 -27.5v-1036q0 -157 -60.5 -277.5t-183.5 -191t-294 -70.5q-150 0 -245 72.5t-95 195.5q0 160 168 263q-182 101 -182 397zM297 -240q0 -81 70 -133.5t178 -52.5 q226 0 338 120t112 324v119q-89 -75 -197.5 -118.5t-219.5 -43.5q-54 0 -123 15q-158 -96 -158 -230zM490 1245l274 258q15 15 25 15q11 0 24 -13q15 -15 25 -41l-283 -247q-14 -11 -20 -11q-8 0 -17 9z" />
<glyph unicode="&#xfe;" horiz-adv-x="1320" d="M197 -360v1853q30 10 61 10q29 0 29 -24v-635q62 122 179.5 198t260.5 76q205 0 338 -141.5t133 -384.5q0 -166 -69 -307t-196 -225.5t-284 -84.5q-105 0 -199 36.5t-163 101.5v-508h-49q-23 0 -32 7.5t-9 27.5zM287 213q150 -156 360 -156q125 0 231 71t168 194.5 t62 271.5q0 208 -110 325t-281 117q-129 0 -245.5 -86t-184.5 -248v-489z" />
<glyph unicode="&#xff;" horiz-adv-x="1282" d="M193 420v672q30 10 61 10q29 0 29 -25v-649q0 -371 305 -371q105 0 212 43t195 127v875h49q23 0 32 -7.5t9 -27.5v-1036q0 -157 -60.5 -277.5t-183.5 -191t-294 -70.5q-150 0 -245 72.5t-95 195.5q0 160 168 263q-182 101 -182 397zM297 -240q0 -81 70 -133.5t178 -52.5 q226 0 338 120t112 324v119q-89 -75 -197.5 -118.5t-219.5 -43.5q-54 0 -123 15q-158 -96 -158 -230zM407 1364q0 29 17.5 47.5t44.5 18.5t46 -19.5t19 -50.5q0 -29 -17.5 -47.5t-43.5 -18.5q-27 0 -46.5 19.5t-19.5 50.5zM739 1364q0 29 17.5 47.5t44.5 18.5t46 -19.5 t19 -50.5q0 -29 -17.5 -47.5t-43.5 -18.5q-27 0 -46.5 19.5t-19.5 50.5z" />
<glyph unicode="&#x100;" horiz-adv-x="1347" d="M66 35l552 1390q39 17 78 17q25 0 37 -27l563 -1415h-59q-33 0 -45 31l-150 381h-737l-162 -412h-49q-43 0 -28 35zM336 494h674l-336 858zM403 1708q0 24 9 47h497q20 0 27.5 -9t7.5 -32v-33h-516q-25 0 -25 27z" />
<glyph unicode="&#x101;" horiz-adv-x="1214" d="M123 324q0 164 114.5 257t307.5 93q191 0 366 -82v133q0 156 -97.5 233.5t-260.5 77.5q-199 0 -324 -73q-14 18 -14 43q0 16 27.5 35t73 36.5t113 29t138.5 11.5q198 0 316 -103.5t118 -297.5v-535q0 -64 19 -91.5t59 -27.5h35q6 -15 6 -34q0 -16 -23 -29.5t-57 -13.5 q-58 0 -93.5 49.5t-35.5 150.5v15q-59 -98 -167.5 -162t-241.5 -64q-173 0 -276 97t-103 252zM213 324q0 -123 83.5 -195t203.5 -72q124 0 230 63t181 193v199q-76 38 -173.5 59t-192.5 21q-154 0 -243 -73.5t-89 -194.5zM326 1350q0 27 8 47h497q20 0 27.5 -9t7.5 -32v-33 h-516q-24 0 -24 27z" />
<glyph unicode="&#x102;" horiz-adv-x="1347" d="M66 35l552 1390q39 17 78 17q25 0 37 -27l563 -1415h-59q-33 0 -45 31l-150 381h-737l-162 -412h-49q-43 0 -28 35zM336 494h674l-336 858zM393 1833q26 16 53 16q14 0 19 -6t10 -26q19 -86 70 -132.5t129 -46.5q81 0 136.5 53.5t68.5 157.5h39q23 0 30 -7t4 -25 q-18 -112 -91 -180t-187 -68q-117 0 -190.5 69.5t-90.5 194.5z" />
<glyph unicode="&#x103;" horiz-adv-x="1214" d="M123 324q0 164 114.5 257t307.5 93q191 0 366 -82v133q0 156 -97.5 233.5t-260.5 77.5q-199 0 -324 -73q-14 18 -14 43q0 16 27.5 35t73 36.5t113 29t138.5 11.5q198 0 316 -103.5t118 -297.5v-535q0 -64 19 -91.5t59 -27.5h35q6 -15 6 -34q0 -16 -23 -29.5t-57 -13.5 q-58 0 -93.5 49.5t-35.5 150.5v15q-59 -98 -167.5 -162t-241.5 -64q-173 0 -276 97t-103 252zM213 324q0 -123 83.5 -195t203.5 -72q124 0 230 63t181 193v199q-76 38 -173.5 59t-192.5 21q-154 0 -243 -73.5t-89 -194.5zM315 1475q26 16 54 16q14 0 18.5 -6t9.5 -27 q19 -86 70 -132t129 -46q81 0 136.5 53.5t68.5 157.5h39q23 0 30 -7.5t4 -25.5q-18 -112 -91 -180t-187 -68q-116 0 -190 70t-91 195z" />
<glyph unicode="&#x104;" horiz-adv-x="1347" d="M66 35l561 1390q39 17 78 17q24 0 36 -27l572 -1415q-164 -112 -164 -254q0 -52 38.5 -89.5t112.5 -37.5q52 0 89 12q22 7 30 2t8 -24v-33q-55 -27 -133 -27q-102 0 -162.5 52.5t-60.5 144.5q0 69 39 138t117 122q-11 6 -19 25l-151 381h-750l-164 -412h-49q-43 0 -28 35 zM340 494h684l-342 858z" />
<glyph unicode="&#x105;" horiz-adv-x="1214" d="M123 319q0 164 115 259.5t307 95.5q194 0 366 -90v141q0 156 -97.5 233.5t-260.5 77.5q-199 0 -324 -73q-14 18 -14 43q0 16 27.5 35t73 36.5t113 29t138.5 11.5q198 0 316 -103.5t118 -297.5v-535q0 -64 19 -91.5t59 -27.5h35q6 -15 6 -34q0 -16 -23 -29.5t-57 -13.5 q-10 0 -30 4q-146 -107 -146 -244q0 -52 39 -89.5t113 -37.5q50 0 88 12q22 7 30.5 2t8.5 -24v-33q-55 -27 -133 -27q-102 0 -163 53t-61 144q0 70 42.5 144t129.5 130q-47 53 -47 166v15q-59 -98 -167.5 -162t-241.5 -64q-172 0 -275.5 96t-103.5 248zM213 319 q0 -119 84 -190.5t203 -71.5q124 0 230 63t181 193v191q-75 42 -172.5 65t-193.5 23q-153 0 -242.5 -75.5t-89.5 -197.5z" />
<glyph unicode="&#x106;" horiz-adv-x="1406" d="M135 764q0 131 34.5 244t95 194.5t140.5 140t171.5 87t187.5 28.5q188 0 328 -84t208 -219q16 -30 -12 -49q-26 -18 -61 -21q-64 140 -185.5 215.5t-277.5 75.5q-104 0 -200 -41t-172 -116t-121.5 -192t-45.5 -257q0 -162 54.5 -298t147 -226t213.5 -139.5t255 -49.5 q206 0 350 88q15 -18 15 -43q0 -39 -112.5 -83t-256.5 -44q-159 0 -298 57t-240 158t-159.5 250t-58.5 324zM594 1601l274 258q15 15 25 15q11 0 24 -13q15 -15 25 -41l-283 -247q-14 -11 -20 -11q-8 0 -17 9z" />
<glyph unicode="&#x107;" horiz-adv-x="1124" d="M123 584q0 123 41 225t111 168.5t162.5 103.5t195.5 37q137 0 243 -65t154 -160q16 -30 -12 -49q-26 -17 -62 -21q-42 99 -123.5 156t-199.5 57q-87 0 -164 -31.5t-133.5 -88.5t-89.5 -143t-33 -189q0 -127 46 -230t120 -166t162.5 -97t179.5 -34q156 0 270 66 q15 -18 15 -43q0 -20 -39.5 -44t-111.5 -42.5t-150 -18.5q-111 0 -214.5 41.5t-186 116.5t-132 192.5t-49.5 258.5zM439 1245l274 258q15 15 25 15q11 0 24 -13q15 -15 25 -41l-283 -247q-14 -11 -20 -11q-8 0 -17 9z" />
<glyph unicode="&#x108;" horiz-adv-x="1406" d="M135 764q0 131 34.5 244t95 194.5t140.5 140t171.5 87t187.5 28.5q188 0 328 -84t208 -219q16 -30 -12 -49q-26 -18 -61 -21q-64 140 -185.5 215.5t-277.5 75.5q-104 0 -200 -41t-172 -116t-121.5 -192t-45.5 -257q0 -162 54.5 -298t147 -226t213.5 -139.5t255 -49.5 q206 0 350 88q15 -18 15 -43q0 -39 -112.5 -83t-256.5 -44q-159 0 -298 57t-240 158t-159.5 250t-58.5 324zM469 1601q0 11 14 25l250 246h23q22 0 33 -11l268 -264l-37 -41q-8 -8 -14 -8q-11 0 -21 10l-229 228l-234 -234q-26 10 -41 25q-12 12 -12 24z" />
<glyph unicode="&#x109;" horiz-adv-x="1124" d="M123 584q0 123 41 225t111 168.5t162.5 103.5t195.5 37q137 0 243 -65t154 -160q16 -30 -12 -49q-26 -17 -62 -21q-42 99 -123.5 156t-199.5 57q-87 0 -164 -31.5t-133.5 -88.5t-89.5 -143t-33 -189q0 -127 46 -230t120 -166t162.5 -97t179.5 -34q156 0 270 66 q15 -18 15 -43q0 -20 -39.5 -44t-111.5 -42.5t-150 -18.5q-111 0 -214.5 41.5t-186 116.5t-132 192.5t-49.5 258.5zM311 1245q0 11 14 25l250 246h23q22 0 33 -11l268 -264l-37 -41q-8 -8 -14 -8q-11 0 -21 10l-229 228l-234 -234q-26 10 -41 25q-12 12 -12 24z" />
<glyph unicode="&#x10a;" horiz-adv-x="1406" d="M135 764q0 131 34.5 244t95 194.5t140.5 140t171.5 87t187.5 28.5q188 0 328 -84t208 -219q16 -30 -12 -49q-26 -18 -61 -21q-64 140 -185.5 215.5t-277.5 75.5q-104 0 -200 -41t-172 -116t-121.5 -192t-45.5 -257q0 -162 54.5 -298t147 -226t213.5 -139.5t255 -49.5 q206 0 350 88q15 -18 15 -43q0 -39 -112.5 -83t-256.5 -44q-159 0 -298 57t-240 158t-159.5 250t-58.5 324zM692 1720q0 29 17.5 47.5t44.5 18.5t46 -19.5t19 -50.5q0 -29 -17 -47t-44 -18t-46.5 19t-19.5 50z" />
<glyph unicode="&#x10b;" horiz-adv-x="1124" d="M123 584q0 123 41 225t111 168.5t162.5 103.5t195.5 37q137 0 243 -65t154 -160q16 -30 -12 -49q-26 -17 -62 -21q-42 99 -123.5 156t-199.5 57q-87 0 -164 -31.5t-133.5 -88.5t-89.5 -143t-33 -189q0 -127 46 -230t120 -166t162.5 -97t179.5 -34q156 0 270 66 q15 -18 15 -43q0 -20 -39.5 -44t-111.5 -42.5t-150 -18.5q-111 0 -214.5 41.5t-186 116.5t-132 192.5t-49.5 258.5zM545 1364q0 29 17.5 47.5t43.5 18.5q27 0 46.5 -19.5t19.5 -50.5q0 -29 -17.5 -47.5t-44.5 -18.5t-46 19.5t-19 50.5z" />
<glyph unicode="&#x10c;" horiz-adv-x="1406" d="M135 764q0 131 34.5 244t95 194.5t140.5 140t171.5 87t187.5 28.5q188 0 328 -84t208 -219q16 -30 -12 -49q-26 -18 -61 -21q-64 140 -185.5 215.5t-277.5 75.5q-104 0 -200 -41t-172 -116t-121.5 -192t-45.5 -257q0 -162 54.5 -298t147 -226t213.5 -139.5t255 -49.5 q206 0 350 88q15 -18 15 -43q0 -39 -112.5 -83t-256.5 -44q-159 0 -298 57t-240 158t-159.5 250t-58.5 324zM483 1819q10 26 25 41q12 12 24 12q11 0 25 -14l223 -224l244 242l41 -37q8 -8 8 -14q0 -11 -10 -21l-260 -256h-23q-21 0 -32 11z" />
<glyph unicode="&#x10d;" horiz-adv-x="1124" d="M123 584q0 123 41 225t111 168.5t162.5 103.5t195.5 37q137 0 243 -65t154 -160q16 -30 -12 -49q-26 -17 -62 -21q-42 99 -123.5 156t-199.5 57q-87 0 -164 -31.5t-133.5 -88.5t-89.5 -143t-33 -189q0 -127 46 -230t120 -166t162.5 -97t179.5 -34q156 0 270 66 q15 -18 15 -43q0 -20 -39.5 -44t-111.5 -42.5t-150 -18.5q-111 0 -214.5 41.5t-186 116.5t-132 192.5t-49.5 258.5zM313 1462q10 26 25 41q13 13 24 13q10 0 25 -15l223 -223l244 242l41 -37q8 -8 8 -15q0 -10 -10 -20l-260 -256h-23q-22 0 -32 10z" />
<glyph unicode="&#x10e;" horiz-adv-x="1480" d="M217 299v1135h430q202 0 359.5 -85.5t248.5 -249.5t91 -382t-91 -382t-248.5 -249.5t-359.5 -85.5h-182q-126 0 -187 68t-61 231zM307 313q0 -133 37 -182t129 -49h180q123 0 231 41t191.5 118.5t131.5 200t48 275.5t-48 275.5t-131.5 200t-191.5 118.5t-231 41h-346 v-1039zM363 1818q10 27 24 41q13 13 25 13q10 0 25 -15l223 -223l244 242l41 -37q8 -8 8 -15q0 -9 -11 -20l-260 -256h-22q-23 0 -33 10z" />
<glyph unicode="&#x10f;" horiz-adv-x="1421" d="M123 502q0 167 66.5 307t191 224.5t281.5 84.5q100 0 191.5 -37t160.5 -102v516h49q23 0 32 -7.5t9 -27.5v-1278q0 -64 19 -91.5t59 -27.5h35q6 -15 6 -34q0 -16 -23 -29.5t-57 -13.5q-58 0 -93.5 49.5t-35.5 150.5v64q-63 -123 -176 -199t-254 -76q-204 0 -332.5 141.5 t-128.5 385.5zM213 500q0 -209 106.5 -326t274.5 -117q128 0 240 85t180 249v490q-149 155 -350 155q-127 0 -230.5 -71t-162 -193.5t-58.5 -271.5zM1233 1174q89 89 98 190q-24 3 -39.5 22t-15.5 48t17 47t44 18q28 0 47 -19.5t19 -54.5q0 -67 -24 -128.5t-62 -102.5 q-15 -17 -30.5 -28.5t-25 -15t-12.5 -1.5q-12 6 -16 25z" />
<glyph unicode="&#x110;" horiz-adv-x="1480" d="M72 707q0 27 8 47h137v680h430q202 0 359.5 -85.5t248.5 -249.5t91 -382t-91 -382t-248.5 -249.5t-359.5 -85.5h-182q-126 0 -187 68t-61 231v381h-121q-24 0 -24 27zM307 313q0 -133 37 -182t129 -49h180q123 0 231 41t191.5 118.5t131.5 200t48 275.5t-48 275.5 t-131.5 200t-191.5 118.5t-231 41h-346v-598h475q20 0 27.5 -9t7.5 -32v-33h-510v-367z" />
<glyph unicode="&#x111;" horiz-adv-x="1320" d="M123 502q0 167 66.5 307t191 224.5t281.5 84.5q100 0 191.5 -37t160.5 -102v285h-381q-25 0 -25 26q0 27 8 47h398v158h49q23 0 32 -7.5t9 -27.5v-123h96q20 0 27.5 -9t7.5 -32v-32h-131v-1082q0 -64 19 -91.5t59 -27.5h35q6 -15 6 -34q0 -16 -23 -29.5t-57 -13.5 q-58 0 -93.5 49.5t-35.5 150.5v64q-63 -123 -176 -199t-254 -76q-204 0 -332.5 141.5t-128.5 385.5zM213 500q0 -209 106.5 -326t274.5 -117q128 0 240 85t180 249v490q-149 155 -350 155q-127 0 -230.5 -71t-162 -193.5t-58.5 -271.5z" />
<glyph unicode="&#x112;" horiz-adv-x="1161" d="M217 299q0 -163 61 -231t187 -68h577v41q0 24 -7 32.5t-27 8.5h-535q-92 0 -129 49t-37 182v351h608v41q0 23 -7 31.5t-27 8.5h-574v607h711q8 28 8 55t-25 27h-784v-1135zM342 1708q0 27 8 47h498q20 0 27.5 -9t7.5 -32v-33h-516q-25 0 -25 27z" />
<glyph unicode="&#x113;" d="M123 557q0 125 42.5 231.5t113.5 178t163.5 111.5t192.5 40q188 0 307 -113.5t119 -293.5q0 -69 -23 -136q-14 -41 -35.5 -54t-64.5 -13h-723q10 -138 75.5 -242.5t162.5 -156.5t209 -52q162 0 280 68q14 -17 14 -43q0 -14 -23 -32.5t-61 -35t-97 -28t-122 -11.5 q-111 0 -208.5 42.5t-168.5 117.5t-112 184.5t-41 237.5zM213 590h735q23 51 23 121q0 146 -94.5 235.5t-245.5 89.5q-78 0 -151 -32t-130.5 -88.5t-94.5 -141.5t-42 -184zM354 1350q0 27 8 47h498q20 0 27.5 -9t7.5 -32v-33h-516q-25 0 -25 27z" />
<glyph unicode="&#x114;" horiz-adv-x="1161" d="M217 299v1135h784q25 0 25 -27t-8 -55h-711v-607h574q20 0 27 -8.5t7 -31.5v-41h-608v-351q0 -133 37 -182t129 -49h535q20 0 27 -8.5t7 -32.5v-41h-577q-126 0 -187 68t-61 231zM332 1833q26 16 53 16q14 0 19 -6t10 -26q19 -87 69.5 -133t128.5 -46q81 0 136.5 53.5 t68.5 157.5h39q23 0 30.5 -7t4.5 -25q-18 -112 -91.5 -180t-187.5 -68q-116 0 -189.5 69.5t-90.5 194.5z" />
<glyph unicode="&#x115;" d="M123 557q0 125 42.5 231.5t113.5 178t163.5 111.5t192.5 40q188 0 307 -113.5t119 -293.5q0 -69 -23 -136q-14 -41 -35.5 -54t-64.5 -13h-723q10 -138 75.5 -242.5t162.5 -156.5t209 -52q162 0 280 68q14 -17 14 -43q0 -14 -23 -32.5t-61 -35t-97 -28t-122 -11.5 q-111 0 -208.5 42.5t-168.5 117.5t-112 184.5t-41 237.5zM213 590h735q23 51 23 121q0 146 -94.5 235.5t-245.5 89.5q-78 0 -151 -32t-130.5 -88.5t-94.5 -141.5t-42 -184zM344 1475q26 16 53 16q14 0 19 -6.5t10 -26.5q19 -86 70 -132t129 -46q81 0 136 53.5t68 157.5h39 q23 0 30.5 -7.5t4.5 -25.5q-18 -112 -91 -180t-187 -68q-116 0 -190 70t-91 195z" />
<glyph unicode="&#x116;" horiz-adv-x="1161" d="M217 299q0 -163 61 -231t187 -68h577v41q0 24 -7 32.5t-27 8.5h-535q-92 0 -129 49t-37 182v351h608v41q0 23 -7 31.5t-27 8.5h-574v607h711q8 28 8 55t-25 27h-784v-1135zM547 1720q0 29 17.5 47.5t43.5 18.5q27 0 46.5 -19.5t19.5 -50.5q0 -29 -17.5 -47t-44.5 -18 t-46 19t-19 50z" />
<glyph unicode="&#x117;" d="M123 557q0 125 42.5 231.5t113.5 178t163.5 111.5t192.5 40q188 0 307 -113.5t119 -293.5q0 -69 -23 -136q-14 -41 -35.5 -54t-64.5 -13h-723q10 -138 75.5 -242.5t162.5 -156.5t209 -52q162 0 280 68q14 -17 14 -43q0 -14 -23 -32.5t-61 -35t-97 -28t-122 -11.5 q-111 0 -208.5 42.5t-168.5 117.5t-112 184.5t-41 237.5zM213 590h735q23 51 23 121q0 146 -94.5 235.5t-245.5 89.5q-78 0 -151 -32t-130.5 -88.5t-94.5 -141.5t-42 -184zM563 1364q0 29 17.5 47.5t44.5 18.5t46 -19.5t19 -50.5q0 -29 -17.5 -47.5t-43.5 -18.5 q-27 0 -46.5 19.5t-19.5 50.5z" />
<glyph unicode="&#x118;" horiz-adv-x="1167" d="M217 299v1135h784q25 0 25 -27t-8 -55h-711v-607h574q20 0 27 -8.5t7 -31.5v-41h-608v-351q0 -133 37 -182t129 -49h535q20 0 27 -8.5t7 -32.5v-41h-108q-164 -112 -164 -254q0 -52 39 -89.5t113 -37.5q50 0 88 12q22 7 30.5 2t8.5 -24v-33q-55 -27 -134 -27 q-102 0 -162.5 52.5t-60.5 144.5q0 67 38.5 136t109.5 118h-375q-126 0 -187 68t-61 231z" />
<glyph unicode="&#x119;" d="M123 557q0 125 42.5 231.5t113.5 178t163.5 111.5t192.5 40q188 0 307 -113.5t119 -293.5q0 -69 -23 -136q-14 -41 -35.5 -54t-64.5 -13h-723q10 -138 75.5 -242.5t162.5 -156.5t209 -52q162 0 280 68q14 -17 14 -43q0 -25 -60.5 -56t-150.5 -44q-137 -105 -137 -236 q0 -52 39 -89.5t113 -37.5q50 0 88 12q22 7 30.5 2t8.5 -24v-33q-55 -27 -133 -27q-102 0 -163 53t-61 144q0 60 29.5 120.5t85.5 108.5q-147 2 -265.5 74.5t-187.5 205.5t-69 302zM213 590h735q23 51 23 121q0 146 -94.5 235.5t-245.5 89.5q-78 0 -151 -32t-130.5 -88.5 t-94.5 -141.5t-42 -184z" />
<glyph unicode="&#x11a;" horiz-adv-x="1161" d="M217 299v1135h784q25 0 25 -27t-8 -55h-711v-607h574q20 0 27 -8.5t7 -31.5v-41h-608v-351q0 -133 37 -182t129 -49h535q20 0 27 -8.5t7 -32.5v-41h-577q-126 0 -187 68t-61 231zM320 1818q10 27 24 41q13 13 25 13q10 0 25 -15l223 -223l244 242l41 -37q8 -8 8 -15 q0 -9 -11 -20l-260 -256h-22q-23 0 -33 10z" />
<glyph unicode="&#x11b;" d="M123 557q0 125 42.5 231.5t113.5 178t163.5 111.5t192.5 40q188 0 307 -113.5t119 -293.5q0 -69 -23 -136q-14 -41 -35.5 -54t-64.5 -13h-723q10 -138 75.5 -242.5t162.5 -156.5t209 -52q162 0 280 68q14 -17 14 -43q0 -14 -23 -32.5t-61 -35t-97 -28t-122 -11.5 q-111 0 -208.5 42.5t-168.5 117.5t-112 184.5t-41 237.5zM213 590h735q23 51 23 121q0 146 -94.5 235.5t-245.5 89.5q-78 0 -151 -32t-130.5 -88.5t-94.5 -141.5t-42 -184zM324 1462q10 27 24 41q13 13 25 13q10 0 25 -15l223 -223l244 242l41 -37q8 -8 8 -15q0 -9 -11 -20 l-260 -256h-22q-23 0 -33 10z" />
<glyph unicode="&#x11c;" horiz-adv-x="1533" d="M135 764q0 -175 58.5 -324t159.5 -250t240 -158t298 -57q217 0 338 83.5t121 236.5v348q0 23 -7.5 32t-27.5 9h-428q-8 -28 -8 -55t24 -27h357v-313q0 -105 -94 -168.5t-271 -63.5q-108 0 -208.5 31t-184 92t-145.5 146t-97 199t-35 245q0 140 46 257t123 192t174 116 t202 41q159 0 284.5 -71t194.5 -220q32 3 62 21q26 17 14 45q-70 139 -215 223t-338 84q-98 0 -190.5 -28.5t-173.5 -87t-142 -140t-96 -194.5t-35 -244zM475 1602q0 10 14 24l250 246h23q23 0 33 -10l268 -265l-37 -41q-8 -8 -14 -8q-10 0 -21 11l-229 227l-234 -234 q-26 10 -41 25q-12 12 -12 25z" />
<glyph unicode="&#x11d;" horiz-adv-x="1300" d="M123 502q0 167 66.5 307t191 224.5t281.5 84.5q100 0 191.5 -37t160.5 -102v115h49q23 0 32 -7.5t9 -27.5v-1028q0 -153 -71 -274.5t-209 -193t-322 -71.5q-144 0 -241 71.5t-97 192.5q0 170 186 279q-107 63 -167 183t-60 284zM213 500q0 -209 106.5 -326t274.5 -117 q128 0 240 85t180 249v490q-149 155 -350 155q-127 0 -230.5 -71t-162 -193.5t-58.5 -271.5zM254 -244q0 -80 69 -131t177 -51q234 0 374 128.5t140 322.5v225q-63 -123 -176 -199t-254 -76q-83 0 -156 25q-174 -101 -174 -244zM383 1245q0 11 14 25l250 246h23q21 0 32 -11 l269 -264l-37 -41q-8 -8 -14 -8q-11 0 -21 10l-229 228l-234 -234q-26 10 -41 25q-12 12 -12 24z" />
<glyph unicode="&#x11e;" horiz-adv-x="1533" d="M135 764q0 131 35 244t96 194.5t142 140t173.5 87t190.5 28.5q193 0 338 -84t215 -223q12 -28 -14 -45q-30 -18 -62 -21q-69 149 -194.5 220t-284.5 71q-105 0 -202 -41t-174 -116t-123 -192t-46 -257q0 -131 35 -245t97 -199t145.5 -146t184 -92t208.5 -31 q177 0 271 63.5t94 168.5v313h-357q-24 0 -24 27t8 55h428q20 0 27.5 -9t7.5 -32v-348q0 -153 -121 -236.5t-338 -83.5q-159 0 -298 57t-240 158t-159.5 250t-58.5 324zM481 1833q26 16 54 16q14 0 18.5 -6t9.5 -27q19 -86 70 -132t129 -46q81 0 136.5 53.5t68.5 157.5h39 q23 0 30 -7.5t4 -25.5q-18 -112 -91 -180t-187 -68q-116 0 -190 70t-91 195z" />
<glyph unicode="&#x11f;" horiz-adv-x="1300" d="M123 502q0 167 66.5 307t191 224.5t281.5 84.5q100 0 191.5 -37t160.5 -102v115h49q23 0 32 -7.5t9 -27.5v-1028q0 -153 -71 -274.5t-209 -193t-322 -71.5q-144 0 -241 71.5t-97 192.5q0 170 186 279q-107 63 -167 183t-60 284zM213 500q0 -209 106.5 -326t274.5 -117 q128 0 240 85t180 249v490q-149 155 -350 155q-127 0 -230.5 -71t-162 -193.5t-58.5 -271.5zM254 -244q0 -80 69 -131t177 -51q234 0 374 128.5t140 322.5v225q-63 -123 -176 -199t-254 -76q-83 0 -156 25q-174 -101 -174 -244zM387 1475q26 16 54 16q14 0 18.5 -6t9.5 -27 q19 -86 70 -132t129 -46q81 0 136.5 53.5t68.5 157.5h39q23 0 30 -7.5t4 -25.5q-18 -112 -91 -180t-187 -68q-116 0 -190 70t-91 195z" />
<glyph unicode="&#x120;" horiz-adv-x="1533" d="M135 764q0 -175 58.5 -324t159.5 -250t240 -158t298 -57q217 0 338 83.5t121 236.5v348q0 23 -7.5 32t-27.5 9h-428q-8 -28 -8 -55t24 -27h357v-313q0 -105 -94 -168.5t-271 -63.5q-108 0 -208.5 31t-184 92t-145.5 146t-97 199t-35 245q0 140 46 257t123 192t174 116 t202 41q159 0 284.5 -71t194.5 -220q32 3 62 21q26 17 14 45q-70 139 -215 223t-338 84q-98 0 -190.5 -28.5t-173.5 -87t-142 -140t-96 -194.5t-35 -244zM698 1720q0 29 17.5 47.5t44.5 18.5t46 -19.5t19 -50.5q0 -29 -17 -47t-44 -18t-46.5 19t-19.5 50z" />
<glyph unicode="&#x121;" horiz-adv-x="1300" d="M123 502q0 167 66.5 307t191 224.5t281.5 84.5q100 0 191.5 -37t160.5 -102v115h49q23 0 32 -7.5t9 -27.5v-1028q0 -153 -71 -274.5t-209 -193t-322 -71.5q-144 0 -241 71.5t-97 192.5q0 170 186 279q-107 63 -167 183t-60 284zM213 500q0 -209 106.5 -326t274.5 -117 q128 0 240 85t180 249v490q-149 155 -350 155q-127 0 -230.5 -71t-162 -193.5t-58.5 -271.5zM254 -244q0 -80 69 -131t177 -51q234 0 374 128.5t140 322.5v225q-63 -123 -176 -199t-254 -76q-83 0 -156 25q-174 -101 -174 -244zM606 1364q0 29 17.5 47.5t44.5 18.5t46 -19.5 t19 -50.5q0 -29 -17.5 -47.5t-43.5 -18.5q-27 0 -46.5 19.5t-19.5 50.5z" />
<glyph unicode="&#x122;" horiz-adv-x="1533" d="M135 764q0 131 35 244t96 194.5t142 140t173.5 87t190.5 28.5q193 0 338 -84t215 -223q12 -28 -14 -45q-30 -18 -62 -21q-69 149 -194.5 220t-284.5 71q-105 0 -202 -41t-174 -116t-123 -192t-46 -257q0 -131 35 -245t97 -199t145.5 -146t184 -92t208.5 -31 q177 0 271 63.5t94 168.5v313h-357q-24 0 -24 27t8 55h428q20 0 27.5 -9t7.5 -32v-348q0 -153 -121 -236.5t-338 -83.5q-159 0 -298 57t-240 158t-159.5 250t-58.5 324zM745 -406q90 90 99 191q-24 3 -40 22t-16 48t17.5 47t44.5 18q28 0 46.5 -19.5t18.5 -54.5 q0 -67 -24 -128.5t-62 -102.5q-15 -17 -30 -28.5t-24.5 -15t-12.5 -1.5q-14 7 -17 24z" />
<glyph unicode="&#x123;" horiz-adv-x="1300" d="M123 502q0 167 66.5 307t191 224.5t281.5 84.5q100 0 191.5 -37t160.5 -102v115h49q23 0 32 -7.5t9 -27.5v-1028q0 -153 -71 -274.5t-209 -193t-322 -71.5q-144 0 -241 71.5t-97 192.5q0 170 186 279q-107 63 -167 183t-60 284zM213 500q0 -209 106.5 -326t274.5 -117 q128 0 240 85t180 249v490q-149 155 -350 155q-127 0 -230.5 -71t-162 -193.5t-58.5 -271.5zM254 -244q0 -80 69 -131t177 -51q234 0 374 128.5t140 322.5v225q-63 -123 -176 -199t-254 -76q-83 0 -156 25q-174 -101 -174 -244zM604 1253q0 67 24 129t62 103 q15 17 30.5 28.5t25 15t12.5 1.5q12 -6 16 -25q-89 -89 -98 -190q24 -3 39.5 -22t15.5 -48t-17 -47t-44 -18q-28 0 -47 19t-19 54z" />
<glyph unicode="&#x124;" horiz-adv-x="1478" d="M221 35v1397q30 10 62 10q28 0 28 -25v-657h856v674h50q23 0 31.5 -7.5t8.5 -27.5v-1399h-49q-23 0 -32 7.5t-9 27.5v643h-856v-678h-49q-23 0 -32 7.5t-9 27.5zM452 1601q0 11 14 25l250 246h23q22 0 33 -11l268 -264l-37 -41q-8 -8 -14 -8q-11 0 -21 10l-229 228 l-234 -234q-26 10 -41 25q-12 12 -12 24z" />
<glyph unicode="&#x125;" horiz-adv-x="1306" d="M123 1602q0 10 14 24l250 246h23q22 0 32 -10l269 -265l-37 -41q-8 -8 -15 -8q-9 0 -20 11l-229 227l-234 -234q-26 10 -41 25q-12 12 -12 25zM197 35v1438q30 10 61 10q29 0 29 -25v-502q88 75 197.5 118.5t220.5 43.5q191 0 288 -117.5t97 -326.5v-508q0 -57 18.5 -81 t56.5 -24h37q6 -15 6 -34q0 -16 -23 -29.5t-57 -13.5q-58 0 -93.5 44.5t-35.5 137.5v500q0 185 -75 277.5t-230 92.5q-105 0 -212 -43t-195 -127v-866h-49q-23 0 -32 7.5t-9 27.5z" />
<glyph unicode="&#x126;" horiz-adv-x="1478" d="M72 1104q0 27 8 47h141v281q30 10 62 10q28 0 28 -25v-266h856v283h50q23 0 31.5 -7.5t8.5 -27.5v-248h115q20 0 27.5 -9t7.5 -32v-33h-150v-1077h-49q-23 0 -32 7.5t-9 27.5v643h-856v-678h-49q-23 0 -32 7.5t-9 27.5v1042h-125q-24 0 -24 27zM311 760h856v317h-856 v-317z" />
<glyph unicode="&#x127;" horiz-adv-x="1306" d="M66 1290q0 27 8 47h123v156q30 10 61 10q29 0 29 -24v-142h370q20 0 27.5 -9t7.5 -32v-32h-405v-308q88 75 197.5 118.5t220.5 43.5q191 0 288 -117.5t97 -326.5v-506q0 -57 18.5 -81t56.5 -24h37q6 -15 6 -34q0 -16 -23 -29.5t-57 -13.5q-58 0 -93.5 44.5t-35.5 137.5 v498q0 185 -75 277.5t-230 92.5q-105 0 -212 -43t-195 -127v-866h-49q-23 0 -32 7.5t-9 27.5v1229h-107q-24 0 -24 26z" />
<glyph unicode="&#x128;" horiz-adv-x="557" d="M-10 1657q0 21 12 57q37 109 145 109q84 0 152 -76q61 -66 107 -66q38 0 57 27.5t26 106.5l54 -11q14 -3 18.5 -12t1.5 -29q-25 -151 -155 -151q-84 0 -152 76q-60 65 -106 65q-38 0 -58 -28t-26 -105q-43 0 -62 8q-14 7 -14 29zM233 35v1397q30 10 62 10q29 0 29 -25 v-1417h-50q-23 0 -32 7.5t-9 27.5z" />
<glyph unicode="&#x129;" horiz-adv-x="514" d="M-47 1299q0 21 12 57q36 108 146 108q84 0 151 -75q61 -66 107 -66q38 0 57.5 27t26.5 106l53 -10q26 -6 21 -41q-25 -152 -156 -152q-84 0 -152 76q-61 66 -106 66q-38 0 -58 -28t-26 -105q-43 0 -62 8q-14 7 -14 29zM197 168v924q30 10 61 10q29 0 29 -25v-909 q0 -57 18.5 -81t56.5 -24h37q7 -18 7 -34t-23 -29.5t-57 -13.5q-58 0 -93.5 44.5t-35.5 137.5z" />
<glyph unicode="&#x12a;" horiz-adv-x="557" d="M9 1708q0 27 8 47h497q20 0 27.5 -9t7.5 -32v-33h-516q-24 0 -24 27zM233 35v1397q30 10 62 10q29 0 29 -25v-1417h-50q-23 0 -32 7.5t-9 27.5z" />
<glyph unicode="&#x12b;" horiz-adv-x="514" d="M-29 1350q0 24 9 47h497q20 0 27.5 -9t7.5 -32v-33h-516q-25 0 -25 27zM197 168v924q30 10 61 10q29 0 29 -25v-909q0 -57 18.5 -81t56.5 -24h37q7 -18 7 -34t-23 -29.5t-57 -13.5q-58 0 -93.5 44.5t-35.5 137.5z" />
<glyph unicode="&#x12c;" horiz-adv-x="557" d="M-2 1833q26 16 53 16q14 0 19 -6t10 -26q19 -86 70 -132.5t129 -46.5q81 0 136 53.5t68 157.5h39q23 0 30.5 -7t4.5 -25q-18 -112 -91 -180t-187 -68q-117 0 -190.5 69.5t-90.5 194.5zM233 35v1397q30 10 62 10q29 0 29 -25v-1417h-50q-23 0 -32 7.5t-9 27.5z" />
<glyph unicode="&#x12d;" horiz-adv-x="514" d="M-39 1475q26 16 53 16q14 0 19 -6.5t10 -26.5q19 -86 70 -132t129 -46q81 0 136 53.5t68 157.5h39q23 0 30.5 -7.5t4.5 -25.5q-18 -112 -91 -180t-187 -68q-116 0 -190 70t-91 195zM197 168v924q30 10 61 10q29 0 29 -25v-909q0 -57 18.5 -81t56.5 -24h37q7 -18 7 -34 t-23 -29.5t-57 -13.5q-58 0 -93.5 44.5t-35.5 137.5z" />
<glyph unicode="&#x12e;" horiz-adv-x="557" d="M82 -254q0 69 40.5 140t119.5 122q-9 9 -9 27v1397q30 10 62 10q29 0 29 -25v-1417q-164 -112 -164 -254q0 -52 38.5 -89.5t112.5 -37.5q51 0 88 12q22 7 30.5 2t8.5 -24v-33q-56 -27 -133 -27q-102 0 -162.5 52.5t-60.5 144.5z" />
<glyph unicode="&#x12f;" horiz-adv-x="514" d="M119 -254q0 67 38 137t107 119q-67 38 -67 166v924q30 10 61 10q29 0 29 -25v-909q0 -57 18.5 -81t56.5 -24h37q7 -18 7 -34q0 -14 -20 -27t-48 -16q-141 -104 -141 -240q0 -52 38.5 -89.5t112.5 -37.5q50 0 88 12q22 7 30.5 2t8.5 -24v-33q-56 -27 -133 -27 q-102 0 -162.5 52.5t-60.5 144.5zM178 1446q0 29 17.5 46t44.5 17t46 -19t19 -50q0 -29 -17 -46.5t-44 -17.5t-46.5 19.5t-19.5 50.5z" />
<glyph unicode="&#x130;" horiz-adv-x="557" d="M215 1720q0 29 17.5 47.5t44.5 18.5t46 -19.5t19 -50.5q0 -29 -17.5 -47.5t-43.5 -18.5q-27 0 -46.5 19.5t-19.5 50.5zM233 35v1397q30 10 62 10q29 0 29 -25v-1417h-50q-23 0 -32 7.5t-9 27.5z" />
<glyph unicode="&#x131;" horiz-adv-x="514" d="M197 168v924q30 10 61 10q29 0 29 -25v-909q0 -57 18.5 -81t56.5 -24h37q7 -18 7 -34t-23 -29.5t-57 -13.5q-58 0 -93.5 44.5t-35.5 137.5z" />
<glyph unicode="&#x132;" horiz-adv-x="1316" d="M233 35v1397q30 10 62 10q29 0 29 -25v-1417h-50q-23 0 -32 7.5t-9 27.5zM537 51q0 -27 73 -51.5t148 -24.5q173 0 259.5 101t86.5 284v1057q0 25 -29 25q-31 0 -61 -10v-1072q0 -152 -68.5 -227.5t-187.5 -75.5q-123 0 -207 37q-14 -18 -14 -43z" />
<glyph unicode="&#x133;" horiz-adv-x="946" d="M178 1446q0 29 17.5 46t44.5 17t46 -19t19 -50q0 -29 -17 -46.5t-44 -17.5t-46.5 19.5t-19.5 50.5zM197 168v924q30 10 61 10q29 0 29 -25v-909q0 -57 18.5 -81t56.5 -24h37q7 -18 7 -34t-23 -29.5t-57 -13.5q-58 0 -93.5 44.5t-35.5 137.5zM473 -379q184 152 184 387 v1084q30 10 62 10q29 0 29 -25v-1063q0 -177 -82 -301q-31 -46 -66.5 -78.5t-60 -44t-35.5 -6.5q-24 12 -31 37zM639 1446q0 29 17 46t44 17t46.5 -19t19.5 -50q0 -29 -17 -46.5t-44 -17.5t-46.5 19.5t-19.5 50.5z" />
<glyph unicode="&#x134;" horiz-adv-x="817" d="M37 51q0 25 14 43q84 -37 207 -37q119 0 187.5 75.5t68.5 227.5v1072q30 10 61 10q29 0 29 -25v-1057q0 -183 -86.5 -284t-259.5 -101q-75 0 -148 24.5t-73 51.5zM266 1601q0 11 14 25l250 246h23q22 0 33 -11l268 -264l-37 -41q-8 -8 -14 -8q-11 0 -21 10l-229 228 l-234 -234q-26 10 -41 25q-12 12 -12 24z" />
<glyph unicode="&#x135;" horiz-adv-x="559" d="M-41 1245q0 11 14 25l250 246h23q22 0 33 -11l268 -264l-37 -41q-8 -8 -14 -8q-11 0 -21 10l-229 228l-234 -234q-26 10 -41 25q-12 12 -12 24zM23 -379q184 152 184 387v1084q30 10 61 10q29 0 29 -25v-1063q0 -177 -82 -301q-31 -46 -66.5 -78.5t-60 -44t-35.5 -6.5 q-9 5 -18 16t-12 21z" />
<glyph unicode="&#x136;" horiz-adv-x="1343" d="M221 35v1397q30 10 62 10q28 0 28 -25v-782q225 143 443 353t381 454q69 -14 69 -47q0 -17 -12 -35q-192 -290 -500 -549q114 -212 232 -388t215 -282q43 -48 73.5 -66t63.5 -18h24q7 -18 7 -32q0 -19 -23 -34.5t-53 -15.5q-42 0 -76.5 21t-79.5 72q-221 250 -446 690 q-169 -133 -318 -226v-532h-49q-23 0 -32 7.5t-9 27.5zM594 -406q89 89 98 191q-24 3 -39.5 22t-15.5 48t17 47t44 18q28 0 47 -19.5t19 -54.5q0 -67 -24 -128.5t-62 -102.5q-15 -17 -30.5 -28.5t-25 -15t-12.5 -1.5q-12 6 -16 24z" />
<glyph unicode="&#x137;" d="M197 35v1458q30 10 61 10q29 0 29 -24v-973q418 253 676 598q61 -18 61 -51q0 -14 -10 -27q-176 -218 -430 -414q87 -143 185.5 -270.5t174.5 -200.5q45 -45 70 -61.5t51 -16.5h39q6 -15 6 -34q0 -15 -23.5 -29t-48.5 -14q-41 0 -78.5 21.5t-93.5 82.5q-181 192 -350 473 q-121 -87 -229 -149v-414h-49q-23 0 -32 7.5t-9 27.5zM498 -406q89 89 98 191q-24 3 -39.5 22t-15.5 48t17 47t44 18q28 0 47 -19.5t19 -54.5q0 -67 -24 -128.5t-62 -102.5q-15 -17 -30.5 -28.5t-25 -15t-12.5 -1.5q-12 6 -16 24z" />
<glyph unicode="&#x138;" d="M197 35v1057q30 10 61 10q29 0 29 -25v-571q418 253 676 598q61 -18 61 -51q0 -14 -10 -27q-176 -218 -430 -414q87 -143 185.5 -270.5t174.5 -200.5q45 -45 70 -61.5t51 -16.5h39q6 -15 6 -34q0 -15 -23.5 -29t-48.5 -14q-41 0 -78.5 21.5t-93.5 82.5q-181 192 -350 473 q-121 -87 -229 -149v-414h-49q-23 0 -32 7.5t-9 27.5z" />
<glyph unicode="&#x139;" horiz-adv-x="1114" d="M164 1601l274 258q15 15 25 15q11 0 24 -13q15 -15 25 -41l-283 -247q-14 -11 -20 -11q-8 0 -17 9zM217 299v1133q30 10 62 10q28 0 28 -25v-1104q0 -133 37 -182t129 -49h545q20 0 27.5 -9t7.5 -32v-41h-588q-126 0 -187 68t-61 231z" />
<glyph unicode="&#x13a;" horiz-adv-x="585" d="M141 1602l275 258q14 14 24 14q13 0 25 -12q14 -14 24 -41l-282 -248q-13 -10 -21 -10t-16 8zM197 240v1233q30 10 61 10q29 0 29 -25v-1218q0 -90 35 -131t104 -41t121 22q14 -17 14 -43q0 -19 -45.5 -40t-103.5 -21q-102 0 -158.5 62.5t-56.5 191.5z" />
<glyph unicode="&#x13b;" horiz-adv-x="1114" d="M217 299v1133q30 10 62 10q28 0 28 -25v-1104q0 -133 37 -182t129 -49h545q20 0 27.5 -9t7.5 -32v-41h-588q-126 0 -187 68t-61 231zM573 -406q90 90 99 191q-24 3 -40 22t-16 48t17.5 47t44.5 18q28 0 46.5 -19.5t18.5 -54.5q0 -67 -24 -128.5t-62 -102.5 q-15 -17 -30 -28.5t-24.5 -15t-12.5 -1.5q-14 7 -17 24z" />
<glyph unicode="&#x13c;" horiz-adv-x="585" d="M197 240v1253q30 10 61 10q29 0 29 -24v-1239q0 -90 35 -131t104 -41t121 22q14 -17 14 -43q0 -19 -45.5 -40t-103.5 -21q-102 0 -158.5 62.5t-56.5 191.5zM285 -406q89 89 98 191q-24 3 -39.5 22t-15.5 48t17 47t44 18q28 0 47 -19.5t19 -54.5q0 -67 -24 -128.5 t-62 -102.5q-15 -17 -30.5 -28.5t-25 -15t-12.5 -1.5q-12 6 -16 24z" />
<glyph unicode="&#x13d;" horiz-adv-x="1114" d="M217 299q0 -163 61 -231t187 -68h588v41q0 23 -7.5 32t-27.5 9h-545q-92 0 -129 49t-37 182v1104q0 25 -28 25q-32 0 -62 -10v-1133zM436 1174q90 90 99 190q-24 3 -40 22t-16 48t17.5 47t44.5 18q28 0 46.5 -19.5t18.5 -54.5q0 -67 -24 -128.5t-62 -102.5 q-15 -17 -30 -28.5t-24.5 -15t-12.5 -1.5q-13 7 -17 25z" />
<glyph unicode="&#x13e;" horiz-adv-x="604" d="M197 240v1253q30 10 61 10q29 0 29 -24v-1239q0 -90 35 -131t104 -41t121 22q14 -17 14 -43q0 -19 -45.5 -40t-103.5 -21q-102 0 -158.5 62.5t-56.5 191.5zM416 1174q89 89 98 190q-24 3 -39.5 22t-15.5 48t17 47t44 18q28 0 47 -19.5t19 -54.5q0 -67 -24 -128.5 t-62 -102.5q-15 -17 -30.5 -28.5t-25 -15t-12.5 -1.5q-12 6 -16 25z" />
<glyph unicode="&#x13f;" horiz-adv-x="1114" d="M217 299v1133q30 10 62 10q28 0 28 -25v-1104q0 -133 37 -182t129 -49h545q20 0 27.5 -9t7.5 -32v-41h-588q-126 0 -187 68t-61 231zM700 750q0 29 17.5 47.5t44.5 18.5t46 -19.5t19 -50.5q0 -29 -17.5 -47.5t-43.5 -18.5q-27 0 -46.5 19.5t-19.5 50.5z" />
<glyph unicode="&#x140;" horiz-adv-x="684" d="M197 240v1253q30 10 61 10q29 0 29 -24v-1239q0 -90 35 -131t104 -41t121 22q14 -17 14 -43q0 -19 -45.5 -40t-103.5 -21q-102 0 -158.5 62.5t-56.5 191.5zM530 778q0 29 17.5 47.5t44.5 18.5t46 -19.5t19 -50.5q0 -29 -17 -47t-44 -18t-46.5 19t-19.5 50z" />
<glyph unicode="&#x141;" horiz-adv-x="1114" d="M33 608l184 88v736q30 10 62 10q28 0 28 -25v-678l424 203q23 10 33 -14q8 -13 14 -45l-471 -226v-344q0 -133 37 -182t129 -49h545q20 0 27.5 -9t7.5 -32v-41h-588q-126 0 -187 68t-61 231v315l-137 -65q-23 -10 -33 14q-8 13 -14 45z" />
<glyph unicode="&#x142;" horiz-adv-x="585" d="M2 647l195 92v754q30 10 61 10q29 0 29 -24v-697l198 97q22 10 33 -15q8 -15 14 -43l-245 -119v-462q0 -90 35 -131t104 -41t121 22q14 -17 14 -43q0 -19 -45.5 -40t-103.5 -21q-102 0 -158.5 62.5t-56.5 191.5v419l-148 -69q-23 -10 -33 14q-8 15 -14 43z" />
<glyph unicode="&#x143;" horiz-adv-x="1470" d="M221 35v1374q45 33 80 33q23 0 37 -23l821 -1288v1303h49q23 0 32 -7.5t9 -27.5v-1374q-45 -33 -80 -33q-19 0 -36 22l-822 1289v-1303h-49q-23 0 -32 7.5t-9 27.5zM594 1601l274 258q15 15 25 15q11 0 24 -13q15 -15 25 -41l-283 -247q-14 -11 -20 -11q-8 0 -17 9z" />
<glyph unicode="&#x144;" horiz-adv-x="1306" d="M197 35v1057q30 10 61 10q29 0 29 -25v-121q88 75 197.5 118.5t220.5 43.5q191 0 288 -117.5t97 -326.5v-506q0 -57 18.5 -81t56.5 -24h37q6 -15 6 -34q0 -16 -23 -29.5t-57 -13.5q-58 0 -93.5 44.5t-35.5 137.5v498q0 185 -75 277.5t-230 92.5q-105 0 -212 -43 t-195 -127v-866h-49q-23 0 -32 7.5t-9 27.5zM494 1245l274 258q15 15 25 15q11 0 24 -13q15 -15 25 -41l-283 -247q-14 -11 -20 -11q-8 0 -17 9z" />
<glyph unicode="&#x145;" horiz-adv-x="1470" d="M221 35v1374q45 33 80 33q23 0 37 -23l821 -1288v1303h49q23 0 32 -7.5t9 -27.5v-1374q-45 -33 -80 -33q-19 0 -36 22l-822 1289v-1303h-49q-23 0 -32 7.5t-9 27.5zM641 -406q89 89 98 191q-24 3 -39.5 22t-15.5 48t17 47t44 18q28 0 47 -19.5t19 -54.5q0 -67 -24 -128.5 t-62 -102.5q-15 -17 -30.5 -28.5t-25 -15t-12.5 -1.5q-12 6 -16 24z" />
<glyph unicode="&#x146;" horiz-adv-x="1306" d="M197 35v1057q30 10 61 10q29 0 29 -25v-121q88 75 197.5 118.5t220.5 43.5q191 0 288 -117.5t97 -326.5v-506q0 -57 18.5 -81t56.5 -24h37q6 -15 6 -34q0 -16 -23 -29.5t-57 -13.5q-58 0 -93.5 44.5t-35.5 137.5v498q0 185 -75 277.5t-230 92.5q-105 0 -212 -43 t-195 -127v-866h-49q-23 0 -32 7.5t-9 27.5zM565 -406q90 90 99 191q-24 3 -40 22t-16 48t17.5 47t44.5 18q28 0 46.5 -19.5t18.5 -54.5q0 -67 -24 -128.5t-62 -102.5q-15 -17 -30 -28.5t-24.5 -15t-12.5 -1.5q-14 7 -17 24z" />
<glyph unicode="&#x147;" horiz-adv-x="1470" d="M221 35v1374q45 33 80 33q23 0 37 -23l821 -1288v1303h49q23 0 32 -7.5t9 -27.5v-1374q-45 -33 -80 -33q-19 0 -36 22l-822 1289v-1303h-49q-23 0 -32 7.5t-9 27.5zM438 1819q10 26 25 41q12 12 24 12q11 0 25 -14l223 -224l244 242l41 -37q8 -8 8 -14q0 -11 -10 -21 l-260 -256h-23q-22 0 -33 11z" />
<glyph unicode="&#x148;" horiz-adv-x="1306" d="M197 35v1057q30 10 61 10q29 0 29 -25v-121q88 75 197.5 118.5t220.5 43.5q191 0 288 -117.5t97 -326.5v-506q0 -57 18.5 -81t56.5 -24h37q6 -15 6 -34q0 -16 -23 -29.5t-57 -13.5q-58 0 -93.5 44.5t-35.5 137.5v498q0 185 -75 277.5t-230 92.5q-105 0 -212 -43 t-195 -127v-866h-49q-23 0 -32 7.5t-9 27.5zM340 1462q10 26 25 41q13 13 24 13q10 0 25 -15l223 -223l244 242l41 -37q8 -8 8 -15q0 -10 -10 -20l-261 -256h-22q-23 0 -33 10z" />
<glyph unicode="&#x149;" horiz-adv-x="1306" d="M53 1174q90 90 99 190q-24 3 -40 22t-16 48t17.5 47t44.5 18q28 0 46.5 -19.5t18.5 -54.5q0 -67 -24 -128.5t-62 -102.5q-15 -17 -30 -28.5t-24.5 -15t-12.5 -1.5q-13 7 -17 25zM197 35v1057q30 10 61 10q29 0 29 -25v-121q88 75 197.5 118.5t220.5 43.5 q191 0 288 -117.5t97 -326.5v-506q0 -57 18.5 -81t56.5 -24h37q6 -15 6 -34q0 -16 -23 -29.5t-57 -13.5q-58 0 -93.5 44.5t-35.5 137.5v498q0 185 -75 277.5t-230 92.5q-105 0 -212 -43t-195 -127v-866h-49q-23 0 -32 7.5t-9 27.5z" />
<glyph unicode="&#x14a;" horiz-adv-x="1470" d="M221 35v1374q45 33 80 33q23 0 37 -23l821 -1288v1303h49q23 0 32 -7.5t9 -27.5v-1446q0 -177 -82 -301q-31 -46 -66 -78.5t-59.5 -44t-35.5 -6.5q-24 12 -31 37q184 152 184 387v26l-848 1330v-1303h-49q-23 0 -32 7.5t-9 27.5z" />
<glyph unicode="&#x14b;" horiz-adv-x="1302" d="M197 35v1057q30 10 61 10q29 0 29 -25v-121q190 162 418 162q191 0 288 -117.5t97 -326.5v-721q0 -177 -82 -301q-31 -46 -66.5 -78.5t-60 -44t-35.5 -6.5q-24 12 -31 37q184 152 184 387v719q0 187 -74.5 278.5t-230.5 91.5q-109 0 -214.5 -43t-192.5 -127v-866h-49 q-23 0 -32 7.5t-9 27.5z" />
<glyph unicode="&#x14c;" horiz-adv-x="1576" d="M135 717q0 144 34 265.5t94.5 208.5t142.5 147.5t178.5 90t203.5 29.5q134 0 251 -47.5t207.5 -137.5t143 -233.5t52.5 -322.5t-52.5 -322.5t-143 -234t-207.5 -138t-251 -47.5q-106 0 -203 29.5t-179 90.5t-142.5 148t-94.5 208.5t-34 265.5zM229 733q0 -169 46 -301 t126 -212.5t182.5 -121.5t221.5 -41q86 0 165 24.5t148 76.5t120 127t80.5 181.5t29.5 233.5q0 136 -30 248.5t-82.5 191t-125.5 132t-158 79t-180 25.5q-109 0 -205.5 -40t-172.5 -117t-120.5 -202.5t-44.5 -283.5zM519 1708q0 27 8 47h497q20 0 27.5 -9t7.5 -32v-33h-516 q-24 0 -24 27z" />
<glyph unicode="&#x14d;" horiz-adv-x="1286" d="M123 547q0 130 41.5 239t112.5 181t165.5 111.5t200.5 39.5t200.5 -39.5t165.5 -111.5t112.5 -181t41.5 -239t-41.5 -239t-112.5 -181t-165.5 -112t-200.5 -40t-200.5 40t-165.5 112t-112.5 181t-41.5 239zM213 559q0 -121 36.5 -218.5t98.5 -158.5t140.5 -93t166.5 -32 q81 0 155.5 31t133.5 88.5t94 150.5t35 208q0 121 -36.5 218.5t-98.5 158t-140.5 92.5t-166.5 32q-81 0 -155 -30.5t-133.5 -88.5t-94.5 -150.5t-35 -207.5zM373 1350q0 27 8 47h497q20 0 27.5 -9t7.5 -32v-33h-516q-24 0 -24 27z" />
<glyph unicode="&#x14e;" horiz-adv-x="1576" d="M135 717q0 144 34 265.5t94.5 208.5t142.5 147.5t178.5 90t203.5 29.5q134 0 251 -47.5t207.5 -137.5t143 -233.5t52.5 -322.5t-52.5 -322.5t-143 -234t-207.5 -138t-251 -47.5q-106 0 -203 29.5t-179 90.5t-142.5 148t-94.5 208.5t-34 265.5zM229 733q0 -169 46 -301 t126 -212.5t182.5 -121.5t221.5 -41q86 0 165 24.5t148 76.5t120 127t80.5 181.5t29.5 233.5q0 136 -30 248.5t-82.5 191t-125.5 132t-158 79t-180 25.5q-109 0 -205.5 -40t-172.5 -117t-120.5 -202.5t-44.5 -283.5zM508 1833q26 16 53 16q14 0 19 -6t10 -26 q19 -87 69.5 -133t128.5 -46q81 0 136.5 53.5t68.5 157.5h39q23 0 30.5 -7t4.5 -25q-18 -112 -91.5 -180t-187.5 -68q-116 0 -189.5 69.5t-90.5 194.5z" />
<glyph unicode="&#x14f;" horiz-adv-x="1286" d="M123 547q0 130 41.5 239t112.5 181t165.5 111.5t200.5 39.5t200.5 -39.5t165.5 -111.5t112.5 -181t41.5 -239t-41.5 -239t-112.5 -181t-165.5 -112t-200.5 -40t-200.5 40t-165.5 112t-112.5 181t-41.5 239zM213 559q0 -121 36.5 -218.5t98.5 -158.5t140.5 -93t166.5 -32 q81 0 155.5 31t133.5 88.5t94 150.5t35 208q0 121 -36.5 218.5t-98.5 158t-140.5 92.5t-166.5 32q-81 0 -155 -30.5t-133.5 -88.5t-94.5 -150.5t-35 -207.5zM362 1475q26 16 54 16q14 0 18.5 -6t9.5 -27q19 -86 70 -132t129 -46q81 0 136.5 53.5t68.5 157.5h39 q23 0 30.5 -7.5t4.5 -25.5q-18 -112 -91.5 -180t-187.5 -68q-116 0 -190 70t-91 195z" />
<glyph unicode="&#x150;" horiz-adv-x="1576" d="M135 717q0 144 34 265.5t94.5 208.5t142.5 147.5t178.5 90t203.5 29.5q134 0 251 -47.5t207.5 -137.5t143 -233.5t52.5 -322.5t-52.5 -322.5t-143 -234t-207.5 -138t-251 -47.5q-106 0 -203 29.5t-179 90.5t-142.5 148t-94.5 208.5t-34 265.5zM229 733q0 -169 46 -301 t126 -212.5t182.5 -121.5t221.5 -41q86 0 165 24.5t148 76.5t120 127t80.5 181.5t29.5 233.5q0 136 -30 248.5t-82.5 191t-125.5 132t-158 79t-180 25.5q-109 0 -205.5 -40t-172.5 -117t-120.5 -202.5t-44.5 -283.5zM502 1602l274 258q14 14 25 14q12 0 24 -12 q15 -15 25 -41l-283 -248q-13 -10 -20 -10q-9 0 -17 8zM768 1602l274 258q14 14 25 14q13 0 25 -12q14 -14 24 -41l-282 -248q-12 -10 -21 -10q-8 0 -16 8z" />
<glyph unicode="&#x151;" horiz-adv-x="1286" d="M123 547q0 130 41.5 239t112.5 181t165.5 111.5t200.5 39.5t200.5 -39.5t165.5 -111.5t112.5 -181t41.5 -239t-41.5 -239t-112.5 -181t-165.5 -112t-200.5 -40t-200.5 40t-165.5 112t-112.5 181t-41.5 239zM213 559q0 -121 36.5 -218.5t98.5 -158.5t140.5 -93t166.5 -32 q81 0 155.5 31t133.5 88.5t94 150.5t35 208q0 121 -36.5 218.5t-98.5 158t-140.5 92.5t-166.5 32q-81 0 -155 -30.5t-133.5 -88.5t-94.5 -150.5t-35 -207.5zM356 1245l275 258q15 15 24 15q12 0 25 -13q15 -15 25 -41l-283 -247q-14 -11 -21 -11q-8 0 -16 8zM623 1245 l274 258q15 15 25 15q11 0 24 -13q15 -15 25 -41l-283 -247q-14 -11 -20 -11q-9 0 -17 8z" />
<glyph unicode="&#x152;" horiz-adv-x="1959" d="M135 717q0 143 35 265.5t95 208.5t140 147t170.5 90.5t186.5 29.5q154 0 244 -53v29h794q25 0 25 -27t-8 -55h-721v-607h583q20 0 27.5 -8.5t7.5 -31.5v-41h-618v-351q0 -133 37 -182t129 -49h544q20 0 27.5 -9t7.5 -32v-41h-588q-111 0 -168 49q-125 -74 -297 -74 q-106 0 -203 29.5t-179 90.5t-142.5 148t-94.5 208.5t-34 265.5zM229 733q0 -169 46 -301t126 -212.5t182.5 -121.5t221.5 -41q133 0 233 54q-32 63 -32 188v1024q-116 53 -234 53q-109 0 -205.5 -40t-172.5 -117t-120.5 -202.5t-44.5 -283.5z" />
<glyph unicode="&#x153;" horiz-adv-x="2121" d="M123 547q0 130 41.5 239t112.5 181t165.5 111.5t200.5 39.5q159 0 288 -87t187 -240q58 150 186.5 238.5t280.5 88.5q188 0 307 -113.5t119 -293.5q0 -72 -22 -136q-14 -41 -35.5 -54t-65.5 -13h-723q10 -138 75.5 -242.5t162.5 -156.5t209 -52q162 0 280 68 q15 -18 15 -43q0 -14 -23 -32.5t-61 -35t-97 -28t-122 -11.5q-164 0 -294.5 90t-189.5 242q-54 -155 -184.5 -243.5t-292.5 -88.5q-106 0 -200.5 40t-165.5 112t-112.5 181t-41.5 239zM213 559q0 -121 36.5 -218.5t98.5 -158.5t140.5 -93t166.5 -32q81 0 155.5 31 t133.5 88.5t94 150.5t35 208v22q-4 115 -41.5 208t-99 151t-138.5 89t-163 31q-81 0 -155 -30.5t-133.5 -88.5t-94.5 -150.5t-35 -207.5zM1163 590h735q23 51 23 121q0 146 -94.5 235.5t-245.5 89.5q-78 0 -151 -32t-130.5 -88.5t-94.5 -141.5t-42 -184z" />
<glyph unicode="&#x154;" horiz-adv-x="1339" d="M221 35v1399h389q250 0 402.5 -131.5t152.5 -364.5q0 -190 -101 -311.5t-267 -163.5q135 -214 264 -334q49 -45 77 -58.5t64 -13.5h21q6 -15 6 -32q0 -21 -19.5 -35.5t-48.5 -14.5q-39 0 -79 23t-95 78q-134 134 -274 373q-54 -7 -92 -7q-162 0 -310 50v-492h-49 q-23 0 -32 7.5t-9 27.5zM311 565q130 -41 310 -41q204 0 329 109.5t125 304.5q0 102 -35 182t-97.5 130t-146.5 76t-184 26h-301v-787zM465 1601l274 258q15 15 25 15q11 0 24 -13q15 -15 25 -41l-283 -247q-14 -11 -20 -11q-8 0 -17 9z" />
<glyph unicode="&#x155;" horiz-adv-x="874" d="M197 35v1057q30 10 61 10q29 0 29 -25v-153q110 194 323 194q133 0 215 -53q25 -17 25 -33q0 -13 -12 -28q-17 -20 -43 -33q-80 65 -207 65q-96 0 -174.5 -67t-126.5 -201v-768h-49q-23 0 -32 7.5t-9 27.5zM301 1245l274 258q15 15 25 15q11 0 24 -13q15 -15 25 -41 l-283 -247q-14 -11 -20 -11q-8 0 -17 9z" />
<glyph unicode="&#x156;" horiz-adv-x="1339" d="M221 35v1399h389q250 0 402.5 -131.5t152.5 -364.5q0 -190 -101 -311.5t-267 -163.5q135 -214 264 -334q49 -45 77 -58.5t64 -13.5h21q6 -15 6 -32q0 -21 -19.5 -35.5t-48.5 -14.5q-39 0 -79 23t-95 78q-134 134 -274 373q-54 -7 -92 -7q-162 0 -310 50v-492h-49 q-23 0 -32 7.5t-9 27.5zM311 565q130 -41 310 -41q204 0 329 109.5t125 304.5q0 102 -35 182t-97.5 130t-146.5 76t-184 26h-301v-787zM567 -406q90 90 99 191q-24 3 -40 22t-16 48t17.5 47t44.5 18q28 0 46.5 -19.5t18.5 -54.5q0 -67 -24 -128.5t-62 -102.5 q-15 -17 -30 -28.5t-24.5 -15t-12.5 -1.5q-14 7 -17 24z" />
<glyph unicode="&#x157;" horiz-adv-x="874" d="M137 -406q90 90 99 191q-24 3 -40 22t-16 48t17.5 47t44.5 18q28 0 46.5 -19.5t18.5 -54.5q0 -67 -24 -128.5t-62 -102.5q-15 -17 -30 -28.5t-24.5 -15t-12.5 -1.5q-14 7 -17 24zM197 35v1057q30 10 61 10q29 0 29 -25v-153q110 194 323 194q133 0 215 -53q25 -17 25 -33 q0 -13 -12 -28q-17 -20 -43 -33q-80 65 -207 65q-96 0 -174.5 -67t-126.5 -201v-768h-49q-23 0 -32 7.5t-9 27.5z" />
<glyph unicode="&#x158;" horiz-adv-x="1339" d="M221 35v1399h389q250 0 402.5 -131.5t152.5 -364.5q0 -190 -101 -311.5t-267 -163.5q135 -214 264 -334q49 -45 77 -58.5t64 -13.5h21q6 -15 6 -32q0 -21 -19.5 -35.5t-48.5 -14.5q-39 0 -79 23t-95 78q-134 134 -274 373q-54 -7 -92 -7q-162 0 -310 50v-492h-49 q-23 0 -32 7.5t-9 27.5zM311 565q130 -41 310 -41q204 0 329 109.5t125 304.5q0 102 -35 182t-97.5 130t-146.5 76t-184 26h-301v-787zM344 1819q10 26 25 41q12 12 24 12q11 0 25 -14l223 -224l244 242l41 -37q8 -8 8 -14q0 -11 -10 -21l-260 -256h-23q-22 0 -33 11z" />
<glyph unicode="&#x159;" horiz-adv-x="874" d="M197 35v1057q30 10 61 10q29 0 29 -25v-153q110 194 323 194q133 0 215 -53q25 -17 25 -33q0 -13 -12 -28q-17 -20 -43 -33q-80 65 -207 65q-96 0 -174.5 -67t-126.5 -201v-768h-49q-23 0 -32 7.5t-9 27.5zM197 1462q10 27 24 41q13 13 25 13q9 0 24 -15l224 -223 l243 242l41 -37q8 -8 8 -15q0 -10 -10 -20l-260 -256h-22q-23 0 -33 10z" />
<glyph unicode="&#x15a;" horiz-adv-x="1212" d="M147 1085q0 165 124 269t317 104q162 0 285.5 -69t183.5 -177q16 -30 -13 -49q-27 -17 -61 -20q-57 114 -158 173.5t-237 59.5q-156 0 -253 -77t-97 -205q0 -120 85.5 -197t282.5 -137q246 -75 358.5 -168t112.5 -250q0 -168 -125.5 -267.5t-339.5 -99.5 q-157 0 -282 44.5t-125 89.5q0 26 14 43q176 -95 391 -95q185 0 281 77.5t96 201.5t-97.5 205t-307.5 139q-218 60 -326.5 158.5t-108.5 246.5zM434 1601l274 258q15 15 25 15q11 0 24 -13q15 -15 25 -41l-283 -247q-14 -11 -20 -11q-8 0 -17 9z" />
<glyph unicode="&#x15b;" horiz-adv-x="1017" d="M147 827q0 129 98.5 210t256.5 81q125 0 221.5 -48.5t144.5 -129.5q18 -29 -12 -49q-21 -14 -57 -21q-39 80 -118.5 123t-180.5 43q-112 0 -187 -59.5t-75 -157.5q0 -91 71 -147.5t244 -100.5q181 -46 261.5 -119t80.5 -190q0 -135 -101 -211t-288 -76q-81 0 -159 20.5 t-121.5 46.5t-43.5 44q0 27 15 45q141 -74 305 -74q148 0 225.5 50.5t77.5 148.5q0 82 -65.5 139t-217.5 94q-193 46 -284 127.5t-91 210.5zM340 1245l274 258q15 15 25 15q11 0 24 -13q15 -15 25 -41l-283 -247q-14 -11 -20 -11q-8 0 -17 9z" />
<glyph unicode="&#x15c;" horiz-adv-x="1212" d="M147 1085q0 165 124 269t317 104q162 0 285.5 -69t183.5 -177q16 -30 -13 -49q-27 -17 -61 -20q-57 114 -158 173.5t-237 59.5q-156 0 -253 -77t-97 -205q0 -120 85.5 -197t282.5 -137q246 -75 358.5 -168t112.5 -250q0 -168 -125.5 -267.5t-339.5 -99.5 q-157 0 -282 44.5t-125 89.5q0 26 14 43q176 -95 391 -95q185 0 281 77.5t96 201.5t-97.5 205t-307.5 139q-218 60 -326.5 158.5t-108.5 246.5zM299 1601q0 11 14 25l250 246h23q22 0 33 -11l268 -264l-37 -41q-8 -8 -14 -8q-11 0 -21 10l-229 228l-234 -234q-26 10 -41 25 q-12 12 -12 24z" />
<glyph unicode="&#x15d;" horiz-adv-x="1017" d="M147 827q0 129 98.5 210t256.5 81q125 0 221.5 -48.5t144.5 -129.5q18 -29 -12 -49q-21 -14 -57 -21q-39 80 -118.5 123t-180.5 43q-112 0 -187 -59.5t-75 -157.5q0 -91 71 -147.5t244 -100.5q181 -46 261.5 -119t80.5 -190q0 -135 -101 -211t-288 -76q-81 0 -159 20.5 t-121.5 46.5t-43.5 44q0 27 15 45q141 -74 305 -74q148 0 225.5 50.5t77.5 148.5q0 82 -65.5 139t-217.5 94q-193 46 -284 127.5t-91 210.5zM215 1245q0 11 14 25l250 246h23q22 0 33 -11l268 -264l-37 -41q-8 -8 -14 -8q-11 0 -21 10l-229 228l-234 -234q-26 10 -41 25 q-12 12 -12 24z" />
<glyph unicode="&#x15e;" horiz-adv-x="1212" d="M147 1085q0 165 124 269t317 104q162 0 285.5 -69t183.5 -177q16 -30 -13 -49q-27 -17 -61 -20q-57 114 -158 173.5t-237 59.5q-156 0 -253 -77t-97 -205q0 -120 85.5 -197t282.5 -137q246 -75 358.5 -168t112.5 -250q0 -152 -102 -247.5t-283 -114.5l-51 -99 q109 -13 169 -64t60 -128q0 -85 -58.5 -130.5t-162.5 -45.5q-77 0 -135 22v37q0 19 8.5 23.5t30.5 -1.5q46 -12 88 -12q72 0 112 28t40 79q0 59 -56.5 95.5t-167.5 45.5q-24 12 -24 25q0 4 4 12l57 108q-156 1 -278.5 45t-122.5 89q0 26 14 43q176 -95 391 -95 q185 0 281 77.5t96 201.5t-97.5 205t-307.5 139q-218 60 -326.5 158.5t-108.5 246.5z" />
<glyph unicode="&#x15f;" horiz-adv-x="1017" d="M147 827q0 129 98.5 210t256.5 81q125 0 221.5 -48.5t144.5 -129.5q18 -29 -12 -49q-21 -14 -57 -21q-39 80 -118.5 123t-180.5 43q-112 0 -187 -59.5t-75 -157.5q0 -91 71 -147.5t244 -100.5q181 -46 261.5 -119t80.5 -190q0 -121 -80 -194t-231 -88l-52 -99 q110 -13 170 -64t60 -128q0 -85 -58.5 -130.5t-162.5 -45.5q-77 0 -135 22v37q0 19 8 23.5t30 -1.5q46 -12 88 -12q72 0 112 28t40 79q0 123 -223 141q-25 12 -25 25q0 4 4 12l58 108q-79 1 -155.5 21.5t-118.5 46t-42 43.5q0 27 15 45q141 -74 305 -74q148 0 225.5 50.5 t77.5 148.5q0 82 -65.5 139t-217.5 94q-193 46 -284 127.5t-91 210.5z" />
<glyph unicode="&#x160;" horiz-adv-x="1212" d="M147 1085q0 165 124 269t317 104q162 0 285.5 -69t183.5 -177q16 -30 -13 -49q-27 -17 -61 -20q-57 114 -158 173.5t-237 59.5q-156 0 -253 -77t-97 -205q0 -120 85.5 -197t282.5 -137q246 -75 358.5 -168t112.5 -250q0 -168 -125.5 -267.5t-339.5 -99.5 q-157 0 -282 44.5t-125 89.5q0 26 14 43q176 -95 391 -95q185 0 281 77.5t96 201.5t-97.5 205t-307.5 139q-218 60 -326.5 158.5t-108.5 246.5zM293 1819q10 27 24 41q12 12 25 12q11 0 25 -14l223 -224l244 242l40 -37q9 -9 9 -14q0 -10 -11 -21l-260 -256h-22 q-22 0 -33 11z" />
<glyph unicode="&#x161;" horiz-adv-x="1017" d="M147 827q0 129 98.5 210t256.5 81q125 0 221.5 -48.5t144.5 -129.5q18 -29 -12 -49q-21 -14 -57 -21q-39 80 -118.5 123t-180.5 43q-112 0 -187 -59.5t-75 -157.5q0 -91 71 -147.5t244 -100.5q181 -46 261.5 -119t80.5 -190q0 -135 -101 -211t-288 -76q-81 0 -159 20.5 t-121.5 46.5t-43.5 44q0 27 15 45q141 -74 305 -74q148 0 225.5 50.5t77.5 148.5q0 82 -65.5 139t-217.5 94q-193 46 -284 127.5t-91 210.5zM215 1462q10 26 25 41q13 13 24 13q10 0 25 -15l223 -223l244 242l41 -37q8 -8 8 -15q0 -10 -10 -20l-260 -256h-23q-23 0 -33 10z " />
<glyph unicode="&#x162;" horiz-adv-x="1236" d="M98 1378q0 28 8 56h998q20 0 27.5 -9t7.5 -32v-41h-475v-1352l-64 -119q109 -13 169 -64t60 -128q0 -85 -58.5 -130.5t-162.5 -45.5q-77 0 -135 22v37q0 19 8.5 23.5t30.5 -1.5q46 -12 88 -12q72 0 112 28t40 79q0 59 -56.5 95.5t-167.5 45.5q-24 12 -24 25q0 4 4 12 l76 139q-11 7 -11 23v1323h-450q-25 0 -25 26z" />
<glyph unicode="&#x163;" horiz-adv-x="913" d="M74 1038q0 28 8 56h211v311q30 10 61 10q29 0 29 -24v-297h391q20 0 27.5 -9t7.5 -32v-41h-426v-690q0 -134 60 -199.5t165 -65.5q110 0 191 41q16 -19 16 -43q0 -25 -64.5 -52.5t-148.5 -27.5h-22l-52 -94q110 -13 170 -64t60 -128q0 -85 -58.5 -130.5t-162.5 -45.5 q-78 0 -136 22v37q0 19 8.5 23.5t30.5 -1.5q46 -12 88 -12q72 0 112 28t40 79q0 123 -223 141q-25 12 -25 25q0 4 4 12l66 123q-99 28 -154 112t-55 213v697h-195q-24 0 -24 26z" />
<glyph unicode="&#x164;" horiz-adv-x="1236" d="M98 1378q0 28 8 56h998q20 0 27.5 -9t7.5 -32v-41h-475v-1352h-50q-23 0 -32 7.5t-9 27.5v1317h-450q-25 0 -25 26zM322 1818q10 27 24 41q13 13 25 13q10 0 25 -15l223 -223l244 242l41 -37q8 -8 8 -15q0 -9 -11 -20l-260 -256h-22q-23 0 -33 10z" />
<glyph unicode="&#x165;" horiz-adv-x="1005" d="M74 1038q0 28 8 56h211v311q30 10 61 10q29 0 29 -24v-297h391q20 0 27.5 -9t7.5 -32v-41h-426v-690q0 -134 60 -199.5t165 -65.5q110 0 191 41q16 -19 16 -43q0 -25 -64.5 -52.5t-148.5 -27.5q-142 0 -225.5 90t-83.5 250v697h-195q-24 0 -24 26zM817 1174q89 89 98 190 q-24 3 -39.5 22t-15.5 48t17.5 47t44.5 18q28 0 46.5 -19.5t18.5 -54.5q0 -67 -24 -128.5t-62 -102.5q-15 -17 -30 -28.5t-24.5 -15t-12.5 -1.5q-13 7 -17 25z" />
<glyph unicode="&#x166;" horiz-adv-x="1236" d="M98 1378q0 28 8 56h998q20 0 27.5 -9t7.5 -32v-41h-475v-598h231q20 0 27.5 -9t7.5 -32v-33h-266v-680h-50q-23 0 -32 7.5t-9 27.5v645h-241q-25 0 -25 27t8 47h258v598h-450q-25 0 -25 26z" />
<glyph unicode="&#x167;" horiz-adv-x="913" d="M74 1038q0 28 8 56h211v311q30 10 61 10q29 0 29 -24v-297h391q20 0 27.5 -9t7.5 -32v-41h-426v-422h289q20 0 27.5 -9t7.5 -32v-33h-324v-194q0 -134 60 -199.5t165 -65.5q110 0 191 41q16 -19 16 -43q0 -25 -64.5 -52.5t-148.5 -27.5q-142 0 -225.5 90t-83.5 250v201 h-125q-25 0 -25 27q0 25 9 47h141v422h-195q-24 0 -24 26z" />
<glyph unicode="&#x168;" horiz-adv-x="1474" d="M209 596v836q30 10 61 10q29 0 29 -25v-829q0 -240 121 -385.5t317 -145.5t317.5 145.5t121.5 385.5v846h49q23 0 32 -7.5t9 -27.5v-803q0 -286 -145 -453.5t-384 -167.5q-238 0 -383 167.5t-145 453.5zM450 1657q0 21 12 57q36 108 146 108q84 0 151 -75q61 -66 107 -66 q38 0 57.5 27t26.5 106l53 -10q26 -6 21 -41q-25 -152 -156 -152q-84 0 -152 76q-61 66 -106 66q-38 0 -58 -28t-26 -105q-43 0 -62 8q-14 7 -14 29z" />
<glyph unicode="&#x169;" horiz-adv-x="1249" d="M176 461v631q30 10 62 10q28 0 28 -25v-620q0 -183 102.5 -291.5t256.5 -108.5t256 108.5t102 291.5v637h49q23 0 32 -7.5t9 -27.5v-598q0 -220 -127 -353t-321 -133q-195 0 -322 133t-127 353zM336 1298q0 22 12 58q36 108 146 108q84 0 151 -75q61 -66 107 -66 q38 0 57.5 27t26.5 106l53 -10q14 -3 18.5 -12t1.5 -29q-25 -152 -155 -152q-84 0 -152 76q-61 66 -106 66q-38 0 -58 -28t-26 -105q-43 0 -62 8q-14 7 -14 28z" />
<glyph unicode="&#x16a;" horiz-adv-x="1474" d="M209 596v836q30 10 61 10q29 0 29 -25v-829q0 -240 121 -385.5t317 -145.5t317.5 145.5t121.5 385.5v846h49q23 0 32 -7.5t9 -27.5v-803q0 -286 -145 -453.5t-384 -167.5q-238 0 -383 167.5t-145 453.5zM467 1708q0 27 8 47h497q20 0 27.5 -9t7.5 -32v-33h-516 q-24 0 -24 27z" />
<glyph unicode="&#x16b;" horiz-adv-x="1249" d="M176 461v631q30 10 62 10q28 0 28 -25v-620q0 -183 102.5 -291.5t256.5 -108.5t256 108.5t102 291.5v637h49q23 0 32 -7.5t9 -27.5v-598q0 -220 -127 -353t-321 -133q-195 0 -322 133t-127 353zM355 1350q0 27 8 47h497q20 0 27.5 -9t7.5 -32v-33h-516q-24 0 -24 27z" />
<glyph unicode="&#x16c;" horiz-adv-x="1474" d="M209 596v836q30 10 61 10q29 0 29 -25v-829q0 -240 121 -385.5t317 -145.5t317.5 145.5t121.5 385.5v846h49q23 0 32 -7.5t9 -27.5v-803q0 -286 -145 -453.5t-384 -167.5q-238 0 -383 167.5t-145 453.5zM457 1833q26 16 53 16q14 0 19 -6t10 -26q19 -87 69.5 -133 t128.5 -46q81 0 136.5 53.5t68.5 157.5h39q23 0 30.5 -7t4.5 -25q-18 -112 -91.5 -180t-187.5 -68q-116 0 -189.5 69.5t-90.5 194.5z" />
<glyph unicode="&#x16d;" horiz-adv-x="1249" d="M176 461v631q30 10 62 10q28 0 28 -25v-620q0 -183 102.5 -291.5t256.5 -108.5t256 108.5t102 291.5v637h49q23 0 32 -7.5t9 -27.5v-598q0 -220 -127 -353t-321 -133q-195 0 -322 133t-127 353zM344 1475q26 16 53 16q14 0 19 -6.5t10 -26.5q19 -86 70 -132t129 -46 q81 0 136 53.5t68 157.5h39q23 0 30.5 -7.5t4.5 -25.5q-18 -112 -91 -180t-187 -68q-116 0 -190 70t-91 195z" />
<glyph unicode="&#x16e;" horiz-adv-x="1474" d="M209 596q0 -286 145 -453.5t383 -167.5q239 0 384 167.5t145 453.5v803q0 20 -9 27.5t-32 7.5h-49v-846q0 -240 -121.5 -385.5t-317.5 -145.5t-317 145.5t-121 385.5v829q0 25 -29 25q-31 0 -61 -10v-836zM547 1718q0 77 55.5 130t134.5 53t135 -53t56 -130t-56 -129.5 t-135 -52.5t-134.5 52.5t-55.5 129.5zM621 1724q0 -57 33.5 -89.5t88.5 -32.5q46 0 78.5 31.5t32.5 78.5q0 57 -34 90t-89 33q-46 0 -78 -32t-32 -79z" />
<glyph unicode="&#x16f;" horiz-adv-x="1249" d="M176 461v631q30 10 62 10q28 0 28 -25v-620q0 -183 102.5 -291.5t256.5 -108.5t256 108.5t102 291.5v637h49q23 0 32 -7.5t9 -27.5v-598q0 -220 -127 -353t-321 -133q-195 0 -322 133t-127 353zM434 1362q0 77 56 129.5t135 52.5t134.5 -52.5t55.5 -129.5t-55.5 -129.5 t-134.5 -52.5t-135 52.5t-56 129.5zM508 1368q0 -57 34 -90t89 -33q46 0 78.5 32t32.5 79q0 57 -34 90t-89 33q-46 0 -78.5 -32t-32.5 -79z" />
<glyph unicode="&#x170;" horiz-adv-x="1474" d="M209 596v836q30 10 61 10q29 0 29 -25v-829q0 -240 121 -385.5t317 -145.5t317.5 145.5t121.5 385.5v846h49q23 0 32 -7.5t9 -27.5v-803q0 -286 -145 -453.5t-384 -167.5q-238 0 -383 167.5t-145 453.5zM522 1602l275 258q14 14 24 14q13 0 25 -12q14 -14 24 -41 l-282 -248q-12 -10 -21 -10q-8 0 -16 8zM788 1602l275 258q14 14 24 14q13 0 25 -12q15 -15 25 -41l-283 -248q-12 -10 -20 -10q-9 0 -17 8z" />
<glyph unicode="&#x171;" horiz-adv-x="1249" d="M176 461v631q30 10 62 10q28 0 28 -25v-620q0 -183 102.5 -291.5t256.5 -108.5t256 108.5t102 291.5v637h49q23 0 32 -7.5t9 -27.5v-598q0 -220 -127 -353t-321 -133q-195 0 -322 133t-127 353zM354 1245l275 258q15 15 24 15q12 0 25 -13q14 -14 24 -41l-282 -247 q-14 -11 -21 -11q-8 0 -16 8zM621 1245l274 258q15 15 25 15q11 0 24 -13q15 -15 25 -41l-283 -247q-14 -11 -20 -11q-9 0 -17 8z" />
<glyph unicode="&#x172;" horiz-adv-x="1474" d="M209 596v836q30 10 61 10q29 0 29 -25v-829q0 -240 121 -385.5t317 -145.5t317.5 145.5t121.5 385.5v846h49q23 0 32 -7.5t9 -27.5v-803q0 -253 -115 -414.5t-311 -195.5q-142 -109 -142 -240q0 -52 39 -89.5t113 -37.5q51 0 88 12q22 7 30.5 2t8.5 -24v-33 q-56 -27 -133 -27q-102 0 -162.5 52.5t-60.5 144.5q0 60 29 120.5t85 108.5q-239 2 -382.5 168.5t-143.5 452.5z" />
<glyph unicode="&#x173;" horiz-adv-x="1249" d="M176 461v631q30 10 62 10q28 0 28 -25v-620q0 -183 102.5 -291.5t256.5 -108.5t256 108.5t102 291.5v637h49q23 0 32 -7.5t9 -27.5v-598q0 -192 -98.5 -319.5t-257.5 -157.5q-142 -104 -142 -238q0 -52 39 -89.5t113 -37.5q51 0 88 12q22 7 30.5 2t8.5 -24v-33 q-56 -27 -133 -27q-102 0 -162.5 52.5t-60.5 144.5q0 60 29 120.5t85 108.5q-190 5 -313 137t-123 349z" />
<glyph unicode="&#x174;" horiz-adv-x="2260" d="M111 1407q39 31 69 31q22 0 31 -29l412 -1298q272 552 442 1323h86q36 0 47 -33l389 -1288q311 608 455 1321h55q23 0 31 -8.5t4 -28.5q-79 -374 -194.5 -703t-288.5 -665q-15 -29 -47 -29h-78l-394 1317q-149 -687 -446 -1288q-13 -29 -47 -29h-78zM844 1601q0 11 14 25 l250 246h23q22 0 33 -11l268 -264l-37 -41q-8 -8 -14 -8q-11 0 -21 10l-229 228l-234 -234q-26 10 -41 25q-12 12 -12 24z" />
<glyph unicode="&#x175;" horiz-adv-x="1785" d="M106 1077q39 31 70 31q22 0 31 -29l317 -964q105 209 182 441.5t136 537.5h69q19 0 29 -7t16 -26l326 -944q218 435 307 977h47q23 0 30.5 -8t4.5 -29q-45 -276 -123 -520t-207 -506q-9 -18 -19 -24.5t-28 -6.5h-71l-318 954q-98 -468 -323 -925q-15 -29 -47 -29h-70z M618 1245q0 11 14 25l250 246h23q22 0 33 -11l268 -264l-37 -41q-8 -8 -14 -8q-11 0 -21 10l-229 228l-234 -234q-26 10 -41 25q-12 12 -12 24z" />
<glyph unicode="&#x176;" horiz-adv-x="1337" d="M94 1395q40 43 68 43q19 0 35 -25l469 -833q312 370 495 854h51q49 0 35 -37q-188 -501 -542 -916v-481h-50q-23 0 -32 7.5t-9 27.5v442zM391 1602q0 9 15 24l249 246h23q23 0 33 -10l268 -265l-37 -41q-8 -8 -14 -8q-10 0 -21 11l-229 227l-234 -234q-26 10 -41 25 q-12 12 -12 25z" />
<glyph unicode="&#x177;" horiz-adv-x="1282" d="M193 420v672q30 10 61 10q29 0 29 -25v-649q0 -371 305 -371q105 0 212 43t195 127v875h49q23 0 32 -7.5t9 -27.5v-1036q0 -157 -60.5 -277.5t-183.5 -191t-294 -70.5q-150 0 -245 72.5t-95 195.5q0 160 168 263q-182 101 -182 397zM297 -240q0 -81 70 -133.5t178 -52.5 q226 0 338 120t112 324v119q-89 -75 -197.5 -118.5t-219.5 -43.5q-54 0 -123 15q-158 -96 -158 -230zM350 1245q0 10 15 25l249 246h23q22 0 33 -11l268 -264l-37 -41q-8 -8 -14 -8q-11 0 -21 10l-229 228l-234 -234q-26 10 -41 25q-12 12 -12 24z" />
<glyph unicode="&#x178;" horiz-adv-x="1331" d="M88 1395q40 43 68 43q18 0 34 -25l469 -833q314 372 496 854h51q49 0 35 -37q-92 -244 -231.5 -479.5t-311.5 -436.5v-481h-49q-23 0 -32 7.5t-9 27.5v442zM434 1720q0 29 17.5 47.5t44.5 18.5t46 -19.5t19 -50.5q0 -29 -17 -47t-44 -18t-46.5 19t-19.5 50zM766 1720 q0 29 17.5 47.5t43.5 18.5q27 0 46.5 -19.5t19.5 -50.5q0 -29 -17.5 -47t-44.5 -18t-46 19t-19 50z" />
<glyph unicode="&#x179;" horiz-adv-x="1230" d="M135 68l842 1284h-789q-24 0 -24 26q0 28 8 56h862q28 0 39 -17q16 -23 19 -51l-842 -1284h823q20 0 27.5 -9t7.5 -32v-41h-915q-28 0 -39 16q-15 23 -19 52zM479 1602l275 258q14 14 24 14q13 0 25 -12q14 -14 24 -41l-282 -248q-13 -10 -21 -10t-16 8z" />
<glyph unicode="&#x17a;" horiz-adv-x="1026" d="M123 68l674 944h-633q-25 0 -25 26q0 28 8 56h707q28 0 39 -17q14 -21 18 -51l-673 -944h655q20 0 27.5 -9t7.5 -32v-41h-748q-28 0 -39 16q-14 21 -18 52zM375 1245l274 258q15 15 25 15q11 0 24 -13q15 -15 25 -41l-283 -247q-14 -11 -20 -11q-8 0 -17 9z" />
<glyph unicode="&#x17b;" horiz-adv-x="1230" d="M135 68l842 1284h-789q-24 0 -24 26q0 28 8 56h862q28 0 39 -17q16 -23 19 -51l-842 -1284h823q20 0 27.5 -9t7.5 -32v-41h-915q-28 0 -39 16q-15 23 -19 52zM542 1720q0 29 17.5 47.5t44.5 18.5t46 -19.5t19 -50.5q0 -29 -17.5 -47.5t-43.5 -18.5q-27 0 -46.5 19.5 t-19.5 50.5z" />
<glyph unicode="&#x17c;" horiz-adv-x="1026" d="M123 68l674 944h-633q-25 0 -25 26q0 28 8 56h707q28 0 39 -17q14 -21 18 -51l-673 -944h655q20 0 27.5 -9t7.5 -32v-41h-748q-28 0 -39 16q-14 21 -18 52zM446 1364q0 29 17.5 47.5t44.5 18.5t46 -19.5t19 -50.5q0 -29 -17.5 -47.5t-43.5 -18.5q-27 0 -46.5 19.5 t-19.5 50.5z" />
<glyph unicode="&#x17d;" horiz-adv-x="1230" d="M135 68l842 1284h-789q-24 0 -24 26q0 28 8 56h862q28 0 39 -17q16 -23 19 -51l-842 -1284h823q20 0 27.5 -9t7.5 -32v-41h-915q-28 0 -39 16q-15 23 -19 52zM326 1819q10 27 24 41q12 12 25 12q10 0 24 -14l224 -224l243 242l41 -37q8 -8 8 -14q0 -11 -10 -21l-260 -256 h-22q-22 0 -33 11z" />
<glyph unicode="&#x17e;" horiz-adv-x="1026" d="M123 68l674 944h-633q-25 0 -25 26q0 28 8 56h707q28 0 39 -17q14 -21 18 -51l-673 -944h655q20 0 27.5 -9t7.5 -32v-41h-748q-28 0 -39 16q-14 21 -18 52zM231 1462q10 26 25 41q13 13 25 13q9 0 24 -15l223 -223l244 242l41 -37q8 -8 8 -15q0 -10 -10 -20l-260 -256 h-23q-22 0 -32 10z" />
<glyph unicode="&#x17f;" horiz-adv-x="854" d="M74 1038q0 28 8 56h231v88q0 159 82.5 248.5t225.5 89.5q58 0 111.5 -13t81.5 -29.5t28 -29.5q0 -22 -15 -45q-79 35 -196 35q-110 0 -169 -62t-59 -182v-1194h-49q-23 0 -32 7.5t-9 27.5v977h-215q-24 0 -24 26z" />
<glyph unicode="&#x191;" horiz-adv-x="1126" d="M37 -440q184 152 184 387v1487h795q24 0 24 -27t-8 -55h-721v-607h584q20 0 27.5 -8.5t7.5 -31.5v-41h-619v-711q0 -177 -82 -301q-31 -46 -66 -78.5t-59.5 -44t-35.5 -6.5q-24 12 -31 37z" />
<glyph unicode="&#x192;" horiz-adv-x="854" d="M-125 -434q0 24 14 45q79 -35 197 -35q110 0 168.5 62t58.5 182v1192h-215q-24 0 -24 26q0 28 8 56h231v88q0 159 82.5 248.5t225.5 89.5q58 0 111.5 -13t81.5 -29.5t28 -29.5q0 -22 -15 -45q-79 35 -196 35q-110 0 -169 -62t-59 -182v-100h371q20 0 27.5 -9t7.5 -32v-41 h-406v-1180q0 -159 -82 -248.5t-225 -89.5q-58 0 -111.5 13t-81.5 29.5t-28 29.5z" />
<glyph unicode="&#x1fa;" horiz-adv-x="1347" d="M66 35l530 1335q-51 21 -82 66t-31 102q0 77 56 129.5t135 52.5t134.5 -52.5t55.5 -129.5q0 -58 -31 -102.5t-83 -65.5l546 -1370h-59q-33 0 -45 31l-150 381h-737l-162 -412h-49q-43 0 -28 35zM336 494h674l-336 858zM545 1794l205 195q14 14 24 14q13 0 25 -12 q14 -14 24 -41l-213 -185q-12 -10 -20 -10q-9 0 -17 8zM557 1544q0 -57 34 -90t89 -33q46 0 78.5 32t32.5 79q0 57 -34 90t-89 33q-46 0 -78.5 -32t-32.5 -79z" />
<glyph unicode="&#x1fb;" horiz-adv-x="1214" d="M123 319q0 164 115 259.5t307 95.5q194 0 366 -90v141q0 156 -97.5 233.5t-260.5 77.5q-199 0 -324 -73q-14 18 -14 43q0 16 27.5 35t73 36.5t113 29t138.5 11.5q198 0 316 -103.5t118 -297.5v-535q0 -64 19 -91.5t59 -27.5h35q6 -15 6 -34q0 -16 -23 -29.5t-57 -13.5 q-58 0 -93.5 49.5t-35.5 150.5v15q-59 -98 -167.5 -162t-241.5 -64q-172 0 -275.5 96t-103.5 248zM213 319q0 -119 84 -190.5t203 -71.5q124 0 230 63t181 193v191q-75 42 -172.5 65t-193.5 23q-153 0 -242.5 -75.5t-89.5 -197.5zM395 1362q0 77 56 129.5t135 52.5 t134.5 -52.5t55.5 -129.5t-55.5 -129.5t-134.5 -52.5t-135 52.5t-56 129.5zM457 1618l205 194q15 15 24 15q13 0 25 -12q14 -14 24 -41l-213 -185q-13 -10 -20 -10q-9 0 -17 8zM469 1368q0 -57 34 -90t89 -33q46 0 78 32t32 79q0 58 -33.5 90.5t-88.5 32.5q-46 0 -78.5 -32 t-32.5 -79z" />
<glyph unicode="&#x1fc;" horiz-adv-x="1777" d="M41 35l721 1376q48 23 119 23h737q24 0 24 -27t-8 -55h-721v-607h584q20 0 27.5 -8.5t7.5 -31.5v-41h-619v-351q0 -133 37 -182t129 -49h545q20 0 27.5 -9t7.5 -32v-41h-588q-126 0 -187 68t-61 231v113h-489l-215 -412h-49q-44 0 -29 35zM377 494h446v858zM979 1601 l274 258q15 15 25 15q11 0 24 -13q15 -15 25 -41l-283 -247q-14 -11 -20 -11q-8 0 -17 9z" />
<glyph unicode="&#x1fd;" horiz-adv-x="1959" d="M123 319q0 164 115 259.5t307 95.5q194 0 366 -90v141q0 156 -97.5 233.5t-260.5 77.5q-199 0 -324 -73q-14 18 -14 43q0 16 27.5 35t73 36.5t113 29t138.5 11.5q159 0 269.5 -70t146.5 -202q65 127 184.5 199.5t255.5 72.5q188 0 307 -113.5t119 -293.5q0 -72 -22 -136 q-14 -41 -35.5 -54t-65.5 -13h-722q7 -104 47 -190.5t101 -142.5t138 -87t160 -31q163 0 281 68q14 -17 14 -43q0 -14 -23 -32.5t-61 -35t-97 -28t-122 -11.5q-149 0 -268 72t-189 201q-87 -132 -210.5 -202.5t-272.5 -70.5q-172 0 -275.5 96t-103.5 248zM213 319 q0 -119 84 -190.5t203 -71.5q127 0 244 67.5t200 211.5q-27 80 -33 168q-75 42 -172.5 65t-193.5 23q-153 0 -242.5 -75.5t-89.5 -197.5zM830 1245l274 258q15 15 25 15q11 0 24 -13q15 -15 25 -41l-283 -247q-14 -11 -20 -11q-8 0 -17 9zM1001 590h736q22 49 22 121 q0 146 -94.5 235.5t-245.5 89.5q-78 0 -151 -32t-130.5 -88.5t-94.5 -141.5t-42 -184z" />
<glyph unicode="&#x1fe;" horiz-adv-x="1576" d="M103.5 14q-6.5 14 13.5 33l162 176q-144 194 -144 494q0 144 34 265.5t94.5 208.5t142.5 147.5t178.5 90t203.5 29.5q133 0 250 -46.5t205 -137.5l148 160h45q31 0 37.5 -14.5t-13.5 -33.5l-162 -176q144 -198 144 -493q0 -179 -52.5 -322.5t-143 -234t-207.5 -138 t-251 -47.5q-276 0 -456 183l-146 -158h-45q-31 0 -37.5 14zM229 733q0 -264 113 -440l840 913q-76 84 -182.5 127t-227.5 43q-109 0 -205.5 -40t-172.5 -117t-120.5 -202.5t-44.5 -283.5zM395 225q152 -168 410 -168q86 0 165 24.5t148 76.5t120 127t80.5 181.5t29.5 233.5 q0 270 -115 439zM637 1601l274 258q15 15 25 15q11 0 24 -13q15 -15 25 -41l-283 -247q-14 -11 -20 -11q-8 0 -17 9z" />
<glyph unicode="&#x1ff;" horiz-adv-x="1286" d="M115 14q-6 14 12 33l113 123q-117 149 -117 377q0 130 41.5 239t112.5 181t165.5 111.5t200.5 39.5q204 0 348 -135l101 111h43q31 0 36.5 -14t-12.5 -33l-115 -123q119 -154 119 -377q0 -130 -41.5 -239t-112.5 -181t-165.5 -112t-200.5 -40q-205 0 -348 134l-100 -109 h-43q-31 0 -37 14zM213 559q0 -190 90 -321l627 680q-121 118 -299 118q-81 0 -155 -30.5t-133.5 -88.5t-94.5 -150.5t-35 -207.5zM354 174q123 -117 301 -117q81 0 155.5 31t133.5 88.5t94 150.5t35 208q0 187 -90 321zM492 1245l274 258q15 15 25 15q11 0 24 -13 q15 -15 25 -41l-283 -247q-14 -11 -20 -11q-8 0 -17 9z" />
<glyph unicode="&#x218;" horiz-adv-x="1212" d="M147 1085q0 165 124 269t317 104q162 0 285.5 -69t183.5 -177q16 -30 -13 -49q-27 -17 -61 -20q-57 114 -158 173.5t-237 59.5q-156 0 -253 -77t-97 -205q0 -120 85.5 -197t282.5 -137q246 -75 358.5 -168t112.5 -250q0 -168 -125.5 -267.5t-339.5 -99.5 q-157 0 -282 44.5t-125 89.5q0 26 14 43q176 -95 391 -95q185 0 281 77.5t96 201.5t-97.5 205t-307.5 139q-218 60 -326.5 158.5t-108.5 246.5zM547 -406q89 89 98 191q-24 3 -39.5 22t-15.5 48t17 47t44 18q28 0 47 -19.5t19 -54.5q0 -67 -24 -128.5t-62 -102.5 q-15 -17 -30.5 -28.5t-25 -15t-12.5 -1.5q-12 6 -16 24z" />
<glyph unicode="&#x219;" horiz-adv-x="1017" d="M147 827q0 129 98.5 210t256.5 81q125 0 221.5 -48.5t144.5 -129.5q18 -29 -12 -49q-21 -14 -57 -21q-39 80 -118.5 123t-180.5 43q-112 0 -187 -59.5t-75 -157.5q0 -91 71 -147.5t244 -100.5q181 -46 261.5 -119t80.5 -190q0 -135 -101 -211t-288 -76q-81 0 -159 20.5 t-121.5 46.5t-43.5 44q0 27 15 45q141 -74 305 -74q148 0 225.5 50.5t77.5 148.5q0 82 -65.5 139t-217.5 94q-193 46 -284 127.5t-91 210.5zM455 -406q89 89 98 191q-24 3 -39.5 22t-15.5 48t17 47t44 18q28 0 47 -19.5t19 -54.5q0 -67 -24 -128.5t-62 -102.5 q-15 -17 -30.5 -28.5t-25 -15t-12.5 -1.5q-12 6 -16 24z" />
<glyph unicode="&#x21a;" horiz-adv-x="1236" d="M98 1378q0 28 8 56h998q20 0 27.5 -9t7.5 -32v-41h-475v-1352h-50q-23 0 -32 7.5t-9 27.5v1317h-450q-25 0 -25 26zM512 -406q89 89 98 191q-24 3 -39.5 22t-15.5 48t17 47t44 18q28 0 47 -19.5t19 -54.5q0 -67 -24 -128.5t-62 -102.5q-15 -17 -30.5 -28.5t-25 -15 t-12.5 -1.5q-12 6 -16 24z" />
<glyph unicode="&#x21b;" horiz-adv-x="913" d="M74 1038q0 28 8 56h211v311q30 10 61 10q29 0 29 -24v-297h391q20 0 27.5 -9t7.5 -32v-41h-426v-690q0 -134 60 -199.5t165 -65.5q110 0 191 41q16 -19 16 -43q0 -25 -64.5 -52.5t-148.5 -27.5q-142 0 -225.5 90t-83.5 250v697h-195q-24 0 -24 26zM457 -406q89 89 98 191 q-24 3 -39.5 22t-15.5 48t17 47t44 18q28 0 47 -19.5t19 -54.5q0 -67 -24 -128.5t-62 -102.5q-15 -17 -30.5 -28.5t-25 -15t-12.5 -1.5q-12 6 -16 24z" />
<glyph unicode="&#x2c6;" horiz-adv-x="839" d="M133 1204q0 11 14 25l250 246h23q22 0 33 -11l268 -264l-37 -41q-8 -8 -14 -8q-11 0 -21 10l-229 228l-234 -234q-26 10 -41 25q-12 12 -12 24z" />
<glyph unicode="&#x2c7;" horiz-adv-x="839" d="M123 1421q10 27 24 41q13 13 25 13q10 0 25 -15l223 -223l244 242l41 -37q8 -8 8 -15q0 -9 -11 -20l-260 -256h-22q-23 0 -33 10z" />
<glyph unicode="&#x2d8;" horiz-adv-x="839" d="M139 1434q26 16 54 16q14 0 18.5 -6t9.5 -27q19 -86 70 -132t129 -46q81 0 136.5 53.5t68.5 157.5h39q23 0 30 -7.5t4 -25.5q-18 -112 -91 -180t-187 -68q-116 0 -190 70t-91 195z" />
<glyph unicode="&#x2d9;" horiz-adv-x="839" d="M356 1323q0 29 17.5 47.5t44.5 18.5t46 -19.5t19 -50.5q0 -29 -17.5 -47.5t-43.5 -18.5q-27 0 -46.5 19.5t-19.5 50.5z" />
<glyph unicode="&#x2da;" horiz-adv-x="839" d="M229 1321q0 77 56 129.5t135 52.5t134.5 -52.5t55.5 -129.5t-55.5 -129.5t-134.5 -52.5t-135 52.5t-56 129.5zM303 1327q0 -57 34 -90t89 -33q46 0 78.5 32t32.5 79q0 57 -34 90t-89 33q-46 0 -78.5 -32t-32.5 -79z" />
<glyph unicode="&#x2db;" horiz-adv-x="839" d="M242 -254q0 67 38 136t109 118h94q-164 -112 -164 -254q0 -52 39 -89.5t113 -37.5q51 0 88 12q22 7 30.5 2t8.5 -24v-33q-55 -27 -133 -27q-102 0 -162.5 52.5t-60.5 144.5z" />
<glyph unicode="&#x2dc;" horiz-adv-x="839" d="M131 1260q0 21 12 57q36 108 146 108q84 0 151 -75q61 -66 107 -66q38 0 57.5 27t26.5 106l53 -10q26 -6 21 -41q-25 -152 -156 -152q-84 0 -152 76q-61 66 -106 66q-38 0 -58 -28t-26 -105q-43 0 -62 8q-14 7 -14 29z" />
<glyph unicode="&#x2dd;" horiz-adv-x="839" d="M113 1204l274 258q15 15 25 15q11 0 24 -13q15 -15 25 -41l-283 -247q-14 -11 -20 -11q-8 0 -17 9zM379 1204l274 258q15 15 25 15q11 0 24 -13q15 -15 25 -41l-283 -247q-14 -11 -20 -11q-7 0 -16 9z" />
<glyph unicode="&#x3a9;" horiz-adv-x="1601" d="M147 741q0 163 49.5 299t136.5 227.5t207.5 142t260.5 50.5t260 -50.5t207 -142t136.5 -227.5t49.5 -299q0 -419 -358 -659h301q20 0 27.5 -9t7.5 -32v-41h-492v51q0 19 12 27q190 108 301 274.5t111 384.5q0 148 -44 270t-120 202.5t-179 124.5t-220 44t-220 -44 t-179 -124.5t-120 -202.5t-44 -270q0 -218 111 -385t300 -274q13 -9 13 -27v-51h-467q-25 0 -25 27t8 55h328q-359 240 -359 659z" />
<glyph unicode="&#x400;" horiz-adv-x="1161" d="M217 299v1135h784q25 0 25 -27t-8 -55h-711v-607h574q20 0 27 -8.5t7 -31.5v-41h-608v-351q0 -133 37 -182t129 -49h535q20 0 27 -8.5t7 -32.5v-41h-577q-126 0 -187 68t-61 231zM420 1820q10 27 24 41q13 13 25 13q9 0 24 -15l275 -258l-29 -30q-9 -9 -16 -9t-21 11z " />
<glyph unicode="&#x401;" horiz-adv-x="1161" d="M217 299v1135h784q25 0 25 -27t-8 -55h-711v-607h574q20 0 27 -8.5t7 -31.5v-41h-608v-351q0 -133 37 -182t129 -49h535q20 0 27 -8.5t7 -32.5v-41h-577q-126 0 -187 68t-61 231zM383 1720q0 29 17.5 47.5t44.5 18.5t46 -19.5t19 -50.5q0 -29 -17.5 -47.5t-43.5 -18.5 q-27 0 -46.5 19.5t-19.5 50.5zM715 1720q0 29 17.5 47.5t44.5 18.5t46 -19.5t19 -50.5q0 -29 -17.5 -47.5t-43.5 -18.5q-27 0 -46.5 19.5t-19.5 50.5z" />
<glyph unicode="&#x402;" horiz-adv-x="1579" d="M98 1378q0 28 8 56h998q20 0 27.5 -9t7.5 -32v-41h-475v-578q77 65 172.5 102t193.5 37q189 0 289 -118.5t100 -325.5v-455q0 -177 -82 -301q-31 -46 -66 -78.5t-59.5 -44t-35.5 -6.5q-24 12 -31 37q184 152 184 387v453q0 370 -309 370q-91 0 -184 -40t-172 -113v-678 h-50q-23 0 -32 7.5t-9 27.5v1317h-450q-25 0 -25 26z" />
<glyph unicode="&#x403;" horiz-adv-x="1126" d="M221 35v1399h785q20 0 27 -8.5t7 -32.5v-41h-729v-1352h-49q-23 0 -32 7.5t-9 27.5zM471 1602l274 258q14 14 25 14q13 0 25 -12q14 -14 24 -41l-282 -248q-13 -10 -21 -10t-16 8z" />
<glyph unicode="&#x404;" horiz-adv-x="1406" d="M135 764q0 131 34.5 244t95 194.5t140.5 140t171.5 87t187.5 28.5q188 0 328 -84t208 -219q16 -30 -12 -49q-26 -18 -61 -21q-64 140 -185.5 215.5t-277.5 75.5q-104 0 -200 -41t-172 -116t-121.5 -192t-45.5 -257v-16h748q20 0 27.5 -9t7.5 -32v-41h-779 q21 -188 117.5 -329.5t239.5 -213.5t309 -72q206 0 350 88q15 -18 15 -43q0 -39 -112.5 -83t-256.5 -44q-159 0 -298 57t-240 158t-159.5 250t-58.5 324z" />
<glyph unicode="&#x405;" horiz-adv-x="1212" d="M147 1085q0 165 124 269t317 104q162 0 285.5 -69t183.5 -177q16 -30 -13 -49q-27 -17 -61 -20q-57 114 -158 173.5t-237 59.5q-156 0 -253 -77t-97 -205q0 -120 85.5 -197t282.5 -137q246 -75 358.5 -168t112.5 -250q0 -168 -125.5 -267.5t-339.5 -99.5 q-157 0 -282 44.5t-125 89.5q0 26 14 43q176 -95 391 -95q185 0 281 77.5t96 201.5t-97.5 205t-307.5 139q-218 60 -326.5 158.5t-108.5 246.5z" />
<glyph unicode="&#x406;" horiz-adv-x="557" d="M233 35v1397q30 10 62 10q29 0 29 -25v-1417h-50q-23 0 -32 7.5t-9 27.5z" />
<glyph unicode="&#x407;" horiz-adv-x="557" d="M49 1720q0 29 17.5 47.5t44.5 18.5t46 -19.5t19 -50.5q0 -29 -17.5 -47.5t-43.5 -18.5q-27 0 -46.5 19.5t-19.5 50.5zM233 35v1397q30 10 62 10q29 0 29 -25v-1417h-50q-23 0 -32 7.5t-9 27.5zM381 1720q0 29 17.5 47.5t44.5 18.5t46 -19.5t19 -50.5q0 -29 -17.5 -47.5 t-43.5 -18.5q-27 0 -46.5 19.5t-19.5 50.5z" />
<glyph unicode="&#x408;" horiz-adv-x="817" d="M37 51q0 25 14 43q84 -37 207 -37q119 0 187.5 75.5t68.5 227.5v1072q30 10 61 10q29 0 29 -25v-1057q0 -183 -86.5 -284t-259.5 -101q-75 0 -148 24.5t-73 51.5z" />
<glyph unicode="&#x409;" horiz-adv-x="2287" d="M25 35q0 25 14 49q61 -27 129 -27q48 0 78.5 23t56.5 93.5t47 203.5q33 211 54.5 498t21.5 559h786q23 0 32 -7.5t9 -27.5v-518q160 69 383 69q244 0 392.5 -123t148.5 -342q0 -233 -156 -359t-428 -126h-182q-126 0 -187 68t-61 231v1053h-643q-7 -236 -27.5 -516.5 t-50.5 -470.5q-24 -158 -58 -242.5t-80.5 -116t-123.5 -31.5q-58 0 -106.5 20t-48.5 40zM1253 313q0 -133 37 -182t129 -49h152q239 0 377.5 100t138.5 299q0 188 -121.5 287.5t-341.5 99.5q-201 0 -371 -67v-488z" />
<glyph unicode="&#x40a;" horiz-adv-x="2252" d="M221 35v1397q30 10 62 10q28 0 28 -25v-657h817v674h50q23 0 32 -7.5t9 -27.5v-518q160 69 383 69q244 0 392 -123t148 -342q0 -233 -155.5 -359t-427.5 -126h-183q-126 0 -187 68t-61 231v379h-817v-678h-49q-23 0 -32 7.5t-9 27.5zM1219 313q0 -133 36.5 -182 t128.5 -49h152q239 0 377.5 100t138.5 299q0 188 -121.5 287.5t-341.5 99.5q-200 0 -370 -67v-488z" />
<glyph unicode="&#x40b;" horiz-adv-x="1593" d="M98 1378q0 28 8 56h998q20 0 27.5 -9t7.5 -32v-41h-475v-578q77 65 172.5 102t193.5 37q189 0 289 -118.5t100 -325.5v-303q0 -57 19 -81t57 -24h37q6 -15 6 -34q0 -16 -23 -29.5t-57 -13.5q-58 0 -93.5 44.5t-35.5 137.5v295q0 370 -309 370q-91 0 -184 -40t-172 -113 v-678h-50q-23 0 -32 7.5t-9 27.5v1317h-450q-25 0 -25 26z" />
<glyph unicode="&#x40c;" horiz-adv-x="1343" d="M221 35v1397q30 10 62 10q28 0 28 -25v-782q225 143 443 353t381 454q69 -14 69 -47q0 -17 -12 -35q-192 -290 -500 -549q114 -212 232 -388t215 -282q43 -48 73.5 -66t63.5 -18h24q7 -18 7 -32q0 -19 -23 -34.5t-53 -15.5q-42 0 -76.5 21t-79.5 72q-221 250 -446 690 q-169 -133 -318 -226v-532h-49q-23 0 -32 7.5t-9 27.5zM527 1601l274 258q15 15 25 15q11 0 24 -13q15 -15 25 -41l-283 -247q-14 -11 -20 -11q-8 0 -17 9z" />
<glyph unicode="&#x40d;" horiz-adv-x="1470" d="M221 25q45 -33 80 -33q23 0 37 22l821 1289v-1268q0 -20 9 -27.5t32 -7.5h49v1409q-45 33 -80 33q-19 0 -36 -23l-822 -1288v1286q0 25 -28 25q-32 0 -62 -10v-1407zM537 1821q10 27 24 41q12 12 25 12q10 0 24 -14l275 -258l-29 -31q-8 -8 -16 -8t-21 10z" />
<glyph unicode="&#x40e;" horiz-adv-x="1300" d="M127 1395q40 43 68 43q18 0 34 -25l453 -887q269 440 434 908h51q49 0 35 -37q-130 -352 -327.5 -710.5t-440.5 -686.5h-51q-24 0 -35 10t0 27q149 196 277 397zM393 1833q26 16 53 16q14 0 19 -6t10 -26q19 -86 70 -132.5t129 -46.5q81 0 136.5 53.5t68.5 157.5h39 q23 0 30 -7t4 -25q-18 -112 -91 -180t-187 -68q-117 0 -190.5 69.5t-90.5 194.5z" />
<glyph unicode="&#x40f;" horiz-adv-x="1476" d="M217 299v1133q30 10 62 10q28 0 28 -25v-1104q0 -133 37 -182t129 -49h692v1352h49q23 0 32 -7.5t9 -27.5v-1399h-462v-301h-50q-23 0 -32 7.5t-9 27.5v266h-237q-126 0 -187 68t-61 231z" />
<glyph unicode="&#x410;" horiz-adv-x="1347" d="M66 35l552 1390q39 17 78 17q25 0 37 -27l563 -1415h-59q-33 0 -45 31l-150 381h-737l-162 -412h-49q-43 0 -28 35zM336 494h674l-336 858z" />
<glyph unicode="&#x411;" horiz-adv-x="1353" d="M217 299v1135h793q20 0 27 -8.5t7 -32.5v-41h-737v-471q160 69 383 69q244 0 392.5 -123t148.5 -342q0 -233 -156 -359t-428 -126h-182q-126 0 -187 68t-61 231zM307 313q0 -133 37 -182t129 -49h152q239 0 377.5 100t138.5 299q0 188 -121.5 287.5t-341.5 99.5 q-201 0 -371 -67v-488z" />
<glyph unicode="&#x412;" horiz-adv-x="1323" d="M217 299v1135h475q216 0 338.5 -107.5t122.5 -265.5q0 -247 -238 -328q135 -33 210 -121.5t75 -224.5q0 -169 -125 -278t-360 -109h-250q-126 0 -187 68t-61 231zM307 313q0 -133 37 -182t129 -49h246q188 0 289.5 81.5t101.5 221.5q0 303 -405 303h-398v-375zM307 770 h381q187 0 281 76t94 215q0 129 -102 210t-273 81h-381v-582z" />
<glyph unicode="&#x413;" horiz-adv-x="1126" d="M221 35v1399h785q20 0 27 -8.5t7 -32.5v-41h-729v-1352h-49q-23 0 -32 7.5t-9 27.5z" />
<glyph unicode="&#x414;" horiz-adv-x="1292" d="M74 82h96q79 308 127.5 667t48.5 685h692q23 0 32 -7.5t9 -27.5v-1317h74q23 0 32 -7.5t9 -27.5v-348h-49q-23 0 -32 7.5t-9 27.5v266h-940v-301h-49q-23 0 -32 7.5t-9 27.5v348zM268 82h721v1270h-549q-6 -265 -54.5 -624.5t-117.5 -645.5z" />
<glyph unicode="&#x415;" horiz-adv-x="1161" d="M217 299v1135h784q25 0 25 -27t-8 -55h-711v-607h574q20 0 27 -8.5t7 -31.5v-41h-608v-351q0 -133 37 -182t129 -49h535q20 0 27 -8.5t7 -32.5v-41h-577q-126 0 -187 68t-61 231z" />
<glyph unicode="&#x416;" horiz-adv-x="1982" d="M49 25q0 17 6 32h27q34 0 64 17.5t71 66.5q96 112 202.5 293.5t203.5 413.5q-284 249 -459 512q-12 18 -12 35q0 34 65 47q140 -216 332 -406.5t397 -330.5v727q30 10 62 10q28 0 28 -25v-712q203 139 395 329.5t334 407.5q66 -13 66 -47q0 -17 -12 -35 q-177 -262 -459 -512q96 -233 202.5 -414.5t202.5 -292.5q41 -49 71.5 -66.5t64.5 -17.5h26q6 -15 6 -32q0 -18 -21.5 -34t-51.5 -16q-46 0 -80 20.5t-78 72.5q-222 262 -412 720q-106 -90 -254 -192v-596h-49q-23 0 -32 7.5t-9 27.5v561q-145 99 -256 192 q-187 -458 -409 -720q-44 -52 -78 -72.5t-80 -20.5q-30 0 -52 16t-22 34z" />
<glyph unicode="&#x417;" horiz-adv-x="1214" d="M143 1212q59 107 183 176.5t276 69.5q195 0 315.5 -101t120.5 -263q0 -138 -87.5 -229t-235.5 -128q166 -31 265 -123.5t99 -248.5q0 -126 -69 -215.5t-181.5 -132t-257.5 -42.5q-105 0 -206.5 25.5t-158 57t-56.5 53.5q0 26 14 43q180 -97 401 -97q122 0 217 35t151 106 t56 169q0 153 -133 241t-377 88h-20q-25 0 -25 27t8 55h45q214 0 337.5 86t123.5 223q0 135 -95 212t-251 77q-130 0 -229 -60t-156 -173q-34 3 -61 20q-29 19 -13 49z" />
<glyph unicode="&#x418;" horiz-adv-x="1470" d="M221 25v1407q30 10 62 10q28 0 28 -25v-1286l822 1288q17 23 36 23q35 0 80 -33v-1409h-49q-23 0 -32 7.5t-9 27.5v1268l-821 -1289q-14 -22 -37 -22q-35 0 -80 33z" />
<glyph unicode="&#x419;" horiz-adv-x="1470" d="M221 25v1407q30 10 62 10q28 0 28 -25v-1286l822 1288q17 23 36 23q35 0 80 -33v-1409h-49q-23 0 -32 7.5t-9 27.5v1268l-821 -1289q-14 -22 -37 -22q-35 0 -80 33zM455 1833q26 16 53 16q14 0 19 -6t10 -26q19 -87 69.5 -133t128.5 -46q81 0 136.5 53.5t68.5 157.5h39 q23 0 30.5 -7t4.5 -25q-18 -112 -91.5 -180t-187.5 -68q-116 0 -189.5 69.5t-90.5 194.5z" />
<glyph unicode="&#x41a;" horiz-adv-x="1343" d="M221 35v1397q30 10 62 10q28 0 28 -25v-782q225 143 443 353t381 454q69 -14 69 -47q0 -17 -12 -35q-192 -290 -500 -549q114 -212 232 -388t215 -282q43 -48 73.5 -66t63.5 -18h24q7 -18 7 -32q0 -19 -23 -34.5t-53 -15.5q-42 0 -76.5 21t-79.5 72q-221 250 -446 690 q-169 -133 -318 -226v-532h-49q-23 0 -32 7.5t-9 27.5z" />
<glyph unicode="&#x41b;" horiz-adv-x="1515" d="M25 35q0 25 14 49q61 -27 129 -27q48 0 78.5 23t56.5 93.5t47 203.5q33 211 54.5 498t21.5 559h827q23 0 32 -7.5t9 -27.5v-1399h-49q-23 0 -32 7.5t-9 27.5v1317h-684q-7 -236 -27.5 -516.5t-50.5 -470.5q-24 -158 -58 -242.5t-80.5 -116t-123.5 -31.5q-58 0 -106.5 20 t-48.5 40z" />
<glyph unicode="&#x41c;" horiz-adv-x="1837" d="M162 35l151 1376q45 33 80 33q23 0 37 -25l488 -862l493 877h68q23 0 32.5 -7.5t10.5 -27.5l155 -1399h-59q-23 0 -31 7t-10 28l-135 1274l-469 -834q-11 -20 -43 -20h-58l-479 854l-139 -1309h-51q-24 0 -33 7.5t-8 27.5z" />
<glyph unicode="&#x41d;" horiz-adv-x="1478" d="M221 35v1397q30 10 62 10q28 0 28 -25v-657h856v674h50q23 0 31.5 -7.5t8.5 -27.5v-1399h-49q-23 0 -32 7.5t-9 27.5v643h-856v-678h-49q-23 0 -32 7.5t-9 27.5z" />
<glyph unicode="&#x41e;" horiz-adv-x="1576" d="M135 717q0 144 34 265.5t94.5 208.5t142.5 147.5t178.5 90t203.5 29.5q134 0 251 -47.5t207.5 -137.5t143 -233.5t52.5 -322.5t-52.5 -322.5t-143 -234t-207.5 -138t-251 -47.5q-106 0 -203 29.5t-179 90.5t-142.5 148t-94.5 208.5t-34 265.5zM229 733q0 -169 46 -301 t126 -212.5t182.5 -121.5t221.5 -41q86 0 165 24.5t148 76.5t120 127t80.5 181.5t29.5 233.5q0 136 -30 248.5t-82.5 191t-125.5 132t-158 79t-180 25.5q-109 0 -205.5 -40t-172.5 -117t-120.5 -202.5t-44.5 -283.5z" />
<glyph unicode="&#x41f;" horiz-adv-x="1480" d="M221 35v1399h998q23 0 32 -7.5t9 -27.5v-1399h-50q-23 0 -32 7.5t-9 27.5v1317h-858v-1352h-49q-23 0 -32 7.5t-9 27.5z" />
<glyph unicode="&#x420;" horiz-adv-x="1288" d="M221 35v1399h402q249 0 402 -137t153 -379q0 -125 -43.5 -224.5t-118.5 -162.5t-173 -96.5t-210 -33.5q-174 0 -322 50v-451h-49q-23 0 -32 7.5t-9 27.5zM311 524q130 -41 322 -41q204 0 329 116t125 319q0 140 -61 239.5t-164 147t-237 47.5h-314v-828z" />
<glyph unicode="&#x421;" horiz-adv-x="1406" d="M135 764q0 131 34.5 244t95 194.5t140.5 140t171.5 87t187.5 28.5q188 0 328 -84t208 -219q16 -30 -12 -49q-26 -18 -61 -21q-64 140 -185.5 215.5t-277.5 75.5q-104 0 -200 -41t-172 -116t-121.5 -192t-45.5 -257q0 -162 54.5 -298t147 -226t213.5 -139.5t255 -49.5 q206 0 350 88q15 -18 15 -43q0 -39 -112.5 -83t-256.5 -44q-159 0 -298 57t-240 158t-159.5 250t-58.5 324z" />
<glyph unicode="&#x422;" horiz-adv-x="1236" d="M98 1378q0 28 8 56h998q20 0 27.5 -9t7.5 -32v-41h-475v-1352h-50q-23 0 -32 7.5t-9 27.5v1317h-450q-25 0 -25 26z" />
<glyph unicode="&#x423;" horiz-adv-x="1300" d="M127 1395q40 43 68 43q18 0 34 -25l453 -887q269 440 434 908h51q49 0 35 -37q-130 -352 -327.5 -710.5t-440.5 -686.5h-51q-24 0 -35 10t0 27q149 196 277 397z" />
<glyph unicode="&#x424;" horiz-adv-x="1540" d="M119 723q0 102 33 189.5t90.5 152t134.5 111.5t165.5 72t182.5 30v154q30 10 61 10q29 0 29 -25v-139q94 -5 182 -30t165.5 -72t135 -111t90.5 -152t33 -190t-33 -190t-90.5 -152.5t-134.5 -111.5t-165.5 -72.5t-182.5 -30.5v-166h-49q-23 0 -32 7.5t-9 27.5v131 q-95 5 -182.5 30.5t-165 73t-135 111.5t-90.5 152t-33 190zM209 741q0 -220 143 -348.5t373 -142.5v948q-143 -6 -258.5 -60t-186.5 -157.5t-71 -239.5zM815 248q105 4 198 36.5t164 89t112.5 142.5t41.5 189q0 111 -39 201.5t-109 151t-163.5 95.5t-204.5 43v-948z" />
<glyph unicode="&#x425;" horiz-adv-x="1380" d="M121 35q180 413 512 708l-490 641q26 54 58 54q14 0 30 -19l474 -620q306 276 460 635h54q43 0 28 -35q-154 -356 -491 -668l524 -686q-26 -53 -57 -53q-16 0 -31 18l-508 664q-306 -267 -481 -674h-53q-44 0 -29 35z" />
<glyph unicode="&#x426;" horiz-adv-x="1468" d="M217 299v1133q30 10 62 10q28 0 28 -25v-1104q0 -133 37 -182t129 -49h692v1352h49q23 0 32 -7.5t9 -27.5v-1317h74q23 0 32 -7.5t9 -27.5v-348h-49q-23 0 -32 7.5t-9 27.5v266h-815q-126 0 -187 68t-61 231z" />
<glyph unicode="&#x427;" horiz-adv-x="1392" d="M193 889v543q30 10 61 10q29 0 29 -25v-518q0 -203 110.5 -309.5t302.5 -106.5q223 0 385 86v865h49q23 0 32 -7.5t9 -27.5v-1399h-49q-23 0 -32 7.5t-9 27.5v463q-160 -97 -391 -97q-227 0 -362 130t-135 358z" />
<glyph unicode="&#x428;" horiz-adv-x="1875" d="M217 299v1133q30 10 62 10q28 0 28 -25v-1104q0 -133 37 -182t129 -49h418v1352h49q23 0 32 -7.5t9 -27.5v-1317h584v1352h49q23 0 32 -7.5t9 -27.5v-1399h-1190q-126 0 -187 68t-61 231z" />
<glyph unicode="&#x429;" horiz-adv-x="1867" d="M217 299v1133q30 10 62 10q28 0 28 -25v-1104q0 -133 37 -182t129 -49h418v1352h49q23 0 32 -7.5t9 -27.5v-1317h584v1352h49q23 0 32 -7.5t9 -27.5v-1317h74q23 0 31.5 -7.5t8.5 -27.5v-348h-49q-23 0 -32 7.5t-9 27.5v266h-1214q-126 0 -187 68t-61 231z" />
<glyph unicode="&#x42a;" horiz-adv-x="1697" d="M98 1378q0 28 8 56h517q23 0 32 -7.5t9 -27.5v-518q160 69 383 69q244 0 392 -123t148 -342q0 -233 -155.5 -359t-427.5 -126h-183q-126 0 -187 68t-61 231v1053h-450q-25 0 -25 26zM664 313q0 -133 36.5 -182t128.5 -49h152q239 0 377.5 100t138.5 299 q0 188 -121.5 287.5t-341.5 99.5q-200 0 -370 -67v-488z" />
<glyph unicode="&#x42b;" horiz-adv-x="1777" d="M217 299v1133q30 10 62 10q28 0 28 -25v-536q160 69 383 69q244 0 392.5 -123t148.5 -342q0 -233 -156 -359t-428 -126h-182q-126 0 -187 68t-61 231zM307 313q0 -133 37 -182t129 -49h152q239 0 377.5 100t138.5 299q0 188 -121.5 287.5t-341.5 99.5q-201 0 -371 -67 v-488zM1466 35v1397q30 10 62 10q28 0 28 -25v-1417h-49q-23 0 -32 7.5t-9 27.5z" />
<glyph unicode="&#x42c;" horiz-adv-x="1341" d="M217 299v1133q30 10 62 10q28 0 28 -25v-536q160 69 383 69q244 0 392.5 -123t148.5 -342q0 -233 -156 -359t-428 -126h-182q-126 0 -187 68t-61 231zM307 313q0 -133 37 -182t129 -49h152q239 0 377.5 100t138.5 299q0 188 -121.5 287.5t-341.5 99.5q-201 0 -371 -67 v-488z" />
<glyph unicode="&#x42d;" horiz-adv-x="1431" d="M131 1155q68 135 208.5 219t328.5 84q96 0 187.5 -28.5t171.5 -87t140 -140t94.5 -194.5t34.5 -244q0 -175 -58 -323.5t-159.5 -250t-240 -158.5t-297.5 -57q-144 0 -256.5 44t-112.5 83q0 26 14 43q144 -88 351 -88q166 0 308.5 72t238.5 213.5t116 329.5h-751 q-25 0 -25 26q0 28 8 56h772q0 2 1 7.5t1 8.5q0 140 -45.5 257t-121 192t-171.5 116t-200 41q-156 0 -277.5 -75.5t-185.5 -215.5q-36 4 -62 21q-28 19 -12 49z" />
<glyph unicode="&#x42e;" horiz-adv-x="2015" d="M221 35v1397q30 10 62 10q28 0 28 -25v-663h262q5 170 59.5 306t144 222t204.5 131t246 45q107 0 203.5 -29.5t178.5 -90t142.5 -147.5t94.5 -208.5t34 -265.5t-34 -265.5t-94.5 -208.5t-142.5 -148t-179 -90.5t-203 -29.5q-130 0 -244.5 44.5t-204 129.5t-144 219.5 t-61.5 303.5h-262v-672h-49q-23 0 -32 7.5t-9 27.5zM668 733q0 -136 30 -248.5t82.5 -191t125.5 -132t157.5 -79t179.5 -25.5q86 0 165 24.5t148 76.5t120 127t80.5 181.5t29.5 233.5q0 136 -30 248.5t-82.5 191t-125.5 132t-158 79t-180 25.5q-87 0 -166 -24.5t-148 -76.5 t-119.5 -127t-79.5 -181.5t-29 -233.5z" />
<glyph unicode="&#x42f;" horiz-adv-x="1339" d="M111 25q0 17 6 32h20q36 0 65 13.5t77 58.5q134 127 264 334q-168 42 -268.5 163.5t-100.5 311.5q0 233 152.5 364.5t402.5 131.5h348q23 0 32 -7.5t9 -27.5v-1399h-49q-23 0 -32 7.5t-9 27.5v457q-148 -50 -309 -50q-41 0 -92 7q-138 -236 -275 -373q-55 -55 -95 -78 t-79 -23q-29 0 -48 14.5t-19 35.5zM264 938q0 -195 125.5 -304.5t329.5 -109.5q179 0 309 41v787h-301q-100 0 -184 -26t-146.5 -76t-97.5 -130t-35 -182z" />
<glyph unicode="&#x430;" horiz-adv-x="1214" d="M123 324q0 164 114.5 257t307.5 93q191 0 366 -82v133q0 156 -97.5 233.5t-260.5 77.5q-199 0 -324 -73q-14 18 -14 43q0 16 27.5 35t73 36.5t113 29t138.5 11.5q198 0 316 -103.5t118 -297.5v-535q0 -64 19 -91.5t59 -27.5h35q6 -15 6 -34q0 -16 -23 -29.5t-57 -13.5 q-58 0 -93.5 49.5t-35.5 150.5v15q-59 -98 -167.5 -162t-241.5 -64q-173 0 -276 97t-103 252zM213 324q0 -123 83.5 -195t203.5 -72q124 0 230 63t181 193v199q-76 38 -173.5 59t-192.5 21q-154 0 -243 -73.5t-89 -194.5z" />
<glyph unicode="&#x431;" horiz-adv-x="1288" d="M160 616q0 168 18 290.5t52 207.5t92 142.5t128 90.5t171 56l219 49q160 37 221 68q13 -13 16 -29q3 -18 -15 -35t-68 -37t-132 -39l-233 -53q-93 -22 -155 -54.5t-109.5 -90t-73 -144.5t-35.5 -215q87 99 205 156t258 57q200 0 328.5 -138.5t128.5 -350.5 q0 -158 -61 -288t-175 -207t-260 -77q-242 0 -381 171t-139 470zM250 625q0 -273 117 -420.5t313 -147.5q174 0 289.5 136.5t115.5 341.5q0 197 -109 308t-276 111q-260 0 -450 -243v-86z" />
<glyph unicode="&#x432;" horiz-adv-x="1124" d="M193 299v795h401q181 0 275 -81t94 -202q0 -85 -43.5 -149.5t-126.5 -94.5q105 -32 163 -94t58 -168q0 -62 -25 -115.5t-73.5 -96.5t-128.5 -68t-183 -25h-164q-126 0 -186.5 68t-60.5 231zM283 313q0 -133 37 -182t129 -49h161q153 0 233.5 59.5t80.5 161.5t-84 159.5 t-252 57.5h-305v-207zM283 602h303q149 0 217.5 55.5t68.5 149.5t-68.5 149.5t-217.5 55.5h-303v-410z" />
<glyph unicode="&#x433;" horiz-adv-x="962" d="M197 35v1059h657q20 0 27.5 -9t7.5 -32v-41h-602v-1012h-49q-23 0 -32 7.5t-9 27.5z" />
<glyph unicode="&#x434;" horiz-adv-x="1140" d="M61 82h86q146 504 146 1012h610q23 0 32 -7.5t9 -27.5v-977h66q23 0 32 -7.5t9 -27.5v-289h-50q-23 0 -31.5 7.5t-8.5 27.5v207h-809v-242h-50q-23 0 -32 7.5t-9 27.5v289zM246 82h608v930h-469q-6 -205 -42 -453.5t-97 -476.5z" />
<glyph unicode="&#x435;" d="M123 557q0 125 42.5 231.5t113.5 178t163.5 111.5t192.5 40q188 0 307 -113.5t119 -293.5q0 -69 -23 -136q-14 -41 -35.5 -54t-64.5 -13h-723q10 -138 75.5 -242.5t162.5 -156.5t209 -52q162 0 280 68q14 -17 14 -43q0 -14 -23 -32.5t-61 -35t-97 -28t-122 -11.5 q-111 0 -208.5 42.5t-168.5 117.5t-112 184.5t-41 237.5zM213 590h735q23 51 23 121q0 146 -94.5 235.5t-245.5 89.5q-78 0 -151 -32t-130.5 -88.5t-94.5 -141.5t-42 -184z" />
<glyph unicode="&#x436;" horiz-adv-x="1617" d="M61 27q0 17 7 34h38q30 0 57.5 16.5t61.5 63.5q140 195 250 537q-183 155 -328 348q-10 13 -10 27q0 33 62 51q218 -312 565 -549v537q30 10 61 10q29 0 29 -25v-522q347 237 565 549q62 -18 62 -51q0 -12 -11 -27q-141 -188 -327 -348q112 -349 250 -537 q34 -47 61 -63.5t57 -16.5h39q6 -15 6 -34q0 -15 -23 -29t-48 -14q-46 0 -84.5 20.5t-83.5 85.5q-131 190 -244 533q-105 -85 -219 -162v-461h-49q-23 0 -32 7.5t-9 27.5v426q-112 73 -221 162q-112 -341 -242 -533q-45 -65 -83.5 -85.5t-84.5 -20.5q-25 0 -48.5 14 t-23.5 29z" />
<glyph unicode="&#x437;" horiz-adv-x="1046" d="M156 940q48 81 144.5 129.5t221.5 48.5q159 0 259 -83t100 -216q0 -95 -54.5 -164t-148.5 -102q110 -31 171.5 -102t61.5 -175q0 -133 -105 -217t-298 -84q-88 0 -171.5 23t-128 50t-44.5 46q0 28 14 45q151 -82 326 -82q153 0 235 60.5t82 156.5q0 108 -89 171t-257 63 h-22q-25 0 -25 27t8 55h25q165 0 247.5 63t82.5 168q0 100 -76.5 157.5t-190.5 57.5q-101 0 -180.5 -43t-118.5 -123q-36 7 -57 21q-30 20 -12 49z" />
<glyph unicode="&#x438;" horiz-adv-x="1280" d="M197 25v1073q30 10 61 10q29 0 29 -25v-962l680 964q17 23 39 23q32 0 77 -33v-1075h-49q-23 0 -32 7.5t-9 27.5v944l-680 -965q-17 -22 -39 -22q-32 0 -77 33z" />
<glyph unicode="&#x439;" horiz-adv-x="1280" d="M197 25v1073q30 10 61 10q29 0 29 -25v-962l680 964q17 23 39 23q32 0 77 -33v-1075h-49q-23 0 -32 7.5t-9 27.5v944l-680 -965q-17 -22 -39 -22q-32 0 -77 33zM358 1475q26 16 54 16q14 0 18.5 -6t9.5 -27q19 -86 70 -132t129 -46q81 0 136.5 53.5t68.5 157.5h39 q23 0 30.5 -7.5t4.5 -25.5q-18 -112 -91.5 -180t-187.5 -68q-116 0 -190 70t-91 195z" />
<glyph unicode="&#x43a;" d="M197 35v1057q30 10 61 10q29 0 29 -25v-571q418 253 676 598q61 -18 61 -51q0 -14 -10 -27q-176 -218 -430 -414q87 -143 185.5 -270.5t174.5 -200.5q45 -45 70 -61.5t51 -16.5h39q6 -15 6 -34q0 -15 -23.5 -29t-48.5 -14q-41 0 -78.5 21.5t-93.5 82.5q-181 192 -350 473 q-121 -87 -229 -149v-414h-49q-23 0 -32 7.5t-9 27.5z" />
<glyph unicode="&#x43b;" horiz-adv-x="1318" d="M25 35q0 25 14 49q61 -27 113 -27q43 0 69 22.5t48.5 93t39.5 204.5q41 330 41 717h737q20 0 27.5 -9t7.5 -32v-1053h-49q-23 0 -32 7.5t-9 27.5v977h-590q0 -301 -39 -645q-17 -157 -49 -243.5t-77 -117.5t-117 -31q-49 0 -92 20t-43 40z" />
<glyph unicode="&#x43c;" horiz-adv-x="1550" d="M145 35l152 1036q45 33 80 33q23 0 37 -25l360 -635l367 650h67q23 0 31.5 -7t11.5 -28l156 -1059h-57q-23 0 -30.5 7t-10.5 28l-135 938l-345 -606q-12 -21 -43 -21h-57l-354 627l-139 -973h-50q-24 0 -34 7.5t-7 27.5z" />
<glyph unicode="&#x43d;" horiz-adv-x="1251" d="M197 35v1057q30 10 61 10q29 0 29 -25v-471h678v488h49q23 0 32 -7.5t9 -27.5v-1059h-49q-23 0 -32 7.5t-9 27.5v489h-678v-524h-49q-23 0 -32 7.5t-9 27.5z" />
<glyph unicode="&#x43e;" horiz-adv-x="1286" d="M123 547q0 130 41.5 239t112.5 181t165.5 111.5t200.5 39.5t200.5 -39.5t165.5 -111.5t112.5 -181t41.5 -239t-41.5 -239t-112.5 -181t-165.5 -112t-200.5 -40t-200.5 40t-165.5 112t-112.5 181t-41.5 239zM213 559q0 -121 36.5 -218.5t98.5 -158.5t140.5 -93t166.5 -32 q81 0 155.5 31t133.5 88.5t94 150.5t35 208q0 121 -36.5 218.5t-98.5 158t-140.5 92.5t-166.5 32q-81 0 -155 -30.5t-133.5 -88.5t-94.5 -150.5t-35 -207.5z" />
<glyph unicode="&#x43f;" horiz-adv-x="1251" d="M197 35v1059h817q23 0 32 -7.5t9 -27.5v-1059h-49q-23 0 -32 7.5t-9 27.5v977h-678v-1012h-49q-23 0 -32 7.5t-9 27.5z" />
<glyph unicode="&#x440;" horiz-adv-x="1300" d="M197 -401v1493q30 10 61 10q29 0 29 -25v-233q62 123 175.5 198.5t254.5 75.5q204 0 332.5 -141t128.5 -385q0 -125 -39.5 -237.5t-109 -196.5t-171 -133.5t-219.5 -49.5q-102 0 -193 36.5t-159 101.5v-549h-49q-23 0 -32 7.5t-9 27.5zM287 211q151 -154 350 -154 q192 0 321 155t129 382q0 209 -106 325.5t-274 116.5q-128 0 -240 -85t-180 -249v-491z" />
<glyph unicode="&#x441;" horiz-adv-x="1124" d="M123 584q0 123 41 225t111 168.5t162.5 103.5t195.5 37q137 0 243 -65t154 -160q16 -30 -12 -49q-26 -17 -62 -21q-42 99 -123.5 156t-199.5 57q-87 0 -164 -31.5t-133.5 -88.5t-89.5 -143t-33 -189q0 -127 46 -230t120 -166t162.5 -97t179.5 -34q156 0 270 66 q15 -18 15 -43q0 -20 -39.5 -44t-111.5 -42.5t-150 -18.5q-111 0 -214.5 41.5t-186 116.5t-132 192.5t-49.5 258.5z" />
<glyph unicode="&#x442;" horiz-adv-x="1056" d="M78 1038q0 28 8 56h858q20 0 27.5 -9t7.5 -32v-41h-406v-1012h-49q-23 0 -32 7.5t-9 27.5v977h-381q-24 0 -24 26z" />
<glyph unicode="&#x443;" horiz-adv-x="1282" d="M193 420v672q30 10 61 10q29 0 29 -25v-649q0 -371 305 -371q105 0 212 43t195 127v875h49q23 0 32 -7.5t9 -27.5v-1036q0 -157 -60.5 -277.5t-183.5 -191t-294 -70.5q-150 0 -245 72.5t-95 195.5q0 160 168 263q-182 101 -182 397zM297 -240q0 -81 70 -133.5t178 -52.5 q226 0 338 120t112 324v119q-89 -75 -197.5 -118.5t-219.5 -43.5q-54 0 -123 15q-158 -96 -158 -230z" />
<glyph unicode="&#x444;" horiz-adv-x="1552" d="M119 547q0 127 46.5 232.5t128.5 176.5t191.5 112t237.5 48v383q30 10 61 10q29 0 29 -24v-367q130 -5 242.5 -46t197 -111.5t133 -177.5t48.5 -236t-48.5 -236t-133 -178t-197 -112t-242.5 -46v-370h-49q-23 0 -32 7.5t-9 27.5v337q-127 7 -237 48.5t-192 112.5 t-128.5 176.5t-46.5 232.5zM209 565q0 -153 69 -265t183 -170.5t262 -70.5v975q-105 -5 -196 -36t-163 -87.5t-113.5 -145t-41.5 -200.5zM813 57q108 2 202 32.5t168 87t117 147t43 204.5q0 118 -41 212.5t-113.5 156t-168 96.5t-207.5 41v-977z" />
<glyph unicode="&#x445;" horiz-adv-x="1140" d="M102 35q115 273 398 512l-381 497q26 54 57 54q15 0 31 -19l358 -471q243 209 361 486h53q44 0 29 -35q-119 -281 -392 -518l328 -426q41 -52 90 -52h27q6 -15 6 -34q0 -14 -23 -28.5t-51 -14.5q-63 0 -131 88l-313 405q-254 -215 -365 -479h-53q-44 0 -29 35z" />
<glyph unicode="&#x446;" horiz-adv-x="1257" d="M193 299v793q30 10 61 10q29 0 29 -25v-764q0 -133 37 -182t129 -49h522v1012h49q23 0 32 -7.5t9 -27.5v-977h65q23 0 32 -7.5t9 -27.5v-289h-49q-23 0 -32 7.5t-9 27.5v207h-637q-126 0 -186.5 68t-60.5 231z" />
<glyph unicode="&#x447;" horiz-adv-x="1249" d="M160 729v363q30 10 61 10q29 0 29 -25v-340q0 -185 75 -277.5t230 -92.5q105 0 212.5 43t195.5 125v559h49q23 0 32 -7.5t9 -27.5v-1059h-49q-23 0 -32 7.5t-9 27.5v409q-89 -74 -198 -116.5t-220 -42.5q-191 0 -288 117.5t-97 326.5z" />
<glyph unicode="&#x448;" horiz-adv-x="1646" d="M193 299v793q30 10 61 10q29 0 29 -25v-764q0 -133 37 -182t129 -49h327v1012h49q23 0 32 -7.5t9 -27.5v-977h494v1012h49q23 0 32 -7.5t9 -27.5v-1059h-1010q-126 0 -186.5 68t-60.5 231z" />
<glyph unicode="&#x449;" horiz-adv-x="1646" d="M193 299v793q30 10 61 10q29 0 29 -25v-764q0 -133 37 -182t129 -49h327v1012h49q23 0 32 -7.5t9 -27.5v-977h494v1012h49q23 0 32 -7.5t9 -27.5v-977h66q23 0 31.5 -7.5t8.5 -27.5v-289h-49q-23 0 -32 7.5t-9 27.5v207h-1026q-126 0 -186.5 68t-60.5 231z" />
<glyph unicode="&#x44a;" horiz-adv-x="1441" d="M78 1038q0 28 8 56h446q23 0 32 -7.5t9 -27.5v-352q133 51 312 51q214 0 333 -98t119 -269q0 -179 -124.5 -285t-381.5 -106h-100q-126 0 -187 68t-61 231v713h-381q-24 0 -24 26zM573 313q0 -133 37 -182t129 -49h111q195 0 296 82t101 227q0 135 -95 210t-280 75 q-167 0 -299 -49v-314z" />
<glyph unicode="&#x44b;" horiz-adv-x="1533" d="M193 299v793q30 10 61 10q29 0 29 -25v-370q133 51 311 51q214 0 333.5 -98t119.5 -269q0 -179 -124.5 -285t-381.5 -106h-101q-126 0 -186.5 68t-60.5 231zM283 313q0 -133 37 -182t129 -49h110q195 0 296 82t101 227q0 135 -94.5 210t-279.5 75q-167 0 -299 -49v-314z M1227 166v926q30 10 61 10q29 0 29 -25v-911q0 -57 19 -81t57 -24h37q6 -15 6 -34q0 -16 -23 -29.5t-57 -13.5q-58 0 -93.5 44.5t-35.5 137.5z" />
<glyph unicode="&#x44c;" horiz-adv-x="1148" d="M193 299v793q30 10 61 10q29 0 29 -25v-370q133 51 311 51q214 0 333.5 -98t119.5 -269q0 -179 -124.5 -285t-381.5 -106h-101q-126 0 -186.5 68t-60.5 231zM283 313q0 -133 37 -182t129 -49h110q195 0 296 82t101 227q0 135 -94.5 210t-279.5 75q-167 0 -299 -49v-314z " />
<glyph unicode="&#x44d;" horiz-adv-x="1161" d="M131 893q48 95 154 160t243 65q103 0 195.5 -37t162.5 -103.5t111 -168.5t41 -225q0 -141 -49.5 -258.5t-131.5 -192.5t-185.5 -116.5t-214.5 -41.5q-78 0 -150 18.5t-111.5 42.5t-39.5 44q0 26 14 43q114 -66 270 -66q83 0 165 28.5t153 82t121 141t63 195.5h-543 q-24 0 -24 26q0 28 8 56h565q-1 136 -58 239.5t-151.5 157t-210.5 53.5q-118 0 -199.5 -57t-123.5 -156q-36 4 -62 21q-28 19 -12 49z" />
<glyph unicode="&#x44e;" horiz-adv-x="1660" d="M197 35v1057q30 10 61 10q29 0 29 -25v-481h213q15 238 162 380t356 142q106 0 200.5 -39.5t165.5 -111.5t112.5 -181t41.5 -239t-41.5 -239t-112.5 -181t-165.5 -112t-200.5 -40q-103 0 -195 37t-162.5 105t-114 170.5t-48.5 226.5h-211v-514h-49q-23 0 -32 7.5t-9 27.5 zM588 559q0 -121 36.5 -218.5t98.5 -158.5t140.5 -93t166.5 -32q81 0 155.5 31t133.5 88.5t94 150.5t35 208q0 121 -36.5 218.5t-98.5 158t-140.5 92.5t-166.5 32q-81 0 -155 -30.5t-133.5 -88.5t-94.5 -150.5t-35 -207.5z" />
<glyph unicode="&#x44f;" horiz-adv-x="1181" d="M147 25q0 15 7 32h22q36 0 66 13.5t73 60.5q97 103 162 223q-137 35 -215 126t-78 233q0 181 127.5 281t345.5 100h287q23 0 32 -7.5t9 -27.5v-1059h-49q-23 0 -32 7.5t-9 27.5v332q-103 -33 -244 -33q-32 0 -90 4q-68 -137 -172 -256q-94 -107 -174 -107 q-29 0 -48.5 14.5t-19.5 35.5zM274 713q0 -149 100.5 -223t287.5 -74q132 0 233 28v568h-227q-394 0 -394 -299z" />
<glyph unicode="&#x450;" d="M123 557q0 125 42.5 231.5t113.5 178t163.5 111.5t192.5 40q188 0 307 -113.5t119 -293.5q0 -69 -23 -136q-14 -41 -35.5 -54t-64.5 -13h-723q10 -138 75.5 -242.5t162.5 -156.5t209 -52q162 0 280 68q14 -17 14 -43q0 -14 -23 -32.5t-61 -35t-97 -28t-122 -11.5 q-111 0 -208.5 42.5t-168.5 117.5t-112 184.5t-41 237.5zM213 590h735q23 51 23 121q0 146 -94.5 235.5t-245.5 89.5q-78 0 -151 -32t-130.5 -88.5t-94.5 -141.5t-42 -184zM424 1464q10 27 24 41q13 13 25 13q9 0 24 -15l275 -258l-29 -30q-9 -9 -16 -9t-21 11z" />
<glyph unicode="&#x451;" d="M123 557q0 125 42.5 231.5t113.5 178t163.5 111.5t192.5 40q188 0 307 -113.5t119 -293.5q0 -69 -23 -136q-14 -41 -35.5 -54t-64.5 -13h-723q10 -138 75.5 -242.5t162.5 -156.5t209 -52q162 0 280 68q14 -17 14 -43q0 -14 -23 -32.5t-61 -35t-97 -28t-122 -11.5 q-111 0 -208.5 42.5t-168.5 117.5t-112 184.5t-41 237.5zM213 590h735q23 51 23 121q0 146 -94.5 235.5t-245.5 89.5q-78 0 -151 -32t-130.5 -88.5t-94.5 -141.5t-42 -184zM389 1364q0 29 17.5 47.5t44.5 18.5t46 -19.5t19 -50.5q0 -29 -17.5 -47.5t-43.5 -18.5 q-27 0 -46.5 19.5t-19.5 50.5zM721 1364q0 29 17.5 47.5t43.5 18.5q27 0 46.5 -19.5t19.5 -50.5q0 -29 -17.5 -47.5t-44.5 -18.5t-46 19.5t-19 50.5z" />
<glyph unicode="&#x452;" horiz-adv-x="1282" d="M66 1290q0 27 8 47h123v156q30 10 61 10q29 0 29 -24v-142h391q20 0 27.5 -9t7.5 -32v-32h-426v-308q88 75 197.5 118.5t220.5 43.5q191 0 288 -117.5t97 -326.5v-721q0 -177 -82 -301q-31 -46 -66.5 -78.5t-60 -44t-35.5 -6.5q-24 12 -31 37q184 152 184 387v719 q0 185 -75 277.5t-230 92.5q-105 0 -212 -43t-195 -127v-866h-49q-23 0 -32 7.5t-9 27.5v1229h-107q-24 0 -24 26z" />
<glyph unicode="&#x453;" horiz-adv-x="966" d="M213 35v1059h657q20 0 27.5 -9t7.5 -32v-41h-602v-1012h-49q-23 0 -32 7.5t-9 27.5zM401 1245l275 258q15 15 24 15q12 0 25 -13q15 -15 25 -41l-283 -247q-14 -11 -21 -11q-8 0 -16 8z" />
<glyph unicode="&#x454;" horiz-adv-x="1124" d="M123 584q0 123 41 225t111 168.5t162.5 103.5t195.5 37q137 0 243 -65t154 -160q16 -30 -12 -49q-26 -17 -62 -21q-42 99 -123.5 156t-199.5 57q-180 0 -300 -123t-120 -327h539q20 0 27 -8.5t7 -32.5v-41h-569q11 -87 46.5 -161t85.5 -126t112 -88.5t128 -54t132 -17.5 q156 0 270 66q15 -18 15 -43q0 -20 -39.5 -44t-111.5 -42.5t-150 -18.5q-111 0 -214.5 41.5t-186 116.5t-132 192.5t-49.5 258.5z" />
<glyph unicode="&#x455;" horiz-adv-x="1017" d="M147 827q0 129 98.5 210t256.5 81q125 0 221.5 -48.5t144.5 -129.5q18 -29 -12 -49q-21 -14 -57 -21q-39 80 -118.5 123t-180.5 43q-112 0 -187 -59.5t-75 -157.5q0 -91 71 -147.5t244 -100.5q181 -46 261.5 -119t80.5 -190q0 -135 -101 -211t-288 -76q-81 0 -159 20.5 t-121.5 46.5t-43.5 44q0 27 15 45q141 -74 305 -74q148 0 225.5 50.5t77.5 148.5q0 82 -65.5 139t-217.5 94q-193 46 -284 127.5t-91 210.5z" />
<glyph unicode="&#x456;" horiz-adv-x="514" d="M178 1446q0 29 17.5 46t44.5 17t46 -19t19 -50q0 -29 -17 -46.5t-44 -17.5t-46.5 19.5t-19.5 50.5zM197 168v924q30 10 61 10q29 0 29 -25v-909q0 -57 18.5 -81t56.5 -24h37q7 -18 7 -34t-23 -29.5t-57 -13.5q-58 0 -93.5 44.5t-35.5 137.5z" />
<glyph unicode="&#x457;" horiz-adv-x="514" d="M12 1364q0 29 17.5 47.5t44.5 18.5t46 -19.5t19 -50.5q0 -29 -17.5 -47.5t-43.5 -18.5q-27 0 -46.5 19.5t-19.5 50.5zM197 168v924q30 10 61 10q29 0 29 -25v-909q0 -57 18.5 -81t56.5 -24h37q7 -18 7 -34t-23 -29.5t-57 -13.5q-58 0 -93.5 44.5t-35.5 137.5zM344 1364 q0 29 17.5 47.5t44.5 18.5t46 -19.5t19 -50.5q0 -29 -17.5 -47.5t-43.5 -18.5q-27 0 -46.5 19.5t-19.5 50.5z" />
<glyph unicode="&#x458;" horiz-adv-x="495" d="M23 -379q184 152 184 387v1084q30 10 61 10q29 0 29 -25v-1063q0 -177 -82 -301q-31 -46 -66.5 -78.5t-60 -44t-35.5 -6.5q-9 5 -18 16t-12 21zM188 1446q0 29 17.5 46t44.5 17t46 -19t19 -50q0 -29 -17 -46.5t-44 -17.5t-46.5 19.5t-19.5 50.5z" />
<glyph unicode="&#x459;" horiz-adv-x="1949" d="M25 35q0 25 14 49q61 -27 113 -27q43 0 69 22.5t48.5 93t39.5 204.5q41 330 41 717h697q20 0 27 -8.5t7 -32.5v-346q133 51 312 51q214 0 333 -98t119 -269q0 -179 -124.5 -285t-381.5 -106h-100q-126 0 -187 68t-61 231v713h-549q0 -301 -39 -645q-17 -157 -49 -243.5 t-77 -117.5t-117 -31q-49 0 -92 20t-43 40zM1081 313q0 -133 37 -182t129 -49h111q195 0 296 82t101 227q0 135 -95 210t-280 75q-167 0 -299 -49v-314z" />
<glyph unicode="&#x45a;" horiz-adv-x="1882" d="M197 35v1057q30 10 61 10q29 0 29 -25v-471h637v488h49q23 0 32 -7.5t9 -27.5v-352q133 51 311 51q214 0 333.5 -98t119.5 -269q0 -179 -124.5 -285t-381.5 -106h-101q-126 0 -186.5 68t-60.5 231v225h-637v-524h-49q-23 0 -32 7.5t-9 27.5zM1014 313q0 -133 37 -182 t129 -49h110q195 0 296.5 82.5t101.5 226.5q0 135 -95 210t-280 75q-167 0 -299 -49v-314z" />
<glyph unicode="&#x45b;" horiz-adv-x="1306" d="M66 1290q0 27 8 47h123v156q30 10 61 10q29 0 29 -24v-142h370q20 0 27.5 -9t7.5 -32v-32h-405v-308q88 75 197.5 118.5t220.5 43.5q191 0 288 -117.5t97 -326.5v-506q0 -57 18.5 -81t56.5 -24h37q6 -15 6 -34q0 -16 -23 -29.5t-57 -13.5q-58 0 -93.5 44.5t-35.5 137.5 v498q0 185 -75 277.5t-230 92.5q-105 0 -212 -43t-195 -127v-866h-49q-23 0 -32 7.5t-9 27.5v1229h-107q-24 0 -24 26z" />
<glyph unicode="&#x45c;" d="M197 35v1057q30 10 61 10q29 0 29 -25v-571q418 253 676 598q61 -18 61 -51q0 -14 -10 -27q-176 -218 -430 -414q87 -143 185.5 -270.5t174.5 -200.5q45 -45 70 -61.5t51 -16.5h39q6 -15 6 -34q0 -15 -23.5 -29t-48.5 -14q-41 0 -78.5 21.5t-93.5 82.5q-181 192 -350 473 q-121 -87 -229 -149v-414h-49q-23 0 -32 7.5t-9 27.5zM446 1245l275 258q15 15 24 15q12 0 25 -13q15 -15 25 -41l-283 -247q-14 -11 -20 -11q-9 0 -17 8z" />
<glyph unicode="&#x45d;" horiz-adv-x="1280" d="M197 25q45 -33 77 -33q22 0 39 22l680 965v-944q0 -20 9 -27.5t32 -7.5h49v1075q-45 33 -77 33q-22 0 -39 -23l-680 -964v962q0 25 -29 25q-31 0 -61 -10v-1073zM426 1464q10 26 25 41q13 13 24 13q10 0 25 -15l274 -258l-29 -31q-8 -8 -16 -8q-6 0 -20 11z" />
<glyph unicode="&#x45e;" horiz-adv-x="1282" d="M193 420v672q30 10 61 10q29 0 29 -25v-649q0 -371 305 -371q105 0 212 43t195 127v875h49q23 0 32 -7.5t9 -27.5v-1036q0 -157 -60.5 -277.5t-183.5 -191t-294 -70.5q-150 0 -245 72.5t-95 195.5q0 160 168 263q-182 101 -182 397zM297 -240q0 -81 70 -133.5t178 -52.5 q226 0 338 120t112 324v119q-89 -75 -197.5 -118.5t-219.5 -43.5q-54 0 -123 15q-158 -96 -158 -230zM360 1475q26 16 54 16q14 0 18.5 -6t9.5 -27q19 -86 70 -132t129 -46q81 0 136.5 53.5t68.5 157.5h39q23 0 30 -7.5t4 -25.5q-18 -112 -91 -180t-187 -68q-116 0 -190 70 t-91 195z" />
<glyph unicode="&#x45f;" horiz-adv-x="1257" d="M193 299v793q30 10 61 10q29 0 29 -25v-764q0 -133 37 -182t129 -49h522v1012h49q23 0 32 -7.5t9 -27.5v-1059h-375v-242h-49q-23 0 -32 7.5t-9 27.5v207h-156q-126 0 -186.5 68t-60.5 231z" />
<glyph unicode="&#x490;" horiz-adv-x="1126" d="M221 35v1399h729v264q30 10 62 10q28 0 28 -25v-331h-729v-1352h-49q-23 0 -32 7.5t-9 27.5z" />
<glyph unicode="&#x491;" horiz-adv-x="962" d="M197 35v1059h602v239q30 10 61 10q29 0 29 -24v-307h-602v-1012h-49q-23 0 -32 7.5t-9 27.5z" />
<glyph unicode="&#x1e80;" horiz-adv-x="2260" d="M111 1407q39 31 69 31q22 0 31 -29l412 -1298q272 552 442 1323h86q36 0 47 -33l389 -1288q311 608 455 1321h55q23 0 31 -8.5t4 -28.5q-79 -374 -194.5 -703t-288.5 -665q-15 -29 -47 -29h-78l-394 1317q-149 -687 -446 -1288q-13 -29 -47 -29h-78zM916 1820 q10 27 24 41q13 13 25 13q9 0 24 -15l275 -258l-29 -30q-9 -9 -16 -9t-21 11z" />
<glyph unicode="&#x1e81;" horiz-adv-x="1785" d="M106 1077q39 31 70 31q22 0 31 -29l317 -964q105 209 182 441.5t136 537.5h69q19 0 29 -7t16 -26l326 -944q218 435 307 977h47q23 0 30.5 -8t4.5 -29q-45 -276 -123 -520t-207 -506q-9 -18 -19 -24.5t-28 -6.5h-71l-318 954q-98 -468 -323 -925q-15 -29 -47 -29h-70z M676 1464q10 27 24 41q13 13 25 13q10 0 25 -15l274 -258l-29 -31q-8 -8 -16 -8q-7 0 -21 11z" />
<glyph unicode="&#x1e82;" horiz-adv-x="2260" d="M111 1407q39 31 69 31q22 0 31 -29l412 -1298q272 552 442 1323h86q36 0 47 -33l389 -1288q311 608 455 1321h55q23 0 31 -8.5t4 -28.5q-79 -374 -194.5 -703t-288.5 -665q-15 -29 -47 -29h-78l-394 1317q-149 -687 -446 -1288q-13 -29 -47 -29h-78zM953 1601l274 258 q15 15 25 15q11 0 24 -13q15 -15 25 -41l-283 -247q-14 -11 -20 -11q-8 0 -17 9z" />
<glyph unicode="&#x1e83;" horiz-adv-x="1785" d="M106 1077q39 31 70 31q22 0 31 -29l317 -964q105 209 182 441.5t136 537.5h69q19 0 29 -7t16 -26l326 -944q218 435 307 977h47q23 0 30.5 -8t4.5 -29q-45 -276 -123 -520t-207 -506q-9 -18 -19 -24.5t-28 -6.5h-71l-318 954q-98 -468 -323 -925q-15 -29 -47 -29h-70z M729 1245l275 258q15 15 24 15q12 0 25 -13q14 -14 24 -41l-282 -247q-14 -11 -21 -11q-8 0 -16 8z" />
<glyph unicode="&#x1e84;" horiz-adv-x="2260" d="M111 1407q39 31 69 31q22 0 31 -29l412 -1298q272 552 442 1323h86q36 0 47 -33l389 -1288q311 608 455 1321h55q23 0 31 -8.5t4 -28.5q-79 -374 -194.5 -703t-288.5 -665q-15 -29 -47 -29h-78l-394 1317q-149 -687 -446 -1288q-13 -29 -47 -29h-78zM897 1720 q0 29 17.5 47.5t44.5 18.5t46 -19.5t19 -50.5q0 -29 -17.5 -47.5t-43.5 -18.5q-27 0 -46.5 19.5t-19.5 50.5zM1229 1720q0 29 17.5 47.5t44.5 18.5t46 -19.5t19 -50.5q0 -29 -17.5 -47.5t-43.5 -18.5q-27 0 -46.5 19.5t-19.5 50.5z" />
<glyph unicode="&#x1e85;" horiz-adv-x="1785" d="M106 1077q39 31 70 31q22 0 31 -29l317 -964q105 209 182 441.5t136 537.5h69q19 0 29 -7t16 -26l326 -944q218 435 307 977h47q23 0 30.5 -8t4.5 -29q-45 -276 -123 -520t-207 -506q-9 -18 -19 -24.5t-28 -6.5h-71l-318 954q-98 -468 -323 -925q-15 -29 -47 -29h-70z M668 1364q0 29 17.5 47.5t43.5 18.5q27 0 46.5 -19.5t19.5 -50.5q0 -29 -17.5 -47.5t-44.5 -18.5t-46 19.5t-19 50.5zM999 1364q0 29 17.5 47.5t44.5 18.5t46 -19.5t19 -50.5q0 -29 -17.5 -47.5t-43.5 -18.5q-27 0 -46.5 19.5t-19.5 50.5z" />
<glyph unicode="&#x1ef2;" horiz-adv-x="1331" d="M88 1395q40 43 68 43q18 0 34 -25l469 -833q314 372 496 854h51q49 0 35 -37q-92 -244 -231.5 -479.5t-311.5 -436.5v-481h-49q-23 0 -32 7.5t-9 27.5v442zM445 1820q10 27 24 41q13 13 25 13q9 0 24 -15l275 -258l-29 -30q-9 -9 -16 -9t-21 11z" />
<glyph unicode="&#x1ef3;" horiz-adv-x="1282" d="M193 420v672q30 10 61 10q29 0 29 -25v-649q0 -371 305 -371q105 0 212 43t195 127v875h49q23 0 32 -7.5t9 -27.5v-1036q0 -157 -60.5 -277.5t-183.5 -191t-294 -70.5q-150 0 -245 72.5t-95 195.5q0 160 168 263q-182 101 -182 397zM297 -240q0 -81 70 -133.5t178 -52.5 q226 0 338 120t112 324v119q-89 -75 -197.5 -118.5t-219.5 -43.5q-54 0 -123 15q-158 -96 -158 -230zM434 1464q10 26 25 41q13 13 24 13q10 0 25 -15l274 -258l-28 -31q-8 -8 -17 -8q-6 0 -20 11z" />
<glyph unicode="&#x2000;" horiz-adv-x="1001" />
<glyph unicode="&#x2001;" horiz-adv-x="2003" />
<glyph unicode="&#x2002;" horiz-adv-x="1001" />
<glyph unicode="&#x2003;" horiz-adv-x="2003" />
<glyph unicode="&#x2004;" horiz-adv-x="667" />
<glyph unicode="&#x2005;" horiz-adv-x="500" />
<glyph unicode="&#x2006;" horiz-adv-x="333" />
<glyph unicode="&#x2007;" horiz-adv-x="333" />
<glyph unicode="&#x2008;" horiz-adv-x="250" />
<glyph unicode="&#x2009;" horiz-adv-x="409" />
<glyph unicode="&#x200a;" horiz-adv-x="111" />
<glyph unicode="&#x2010;" horiz-adv-x="933" d="M174 666q0 27 8 55h543q20 0 27.5 -9t7.5 -32v-41h-561q-25 0 -25 27z" />
<glyph unicode="&#x2011;" horiz-adv-x="1003" d="M209 666q0 27 8 55h543q20 0 27.5 -9t7.5 -32v-41h-562q-24 0 -24 27z" />
<glyph unicode="&#x2012;" horiz-adv-x="1392" d="M174 666q0 27 8 55h1002q20 0 27.5 -9t7.5 -32v-41h-1020q-25 0 -25 27z" />
<glyph unicode="&#x2013;" horiz-adv-x="1024" d="M0 666q0 27 8 55h981q20 0 27.5 -9t7.5 -32v-41h-999q-25 0 -25 27z" />
<glyph unicode="&#x2014;" horiz-adv-x="2048" d="M0 666q0 27 8 55h2005q20 0 27.5 -9t7.5 -32v-41h-2023q-25 0 -25 27z" />
<glyph unicode="&#x2015;" horiz-adv-x="2048" d="M205 666q0 27 8 55h1595q20 0 27.5 -9t7.5 -32v-41h-1614q-24 0 -24 27z" />
<glyph unicode="&#x2016;" horiz-adv-x="847" d="M246 -231v1755q30 10 61 10q29 0 29 -25v-1775h-49q-23 0 -32 7.5t-9 27.5zM512 -231v1755q30 10 61 10q29 0 29 -25v-1775h-49q-23 0 -32 7.5t-9 27.5z" />
<glyph unicode="&#x2017;" horiz-adv-x="1228" d="M102 -143q0 24 9 55h981q20 0 27 -8.5t7 -32.5v-41h-999q-25 0 -25 27zM102 -356q0 24 9 55h981q20 0 27 -8.5t7 -32.5v-41h-999q-25 0 -25 27z" />
<glyph unicode="&#x2018;" horiz-adv-x="671" d="M272 1239q0 67 24 128.5t62 102.5q15 17 30.5 29t25 15.5t12.5 1.5q12 -6 16 -25q-89 -89 -98 -191q24 -3 39.5 -21.5t15.5 -47.5t-17.5 -47.5t-43.5 -18.5q-28 0 -47 19.5t-19 54.5z" />
<glyph unicode="&#x2019;" horiz-adv-x="671" d="M229 1194q90 90 99 190q-24 3 -40 22t-16 48t17.5 47.5t44.5 18.5q28 0 46.5 -19.5t18.5 -54.5q0 -67 -24 -129t-62 -103q-15 -17 -30 -28.5t-24.5 -15t-12.5 -1.5q-13 7 -17 25z" />
<glyph unicode="&#x201a;" horiz-adv-x="671" d="M229 -215q90 90 99 190q-24 3 -40 22t-16 48t17.5 47.5t44.5 18.5q28 0 46.5 -19.5t18.5 -54.5q0 -67 -24 -129t-62 -103q-15 -17 -30 -28.5t-24.5 -15t-12.5 -1.5q-13 7 -17 25z" />
<glyph unicode="&#x201b;" horiz-adv-x="671" d="M272 1446q0 35 19 54.5t47 19.5q26 0 43.5 -18.5t17.5 -47.5t-15.5 -48t-39.5 -22q9 -101 98 -190q-4 -19 -16 -25q-3 -2 -12.5 1.5t-25 15t-30.5 28.5q-38 41 -62 103t-24 129z" />
<glyph unicode="&#x201c;" horiz-adv-x="909" d="M272 1239q0 67 24 128.5t62 102.5q15 17 30.5 29t25 15.5t12.5 1.5q12 -6 16 -25q-89 -89 -98 -191q24 -3 39.5 -21.5t15.5 -47.5t-17.5 -47.5t-43.5 -18.5q-28 0 -47 19.5t-19 54.5zM510 1239q0 67 24 128.5t62 102.5q15 17 30.5 29t25 15.5t12.5 1.5q12 -6 16 -25 q-89 -89 -98 -191q24 -3 39.5 -21.5t15.5 -47.5t-17.5 -47.5t-44.5 -18.5q-28 0 -46.5 19.5t-18.5 54.5z" />
<glyph unicode="&#x201d;" horiz-adv-x="909" d="M229 1194q90 90 99 190q-24 3 -40 22t-16 48t17.5 47.5t44.5 18.5q28 0 46.5 -19.5t18.5 -54.5q0 -67 -24 -129t-62 -103q-15 -17 -30 -28.5t-24.5 -15t-12.5 -1.5q-13 7 -17 25zM467 1194q89 89 98 190q-24 3 -39.5 22t-15.5 48t17.5 47.5t43.5 18.5q28 0 47 -19.5 t19 -54.5q0 -67 -24 -129t-62 -103q-15 -17 -30.5 -28.5t-25 -15t-12.5 -1.5q-12 6 -16 25z" />
<glyph unicode="&#x201e;" horiz-adv-x="909" d="M229 -215q90 90 99 190q-24 3 -40 22t-16 48t17.5 47.5t44.5 18.5q28 0 46.5 -19.5t18.5 -54.5q0 -67 -24 -129t-62 -103q-15 -17 -30 -28.5t-24.5 -15t-12.5 -1.5q-13 7 -17 25zM467 -215q89 89 98 190q-24 3 -39.5 22t-15.5 48t17.5 47.5t43.5 18.5q28 0 47 -19.5 t19 -54.5q0 -67 -24 -129t-62 -103q-15 -17 -30.5 -28.5t-25 -15t-12.5 -1.5q-12 6 -16 25z" />
<glyph unicode="&#x201f;" horiz-adv-x="909" d="M272 1446q0 35 19 54.5t47 19.5q26 0 43.5 -18.5t17.5 -47.5t-15.5 -48t-39.5 -22q9 -101 98 -190q-4 -19 -16 -25q-3 -2 -12.5 1.5t-25 15t-30.5 28.5q-38 41 -62 103t-24 129zM510 1446q0 35 18.5 54.5t46.5 19.5q27 0 44.5 -18.5t17.5 -47.5t-15.5 -48t-39.5 -22 q9 -101 98 -190q-4 -19 -16 -25q-3 -2 -12.5 1.5t-25 15t-30.5 28.5q-38 41 -62 103t-24 129z" />
<glyph unicode="&#x2020;" horiz-adv-x="1097" d="M123 1110q0 38 8 66l375 -11l-6 355q46 12 73 12q29 0 29 -25l-6 -342l344 11q20 1 27.5 -8t7.5 -33v-52l-379 11v-1362h-49q-23 0 -32 7.5t-9 27.5v1327l-359 -11q-24 0 -24 27z" />
<glyph unicode="&#x2021;" horiz-adv-x="1122" d="M135 115q0 37 8 65l375 -10v924l-358 -11q-25 0 -25 27q0 38 8 66l375 -11l-6 355q46 12 74 12t28 -25l-6 -342l344 11q20 1 27.5 -8t7.5 -33v-52l-379 11v-924l344 10q20 1 27.5 -8t7.5 -33v-51l-379 10l6 -342q0 -24 -28 -24t-74 12l6 354l-358 -10q-25 0 -25 27z" />
<glyph unicode="&#x2022;" horiz-adv-x="774" d="M246 686q0 64 38 101.5t99 37.5q60 0 102.5 -41.5t42.5 -109.5q0 -64 -37.5 -101.5t-99.5 -37.5q-60 0 -102.5 41.5t-42.5 109.5z" />
<glyph unicode="&#x2024;" horiz-adv-x="671" d="M272 45q0 29 17.5 47.5t44.5 18.5t46 -19.5t19 -50.5q0 -29 -17.5 -47.5t-43.5 -18.5q-27 0 -46.5 19.5t-19.5 50.5z" />
<glyph unicode="&#x2025;" horiz-adv-x="1343" d="M272 45q0 29 17.5 47.5t44.5 18.5t46 -19.5t19 -50.5q0 -29 -17.5 -47.5t-43.5 -18.5q-27 0 -46.5 19.5t-19.5 50.5zM944 45q0 29 17.5 47.5t44.5 18.5t46 -19.5t19 -50.5q0 -29 -17.5 -47.5t-43.5 -18.5q-27 0 -46.5 19.5t-19.5 50.5z" />
<glyph unicode="&#x2026;" horiz-adv-x="2015" d="M272 45q0 29 17.5 47.5t44.5 18.5t46 -19.5t19 -50.5q0 -29 -17.5 -47.5t-43.5 -18.5q-27 0 -46.5 19.5t-19.5 50.5zM944 45q0 29 17.5 47.5t44.5 18.5t46 -19.5t19 -50.5q0 -29 -17.5 -47.5t-43.5 -18.5q-27 0 -46.5 19.5t-19.5 50.5zM1616 45q0 29 17.5 47.5t43.5 18.5 q27 0 46.5 -19.5t19.5 -50.5q0 -29 -17.5 -47.5t-44.5 -18.5t-46 19.5t-19 50.5z" />
<glyph unicode="&#x202f;" horiz-adv-x="400" />
<glyph unicode="&#x2030;" horiz-adv-x="2516" d="M123 1090q0 161 90 260.5t229 99.5q140 0 230 -99.5t90 -260.5t-90.5 -261t-229.5 -100t-229 100t-90 261zM213 1098q0 -135 64 -211t174 -76q99 0 160 72.5t61 197.5q0 135 -64 211t-174 76q-99 0 -160 -72.5t-61 -197.5zM547 37l586 1397h36q24 0 31.5 -10.5t1.5 -26.5 l-586 -1397h-36q-24 0 -31.5 10.5t-1.5 26.5zM987 344q0 161 90.5 261t229.5 100t229 -100t90 -261t-90 -260.5t-229 -99.5q-140 0 -230 99.5t-90 260.5zM1077 352q0 -135 64 -210.5t174 -75.5q99 0 160 72.5t61 197.5q0 135 -64 211t-174 76q-99 0 -160 -73t-61 -198z M1755 344q0 161 90.5 261t229.5 100t229 -100t90 -261t-90 -260.5t-229 -99.5q-140 0 -230 99.5t-90 260.5zM1845 352q0 -135 64 -210.5t174 -75.5q99 0 160 72.5t61 197.5q0 135 -64 211t-174 76q-99 0 -160 -73t-61 -198z" />
<glyph unicode="&#x2032;" horiz-adv-x="604" d="M188 909l150 529q20 10 53 10q37 0 25 -45l-162 -529h-37q-21 0 -27.5 8t-1.5 27z" />
<glyph unicode="&#x2033;" horiz-adv-x="851" d="M188 909l150 529q20 10 53 10q37 0 25 -45l-162 -529h-37q-21 0 -27.5 8t-1.5 27zM436 909l150 529q20 10 53 10q37 0 25 -45l-162 -529h-37q-21 0 -27.5 8t-1.5 27z" />
<glyph unicode="&#x2039;" horiz-adv-x="788" d="M147 637v25l437 311q24 18 39 18q18 0 18 -30q0 -28 -8 -52l-387 -270l372 -260q21 -15 21 -39v-74l-471 336q-21 15 -21 35z" />
<glyph unicode="&#x203a;" horiz-adv-x="788" d="M147 961q0 30 19 30q15 0 39 -18l436 -311v-25q0 -21 -20 -35l-471 -336v74q0 25 20 39l373 260l-387 270q-9 27 -9 52z" />
<glyph unicode="&#x203c;" horiz-adv-x="845" d="M209 45q0 29 17 46.5t44 17.5t46.5 -19.5t19.5 -50.5q0 -29 -17.5 -46.5t-44.5 -17.5t-46 19.5t-19 50.5zM221 1161v271q33 10 68 10t35 -25v-256q0 -311 -19 -809h-33q-19 0 -24.5 7.5t-7.5 27.5q-19 431 -19 774zM510 45q0 29 17 46.5t44 17.5t46.5 -19.5t19.5 -50.5 q0 -29 -17.5 -46.5t-44.5 -17.5t-46 19.5t-19 50.5zM522 1161v271q33 10 68 10t35 -25v-256q0 -311 -19 -809h-33q-19 0 -24.5 7.5t-7.5 27.5q-19 431 -19 774z" />
<glyph unicode="&#x203e;" horiz-adv-x="839" d="M150 1311q0 27 8 47h497q20 0 27.5 -9t7.5 -32v-33h-516q-24 0 -24 27z" />
<glyph unicode="&#x2044;" horiz-adv-x="315" d="M-170 37l586 1397h37q23 0 30.5 -10.5t1.5 -26.5l-585 -1397h-37q-24 0 -31.5 10.5t-1.5 26.5z" />
<glyph unicode="&#x205f;" horiz-adv-x="500" />
<glyph unicode="&#x20a0;" horiz-adv-x="1556" d="M98 971q0 112 36.5 205t99.5 154t145 94.5t174 33.5q129 0 217.5 -58t132.5 -147q17 -28 -10 -45q-22 -14 -64 -18q-79 186 -276 186q-150 0 -257.5 -110.5t-107.5 -294.5q0 -92 26 -171t70 -133t102 -92.5t120.5 -56.5t126.5 -18q102 0 170 24v482h608q25 0 25 -27 q0 -23 -9 -55h-534v-373h432q20 0 27.5 -9t7.5 -32v-41h-467v-156q0 -133 37 -182t129 -49h364q20 0 27.5 -9t7.5 -32v-41h-407q-126 0 -187 68t-61 231v145q-73 -26 -174 -26q-230 0 -380.5 153t-150.5 400z" />
<glyph unicode="&#x20a1;" horiz-adv-x="1406" d="M135 764q0 153 47.5 281.5t128 213.5t182.5 135t216 60l36 160h33q27 0 36.5 -8t4.5 -27l-28 -121q69 -3 131 -18l39 174h32q27 0 36.5 -8t4.5 -27l-37 -162q103 -37 181 -106t122 -156q16 -30 -12 -49q-26 -18 -61 -21q-84 178 -248 248l-283 -1247q102 -29 199 -29 q206 0 350 88q15 -18 15 -43q0 -39 -112.5 -83t-256.5 -44q-100 0 -215 27l-41 -182h-33q-27 0 -36.5 8t-4.5 27l39 174q-65 25 -119 59l-61 -268h-33q-27 0 -36.5 8t-4.5 27l64 284q-129 105 -202 266t-73 359zM225 770q0 -166 54.5 -300.5t152.5 -229.5l258 1130 q-94 -13 -177 -59.5t-147.5 -121t-102.5 -183t-38 -236.5zM502 182q51 -37 119 -67l282 1245q-51 12 -131 16z" />
<glyph unicode="&#x20a2;" horiz-adv-x="1406" d="M135 764q0 131 34.5 244t95 194.5t140.5 140t171.5 87t187.5 28.5q188 0 328 -84t208 -219q16 -30 -12 -49q-26 -18 -61 -21q-64 140 -185.5 215.5t-277.5 75.5q-104 0 -200 -41t-172 -116t-121.5 -192t-45.5 -257q0 -254 125 -432.5t326 -245.5v787q30 10 61 10 q29 0 29 -25v-137q45 78 115 120t151 42q92 0 148 -29q28 -14 28 -31q0 -13 -10 -26q-16 -20 -35 -33q-59 37 -149 37q-75 0 -143.5 -54.5t-104.5 -162.5v-520q67 -13 129 -13q206 0 350 88q15 -18 15 -43q0 -39 -112.5 -83t-256.5 -44q-159 0 -298 57t-240 158t-159.5 250 t-58.5 324z" />
<glyph unicode="&#x20a3;" horiz-adv-x="1116" d="M53 557q0 27 8 47h150v164h-133q-25 0 -25 27t8 47h150v592h795q24 0 24 -27t-8 -55h-721v-510h563q20 0 27.5 -9t7.5 -32v-33h-598v-164h563q20 0 27.5 -9t7.5 -32v-33h-598v-530h-49q-23 0 -32 7.5t-9 27.5v495h-133q-25 0 -25 27z" />
<glyph unicode="&#x20a4;" horiz-adv-x="1220" d="M121 518q0 27 8 47h141v164h-125q-24 0 -24 27t8 47h141v198q0 215 111 336t287 121q143 0 253 -82.5t158 -220.5q13 -35 -10 -49q-26 -16 -65 -19q-90 289 -338 289q-135 0 -220.5 -97t-85.5 -265v-211h474q20 0 27 -8.5t7 -32.5v-33h-508v-164h474q20 0 27 -8.5 t7 -32.5v-32h-508v-119q0 -200 -94 -291h821q20 0 27.5 -9t7.5 -32v-41h-934q-20 0 -27 8.5t-7 32.5v35q61 58 88.5 117.5t27.5 164.5v134h-125q-24 0 -24 26z" />
<glyph unicode="&#x20a6;" horiz-adv-x="1470" d="M68 588q0 27 8 47h135v164h-119q-24 0 -24 26q0 27 8 47h135v537q45 33 80 33q23 0 37 -23l356 -547h485v562h50q23 0 32 -7.5t9 -27.5v-527h108q20 0 27.5 -9t7.5 -32v-32h-143v-164h108q20 0 27.5 -9t7.5 -32v-33h-143v-536q-45 -33 -80 -33q-20 0 -37 22l-359 547 h-483v-561h-49q-23 0 -32 7.5t-9 27.5v526h-119q-24 0 -24 27zM301 635h436l-108 164h-328v-164zM301 872h281l-281 431v-431zM733 799l107 -164h329v164h-436zM889 561l280 -430v430h-280z" />
<glyph unicode="&#x20a7;" horiz-adv-x="2242" d="M221 35v1399h228q186 0 318 -89t181 -251h180v311q30 10 62 10q29 0 29 -24v-297h292q20 0 27.5 -9t7.5 -32v-4q82 69 221 69q121 0 198 -46t128 -132q18 -29 -12 -49q-22 -14 -58 -21q-41 84 -101.5 125t-156.5 41q-103 0 -162 -56.5t-59 -152.5q0 -89 66.5 -145.5 t208.5 -93.5q301 -78 301 -307q0 -131 -95 -206t-274 -75h-313q-142 0 -226 90t-84 250v672h-161q6 -47 6 -94q0 -124 -41 -224.5t-111 -163t-160 -96t-190 -33.5q-78 0 -160 21v-422h-49q-23 0 -32 7.5t-9 27.5zM311 500q69 -17 160 -17q182 0 297 116.5t115 318.5 q0 209 -120.5 321.5t-311.5 112.5h-140v-852zM1219 346q0 -133 60 -198.5t165 -65.5h303q139 0 211 49t72 143q0 170 -242 234q-169 44 -251.5 121.5t-82.5 206.5q0 106 55 176h-290v-666z" />
<glyph unicode="&#x20a8;" horiz-adv-x="1957" d="M221 35v1399h266q250 0 402.5 -131.5t152.5 -364.5q0 -168 -80 -283t-217 -170q80 -205 191 -356q30 -42 56 -57t75 -15h20q7 -18 7 -32q0 -20 -23.5 -35t-60.5 -15q-82 0 -156 111q-95 139 -188 375q-84 -19 -168 -19q-101 0 -187 25v-467h-49q-23 0 -32 7.5t-9 27.5z M311 545q75 -21 187 -21q204 0 329 109.5t125 304.5q0 102 -35 182t-97.5 130t-146.5 76t-184 26h-178v-807zM1165 838q0 125 85 202.5t229 77.5q108 0 193 -48t132 -130q18 -29 -12 -49q-21 -14 -57 -21q-81 166 -258 166q-98 0 -160 -56t-62 -151q0 -90 66.5 -149.5 t208.5 -101.5q156 -46 230.5 -122.5t74.5 -193.5q0 -128 -89.5 -207.5t-254.5 -79.5q-72 0 -142 19t-109.5 43.5t-39.5 42.5q0 28 14 45q124 -68 273 -68q127 0 192.5 52t65.5 147q0 87 -57.5 145t-188.5 95q-334 97 -334 342z" />
<glyph unicode="&#x20a9;" horiz-adv-x="2260" d="M68 557q0 27 8 47h291l-54 164h-221q-24 0 -24 27t8 47h215l-180 565q39 31 69 31q22 0 31 -29l178 -567h520q86 280 156 592h86q36 0 47 -33l168 -559h520q92 283 156 592h55q23 0 31 -8.5t4 -28.5q-56 -268 -145 -555h182q20 0 27.5 -9t7.5 -32v-33h-242 q-32 -98 -57 -164h264q20 0 27.5 -9t7.5 -32v-33h-328q-92 -234 -227 -501q-15 -29 -47 -29h-78l-160 530h-465q-84 -233 -215 -501q-13 -29 -47 -29h-78l-170 530h-297q-24 0 -24 27zM414 768l51 -164h364q38 101 58 164h-473zM489 530l134 -419q110 224 180 419h-314z M926 604h417l-49 164h-313q-23 -80 -55 -164zM1006 842h266l-142 475q-51 -232 -124 -475zM1389 768l49 -164h366q48 126 60 164h-475zM1460 530l127 -417q108 212 189 417h-316z" />
<glyph unicode="&#x20aa;" horiz-adv-x="1851" d="M221 35v1399h449q267 0 394.5 -145t127.5 -441v-332h-49q-23 0 -32 7.5t-9 27.5v283q0 275 -109 396.5t-336 121.5h-346v-1352h-49q-23 0 -32 7.5t-9 27.5zM659 586v321q33 11 62 11t29 -25v-293q0 -275 108.5 -396.5t335.5 -121.5h346v1352h49q23 0 32 -7.5t9 -27.5 v-1399h-448q-267 0 -395 145t-128 441z" />
<glyph unicode="&#x20ab;" horiz-adv-x="1300" d="M123 461q0 157 69.5 288.5t194 209t275.5 77.5q208 0 352 -137v303h-402q-24 0 -24 27t8 47h418v158h49q23 0 32 -7.5t9 -27.5v-123h96q20 0 27.5 -9t7.5 -32v-33h-131v-1020q0 -64 19 -91.5t59 -27.5h35q6 -15 6 -34q0 -16 -23 -29.5t-57 -13.5q-58 0 -93.5 49.5 t-35.5 150.5v64q-63 -123 -176 -199t-254 -76q-125 0 -228.5 55.5t-168 168t-64.5 262.5zM213 459q0 -128 54.5 -221t139.5 -137t187 -44q128 0 240 85t180 249v408q-149 155 -350 155q-185 0 -318 -142.5t-133 -352.5zM291 -266q0 27 8 47h782q20 0 27.5 -9t7.5 -32v-33 h-801q-24 0 -24 27z" />
<glyph unicode="&#x20ac;" horiz-adv-x="1406" d="M23 578q0 27 8 47h112q-8 60 -8 139v24h-88q-24 0 -24 27t8 47h108q13 113 53.5 209.5t100.5 167t136 120.5t161 74.5t174 24.5q188 0 328 -84t208 -219q16 -30 -12 -49q-26 -18 -61 -21q-64 140 -185.5 215.5t-277.5 75.5q-128 0 -241.5 -58.5t-194 -177.5t-99.5 -278 h596q20 0 27.5 -9t7.5 -32v-33h-635v-18q0 -72 13 -145h587q20 0 27.5 -9t7.5 -32v-33h-606q62 -230 239 -362t402 -132q206 0 350 88q15 -18 15 -43q0 -39 -112.5 -83t-256.5 -44q-270 0 -470 156t-263 420h-111q-24 0 -24 27z" />
<glyph unicode="&#x2122;" horiz-adv-x="1468" d="M74 1384q0 -24 24 -24h193v-594q0 -20 9 -27.5t32 -7.5h37v629h223v33q0 23 -7.5 32t-27.5 9h-475q-8 -20 -8 -50zM633 766l69 651q46 27 68 27q23 0 37 -25l192 -385l199 400h57q23 0 32.5 -7.5t10.5 -27.5l72 -668h-47q-23 0 -31 7t-10 28l-55 563l-178 -364 q-12 -21 -43 -21h-45l-189 385l-59 -598h-39q-24 0 -33 7.5t-8 27.5z" />
<glyph unicode="&#x2202;" horiz-adv-x="1308" d="M119 420q0 112 39.5 205t107 154t157 94.5t189.5 33.5q133 0 254.5 -48.5t204.5 -127.5q-6 295 -146 470t-356 175q-112 0 -201 -59t-124 -176q-34 3 -60 16q-24 14 -24 31q0 11 6 26q44 113 152.5 178.5t254.5 65.5q125 0 232.5 -51t186.5 -145t124 -236.5t45 -316.5 v-27q0 -327 -154.5 -517t-416.5 -190q-206 0 -338.5 128.5t-132.5 316.5zM209 420q0 -153 110 -258t271 -105q206 0 339 157t142 425q-196 186 -444 186q-178 0 -298 -108t-120 -297z" />
<glyph unicode="&#x2206;" horiz-adv-x="1355" d="M51 35l572 1390q39 17 77 17q25 0 37 -27l582 -1415h-1239q-44 0 -29 35zM162 82h1032l-516 1270z" />
<glyph unicode="&#x220f;" horiz-adv-x="1439" d="M221 -193v1709h957q23 0 32 -7.5t9 -27.5v-1708h-50q-24 0 -32.5 7t-8.5 27v1627h-817v-1661h-49q-24 0 -32.5 7t-8.5 27z" />
<glyph unicode="&#x2211;" horiz-adv-x="1226" d="M98 1448q3 28 19 51q11 17 39 17h962q20 0 27.5 -9t7.5 -32v-41h-938l508 -738v-12q0 -14 -12 -35l-486 -794h893q20 0 27.5 -9t7.5 -32v-41h-999q-20 0 -27.5 9t-7.5 32v30l508 836z" />
<glyph unicode="&#x221a;" horiz-adv-x="1159" d="M98 723q0 27 8 55h156q19 0 28.5 -5.5t16.5 -22.5l299 -644l355 1471h40q41 0 33 -37l-366 -1505q-4 -20 -16 -27.5t-34 -7.5h-53l-327 696h-115q-25 0 -25 27z" />
<glyph unicode="&#x221e;" horiz-adv-x="1648" d="M184 682q0 128 88 206.5t203 78.5q100 0 178.5 -48t169.5 -169q161 217 351 217q115 0 202.5 -78.5t87.5 -206.5t-87.5 -206.5t-202.5 -78.5q-102 0 -180.5 47.5t-168.5 169.5q-81 -112 -166 -164.5t-184 -52.5q-115 0 -203 78.5t-88 206.5zM266 682q0 -99 61.5 -156 t151.5 -57q80 0 146 43t151 170q-93 128 -155.5 170.5t-141.5 42.5q-90 0 -151.5 -57t-61.5 -156zM870 682q92 -128 156 -170.5t143 -42.5q90 0 151.5 57t61.5 156t-61.5 156t-151.5 57q-81 0 -146.5 -43.5t-152.5 -169.5z" />
<glyph unicode="&#x222b;" horiz-adv-x="1064" d="M49 -434q0 24 14 45q79 -35 197 -35q110 0 168.5 62t58.5 182v1362q0 159 82.5 248.5t225.5 89.5q58 0 111.5 -13t81.5 -29.5t28 -29.5q0 -22 -15 -45q-79 35 -196 35q-110 0 -168.5 -62t-58.5 -182v-1362q0 -159 -82.5 -248.5t-225.5 -89.5q-58 0 -111.5 13t-81.5 29.5 t-28 29.5z" />
<glyph unicode="&#x2248;" horiz-adv-x="1372" d="M205 410q28 100 97 157.5t163 57.5q126 0 246 -103q66 -55 108 -75.5t90 -20.5q62 0 110 51t68 146l66 -15q24 -6 18 -30q-26 -110 -95.5 -172t-168.5 -62q-126 0 -245 102q-66 55 -109 76t-90 21q-62 0 -110 -51t-68 -146q-38 -4 -66 12q-23 13 -14 52zM205 799 q28 100 97 157.5t163 57.5q126 0 246 -103q66 -55 108 -75.5t90 -20.5q62 0 110 51t68 146l66 -15q24 -6 18 -30q-26 -110 -95.5 -172t-168.5 -62q-125 0 -245 103q-65 55 -108 75.5t-91 20.5q-62 0 -110 -51t-68 -146q-36 -4 -66 13q-23 13 -14 51z" />
<glyph unicode="&#x2260;" horiz-adv-x="1372" d="M197 446q0 28 8 56h342l184 356h-510q-24 0 -24 27t8 55h567l166 320h37q31 0 39 -10t-4 -33l-144 -277h275q20 0 27.5 -9t7.5 -32v-41h-351l-184 -356h500q20 0 27.5 -9t7.5 -32v-41h-578l-164 -320h-37q-31 0 -39 10t4 33l142 277h-283q-24 0 -24 26z" />
<glyph unicode="&#x2264;" horiz-adv-x="1306" d="M164 27q0 -27 24 -27h955v41q0 23 -7.5 32t-27.5 9h-936q-8 -28 -8 -55zM164 821v56l936 407q14 6 23.5 -0.5t9.5 -23.5q0 -34 -7 -58l-868 -371l832 -354q25 -10 34 -19.5t9 -31.5v-61l-928 403q-23 9 -32 20t-9 33z" />
<glyph unicode="&#x2265;" horiz-adv-x="1306" d="M164 0v41q0 23 7.5 32t27.5 9h936q8 -28 8 -55t-25 -27h-954zM174 365v61q0 22 9 31.5t34 19.5l832 354l-869 371q-6 21 -6 58q0 17 9.5 23.5t23.5 0.5l936 -407v-56q0 -22 -9 -33t-32 -20z" />
<glyph unicode="&#x25ca;" horiz-adv-x="1056" d="M98 723l383 717q30 12 64 12q15 0 22.5 -4.5t14.5 -17.5l376 -707l-383 -700q-13 -23 -55 -23h-26zM199 723l329 -612l330 612l-330 616z" />
<glyph unicode="&#x25fc;" horiz-adv-x="1095" d="M0 0v1096h1096v-1096h-1096z" />
</font>
</defs>
</svg>
