<?xml version="1.0" standalone="no"?>
<!DOCTYPE svg PUBLIC "-//W3C//DTD SVG 1.1//EN" "http://www.w3.org/Graphics/SVG/1.1/DTD/svg11.dtd" >
<svg xmlns="http://www.w3.org/2000/svg">
<metadata></metadata>
<defs>
<font id="core_rhino_25_thinitalic" horiz-adv-x="1171" >
<font-face units-per-em="2048" ascent="1638" descent="-410" />
<missing-glyph horiz-adv-x="614" />
<glyph unicode="&#xfb01;" horiz-adv-x="1271" d="M193 1038q5 26 18 56h231l19 88q31 159 130.5 248.5t242.5 89.5q58 0 108.5 -13t75 -29.5t22.5 -29.5q-7 -27 -22 -45q-72 35 -191 35q-110 0 -180.5 -62t-93.5 -182l-21 -100h607q20 0 25.5 -8.5t0.5 -32.5l-172 -885q-10 -56 5 -80.5t53 -24.5h36q2 -10 -2 -34 q-3 -16 -28.5 -29.5t-59.5 -13.5q-58 0 -85 44.5t-9 137.5l166 844h-551l-196 -1012h-50q-24 0 -31 7.5t-3 27.5l190 977h-215q-12 0 -17.5 7t-2.5 19zM1135 1446q4 29 25 46t48 17t42.5 -19t9.5 -50q-6 -29 -26.5 -46.5t-47.5 -17.5t-42 19.5t-9 50.5z" />
<glyph unicode="&#xfb02;" horiz-adv-x="1353" d="M193 1038q5 26 18 56h231l19 88q31 163 135 250.5t276 87.5q176 0 293 -60l6 33q33 10 64 10q15 0 21 -6t4 -18l-242 -1239q-17 -90 10 -131t96 -41q70 0 125 22q11 -16 6 -43q-3 -19 -53 -40t-108 -21q-102 0 -146.5 62.5t-19.5 191.5l223 1146q-116 52 -285 52 q-138 0 -213.5 -60.5t-99.5 -183.5l-21 -100h371q20 0 26 -9t1 -32l-6 -41h-406l-196 -1012h-50q-24 0 -31 7.5t-3 27.5l190 977h-215q-12 0 -17.5 7t-2.5 19z" />
<glyph horiz-adv-x="682" />
<glyph horiz-adv-x="0" />
<glyph horiz-adv-x="0" />
<glyph unicode="&#xd;" horiz-adv-x="485" />
<glyph unicode=" "  horiz-adv-x="614" />
<glyph unicode="&#x09;" horiz-adv-x="614" />
<glyph unicode="&#xa0;" horiz-adv-x="614" />
<glyph unicode="!" horiz-adv-x="544" d="M135 45q4 29 25.5 46.5t48.5 17.5t42 -19.5t9 -50.5q-4 -29 -25.5 -46.5t-48.5 -17.5t-42 19.5t-9 50.5zM231 387q63 410 134 774l51 271q38 10 69 10q19 0 26.5 -6t4.5 -19l-49 -256q-63 -322 -176 -809h-33q-19 0 -24 7.5t-3 27.5z" />
<glyph unicode="&#x22;" horiz-adv-x="792" d="M346 885l94 547q33 10 64 10q30 0 24 -25l-116 -563h-33q-21 0 -28.5 7t-4.5 24zM557 885l94 547q33 10 64 10q30 0 24 -25l-116 -563h-33q-21 0 -28.5 7t-4.5 24z" />
<glyph unicode="#" horiz-adv-x="1417" d="M109 420q6 31 20 55h233l175 483h-224q-25 0 -18 27q5 24 18 55h254l144 392q33 10 63 10q20 0 26 -7t-1 -26l-135 -369h434l143 392q33 10 64 10q19 0 25 -7t-1 -26l-135 -369h197q20 0 25.5 -8.5t0.5 -32.5l-8 -41h-246l-174 -483h217q20 0 26 -9t1 -32l-8 -41h-267 l-141 -393h-53q-43 0 -31 37l129 356h-434l-141 -393h-54q-42 0 -30 37l129 356h-203q-23 0 -20 27zM459 475h434l174 483h-434z" />
<glyph unicode="$" horiz-adv-x="1212" d="M143 109q4 24 23 43q156 -95 373 -95q185 0 296 77.5t134 201.5q24 124 -57.5 205t-280.5 139q-207 60 -296 158.5t-59 246.5q29 156 160 258t312 113l36 197q33 10 64 10q30 0 24 -25l-34 -182q142 -10 238.5 -77t133.5 -167q8 -31 -22 -49q-30 -17 -66 -20 q-35 114 -124.5 173.5t-225.5 59.5q-156 0 -267.5 -77t-137.5 -205q-23 -120 47.5 -197t257.5 -137q115 -37 190.5 -74.5t128 -87t69.5 -112.5t1 -144q-31 -157 -159 -254t-322 -111l-39 -206h-49q-23 0 -30.5 7t-4.5 27l32 172q-97 3 -180.5 24.5t-127 50.5t-38.5 57z" />
<glyph unicode="%" horiz-adv-x="1748" d="M252 1090q32 161 141 260.5t248 99.5q140 0 211 -99.5t39 -260.5t-141 -261t-248 -100q-140 0 -211 100t-39 261zM344 1098q-27 -135 21.5 -211t158.5 -76q100 0 175.5 73t99.5 197q26 135 -23.5 211t-159.5 76q-99 0 -173 -72.5t-99 -197.5zM467.5 11q-6.5 11 3.5 26 l858 1397h37q23 0 29 -11t-4 -26l-856 -1397h-37q-24 0 -30.5 11zM971 344q32 161 141 261t248 100q140 0 211 -100t39 -261q-30 -161 -139.5 -260.5t-249.5 -99.5q-139 0 -209.5 99.5t-40.5 260.5zM1063 352q-26 -135 23 -210.5t159 -75.5q99 0 174 72.5t99 197.5 q27 135 -22 211t-159 76q-99 0 -174.5 -73t-99.5 -198z" />
<glyph unicode="&#x26;" horiz-adv-x="1472" d="M104 328q25 130 124.5 242.5t256.5 179.5q-68 115 -87 197.5t-1 172.5q29 147 151 242.5t273 95.5q140 0 223.5 -86t57.5 -221q-15 -77 -57 -141t-111 -115t-146.5 -90.5t-181.5 -79.5q66 -101 169 -226t208 -225q129 111 232.5 250.5t146.5 284.5q30 0 45 -12t8 -43 q-22 -116 -133 -268.5t-244 -264.5q70 -59 138 -108q43 -32 71 -44t64 -12h35q3 -16 0 -32q-5 -20 -29 -35t-53 -15q-41 0 -77.5 16.5t-88.5 55.5q-57 40 -137 113q-268 -185 -525 -185q-181 0 -272.5 97t-59.5 256zM195 330q-25 -125 49.5 -199t220.5 -74q221 0 442 156 q-224 224 -389 481q-134 -58 -218 -157t-105 -207zM489 1128q-17 -82 1.5 -158t84.5 -190q192 74 302.5 160.5t132.5 200.5q21 109 -40.5 172t-172.5 63q-108 0 -197.5 -70t-110.5 -178z" />
<glyph unicode="'" horiz-adv-x="532" d="M322 885l94 547q33 10 63 10q31 0 25 -25l-117 -563h-33q-20 0 -27.5 7t-4.5 24z" />
<glyph unicode="(" horiz-adv-x="772" d="M254 342q2 138 33 293q58 301 189.5 524.5t301.5 360.5q39 32 62 24q17 -7 20 -37q-375 -307 -483 -872q-111 -566 143 -873q-15 -29 -35 -36q-24 -8 -51 24q-56 66 -95.5 150.5t-63 194t-21.5 247.5z" />
<glyph unicode=")" horiz-adv-x="772" d="M-6 -238q179 148 303 368.5t180 504.5q108 565 -143 872q15 30 33 37q24 8 53 -24q56 -65 95 -150.5t62.5 -194.5t21.5 -247t-32 -293q-60 -302 -190.5 -525.5t-300.5 -359.5q-41 -32 -64 -24q-15 8 -18 36z" />
<glyph unicode="*" horiz-adv-x="1280" d="M184 756q0 32 11 61q11 32 36 23l408 -146l-12 449q36 12 63 12q31 0 31 -27l-12 -434l426 154q18 -20 30 -57q9 -31 -14 -37l-418 -125l279 -359q-14 -25 -43 -43q-27 -18 -43 4l-252 361l-256 -369q-29 10 -56 29q-25 18 -10 39l260 338z" />
<glyph unicode="+" horiz-adv-x="1372" d="M233 666q0 24 9 55h436v444q33 11 61 11q29 0 29 -25v-430h410q20 0 27 -8.5t7 -32.5v-41h-444v-455h-49q-23 0 -32 7.5t-9 27.5v420h-420q-25 0 -25 27z" />
<glyph unicode="," horiz-adv-x="671" d="M104 -215q110 93 136 190q-23 3 -35 22.5t-6 47.5q4 29 25 47.5t48 18.5q28 0 43.5 -19.5t8.5 -54.5q-13 -67 -49 -129t-82 -103q-18 -17 -35.5 -28.5t-28 -15t-12.5 -1.5q-13 6 -13 25z" />
<glyph unicode="-" horiz-adv-x="1003" d="M256 666q5 24 18 55h543q20 0 26 -9t1 -32l-8 -41h-562q-25 0 -18 27z" />
<glyph unicode="." horiz-adv-x="671" d="M199 45q4 29 25 47.5t48 18.5t42.5 -19.5t9.5 -50.5q-4 -29 -25.5 -47.5t-48.5 -18.5t-42 19.5t-9 50.5z" />
<glyph unicode="/" horiz-adv-x="923" d="M-123 -188l1194 1730h47q47 0 21 -37l-1196 -1730h-45q-47 0 -21 37z" />
<glyph unicode="0" horiz-adv-x="1343" d="M201 717q67 350 246 545.5t425 195.5t349 -195.5t36 -545.5q-69 -350 -248 -546t-425 -196t-349 196t-34 546zM293 727q-62 -316 23.5 -493t293.5 -177q202 0 349 174t206 476q61 317 -25 493t-294 176q-203 0 -349.5 -174t-203.5 -475z" />
<glyph unicode="1" horiz-adv-x="1343" d="M420 1133q3 13 16 18l494 283h43q23 0 30 -7.5t3 -27.5l-271 -1399h-49q-24 0 -31.5 7.5t-3.5 27.5l252 1300l-448 -262q-19 14 -33 41q-4 12 -2 19z" />
<glyph unicode="2" horiz-adv-x="1343" d="M143 68q210 100 375.5 201.5t300 214.5t217.5 237t109 254q35 183 -47.5 292t-261.5 109q-134 0 -248 -74.5t-195 -216.5q-36 4 -59 21q-15 12 -12 29q4 12 10 20q89 139 226.5 221t297.5 82q210 0 315 -133.5t64 -349.5q-93 -480 -893 -893h694q20 0 26 -9t1 -32l-6 -41 h-869q-28 0 -36 16q-12 25 -9 52z" />
<glyph unicode="3" horiz-adv-x="1343" d="M123 111q4 25 22 43q154 -97 383 -97q122 0 227 38t178 113.5t93 178.5q34 169 -72.5 263.5t-353.5 113.5q-31 3 -35 16q-10 20 -10 51l571 521h-708q-24 0 -21 26q6 30 21 56h790q26 0 35 -17q11 -23 8 -51l-579 -530q243 -29 364 -138.5t84 -302.5 q-26 -131 -116.5 -228t-216 -144.5t-269.5 -47.5q-69 0 -134 10t-112 25.5t-82.5 34t-52 36t-14.5 30.5z" />
<glyph unicode="4" horiz-adv-x="1343" d="M123 369q155 320 438 618t569 449q34 12 70 12q23 0 30.5 -7.5t4.5 -27.5l-201 -1030h164q20 0 26 -9t1 -32l-8 -41h-199l-57 -301h-50q-23 0 -30.5 7.5t-3.5 27.5l51 266h-760q-30 0 -35 16q-10 20 -10 52zM231 383h713l186 965q-257 -139 -513.5 -412.5t-385.5 -552.5z " />
<glyph unicode="5" horiz-adv-x="1343" d="M129 111q4 24 23 43q150 -97 368 -97q217 0 353.5 103.5t170.5 271.5q32 168 -62.5 271.5t-311.5 103.5q-124 0 -246 -29q-42 -10 -55 -10q-11 0 -29 18l-12 13l211 635h704q20 0 26 -9t1 -32l-8 -41h-666l-168 -504q132 41 268 41q249 0 364.5 -121t74.5 -336 q-41 -204 -208.5 -330.5t-416.5 -126.5q-66 0 -128.5 10t-108 25.5t-80 34t-50.5 36t-14 30.5z" />
<glyph unicode="6" horiz-adv-x="1343" d="M211 682l6 27q45 232 156 403.5t260 258.5t317 87q146 0 242 -65.5t119 -178.5q3 -14 0 -26q-2 -17 -31 -31q-26 -13 -61 -16q-13 117 -91 176t-190 59q-217 0 -391 -175t-236 -470q98 79 229 127.5t265 48.5q100 0 183 -33t138.5 -95.5t77 -153t-1.5 -205.5 q-36 -188 -193.5 -316.5t-363.5 -128.5q-262 0 -379.5 190t-54.5 517zM293 639q-42 -268 61 -425t308 -157q161 0 291 105t159 258q37 189 -61.5 297t-276.5 108q-253 0 -481 -186z" />
<glyph unicode="7" horiz-adv-x="1343" d="M371 1378q6 32 20 56h899q26 0 35 -17q11 -23 8 -51q-251 -286 -464.5 -638t-376.5 -728h-52q-43 0 -28 33q158 351 367 692t442 627h-830q-23 0 -20 26z" />
<glyph unicode="8" horiz-adv-x="1343" d="M135 354q54 279 430 410q-143 62 -197.5 141t-31.5 195q31 155 180.5 256.5t347.5 101.5q202 0 309.5 -103.5t77.5 -254.5q-22 -115 -115.5 -211.5t-228.5 -159.5q166 -71 231 -158.5t42 -210.5q-33 -166 -197.5 -275.5t-398.5 -109.5q-226 0 -353.5 106.5t-95.5 272.5z M225 354q-18 -90 29.5 -159t138.5 -103.5t207 -34.5q189 0 325.5 85t161.5 214q25 125 -61.5 205t-323.5 156l-38 12q-209 -68 -312 -159.5t-127 -215.5zM426 1104q-22 -108 55 -180.5t285 -141.5l55 -18q142 65 231 150.5t109 185.5q23 122 -65 199t-248 77t-279.5 -76.5 t-142.5 -195.5z" />
<glyph unicode="9" horiz-adv-x="1343" d="M180 102q4 24 23 43q137 -88 323 -88q222 0 396 166.5t241 478.5q-99 -80 -229 -128t-264 -48q-100 0 -182.5 33t-138 96t-77.5 153.5t0 205.5q36 187 193.5 315.5t363.5 128.5q262 0 380 -189.5t55 -516.5l-7 -27q-35 -181 -107.5 -324.5t-171 -236t-218 -141 t-250.5 -48.5q-91 0 -172 23t-121.5 52.5t-36.5 51.5zM362 1014q-37 -189 61.5 -297.5t276.5 -108.5q249 0 482 187q42 268 -60.5 424.5t-308.5 156.5q-161 0 -291.5 -105t-159.5 -257z" />
<glyph unicode=":" horiz-adv-x="671" d="M199 45q4 29 25 47.5t48 18.5t42.5 -19.5t9.5 -50.5q-4 -29 -25.5 -47.5t-48.5 -18.5t-42 19.5t-9 50.5zM393 1053q6 29 27.5 47t48.5 18t42 -19t9 -50q-6 -29 -27 -47.5t-47 -18.5q-27 0 -43 19.5t-10 50.5z" />
<glyph unicode=";" horiz-adv-x="671" d="M104 -215q110 93 136 190q-23 3 -35 22.5t-6 47.5q4 29 25 47.5t48 18.5q28 0 43.5 -19.5t8.5 -54.5q-13 -67 -49 -129t-82 -103q-18 -17 -35.5 -28.5t-28 -15t-12.5 -1.5q-13 6 -13 25zM393 1053q6 29 27.5 47t48.5 18t42 -19t9 -50q-6 -29 -27 -47.5t-47 -18.5 q-27 0 -43 19.5t-10 50.5z" />
<glyph unicode="&#x3c;" horiz-adv-x="1372" d="M233 670v55l947 408q14 6 23 -1t9 -24q0 -36 -6 -57l-878 -371l841 -354q25 -10 34 -20t9 -32v-61l-938 403q-23 9 -32 20.5t-9 33.5z" />
<glyph unicode="=" horiz-adv-x="1372" d="M233 446q0 24 9 56h936q20 0 27 -8.5t7 -32.5v-41h-954q-25 0 -25 26zM233 885q0 23 9 55h936q20 0 27 -8.5t7 -32.5v-41h-954q-25 0 -25 27z" />
<glyph unicode="&#x3e;" horiz-adv-x="1372" d="M233 213v61q0 22 9 32t34 20l842 354l-878 371q-7 25 -7 57q0 17 9.5 24t23.5 1l946 -408v-55q0 -22 -9 -33.5t-32 -20.5z" />
<glyph unicode="?" horiz-adv-x="1134" d="M260 1133q6 16 10 24q82 137 213.5 219t292.5 82q180 0 275 -108t63 -275q-24 -120 -96.5 -211.5t-208.5 -185.5q-122 -84 -164 -135.5t-55 -120.5l-15 -70h-49q-23 0 -30 7.5t-4 27.5l8 37q16 84 70 153t186 158q122 81 185 160t83 180q26 135 -51 218t-215 83 q-132 0 -241.5 -72.5t-184.5 -218.5q-37 4 -60 21q-15 12 -12 27zM408 45q4 29 25 46.5t48 17.5t42 -19.5t9 -50.5q-4 -29 -25 -46.5t-48 -17.5t-42 19.5t-9 50.5z" />
<glyph unicode="@" horiz-adv-x="2093" d="M183 320.5q-10 115.5 16 242.5q37 189 139.5 356t243.5 284.5t315 186t350 68.5q185 0 335.5 -66t243.5 -179.5t129 -268.5t3 -328q-43 -221 -180 -370.5t-299 -149.5q-102 0 -154 57.5t-41 153.5q-192 -201 -426 -201q-143 0 -218 102t-42 273q24 120 90 223.5 t154 171.5t189.5 106t199.5 38q111 0 193 -44t126 -120l-164 -412q-48 -120 -18 -197t127 -77q121 0 232 124t147 314q23 133 10.5 249.5t-66.5 213.5t-135.5 166.5t-197.5 108t-252 38.5q-157 0 -314 -62t-286 -169.5t-223.5 -261.5t-128.5 -328q-24 -112 -14.5 -216.5 t40.5 -196t90.5 -166.5t136.5 -129t176.5 -83.5t211.5 -29.5q292 0 544 174q25 -14 19 -37q-3 -13 -30.5 -37t-81 -54t-120.5 -57t-159.5 -45t-186.5 -18q-122 0 -231.5 31t-194.5 88t-151 138t-101.5 180.5t-45.5 215zM690 487q-28 -135 26 -216t167 -81q209 0 387 187 l178 450q-72 111 -238 111q-78 0 -162 -33.5t-157 -91.5t-128 -144t-73 -182z" />
<glyph unicode="A" horiz-adv-x="1347" d="M-10 35l823 1390q42 17 80 17q27 0 33 -27l288 -1415h-59q-35 0 -41 31l-74 381h-737l-242 -412h-49q-29 0 -29 16q0 8 7 19zM348 494h674l-168 858z" />
<glyph unicode="B" horiz-adv-x="1323" d="M193 299l221 1135h475q110 0 192.5 -30t129 -82t63.5 -119q9 -36 9 -73q0 -33 -7 -69q-47 -247 -301 -328q129 -33 187 -121q39 -60 38 -143q0 -39 -8 -82q-33 -169 -178.5 -278t-380.5 -109h-250q-127 0 -175 68q-28 40 -28 114q0 51 13 117zM285 313q-13 -65 -12 -109 q-1 -47 13 -73q28 -49 120 -49h245q188 0 306 82t145 221q7 38 7 71q-1 99 -65 156q-86 76 -288 76h-398zM375 770h381q187 0 295 76t135 215q6 29 6 56q0 92 -67 154q-86 81 -257 81h-381z" />
<glyph unicode="C" horiz-adv-x="1406" d="M196 440q-14 67 -14 141q0 87 19 183q26 131 82.5 244t132.5 194.5t167.5 140t188.5 87t193 28.5q188 0 311.5 -84t165.5 -219q3 -8 3 -14q0 -21 -26 -35q-29 -18 -63 -21q-38 140 -145 215.5t-263 75.5q-104 0 -208 -41t-194 -116t-158 -192t-95 -257q-18 -89 -17 -169 q0 -69 12 -129q28 -132 103 -224.5t186.5 -141.5t245.5 -49q204 0 367 88q11 -16 6 -43q-7 -39 -127.5 -83t-265.5 -44q-159 0 -287 56t-208.5 159.5t-111.5 249.5z" />
<glyph unicode="D" horiz-adv-x="1480" d="M193 299l221 1135h430q151 0 269.5 -49.5t192.5 -142.5q74 -94 102 -226q12 -60 13 -127q0 -81 -18 -172q-43 -218 -165.5 -382t-297 -249.5t-375.5 -85.5h-182q-127 0 -175 68q-28 40 -28 114q0 51 13 117zM285 313q-13 -65 -12 -109q-1 -47 13 -73q28 -49 120 -49h180 q123 0 239 41t214.5 118.5t171 200t102.5 275.5q15 85 15 159q0 62 -10 117q-24 119 -93 199t-168.5 120t-222.5 40h-347z" />
<glyph unicode="E" horiz-adv-x="1161" d="M193 299l221 1135h784q20 0 20 -17q0 -5 -1 -10q-4 -20 -19 -55h-711l-118 -607h573q20 0 26 -8.5t1 -31.5l-8 -41h-609l-67 -351q-13 -65 -12 -109q-1 -47 13 -73q28 -49 120 -49h534q20 0 26 -9t1 -32l-6 -41h-578q-127 0 -175 68q-28 40 -28 114q0 51 13 117z" />
<glyph unicode="F" horiz-adv-x="1116" d="M145 35l273 1399h784q20 0 20 -17q0 -5 -1 -10q-4 -20 -19 -55h-710l-119 -607h573q20 0 26 -8.5t1 -31.5l-8 -41h-609l-127 -664h-49q-24 0 -32 8q-5 5 -4 15q0 5 1 12z" />
<glyph unicode="G" horiz-adv-x="1533" d="M196 440q-14 67 -14 141q0 87 19 183q32 163 112 297t186 219.5t228.5 131.5t245.5 46q193 0 321.5 -84t171.5 -223q1 -5 1 -9q0 -23 -25 -36q-36 -19 -64 -21q-41 150 -153 220.5t-271 70.5q-105 0 -210 -41t-196 -116t-159.5 -192t-95.5 -257q-18 -91 -18 -172 q0 -67 13 -128q27 -132 101 -224t186 -140.5t248 -48.5q177 0 283 63.5t127 168.5l61 313h-356q-23 0 -20 27q5 24 18 55h428q20 0 26 -8.5t3 -32.5l-70 -348q-29 -153 -166 -236.5t-354 -83.5q-159 0 -287 56t-208.5 159.5t-111.5 249.5z" />
<glyph unicode="H" horiz-adv-x="1478" d="M145 35l271 1397q33 10 63 10q31 0 25 -25l-127 -657h856l131 674h49q23 0 30 -8q4 -5 4 -14q0 -6 -1 -13l-270 -1399h-50q-24 0 -31 7.5t-3 27.5l125 643h-857l-131 -678h-49q-24 0 -32 8q-5 5 -4 15q0 5 1 12z" />
<glyph unicode="I" horiz-adv-x="557" d="M158 35l270 1397q33 10 64 10q25 0 25 -17q0 -3 -1 -8l-274 -1417h-49q-23 0 -31 8q-5 5 -5 15q0 5 1 12z" />
<glyph unicode="J" horiz-adv-x="817" d="M-37 51q7 27 23 43q78 -37 200 -37q119 0 202.5 75.5t113.5 227.5l207 1072q33 10 63 10q26 0 26 -18q0 -3 -1 -7l-205 -1057q-36 -183 -142.5 -284t-279.5 -101q-48 0 -97.5 11t-81 29t-28.5 36z" />
<glyph unicode="K" horiz-adv-x="1343" d="M145 35l271 1397q33 10 63 10q31 0 25 -25l-152 -782q252 143 510 352.5t469 454.5q33 -7 49 -20q13 -11 13 -22q0 -16 -19 -40q-250 -291 -608 -549q73 -212 157 -388t160 -282q34 -48 61 -66t60 -18h25q3 -16 0 -32q-3 -19 -29.5 -34.5t-56.5 -15.5q-41 0 -70.5 21 t-66.5 72q-174 251 -314 690q-196 -135 -360 -226l-103 -532h-49q-24 0 -32 8q-5 5 -4 15q0 5 1 12z" />
<glyph unicode="L" horiz-adv-x="1114" d="M193 299l219 1133q33 10 63 10q31 0 25 -25l-215 -1104q-13 -65 -12 -109q-1 -47 13 -73q28 -49 120 -49h544q20 0 26 -9q3 -5 3 -14q0 -8 -2 -18l-6 -41h-588q-127 0 -175 68q-28 40 -28 114q0 51 13 117z" />
<glyph unicode="M" horiz-adv-x="1837" d="M86 35l418 1376q51 33 88 33q23 0 31 -25l319 -862l666 877h67q23 0 31 -8q5 -5 5 -17q0 -5 -1 -10l-115 -1399h-59q-23 0 -30.5 7.5t-4.5 27.5l113 1274l-631 -834q-17 -20 -47 -20h-57l-314 854l-393 -1309h-51q-25 0 -33 8q-5 4 -4 13q0 6 2 14z" />
<glyph unicode="N" horiz-adv-x="1470" d="M145 35l267 1374q51 33 86 33q23 0 32 -23l572 -1288l254 1303h49q23 0 30 -8q4 -5 4 -14q0 -6 -1 -13l-267 -1374q-51 -33 -86 -33q-21 0 -32 22l-572 1289l-252 -1303h-49q-24 0 -32 8q-5 5 -4 15q0 5 1 12z" />
<glyph unicode="O" horiz-adv-x="1576" d="M182 393q-10 57 -9 121q0 93 20 203q34 179 114 322.5t188 233.5t234 137.5t260 47.5t241.5 -46.5t181.5 -139.5q72 -94 96 -232q10 -58 10 -123q0 -92 -19 -200q-35 -179 -115.5 -322.5t-188.5 -234t-234.5 -138t-260.5 -47.5t-241.5 46.5t-180 139.5t-96.5 232z M277 432q19 -128 84 -211.5t159 -123.5t213 -40q86 0 170 24.5t163.5 76.5t144.5 127t115 181.5t75 233.5q19 109 19 200q0 54 -6 102q-18 128 -83.5 211t-160 123t-214.5 40q-109 0 -213 -40t-195 -117t-160 -202.5t-99 -283.5q-19 -108 -19 -198q0 -55 7 -103z" />
<glyph unicode="P" horiz-adv-x="1288" d="M145 35l273 1399h401q249 0 375 -137q92 -100 92 -257q0 -57 -12 -122q-25 -125 -87.5 -224.5t-150 -162.5t-191.5 -96.5t-216 -33.5q-175 0 -314 50l-86 -451h-49q-24 0 -32 8q-5 5 -4 15q0 5 1 12zM330 524q124 -41 313 -41q204 0 352.5 116t188.5 319q10 56 10 105 q0 45 -8 85q-18 82 -71 136t-131.5 81t-178.5 27h-313z" />
<glyph unicode="Q" horiz-adv-x="1576" d="M182 393q-9 57 -9 121q0 94 20 203q34 179 114 322.5t188 233.5t234 137.5t260 47.5t241.5 -46.5t181 -139.5t96.5 -232q10 -57 10 -123q0 -92 -19 -200q-48 -242 -172.5 -411.5t-298.5 -254.5q53 -136 109 -194t118 -58h31q4 -9 0 -35q-3 -17 -29 -32t-65 -15 q-72 0 -132.5 68.5t-113.5 230.5q-118 -41 -246 -41q-134 0 -241.5 46.5t-180 139.5t-96.5 232zM278 432q19 -128 84.5 -211.5t159 -123.5t211.5 -40q86 0 170 24.5t163.5 76.5t144.5 127t115 181.5t75 233.5q19 109 19 200q0 54 -6 102q-19 127 -84 210.5t-159.5 123.5 t-214.5 40q-109 0 -213 -40t-195 -117t-160 -202.5t-99 -283.5q-19 -107 -19 -196q0 -56 8 -105z" />
<glyph unicode="R" horiz-adv-x="1339" d="M145 35l273 1399h389q250 0 377 -132q94 -97 94 -249q0 -54 -12 -115q-38 -190 -163.5 -311.5t-299.5 -163.5q95 -215 201 -334q39 -45 64.5 -58.5t61.5 -13.5h21q3 -16 0 -32q-5 -21 -27 -35.5t-51 -14.5q-39 0 -74 23t-79 78q-112 137 -203 373q-54 -7 -94 -7 q-160 0 -299 50l-95 -492h-49q-24 0 -32 8q-5 5 -4 15q0 5 1 12zM338 565q122 -41 301 -41q204 0 351 109.5t186 304.5q10 53 10 99q0 130 -79 209q-107 106 -314 106h-301z" />
<glyph unicode="S" horiz-adv-x="1212" d="M143 109q4 24 23 43q156 -95 373 -95q185 0 296 77.5t134 201.5q5 28 5 54q0 88 -62 151q-82 81 -281 139q-207 60 -296 158q-67 74 -67 176q0 34 8 71q32 165 175.5 269t336.5 104q162 0 272.5 -69t149.5 -177q2 -7 2 -12q0 -22 -24 -37q-30 -17 -66 -20 q-35 114 -124.5 173.5t-225.5 59.5q-156 0 -267.5 -77t-137.5 -205q-6 -30 -6 -56q-1 -83 53 -141q70 -77 258 -137q115 -37 190.5 -74.5t128 -87t69.5 -112.5q9 -32 8 -70q0 -35 -7 -74q-32 -168 -177 -267.5t-360 -99.5q-63 0 -124.5 8.5t-108 22.5t-82 31t-53.5 36 q-14 15 -14 30q0 3 1 6z" />
<glyph unicode="T" horiz-adv-x="1236" d="M283 1378q6 32 20 56h997q20 0 26 -9q3 -5 3 -14q0 -8 -2 -18l-8 -41h-475l-262 -1352h-50q-24 0 -31 7.5t-3 27.5l256 1317h-451q-20 0 -20 20v6z" />
<glyph unicode="U" horiz-adv-x="1474" d="M242 596l161 836q33 10 64 10t25 -25l-162 -829q-15 -79 -15 -148q0 -140 62 -238q93 -146 289 -145.5t345.5 146t194.5 385.5l166 846h49q23 0 30 -8q4 -5 4 -14q0 -6 -1 -13l-156 -803q-55 -286 -232.5 -453.5t-416.5 -167.5q-238 -1 -350 167q-75 112 -75 278 q0 82 18 176z" />
<glyph unicode="V" horiz-adv-x="1437" d="M289 1407q45 31 76 31q11 0 16 -6.5t8 -22.5l266 -1292q211 271 412.5 610.5t370.5 706.5h51q23 0 29 -8q3 -4 3 -10q0 -8 -5 -19q-362 -781 -822 -1368q-14 -17 -24 -23t-27 -6h-65z" />
<glyph unicode="W" horiz-adv-x="2260" d="M301 1407q45 31 76 31q21 0 24 -29l160 -1298q382 554 701 1323h86q19 0 28 -7.5t10 -25.5l140 -1288q417 588 712 1321h56q23 0 29 -8q2 -3 2 -9q0 -8 -5 -20q-154 -377 -333 -706t-416 -662q-20 -29 -51 -29h-78l-139 1317q-276 -677 -697 -1288q-18 -29 -51 -29h-78z " />
<glyph unicode="X" horiz-adv-x="1380" d="M45 35q259 412 649 708l-364 641q38 54 67 54q14 0 27 -19l352 -620q360 276 586 635h53q28 0 28 -16q0 -8 -7 -19q-224 -358 -621 -668l391 -686q-37 -53 -67 -53q-17 0 -29 18l-379 664q-358 -267 -610 -674h-53q-30 0 -30 16q0 8 7 19z" />
<glyph unicode="Y" horiz-adv-x="1331" d="M276 1395q49 43 76 43q18 0 31 -25l307 -833q184 179 355 397.5t307 456.5h51q34 0 34 -18q0 -8 -7 -19q-138 -244 -324 -479.5t-397 -436.5l-93 -481h-49q-24 0 -31.5 7.5t-3.5 27.5l86 442z" />
<glyph unicode="Z" horiz-adv-x="1230" d="M66 68l1091 1284h-788q-24 0 -21 26q6 30 21 56h862q27 0 35 -17q9 -17 9 -37q0 -7 -1 -14l-1092 -1284h824q20 0 25.5 -8.5t0.5 -32.5l-6 -41h-915q-29 0 -37 16q-9 17 -9 38q0 7 1 14z" />
<glyph unicode="[" horiz-adv-x="849" d="M229 86l281 1450h469q23 0 20 -27q-5 -24 -18 -55h-395l-267 -1360q-24 -109 -15 -171t41 -84.5t97 -22.5h187q20 0 25.5 -8.5t0.5 -32.5l-8 -41h-227q-143 0 -185.5 80.5t-5.5 271.5z" />
<glyph unicode="\" horiz-adv-x="923" d="M203 1505q-6 37 37 37h47l524 -1730q6 -37 -37 -37h-47z" />
<glyph unicode="]" horiz-adv-x="849" d="M-68 -266l9 41q5 23 14 32t29 9h186q97 0 147.5 58t81.5 220l267 1360h-396q-4 26 2 55q3 27 29 27h428q24 0 31.5 -7.5t3.5 -27.5l-275 -1415q-37 -191 -111.5 -271.5t-217.5 -80.5h-228z" />
<glyph unicode="^" horiz-adv-x="1265" d="M229 811l396 623h63q23 0 33 -17l397 -624l-41 -29q-26 -17 -43 8l-366 584l-379 -604q-28 3 -53 20q-20 15 -7 39z" />
<glyph unicode="_" horiz-adv-x="1024" d="M-137 -293q5 24 18 55h979q20 0 26 -9t1 -32l-8 -40h-998q-25 0 -18 26z" />
<glyph unicode="`" horiz-adv-x="839" d="M440 1423q10 20 31 41q16 13 29 13q9 0 20 -15l225 -258l-34 -30q-12 -9 -19 -9t-18 11z" />
<glyph unicode="a" horiz-adv-x="1214" d="M102 324q32 164 164.5 257t325.5 93q194 0 352 -82l25 133q9 43 9 80q0 97 -60 153q-82 78 -246 78q-198 0 -338 -73q-10 16 -6 43q7 35 121 73.5t253 38.5q198 0 296 -104q71 -75 72 -197q0 -46 -11 -100l-105 -535q-6 -30 -6 -52q0 -26 8 -40q14 -28 54 -27h34 q2 -10 -2 -34q-3 -16 -28.5 -29.5t-59.5 -13.5q-58 0 -84 50q-15 28 -14 73q0 34 8 77l4 15q-78 -98 -199.5 -162t-254.5 -64q-174 1 -258 97q-62 71 -62 174q0 37 8 78zM193 324q-6 -32 -6 -60q-1 -82 51 -135q70 -72 190 -72q263 0 461 256l39 199q-68 38 -161.5 59 t-188.5 21q-154 0 -258 -73.5t-127 -194.5z" />
<glyph unicode="b" horiz-adv-x="1296" d="M201 473l198 1020q33 10 64 10q27 0 24 -24l-114 -592q95 105 224.5 168t256.5 63q196 0 297 -142q69 -97 69 -242q0 -66 -14 -142q-33 -165 -129.5 -306.5t-235 -226t-284.5 -84.5q-209 1 -304 135q-65 93 -65 229q0 63 13 134zM291 473q-12 -65 -12 -120 q0 -117 56 -190q83 -106 243 -106q179 0 337 158.5t201 378.5q13 68 13 127q1 121 -55 199q-82 116 -247 116q-118 0 -246.5 -68.5t-228.5 -187.5z" />
<glyph unicode="c" horiz-adv-x="1124" d="M153 324q-13 56 -13 120q0 66 14 140q24 123 85 225t144 169t182.5 103.5t202.5 36.5q137 0 229.5 -65t122.5 -160q3 -8 3 -15q0 -20 -23 -34q-34 -18 -66 -21q-25 99 -94.5 156t-187.5 57q-117 0 -222 -53.5t-182 -157.5t-104 -241q-13 -65 -13 -121q-1 -36 5 -69 q14 -84 52.5 -147.5t96 -105.5t125 -63t139.5 -21q157 0 283 66q11 -16 6 -43q-7 -33 -106.5 -69t-215.5 -36q-111 0 -206.5 40.5t-163 117.5t-93.5 191z" />
<glyph unicode="d" horiz-adv-x="1320" d="M137 502q25 125 86.5 237.5t147 196t197 133t229.5 49.5q100 0 183 -37t140 -102l101 516h49q24 1 32 -7q5 -5 4 -16q0 -5 -1 -12l-248 -1278q-6 -31 -6 -53q0 -25 7 -39q14 -28 54 -27h35q2 -10 -1 -34q-3 -16 -29 -29.5t-60 -13.5q-57 0 -83 50q-15 28 -15 73 q0 34 8 77l12 64q-87 -124 -214.5 -199.5t-268.5 -75.5q-204 -1 -304 141q-69 97 -69 243q0 66 14 143zM227 500q-13 -68 -13 -126q0 -121 56 -200q84 -117 252 -117q128 0 256.5 85t229.5 249l94 490q-59 77 -141.5 116t-178.5 39q-127 0 -244 -71t-199.5 -193.5 t-111.5 -271.5z" />
<glyph unicode="e" d="M147 557q25 125 88.5 231.5t149 178t185.5 111.5t200 40q188 0 284 -114q71 -83 72 -202q0 -43 -10 -91q-14 -73 -49 -136q-22 -41 -46 -54t-67 -13h-723q-5 -39 -5 -76q0 -154 86 -252q106 -122 278 -123q163 0 293 68q11 -16 6 -43q-5 -32 -103 -69.5t-221 -37.5 q-228 1 -348 163q-85 115 -85 276q0 67 15 143zM244 590h735q35 55 47 121q8 39 8 74q0 95 -56 161q-76 90 -228 90q-104 0 -207 -53.5t-184.5 -157t-114.5 -235.5z" />
<glyph unicode="f" horiz-adv-x="854" d="M193 1038q5 26 18 56h231l19 88q31 159 130.5 248.5t242.5 89.5q58 0 108.5 -13t75 -29.5t22.5 -29.5q-7 -27 -22 -45q-72 35 -191 35q-110 0 -180.5 -62t-93.5 -182l-21 -100h371q20 0 26 -9t1 -32l-6 -41h-406l-196 -1012h-50q-24 0 -31 7.5t-3 27.5l190 977h-215 q-12 0 -17 7q-4 5 -4 11q0 4 1 8z" />
<glyph unicode="g" horiz-adv-x="1300" d="M33 -244q32 170 241 279q-94 63 -132 183q-20 65 -20 142q0 66 15 142q25 125 86.5 237.5t147 196t197 133t229.5 49.5q100 0 183 -37t140 -102l23 115h49q24 0 32 -8q4 -4 4 -15q0 -5 -1 -12l-201 -1028q-45 -235 -238 -387t-469 -152q-144 0 -227 72q-64 55 -64 142 q0 24 5 50zM123 -244q-3 -16 -3 -31q0 -59 47 -100q59 -51 167 -51q234 0 399 128.5t203 322.5l43 225q-87 -124 -214.5 -199.5t-268.5 -75.5q-83 0 -150 25q-99 -51 -153.5 -110.5t-69.5 -133.5zM227 500q-13 -68 -13 -126q0 -121 56 -200q84 -117 252 -117q128 0 256.5 85 t229.5 249l94 490q-59 77 -141.5 116t-178.5 39q-127 0 -244 -71t-199.5 -193.5t-111.5 -271.5z" />
<glyph unicode="h" horiz-adv-x="1306" d="M121 35l282 1458q33 10 64 10q15 0 21 -6t4 -18l-103 -523q104 75 222 118.5t229 43.5q190 0 264 -118q47 -75 48 -188q0 -63 -15 -138l-99 -506q-4 -22 -4 -40q0 -26 9 -40q15 -24 53 -25h37q1 -7 -3 -34q-3 -16 -28.5 -29.5t-59.5 -13.5q-58 0 -85 44q-16 27 -16 71 q0 29 7 67l99 498q14 71 14 129q1 93 -35 149q-58 92 -213 92q-105 0 -220.5 -43t-219.5 -127l-168 -866h-49q-24 0 -32 8q-5 5 -4 15q0 5 1 12z" />
<glyph unicode="i" horiz-adv-x="514" d="M145 168l181 924q33 10 63 10q28 0 25 -25l-178 -909q-4 -23 -4 -41q0 -26 8 -40q14 -24 53 -24h37q2 -10 -2 -34q-3 -16 -28.5 -29.5t-59.5 -13.5q-58 0 -86 44q-17 27 -16 72q0 29 7 66zM377 1446q4 28 25.5 45.5t48.5 17.5t42 -19q11 -14 10 -33q0 -8 -1 -17 q-6 -29 -26.5 -46.5t-47.5 -17.5t-42 20q-11 14 -11 33q0 8 2 17z" />
<glyph unicode="j" horiz-adv-x="495" d="M-131 -379q103 75 168.5 174t87.5 213l211 1084q33 10 63 10q28 0 25 -25l-207 -1063q-37 -179 -141 -301q-39 -46 -80.5 -78.5t-67.5 -44.5q-19 -8 -29 -8q-5 0 -8 2q-8 5 -15 16t-7 21zM387 1446q4 28 25.5 45.5t48.5 17.5t42 -19q11 -14 11 -33q0 -8 -2 -17 q-6 -29 -26.5 -46.5t-47.5 -17.5t-42 20q-11 13 -11 33q0 8 2 17z" />
<glyph unicode="k" d="M121 35l282 1458q33 10 64 10q15 0 21 -6t4 -18l-189 -973q463 251 791 598q52 -16 52 -44q0 -3 -1 -7q0 -12 -15 -27q-213 -213 -509 -414q59 -143 132.5 -270.5t135.5 -200.5q36 -45 58 -61.5t48 -16.5h39q2 -10 -2 -34q-3 -15 -29 -29t-51 -14q-41 0 -74.5 21.5 t-76.5 82.5q-144 193 -258 473q-130 -82 -258 -149l-80 -414h-49q-24 0 -32 8q-5 5 -4 15q0 5 1 12z" />
<glyph unicode="l" horiz-adv-x="585" d="M160 240l243 1253q33 10 64 10q15 0 21 -6q4 -4 5 -12q0 -3 -1 -6l-242 -1239q-7 -35 -7 -62q0 -44 17 -69q27 -41 96 -41q70 0 125 22q11 -16 6 -43q-3 -19 -53 -40t-108 -21q-102 0 -146 62q-28 40 -29 108q0 38 9 84z" />
<glyph unicode="m" horiz-adv-x="1880" d="M121 35l205 1057q33 10 63 10q28 0 25 -25l-27 -137q85 83 187 130.5t202 47.5q104 0 173 -49t89 -143q97 91 207.5 141.5t218.5 50.5q150 0 223 -96q49 -64 49 -165q0 -50 -12 -109l-112 -580q-4 -23 -4 -41q0 -26 8 -40q14 -24 53 -24h37q2 -10 -2 -34 q-3 -16 -28.5 -29.5t-59.5 -13.5q-58 0 -85 44q-16 27 -16 71q0 29 7 67l112 577q11 55 11 99q1 78 -33 122q-52 70 -174 70q-86 0 -190 -49t-201 -145q-4 -66 -11 -94l-143 -748h-49q-24 0 -31.5 7.5t-3.5 27.5l137 710q11 55 11 99q1 78 -33 122q-52 70 -174 70 q-88 0 -187 -49t-196 -147l-162 -840h-49q-24 0 -32 8q-5 5 -4 15q0 5 1 12z" />
<glyph unicode="n" horiz-adv-x="1306" d="M121 35l205 1057q33 10 63 10q28 0 25 -25l-25 -121q104 75 222 118.5t229 43.5q190 0 264 -118q47 -75 48 -188q0 -63 -15 -138l-99 -506q-4 -22 -4 -40q0 -26 9 -40q15 -24 53 -25h37q1 -7 -3 -34q-3 -16 -28.5 -29.5t-59.5 -13.5q-58 0 -85 44q-16 27 -16 71 q0 29 7 67l99 498q14 71 14 129q1 93 -35 149q-58 92 -213 92q-105 0 -220.5 -43t-219.5 -127l-168 -866h-49q-24 0 -32 8q-5 5 -4 15q0 5 1 12z" />
<glyph unicode="o" horiz-adv-x="1286" d="M141 308q-10 49 -10 102q0 64 14 137q34 173 131.5 304.5t228 199t273.5 67.5q106 0 193 -39t143 -113q58 -74 78 -180q9 -47 8 -99q0 -66 -14 -140q-50 -259 -230.5 -415.5t-400.5 -156.5q-106 0 -193 39.5t-143.5 113.5t-77.5 180zM234 340q16 -94 66.5 -157t123 -94.5 t160.5 -31.5q110 0 213 52t185.5 163t111.5 263q13 73 13 135q-1 45 -7 84q-16 94 -66.5 156.5t-123 94t-160.5 31.5q-81 0 -161 -30.5t-150.5 -88.5t-123.5 -150.5t-75 -207.5q-13 -73 -14 -135q1 -45 8 -84z" />
<glyph unicode="p" horiz-adv-x="1300" d="M35 -401l291 1493q33 10 63 10q28 0 25 -25l-45 -233q87 123 214.5 198.5t268.5 75.5q204 0 304 -141q68 -97 68 -241q0 -67 -14 -144q-25 -125 -86 -237.5t-147 -196.5t-197 -133.5t-229 -49.5q-102 0 -186.5 36.5t-139.5 101.5l-106 -549h-49q-23 0 -30 8q-6 5 -6 17 q0 4 1 10zM246 211q121 -154 319 -154q192 0 351.5 155t203.5 382q13 68 13 126q0 121 -57 200q-83 116 -251 116q-127 0 -255.5 -85t-229.5 -249z" />
<glyph unicode="q" horiz-adv-x="1300" d="M137 502q25 125 86.5 237.5t147 196t197 133t229.5 49.5q100 0 183 -37t140 -102l23 115h49q24 0 32 -8q4 -4 4 -15q0 -5 -1 -12l-291 -1495h-49q-23 0 -30.5 7.5t-4.5 27.5l127 651q-87 -124 -214.5 -199.5t-268.5 -75.5q-204 0 -304 141q-69 98 -69 243q0 66 14 143z M227 500q-13 -68 -13 -126q0 -121 56 -200q84 -117 252 -117q128 0 256.5 85t229.5 249l94 490q-59 77 -141.5 116t-178.5 39q-127 0 -244 -71t-199.5 -193.5t-111.5 -271.5z" />
<glyph unicode="r" horiz-adv-x="874" d="M121 35l205 1057q33 10 63 10q28 0 25 -25l-31 -153q148 194 362 194q130 0 205 -53q18 -15 18 -28q0 -3 -1 -5q-3 -14 -17 -28q-23 -20 -49 -33q-68 65 -194 65q-96 0 -188.5 -67t-166.5 -201l-147 -768h-49q-24 0 -32 8q-5 5 -4 15q0 5 1 12z" />
<glyph unicode="s" horiz-adv-x="1017" d="M117 86q4 27 22 45q127 -74 291 -74q301 0 342 199q4 19 4 36q0 60 -42 104q-54 56 -199 93q-183 45 -259 127q-57 61 -57 150q0 29 6 61q25 129 139.5 210t272.5 81q125 0 212 -48.5t120 -129.5q3 -7 3 -14q0 -20 -26 -35q-24 -15 -61 -21q-24 80 -95.5 123t-171.5 43 q-111 0 -198 -59.5t-107 -157.5q-4 -20 -4 -38q-1 -65 47 -109q60 -56 226 -101q171 -46 237 -119q49 -54 49 -132q0 -27 -6 -58q-27 -135 -142 -211t-302 -76q-81 0 -155 20.5t-112 46.5t-34 44z" />
<glyph unicode="t" horiz-adv-x="913" d="M193 1038q5 26 18 56h211l61 311q30 10 64 10q28 0 22 -24l-57 -297h391q20 0 26 -9q3 -5 3 -14q0 -8 -2 -18l-6 -41h-426l-136 -690q-9 -46 -8 -84q0 -72 30 -115q48 -66 153 -66q109 0 198 41q12 -17 8 -43q-5 -25 -75 -52.5t-154 -27.5q-142 0 -208 90q-45 62 -45 157 q0 43 9 93l138 697h-195q-11 0 -17 7q-4 5 -4 11q0 4 1 8z" />
<glyph unicode="u" horiz-adv-x="1249" d="M182 461l123 631q33 10 64 10q27 0 24 -25l-121 -620q-11 -56 -11 -105q1 -110 57 -186q82 -108 235.5 -108.5t276.5 108t159 291.5l123 637h49q23 0 31 -8q5 -5 5 -15q0 -5 -1 -12l-117 -598q-42 -220 -194.5 -353t-347.5 -133q-193 0 -295 133q-72 94 -72 232 q0 57 12 121z" />
<glyph unicode="v" horiz-adv-x="1196" d="M221 1075q42 31 72 31q20 0 26 -29l209 -966q164 199 325 455t288 528h47q24 0 31 -8q3 -4 3 -10q0 -8 -5 -19q-273 -569 -650 -1028q-14 -17 -24 -23t-27 -6h-65z" />
<glyph unicode="w" horiz-adv-x="1785" d="M233 1077q45 31 76 31q22 0 25 -29l129 -964q145 207 267 439.5t241 539.5h69q19 0 28.5 -7.5t10.5 -25.5l144 -944q301 433 495 977h47q23 0 29 -8q3 -4 3 -11.5t-3 -17.5q-99 -276 -224 -520.5t-306 -505.5q-12 -18 -23 -24.5t-29 -6.5h-71l-133 954 q-191 -474 -504 -925q-20 -29 -51 -29h-70z" />
<glyph unicode="x" horiz-adv-x="1132" d="M27 35q170 275 495 512l-282 497q38 54 67 54q14 0 27 -19l266 -471q284 208 455 486h53q29 0 29 -16q0 -8 -7 -19q-175 -282 -491 -518l244 -426q32 -52 82 -52h26q2 -10 -2 -34q-3 -14 -28.5 -28.5t-53.5 -14.5q-34 0 -60 20.5t-54 67.5l-234 405q-296 -214 -457 -479 h-53q-29 0 -29 16q0 8 7 19z" />
<glyph unicode="y" horiz-adv-x="1282" d="M78 -240q28 158 219 263q-122 75 -122 256q0 64 15 141l132 672q33 10 63 10q28 0 25 -25l-127 -649q-14 -72 -14 -129q0 -92 35 -149q57 -93 212 -93q105 0 220.5 43t219.5 127l170 875h50q23 0 30 -8q5 -5 5 -16q0 -5 -1 -11l-202 -1036q-46 -240 -216.5 -389.5 t-426.5 -149.5q-150 0 -231 72q-62 56 -62 142q0 26 6 54zM168 -240q-4 -18 -4 -34q0 -59 47 -100q60 -52 168 -52q226 0 362 120t174 324l25 119q-104 -75 -222 -118.5t-229 -43.5q-52 0 -118 15q-178 -96 -203 -230z" />
<glyph unicode="z" horiz-adv-x="1026" d="M53 68l858 944h-632q-27 0 -21 26q5 26 18 56h707q29 0 37 -17q8 -16 8 -51l-858 -944h655q20 0 26 -9t1 -32l-6 -41h-748q-29 0 -37 16q-9 17 -9 38q0 7 1 14z" />
<glyph unicode="{" horiz-adv-x="815" d="M186 629l11 47q110 0 177.5 74.5t88.5 183.5l51 262q32 170 139.5 255t259.5 85h37q24 0 21 -27q-4 -20 -19 -55h-69q-102 0 -178.5 -67t-98.5 -179l-51 -262q-23 -121 -76 -197t-143 -114q74 -38 98 -114.5t0 -196.5l-51 -263q-22 -112 28 -178.5t152 -66.5h49 q20 0 26 -9t1 -32l-8 -41h-68q-152 0 -226 85t-42 255l51 262q21 101 -10.5 171t-114.5 83q-25 5 -31.5 12t-3.5 27z" />
<glyph unicode="|" horiz-adv-x="630" d="M307 -375v1940q30 10 62 10q28 0 28 -25v-1960h-49q-23 0 -32 7.5t-9 27.5z" />
<glyph unicode="}" horiz-adv-x="815" d="M-84 -266l6 41q5 23 14 32t29 9h49q102 0 177.5 66.5t97.5 178.5l51 263q23 121 77 197t144 114q-146 74 -100 311l51 262q22 112 -27 179t-151 67h-70q-4 26 2 55q3 27 29 27h37q152 0 226 -85t42 -255l-51 -262q-12 -48 -6.5 -94.5t22 -83t56 -58.5t96.5 -22l-10 -47 q-3 -20 -13 -27t-39 -12q-86 -13 -144 -82.5t-79 -171.5l-51 -262q-32 -170 -139.5 -255t-259.5 -85h-66z" />
<glyph unicode="~" horiz-adv-x="1372" d="M242 623q28 100 97 157.5t163 57.5q126 0 246 -103q66 -55 108 -75.5t90 -20.5q62 0 110 51t68 146l66 -15q24 -6 18 -30q-26 -110 -95.5 -172t-168.5 -62q-127 0 -246 102q-66 55 -108.5 76t-89.5 21q-62 0 -110 -51t-68 -146q-38 -4 -66 12q-23 13 -14 52z" />
<glyph unicode="&#xa1;" horiz-adv-x="544" d="M76 -324l49 256q63 322 176 809h33q19 0 23.5 -7t2.5 -27q-68 -440 -133 -775l-53 -270q-33 -10 -70 -10q-19 0 -25 5t-3 19zM332 1055q4 28 25.5 45.5t48.5 17.5t42 -19t9 -50q-6 -29 -26.5 -46.5t-47.5 -17.5t-42 19.5t-9 50.5z" />
<glyph unicode="&#xa2;" horiz-adv-x="1124" d="M147.5 354q-16.5 102 6.5 230q43 225 200 367.5t355 162.5l41 207q30 10 63 10q15 0 21 -6t4 -18l-39 -191q124 -7 208.5 -71t112.5 -152q11 -31 -20 -49q-34 -18 -66 -21q-25 99 -94.5 156t-187.5 57q-117 0 -222 -53.5t-182 -157.5t-104 -241q-21 -106 -7.5 -190 t51.5 -147.5t95.5 -105.5t124 -63t137.5 -21q151 0 283 66q11 -16 6 -43q-7 -33 -105 -69t-213 -36h-22l-39 -204h-49q-23 0 -30.5 7t-4.5 27l35 183q-92 18 -166 65t-125 123t-67.5 178z" />
<glyph unicode="&#xa3;" horiz-adv-x="1220" d="M78 41l8 35q72 59 111 118t61 164l53 279h-123q-23 0 -20 27q7 29 18 47h140l57 290q42 215 175.5 336t309.5 121q143 0 237 -82.5t116 -220.5q7 -33 -21 -49q-30 -16 -67 -19q-36 289 -283 289q-135 0 -239 -97t-136 -265l-59 -303h499q20 0 26 -9t1 -32l-6 -33h-535 l-51 -264q-41 -202 -151 -291h821q20 0 26 -9t1 -32l-7 -41h-934q-20 0 -26 9t-2 32z" />
<glyph unicode="&#xa4;" horiz-adv-x="1417" d="M197 1165q7 24 30 47q19 20 37 2l182 -186q130 105 299 105q170 0 297 -105l191 193q22 -6 47 -31q20 -20 2 -37l-180 -184q104 -123 104 -289q0 -168 -102 -291l190 -194q-7 -25 -30 -48q-20 -19 -37 -2l-185 185q-125 -103 -297 -103q-169 0 -296 105l-191 -193 q-22 6 -47 31q-19 20 -2 37l180 184q-104 123 -104 289q0 170 102 291zM367 694q0 -120 56 -211.5t144.5 -136.5t192.5 -45q93 0 175.5 44t135.5 129.5t53 191.5q0 120 -56 211.5t-144.5 136.5t-192.5 45q-93 0 -175.5 -44t-135.5 -129.5t-53 -191.5z" />
<glyph unicode="&#xa5;" horiz-adv-x="1341" d="M276 1395q49 43 76 43q18 0 31 -25l348 -696q168 143 339.5 336t293.5 381h51q52 0 27 -37q-137 -205 -320 -412t-372 -362l-5 -21h271q20 0 25.5 -8.5t0.5 -32.5l-6 -33h-305l-18 -90h270q20 0 26 -9t1 -32l-6 -32h-306l-69 -365h-49q-24 0 -31.5 7.5t-3.5 27.5l63 330 h-286q-26 0 -19 26q3 26 16 47h304l18 90h-287q-23 0 -20 27q7 29 18 47h303l2 19z" />
<glyph unicode="&#xa6;" horiz-adv-x="630" d="M307 -252v660q30 10 62 10q28 0 28 -25v-680h-49q-23 0 -32 7.5t-9 27.5zM307 782v660q30 10 62 10q28 0 28 -25v-679h-49q-24 0 -32.5 7t-8.5 27z" />
<glyph unicode="&#xa7;" horiz-adv-x="1030" d="M80 -96q9 32 24 45q124 -72 291 -72q301 0 342 199q16 84 -38.5 142.5t-198.5 90.5q-192 42 -265 119.5t-49 202.5q17 88 81 154.5t165 103.5q-176 101 -141 278q26 129 139.5 210t271.5 81q125 0 212 -48.5t120 -129.5q12 -28 -22 -49q-24 -14 -62 -21q-23 80 -94 123 t-172 43q-112 0 -198.5 -59.5t-104.5 -157.5q-19 -91 41 -146.5t225 -101.5q174 -50 239 -122.5t42 -192.5q-34 -169 -236 -258q88 -44 120 -105.5t15 -150.5q-27 -135 -142 -211t-302 -76q-83 0 -157 20t-111.5 45.5t-34.5 43.5zM274 629q-18 -93 54 -152.5t266 -101.5 q103 30 167.5 90.5t76.5 130.5q19 93 -53 152.5t-267 101.5q-102 -30 -166 -90.5t-78 -130.5z" />
<glyph unicode="&#xa8;" horiz-adv-x="839" d="M365 1323q6 29 26.5 47.5t46.5 18.5q27 0 43.5 -19.5t10.5 -50.5q-6 -29 -27.5 -47.5t-48.5 -18.5t-42 19.5t-9 50.5zM696 1323q6 29 27 47.5t47 18.5q27 0 43 -19.5t10 -50.5q-6 -29 -27.5 -47.5t-47.5 -18.5q-27 0 -42.5 19.5t-9.5 50.5z" />
<glyph unicode="&#xa9;" horiz-adv-x="1687" d="M139 717q0 202 99.5 372.5t270 269.5t372.5 99q151 0 288.5 -58.5t236.5 -157.5t157.5 -236.5t58.5 -288.5q0 -202 -99 -372.5t-269.5 -270t-372.5 -99.5t-372.5 99.5t-270 270t-99.5 372.5zM217 717q0 -182 88.5 -336t241.5 -244t334 -90t334 90t241 244t88 336 q0 136 -52 260t-140.5 213.5t-211.5 142.5t-259 53t-259 -53t-211.5 -142.5t-141 -213.5t-52.5 -260zM537 743q0 164 98 266.5t254 102.5q90 0 159 -36t109 -97q10 -17 10 -31q0 -12 -16 -22q-24 -14 -49 -17q-61 133 -217 133q-117 0 -194 -82t-77 -215q0 -157 98 -255.5 t251 -98.5q46 0 95.5 11.5t80.5 31.5q10 -17 10 -37q0 -24 -66.5 -49.5t-150.5 -25.5q-79 0 -150.5 30t-126 83.5t-86.5 133.5t-32 174z" />
<glyph unicode="&#xaa;" horiz-adv-x="901" d="M186 883q23 116 123 184t236 68q147 0 246 -58l16 88q20 104 -32.5 159.5t-174.5 55.5q-133 0 -248 -51q-9 16 -6 39q3 13 40 32t103 34.5t136 15.5q148 0 217 -75.5t43 -215.5l-72 -360q-16 -84 39 -84h25q6 -12 0 -37q-3 -11 -24.5 -21t-45.5 -10q-45 0 -66 34.5 t-8 106.5l2 3q-53 -66 -137.5 -109t-173.5 -43q-124 0 -191 69t-47 175zM264 883q-16 -83 35 -128.5t139 -45.5q181 0 316 182l22 117q-88 57 -244 57q-104 0 -177.5 -48.5t-90.5 -133.5z" />
<glyph unicode="&#xab;" horiz-adv-x="1187" d="M188 637l5 25l497 311q27 18 43 18q17 0 12 -30q-8 -32 -18 -52l-440 -270l321 -260q20 -16 15 -39l-15 -74l-405 336q-20 16 -15 35zM588 637l4 25l498 311q27 18 43 18q17 0 12 -30q-7 -28 -19 -52l-440 -270l322 -260q19 -16 14 -39l-14 -74l-406 336q-19 16 -14 35z " />
<glyph unicode="&#xac;" horiz-adv-x="1372" d="M233 862q0 25 9 56h915q20 0 27.5 -9t7.5 -32v-504h-49q-23 0 -32 7.5t-9 27.5v428h-844q-25 0 -25 26z" />
<glyph unicode="&#xad;" horiz-adv-x="1003" d="M256 666q5 24 18 55h543q20 0 26 -9t1 -32l-8 -41h-562q-25 0 -18 27z" />
<glyph unicode="&#xae;" horiz-adv-x="1687" d="M139 717q0 202 99.5 372.5t270 269.5t372.5 99q151 0 288.5 -58.5t236.5 -157.5t157.5 -236.5t58.5 -288.5q0 -202 -99 -372.5t-269.5 -270t-372.5 -99.5t-372.5 99.5t-270 270t-99.5 372.5zM217 717q0 -182 88.5 -336t241.5 -244t334 -90t334 90t241 244t88 336 q0 136 -52 260t-140.5 213.5t-211.5 142.5t-259 53t-259 -53t-211.5 -142.5t-141 -213.5t-52.5 -260zM621 358v754h249q145 0 227.5 -69.5t82.5 -192.5q0 -97 -47.5 -164.5t-135.5 -93.5q49 -88 119 -164q20 -21 34.5 -28t37.5 -7h16q6 -18 6 -31q0 -17 -18 -28.5t-43 -11.5 q-43 0 -102 67q-67 75 -125 189q-21 -3 -43 -3q-102 0 -181 23v-264h-47q-30 0 -30 24zM698 664q78 -19 160 -19q122 0 183 53t61 152q0 89 -61 140.5t-164 51.5h-179v-378z" />
<glyph unicode="&#xaf;" horiz-adv-x="839" d="M322 1311q3 26 16 47h498q20 0 25.5 -8.5t0.5 -32.5l-6 -33h-516q-25 0 -18 27z" />
<glyph unicode="&#xb0;" horiz-adv-x="819" d="M147 1161q0 127 84.5 212t214.5 85t214.5 -85t84.5 -212t-84.5 -212t-214.5 -85t-214.5 85t-84.5 212zM225 1167q0 -108 67 -170.5t161 -62.5q91 0 153 60t62 161q0 108 -67 171t-161 63q-91 0 -153 -60.5t-62 -161.5z" />
<glyph unicode="&#xb1;" horiz-adv-x="1372" d="M233 27q0 23 9 55h936q20 0 27 -8.5t7 -32.5v-41h-954q-25 0 -25 27zM233 817q0 23 9 55h436v445q30 10 61 10q29 0 29 -24v-431h410q20 0 27 -8.5t7 -32.5v-40h-444v-455h-49q-23 0 -32 7.5t-9 27.5v420h-420q-25 0 -25 26z" />
<glyph unicode="&#xb2;" horiz-adv-x="802" d="M168 647q235 112 391.5 248.5t181.5 267.5q21 101 -26.5 157t-128.5 56q-155 0 -256 -168q-25 0 -51 15q-16 10 -13 24q0 10 10 23q56 83 142 131.5t182 48.5q127 0 187.5 -79t35.5 -202q-18 -95 -92 -193t-175 -176t-226 -145h372q15 0 19.5 -5.5t1.5 -22.5l-8 -45h-508 q-27 0 -35 18q-7 24 -4 47z" />
<glyph unicode="&#xb3;" horiz-adv-x="802" d="M139 662q5 21 21 43q44 -30 108.5 -48t128.5 -18q116 0 190.5 48.5t88.5 123.5q20 97 -33 149t-186 74q-19 3 -25 17q-7 14 -4 36l303 273h-420q-22 0 -16 22q5 28 18 52h488q25 0 33 -19q7 -24 4 -47l-310 -278q273 -58 232 -275q-23 -114 -128.5 -182t-246.5 -68 q-46 0 -87.5 7t-70.5 18t-50 24.5t-30.5 25.5t-7.5 22z" />
<glyph unicode="&#xb4;" horiz-adv-x="839" d="M397 1204l324 258q19 15 29 15t20 -13q10 -10 18 -41l-331 -247q-16 -11 -23 -11q-8 0 -14 9z" />
<glyph unicode="&#xb5;" horiz-adv-x="1286" d="M29 -432l297 1524q33 10 63 10q28 0 25 -25l-160 -819q69 -97 168.5 -149t206.5 -52q158 0 257 93t134 278l129 666h49q24 0 31.5 -7.5t3.5 -27.5l-125 -639q-39 -206 -165.5 -325.5t-319.5 -119.5q-117 0 -219 50.5t-168 136.5l-123 -629h-50q-23 0 -30 7.5t-4 27.5z " />
<glyph unicode="&#xb6;" horiz-adv-x="1157" d="M160 1092q0 106 58 185.5t148.5 118t198.5 38.5h494q22 0 29.5 -10t7.5 -38v-34h-170v-1620h-43q-28 0 -37.5 7.5t-9.5 29.5v1583h-172v-1620h-43q-28 0 -38 7.5t-10 29.5v981q-174 0 -293.5 91.5t-119.5 250.5z" />
<glyph unicode="&#xb7;" horiz-adv-x="671" d="M322 682q6 29 26.5 47.5t46.5 18.5q27 0 43.5 -19.5t10.5 -50.5q-6 -29 -27 -47.5t-47 -18.5q-27 0 -43 19.5t-10 50.5z" />
<glyph unicode="&#xb8;" horiz-adv-x="839" d="M68 -465l8 37q3 19 13 23.5t30 -1.5q40 -12 86 -12q72 0 117.5 28t54.5 79q11 59 -38.5 95.5t-158.5 45.5q-21 12 -18 25q0 6 6 12l98 133h84l-88 -119q107 -13 157.5 -64t35.5 -128q-17 -85 -84.5 -130.5t-171.5 -45.5q-76 0 -131 22z" />
<glyph unicode="&#xb9;" horiz-adv-x="802" d="M311 1249q3 11 15 17l297 168h43q30 0 24 -27l-160 -825h-53q-30 0 -24 26l143 731l-254 -143q-17 12 -27 31q-7 14 -4 22z" />
<glyph unicode="&#xba;" horiz-adv-x="901" d="M193 868q-15 76 4 176q37 191 166 298.5t286 107.5q75 0 137 -26t104.5 -77t58 -127t-2.5 -176q-25 -129 -97 -223t-164 -138t-193 -44q-75 0 -136.5 25.5t-104.5 76.5t-58 127zM274 1053q-30 -156 39 -250t201 -94q78 0 149.5 36.5t127 112t75.5 178.5 q30 157 -37.5 250.5t-199.5 93.5q-121 0 -222.5 -87t-132.5 -240z" />
<glyph unicode="&#xbb;" horiz-adv-x="1187" d="M119 266l14 74q5 25 27 39l424 260l-334 270q-4 26 2 52q5 30 24 30q14 0 35 -18l375 -311l-4 -25q-5 -21 -27 -35zM518 266l14 74q5 25 27 39l424 260l-334 270q-4 26 2 52q5 30 25 30q14 0 35 -18l374 -311l-4 -25q-6 -22 -26 -35z" />
<glyph unicode="&#xbc;" horiz-adv-x="1884" d="M311 1249q3 11 15 17l297 168h43q30 0 24 -27l-160 -825h-53q-30 0 -24 26l143 731l-254 -143q-17 12 -27 31q-7 14 -4 22zM518.5 11q-6.5 11 3.5 26l858 1397h37q23 0 29 -11t-4 -26l-856 -1397h-37q-24 0 -30.5 11zM1124 246q93 181 237.5 338.5t311.5 263.5 q43 14 74 14q35 0 27 -31l-111 -577h92q15 0 19.5 -6t1.5 -23l-9 -45h-118l-35 -180h-53q-31 0 -25 27l31 153h-404q-27 0 -35 19q-7 24 -4 47zM1217 254h364l98 514q-131 -88 -258 -227t-204 -287z" />
<glyph unicode="&#xbd;" horiz-adv-x="1884" d="M311 1249q3 11 15 17l297 168h43q30 0 24 -27l-160 -825h-53q-30 0 -24 26l143 731l-254 -143q-17 12 -27 31q-7 14 -4 22zM518.5 11q-6.5 11 3.5 26l858 1397h37q23 0 29 -11t-4 -26l-856 -1397h-37q-24 0 -30.5 11zM1137 66q-3 -24 4 -48q8 -18 35 -18h507l9 45 q3 17 -2.5 23t-20.5 6h-373q194 103 331 238t165 276q25 123 -35.5 201.5t-187.5 78.5q-96 0 -182 -48.5t-142 -131.5q-10 -13 -10 -22q-3 -15 10 -25q28 -14 53 -14q101 168 256 168q81 0 128 -56t28 -157q-27 -131 -183 -267t-390 -249z" />
<glyph unicode="&#xbe;" horiz-adv-x="1884" d="M139 662q-2 -10 7.5 -22t30.5 -25.5t50 -24.5t70.5 -18t87.5 -7q141 0 246.5 68t128.5 182q41 217 -232 275l310 278q3 23 -4 47q-8 19 -33 19h-488q-13 -24 -18 -52q-6 -22 16 -22h420l-303 -273q-3 -22 4 -36q6 -14 25 -17q133 -22 186 -74t33 -149 q-14 -75 -88.5 -123.5t-190.5 -48.5q-64 0 -128.5 18t-108.5 48q-16 -22 -21 -43zM518.5 11q-6.5 11 3.5 26l858 1397h37q23 0 29 -11t-4 -26l-856 -1397h-37q-24 0 -30.5 11zM1124 246q93 181 237.5 338.5t311.5 263.5q43 14 74 14q35 0 27 -31l-111 -577h92q15 0 19.5 -6 t1.5 -23l-9 -45h-118l-35 -180h-53q-31 0 -25 27l31 153h-404q-27 0 -35 19q-7 24 -4 47zM1217 254h364l98 514q-131 -88 -258 -227t-204 -287z" />
<glyph unicode="&#xbf;" horiz-adv-x="1134" d="M68 18q-32 -167 63 -275t275 -108q161 0 292 82.5t211 219.5q11 19 13 24q3 15 -15 27q-19 16 -57 20q-76 -146 -185 -218.5t-241 -72.5q-138 0 -215 83t-51 218q20 102 82.5 181t185.5 159q131 89 185.5 159t70.5 153l8 37q3 20 -4.5 27t-30.5 7h-49l-14 -69 q-13 -69 -55 -120.5t-164 -135.5q-137 -93 -209 -185t-96 -213zM649 1055q4 28 25.5 45.5t48.5 17.5t42 -19t9 -50q-6 -29 -26.5 -46.5t-47.5 -17.5t-42 19.5t-9 50.5z" />
<glyph unicode="&#xc0;" horiz-adv-x="1347" d="M-10 35l823 1390q42 17 80 17q27 0 33 -27l288 -1415h-59q-35 0 -41 31l-74 381h-737l-242 -412h-49q-43 0 -22 35zM348 494h674l-168 858zM731 1821q18 29 33 41t27 12q11 0 22 -14l225 -258l-34 -31q-11 -8 -19 -8t-18 10z" />
<glyph unicode="&#xc1;" horiz-adv-x="1347" d="M-10 35l823 1390q42 17 80 17q27 0 33 -27l288 -1415h-59q-35 0 -41 31l-74 381h-737l-242 -412h-49q-43 0 -22 35zM348 494h674l-168 858zM764 1604l323 258q17 14 29 14t21 -12q12 -12 16 -41l-330 -248q-15 -10 -22 -10q-10 0 -15 8z" />
<glyph unicode="&#xc2;" horiz-adv-x="1347" d="M-10 35l823 1390q42 17 80 17q27 0 33 -27l288 -1415h-59q-35 0 -41 31l-74 381h-737l-242 -412h-49q-43 0 -22 35zM348 494h674l-168 858zM610 1602q0 9 19 24l297 246h22q23 0 31 -10l217 -265l-45 -41q-8 -8 -16 -8t-19 11l-184 227l-279 -234q-25 10 -37 25 q-9 12 -6 25z" />
<glyph unicode="&#xc3;" horiz-adv-x="1347" d="M-10 35l823 1390q42 17 80 17q27 0 33 -27l288 -1415h-59q-35 0 -41 31l-74 381h-737l-242 -412h-49q-43 0 -22 35zM348 494h674l-168 858zM625 1657q3 22 22 57q57 109 166 109q85 0 137 -76q48 -66 94 -66q38 0 62.5 27.5t48.5 106.5l51 -11q23 -6 13 -41 q-54 -151 -187 -151q-83 0 -135 76q-47 65 -94 65q-38 0 -63.5 -28t-47.5 -105q-43 0 -59 8q-14 7 -8 29z" />
<glyph unicode="&#xc4;" horiz-adv-x="1347" d="M-10 35l823 1390q42 17 80 17q27 0 33 -27l288 -1415h-59q-35 0 -41 31l-74 381h-737l-242 -412h-49q-43 0 -22 35zM348 494h674l-168 858zM696 1720q4 29 25.5 47.5t48.5 18.5t42 -19.5t9 -50.5q-4 -29 -25 -47t-48 -18t-42.5 19t-9.5 50zM1028 1720q4 29 25.5 47.5 t48.5 18.5t42 -19.5t9 -50.5q-4 -29 -25.5 -47t-48.5 -18t-42 19t-9 50z" />
<glyph unicode="&#xc5;" horiz-adv-x="1347" d="M-10 35l823 1390q42 17 80 17q27 0 33 -27l288 -1415h-59q-35 0 -41 31l-74 381h-737l-242 -412h-49q-43 0 -22 35zM348 494h674l-168 858zM735 1718q13 77 80 130t146 53q78 0 123 -52.5t32 -130.5q-15 -77 -81.5 -129.5t-145.5 -52.5t-124 52.5t-30 129.5zM809 1724 q-10 -57 17.5 -89.5t82.5 -32.5q46 0 84 31.5t47 78.5q10 58 -16.5 90.5t-81.5 32.5q-46 0 -85 -32t-48 -79z" />
<glyph unicode="&#xc6;" horiz-adv-x="1777" d="M-35 35l987 1376q54 23 125 23h738q25 0 18 -27q-5 -24 -18 -55h-721l-119 -607h584q20 0 25.5 -8.5t0.5 -31.5l-8 -41h-619l-67 -351q-26 -133 1.5 -182t119.5 -49h544q20 0 26 -9t1 -32l-6 -41h-588q-127 0 -175 68t-15 231l22 113h-489l-295 -412h-49q-44 0 -23 35z M389 494h447l168 858z" />
<glyph unicode="&#xc7;" horiz-adv-x="1406" d="M201 764q26 131 82.5 244t132.5 194.5t167.5 140t188.5 87t193 28.5q188 0 311.5 -84t165.5 -219q11 -31 -23 -49q-29 -18 -63 -21q-38 140 -145 215.5t-263 75.5q-104 0 -208 -41t-194 -116t-158 -192t-95 -257q-33 -166 -4.5 -298.5t103 -224.5t186 -141t245.5 -49 q204 0 367 88q11 -16 6 -43q-7 -39 -127.5 -83t-265.5 -44h-23l-69 -94q107 -13 157 -64t35 -128q-17 -85 -84.5 -130.5t-171.5 -45.5q-76 0 -131 22l8 37q3 19 13 23.5t30 -1.5q40 -12 86 -12q72 0 117.5 28t54.5 79q11 59 -38 95.5t-158 45.5q-22 13 -19 25q0 6 6 12 l84 115q-281 36 -421.5 247.5t-77.5 534.5z" />
<glyph unicode="&#xc8;" horiz-adv-x="1161" d="M193 299q-33 -163 15 -231t175 -68h578l6 41q5 23 -1 32t-26 9h-534q-92 0 -119.5 49t-1.5 182l67 351h609l8 41q5 23 -1 31.5t-26 8.5h-573l118 607h711q15 35 19 55q7 27 -19 27h-784zM690 1821q18 29 33 41t27 12t22 -14l225 -258l-34 -31q-11 -8 -19 -8t-18 10z" />
<glyph unicode="&#xc9;" horiz-adv-x="1161" d="M193 299l221 1135h784q26 0 19 -27q-4 -20 -19 -55h-711l-118 -607h573q20 0 26 -8.5t1 -31.5l-8 -41h-609l-67 -351q-26 -133 1.5 -182t119.5 -49h534q20 0 26 -9t1 -32l-6 -41h-578q-127 0 -175 68t-15 231zM678 1602l323 258q18 14 27 14q14 0 23 -12q13 -17 16 -41 l-330 -248q-15 -10 -22 -10q-10 0 -15 8z" />
<glyph unicode="&#xca;" horiz-adv-x="1161" d="M193 299q-33 -163 15 -231t175 -68h578l6 41q5 23 -1 32t-26 9h-534q-92 0 -119.5 49t-1.5 182l67 351h609l8 41q5 23 -1 31.5t-26 8.5h-573l118 607h711q15 35 19 55q7 27 -19 27h-784zM555 1602q0 10 18 24l297 246h23q23 0 31 -10l217 -265l-45 -41q-8 -8 -17 -8 q-7 0 -18 11l-184 227l-279 -234q-25 10 -37 25q-9 12 -6 25z" />
<glyph unicode="&#xcb;" horiz-adv-x="1161" d="M193 299q-33 -163 15 -231t175 -68h578l6 41q5 23 -1 32t-26 9h-534q-92 0 -119.5 49t-1.5 182l67 351h609l8 41q5 23 -1 31.5t-26 8.5h-573l118 607h711q15 35 19 55q7 27 -19 27h-784zM635 1720q4 29 25.5 47.5t48.5 18.5t42 -19.5t9 -50.5q-4 -29 -25.5 -47t-48.5 -18 t-42 19t-9 50zM967 1720q4 29 25 47.5t48 18.5t42.5 -19.5t9.5 -50.5q-4 -29 -25.5 -47t-48.5 -18t-42 19t-9 50z" />
<glyph unicode="&#xcc;" horiz-adv-x="557" d="M158 35l270 1397q33 10 64 10q30 0 24 -25l-274 -1417h-49q-24 0 -31.5 7.5t-3.5 27.5zM297 1821q18 29 33 41t26 12q12 0 23 -14l225 -258l-35 -31q-11 -8 -18 -8q-9 0 -19 10z" />
<glyph unicode="&#xcd;" horiz-adv-x="557" d="M158 35l270 1397q33 10 64 10q30 0 24 -25l-274 -1417h-49q-24 0 -31.5 7.5t-3.5 27.5zM412 1602l323 258q17 14 27 14q13 0 22 -12q14 -19 17 -41l-330 -248q-15 -10 -22 -10q-10 0 -15 8z" />
<glyph unicode="&#xce;" horiz-adv-x="557" d="M158 35l270 1397q33 10 64 10q30 0 24 -25l-274 -1417h-49q-24 0 -31.5 7.5t-3.5 27.5zM215 1602q0 10 18 24l297 246h23q23 0 31 -10l217 -265l-45 -41q-8 -8 -17 -8q-7 0 -18 11l-184 227l-279 -234q-25 10 -37 25q-9 12 -6 25z" />
<glyph unicode="&#xcf;" horiz-adv-x="557" d="M158 35l270 1397q33 10 64 10q30 0 24 -25l-274 -1417h-49q-24 0 -31.5 7.5t-3.5 27.5zM301 1720q4 29 25.5 47.5t48.5 18.5t42 -19.5t9 -50.5q-4 -29 -25.5 -47t-48.5 -18t-42 19t-9 50zM633 1720q4 29 25.5 47.5t48.5 18.5t42 -19.5t9 -50.5q-4 -29 -25.5 -47 t-48.5 -18t-42 19t-9 50z" />
<glyph unicode="&#xd0;" horiz-adv-x="1480" d="M127 707q3 26 16 47h138l133 680h430q151 0 269.5 -49.5t193 -142.5t102 -225.5t-5.5 -299.5q-43 -218 -165.5 -382t-297 -249.5t-375.5 -85.5h-182q-127 0 -175 68t-15 231l73 381h-121q-25 0 -18 27zM285 313q-26 -133 1.5 -182t119.5 -49h180q123 0 239 41 t214.5 118.5t171 200t102.5 275.5q28 157 4.5 276t-92.5 199t-168.5 120t-222.5 40h-347l-116 -598h475q20 0 25.5 -8.5t0.5 -32.5l-6 -33h-510z" />
<glyph unicode="&#xd1;" horiz-adv-x="1470" d="M145 35l267 1374q51 33 86 33q23 0 32 -23l572 -1288l254 1303h49q23 0 30 -7.5t3 -27.5l-267 -1374q-51 -33 -86 -33q-21 0 -32 22l-572 1289l-252 -1303h-49q-24 0 -31.5 7.5t-3.5 27.5zM690 1657q3 20 23 57q57 109 166 109q85 0 137 -76q48 -66 94 -66 q38 0 62.5 27.5t48.5 106.5l51 -11q12 -3 15 -12t-3 -29q-54 -151 -186 -151q-83 0 -135 76q-47 65 -95 65q-38 0 -63 -27.5t-47 -105.5q-44 0 -60 8q-14 7 -8 29z" />
<glyph unicode="&#xd2;" horiz-adv-x="1576" d="M182.5 393q23.5 -139 96 -232t180 -139.5t241.5 -46.5t260.5 47.5t234.5 138t188.5 234t115.5 322.5q33 185 9.5 323.5t-97 231.5t-181 139.5t-241.5 46.5t-260 -47.5t-234 -137.5t-188 -233.5t-114 -322.5q-34 -185 -10.5 -324zM277 431.5q-19 127.5 12 301.5 q30 158 99 283.5t160 202.5t195 117t213 40q120 0 214.5 -40t159.5 -123.5t83.5 -211t-12.5 -301.5q-25 -127 -75 -233.5t-115 -181.5t-144.5 -127t-163.5 -76.5t-170 -24.5q-119 0 -213 40t-159 123.5t-84 211zM848 1821q18 29 33 41t26 12q13 0 23 -14l225 -258l-35 -31 q-11 -8 -18 -8q-9 0 -19 10z" />
<glyph unicode="&#xd3;" horiz-adv-x="1576" d="M182.5 393q-23.5 139 10.5 324q34 179 114 322.5t188 233.5t234 137.5t260 47.5t241.5 -46.5t181 -139.5t97 -231.5t-9.5 -323.5q-35 -179 -115.5 -322.5t-188.5 -234t-234.5 -138t-260.5 -47.5t-241.5 46.5t-180 139.5t-96 232zM277 431.5q19 -127.5 84 -211t159 -123.5 t213 -40q86 0 170 24.5t163.5 76.5t144.5 127t115 181.5t75 233.5q31 174 12.5 301.5t-83.5 211t-159.5 123.5t-214.5 40q-109 0 -213 -40t-195 -117t-160 -202.5t-99 -283.5q-31 -174 -12 -301.5zM866 1602l324 258q18 14 27 14q13 0 22 -12q13 -17 16 -41l-329 -248 q-15 -10 -23 -10q-9 0 -14 8z" />
<glyph unicode="&#xd4;" horiz-adv-x="1576" d="M182.5 393q23.5 -139 96 -232t180 -139.5t241.5 -46.5t260.5 47.5t234.5 138t188.5 234t115.5 322.5q33 185 9.5 323.5t-97 231.5t-181 139.5t-241.5 46.5t-260 -47.5t-234 -137.5t-188 -233.5t-114 -322.5q-34 -185 -10.5 -324zM277 431.5q-19 127.5 12 301.5 q30 158 99 283.5t160 202.5t195 117t213 40q120 0 214.5 -40t159.5 -123.5t83.5 -211t-12.5 -301.5q-25 -127 -75 -233.5t-115 -181.5t-144.5 -127t-163.5 -76.5t-170 -24.5q-119 0 -213 40t-159 123.5t-84 211zM725 1602q0 10 18 24l297 246h23q23 0 31 -10l217 -265 l-45 -41q-8 -8 -17 -8q-7 0 -18 11l-184 227l-279 -234q-25 10 -37 25q-9 12 -6 25z" />
<glyph unicode="&#xd5;" horiz-adv-x="1576" d="M182.5 393q-23.5 139 10.5 324q34 179 114 322.5t188 233.5t234 137.5t260 47.5t241.5 -46.5t181 -139.5t97 -231.5t-9.5 -323.5q-35 -179 -115.5 -322.5t-188.5 -234t-234.5 -138t-260.5 -47.5t-241.5 46.5t-180 139.5t-96 232zM277 431.5q19 -127.5 84 -211t159 -123.5 t213 -40q86 0 170 24.5t163.5 76.5t144.5 127t115 181.5t75 233.5q31 174 12.5 301.5t-83.5 211t-159.5 123.5t-214.5 40q-109 0 -213 -40t-195 -117t-160 -202.5t-99 -283.5q-31 -174 -12 -301.5zM741 1657q3 20 23 57q57 109 166 109q85 0 137 -76q48 -66 94 -66 q38 0 62.5 27.5t48.5 106.5l51 -11q12 -3 15 -12t-3 -29q-54 -151 -186 -151q-83 0 -135 76q-47 65 -94 65q-38 0 -63.5 -28t-47.5 -105q-43 0 -59 8q-14 7 -9 29z" />
<glyph unicode="&#xd6;" horiz-adv-x="1576" d="M182.5 393q23.5 -139 96 -232t180 -139.5t241.5 -46.5t260.5 47.5t234.5 138t188.5 234t115.5 322.5q33 185 9.5 323.5t-97 231.5t-181 139.5t-241.5 46.5t-260 -47.5t-234 -137.5t-188 -233.5t-114 -322.5q-34 -185 -10.5 -324zM277 431.5q-19 127.5 12 301.5 q30 158 99 283.5t160 202.5t195 117t213 40q120 0 214.5 -40t159.5 -123.5t83.5 -211t-12.5 -301.5q-25 -127 -75 -233.5t-115 -181.5t-144.5 -127t-163.5 -76.5t-170 -24.5q-119 0 -213 40t-159 123.5t-84 211zM811 1720q4 29 25.5 47.5t48.5 18.5t42 -19.5t9 -50.5 q-4 -29 -25.5 -47t-48.5 -18t-42 19t-9 50zM1143 1720q4 29 25.5 47.5t48.5 18.5t42 -19.5t9 -50.5q-4 -29 -25.5 -47t-48.5 -18t-42 19t-9 50z" />
<glyph unicode="&#xd7;" horiz-adv-x="1372" d="M317 330l347 352l-347 356q13 29 33 49q19 16 35 0l338 -346l338 346q16 16 35 0q18 -18 32 -49l-348 -356l348 -352l-32 -33q-27 -27 -52 -2l-321 328l-322 -328q-25 -25 -51 2z" />
<glyph unicode="&#xd8;" horiz-adv-x="1576" d="M24 14q-4 14 19 33l197 176q-107 190 -47 494q34 179 114 322.5t188 233.5t234 137.5t260 47.5q133 0 241 -46.5t177 -137.5l180 160h45q31 0 34.5 -14.5t-19.5 -33.5l-197 -176q105 -193 49 -493q-35 -179 -115.5 -322.5t-188.5 -234t-234.5 -138t-260.5 -47.5 q-133 0 -241.5 46.5t-179.5 136.5l-175 -158h-45q-31 0 -35 14zM289 733q-52 -260 26 -440l1018 913q-60 84 -158 127t-219 43q-109 0 -213 -40t-195 -117t-160 -202.5t-99 -283.5zM356 225q120 -168 377 -168q86 0 170 24.5t163.5 76.5t144.5 127t115 181.5t75 233.5 q52 263 -29 439z" />
<glyph unicode="&#xd9;" horiz-adv-x="1474" d="M242 596q-55 -286 57 -453.5t350 -167.5q239 0 416.5 167.5t232.5 453.5l156 803q4 20 -3 27.5t-30 7.5h-49l-166 -846q-45 -240 -194.5 -385.5t-345.5 -145.5t-289 145.5t-47 385.5l162 829q6 25 -25 25t-64 -10zM797 1821q19 31 32 41q15 12 27 12t23 -14l225 -258 l-35 -31q-11 -8 -18 -8q-9 0 -19 10z" />
<glyph unicode="&#xda;" horiz-adv-x="1474" d="M242 596l161 836q33 10 64 10t25 -25l-162 -829q-46 -240 47 -385.5t289 -145.5t345.5 145.5t194.5 385.5l166 846h49q23 0 30 -7.5t3 -27.5l-156 -803q-55 -286 -232.5 -453.5t-416.5 -167.5q-238 0 -350 167.5t-57 453.5zM817 1602l324 258q17 14 26 14q14 0 23 -12 q13 -17 16 -41l-329 -248q-15 -10 -23 -10q-9 0 -14 8z" />
<glyph unicode="&#xdb;" horiz-adv-x="1474" d="M242 596q-55 -286 57 -453.5t350 -167.5q239 0 416.5 167.5t232.5 453.5l156 803q4 20 -3 27.5t-30 7.5h-49l-166 -846q-45 -240 -194.5 -385.5t-345.5 -145.5t-289 145.5t-47 385.5l162 829q6 25 -25 25t-64 -10zM674 1602q0 10 18 24l297 246h23q22 0 30 -10l218 -265 l-46 -41q-8 -8 -16 -8q-7 0 -18 11l-185 227l-278 -234q-25 10 -37 25q-9 12 -6 25z" />
<glyph unicode="&#xdc;" horiz-adv-x="1474" d="M242 596q-55 -286 57 -453.5t350 -167.5q239 0 416.5 167.5t232.5 453.5l156 803q4 20 -3 27.5t-30 7.5h-49l-166 -846q-45 -240 -194.5 -385.5t-345.5 -145.5t-289 145.5t-47 385.5l162 829q6 25 -25 25t-64 -10zM760 1720q4 29 25.5 47.5t48.5 18.5t42 -19.5t9 -50.5 q-4 -29 -25.5 -47t-48.5 -18t-42 19t-9 50zM1092 1720q4 29 25 47.5t48 18.5t42.5 -19.5t9.5 -50.5q-4 -29 -25.5 -47t-48.5 -18t-42 19t-9 50z" />
<glyph unicode="&#xdd;" horiz-adv-x="1331" d="M276 1395q49 43 76 43q18 0 31 -25l307 -833q184 179 355 397.5t307 456.5h51q49 0 27 -37q-138 -244 -324 -479.5t-397 -436.5l-93 -481h-49q-24 0 -31.5 7.5t-3.5 27.5l86 442zM762 1602l323 258q17 14 27 14q14 0 23 -12q13 -17 16 -41l-330 -248q-15 -10 -22 -10 q-10 0 -15 8z" />
<glyph unicode="&#xde;" horiz-adv-x="1288" d="M145 35l271 1397q33 10 63 10q31 0 25 -25l-37 -188h311q249 0 375 -137t80 -379q-32 -165 -130.5 -284t-231 -175.5t-283.5 -56.5q-175 0 -312 49l-47 -246h-49q-24 0 -31.5 7.5t-3.5 27.5zM291 319q119 -40 313 -40q204 0 352 115.5t187 318.5q41 209 -65.5 321.5 t-313.5 112.5h-313z" />
<glyph unicode="&#xdf;" horiz-adv-x="1280" d="M121 35l182 944q45 226 186 352.5t334 126.5q181 0 273.5 -103.5t62.5 -256.5q-24 -120 -113 -206.5t-223 -127.5q193 -43 284 -157.5t60 -274.5q-30 -148 -166 -252.5t-346 -104.5q-74 0 -146 17t-114.5 42t-38.5 48q4 24 23 43q53 -32 131.5 -50t153.5 -18 q158 0 273.5 79.5t139.5 199.5q28 142 -63 243t-324 146q-6 32 -2 49q5 24 43 33q134 27 225.5 106t110.5 179q25 125 -47 204.5t-211 79.5q-151 0 -264.5 -101.5t-149.5 -285.5l-190 -989h-49q-24 0 -31.5 7.5t-3.5 27.5z" />
<glyph unicode="&#xe0;" horiz-adv-x="1214" d="M102 324q32 164 164.5 257t325.5 93q194 0 352 -82l25 133q31 156 -51 233.5t-246 77.5q-198 0 -338 -73q-10 16 -6 43q7 35 121 73.5t253 38.5q198 0 296 -103.5t61 -297.5l-105 -535q-13 -64 1.5 -91.5t54.5 -27.5h34q2 -10 -2 -34q-3 -16 -28.5 -29.5t-59.5 -13.5 q-58 0 -83.5 49.5t-6.5 150.5l4 15q-78 -98 -199.5 -162t-254.5 -64q-173 0 -257.5 96.5t-54.5 252.5zM193 324q-24 -123 45.5 -195t189.5 -72q263 0 461 256l39 199q-68 38 -161.5 59t-188.5 21q-154 0 -258 -73.5t-127 -194.5zM606 1464q13 21 33 41q16 13 29 13 q9 0 20 -15l225 -258l-34 -31q-11 -8 -19 -8q-7 0 -18 11z" />
<glyph unicode="&#xe1;" horiz-adv-x="1214" d="M102 324q32 164 164.5 257t325.5 93q194 0 352 -82l25 133q31 156 -51 233.5t-246 77.5q-198 0 -338 -73q-10 16 -6 43q7 35 121 73.5t253 38.5q198 0 296 -103.5t61 -297.5l-105 -535q-13 -64 1.5 -91.5t54.5 -27.5h34q2 -10 -2 -34q-3 -16 -28.5 -29.5t-59.5 -13.5 q-58 0 -83.5 49.5t-6.5 150.5l4 15q-78 -98 -199.5 -162t-254.5 -64q-173 0 -257.5 96.5t-54.5 252.5zM193 324q-24 -123 45.5 -195t189.5 -72q263 0 461 256l39 199q-68 38 -161.5 59t-188.5 21q-154 0 -258 -73.5t-127 -194.5zM586 1245l323 258q19 15 29 15t20 -13 q14 -14 17 -41l-330 -247q-17 -11 -22 -11q-10 0 -15 8z" />
<glyph unicode="&#xe2;" horiz-adv-x="1214" d="M102 324q32 164 164.5 257t325.5 93q194 0 352 -82l25 133q31 156 -51 233.5t-246 77.5q-198 0 -338 -73q-10 16 -6 43q7 35 121 73.5t253 38.5q198 0 296 -103.5t61 -297.5l-105 -535q-13 -64 1.5 -91.5t54.5 -27.5h34q2 -10 -2 -34q-3 -16 -28.5 -29.5t-59.5 -13.5 q-58 0 -83.5 49.5t-6.5 150.5l4 15q-78 -98 -199.5 -162t-254.5 -64q-173 0 -257.5 96.5t-54.5 252.5zM193 324q-24 -123 45.5 -195t189.5 -72q263 0 461 256l39 199q-68 38 -161.5 59t-188.5 21q-154 0 -258 -73.5t-127 -194.5zM471 1245q0 11 18 25l297 246h23 q22 0 31 -11l217 -264l-45 -41q-8 -8 -15 -8q-11 0 -18 10l-186 228l-279 -234q-21 9 -37 25q-9 11 -6 24z" />
<glyph unicode="&#xe3;" horiz-adv-x="1214" d="M102 324q32 164 164.5 257t325.5 93q194 0 352 -82l25 133q31 156 -51 233.5t-246 77.5q-198 0 -338 -73q-10 16 -6 43q7 35 121 73.5t253 38.5q198 0 296 -103.5t61 -297.5l-105 -535q-13 -64 1.5 -91.5t54.5 -27.5h34q2 -10 -2 -34q-3 -16 -28.5 -29.5t-59.5 -13.5 q-58 0 -83.5 49.5t-6.5 150.5l4 15q-78 -98 -199.5 -162t-254.5 -64q-173 0 -257.5 96.5t-54.5 252.5zM193 324q-24 -123 45.5 -195t189.5 -72q263 0 461 256l39 199q-68 38 -161.5 59t-188.5 21q-154 0 -258 -73.5t-127 -194.5zM477 1298q3 21 23 58q57 108 166 108 q86 0 137 -75q48 -66 94 -66q38 0 63 27t48 106l51 -10q12 -3 15 -12t-3 -29q-54 -152 -186 -152q-83 0 -135 76q-48 66 -95 66q-38 0 -63 -27.5t-47 -105.5q-44 0 -60 8q-13 7 -8 28z" />
<glyph unicode="&#xe4;" horiz-adv-x="1214" d="M102 324q32 164 164.5 257t325.5 93q194 0 352 -82l25 133q31 156 -51 233.5t-246 77.5q-198 0 -338 -73q-10 16 -6 43q7 35 121 73.5t253 38.5q198 0 296 -103.5t61 -297.5l-105 -535q-13 -64 1.5 -91.5t54.5 -27.5h34q2 -10 -2 -34q-3 -16 -28.5 -29.5t-59.5 -13.5 q-58 0 -83.5 49.5t-6.5 150.5l4 15q-78 -98 -199.5 -162t-254.5 -64q-173 0 -257.5 96.5t-54.5 252.5zM193 324q-24 -123 45.5 -195t189.5 -72q263 0 461 256l39 199q-68 38 -161.5 59t-188.5 21q-154 0 -258 -73.5t-127 -194.5zM551 1364q6 29 27 47.5t47 18.5 q27 0 43 -19.5t10 -50.5q-6 -29 -27.5 -47.5t-48.5 -18.5t-42 19.5t-9 50.5zM883 1364q6 29 26.5 47.5t46.5 18.5q27 0 43.5 -19.5t10.5 -50.5q-6 -29 -27.5 -47.5t-48.5 -18.5t-42 19.5t-9 50.5z" />
<glyph unicode="&#xe5;" horiz-adv-x="1214" d="M102 324q32 164 164.5 257t325.5 93q194 0 352 -82l25 133q31 156 -51 233.5t-246 77.5q-198 0 -338 -73q-10 16 -6 43q7 35 121 73.5t253 38.5q198 0 296 -103.5t61 -297.5l-105 -535q-13 -64 1.5 -91.5t54.5 -27.5h34q2 -10 -2 -34q-3 -16 -28.5 -29.5t-59.5 -13.5 q-58 0 -83.5 49.5t-6.5 150.5l4 15q-78 -98 -199.5 -162t-254.5 -64q-173 0 -257.5 96.5t-54.5 252.5zM193 324q-24 -123 45.5 -195t189.5 -72q263 0 461 256l39 199q-68 38 -161.5 59t-188.5 21q-154 0 -258 -73.5t-127 -194.5zM578 1362q15 77 80.5 129.5t144.5 52.5 t124.5 -52.5t30.5 -129.5t-81.5 -129.5t-145.5 -52.5t-123.5 52.5t-29.5 129.5zM651 1368q-10 -57 18 -90t83 -33q46 0 84 32t47 79q12 57 -16 90t-83 33q-46 0 -85 -32t-48 -79z" />
<glyph unicode="&#xe6;" horiz-adv-x="1959" d="M102 319q32 165 165 260t325 95q197 0 350 -90l27 141q31 156 -51 233.5t-246 77.5q-198 0 -338 -73q-10 16 -6 43q7 35 121 73.5t253 38.5q159 0 256 -70t107 -202q89 127 223.5 199.5t270.5 72.5q188 0 284.5 -113.5t61.5 -293.5q-13 -70 -50 -136q-22 -41 -45.5 -54 t-66.5 -13h-723q-25 -206 80 -328.5t278 -122.5q163 0 293 68q11 -16 6 -43q-5 -32 -102.5 -69.5t-220.5 -37.5q-149 0 -254 72t-150 201q-114 -132 -250.5 -202.5t-285.5 -70.5q-172 0 -257 96.5t-55 247.5zM193 319q-24 -119 46 -190.5t189 -71.5q127 0 257.5 67.5 t240.5 211.5q-10 68 0 168q-66 42 -159 65t-189 23q-153 0 -257 -75.5t-128 -197.5zM1032 590h735q37 57 48 121q28 146 -49 235.5t-228 89.5q-104 0 -207 -53.5t-184.5 -157t-114.5 -235.5z" />
<glyph unicode="&#xe7;" horiz-adv-x="1124" d="M148 349q-18 104 6 235q24 123 85 225t144 169t182.5 103.5t202.5 36.5q137 0 229.5 -65t122.5 -160q11 -31 -20 -49q-34 -18 -66 -21q-25 99 -94.5 156t-187.5 57q-117 0 -222 -53.5t-182 -157.5t-104 -241q-21 -106 -7.5 -190t51.5 -147.5t95.5 -105.5t124 -63 t137.5 -21q151 0 283 66q11 -16 6 -43q-7 -33 -105 -69t-213 -36h-16l-68 -94q107 -13 157.5 -64t35.5 -128q-17 -85 -84.5 -130.5t-171.5 -45.5q-76 0 -131 22l8 37q3 19 13 23.5t30 -1.5q40 -12 86 -12q72 0 117.5 28t54.5 79q11 59 -38 95.5t-158 45.5q-22 13 -19 25 q0 6 6 12l84 117q-95 16 -172 62.5t-130.5 122.5t-71.5 180z" />
<glyph unicode="&#xe8;" d="M147 557q25 125 88.5 231.5t149 178t185.5 111.5t200 40q188 0 284.5 -113.5t61.5 -293.5q-14 -73 -49 -136q-22 -41 -46 -54t-67 -13h-723q-25 -206 80.5 -328.5t278.5 -122.5q163 0 293 68q11 -16 6 -43q-5 -32 -103 -69.5t-221 -37.5q-228 0 -348 162.5t-70 419.5z M244 590h735q35 55 47 121q28 146 -48.5 235.5t-227.5 89.5q-104 0 -207 -53.5t-184.5 -157t-114.5 -235.5zM625 1464q15 24 32 41q16 13 29 13q10 0 21 -15l225 -258l-35 -31q-11 -8 -18 -8q-8 0 -19 11z" />
<glyph unicode="&#xe9;" d="M147 557q25 125 88.5 231.5t149 178t185.5 111.5t200 40q188 0 284.5 -113.5t61.5 -293.5q-14 -73 -49 -136q-22 -41 -46 -54t-67 -13h-723q-25 -206 80.5 -328.5t278.5 -122.5q163 0 293 68q11 -16 6 -43q-5 -32 -103 -69.5t-221 -37.5q-228 0 -348 162.5t-70 419.5z M244 590h735q35 55 47 121q28 146 -48.5 235.5t-227.5 89.5q-104 0 -207 -53.5t-184.5 -157t-114.5 -235.5zM584 1245l323 258q19 15 29 15t20 -13q14 -14 17 -41l-330 -247q-17 -11 -22 -11q-10 0 -15 8z" />
<glyph unicode="&#xea;" d="M147 557q25 125 88.5 231.5t149 178t185.5 111.5t200 40q188 0 284.5 -113.5t61.5 -293.5q-14 -73 -49 -136q-22 -41 -46 -54t-67 -13h-723q-25 -206 80.5 -328.5t278.5 -122.5q163 0 293 68q11 -16 6 -43q-5 -32 -103 -69.5t-221 -37.5q-228 0 -348 162.5t-70 419.5z M244 590h735q35 55 47 121q28 146 -48.5 235.5t-227.5 89.5q-104 0 -207 -53.5t-184.5 -157t-114.5 -235.5zM487 1245q0 10 19 25l297 246h22q22 0 31 -11l217 -264l-45 -41q-8 -8 -14 -8q-11 0 -19 10l-186 228l-279 -234q-19 8 -36 25q-9 12 -7 24z" />
<glyph unicode="&#xeb;" d="M147 557q25 125 88.5 231.5t149 178t185.5 111.5t200 40q188 0 284.5 -113.5t61.5 -293.5q-14 -73 -49 -136q-22 -41 -46 -54t-67 -13h-723q-25 -206 80.5 -328.5t278.5 -122.5q163 0 293 68q11 -16 6 -43q-5 -32 -103 -69.5t-221 -37.5q-228 0 -348 162.5t-70 419.5z M244 590h735q35 55 47 121q28 146 -48.5 235.5t-227.5 89.5q-104 0 -207 -53.5t-184.5 -157t-114.5 -235.5zM571 1364q6 29 27 47.5t47 18.5q27 0 43 -19.5t10 -50.5q-6 -29 -27.5 -47.5t-47.5 -18.5q-27 0 -42.5 19.5t-9.5 50.5zM903 1364q6 29 27 47.5t47 18.5 q27 0 43 -19.5t10 -50.5q-6 -29 -27.5 -47.5t-48.5 -18.5t-42 19.5t-9 50.5z" />
<glyph unicode="&#xec;" horiz-adv-x="514" d="M145 168l181 924q33 10 63 10q28 0 25 -25l-178 -909q-10 -57 4.5 -81t52.5 -24h37q2 -10 -2 -34q-3 -16 -28.5 -29.5t-59.5 -13.5q-58 0 -85.5 44.5t-9.5 137.5zM205 1464q13 21 33 41q16 13 28 13q10 0 21 -15l225 -258l-35 -31q-11 -8 -18 -8q-8 0 -19 11z" />
<glyph unicode="&#xed;" horiz-adv-x="514" d="M145 168l181 924q33 10 63 10q28 0 25 -25l-178 -909q-10 -57 4.5 -81t52.5 -24h37q2 -10 -2 -34q-3 -16 -28.5 -29.5t-59.5 -13.5q-58 0 -85.5 44.5t-9.5 137.5zM279 1245l323 258q19 15 29 15t20 -13q14 -14 17 -41l-330 -247q-16 -11 -23 -11q-9 0 -14 8z" />
<glyph unicode="&#xee;" horiz-adv-x="514" d="M111 1245q0 11 18 25l297 246h23q21 0 30 -11l217 -264l-45 -41q-8 -8 -14 -8q-11 0 -19 10l-186 228l-278 -234q-21 9 -37 25q-9 11 -6 24zM145 168l181 924q33 10 63 10q28 0 25 -25l-178 -909q-10 -57 4.5 -81t52.5 -24h37q2 -10 -2 -34q-3 -16 -28.5 -29.5 t-59.5 -13.5q-58 0 -85.5 44.5t-9.5 137.5z" />
<glyph unicode="&#xef;" horiz-adv-x="514" d="M145 168l181 924q33 10 63 10q28 0 25 -25l-178 -909q-10 -57 4.5 -81t52.5 -24h37q2 -10 -2 -34q-3 -16 -28.5 -29.5t-59.5 -13.5q-58 0 -85.5 44.5t-9.5 137.5zM195 1364q6 29 26.5 47.5t46.5 18.5q27 0 43.5 -19.5t10.5 -50.5q-6 -29 -27.5 -47.5t-48.5 -18.5 t-42 19.5t-9 50.5zM526 1364q6 29 27 47.5t47 18.5q27 0 43 -19.5t10 -50.5q-6 -29 -27.5 -47.5t-47.5 -18.5q-27 0 -42.5 19.5t-9.5 50.5z" />
<glyph unicode="&#xf0;" horiz-adv-x="1218" d="M111 424q20 104 66.5 194.5t108.5 156t136.5 112.5t154 70.5t158.5 23.5q104 0 196.5 -35.5t151.5 -107.5q40 254 -18 407l-266 -143q-22 -11 -31 8q-10 23 -10 45l276 150q-87 133 -276 133q-148 0 -285 -64q-10 16 -6 43q6 33 107.5 68t209.5 35q228 0 334 -170l129 71 q22 10 31 7t18 -23l11 -27l-160 -88q77 -198 8 -557q-72 -371 -252.5 -564.5t-433.5 -193.5q-194 0 -295.5 123.5t-62.5 325.5zM201 424q-31 -159 47 -263t237 -104q204 0 358.5 168.5t217.5 489.5l4 22q-123 162 -344 162q-81 0 -163 -31t-154.5 -89t-127 -150.5 t-75.5 -204.5z" />
<glyph unicode="&#xf1;" horiz-adv-x="1306" d="M121 35l205 1057q33 10 63 10q28 0 25 -25l-25 -121q104 75 222 118.5t229 43.5q191 0 264.5 -117.5t32.5 -326.5l-99 -506q-10 -56 5 -80.5t53 -24.5h37q1 -7 -3 -34q-3 -16 -28.5 -29.5t-59.5 -13.5q-58 0 -85 44.5t-9 137.5l99 498q36 185 -21.5 277.5t-212.5 92.5 q-105 0 -220.5 -43t-219.5 -127l-168 -866h-49q-24 0 -31.5 7.5t-3.5 27.5zM524 1298q3 21 23 58q57 108 166 108q86 0 137 -75q48 -66 94 -66q38 0 63 27t48 106l51 -10q12 -3 15 -12t-3 -29q-54 -152 -186 -152q-83 0 -135 76q-48 66 -95 66q-38 0 -63 -27.5t-47 -105.5 q-44 0 -60 8q-13 7 -8 28z" />
<glyph unicode="&#xf2;" horiz-adv-x="1286" d="M141 307.5q-21 106.5 4 239.5q34 173 131.5 304.5t228 199t273.5 67.5q106 0 193 -39t143.5 -113t77 -180t-5.5 -239q-50 -259 -230.5 -415.5t-400.5 -156.5q-106 0 -193 39.5t-143.5 113t-77.5 180zM233.5 340q16.5 -94 67 -157t123 -94.5t160.5 -31.5q110 0 213 52 t185.5 163t111.5 263q23 125 6.5 219t-67 156.5t-123 94t-160.5 31.5q-81 0 -161 -30.5t-150.5 -88.5t-123.5 -150.5t-75 -207.5q-23 -125 -6.5 -219zM631 1464q13 21 33 41q16 13 28 13q10 0 21 -15l225 -258l-35 -31q-11 -8 -18 -8q-8 0 -19 11z" />
<glyph unicode="&#xf3;" horiz-adv-x="1286" d="M141 307.5q-21 106.5 4 239.5q34 173 131.5 304.5t228 199t273.5 67.5q106 0 193 -39t143.5 -113t77 -180t-5.5 -239q-50 -259 -230.5 -415.5t-400.5 -156.5q-106 0 -193 39.5t-143.5 113t-77.5 180zM233.5 340q16.5 -94 67 -157t123 -94.5t160.5 -31.5q110 0 213 52 t185.5 163t111.5 263q23 125 6.5 219t-67 156.5t-123 94t-160.5 31.5q-81 0 -161 -30.5t-150.5 -88.5t-123.5 -150.5t-75 -207.5q-23 -125 -6.5 -219zM651 1245l324 258q19 15 29 15t20 -13q12 -12 16 -41l-329 -247q-17 -11 -23 -11q-9 0 -14 8z" />
<glyph unicode="&#xf4;" horiz-adv-x="1286" d="M141 307.5q-21 106.5 4 239.5q34 173 131.5 304.5t228 199t273.5 67.5q106 0 193 -39t143.5 -113t77 -180t-5.5 -239q-50 -259 -230.5 -415.5t-400.5 -156.5q-106 0 -193 39.5t-143.5 113t-77.5 180zM233.5 340q16.5 -94 67 -157t123 -94.5t160.5 -31.5q110 0 213 52 t185.5 163t111.5 263q23 125 6.5 219t-67 156.5t-123 94t-160.5 31.5q-81 0 -161 -30.5t-150.5 -88.5t-123.5 -150.5t-75 -207.5q-23 -125 -6.5 -219zM516 1245q0 10 19 25l296 246h23q22 0 31 -11l217 -264l-45 -41q-8 -8 -15 -8q-10 0 -18 10l-186 228l-279 -234 q-21 9 -37 25q-9 11 -6 24z" />
<glyph unicode="&#xf5;" horiz-adv-x="1286" d="M141 307.5q-21 106.5 4 239.5q34 173 131.5 304.5t228 199t273.5 67.5q106 0 193 -39t143.5 -113t77 -180t-5.5 -239q-50 -259 -230.5 -415.5t-400.5 -156.5q-106 0 -193 39.5t-143.5 113t-77.5 180zM233.5 340q16.5 -94 67 -157t123 -94.5t160.5 -31.5q110 0 213 52 t185.5 163t111.5 263q23 125 6.5 219t-67 156.5t-123 94t-160.5 31.5q-81 0 -161 -30.5t-150.5 -88.5t-123.5 -150.5t-75 -207.5q-23 -125 -6.5 -219zM524 1298q3 21 23 58q57 108 166 108q86 0 137 -75q48 -66 94 -66q38 0 63 27t48 106l51 -10q12 -3 15 -12t-3 -29 q-54 -152 -186 -152q-83 0 -135 76q-48 66 -95 66q-38 0 -63 -27.5t-47 -105.5q-44 0 -60 8q-13 7 -8 28z" />
<glyph unicode="&#xf6;" horiz-adv-x="1286" d="M141 307.5q-21 106.5 4 239.5q34 173 131.5 304.5t228 199t273.5 67.5q106 0 193 -39t143.5 -113t77 -180t-5.5 -239q-50 -259 -230.5 -415.5t-400.5 -156.5q-106 0 -193 39.5t-143.5 113t-77.5 180zM233.5 340q16.5 -94 67 -157t123 -94.5t160.5 -31.5q110 0 213 52 t185.5 163t111.5 263q23 125 6.5 219t-67 156.5t-123 94t-160.5 31.5q-81 0 -161 -30.5t-150.5 -88.5t-123.5 -150.5t-75 -207.5q-23 -125 -6.5 -219zM596 1364q6 29 27 47.5t47 18.5q27 0 43 -19.5t10 -50.5q-6 -29 -27.5 -47.5t-48.5 -18.5t-42 19.5t-9 50.5zM928 1364 q6 29 26.5 47.5t46.5 18.5q27 0 43.5 -19.5t10.5 -50.5q-6 -29 -27.5 -47.5t-48.5 -18.5t-42 19.5t-9 50.5z" />
<glyph unicode="&#xf7;" horiz-adv-x="1372" d="M233 666q0 -27 25 -27h954v41q0 24 -7 32.5t-27 8.5h-936q-9 -31 -9 -55zM659 295q0 29 17.5 47t44.5 18t46 -19t19 -50q0 -29 -17.5 -47.5t-43.5 -18.5q-27 0 -46.5 19.5t-19.5 50.5zM659 1069q0 29 17.5 47.5t44.5 18.5t46 -19.5t19 -50.5q0 -29 -17.5 -47.5 t-43.5 -18.5q-27 0 -46.5 19.5t-19.5 50.5z" />
<glyph unicode="&#xf8;" horiz-adv-x="1286" d="M35.5 14q-3.5 14 17.5 33l137 123q-87 149 -45 377q34 173 131.5 304.5t228 199t273.5 67.5q202 0 322 -135l121 111h43q31 0 34.5 -14t-18.5 -33l-139 -123q89 -156 45 -377q-50 -259 -230.5 -415.5t-400.5 -156.5q-204 0 -322 134l-120 -109h-43q-31 0 -34.5 14z M240 559q-38 -190 26 -321l760 680q-100 118 -276 118q-81 0 -161 -30.5t-150.5 -88.5t-123.5 -150.5t-75 -207.5zM305 174q102 -117 279 -117q110 0 213 52t185.5 163t111.5 263q38 185 -27 321z" />
<glyph unicode="&#xf9;" horiz-adv-x="1249" d="M182 461q-42 -220 59.5 -353t295.5 -133q195 0 347.5 133t194.5 353l117 598q4 20 -3.5 27.5t-31.5 7.5h-49l-123 -637q-36 -183 -159 -291.5t-277 -108.5t-235.5 108.5t-45.5 291.5l121 620q3 25 -24 25q-31 0 -64 -10zM612 1464q13 21 33 41q16 13 29 13q9 0 20 -15 l226 -258l-35 -31q-11 -8 -19 -8q-7 0 -18 11z" />
<glyph unicode="&#xfa;" horiz-adv-x="1249" d="M182 461l123 631q33 10 64 10q27 0 24 -25l-121 -620q-36 -183 45.5 -291.5t235.5 -108.5t277 108.5t159 291.5l123 637h49q24 0 31.5 -7.5t3.5 -27.5l-117 -598q-42 -220 -194.5 -353t-347.5 -133q-194 0 -295.5 133t-59.5 353zM631 1245l323 258q19 15 29 15 q11 0 21 -13q12 -12 16 -41l-330 -247q-16 -11 -22 -11q-10 0 -15 8z" />
<glyph unicode="&#xfb;" horiz-adv-x="1249" d="M182 461q-42 -220 59.5 -353t295.5 -133q195 0 347.5 133t194.5 353l117 598q4 20 -3.5 27.5t-31.5 7.5h-49l-123 -637q-36 -183 -159 -291.5t-277 -108.5t-235.5 108.5t-45.5 291.5l121 620q3 25 -24 25q-31 0 -64 -10zM498 1245q0 11 18 25l297 246h23q21 0 30 -11 l217 -264l-45 -41q-8 -8 -14 -8q-10 0 -18 10l-187 228l-278 -234q-21 9 -37 25q-9 11 -6 24z" />
<glyph unicode="&#xfc;" horiz-adv-x="1249" d="M182 461q-42 -220 59.5 -353t295.5 -133q195 0 347.5 133t194.5 353l117 598q4 20 -3.5 27.5t-31.5 7.5h-49l-123 -637q-36 -183 -159 -291.5t-277 -108.5t-235.5 108.5t-45.5 291.5l121 620q3 25 -24 25q-31 0 -64 -10zM578 1364q6 29 26.5 47.5t46.5 18.5 q27 0 43.5 -19.5t10.5 -50.5q-6 -29 -27.5 -47.5t-48.5 -18.5t-42 19.5t-9 50.5zM909 1364q6 29 27 47.5t47 18.5q27 0 43 -19.5t10 -50.5q-6 -29 -27.5 -47.5t-47.5 -18.5q-27 0 -42.5 19.5t-9.5 50.5z" />
<glyph unicode="&#xfd;" horiz-adv-x="1282" d="M78 -240q28 158 219 263q-165 101 -107 397l132 672q33 10 63 10q28 0 25 -25l-127 -649q-36 -185 21 -278t212 -93q105 0 220.5 43t219.5 127l170 875h50q23 0 30 -7.5t4 -27.5l-202 -1036q-46 -240 -216.5 -389.5t-426.5 -149.5q-150 0 -230.5 72.5t-56.5 195.5z M168 -240q-17 -81 43 -133.5t168 -52.5q226 0 362 120t174 324l25 119q-104 -75 -222 -118.5t-229 -43.5q-52 0 -118 15q-178 -96 -203 -230zM649 1245l324 258q19 15 28 15q11 0 21 -13q12 -12 16 -41l-329 -247q-17 -11 -23 -11q-9 0 -14 8z" />
<glyph unicode="&#xfe;" horiz-adv-x="1320" d="M43 -360l360 1853q33 10 64 10q15 0 21 -6t4 -18l-123 -635q86 122 218.5 198t274.5 76q205 0 310 -141.5t59 -384.5q-25 -124 -88 -237t-150.5 -197t-200.5 -133.5t-231 -49.5q-105 0 -192 36.5t-144 101.5l-98 -508h-49q-23 0 -30.5 7.5t-4.5 27.5zM246 213 q120 -156 329 -156q125 0 245 71t206 194.5t115 271.5q40 209 -47 325.5t-258 116.5q-129 0 -262.5 -86t-233.5 -248z" />
<glyph unicode="&#xff;" horiz-adv-x="1282" d="M78 -240q28 158 219 263q-165 101 -107 397l132 672q33 10 63 10q28 0 25 -25l-127 -649q-36 -185 21 -278t212 -93q105 0 220.5 43t219.5 127l170 875h50q23 0 30 -7.5t4 -27.5l-202 -1036q-46 -240 -216.5 -389.5t-426.5 -149.5q-150 0 -230.5 72.5t-56.5 195.5z M168 -240q-17 -81 43 -133.5t168 -52.5q226 0 362 120t174 324l25 119q-104 -75 -222 -118.5t-229 -43.5q-52 0 -118 15q-178 -96 -203 -230zM590 1364q6 29 27 47.5t47 18.5q27 0 43 -19.5t10 -50.5q-6 -29 -27.5 -47.5t-48.5 -18.5t-42 19.5t-9 50.5zM922 1364 q6 29 26.5 47.5t46.5 18.5q27 0 43.5 -19.5t10.5 -50.5q-6 -29 -27.5 -47.5t-48.5 -18.5t-42 19.5t-9 50.5z" />
<glyph unicode="&#x100;" horiz-adv-x="1347" d="M-10 35l823 1390q42 17 80 17q27 0 33 -27l288 -1415h-59q-35 0 -41 31l-74 381h-737l-242 -412h-49q-43 0 -22 35zM348 494h674l-168 858zM653 1708q3 24 17 47h497q20 0 26 -9t1 -32l-6 -33h-516q-26 0 -19 27z" />
<glyph unicode="&#x101;" horiz-adv-x="1214" d="M102 324q32 164 164.5 257t325.5 93q194 0 352 -82l25 133q31 156 -51 233.5t-246 77.5q-198 0 -338 -73q-10 16 -6 43q7 35 121 73.5t253 38.5q198 0 296 -103.5t61 -297.5l-105 -535q-13 -64 1.5 -91.5t54.5 -27.5h34q2 -10 -2 -34q-3 -16 -28.5 -29.5t-59.5 -13.5 q-58 0 -83.5 49.5t-6.5 150.5l4 15q-78 -98 -199.5 -162t-254.5 -64q-173 0 -257.5 96.5t-54.5 252.5zM193 324q-24 -123 45.5 -195t189.5 -72q263 0 461 256l39 199q-68 38 -161.5 59t-188.5 21q-154 0 -258 -73.5t-127 -194.5zM506 1350q3 26 16 47h498q20 0 26 -9t1 -32 l-7 -33h-516q-25 0 -18 27z" />
<glyph unicode="&#x102;" horiz-adv-x="1347" d="M-10 35l823 1390q42 17 80 17q27 0 33 -27l288 -1415h-59q-35 0 -41 31l-74 381h-737l-242 -412h-49q-43 0 -22 35zM348 494h674l-168 858zM666 1833q29 16 57 16q14 0 17 -5.5t5 -26.5q2 -86 44 -132.5t120 -46.5q81 0 146.5 53.5t99.5 157.5h39q23 0 29 -7.5t0 -24.5 q-39 -112 -126.5 -180t-201.5 -68q-116 0 -175.5 69.5t-53.5 194.5z" />
<glyph unicode="&#x103;" horiz-adv-x="1214" d="M102 324q32 164 164.5 257t325.5 93q194 0 352 -82l25 133q31 156 -51 233.5t-246 77.5q-198 0 -338 -73q-10 16 -6 43q7 35 121 73.5t253 38.5q198 0 296 -103.5t61 -297.5l-105 -535q-13 -64 1.5 -91.5t54.5 -27.5h34q2 -10 -2 -34q-3 -16 -28.5 -29.5t-59.5 -13.5 q-58 0 -83.5 49.5t-6.5 150.5l4 15q-78 -98 -199.5 -162t-254.5 -64q-173 0 -257.5 96.5t-54.5 252.5zM193 324q-24 -123 45.5 -195t189.5 -72q263 0 461 256l39 199q-68 38 -161.5 59t-188.5 21q-154 0 -258 -73.5t-127 -194.5zM518 1475q29 16 57 16q10 0 14.5 -3.5t6 -9 t2.5 -20.5q2 -86 44 -132t120 -46q81 0 146.5 53.5t99.5 157.5h39q23 0 29 -8t-1 -25q-39 -112 -126 -180t-201 -68q-116 0 -176 70t-54 195z" />
<glyph unicode="&#x104;" horiz-adv-x="1347" d="M-10 35l831 1390q43 17 80 17q27 0 33 -27l297 -1415q-187 -113 -215 -254q-10 -52 21.5 -89.5t105.5 -37.5q51 0 92 12q22 7 30 2t3 -24l-6 -33q-58 -27 -138 -27q-102 0 -152.5 52.5t-33.5 144.5q14 69 66.5 138t140.5 122q-11 6 -15 25l-75 381h-750l-244 -412h-49 q-43 0 -22 35zM352 494h684l-174 858z" />
<glyph unicode="&#x105;" horiz-adv-x="1214" d="M102 319q32 165 165 260t325 95q197 0 350 -90l27 141q31 156 -51 233.5t-246 77.5q-198 0 -338 -73q-10 16 -6 43q7 35 121 73.5t253 38.5q198 0 296 -103.5t61 -297.5l-105 -535q-13 -64 1.5 -91.5t54.5 -27.5h34q2 -10 -2 -34q-3 -16 -28.5 -29.5t-59.5 -13.5 q-12 0 -28 4q-166 -106 -195 -244q-10 -52 21.5 -89.5t105.5 -37.5q52 0 92 12q22 7 30 2t3 -24l-6 -33q-58 -27 -137 -27q-102 0 -153 52.5t-34 144.5q15 70 72 143.5t154 130.5q-36 59 -15 166l4 15q-78 -98 -199.5 -162t-254.5 -64q-172 0 -257 96.5t-55 247.5zM193 319 q-24 -119 46 -190.5t189 -71.5q263 0 461 256l37 191q-66 42 -159 65t-189 23q-153 0 -257 -75.5t-128 -197.5z" />
<glyph unicode="&#x106;" horiz-adv-x="1406" d="M196 439.5q-31 145.5 5 324.5q26 131 82.5 244t132.5 194.5t167.5 140t188.5 87t193 28.5q188 0 311.5 -84t165.5 -219q11 -31 -23 -49q-29 -18 -63 -21q-38 140 -145 215.5t-263 75.5q-104 0 -208 -41t-194 -116t-158 -192t-95 -257q-33 -166 -4.5 -298.5t103 -224.5 t186 -141t245.5 -49q204 0 367 88q11 -16 6 -43q-7 -39 -127.5 -83t-265.5 -44q-159 0 -287 56t-208.5 159.5t-111.5 249zM823 1602l324 258q17 14 27 14q13 0 22 -12q13 -17 16 -41l-329 -248q-15 -10 -23 -10q-9 0 -14 8z" />
<glyph unicode="&#x107;" horiz-adv-x="1124" d="M153 324.5q-26 113.5 1 259.5q24 123 85 225t144 169t182.5 103.5t202.5 36.5q137 0 229.5 -65t122.5 -160q11 -31 -20 -49q-34 -18 -66 -21q-25 99 -94.5 156t-187.5 57q-117 0 -222 -53.5t-182 -157.5t-104 -241q-21 -106 -7.5 -190t52 -147.5t96 -105.5t125 -63 t139.5 -21q157 0 283 66q11 -16 6 -43q-7 -33 -106.5 -69t-215.5 -36q-111 0 -206.5 40.5t-163 118t-93.5 191zM598 1245l324 258q19 15 28 15q11 0 21 -13q12 -12 16 -41l-330 -247q-17 -11 -22 -11q-9 0 -14 8z" />
<glyph unicode="&#x108;" horiz-adv-x="1406" d="M196 439.5q-31 145.5 5 324.5q26 131 82.5 244t132.5 194.5t167.5 140t188.5 87t193 28.5q188 0 311.5 -84t165.5 -219q11 -31 -23 -49q-29 -18 -63 -21q-38 140 -145 215.5t-263 75.5q-104 0 -208 -41t-194 -116t-158 -192t-95 -257q-33 -166 -4.5 -298.5t103 -224.5 t186 -141t245.5 -49q204 0 367 88q11 -16 6 -43q-7 -39 -127.5 -83t-265.5 -44q-159 0 -287 56t-208.5 159.5t-111.5 249zM698 1602q0 9 19 24l297 246h22q23 0 31 -10l217 -265l-45 -41q-8 -8 -16 -8t-19 11l-184 227l-279 -234q-24 9 -36 25q-9 13 -7 25z" />
<glyph unicode="&#x109;" horiz-adv-x="1124" d="M153 324.5q-26 113.5 1 259.5q24 123 85 225t144 169t182.5 103.5t202.5 36.5q137 0 229.5 -65t122.5 -160q11 -31 -20 -49q-34 -18 -66 -21q-25 99 -94.5 156t-187.5 57q-117 0 -222 -53.5t-182 -157.5t-104 -241q-21 -106 -7.5 -190t52 -147.5t96 -105.5t125 -63 t139.5 -21q157 0 283 66q11 -16 6 -43q-7 -33 -106.5 -69t-215.5 -36q-111 0 -206.5 40.5t-163 118t-93.5 191zM471 1245q0 11 18 25l297 246h23q22 0 31 -11l217 -264l-45 -41q-8 -8 -15 -8q-11 0 -18 10l-186 228l-279 -234q-21 9 -37 25q-9 11 -6 24z" />
<glyph unicode="&#x10a;" horiz-adv-x="1406" d="M196 439.5q-31 145.5 5 324.5q26 131 82.5 244t132.5 194.5t167.5 140t188.5 87t193 28.5q188 0 311.5 -84t165.5 -219q11 -31 -23 -49q-29 -18 -63 -21q-38 140 -145 215.5t-263 75.5q-104 0 -208 -41t-194 -116t-158 -192t-95 -257q-33 -166 -4.5 -298.5t103 -224.5 t186 -141t245.5 -49q204 0 367 88q11 -16 6 -43q-7 -39 -127.5 -83t-265.5 -44q-159 0 -287 56t-208.5 159.5t-111.5 249zM944 1720q4 29 25.5 47.5t48.5 18.5t42 -19.5t9 -50.5q-4 -29 -25.5 -47t-48.5 -18t-42 19t-9 50z" />
<glyph unicode="&#x10b;" horiz-adv-x="1124" d="M153 324.5q-26 113.5 1 259.5q24 123 85 225t144 169t182.5 103.5t202.5 36.5q137 0 229.5 -65t122.5 -160q11 -31 -20 -49q-34 -18 -66 -21q-25 99 -94.5 156t-187.5 57q-117 0 -222 -53.5t-182 -157.5t-104 -241q-21 -106 -7.5 -190t52 -147.5t96 -105.5t125 -63 t139.5 -21q157 0 283 66q11 -16 6 -43q-7 -33 -106.5 -69t-215.5 -36q-111 0 -206.5 40.5t-163 118t-93.5 191zM727 1364q6 29 27 47.5t47 18.5q27 0 43 -19.5t10 -50.5q-6 -29 -27.5 -47.5t-48.5 -18.5t-42 19.5t-9 50.5z" />
<glyph unicode="&#x10c;" horiz-adv-x="1406" d="M196 439.5q-31 145.5 5 324.5q26 131 82.5 244t132.5 194.5t167.5 140t188.5 87t193 28.5q188 0 311.5 -84t165.5 -219q11 -31 -23 -49q-29 -18 -63 -21q-38 140 -145 215.5t-263 75.5q-104 0 -208 -41t-194 -116t-158 -192t-95 -257q-33 -166 -4.5 -298.5t103 -224.5 t186 -141t245.5 -49q204 0 367 88q11 -16 6 -43q-7 -39 -127.5 -83t-265.5 -44q-159 0 -287 56t-208.5 159.5t-111.5 249zM754 1819q19 31 32 41q15 12 27 12q13 0 23 -14l180 -224l291 242l32 -37q7 -11 7 -14q-4 -12 -15 -21l-311 -256h-23q-21 0 -30 11z" />
<glyph unicode="&#x10d;" horiz-adv-x="1124" d="M153 324.5q-26 113.5 1 259.5q24 123 85 225t144 169t182.5 103.5t202.5 36.5q137 0 229.5 -65t122.5 -160q11 -31 -20 -49q-34 -18 -66 -21q-25 99 -94.5 156t-187.5 57q-117 0 -222 -53.5t-182 -157.5t-104 -241q-21 -106 -7.5 -190t52 -147.5t96 -105.5t125 -63 t139.5 -21q157 0 283 66q11 -16 6 -43q-7 -33 -106.5 -69t-215.5 -36q-111 0 -206.5 40.5t-163 118t-93.5 191zM514 1462q18 29 33 41q16 13 26 13q12 0 23 -15l180 -223l291 242l33 -37q6 -6 6 -15q-4 -12 -14 -20l-310 -256h-22q-23 0 -31 10z" />
<glyph unicode="&#x10e;" horiz-adv-x="1480" d="M193 299l221 1135h430q151 0 269.5 -49.5t193 -142.5t102 -225.5t-5.5 -299.5q-43 -218 -165.5 -382t-297 -249.5t-375.5 -85.5h-182q-127 0 -175 68t-15 231zM285 313q-26 -133 1.5 -182t119.5 -49h180q123 0 239 41t214.5 118.5t171 200t102.5 275.5q28 157 4.5 276 t-92.5 199t-168.5 120t-222.5 40h-347zM633 1819q18 29 33 41t26 12q12 0 23 -14l180 -224l291 242l33 -37q6 -9 6 -14q-4 -12 -15 -21l-311 -256h-22q-22 0 -31 11z" />
<glyph unicode="&#x10f;" horiz-adv-x="1421" d="M137 502q25 125 86.5 237.5t147 196t197 133t229.5 49.5q100 0 183 -37t140 -102l101 516h49q24 0 31.5 -7.5t3.5 -27.5l-248 -1278q-13 -64 1 -91.5t54 -27.5h35q2 -10 -2 -34q-3 -16 -28.5 -29.5t-59.5 -13.5q-58 0 -83.5 49.5t-6.5 150.5l12 64 q-87 -124 -214.5 -199.5t-268.5 -75.5q-204 0 -304.5 141.5t-54.5 385.5zM227 500q-40 -209 43.5 -326t251.5 -117q128 0 256.5 85t229.5 249l94 490q-59 77 -141.5 116t-178.5 39q-127 0 -244 -71t-199.5 -193.5t-111.5 -271.5zM1378 1174q109 92 135 190q-24 3 -35 22 t-5 48q4 29 25 47t48 18q28 0 42.5 -19.5t8.5 -54.5q-13 -67 -49 -128t-82 -103q-19 -17 -36.5 -28.5t-27 -15t-11.5 -1.5q-13 7 -13 25z" />
<glyph unicode="&#x110;" horiz-adv-x="1480" d="M127 707q3 26 16 47h138l133 680h430q151 0 269.5 -49.5t193 -142.5t102 -225.5t-5.5 -299.5q-43 -218 -165.5 -382t-297 -249.5t-375.5 -85.5h-182q-127 0 -175 68t-15 231l73 381h-121q-25 0 -18 27zM285 313q-26 -133 1.5 -182t119.5 -49h180q123 0 239 41 t214.5 118.5t171 200t102.5 275.5q28 157 4.5 276t-92.5 199t-168.5 120t-222.5 40h-347l-116 -598h475q20 0 25.5 -8.5t0.5 -32.5l-6 -33h-510z" />
<glyph unicode="&#x111;" horiz-adv-x="1320" d="M137 502q25 125 86.5 237.5t147 196t197 133t229.5 49.5q100 0 183 -37t140 -102l56 285h-381q-25 0 -19 26q8 32 17 47h397l31 158h49q24 0 31.5 -7.5t3.5 -27.5l-25 -123h96q20 0 26 -8.5t3 -32.5l-8 -32h-131l-209 -1082q-13 -64 1 -91.5t54 -27.5h35q2 -10 -2 -34 q-3 -16 -28.5 -29.5t-59.5 -13.5q-58 0 -83.5 49.5t-6.5 150.5l12 64q-87 -124 -214.5 -199.5t-268.5 -75.5q-204 0 -304.5 141.5t-54.5 385.5zM227 500q-40 -209 43.5 -326t251.5 -117q128 0 256.5 85t229.5 249l94 490q-59 77 -141.5 116t-178.5 39q-127 0 -244 -71 t-199.5 -193.5t-111.5 -271.5z" />
<glyph unicode="&#x112;" horiz-adv-x="1161" d="M193 299q-33 -163 15 -231t175 -68h578l6 41q5 23 -1 32t-26 9h-534q-92 0 -119.5 49t-1.5 182l67 351h609l8 41q5 23 -1 31.5t-26 8.5h-573l118 607h711q15 35 19 55q7 27 -19 27h-784zM592 1708q3 26 16 47h498q20 0 26 -9t1 -32l-7 -33h-516q-25 0 -18 27z" />
<glyph unicode="&#x113;" d="M147 557q25 125 88.5 231.5t149 178t185.5 111.5t200 40q188 0 284.5 -113.5t61.5 -293.5q-14 -73 -49 -136q-22 -41 -46 -54t-67 -13h-723q-25 -206 80.5 -328.5t278.5 -122.5q163 0 293 68q11 -16 6 -43q-5 -32 -103 -69.5t-221 -37.5q-228 0 -348 162.5t-70 419.5z M244 590h735q35 55 47 121q28 146 -48.5 235.5t-227.5 89.5q-104 0 -207 -53.5t-184.5 -157t-114.5 -235.5zM535 1350q3 26 16 47h498q20 0 25.5 -8.5t0.5 -32.5l-6 -33h-516q-25 0 -18 27z" />
<glyph unicode="&#x114;" horiz-adv-x="1161" d="M193 299l221 1135h784q26 0 19 -27q-4 -20 -19 -55h-711l-118 -607h573q20 0 26 -8.5t1 -31.5l-8 -41h-609l-67 -351q-26 -133 1.5 -182t119.5 -49h534q20 0 26 -9t1 -32l-6 -41h-578q-127 0 -175 68t-15 231zM604 1833q29 16 58 16q14 0 17 -5.5t5 -26.5 q2 -86 44 -132.5t120 -46.5q81 0 146.5 53.5t99.5 157.5h39q23 0 29 -7.5t-1 -24.5q-39 -112 -126 -180t-201 -68q-116 0 -176 69.5t-54 194.5z" />
<glyph unicode="&#x115;" d="M147 557q25 125 88.5 231.5t149 178t185.5 111.5t200 40q188 0 284.5 -113.5t61.5 -293.5q-14 -73 -49 -136q-22 -41 -46 -54t-67 -13h-723q-25 -206 80.5 -328.5t278.5 -122.5q163 0 293 68q11 -16 6 -43q-5 -32 -103 -69.5t-221 -37.5q-228 0 -348 162.5t-70 419.5z M244 590h735q35 55 47 121q28 146 -48.5 235.5t-227.5 89.5q-104 0 -207 -53.5t-184.5 -157t-114.5 -235.5zM547 1475q29 16 57 16q10 0 14.5 -3.5t6 -9t2.5 -20.5q2 -86 44 -132t120 -46q81 0 146 53.5t99 157.5h39q23 0 29.5 -8t-0.5 -25q-39 -112 -126.5 -180t-201.5 -68 q-116 0 -175.5 70t-53.5 195z" />
<glyph unicode="&#x116;" horiz-adv-x="1161" d="M193 299q-33 -163 15 -231t175 -68h578l6 41q5 23 -1 32t-26 9h-534q-92 0 -119.5 49t-1.5 182l67 351h609l8 41q5 23 -1 31.5t-26 8.5h-573l118 607h711q15 35 19 55q7 27 -19 27h-784zM799 1720q4 29 25 47.5t48 18.5t42.5 -19.5t9.5 -50.5q-4 -29 -25.5 -47t-48.5 -18 t-42 19t-9 50z" />
<glyph unicode="&#x117;" d="M147 557q25 125 88.5 231.5t149 178t185.5 111.5t200 40q188 0 284.5 -113.5t61.5 -293.5q-14 -73 -49 -136q-22 -41 -46 -54t-67 -13h-723q-25 -206 80.5 -328.5t278.5 -122.5q163 0 293 68q11 -16 6 -43q-5 -32 -103 -69.5t-221 -37.5q-228 0 -348 162.5t-70 419.5z M244 590h735q35 55 47 121q28 146 -48.5 235.5t-227.5 89.5q-104 0 -207 -53.5t-184.5 -157t-114.5 -235.5zM745 1364q6 29 27 47.5t47 18.5q27 0 43 -19.5t10 -50.5q-6 -29 -27.5 -47.5t-47.5 -18.5q-27 0 -42.5 19.5t-9.5 50.5z" />
<glyph unicode="&#x118;" horiz-adv-x="1167" d="M193 299l221 1135h784q26 0 19 -27q-4 -20 -19 -55h-711l-118 -607h573q20 0 26 -8.5t1 -31.5l-8 -41h-609l-67 -351q-26 -133 1.5 -182t119.5 -49h534q20 0 26 -9t1 -32l-6 -41h-109q-187 -113 -215 -254q-10 -52 21.5 -89.5t105.5 -37.5q52 0 92 12q22 7 30 2t3 -24 l-6 -33q-59 -27 -138 -27q-102 0 -152.5 52.5t-33.5 144.5q14 68 66 136.5t133 117.5h-375q-127 0 -175 68t-15 231z" />
<glyph unicode="&#x119;" d="M147 557q25 125 88.5 231.5t149 178t185.5 111.5t200 40q188 0 284.5 -113.5t61.5 -293.5q-14 -73 -49 -136q-22 -41 -46 -54t-67 -13h-723q-25 -206 80.5 -328.5t278.5 -122.5q163 0 293 68q11 -16 6 -43q-5 -25 -71 -56t-159 -44q-159 -104 -184 -236 q-10 -52 21.5 -89.5t105.5 -37.5q52 0 92 12q22 7 30 2t3 -24l-6 -33q-59 -27 -137 -27q-102 0 -153 52.5t-34 144.5q13 60 54 120.5t106 108.5q-146 2 -250.5 74.5t-148 205.5t-11.5 302zM244 590h735q35 55 47 121q28 146 -48.5 235.5t-227.5 89.5q-104 0 -207 -53.5 t-184.5 -157t-114.5 -235.5z" />
<glyph unicode="&#x11a;" horiz-adv-x="1161" d="M193 299l221 1135h784q26 0 19 -27q-4 -20 -19 -55h-711l-118 -607h573q20 0 26 -8.5t1 -31.5l-8 -41h-609l-67 -351q-26 -133 1.5 -182t119.5 -49h534q20 0 26 -9t1 -32l-6 -41h-578q-127 0 -175 68t-15 231zM590 1819q18 29 33 41t26 12q13 0 23 -14l180 -224l291 242 l33 -37q6 -9 6 -14q-4 -12 -15 -21l-311 -256h-22q-22 0 -31 11z" />
<glyph unicode="&#x11b;" d="M147 557q25 125 88.5 231.5t149 178t185.5 111.5t200 40q188 0 284.5 -113.5t61.5 -293.5q-14 -73 -49 -136q-22 -41 -46 -54t-67 -13h-723q-25 -206 80.5 -328.5t278.5 -122.5q163 0 293 68q11 -16 6 -43q-5 -32 -103 -69.5t-221 -37.5q-228 0 -348 162.5t-70 419.5z M244 590h735q35 55 47 121q28 146 -48.5 235.5t-227.5 89.5q-104 0 -207 -53.5t-184.5 -157t-114.5 -235.5zM524 1462q18 29 33 41q16 13 27 13t22 -15l180 -223l291 242l33 -37q6 -6 6 -15q-4 -12 -14 -20l-309 -256h-23q-23 0 -31 10z" />
<glyph unicode="&#x11c;" horiz-adv-x="1533" d="M196 439.5q31 -145.5 111.5 -249t208.5 -159.5t287 -56q217 0 354 83.5t166 236.5l70 348q3 24 -3 32.5t-26 8.5h-428q-13 -31 -18 -55q-3 -27 20 -27h356l-61 -313q-21 -105 -127 -168.5t-283 -63.5q-136 0 -248 48.5t-186 140.5t-101.5 224.5t5.5 299.5 q27 140 95.5 257t159.5 192t196 116t210 41q159 0 271 -70.5t153 -220.5q28 2 64 21q30 16 24 45q-43 139 -171.5 223t-321.5 84q-123 0 -245.5 -46t-228.5 -131.5t-186 -219.5t-112 -297q-36 -179 -5 -324.5zM705 1602q0 10 18 24l297 246h22q23 0 31 -10l217 -265l-45 -41 q-8 -8 -16 -8t-19 11l-184 227l-278 -234q-25 10 -37 25q-9 12 -6 25z" />
<glyph unicode="&#x11d;" horiz-adv-x="1300" d="M33 -244q32 170 241 279q-94 63 -131.5 183t-5.5 284q25 125 86.5 237.5t147 196t197 133t229.5 49.5q100 0 183 -37t140 -102l23 115h49q24 0 31.5 -7.5t3.5 -27.5l-201 -1028q-45 -235 -238 -387t-469 -152q-144 0 -226.5 71.5t-59.5 192.5zM123 -244q-15 -80 44 -131 t167 -51q234 0 399 128.5t203 322.5l43 225q-87 -124 -214.5 -199.5t-268.5 -75.5q-83 0 -150 25q-99 -51 -153.5 -110.5t-69.5 -133.5zM227 500q-40 -209 43.5 -326t251.5 -117q128 0 256.5 85t229.5 249l94 490q-59 77 -141.5 116t-178.5 39q-127 0 -244 -71 t-199.5 -193.5t-111.5 -271.5zM543 1245q0 11 18 25l297 246h23q21 0 30 -11l217 -264l-45 -41q-8 -8 -14 -8q-11 0 -18 10l-187 228l-278 -234q-21 9 -37 25q-9 11 -6 24z" />
<glyph unicode="&#x11e;" horiz-adv-x="1533" d="M196 439.5q-31 145.5 5 324.5q32 163 112 297t186 219.5t228.5 131.5t245.5 46q193 0 321.5 -84t171.5 -223q6 -29 -24 -45q-36 -19 -64 -21q-41 150 -153 220.5t-271 70.5q-105 0 -210 -41t-196 -116t-159.5 -192t-95.5 -257q-33 -167 -5.5 -299.5t101.5 -224.5 t186 -140.5t248 -48.5q177 0 283 63.5t127 168.5l61 313h-356q-23 0 -20 27q5 24 18 55h428q20 0 26 -8.5t3 -32.5l-70 -348q-29 -153 -166 -236.5t-354 -83.5q-159 0 -287 56t-208.5 159.5t-111.5 249zM754 1833q29 16 57 16q8 0 12 -1t6.5 -5.5t3 -9.5t1.5 -16 q2 -87 43.5 -133t119.5 -46q81 0 146.5 53.5t99.5 157.5h39q23 0 29 -7.5t0 -24.5q-39 -112 -126.5 -180t-201.5 -68q-116 0 -175.5 69.5t-53.5 194.5z" />
<glyph unicode="&#x11f;" horiz-adv-x="1300" d="M33 -244q32 170 241 279q-94 63 -131.5 183t-5.5 284q25 125 86.5 237.5t147 196t197 133t229.5 49.5q100 0 183 -37t140 -102l23 115h49q24 0 31.5 -7.5t3.5 -27.5l-201 -1028q-45 -235 -238 -387t-469 -152q-144 0 -226.5 71.5t-59.5 192.5zM123 -244q-15 -80 44 -131 t167 -51q234 0 399 128.5t203 322.5l43 225q-87 -124 -214.5 -199.5t-268.5 -75.5q-83 0 -150 25q-99 -51 -153.5 -110.5t-69.5 -133.5zM227 500q-40 -209 43.5 -326t251.5 -117q128 0 256.5 85t229.5 249l94 490q-59 77 -141.5 116t-178.5 39q-127 0 -244 -71 t-199.5 -193.5t-111.5 -271.5zM590 1475q29 16 57 16q10 0 14.5 -3.5t6 -9t2.5 -20.5q2 -86 44 -132t120 -46q81 0 146 53.5t99 157.5h39q23 0 29.5 -8t-0.5 -25q-39 -112 -126.5 -180t-201.5 -68q-116 0 -175.5 70t-53.5 195z" />
<glyph unicode="&#x120;" horiz-adv-x="1533" d="M196 439.5q31 -145.5 111.5 -249t208.5 -159.5t287 -56q217 0 354 83.5t166 236.5l70 348q3 24 -3 32.5t-26 8.5h-428q-13 -31 -18 -55q-3 -27 20 -27h356l-61 -313q-21 -105 -127 -168.5t-283 -63.5q-136 0 -248 48.5t-186 140.5t-101.5 224.5t5.5 299.5 q27 140 95.5 257t159.5 192t196 116t210 41q159 0 271 -70.5t153 -220.5q28 2 64 21q30 16 24 45q-43 139 -171.5 223t-321.5 84q-123 0 -245.5 -46t-228.5 -131.5t-186 -219.5t-112 -297q-36 -179 -5 -324.5zM950 1720q4 29 25.5 47.5t48.5 18.5t42 -19.5t9 -50.5 q-4 -29 -25.5 -47t-48.5 -18t-42 19t-9 50z" />
<glyph unicode="&#x121;" horiz-adv-x="1300" d="M33 -244q32 170 241 279q-94 63 -131.5 183t-5.5 284q25 125 86.5 237.5t147 196t197 133t229.5 49.5q100 0 183 -37t140 -102l23 115h49q24 0 31.5 -7.5t3.5 -27.5l-201 -1028q-45 -235 -238 -387t-469 -152q-144 0 -226.5 71.5t-59.5 192.5zM123 -244q-15 -80 44 -131 t167 -51q234 0 399 128.5t203 322.5l43 225q-87 -124 -214.5 -199.5t-268.5 -75.5q-83 0 -150 25q-99 -51 -153.5 -110.5t-69.5 -133.5zM227 500q-40 -209 43.5 -326t251.5 -117q128 0 256.5 85t229.5 249l94 490q-59 77 -141.5 116t-178.5 39q-127 0 -244 -71 t-199.5 -193.5t-111.5 -271.5zM788 1364q6 29 27 47.5t47 18.5q27 0 43 -19.5t10 -50.5q-6 -29 -27.5 -47.5t-47.5 -18.5q-27 0 -42.5 19.5t-9.5 50.5z" />
<glyph unicode="&#x122;" horiz-adv-x="1533" d="M196 439.5q-31 145.5 5 324.5q32 163 112 297t186 219.5t228.5 131.5t245.5 46q193 0 321.5 -84t171.5 -223q6 -29 -24 -45q-36 -19 -64 -21q-41 150 -153 220.5t-271 70.5q-105 0 -210 -41t-196 -116t-159.5 -192t-95.5 -257q-33 -167 -5.5 -299.5t101.5 -224.5 t186 -140.5t248 -48.5q177 0 283 63.5t127 168.5l61 313h-356q-23 0 -20 27q5 24 18 55h428q20 0 26 -8.5t3 -32.5l-70 -348q-29 -153 -166 -236.5t-354 -83.5q-159 0 -287 56t-208.5 159.5t-111.5 249zM584 -406q109 91 135 191q-24 3 -35.5 22t-5.5 48q4 29 25.5 47 t48.5 18q28 0 43 -19.5t8 -54.5q-13 -67 -49 -128t-82 -103q-19 -17 -36.5 -28.5t-27.5 -15t-12 -1.5q-12 6 -12 24z" />
<glyph unicode="&#x123;" horiz-adv-x="1300" d="M33 -244q32 170 241 279q-94 63 -131.5 183t-5.5 284q25 125 86.5 237.5t147 196t197 133t229.5 49.5q100 0 183 -37t140 -102l23 115h49q24 0 31.5 -7.5t3.5 -27.5l-201 -1028q-45 -235 -238 -387t-469 -152q-144 0 -226.5 71.5t-59.5 192.5zM123 -244q-15 -80 44 -131 t167 -51q234 0 399 128.5t203 322.5l43 225q-87 -124 -214.5 -199.5t-268.5 -75.5q-83 0 -150 25q-99 -51 -153.5 -110.5t-69.5 -133.5zM227 500q-40 -209 43.5 -326t251.5 -117q128 0 256.5 85t229.5 249l94 490q-59 77 -141.5 116t-178.5 39q-127 0 -244 -71 t-199.5 -193.5t-111.5 -271.5zM764 1253q13 67 49 129t82 103q19 17 36.5 28.5t28 15t13.5 1.5q10 -7 10 -25q-105 -88 -135 -190q24 -3 35.5 -22t7.5 -48q-6 -29 -27.5 -47t-48.5 -18q-28 0 -42.5 19t-8.5 54z" />
<glyph unicode="&#x124;" horiz-adv-x="1478" d="M145 35l271 1397q33 10 63 10q31 0 25 -25l-127 -657h856l131 674h49q23 0 30 -7.5t3 -27.5l-270 -1399h-50q-24 0 -31 7.5t-3 27.5l125 643h-857l-131 -678h-49q-24 0 -31.5 7.5t-3.5 27.5zM682 1602q0 10 18 24l297 246h23q23 0 31 -10l217 -265l-45 -41q-8 -8 -17 -8 q-7 0 -18 11l-184 227l-279 -234q-25 10 -37 25q-9 12 -6 25z" />
<glyph unicode="&#x125;" horiz-adv-x="1306" d="M121 35l278 1438q33 10 64 10q27 0 24 -25l-98 -502q104 75 222 118.5t229 43.5q191 0 264.5 -117.5t32.5 -326.5l-99 -508q-10 -57 4 -81t52 -24h36q3 -15 0 -34q-3 -16 -28.5 -29.5t-59.5 -13.5q-58 0 -85 44.5t-9 137.5l99 500q36 185 -21.5 277.5t-212.5 92.5 q-105 0 -220.5 -43t-219.5 -127l-168 -866h-49q-24 0 -31.5 7.5t-3.5 27.5zM352 1602q0 9 19 24l297 246h22q23 0 31 -10l217 -265l-45 -41q-8 -8 -16 -8t-19 11l-184 227l-279 -234q-25 10 -37 25q-9 12 -6 25z" />
<glyph unicode="&#x126;" horiz-adv-x="1478" d="M145 35l203 1042h-125q-23 0 -20 27q7 29 18 47h141l54 281q33 10 63 10q31 0 25 -25l-51 -266h856l55 283h49q23 0 30 -7.5t3 -27.5l-47 -248h114q20 0 26 -9t1 -32l-6 -33h-150l-208 -1077h-50q-24 0 -31 7.5t-3 27.5l125 643h-857l-131 -678h-49q-24 0 -31.5 7.5 t-3.5 27.5zM377 760h856l61 317h-856z" />
<glyph unicode="&#x127;" horiz-adv-x="1306" d="M121 35l237 1229h-106q-26 0 -19 26q8 32 17 47h123l30 156q33 10 64 10q15 0 21 -6t4 -18l-29 -142h371q20 0 25.5 -8.5t2.5 -32.5l-8 -32h-405l-60 -308q104 75 222 118.5t229 43.5q191 0 264.5 -117.5t32.5 -326.5l-99 -506q-10 -56 5 -80.5t53 -24.5h37q1 -7 -3 -34 q-3 -16 -28.5 -29.5t-59.5 -13.5q-58 0 -85 44.5t-9 137.5l99 498q36 185 -21.5 277.5t-212.5 92.5q-105 0 -220.5 -43t-219.5 -127l-168 -866h-49q-24 0 -31.5 7.5t-3.5 27.5z" />
<glyph unicode="&#x128;" horiz-adv-x="557" d="M158 35l270 1397q33 10 64 10q30 0 24 -25l-274 -1417h-49q-24 0 -31.5 7.5t-3.5 27.5zM229 1657q3 20 23 57q57 109 166 109q85 0 137 -76q48 -66 94 -66q38 0 62.5 27.5t48.5 106.5l51 -11q12 -3 15 -12t-3 -29q-54 -151 -186 -151q-83 0 -135 76q-47 65 -94 65 q-38 0 -63.5 -28t-47.5 -105q-43 0 -59 8q-14 7 -9 29z" />
<glyph unicode="&#x129;" horiz-adv-x="514" d="M123 1298q3 24 22 58q57 108 166 108q87 0 138 -75q48 -66 94 -66q38 0 62 27t48 106l52 -10q12 -3 15 -12t-3 -29q-54 -152 -187 -152q-83 0 -135 76q-48 66 -94 66q-38 0 -63.5 -28t-47.5 -105q-43 0 -59 8q-13 7 -8 28zM145 168l181 924q33 10 63 10q28 0 25 -25 l-178 -909q-10 -57 4.5 -81t52.5 -24h37q2 -10 -2 -34q-3 -16 -28.5 -29.5t-59.5 -13.5q-58 0 -85.5 44.5t-9.5 137.5z" />
<glyph unicode="&#x12a;" horiz-adv-x="557" d="M158 35l270 1397q33 10 64 10q30 0 24 -25l-274 -1417h-49q-24 0 -31.5 7.5t-3.5 27.5zM258 1708q3 26 16 47h498q20 0 26 -9t1 -32l-6 -33h-517q-25 0 -18 27z" />
<glyph unicode="&#x12b;" horiz-adv-x="514" d="M145 168l181 924q33 10 63 10q28 0 25 -25l-178 -909q-10 -57 4.5 -81t52.5 -24h37q2 -10 -2 -34q-3 -16 -28.5 -29.5t-59.5 -13.5q-58 0 -85.5 44.5t-9.5 137.5zM152 1350q3 26 16 47h498q20 0 25.5 -8.5t0.5 -32.5l-6 -33h-516q-25 0 -18 27z" />
<glyph unicode="&#x12c;" horiz-adv-x="557" d="M158 35l270 1397q33 10 64 10q30 0 24 -25l-274 -1417h-49q-24 0 -31.5 7.5t-3.5 27.5zM270 1833q29 16 58 16q14 0 17 -5.5t5 -26.5q2 -86 44 -132.5t120 -46.5q81 0 146.5 53.5t99.5 157.5h39q23 0 29 -7.5t-1 -24.5q-39 -112 -126 -180t-201 -68q-116 0 -176 69.5 t-54 194.5z" />
<glyph unicode="&#x12d;" horiz-adv-x="514" d="M145 168l181 924q33 10 63 10q28 0 25 -25l-178 -909q-10 -57 4.5 -81t52.5 -24h37q2 -10 -2 -34q-3 -16 -28.5 -29.5t-59.5 -13.5q-58 0 -85.5 44.5t-9.5 137.5zM164 1475q29 16 57 16q10 0 14.5 -3.5t6 -9t2.5 -20.5q2 -86 44 -132t120 -46q81 0 146 53.5t99 157.5h39 q23 0 29.5 -8t-0.5 -25q-39 -112 -126.5 -180t-201.5 -68q-116 0 -175.5 70t-53.5 195z" />
<glyph unicode="&#x12e;" horiz-adv-x="557" d="M-51 -254q15 70 68.5 140.5t142.5 121.5q-7 10 -2 27l270 1397q33 10 64 10q30 0 24 -25l-274 -1417q-187 -113 -215 -254q-10 -52 21.5 -89.5t105.5 -37.5q52 0 92 12q22 7 30 2t3 -24l-7 -33q-59 -27 -137 -27q-102 0 -152.5 52.5t-33.5 144.5z" />
<glyph unicode="&#x12f;" horiz-adv-x="514" d="M-14 -254q14 68 65 137.5t131 118.5q-59 37 -37 166l181 924q33 10 63 10q28 0 25 -25l-178 -909q-10 -57 4.5 -81t52.5 -24h37q2 -10 -2 -34q-3 -14 -24.5 -27t-51.5 -16q-160 -103 -189 -240q-10 -52 21.5 -89.5t105.5 -37.5q52 0 93 12q22 7 29.5 2t2.5 -24l-6 -33 q-59 -27 -137 -27q-102 0 -152.5 52.5t-33.5 144.5zM377 1446q4 28 25.5 45.5t48.5 17.5t42 -19t9 -50q-6 -29 -26.5 -46.5t-47.5 -17.5t-42 19.5t-9 50.5z" />
<glyph unicode="&#x130;" horiz-adv-x="557" d="M158 35l270 1397q33 10 64 10q30 0 24 -25l-274 -1417h-49q-24 0 -31.5 7.5t-3.5 27.5zM467 1720q4 29 25.5 47.5t48.5 18.5t42 -19.5t9 -50.5q-4 -29 -25.5 -47t-48.5 -18t-42 19t-9 50z" />
<glyph unicode="&#x131;" horiz-adv-x="514" d="M145 168l181 924q33 10 63 10q28 0 25 -25l-178 -909q-10 -57 4.5 -81t52.5 -24h37q2 -10 -2 -34q-3 -16 -28.5 -29.5t-59.5 -13.5q-58 0 -85.5 44.5t-9.5 137.5z" />
<glyph unicode="&#x132;" horiz-adv-x="1316" d="M158 35l270 1397q33 10 64 10q30 0 24 -25l-274 -1417h-49q-24 0 -31.5 7.5t-3.5 27.5zM463 51q-3 -18 28.5 -36t81 -29t97.5 -11q173 0 279.5 101t142.5 284l204 1057q6 25 -24 25q-31 0 -64 -10l-207 -1072q-30 -152 -113 -227.5t-202 -75.5q-123 0 -201 37 q-15 -15 -22 -43z" />
<glyph unicode="&#x133;" horiz-adv-x="946" d="M145 168l181 924q33 10 63 10q28 0 25 -25l-178 -909q-10 -57 4.5 -81t52.5 -24h37q2 -10 -2 -34q-3 -16 -28.5 -29.5t-59.5 -13.5q-58 0 -85.5 44.5t-9.5 137.5zM317 -379q213 154 258 387l211 1084q33 10 64 10q27 0 24 -25l-206 -1063q-36 -177 -142 -301 q-39 -46 -80.5 -78.5t-68.5 -44t-37 -6.5q-8 5 -15.5 16t-7.5 21zM377 1446q4 28 25.5 45.5t48.5 17.5t42 -19t9 -50q-6 -29 -26.5 -46.5t-47.5 -17.5t-42 19.5t-9 50.5zM838 1446q4 29 25 46t48 17t42.5 -19t9.5 -50q-6 -29 -26.5 -46.5t-47.5 -17.5t-42 19.5t-9 50.5z" />
<glyph unicode="&#x134;" horiz-adv-x="817" d="M-37 51q-3 -18 28.5 -36t81 -29t97.5 -11q173 0 279.5 101t142.5 284l205 1057q6 25 -25 25q-30 0 -63 -10l-207 -1072q-30 -152 -113.5 -227.5t-202.5 -75.5q-122 0 -200 37q-16 -16 -23 -43zM496 1602q0 10 18 24l297 246h23q22 0 30 -10l217 -265l-45 -41 q-8 -8 -16 -8t-19 11l-184 227l-278 -234q-25 10 -37 25q-9 12 -6 25z" />
<glyph unicode="&#x135;" horiz-adv-x="559" d="M-131 -379q103 75 168.5 174t87.5 213l211 1084q33 10 63 10q28 0 25 -25l-207 -1063q-37 -179 -141 -301q-39 -46 -80.5 -78.5t-68 -44t-36.5 -6.5q-8 5 -15 16t-7 21zM119 1245q0 11 18 25l297 246h23q21 0 30 -11l218 -264l-46 -41q-8 -8 -14 -8q-11 0 -18 10 l-187 228l-278 -234q-21 9 -37 25q-9 11 -6 24z" />
<glyph unicode="&#x136;" horiz-adv-x="1343" d="M145 35l271 1397q33 10 63 10q31 0 25 -25l-152 -782q252 143 510 352.5t469 454.5q34 -7 49.5 -20t12.5 -27q-3 -16 -19 -35q-250 -291 -608 -549q73 -212 157 -388t160 -282q34 -48 61 -66t60 -18h25q3 -16 0 -32q-3 -19 -29.5 -34.5t-56.5 -15.5q-41 0 -70.5 21 t-66.5 72q-174 251 -314 690q-196 -135 -360 -226l-103 -532h-49q-24 0 -31.5 7.5t-3.5 27.5zM432 -406q109 91 135 191q-24 3 -35.5 22t-5.5 48q4 29 25.5 47t48.5 18q28 0 43 -19.5t8 -54.5q-13 -67 -49 -128t-82 -103q-19 -17 -36.5 -28.5t-27.5 -15t-12 -1.5 q-12 6 -12 24z" />
<glyph unicode="&#x137;" d="M121 35l282 1458q33 10 64 10q15 0 21 -6t4 -18l-189 -973q463 251 791 598q58 -18 51 -51q0 -12 -15 -27q-213 -213 -509 -414q59 -143 132.5 -270.5t135.5 -200.5q36 -45 58 -61.5t48 -16.5h39q2 -10 -2 -34q-3 -15 -29 -29t-51 -14q-41 0 -74.5 21.5t-76.5 82.5 q-144 193 -258 473q-130 -82 -258 -149l-80 -414h-49q-24 0 -31.5 7.5t-3.5 27.5zM336 -406q109 91 135 191q-24 3 -35.5 22t-5.5 48q4 29 25.5 47t48.5 18q28 0 43 -19.5t8 -54.5q-13 -67 -49 -128t-82 -103q-19 -17 -36.5 -28.5t-27.5 -15t-12 -1.5q-12 6 -12 24z" />
<glyph unicode="&#x138;" d="M121 35l205 1057q33 10 63 10q28 0 25 -25l-111 -571q463 251 791 598q58 -18 51 -51q0 -12 -15 -27q-213 -213 -509 -414q59 -143 132.5 -270.5t135.5 -200.5q36 -45 58 -61.5t48 -16.5h39q2 -10 -2 -34q-3 -15 -29 -29t-51 -14q-41 0 -74.5 21.5t-76.5 82.5 q-144 193 -258 473q-130 -82 -258 -149l-80 -414h-49q-24 0 -31.5 7.5t-3.5 27.5z" />
<glyph unicode="&#x139;" horiz-adv-x="1114" d="M193 299l219 1133q33 10 63 10q31 0 25 -25l-215 -1104q-26 -133 1.5 -182t119.5 -49h544q20 0 26 -9t1 -32l-6 -41h-588q-127 0 -175 68t-15 231zM393 1602l324 258q18 14 26 14q14 0 23 -12q13 -17 16 -41l-329 -248q-15 -10 -23 -10q-9 0 -14 8z" />
<glyph unicode="&#x13a;" horiz-adv-x="585" d="M160 240l239 1233q33 10 64 10q27 0 24 -25l-237 -1218q-17 -90 10 -131t96 -41q70 0 125 22q11 -16 6 -43q-3 -19 -53 -40t-108 -21q-102 0 -146.5 62.5t-19.5 191.5zM371 1602l323 258q17 14 27 14q13 0 22 -12q14 -19 17 -41l-330 -248q-15 -10 -22 -10q-10 0 -15 8z " />
<glyph unicode="&#x13b;" horiz-adv-x="1114" d="M193 299l219 1133q33 10 63 10q31 0 25 -25l-215 -1104q-26 -133 1.5 -182t119.5 -49h544q20 0 26 -9t1 -32l-6 -41h-588q-127 0 -175 68t-15 231zM412 -406q109 91 135 191q-24 3 -35.5 22t-5.5 48q4 29 25.5 47t48.5 18q28 0 43 -19.5t8 -54.5q-13 -67 -49 -128 t-82 -103q-19 -17 -36.5 -28.5t-27.5 -15t-12 -1.5q-12 6 -12 24z" />
<glyph unicode="&#x13c;" horiz-adv-x="585" d="M123 -406q109 91 135 191q-24 3 -35.5 22t-5.5 48q4 29 25.5 47t48.5 18q28 0 43 -19.5t8 -54.5q-13 -67 -49 -128t-82 -103q-19 -17 -36.5 -28.5t-27.5 -15t-12 -1.5q-12 6 -12 24zM160 240l243 1253q33 10 64 10q15 0 21 -6t4 -18l-242 -1239q-17 -90 10 -131t96 -41 q70 0 125 22q11 -16 6 -43q-3 -19 -53 -40t-108 -21q-102 0 -146.5 62.5t-19.5 191.5z" />
<glyph unicode="&#x13d;" horiz-adv-x="1114" d="M193 299q-33 -163 15 -231t175 -68h588l6 41q5 23 -1 32t-26 9h-544q-92 0 -119.5 49t-1.5 182l215 1104q6 25 -25 25q-30 0 -63 -10zM582 1174q109 92 135 190q-24 3 -35.5 22t-5.5 48q4 29 25.5 47t48.5 18q28 0 42.5 -19.5t8.5 -54.5q-13 -67 -49 -128t-82 -103 q-19 -17 -36.5 -28.5t-27.5 -15t-12 -1.5q-12 6 -12 25z" />
<glyph unicode="&#x13e;" horiz-adv-x="604" d="M160 240l243 1253q33 10 64 10q15 0 21 -6t4 -18l-242 -1239q-17 -90 10 -131t96 -41q70 0 125 22q11 -16 6 -43q-3 -19 -53 -40t-108 -21q-102 0 -146.5 62.5t-19.5 191.5zM561 1174q109 92 135 190q-24 3 -35.5 22t-5.5 48q4 29 25.5 47t48.5 18q28 0 42.5 -19.5 t8.5 -54.5q-13 -67 -49 -128t-82 -103q-19 -17 -36.5 -28.5t-27.5 -15t-12 -1.5q-12 6 -12 25z" />
<glyph unicode="&#x13f;" horiz-adv-x="1114" d="M193 299l219 1133q33 10 63 10q31 0 25 -25l-215 -1104q-26 -133 1.5 -182t119.5 -49h544q20 0 26 -9t1 -32l-6 -41h-588q-127 0 -175 68t-15 231zM764 750q4 29 25.5 47t48.5 18t42 -19.5t9 -50.5q-4 -29 -25.5 -47t-48.5 -18t-42 19.5t-9 50.5z" />
<glyph unicode="&#x140;" horiz-adv-x="684" d="M160 240l243 1253q33 10 64 10q15 0 21 -6t4 -18l-242 -1239q-17 -90 10 -131t96 -41q70 0 125 22q11 -16 6 -43q-3 -19 -53 -40t-108 -21q-102 0 -146.5 62.5t-19.5 191.5zM598 778q6 29 27.5 47.5t48.5 18.5t42 -19.5t9 -50.5q-6 -29 -26.5 -47t-47.5 -18t-43 19 t-10 50z" />
<glyph unicode="&#x141;" horiz-adv-x="1114" d="M68 608l202 88l142 736q33 10 63 10q31 0 25 -25l-131 -678l462 203q24 10 31 -14q4 -14 4 -45l-514 -226l-67 -344q-26 -133 1.5 -182t119.5 -49h544q20 0 26 -9t1 -32l-6 -41h-588q-127 0 -175 68t-15 231l61 315l-150 -65q-23 -9 -30 14q-6 14 -6 45z" />
<glyph unicode="&#x142;" horiz-adv-x="585" d="M45 647l213 92l145 754q33 10 64 10q15 0 21 -6t4 -18l-136 -697l217 97q10 4 19 0t12 -15q4 -14 4 -43l-268 -119l-90 -462q-17 -90 10 -131t96 -41q70 0 125 22q11 -16 6 -43q-3 -19 -53 -40t-108 -21q-102 0 -146.5 62.5t-19.5 191.5l82 419l-162 -69q-10 -5 -19 -0.5 t-10 14.5q-6 14 -6 43z" />
<glyph unicode="&#x143;" horiz-adv-x="1470" d="M145 35l267 1374q51 33 86 33q23 0 32 -23l572 -1288l254 1303h49q23 0 30 -7.5t3 -27.5l-267 -1374q-51 -33 -86 -33q-21 0 -32 22l-572 1289l-252 -1303h-49q-24 0 -31.5 7.5t-3.5 27.5zM823 1602l324 258q17 14 27 14q13 0 22 -12q13 -17 16 -41l-329 -248 q-15 -10 -23 -10q-9 0 -14 8z" />
<glyph unicode="&#x144;" horiz-adv-x="1306" d="M121 35l205 1057q33 10 63 10q28 0 25 -25l-25 -121q104 75 222 118.5t229 43.5q191 0 264.5 -117.5t32.5 -326.5l-99 -506q-10 -56 5 -80.5t53 -24.5h37q1 -7 -3 -34q-3 -16 -28.5 -29.5t-59.5 -13.5q-58 0 -85 44.5t-9 137.5l99 498q36 185 -21.5 277.5t-212.5 92.5 q-105 0 -220.5 -43t-219.5 -127l-168 -866h-49q-24 0 -31.5 7.5t-3.5 27.5zM653 1245l324 258q19 15 29 15t20 -13q12 -12 16 -41l-329 -247q-16 -11 -23 -11q-9 0 -14 8z" />
<glyph unicode="&#x145;" horiz-adv-x="1470" d="M145 35l267 1374q51 33 86 33q23 0 32 -23l572 -1288l254 1303h49q23 0 30 -7.5t3 -27.5l-267 -1374q-51 -33 -86 -33q-21 0 -32 22l-572 1289l-252 -1303h-49q-24 0 -31.5 7.5t-3.5 27.5zM479 -406q109 91 135 191q-24 3 -35.5 22t-5.5 48q4 29 25.5 47t48.5 18 q28 0 43 -19.5t8 -54.5q-13 -67 -49 -128t-82 -103q-19 -17 -36.5 -28.5t-27 -15t-11.5 -1.5q-13 6 -13 24z" />
<glyph unicode="&#x146;" horiz-adv-x="1306" d="M121 35l205 1057q33 10 63 10q28 0 25 -25l-25 -121q104 75 222 118.5t229 43.5q191 0 264.5 -117.5t32.5 -326.5l-99 -506q-10 -56 5 -80.5t53 -24.5h37q1 -7 -3 -34q-3 -16 -28.5 -29.5t-59.5 -13.5q-58 0 -85 44.5t-9 137.5l99 498q36 185 -21.5 277.5t-212.5 92.5 q-105 0 -220.5 -43t-219.5 -127l-168 -866h-49q-24 0 -31.5 7.5t-3.5 27.5zM403 -406q110 92 136 191q-24 3 -35.5 22t-5.5 48q4 29 25 47t48 18q28 0 43.5 -19.5t8.5 -54.5q-13 -67 -49 -128t-82 -103q-19 -17 -36.5 -28.5t-27.5 -15t-12 -1.5q-13 6 -13 24z" />
<glyph unicode="&#x147;" horiz-adv-x="1470" d="M145 35l267 1374q51 33 86 33q23 0 32 -23l572 -1288l254 1303h49q23 0 30 -7.5t3 -27.5l-267 -1374q-51 -33 -86 -33q-21 0 -32 22l-572 1289l-252 -1303h-49q-24 0 -31.5 7.5t-3.5 27.5zM709 1819q19 31 32 41q15 12 27 12q13 0 23 -14l180 -224l291 242l32 -37 q6 -9 6 -14q-4 -13 -14 -21l-311 -256h-23q-21 0 -30 11z" />
<glyph unicode="&#x148;" horiz-adv-x="1306" d="M121 35l205 1057q33 10 63 10q28 0 25 -25l-25 -121q104 75 222 118.5t229 43.5q191 0 264.5 -117.5t32.5 -326.5l-99 -506q-10 -56 5 -80.5t53 -24.5h37q1 -7 -3 -34q-3 -16 -28.5 -29.5t-59.5 -13.5q-58 0 -85 44.5t-9 137.5l99 498q36 185 -21.5 277.5t-212.5 92.5 q-105 0 -220.5 -43t-219.5 -127l-168 -866h-49q-24 0 -31.5 7.5t-3.5 27.5zM541 1462q19 31 32 41q16 13 27 13q12 0 23 -15l180 -223l291 242l32 -37q7 -7 7 -15q-4 -11 -15 -20l-309 -256h-23q-22 0 -30 10z" />
<glyph unicode="&#x149;" horiz-adv-x="1306" d="M121 35l205 1057q33 10 63 10q28 0 25 -25l-25 -121q104 75 222 118.5t229 43.5q191 0 264.5 -117.5t32.5 -326.5l-99 -506q-10 -56 5 -80.5t53 -24.5h37q1 -7 -3 -34q-3 -16 -28.5 -29.5t-59.5 -13.5q-58 0 -85 44.5t-9 137.5l99 498q36 185 -21.5 277.5t-212.5 92.5 q-105 0 -220.5 -43t-219.5 -127l-168 -866h-49q-24 0 -31.5 7.5t-3.5 27.5zM199 1174q109 92 135 190q-24 3 -35.5 22t-5.5 48q4 29 25.5 47t48.5 18q28 0 42.5 -19.5t8.5 -54.5q-13 -67 -49 -128t-82 -103q-19 -17 -36.5 -28.5t-27.5 -15t-12 -1.5q-12 6 -12 25z" />
<glyph unicode="&#x14a;" horiz-adv-x="1470" d="M145 35l267 1374q51 33 86 33q23 0 32 -23l572 -1288l254 1303h49q23 0 30 -7.5t3 -27.5l-281 -1446q-33 -174 -141 -301q-39 -46 -81 -78.5t-69 -44t-37 -6.5q-8 5 -15 16t-7 21q213 154 258 387l6 26l-590 1330l-252 -1303h-49q-24 0 -31.5 7.5t-3.5 27.5z" />
<glyph unicode="&#x14b;" horiz-adv-x="1302" d="M121 35l205 1057q33 10 63 10q28 0 25 -25l-25 -121q223 162 451 162q191 0 264.5 -117.5t32.5 -326.5l-140 -721q-33 -174 -141 -301q-39 -46 -80.5 -78.5t-68.5 -44t-37 -6.5q-8 5 -15.5 16t-7.5 21q213 154 258 387l142 719q35 187 -21.5 278.5t-212.5 91.5 q-109 0 -223 -43t-217 -127l-168 -866h-49q-24 0 -31.5 7.5t-3.5 27.5z" />
<glyph unicode="&#x14c;" horiz-adv-x="1576" d="M182.5 393q23.5 -139 96 -232t180 -139.5t241.5 -46.5t260.5 47.5t234.5 138t188.5 234t115.5 322.5q33 185 9.5 323.5t-97 231.5t-181 139.5t-241.5 46.5t-260 -47.5t-234 -137.5t-188 -233.5t-114 -322.5q-34 -185 -10.5 -324zM277 431.5q-19 127.5 12 301.5 q30 158 99 283.5t160 202.5t195 117t213 40q120 0 214.5 -40t159.5 -123.5t83.5 -211t-12.5 -301.5q-25 -127 -75 -233.5t-115 -181.5t-144.5 -127t-163.5 -76.5t-170 -24.5q-119 0 -213 40t-159 123.5t-84 211zM768 1708q3 26 16 47h498q20 0 26 -9t1 -32l-6 -33h-517 q-25 0 -18 27z" />
<glyph unicode="&#x14d;" horiz-adv-x="1286" d="M141 307.5q-21 106.5 4 239.5q34 173 131.5 304.5t228 199t273.5 67.5q106 0 193 -39t143.5 -113t77 -180t-5.5 -239q-50 -259 -230.5 -415.5t-400.5 -156.5q-106 0 -193 39.5t-143.5 113t-77.5 180zM233.5 340q16.5 -94 67 -157t123 -94.5t160.5 -31.5q110 0 213 52 t185.5 163t111.5 263q23 125 6.5 219t-67 156.5t-123 94t-160.5 31.5q-81 0 -161 -30.5t-150.5 -88.5t-123.5 -150.5t-75 -207.5q-23 -125 -6.5 -219zM553 1350q3 26 16 47h498q20 0 26 -9t1 -32l-7 -33h-516q-25 0 -18 27z" />
<glyph unicode="&#x14e;" horiz-adv-x="1576" d="M182.5 393q-23.5 139 10.5 324q34 179 114 322.5t188 233.5t234 137.5t260 47.5t241.5 -46.5t181 -139.5t97 -231.5t-9.5 -323.5q-35 -179 -115.5 -322.5t-188.5 -234t-234.5 -138t-260.5 -47.5t-241.5 46.5t-180 139.5t-96 232zM277 431.5q19 -127.5 84 -211t159 -123.5 t213 -40q86 0 170 24.5t163.5 76.5t144.5 127t115 181.5t75 233.5q31 174 12.5 301.5t-83.5 211t-159.5 123.5t-214.5 40q-109 0 -213 -40t-195 -117t-160 -202.5t-99 -283.5q-31 -174 -12 -301.5zM780 1833q29 16 58 16q14 0 17 -5.5t5 -26.5q2 -86 44 -132.5t120 -46.5 q81 0 146.5 53.5t99.5 157.5h39q23 0 29 -7.5t-1 -24.5q-39 -112 -126 -180t-201 -68q-116 0 -176 69.5t-54 194.5z" />
<glyph unicode="&#x14f;" horiz-adv-x="1286" d="M141 307.5q-21 106.5 4 239.5q34 173 131.5 304.5t228 199t273.5 67.5q106 0 193 -39t143.5 -113t77 -180t-5.5 -239q-50 -259 -230.5 -415.5t-400.5 -156.5q-106 0 -193 39.5t-143.5 113t-77.5 180zM233.5 340q16.5 -94 67 -157t123 -94.5t160.5 -31.5q110 0 213 52 t185.5 163t111.5 263q23 125 6.5 219t-67 156.5t-123 94t-160.5 31.5q-81 0 -161 -30.5t-150.5 -88.5t-123.5 -150.5t-75 -207.5q-23 -125 -6.5 -219zM565 1475q29 16 58 16q14 0 17 -6t5 -27q2 -86 44 -132t120 -46q81 0 146.5 53.5t99.5 157.5h39q23 0 29 -8t-1 -25 q-39 -112 -126 -180t-201 -68q-116 0 -176 70t-54 195z" />
<glyph unicode="&#x150;" horiz-adv-x="1576" d="M182.5 393q-23.5 139 10.5 324q34 179 114 322.5t188 233.5t234 137.5t260 47.5t241.5 -46.5t181 -139.5t97 -231.5t-9.5 -323.5q-35 -179 -115.5 -322.5t-188.5 -234t-234.5 -138t-260.5 -47.5t-241.5 46.5t-180 139.5t-96 232zM277 431.5q19 -127.5 84 -211t159 -123.5 t213 -40q86 0 170 24.5t163.5 76.5t144.5 127t115 181.5t75 233.5q31 174 12.5 301.5t-83.5 211t-159.5 123.5t-214.5 40q-109 0 -213 -40t-195 -117t-160 -202.5t-99 -283.5q-31 -174 -12 -301.5zM731 1602l324 258q17 14 26 14q14 0 23 -12q13 -17 16 -41l-329 -248 q-15 -10 -23 -10q-9 0 -14 8zM997 1602l324 258q17 14 27 14q13 0 22 -12q13 -17 16 -41l-329 -248q-15 -10 -23 -10q-9 0 -14 8z" />
<glyph unicode="&#x151;" horiz-adv-x="1286" d="M141 307.5q-21 106.5 4 239.5q34 173 131.5 304.5t228 199t273.5 67.5q106 0 193 -39t143.5 -113t77 -180t-5.5 -239q-50 -259 -230.5 -415.5t-400.5 -156.5q-106 0 -193 39.5t-143.5 113t-77.5 180zM233.5 340q16.5 -94 67 -157t123 -94.5t160.5 -31.5q110 0 213 52 t185.5 163t111.5 263q23 125 6.5 219t-67 156.5t-123 94t-160.5 31.5q-81 0 -161 -30.5t-150.5 -88.5t-123.5 -150.5t-75 -207.5q-23 -125 -6.5 -219zM516 1245l324 258q19 15 28 15q11 0 21 -13q12 -12 16 -41l-330 -247q-16 -11 -22 -11q-9 0 -14 8zM782 1245l324 258 q19 15 29 15t20 -13q12 -12 16 -41l-329 -247q-16 -11 -23 -11q-9 0 -14 8z" />
<glyph unicode="&#x152;" horiz-adv-x="1959" d="M182.5 393q-23.5 139 10.5 324q27 143 85.5 265.5t135.5 208.5t169 147t188 90.5t192 29.5q151 0 233 -53l6 29h795q25 0 18 -27q-5 -24 -18 -55h-721l-119 -607h584q20 0 25.5 -8.5t0.5 -31.5l-8 -41h-618l-68 -351q-26 -133 1.5 -182t119.5 -49h545q20 0 25.5 -8.5 t0.5 -32.5l-6 -41h-588q-110 0 -159 49q-139 -74 -312 -74q-134 0 -241.5 46.5t-180 139.5t-96 232zM277 431.5q19 -127.5 84 -211t159 -123.5t213 -40q133 0 244 54q-20 65 4 188l199 1024q-106 53 -224 53q-109 0 -213 -40t-195 -117t-160 -202.5t-99 -283.5 q-31 -174 -12 -301.5z" />
<glyph unicode="&#x153;" horiz-adv-x="2121" d="M141 307.5q-21 106.5 4 239.5q34 173 131.5 304.5t228 199t273.5 67.5q159 0 271 -87t141 -240q86 150 232 238.5t298 88.5q188 0 284.5 -113.5t61.5 -293.5q-14 -73 -49 -136q-22 -41 -45.5 -54t-66.5 -13h-723q-25 -206 80 -328.5t278 -122.5q163 0 293 68 q11 -16 6 -43q-5 -32 -102.5 -69.5t-220.5 -37.5q-164 0 -277 90t-141 242q-85 -155 -233 -243.5t-310 -88.5q-106 0 -193 39.5t-143.5 113t-77.5 180zM233.5 340q16.5 -94 67 -157t123 -94.5t160.5 -31.5q110 0 213 52t185.5 163t111.5 263l4 22q19 115 -0.5 208t-69.5 151 t-121 89t-157 31q-81 0 -161 -30.5t-150.5 -88.5t-123.5 -150.5t-75 -207.5q-23 -125 -6.5 -219zM1194 590h735q35 55 47 121q28 146 -48.5 235.5t-227.5 89.5q-104 0 -207 -53.5t-184.5 -157t-114.5 -235.5z" />
<glyph unicode="&#x154;" horiz-adv-x="1339" d="M145 35l273 1399h389q250 0 377 -131.5t82 -364.5q-38 -190 -163.5 -311.5t-299.5 -163.5q95 -215 201 -334q39 -45 64.5 -58.5t61.5 -13.5h21q3 -16 0 -32q-5 -21 -27 -35.5t-51 -14.5q-39 0 -74 23t-79 78q-112 137 -203 373q-54 -7 -94 -7q-160 0 -299 50l-95 -492 h-49q-24 0 -31.5 7.5t-3.5 27.5zM338 565q122 -41 301 -41q204 0 351 109.5t186 304.5q38 202 -69 308t-314 106h-301zM694 1602l324 258q18 14 26 14q14 0 23 -12q13 -17 16 -41l-329 -248q-15 -10 -23 -10q-9 0 -14 8z" />
<glyph unicode="&#x155;" horiz-adv-x="874" d="M121 35l205 1057q33 10 63 10q28 0 25 -25l-31 -153q148 194 362 194q130 0 205 -53q22 -19 17 -33q-3 -14 -17 -28q-23 -20 -49 -33q-68 65 -194 65q-96 0 -188.5 -67t-166.5 -201l-147 -768h-49q-24 0 -31.5 7.5t-3.5 27.5zM461 1245l323 258q19 15 29 15q11 0 21 -13 q12 -12 16 -41l-330 -247q-16 -11 -22 -11q-10 0 -15 8z" />
<glyph unicode="&#x156;" horiz-adv-x="1339" d="M145 35l273 1399h389q250 0 377 -131.5t82 -364.5q-38 -190 -163.5 -311.5t-299.5 -163.5q95 -215 201 -334q39 -45 64.5 -58.5t61.5 -13.5h21q3 -16 0 -32q-5 -21 -27 -35.5t-51 -14.5q-39 0 -74 23t-79 78q-112 137 -203 373q-54 -7 -94 -7q-160 0 -299 50l-95 -492 h-49q-24 0 -31.5 7.5t-3.5 27.5zM338 565q122 -41 301 -41q204 0 351 109.5t186 304.5q38 202 -69 308t-314 106h-301zM406 -406q109 91 135 191q-24 3 -35.5 22t-5.5 48q4 29 25 47t48 18q28 0 43.5 -19.5t8.5 -54.5q-13 -67 -49 -128t-82 -103q-19 -17 -36.5 -28.5 t-27.5 -15t-12 -1.5q-12 6 -12 24z" />
<glyph unicode="&#x157;" horiz-adv-x="874" d="M-25 -406q110 92 136 191q-24 3 -35.5 22t-5.5 48q4 29 25 47t48 18q28 0 43.5 -19.5t8.5 -54.5q-13 -66 -49 -127.5t-83 -103.5q-19 -17 -36.5 -28.5t-27 -15t-11.5 -1.5q-13 6 -13 24zM121 35l205 1057q33 10 63 10q28 0 25 -25l-31 -153q148 194 362 194 q130 0 205 -53q22 -19 17 -33q-3 -14 -17 -28q-23 -20 -49 -33q-68 65 -194 65q-96 0 -188.5 -67t-166.5 -201l-147 -768h-49q-24 0 -31.5 7.5t-3.5 27.5z" />
<glyph unicode="&#x158;" horiz-adv-x="1339" d="M145 35l273 1399h389q250 0 377 -131.5t82 -364.5q-38 -190 -163.5 -311.5t-299.5 -163.5q95 -215 201 -334q39 -45 64.5 -58.5t61.5 -13.5h21q3 -16 0 -32q-5 -21 -27 -35.5t-51 -14.5q-39 0 -74 23t-79 78q-112 137 -203 373q-54 -7 -94 -7q-160 0 -299 50l-95 -492 h-49q-24 0 -31.5 7.5t-3.5 27.5zM338 565q122 -41 301 -41q204 0 351 109.5t186 304.5q38 202 -69 308t-314 106h-301zM614 1819q18 29 33 41t27 12t22 -14l181 -224l290 242l33 -37q6 -9 6 -14q-4 -13 -14 -21l-311 -256h-23q-22 0 -31 11z" />
<glyph unicode="&#x159;" horiz-adv-x="874" d="M121 35l205 1057q33 10 63 10q28 0 25 -25l-31 -153q148 194 362 194q130 0 205 -53q22 -19 17 -33q-3 -14 -17 -28q-23 -20 -49 -33q-68 65 -194 65q-96 0 -188.5 -67t-166.5 -201l-147 -768h-49q-24 0 -31.5 7.5t-3.5 27.5zM397 1462q18 29 33 41q16 13 27 13t22 -15 l180 -223l291 242l33 -37q6 -6 6 -15q-4 -12 -14 -20l-309 -256h-23q-23 0 -31 10z" />
<glyph unicode="&#x15a;" horiz-adv-x="1212" d="M143 109q4 24 23 43q156 -95 373 -95q185 0 296 77.5t134 201.5q24 124 -57.5 205t-280.5 139q-207 60 -296 158.5t-59 246.5q32 165 175.5 269t336.5 104q162 0 272.5 -69t149.5 -177q8 -31 -22 -49q-30 -17 -66 -20q-35 114 -124.5 173.5t-225.5 59.5 q-156 0 -267.5 -77t-137.5 -205q-23 -120 47.5 -197t257.5 -137q115 -37 190.5 -74.5t128 -87t69.5 -112.5t1 -144q-32 -168 -177 -267.5t-360 -99.5q-63 0 -124.5 8.5t-108 22.5t-82 31t-53 36t-13.5 36zM664 1602l323 258q18 14 27 14q13 0 22 -12q14 -19 17 -41 l-330 -248q-15 -10 -23 -10q-9 0 -14 8z" />
<glyph unicode="&#x15b;" horiz-adv-x="1017" d="M117 86q4 27 22 45q127 -74 291 -74q301 0 342 199q16 83 -38.5 139.5t-198.5 93.5q-184 46 -259.5 127.5t-50.5 210.5t139.5 210t272.5 81q125 0 212 -48.5t120 -129.5q12 -28 -23 -49q-24 -15 -61 -21q-24 80 -95.5 123t-171.5 43q-111 0 -198 -59.5t-107 -157.5 q-17 -91 43.5 -147.5t225.5 -100.5q171 -46 237 -119t43 -190q-27 -135 -142 -211t-302 -76q-81 0 -155 20.5t-112 46.5t-34 44zM500 1245l323 258q19 15 29 15t20 -13q14 -14 17 -41l-330 -247q-17 -11 -22 -11q-10 0 -15 8z" />
<glyph unicode="&#x15c;" horiz-adv-x="1212" d="M143 109q-4 -17 13.5 -36t53 -36t82 -31t108 -22.5t124.5 -8.5q215 0 360 99.5t177 267.5q16 81 -1 144t-69.5 112.5t-128 87t-190.5 74.5q-187 60 -257.5 137t-47.5 197q26 128 137.5 205t267.5 77q136 0 225.5 -59.5t124.5 -173.5q36 3 66 20q30 18 22 49 q-39 108 -149.5 177t-272.5 69q-193 0 -336.5 -104t-175.5 -269q-30 -148 59 -246.5t296 -158.5q199 -58 280.5 -139t57.5 -205q-23 -124 -134 -201.5t-296 -77.5q-217 0 -373 95q-19 -19 -23 -43zM528 1602q0 9 19 24l297 246h22q23 0 31 -10l217 -265l-45 -41 q-8 -8 -16 -8t-19 11l-184 227l-279 -234q-24 9 -36 25q-9 13 -7 25z" />
<glyph unicode="&#x15d;" horiz-adv-x="1017" d="M117 86q4 27 22 45q127 -74 291 -74q301 0 342 199q16 83 -38.5 139.5t-198.5 93.5q-184 46 -259.5 127.5t-50.5 210.5t139.5 210t272.5 81q125 0 212 -48.5t120 -129.5q12 -28 -23 -49q-24 -15 -61 -21q-24 80 -95.5 123t-171.5 43q-111 0 -198 -59.5t-107 -157.5 q-17 -91 43.5 -147.5t225.5 -100.5q171 -46 237 -119t43 -190q-27 -135 -142 -211t-302 -76q-81 0 -155 20.5t-112 46.5t-34 44zM375 1245q0 11 18 25l297 246h23q21 0 30 -11l218 -264l-46 -41q-8 -8 -14 -8q-11 0 -18 10l-187 228l-278 -234q-21 9 -37 25q-9 11 -6 24z " />
<glyph unicode="&#x15e;" horiz-adv-x="1212" d="M143 109q4 24 23 43q156 -95 373 -95q185 0 296 77.5t134 201.5q24 124 -57.5 205t-280.5 139q-207 60 -296 158.5t-59 246.5q32 165 175.5 269t336.5 104q162 0 272.5 -69t149.5 -177q8 -31 -22 -49q-30 -17 -66 -20q-35 114 -124.5 173.5t-225.5 59.5 q-156 0 -267.5 -77t-137.5 -205q-23 -120 47.5 -197t257.5 -137q115 -37 190.5 -74.5t128 -87t69.5 -112.5t1 -144q-29 -152 -150 -247.5t-305 -114.5l-71 -99q107 -13 157 -64t35 -128q-17 -85 -84.5 -130.5t-171.5 -45.5q-76 0 -131 22l8 37q3 19 13 23.5t30 -1.5 q40 -12 86 -12q72 0 117.5 28t54.5 79q11 59 -38 95.5t-158 45.5q-22 13 -19 25q0 6 6 12l78 108q-104 1 -194.5 22.5t-138.5 52t-42 59.5z" />
<glyph unicode="&#x15f;" horiz-adv-x="1017" d="M117 86q4 27 22 45q127 -74 291 -74q301 0 342 199q16 83 -38.5 139.5t-198.5 93.5q-184 46 -259.5 127.5t-50.5 210.5t139.5 210t272.5 81q125 0 212 -48.5t120 -129.5q12 -28 -23 -49q-24 -15 -61 -21q-24 80 -95.5 123t-171.5 43q-111 0 -198 -59.5t-107 -157.5 q-17 -91 43.5 -147.5t225.5 -100.5q171 -46 237 -119t43 -190q-23 -121 -116.5 -194t-247.5 -88l-72 -99q107 -13 157 -64t35 -128q-17 -85 -84.5 -130.5t-171.5 -45.5q-76 0 -131 22l9 37q3 19 13 23.5t30 -1.5q40 -12 86 -12q72 0 117.5 28t54.5 79q11 59 -38.5 95.5 t-158.5 45.5q-21 12 -18 25q0 6 6 12l78 108q-79 1 -151 21.5t-109 46t-33 43.5z" />
<glyph unicode="&#x160;" horiz-adv-x="1212" d="M143 109q4 24 23 43q156 -95 373 -95q185 0 296 77.5t134 201.5q24 124 -57.5 205t-280.5 139q-207 60 -296 158.5t-59 246.5q32 165 175.5 269t336.5 104q162 0 272.5 -69t149.5 -177q8 -31 -22 -49q-30 -17 -66 -20q-35 114 -124.5 173.5t-225.5 59.5 q-156 0 -267.5 -77t-137.5 -205q-23 -120 47.5 -197t257.5 -137q115 -37 190.5 -74.5t128 -87t69.5 -112.5t1 -144q-32 -168 -177 -267.5t-360 -99.5q-63 0 -124.5 8.5t-108 22.5t-82 31t-53 36t-13.5 36zM563 1819q18 29 33 41t27 12q11 0 22 -14l180 -224l291 242l33 -37 q6 -9 6 -14q-4 -13 -14 -21l-312 -256h-22q-22 0 -31 11z" />
<glyph unicode="&#x161;" horiz-adv-x="1017" d="M117 86q4 27 22 45q127 -74 291 -74q301 0 342 199q16 83 -38.5 139.5t-198.5 93.5q-184 46 -259.5 127.5t-50.5 210.5t139.5 210t272.5 81q125 0 212 -48.5t120 -129.5q12 -28 -23 -49q-24 -15 -61 -21q-24 80 -95.5 123t-171.5 43q-111 0 -198 -59.5t-107 -157.5 q-17 -91 43.5 -147.5t225.5 -100.5q171 -46 237 -119t43 -190q-27 -135 -142 -211t-302 -76q-81 0 -155 20.5t-112 46.5t-34 44zM416 1462q18 29 33 41q16 13 26 13q12 0 23 -15l180 -223l291 242l32 -37q7 -7 7 -15q-4 -11 -15 -20l-309 -256h-22q-23 0 -31 10z" />
<glyph unicode="&#x162;" horiz-adv-x="1236" d="M283 1378q6 32 20 56h997q20 0 26 -9t1 -32l-8 -41h-475l-262 -1352l-88 -119q107 -13 157 -64t35 -128q-17 -85 -84.5 -130.5t-171.5 -45.5q-76 0 -131 22l8 37q3 19 13 23.5t30 -1.5q40 -12 86 -12q72 0 117.5 28t54.5 79q11 59 -38 95.5t-158 45.5q-22 13 -19 25 q0 6 6 12l103 139q-9 6 -6 23l258 1323h-451q-23 0 -20 26z" />
<glyph unicode="&#x163;" horiz-adv-x="913" d="M193 1038q5 26 18 56h211l61 311q30 10 64 10q28 0 22 -24l-57 -297h391q20 0 26 -9t1 -32l-6 -41h-426l-136 -690q-25 -133 22.5 -199t152.5 -66q109 0 198 41q12 -17 8 -43q-5 -25 -75 -52.5t-154 -27.5h-22l-70 -94q107 -13 157 -64t35 -128q-17 -85 -84.5 -130.5 t-171.5 -45.5q-76 0 -131 22l9 37q3 19 13 23.5t30 -1.5q40 -12 86 -12q72 0 117.5 28t54.5 79q11 59 -38.5 95.5t-158.5 45.5q-21 12 -18 25q0 6 6 12l90 123q-95 28 -134 112t-14 213l138 697h-195q-12 0 -17.5 7t-2.5 19z" />
<glyph unicode="&#x164;" horiz-adv-x="1236" d="M283 1378q6 32 20 56h997q20 0 26 -9t1 -32l-8 -41h-475l-262 -1352h-50q-24 0 -31 7.5t-3 27.5l256 1317h-451q-23 0 -20 26zM592 1819q18 29 33 41t26 12q13 0 23 -14l180 -224l291 242l33 -37q6 -9 6 -14q-4 -12 -15 -21l-311 -256h-22q-22 0 -31 11z" />
<glyph unicode="&#x165;" horiz-adv-x="1005" d="M193 1038q5 26 18 56h211l61 311q30 10 64 10q28 0 22 -24l-57 -297h391q20 0 26 -9t1 -32l-6 -41h-426l-136 -690q-25 -133 22.5 -199t152.5 -66q109 0 198 41q12 -17 8 -43q-5 -25 -75 -52.5t-154 -27.5q-142 0 -208 90t-36 250l138 697h-195q-12 0 -17.5 7t-2.5 19z M963 1174q109 92 135 190q-24 3 -35.5 22t-5.5 48q4 29 25 47t48 18q28 0 43 -19.5t9 -54.5q-13 -67 -49 -128t-82 -103q-19 -17 -36.5 -28.5t-27.5 -15t-12 -1.5q-12 6 -12 25z" />
<glyph unicode="&#x166;" horiz-adv-x="1236" d="M283 1378q6 32 20 56h997q20 0 26 -9t1 -32l-8 -41h-475l-117 -598h231q20 0 26 -9t1 -32l-6 -33h-266l-131 -680h-50q-24 0 -31 7.5t-3 27.5l125 645h-242q-26 0 -19 27q3 24 17 47h258l117 598h-451q-23 0 -20 26z" />
<glyph unicode="&#x167;" horiz-adv-x="913" d="M166 543q5 19 16 47h142l84 422h-195q-12 0 -17.5 7t-2.5 19q5 26 18 56h211l61 311q30 10 64 10q28 0 22 -24l-57 -297h391q20 0 26 -9t1 -32l-6 -41h-426l-84 -422h288q20 0 26.5 -9t2.5 -32l-8 -33h-324l-37 -194q-25 -133 22.5 -199t152.5 -66q109 0 198 41 q12 -17 8 -43q-5 -25 -75 -52.5t-154 -27.5q-142 0 -208 90t-36 250l39 201h-125q-25 0 -18 27z" />
<glyph unicode="&#x168;" horiz-adv-x="1474" d="M242 596l161 836q33 10 64 10t25 -25l-162 -829q-46 -240 47 -385.5t289 -145.5t345.5 145.5t194.5 385.5l166 846h49q23 0 30 -7.5t3 -27.5l-156 -803q-55 -286 -232.5 -453.5t-416.5 -167.5q-238 0 -350 167.5t-57 453.5zM690 1657q3 20 23 57q57 109 166 109 q85 0 137 -76q48 -66 94 -66q38 0 62.5 27.5t48.5 106.5l51 -11q12 -3 15 -12t-3 -29q-54 -151 -186 -151q-83 0 -135 76q-47 65 -95 65q-38 0 -63 -27.5t-47 -105.5q-44 0 -60 8q-14 7 -8 29z" />
<glyph unicode="&#x169;" horiz-adv-x="1249" d="M182 461l123 631q33 10 64 10q27 0 24 -25l-121 -620q-36 -183 45.5 -291.5t235.5 -108.5t277 108.5t159 291.5l123 637h49q24 0 31.5 -7.5t3.5 -27.5l-117 -598q-42 -220 -194.5 -353t-347.5 -133q-194 0 -295.5 133t-59.5 353zM506 1298q3 24 22 58q57 108 166 108 q86 0 137 -75q48 -66 95 -66q38 0 62 27t48 106l51 -10q23 -6 13 -41q-54 -152 -187 -152q-83 0 -135 76q-48 66 -94 66q-38 0 -63.5 -28t-47.5 -105q-43 0 -59 8q-13 7 -8 28z" />
<glyph unicode="&#x16a;" horiz-adv-x="1474" d="M242 596q-55 -286 57 -453.5t350 -167.5q239 0 416.5 167.5t232.5 453.5l156 803q4 20 -3 27.5t-30 7.5h-49l-166 -846q-45 -240 -194.5 -385.5t-345.5 -145.5t-289 145.5t-47 385.5l162 829q6 25 -25 25t-64 -10zM717 1708q3 26 16 47h498q20 0 25.5 -8.5t0.5 -32.5 l-6 -33h-516q-25 0 -18 27z" />
<glyph unicode="&#x16b;" horiz-adv-x="1249" d="M182 461q-42 -220 59.5 -353t295.5 -133q195 0 347.5 133t194.5 353l117 598q4 20 -3.5 27.5t-31.5 7.5h-49l-123 -637q-36 -183 -159 -291.5t-277 -108.5t-235.5 108.5t-45.5 291.5l121 620q3 25 -24 25q-31 0 -64 -10zM535 1350q3 26 16 47h498q20 0 25.5 -8.5 t0.5 -32.5l-6 -33h-516q-25 0 -18 27z" />
<glyph unicode="&#x16c;" horiz-adv-x="1474" d="M242 596l161 836q33 10 64 10t25 -25l-162 -829q-46 -240 47 -385.5t289 -145.5t345.5 145.5t194.5 385.5l166 846h49q23 0 30 -7.5t3 -27.5l-156 -803q-55 -286 -232.5 -453.5t-416.5 -167.5q-238 0 -350 167.5t-57 453.5zM729 1833q29 16 57 16q8 0 12 -1t6.5 -5.5 t3 -9.5t1.5 -16q2 -86 44 -132.5t120 -46.5q81 0 146.5 53.5t99.5 157.5h38q23 0 29 -7.5t0 -24.5q-39 -112 -126.5 -180t-201.5 -68q-116 0 -175.5 69.5t-53.5 194.5z" />
<glyph unicode="&#x16d;" horiz-adv-x="1249" d="M182 461l123 631q33 10 64 10q27 0 24 -25l-121 -620q-36 -183 45.5 -291.5t235.5 -108.5t277 108.5t159 291.5l123 637h49q24 0 31.5 -7.5t3.5 -27.5l-117 -598q-42 -220 -194.5 -353t-347.5 -133q-194 0 -295.5 133t-59.5 353zM547 1475q29 16 57 16q10 0 14.5 -3.5 t6 -9t2.5 -20.5q2 -86 44 -132t120 -46q81 0 146 53.5t99 157.5h39q23 0 29.5 -8t-0.5 -25q-39 -112 -126.5 -180t-201.5 -68q-116 0 -175.5 70t-53.5 195z" />
<glyph unicode="&#x16e;" horiz-adv-x="1474" d="M242 596q-55 -286 57 -453.5t350 -167.5q239 0 416.5 167.5t232.5 453.5l156 803q4 20 -3 27.5t-30 7.5h-49l-166 -846q-45 -240 -194.5 -385.5t-345.5 -145.5t-289 145.5t-47 385.5l162 829q6 25 -25 25t-64 -10zM799 1718q13 77 79.5 130t145.5 53q78 0 123.5 -52.5 t32.5 -130.5q-15 -77 -82 -129.5t-146 -52.5t-123.5 52.5t-29.5 129.5zM872 1724q-10 -57 18 -89.5t83 -32.5q46 0 84 31.5t47 78.5q10 58 -16.5 90.5t-81.5 32.5q-46 0 -85.5 -32t-48.5 -79z" />
<glyph unicode="&#x16f;" horiz-adv-x="1249" d="M182 461q-42 -220 59.5 -353t295.5 -133q195 0 347.5 133t194.5 353l117 598q4 20 -3.5 27.5t-31.5 7.5h-49l-123 -637q-36 -183 -159 -291.5t-277 -108.5t-235.5 108.5t-45.5 291.5l121 620q3 25 -24 25q-31 0 -64 -10zM616 1362q15 77 81 129.5t145 52.5t124.5 -52.5 t30.5 -129.5t-81.5 -129.5t-145.5 -52.5t-124 52.5t-30 129.5zM690 1368q-10 -57 18 -90t83 -33q46 0 84 32t47 79q12 57 -16 90t-83 33q-46 0 -85 -32t-48 -79z" />
<glyph unicode="&#x170;" horiz-adv-x="1474" d="M242 596l161 836q33 10 64 10t25 -25l-162 -829q-46 -240 47 -385.5t289 -145.5t345.5 145.5t194.5 385.5l166 846h49q23 0 30 -7.5t3 -27.5l-156 -803q-55 -286 -232.5 -453.5t-416.5 -167.5q-238 0 -350 167.5t-57 453.5zM752 1602l323 258q17 14 27 14q13 0 22 -12 q14 -19 17 -41l-330 -248q-15 -10 -23 -10q-9 0 -14 8zM1018 1602l323 258q17 14 27 14q14 0 23 -12q13 -17 16 -41l-330 -248q-15 -10 -22 -10q-10 0 -15 8z" />
<glyph unicode="&#x171;" horiz-adv-x="1249" d="M182 461l123 631q33 10 64 10q27 0 24 -25l-121 -620q-36 -183 45.5 -291.5t235.5 -108.5t277 108.5t159 291.5l123 637h49q24 0 31.5 -7.5t3.5 -27.5l-117 -598q-42 -220 -194.5 -353t-347.5 -133q-194 0 -295.5 133t-59.5 353zM514 1245l324 258q19 15 28 15 q11 0 21 -13q12 -12 16 -41l-330 -247q-17 -11 -22 -11q-9 0 -14 8zM780 1245l324 258q19 15 29 15t20 -13q12 -12 16 -41l-329 -247q-16 -11 -23 -11q-9 0 -14 8z" />
<glyph unicode="&#x172;" horiz-adv-x="1474" d="M242 596l161 836q33 10 64 10t25 -25l-162 -829q-46 -240 47 -385.5t289 -145.5t345.5 145.5t194.5 385.5l166 846h49q23 0 30 -7.5t3 -27.5l-156 -803q-49 -253 -195.5 -414.5t-348.5 -195.5q-161 -108 -189 -240q-10 -52 21.5 -89.5t105.5 -37.5q52 0 92 12q22 7 30 2 t3 -24l-6 -33q-58 -27 -137 -27q-102 0 -153 52.5t-34 144.5q13 60 54 120.5t106 108.5q-238 2 -349 168.5t-56 452.5z" />
<glyph unicode="&#x173;" horiz-adv-x="1249" d="M182 461l123 631q33 10 64 10q27 0 24 -25l-121 -620q-36 -183 45.5 -291.5t235.5 -108.5t277 108.5t159 291.5l123 637h49q24 0 31.5 -7.5t3.5 -27.5l-117 -598q-37 -193 -160 -320t-288 -157q-161 -104 -189 -238q-10 -52 21.5 -89.5t105.5 -37.5q53 0 93 12 q22 7 29.5 2t2.5 -24l-6 -33q-58 -27 -137 -27q-102 0 -152.5 52.5t-33.5 144.5q13 60 53.5 120.5t105.5 108.5q-189 5 -286.5 137t-55.5 349z" />
<glyph unicode="&#x174;" horiz-adv-x="2260" d="M301 1407l176 -1407h78q33 0 51 29q421 611 697 1288l139 -1317h78q31 0 51 29q237 333 416 662t333 706q9 20 3 28.5t-29 8.5h-56q-295 -733 -712 -1321l-140 1288q-1 18 -10 25.5t-28 7.5h-86q-319 -769 -701 -1323l-160 1298q-3 29 -24 29q-31 0 -76 -31zM1073 1602 q0 9 19 24l297 246h22q23 0 31 -10l217 -265l-45 -41q-8 -8 -17 -8q-7 0 -18 11l-184 227l-279 -234q-25 10 -37 25q-9 12 -6 25z" />
<glyph unicode="&#x175;" horiz-adv-x="1785" d="M233 1077q45 31 76 31q22 0 25 -29l129 -964q145 207 267 439.5t241 539.5h69q19 0 28.5 -7.5t10.5 -25.5l144 -944q301 433 495 977h47q23 0 29 -8.5t0 -28.5q-99 -276 -224 -520.5t-306 -505.5q-12 -18 -23 -24.5t-29 -6.5h-71l-133 954q-191 -474 -504 -925 q-20 -29 -51 -29h-70zM778 1245q0 10 19 25l297 246h22q22 0 31 -11l217 -264l-45 -41q-8 -8 -14 -8q-11 0 -19 10l-186 228l-279 -234q-21 9 -37 25q-9 11 -6 24z" />
<glyph unicode="&#x176;" horiz-adv-x="1337" d="M283 1395q49 43 75 43q18 0 31 -25l307 -833q184 179 355 397.5t307 456.5h51q49 0 27 -37q-138 -244 -324 -479.5t-397 -436.5l-92 -481h-50q-23 0 -30.5 7.5t-3.5 27.5l86 442zM621 1602q0 10 18 24l297 246h22q23 0 31 -10l217 -265l-45 -41q-8 -8 -16 -8t-19 11 l-184 227l-278 -234q-25 10 -37 25q-9 12 -6 25z" />
<glyph unicode="&#x177;" horiz-adv-x="1282" d="M78 -240q28 158 219 263q-165 101 -107 397l132 672q33 10 63 10q28 0 25 -25l-127 -649q-36 -185 21 -278t212 -93q105 0 220.5 43t219.5 127l170 875h50q23 0 30 -7.5t4 -27.5l-202 -1036q-46 -240 -216.5 -389.5t-426.5 -149.5q-150 0 -230.5 72.5t-56.5 195.5z M168 -240q-17 -81 43 -133.5t168 -52.5q226 0 362 120t174 324l25 119q-104 -75 -222 -118.5t-229 -43.5q-52 0 -118 15q-178 -96 -203 -230zM510 1245q0 11 18 25l297 246h23q22 0 31 -11l217 -264l-45 -41q-8 -8 -15 -8q-10 0 -18 10l-187 228l-278 -234q-21 9 -37 25 q-9 11 -6 24z" />
<glyph unicode="&#x178;" horiz-adv-x="1331" d="M276 1395q49 43 76 43q18 0 31 -25l307 -833q184 179 355 397.5t307 456.5h51q49 0 27 -37q-138 -244 -324 -479.5t-397 -436.5l-93 -481h-49q-24 0 -31.5 7.5t-3.5 27.5l86 442zM686 1720q4 29 25.5 47.5t48.5 18.5t42 -19.5t9 -50.5q-4 -29 -25.5 -47t-48.5 -18t-42 19 t-9 50zM1018 1720q4 29 25.5 47.5t48.5 18.5t42 -19.5t9 -50.5q-4 -29 -25.5 -47t-48.5 -18t-42 19t-9 50z" />
<glyph unicode="&#x179;" horiz-adv-x="1230" d="M66 68l1091 1284h-788q-24 0 -21 26q6 30 21 56h862q27 0 35 -17q12 -23 8 -51l-1092 -1284h824q20 0 25.5 -8.5t0.5 -32.5l-6 -41h-915q-29 0 -37 16q-12 23 -8 52zM709 1602l323 258q18 14 27 14q13 0 22 -12q14 -19 17 -41l-330 -248q-15 -10 -23 -10q-9 0 -14 8z" />
<glyph unicode="&#x17a;" horiz-adv-x="1026" d="M53 68l858 944h-632q-27 0 -21 26q5 26 18 56h707q29 0 37 -17q8 -16 8 -51l-858 -944h655q20 0 26 -9t1 -32l-6 -41h-748q-29 0 -37 16q-12 23 -8 52zM535 1245l323 258q19 15 29 15t20 -13q14 -14 17 -41l-330 -247q-16 -11 -23 -11q-9 0 -14 8z" />
<glyph unicode="&#x17b;" horiz-adv-x="1230" d="M66 68q-4 -29 8 -52q8 -16 37 -16h915l6 41q5 24 -0.5 32.5t-25.5 8.5h-824l1092 1284q4 28 -8 51q-8 17 -35 17h-862q-15 -26 -21 -56q-3 -26 21 -26h788zM795 1720q4 29 25 47.5t48 18.5t42.5 -19.5t9.5 -50.5q-4 -29 -25.5 -47t-48.5 -18t-42 19t-9 50z" />
<glyph unicode="&#x17c;" horiz-adv-x="1026" d="M53 68q-4 -29 8 -52q8 -16 37 -16h748l6 41q5 23 -1 32t-26 9h-655l858 944q0 35 -8 51q-8 17 -37 17h-707q-13 -30 -18 -56q-6 -26 21 -26h632zM629 1364q6 29 26.5 47.5t46.5 18.5q27 0 43.5 -19.5t10.5 -50.5q-6 -29 -27.5 -47.5t-48.5 -18.5t-42 19.5t-9 50.5z" />
<glyph unicode="&#x17d;" horiz-adv-x="1230" d="M66 68l1091 1284h-788q-24 0 -21 26q6 30 21 56h862q27 0 35 -17q12 -23 8 -51l-1092 -1284h824q20 0 25.5 -8.5t0.5 -32.5l-6 -41h-915q-29 0 -37 16q-12 23 -8 52zM596 1819q18 29 33 41t26 12q13 0 23 -14l180 -224l291 242l33 -37q6 -9 6 -14q-4 -13 -14 -21 l-312 -256h-22q-22 0 -31 11z" />
<glyph unicode="&#x17e;" horiz-adv-x="1026" d="M53 68l858 944h-632q-27 0 -21 26q5 26 18 56h707q29 0 37 -17q8 -16 8 -51l-858 -944h655q20 0 26 -9t1 -32l-6 -41h-748q-29 0 -37 16q-12 23 -8 52zM432 1462q18 29 33 41q16 13 27 13t22 -15l180 -223l291 242l33 -37q6 -6 6 -15q-4 -12 -14 -20l-310 -256h-22 q-23 0 -31 10z" />
<glyph unicode="&#x17f;" horiz-adv-x="854" d="M193 1038q5 26 18 56h231l19 88q31 159 130.5 248.5t242.5 89.5q58 0 108.5 -13t75 -29.5t22.5 -29.5q-7 -27 -22 -45q-72 35 -191 35q-110 0 -180.5 -62t-93.5 -182l-231 -1194h-50q-24 0 -31 7.5t-3 27.5l190 977h-215q-12 0 -17.5 7t-2.5 19z" />
<glyph unicode="&#x191;" horiz-adv-x="1126" d="M-129 -440q103 75 168.5 174t87.5 213l291 1487h794q26 0 19 -27q-4 -20 -19 -55h-720l-119 -607h583q20 0 26 -8.5t1 -31.5l-8 -41h-619l-137 -711q-33 -174 -141 -301q-39 -46 -80 -78.5t-67.5 -44t-36.5 -6.5q-8 5 -15.5 16t-7.5 21z" />
<glyph unicode="&#x192;" horiz-adv-x="854" d="M-291 -434q7 27 25 45q72 -35 186 -35q110 0 181 62t94 182l233 1192h-215q-12 0 -17.5 7t-2.5 19q5 26 18 56h231l19 88q31 159 130.5 248.5t242.5 89.5q58 0 108.5 -13t75 -29.5t22.5 -29.5q-7 -27 -22 -45q-72 35 -191 35q-110 0 -180.5 -62t-93.5 -182l-21 -100h371 q20 0 26 -9t1 -32l-6 -41h-406l-229 -1180q-32 -159 -131.5 -248.5t-241.5 -89.5q-58 0 -108.5 13t-75.5 29.5t-23 29.5z" />
<glyph unicode="&#x1fa;" horiz-adv-x="1347" d="M-10 35l790 1335q-47 21 -69.5 66t-12.5 102q15 77 82 129.5t146 52.5t123.5 -52.5t29.5 -129.5q-10 -57 -50 -102t-95 -66l280 -1370h-59q-35 0 -41 31l-74 381h-737l-242 -412h-49q-43 0 -22 35zM348 494h674l-168 858zM774 1544q-10 -58 16.5 -90.5t81.5 -32.5 q46 0 85.5 32t48.5 79q10 58 -17 90.5t-82 32.5q-46 0 -85 -32t-48 -79zM811 1794l242 195q17 14 28 14q12 0 21 -12q10 -10 18 -41l-250 -185q-15 -10 -22 -10q-9 0 -14 8z" />
<glyph unicode="&#x1fb;" horiz-adv-x="1214" d="M102 319q32 165 165 260t325 95q197 0 350 -90l27 141q31 156 -51 233.5t-246 77.5q-198 0 -338 -73q-10 16 -6 43q7 35 121 73.5t253 38.5q198 0 296 -103.5t61 -297.5l-105 -535q-13 -64 1.5 -91.5t54.5 -27.5h34q2 -10 -2 -34q-3 -16 -28.5 -29.5t-59.5 -13.5 q-58 0 -83.5 49.5t-6.5 150.5l4 15q-78 -98 -199.5 -162t-254.5 -64q-172 0 -257 96.5t-55 247.5zM193 319q-24 -119 46 -190.5t189 -71.5q263 0 461 256l37 191q-66 42 -159 65t-189 23q-153 0 -257 -75.5t-128 -197.5zM578 1362q15 77 80.5 129.5t144.5 52.5t124.5 -52.5 t30.5 -129.5t-81.5 -129.5t-145.5 -52.5t-123.5 52.5t-29.5 129.5zM651 1368q-10 -57 18 -90t83 -33q46 0 84 32t47 79q12 57 -16 90t-83 33q-46 0 -85 -32t-48 -79zM688 1618l244 194q15 15 26 15t23 -12q9 -11 16 -41l-249 -185q-12 -10 -23 -10q-6 0 -14 8z" />
<glyph unicode="&#x1fc;" horiz-adv-x="1777" d="M-35 35l987 1376q54 23 125 23h738q25 0 18 -27q-5 -24 -18 -55h-721l-119 -607h584q20 0 25.5 -8.5t0.5 -31.5l-8 -41h-619l-67 -351q-26 -133 1.5 -182t119.5 -49h544q20 0 26 -9t1 -32l-6 -41h-588q-127 0 -175 68t-15 231l22 113h-489l-295 -412h-49q-44 0 -23 35z M389 494h447l168 858zM1208 1602l324 258q18 14 27 14q13 0 22 -12q13 -17 16 -41l-329 -248q-15 -10 -23 -10q-9 0 -14 8z" />
<glyph unicode="&#x1fd;" horiz-adv-x="1959" d="M102 319q32 165 165 260t325 95q197 0 350 -90l27 141q31 156 -51 233.5t-246 77.5q-198 0 -338 -73q-10 16 -6 43q7 35 121 73.5t253 38.5q159 0 256 -70t107 -202q89 127 223.5 199.5t270.5 72.5q188 0 284.5 -113.5t61.5 -293.5q-13 -70 -50 -136q-22 -41 -45.5 -54 t-66.5 -13h-723q-25 -206 80 -328.5t278 -122.5q163 0 293 68q11 -16 6 -43q-5 -32 -102.5 -69.5t-220.5 -37.5q-149 0 -254 72t-150 201q-114 -132 -250.5 -202.5t-285.5 -70.5q-172 0 -257 96.5t-55 247.5zM193 319q-24 -119 46 -190.5t189 -71.5q127 0 257.5 67.5 t240.5 211.5q-10 68 0 168q-66 42 -159 65t-189 23q-153 0 -257 -75.5t-128 -197.5zM989 1245l324 258q19 15 28 15q11 0 21 -13q12 -12 16 -41l-329 -247q-17 -11 -23 -11q-9 0 -14 8zM1032 590h735q37 57 48 121q28 146 -49 235.5t-228 89.5q-104 0 -207 -53.5 t-184.5 -157t-114.5 -235.5z" />
<glyph unicode="&#x1fe;" horiz-adv-x="1576" d="M24 14q-4 14 19 33l197 176q-107 190 -47 494q34 179 114 322.5t188 233.5t234 137.5t260 47.5q133 0 241 -46.5t177 -137.5l180 160h45q31 0 34.5 -14.5t-19.5 -33.5l-197 -176q105 -193 49 -493q-35 -179 -115.5 -322.5t-188.5 -234t-234.5 -138t-260.5 -47.5 q-133 0 -241.5 46.5t-179.5 136.5l-175 -158h-45q-31 0 -35 14zM289 733q-52 -260 26 -440l1018 913q-60 84 -158 127t-219 43q-109 0 -213 -40t-195 -117t-160 -202.5t-99 -283.5zM356 225q120 -168 377 -168q86 0 170 24.5t163.5 76.5t144.5 127t115 181.5t75 233.5 q52 263 -29 439zM866 1602l324 258q18 14 27 14q13 0 22 -12q13 -17 16 -41l-329 -248q-15 -10 -23 -10q-9 0 -14 8z" />
<glyph unicode="&#x1ff;" horiz-adv-x="1286" d="M35.5 14q-3.5 14 17.5 33l137 123q-87 149 -45 377q34 173 131.5 304.5t228 199t273.5 67.5q202 0 322 -135l121 111h43q31 0 34.5 -14t-18.5 -33l-139 -123q89 -156 45 -377q-50 -259 -230.5 -415.5t-400.5 -156.5q-204 0 -322 134l-120 -109h-43q-31 0 -34.5 14z M240 559q-38 -190 26 -321l760 680q-100 118 -276 118q-81 0 -161 -30.5t-150.5 -88.5t-123.5 -150.5t-75 -207.5zM305 174q102 -117 279 -117q110 0 213 52t185.5 163t111.5 263q38 185 -27 321zM651 1245l324 258q19 15 29 15t20 -13q12 -12 16 -41l-329 -247 q-17 -11 -23 -11q-9 0 -14 8z" />
<glyph unicode="&#x218;" horiz-adv-x="1212" d="M143 109q4 24 23 43q156 -95 373 -95q185 0 296 77.5t134 201.5q24 124 -57.5 205t-280.5 139q-207 60 -296 158.5t-59 246.5q32 165 175.5 269t336.5 104q162 0 272.5 -69t149.5 -177q8 -31 -22 -49q-30 -17 -66 -20q-35 114 -124.5 173.5t-225.5 59.5 q-156 0 -267.5 -77t-137.5 -205q-23 -120 47.5 -197t257.5 -137q115 -37 190.5 -74.5t128 -87t69.5 -112.5t1 -144q-32 -168 -177 -267.5t-360 -99.5q-63 0 -124.5 8.5t-108 22.5t-82 31t-53 36t-13.5 36zM385 -406q109 91 135 191q-24 3 -35.5 22t-5.5 48q4 29 25.5 47 t48.5 18q28 0 43 -19.5t8 -54.5q-13 -67 -49 -128t-82 -103q-19 -17 -36.5 -28.5t-27.5 -15t-12 -1.5q-12 6 -12 24z" />
<glyph unicode="&#x219;" horiz-adv-x="1017" d="M117 86q4 27 22 45q127 -74 291 -74q301 0 342 199q16 83 -38.5 139.5t-198.5 93.5q-184 46 -259.5 127.5t-50.5 210.5t139.5 210t272.5 81q125 0 212 -48.5t120 -129.5q12 -28 -23 -49q-24 -15 -61 -21q-24 80 -95.5 123t-171.5 43q-111 0 -198 -59.5t-107 -157.5 q-17 -91 43.5 -147.5t225.5 -100.5q171 -46 237 -119t43 -190q-27 -135 -142 -211t-302 -76q-81 0 -155 20.5t-112 46.5t-34 44zM293 -406q109 91 135 191q-24 3 -35.5 22t-5.5 48q4 29 25.5 47t48.5 18q28 0 43 -19.5t8 -54.5q-13 -67 -49 -128t-82 -103 q-19 -17 -36.5 -28.5t-27.5 -15t-12 -1.5q-12 6 -12 24z" />
<glyph unicode="&#x21a;" horiz-adv-x="1236" d="M283 1378q6 32 20 56h997q20 0 26 -9t1 -32l-8 -41h-475l-262 -1352h-50q-24 0 -31 7.5t-3 27.5l256 1317h-451q-23 0 -20 26zM350 -406q109 91 135 191q-24 3 -35.5 22t-5.5 48q4 29 25.5 47t48.5 18q28 0 43 -19.5t8 -54.5q-13 -67 -49 -128t-82 -103 q-19 -17 -36.5 -28.5t-27.5 -15t-12 -1.5q-12 6 -12 24z" />
<glyph unicode="&#x21b;" horiz-adv-x="913" d="M193 1038q5 26 18 56h211l61 311q30 10 64 10q28 0 22 -24l-57 -297h391q20 0 26 -9t1 -32l-6 -41h-426l-136 -690q-25 -133 22.5 -199t152.5 -66q109 0 198 41q12 -17 8 -43q-5 -25 -75 -52.5t-154 -27.5q-142 0 -208 90t-36 250l138 697h-195q-12 0 -17.5 7t-2.5 19z M295 -406q109 91 135 191q-24 3 -35.5 22t-5.5 48q4 29 25.5 47t48.5 18q28 0 43 -19.5t8 -54.5q-13 -67 -49 -128t-82 -103q-19 -17 -36.5 -28.5t-27.5 -15t-12 -1.5q-12 6 -12 24z" />
<glyph unicode="&#x2c6;" horiz-adv-x="839" d="M285 1204q3 13 18 25l297 246h23q21 0 30 -11l217 -264l-43 -41q-11 -8 -16 -8q-11 0 -18 10l-187 228l-278 -234q-21 9 -37 25q-9 11 -6 24z" />
<glyph unicode="&#x2c7;" horiz-adv-x="839" d="M315 1421q13 21 33 41q16 13 27 13t22 -15l181 -223l290 242l33 -37q6 -6 6 -15q-4 -12 -14 -20l-309 -256h-23q-23 0 -31 10z" />
<glyph unicode="&#x2d8;" horiz-adv-x="839" d="M336 1434q29 16 55 16q10 0 14.5 -3.5t6 -9t2.5 -20.5q2 -86 44 -132t120 -46q81 0 146.5 53.5t98.5 157.5h39q23 0 29.5 -8t-0.5 -25q-39 -112 -126.5 -180t-201.5 -68q-116 0 -175.5 70t-51.5 195z" />
<glyph unicode="&#x2d9;" horiz-adv-x="839" d="M530 1323q6 29 27 47.5t47 18.5q27 0 43 -19.5t10 -50.5q-6 -29 -27.5 -47.5t-47.5 -18.5q-27 0 -42.5 19.5t-9.5 50.5z" />
<glyph unicode="&#x2da;" horiz-adv-x="839" d="M403 1321q15 77 81 129.5t145 52.5t124.5 -52.5t30.5 -129.5t-80.5 -129.5t-144.5 -52.5t-125 52.5t-31 129.5zM477 1327q-10 -57 18 -90t83 -33q46 0 84 32t47 79q12 57 -16 90t-83 33q-46 0 -85 -32t-48 -79z" />
<glyph unicode="&#x2db;" horiz-adv-x="839" d="M109 -254q14 68 65.5 136.5t132.5 117.5h94q-187 -113 -215 -254q-10 -52 21.5 -89.5t105.5 -37.5q53 0 93 12q22 7 29.5 2t2.5 -24l-6 -33q-58 -27 -137 -27q-102 0 -152.5 52.5t-33.5 144.5z" />
<glyph unicode="&#x2dc;" horiz-adv-x="839" d="M293 1260q4 17 22 57q57 108 168 108q84 0 138 -75q27 -37 47.5 -51.5t44.5 -14.5q38 0 63 27t47 106l51 -10q26 -6 13 -41q-54 -152 -185 -152q-82 0 -137 76q-48 66 -94 66q-38 0 -63 -28t-46 -105q-42 0 -61 8q-13 9 -8 29z" />
<glyph unicode="&#x2dd;" horiz-adv-x="839" d="M264 1204l324 258q19 15 28 15q11 0 21 -13q10 -10 18 -41l-331 -247q-16 -11 -23 -11q-8 0 -14 9zM530 1204l324 258q19 15 29 15t20 -13q12 -12 19 -41l-332 -247q-16 -11 -23 -11q-8 0 -14 9z" />
<glyph unicode="&#x3a9;" horiz-adv-x="1601" d="M92 27q4 20 19 55h327q-311 239 -229 659q42 217 159 382t281 251t352 86q286 0 432 -196t83 -523q-81 -417 -488 -659h301q20 0 26 -9t1 -32l-6 -41h-492l8 51q5 20 19 27q211 108 354 274.5t184 384.5q30 151 9.5 270t-81 201.5t-154.5 126t-212 43.5q-158 0 -299 -75 t-245.5 -222.5t-143.5 -343.5q-41 -218 38 -384.5t247 -274.5q10 -10 6 -27l-8 -51h-467q-12 0 -18 7.5t-3 19.5z" />
<glyph unicode="&#x400;" horiz-adv-x="1161" d="M193 299q-33 -163 15 -231t175 -68h578l6 41q5 23 -1 32t-26 9h-534q-92 0 -119.5 49t-1.5 182l67 351h609l8 41q5 23 -1 31.5t-26 8.5h-573l118 607h711q15 35 19 55q7 27 -19 27h-784zM690 1821q18 29 33 41t27 12t22 -14l225 -258l-34 -31q-11 -8 -19 -8t-18 10z" />
<glyph unicode="&#x401;" horiz-adv-x="1161" d="M193 299q-33 -163 15 -231t175 -68h578l6 41q5 23 -1 32t-26 9h-534q-92 0 -119.5 49t-1.5 182l67 351h609l8 41q5 23 -1 31.5t-26 8.5h-573l118 607h711q15 35 19 55q7 27 -19 27h-784zM635 1720q4 29 25.5 47.5t48.5 18.5t42 -19.5t9 -50.5q-4 -29 -25.5 -47t-48.5 -18 t-42 19t-9 50zM967 1720q4 29 25 47.5t48 18.5t42.5 -19.5t9.5 -50.5q-4 -29 -25.5 -47t-48.5 -18t-42 19t-9 50z" />
<glyph unicode="&#x402;" horiz-adv-x="1579" d="M283 1378q6 32 20 56h997q20 0 26 -9t1 -32l-8 -41h-475l-113 -578q90 65 192.5 102t200.5 37q189 0 266.5 -119t36.5 -325l-88 -455q-37 -179 -141 -301q-39 -46 -80.5 -78.5t-68.5 -44t-37 -6.5q-8 5 -15.5 16t-7.5 21q213 154 258 387l88 453q73 370 -237 370 q-91 0 -191 -40t-194 -113l-131 -678h-50q-24 0 -31 7.5t-3 27.5l256 1317h-451q-23 0 -20 26z" />
<glyph unicode="&#x403;" horiz-adv-x="1126" d="M145 35l273 1399h784q20 0 26 -9t1 -32l-8 -41h-729l-263 -1352h-49q-24 0 -31.5 7.5t-3.5 27.5zM700 1602l324 258q17 14 27 14q13 0 22 -12q14 -19 17 -41l-330 -248q-15 -10 -23 -10q-9 0 -14 8z" />
<glyph unicode="&#x404;" horiz-adv-x="1406" d="M196 439.5q-31 145.5 5 324.5q26 131 82.5 244t132.5 194.5t167.5 140t188.5 87t193 28.5q188 0 311.5 -84t165.5 -219q11 -31 -23 -49q-29 -18 -63 -21q-38 140 -145 215.5t-263 75.5q-104 0 -208 -41t-194 -116t-158 -192t-95 -257l-4 -16h747q20 0 26 -9t1 -32l-8 -41 h-779q-11 -142 26 -259t112 -194.5t180 -119.5t229 -42q204 0 367 88q11 -16 6 -43q-7 -39 -127.5 -83t-265.5 -44q-159 0 -287 56t-208.5 159.5t-111.5 249z" />
<glyph unicode="&#x405;" horiz-adv-x="1212" d="M143 109q4 24 23 43q156 -95 373 -95q185 0 296 77.5t134 201.5q24 124 -57.5 205t-280.5 139q-207 60 -296 158.5t-59 246.5q32 165 175.5 269t336.5 104q162 0 272.5 -69t149.5 -177q8 -31 -22 -49q-30 -17 -66 -20q-35 114 -124.5 173.5t-225.5 59.5 q-156 0 -267.5 -77t-137.5 -205q-23 -120 47.5 -197t257.5 -137q115 -37 190.5 -74.5t128 -87t69.5 -112.5t1 -144q-32 -168 -177 -267.5t-360 -99.5q-63 0 -124.5 8.5t-108 22.5t-82 31t-53 36t-13.5 36z" />
<glyph unicode="&#x406;" horiz-adv-x="557" d="M158 35l270 1397q33 10 64 10q30 0 24 -25l-274 -1417h-49q-24 0 -31.5 7.5t-3.5 27.5z" />
<glyph unicode="&#x407;" horiz-adv-x="557" d="M158 35l270 1397q33 10 64 10q30 0 24 -25l-274 -1417h-49q-24 0 -31.5 7.5t-3.5 27.5zM301 1720q4 29 25.5 47.5t48.5 18.5t42 -19.5t9 -50.5q-4 -29 -25.5 -47t-48.5 -18t-42 19t-9 50zM633 1720q4 29 25.5 47.5t48.5 18.5t42 -19.5t9 -50.5q-4 -29 -25.5 -47 t-48.5 -18t-42 19t-9 50z" />
<glyph unicode="&#x408;" horiz-adv-x="817" d="M-37 51q7 27 23 43q78 -37 200 -37q119 0 202.5 75.5t113.5 227.5l207 1072q33 10 63 10q31 0 25 -25l-205 -1057q-36 -183 -142.5 -284t-279.5 -101q-48 0 -97.5 11t-81 29t-28.5 36z" />
<glyph unicode="&#x409;" horiz-adv-x="2287" d="M-51 35q3 22 22 49q59 -27 125 -27q48 0 83 23t75 94t86 203q74 210 151.5 497t131.5 560h786q23 0 30 -7.5t3 -27.5l-101 -518q175 69 398 69q244 0 368 -123t82 -342q-45 -233 -225.5 -359t-452.5 -126h-182q-127 0 -175 68t-15 231l204 1053h-643q-51 -231 -127 -513 t-143 -474q-55 -158 -105.5 -242.5t-103 -116t-129.5 -31.5q-58 0 -103 20t-40 40zM1231 313q-26 -133 1.5 -182t119.5 -49h151q157 0 279 42t205.5 132.5t109.5 224.5q36 188 -66 287.5t-321 99.5q-201 0 -383 -67z" />
<glyph unicode="&#x40a;" horiz-adv-x="2252" d="M145 35l271 1397q33 10 63 10q31 0 25 -25l-127 -657h817l131 674h49q23 0 30 -7.5t3 -27.5l-100 -518q175 69 397 69q244 0 368 -123t82 -342q-45 -233 -225 -359t-452 -126h-183q-127 0 -175 68t-15 231l74 379h-818l-131 -678h-49q-24 0 -31.5 7.5t-3.5 27.5z M1196 313q-26 -133 1.5 -182t119.5 -49h151q157 0 279 42t205.5 132.5t109.5 224.5q36 188 -66 287.5t-321 99.5q-201 0 -383 -67z" />
<glyph unicode="&#x40b;" horiz-adv-x="1593" d="M283 1378q6 32 20 56h997q20 0 26 -9t1 -32l-8 -41h-475l-113 -578q90 65 192.5 102t200.5 37q189 0 266.5 -119t36.5 -325l-59 -303q-10 -57 3.5 -81t51.5 -24h37q3 -15 0 -34q-3 -16 -28.5 -29.5t-59.5 -13.5q-58 0 -85 44.5t-9 137.5l57 295q73 370 -237 370 q-91 0 -191 -40t-194 -113l-131 -678h-50q-24 0 -31 7.5t-3 27.5l256 1317h-451q-23 0 -20 26z" />
<glyph unicode="&#x40c;" horiz-adv-x="1343" d="M145 35l271 1397q33 10 63 10q31 0 25 -25l-152 -782q252 143 510 352.5t469 454.5q34 -7 49.5 -20t12.5 -27q-3 -16 -19 -35q-250 -291 -608 -549q73 -212 157 -388t160 -282q34 -48 61 -66t60 -18h25q3 -16 0 -32q-3 -19 -29.5 -34.5t-56.5 -15.5q-41 0 -70.5 21 t-66.5 72q-174 251 -314 690q-196 -135 -360 -226l-103 -532h-49q-24 0 -31.5 7.5t-3.5 27.5zM756 1602l323 258q17 14 27 14q13 0 22 -12q14 -19 17 -41l-330 -248q-15 -10 -22 -10q-10 0 -15 8z" />
<glyph unicode="&#x40d;" horiz-adv-x="1470" d="M143 25q38 -33 74 -33q22 0 41 22l1071 1289l-246 -1268q-4 -20 3.5 -27.5t31.5 -7.5h49l273 1409q-38 33 -74 33q-18 0 -41 -23l-1071 -1288l250 1286q6 25 -25 25q-30 0 -63 -10zM807 1821q18 29 33 41t26 12q12 0 23 -14l225 -258l-35 -31q-11 -8 -18 -8q-9 0 -19 10z " />
<glyph unicode="&#x40e;" horiz-adv-x="1300" d="M267 10q-9 10 5 27q186 195 355 397l-312 961q49 43 76 43q19 0 31 -25l278 -887q359 442 613 908h51q49 0 27 -37q-198 -352 -465 -710.5t-574 -686.5h-51q-25 0 -34 10zM666 1833q29 16 57 16q14 0 17 -5.5t5 -26.5q2 -86 44 -132.5t120 -46.5q81 0 146.5 53.5 t99.5 157.5h39q23 0 29 -7.5t0 -24.5q-39 -112 -126.5 -180t-201.5 -68q-116 0 -175.5 69.5t-53.5 194.5z" />
<glyph unicode="&#x40f;" horiz-adv-x="1476" d="M193 299l219 1133q33 10 63 10q31 0 25 -25l-215 -1104q-26 -133 1.5 -182t119.5 -49h692l264 1352h49q23 0 30 -7.5t3 -27.5l-270 -1399h-463l-60 -301h-49q-23 0 -30.5 7.5t-4.5 27.5l54 266h-238q-127 0 -175 68t-15 231z" />
<glyph unicode="&#x410;" horiz-adv-x="1347" d="M-10 35l823 1390q42 17 80 17q27 0 33 -27l288 -1415h-59q-35 0 -41 31l-74 381h-737l-242 -412h-49q-43 0 -22 35zM348 494h674l-168 858z" />
<glyph unicode="&#x411;" horiz-adv-x="1353" d="M193 299l221 1135h792q20 0 26 -9t1 -32l-8 -41h-738l-92 -471q175 69 398 69q244 0 368 -123t82 -342q-45 -233 -225.5 -359t-452.5 -126h-182q-127 0 -175 68t-15 231zM285 313q-26 -133 1.5 -182t119.5 -49h151q157 0 279 42t205.5 132.5t109.5 224.5 q36 188 -66 287.5t-321 99.5q-201 0 -383 -67z" />
<glyph unicode="&#x412;" horiz-adv-x="1323" d="M193 299l221 1135h475q110 0 192.5 -30t129 -82t63.5 -119t2 -142q-47 -247 -301 -328q129 -33 186.5 -121.5t30.5 -224.5q-33 -169 -178.5 -278t-380.5 -109h-250q-127 0 -175 68t-15 231zM285 313q-26 -133 1.5 -182t119.5 -49h245q188 0 306 82t145 221 q29 151 -57.5 227t-288.5 76h-398zM375 770h381q187 0 295 76t135 215q25 129 -61 210t-257 81h-381z" />
<glyph unicode="&#x413;" horiz-adv-x="1126" d="M145 35l273 1399h784q20 0 26 -9t1 -32l-8 -41h-729l-263 -1352h-49q-24 0 -31.5 7.5t-3.5 27.5z" />
<glyph unicode="&#x414;" horiz-adv-x="1292" d="M-61 -266l67 348h96q140 307 258.5 666t182.5 686h692q23 0 30 -7.5t3 -27.5l-256 -1317h73q23 0 30.5 -7.5t4.5 -27.5l-67 -348h-49q-23 0 -30.5 7.5t-4.5 27.5l53 266h-940l-59 -301h-50q-23 0 -30 7.5t-4 27.5zM201 82h721l247 1270h-548q-60 -269 -178 -628 t-242 -642z" />
<glyph unicode="&#x415;" horiz-adv-x="1161" d="M193 299l221 1135h784q26 0 19 -27q-4 -20 -19 -55h-711l-118 -607h573q20 0 26 -8.5t1 -31.5l-8 -41h-609l-67 -351q-26 -133 1.5 -182t119.5 -49h534q20 0 26 -9t1 -32l-6 -41h-578q-127 0 -175 68t-15 231z" />
<glyph unicode="&#x416;" horiz-adv-x="1982" d="M-29 25q3 15 13 32h26q34 0 67 17.5t85 66.5q117 112 259 293.5t284 413.5q-240 255 -359 512q-9 19 -6 35q8 34 74 47q98 -216 253 -406.5t332 -330.5l142 727q33 10 63 10q31 0 25 -25l-139 -712q231 139 460 329.5t412 407.5q33 -7 46.5 -19.5t10.5 -27.5 q-4 -18 -18 -35q-236 -269 -559 -512q51 -233 122.5 -414.5t145.5 -292.5q31 -49 58 -66.5t61 -17.5h26q3 -16 0 -32q-3 -18 -28 -34t-55 -16q-46 0 -75.5 20.5t-64.5 72.5q-166 250 -272 720q-118 -88 -291 -192l-115 -596h-49q-24 0 -31.5 7.5t-3.5 27.5l109 561 q-120 95 -219 192q-269 -450 -549 -720q-54 -52 -92 -72.5t-84 -20.5q-30 0 -48.5 16t-15.5 34z" />
<glyph unicode="&#x417;" horiz-adv-x="1214" d="M88 111q4 24 23 43q159 -97 383 -97q122 0 223.5 35t171 106t88.5 169q30 153 -85.5 241t-359.5 88h-20q-23 0 -20 27q5 24 18 55h45q214 0 354.5 86t167.5 223q26 135 -54.5 212t-236.5 77q-130 0 -241 -60t-189 -173q-33 3 -57 20q-25 19 -2 49q80 107 217 176.5 t289 69.5q195 0 295.5 -101t68.5 -263q-27 -138 -131.5 -229t-261.5 -128q161 -31 242.5 -123.5t50.5 -248.5q-25 -126 -111 -215.5t-207 -132t-266 -42.5q-105 0 -201.5 25.5t-147 57t-46.5 53.5z" />
<glyph unicode="&#x418;" horiz-adv-x="1470" d="M143 25l273 1407q33 10 63 10q31 0 25 -25l-250 -1286l1071 1288q23 23 41 23q36 0 74 -33l-273 -1409h-49q-24 0 -31.5 7.5t-3.5 27.5l246 1268l-1071 -1289q-19 -22 -41 -22q-36 0 -74 33z" />
<glyph unicode="&#x419;" horiz-adv-x="1470" d="M143 25l273 1407q33 10 63 10q31 0 25 -25l-250 -1286l1071 1288q23 23 41 23q36 0 74 -33l-273 -1409h-49q-24 0 -31.5 7.5t-3.5 27.5l246 1268l-1071 -1289q-19 -22 -41 -22q-36 0 -74 33zM727 1833q29 16 57 16q8 0 12 -1t6.5 -5.5t3 -9.5t1.5 -16q2 -86 44 -132.5 t120 -46.5q81 0 146.5 53.5t99.5 157.5h38q23 0 29 -7.5t0 -24.5q-39 -112 -126.5 -180t-201.5 -68q-116 0 -175.5 69.5t-53.5 194.5z" />
<glyph unicode="&#x41a;" horiz-adv-x="1343" d="M145 35l271 1397q33 10 63 10q31 0 25 -25l-152 -782q252 143 510 352.5t469 454.5q34 -7 49.5 -20t12.5 -27q-3 -16 -19 -35q-250 -291 -608 -549q73 -212 157 -388t160 -282q34 -48 61 -66t60 -18h25q3 -16 0 -32q-3 -19 -29.5 -34.5t-56.5 -15.5q-41 0 -70.5 21 t-66.5 72q-174 251 -314 690q-196 -135 -360 -226l-103 -532h-49q-24 0 -31.5 7.5t-3.5 27.5z" />
<glyph unicode="&#x41b;" horiz-adv-x="1515" d="M-51 35q3 22 22 49q59 -27 125 -27q48 0 83 23t75 94t86 203q74 210 151.5 497t131.5 560h827q23 0 30 -7.5t3 -27.5l-271 -1399h-49q-24 0 -31.5 7.5t-3.5 27.5l256 1317h-684q-51 -231 -127 -513t-143 -474q-55 -158 -105.5 -242.5t-103 -116t-129.5 -31.5 q-58 0 -103 20t-40 40z" />
<glyph unicode="&#x41c;" horiz-adv-x="1837" d="M86 35l418 1376q51 33 88 33q23 0 31 -25l319 -862l666 877h67q23 0 30.5 -7.5t4.5 -27.5l-115 -1399h-59q-23 0 -30.5 7.5t-4.5 27.5l113 1274l-631 -834q-17 -20 -47 -20h-57l-314 854l-393 -1309h-51q-24 0 -32.5 7.5t-2.5 27.5z" />
<glyph unicode="&#x41d;" horiz-adv-x="1478" d="M145 35l271 1397q33 10 63 10q31 0 25 -25l-127 -657h856l131 674h49q23 0 30 -7.5t3 -27.5l-270 -1399h-50q-24 0 -31 7.5t-3 27.5l125 643h-857l-131 -678h-49q-24 0 -31.5 7.5t-3.5 27.5z" />
<glyph unicode="&#x41e;" horiz-adv-x="1576" d="M182.5 393q-23.5 139 10.5 324q34 179 114 322.5t188 233.5t234 137.5t260 47.5t241.5 -46.5t181 -139.5t97 -231.5t-9.5 -323.5q-35 -179 -115.5 -322.5t-188.5 -234t-234.5 -138t-260.5 -47.5t-241.5 46.5t-180 139.5t-96 232zM277 431.5q19 -127.5 84 -211t159 -123.5 t213 -40q86 0 170 24.5t163.5 76.5t144.5 127t115 181.5t75 233.5q31 174 12.5 301.5t-83.5 211t-159.5 123.5t-214.5 40q-109 0 -213 -40t-195 -117t-160 -202.5t-99 -283.5q-31 -174 -12 -301.5z" />
<glyph unicode="&#x41f;" horiz-adv-x="1480" d="M145 35l273 1399h997q23 0 30 -7.5t3 -27.5l-270 -1399h-50q-24 0 -31 7.5t-3 27.5l256 1317h-858l-263 -1352h-49q-24 0 -31.5 7.5t-3.5 27.5z" />
<glyph unicode="&#x420;" horiz-adv-x="1288" d="M145 35l273 1399h401q249 0 375 -137t80 -379q-25 -125 -87.5 -224.5t-150 -162.5t-191.5 -96.5t-216 -33.5q-175 0 -314 50l-86 -451h-49q-24 0 -31.5 7.5t-3.5 27.5zM330 524q124 -41 313 -41q204 0 352.5 116t188.5 319q20 108 1.5 189.5t-71 136t-131 81.5t-178.5 27 h-313z" />
<glyph unicode="&#x421;" horiz-adv-x="1406" d="M196 439.5q-31 145.5 5 324.5q26 131 82.5 244t132.5 194.5t167.5 140t188.5 87t193 28.5q188 0 311.5 -84t165.5 -219q11 -31 -23 -49q-29 -18 -63 -21q-38 140 -145 215.5t-263 75.5q-104 0 -208 -41t-194 -116t-158 -192t-95 -257q-33 -166 -4.5 -298.5t103 -224.5 t186 -141t245.5 -49q204 0 367 88q11 -16 6 -43q-7 -39 -127.5 -83t-265.5 -44q-159 0 -287 56t-208.5 159.5t-111.5 249z" />
<glyph unicode="&#x422;" horiz-adv-x="1236" d="M283 1378q6 32 20 56h997q20 0 26 -9t1 -32l-8 -41h-475l-262 -1352h-50q-24 0 -31 7.5t-3 27.5l256 1317h-451q-23 0 -20 26z" />
<glyph unicode="&#x423;" horiz-adv-x="1300" d="M267 10q-9 10 5 27q186 195 355 397l-312 961q49 43 76 43q19 0 31 -25l278 -887q359 442 613 908h51q49 0 27 -37q-198 -352 -465 -710.5t-574 -686.5h-51q-25 0 -34 10z" />
<glyph unicode="&#x424;" horiz-adv-x="1540" d="M172 532.5q-17 85.5 4 190.5q25 126 96 230.5t169.5 172.5t214 107t235.5 45l29 154q33 10 63 10q31 0 25 -25l-27 -139q93 -5 176 -30.5t151.5 -71t113 -111.5t61 -151.5t-3.5 -190.5q-25 -126 -96 -231t-169.5 -173t-214 -107.5t-235.5 -45.5l-31 -166h-49 q-24 0 -31.5 7.5t-3.5 27.5l25 131q-93 5 -176 31t-151.5 72t-113 112t-61.5 151.5zM270 539q21 -88 79 -150t144.5 -97t196.5 -42l184 948q-144 -6 -270 -60t-217 -157.5t-117 -239.5q-21 -114 0 -202zM780 248q143 5 269 58.5t217.5 157.5t117.5 241q21 114 0 202 t-79 149.5t-144.5 96.5t-195.5 43z" />
<glyph unicode="&#x425;" horiz-adv-x="1380" d="M45 35q259 412 649 708l-364 641q38 54 67 54q14 0 27 -19l352 -620q360 276 586 635h53q42 0 21 -35q-224 -358 -621 -668l391 -686q-37 -53 -67 -53q-17 0 -29 18l-379 664q-358 -267 -610 -674h-53q-44 0 -23 35z" />
<glyph unicode="&#x426;" horiz-adv-x="1468" d="M193 299l219 1133q33 10 63 10q31 0 25 -25l-215 -1104q-26 -133 1.5 -182t119.5 -49h692l264 1352h49q23 0 30 -7.5t3 -27.5l-256 -1317h74q23 0 30 -7.5t4 -27.5l-67 -348h-49q-23 0 -30.5 7.5t-4.5 27.5l53 266h-815q-127 0 -175 68t-15 231z" />
<glyph unicode="&#x427;" horiz-adv-x="1392" d="M283 889l104 543q33 10 64 10q30 0 24 -25l-100 -518q-39 -203 50.5 -309.5t281.5 -106.5q224 0 403 86l168 865h49q23 0 30 -7.5t3 -27.5l-270 -1399h-50q-24 0 -31 7.5t-3 27.5l90 463q-178 -97 -410 -97q-227 0 -337 130t-66 358z" />
<glyph unicode="&#x428;" horiz-adv-x="1875" d="M193 299l219 1133q33 10 63 10q31 0 25 -25l-215 -1104q-26 -133 1.5 -182t119.5 -49h417l264 1352h50q23 0 30 -7.5t2 -27.5l-256 -1317h584l264 1352h49q23 0 30 -7.5t3 -27.5l-270 -1399h-1190q-127 0 -175 68t-15 231z" />
<glyph unicode="&#x429;" horiz-adv-x="1867" d="M193 299l219 1133q33 10 63 10q31 0 25 -25l-215 -1104q-26 -133 1.5 -182t119.5 -49h417l264 1352h50q23 0 30 -7.5t2 -27.5l-256 -1317h584l264 1352h49q23 0 30 -7.5t3 -27.5l-256 -1317h74q23 0 30.5 -7.5t4.5 -27.5l-68 -348h-49q-23 0 -30.5 7.5t-4.5 27.5l53 266 h-1214q-127 0 -175 68t-15 231z" />
<glyph unicode="&#x42a;" horiz-adv-x="1697" d="M283 1378q6 32 20 56h516q23 0 30 -7.5t3 -27.5l-100 -518q175 69 397 69q244 0 368 -123t82 -342q-45 -233 -225 -359t-452 -126h-183q-127 0 -175 68t-15 231l205 1053h-451q-23 0 -20 26zM641 313q-26 -133 1.5 -182t119.5 -49h151q157 0 279 42t205.5 132.5 t109.5 224.5q36 188 -66 287.5t-321 99.5q-201 0 -383 -67z" />
<glyph unicode="&#x42b;" horiz-adv-x="1777" d="M193 299l219 1133q33 10 63 10q31 0 25 -25l-105 -536q175 69 398 69q244 0 368 -123t82 -342q-45 -233 -225.5 -359t-452.5 -126h-182q-127 0 -175 68t-15 231zM285 313q-26 -133 1.5 -182t119.5 -49h151q157 0 279 42t205.5 132.5t109.5 224.5q36 188 -66 287.5 t-321 99.5q-201 0 -383 -67zM1391 35l270 1397q33 10 63 10q31 0 25 -25l-274 -1417h-50q-23 0 -30.5 7.5t-3.5 27.5z" />
<glyph unicode="&#x42c;" horiz-adv-x="1341" d="M193 299l219 1133q33 10 63 10q31 0 25 -25l-105 -536q175 69 398 69q244 0 368 -123t82 -342q-45 -233 -225.5 -359t-452.5 -126h-182q-127 0 -175 68t-15 231zM285 313q-26 -133 1.5 -182t119.5 -49h151q157 0 279 42t205.5 132.5t109.5 224.5q36 188 -66 287.5 t-321 99.5q-201 0 -383 -67z" />
<glyph unicode="&#x42d;" horiz-adv-x="1431" d="M109 102q4 25 22 43q127 -88 334 -88q167 0 323 72t279.5 213.5t179.5 329.5h-751q-26 0 -19 26q4 22 19 56h772q0 2 2.5 8t3.5 8q27 145 4 258t-84.5 190t-149.5 117.5t-192 40.5q-156 0 -292 -75.5t-226 -215.5q-37 4 -60 21q-23 19 -2 49q94 134 251 218.5t345 84.5 q121 0 224 -45.5t175.5 -133.5t99 -217.5t-4.5 -297.5q-45 -233 -180.5 -414.5t-325.5 -278t-403 -96.5q-60 0 -116 8.5t-97.5 22.5t-72.5 31t-45.5 34t-12.5 31z" />
<glyph unicode="&#x42e;" horiz-adv-x="2015" d="M145 35l271 1397q33 10 63 10q31 0 25 -25l-129 -663h262q38 170 118.5 306t187 222t230 131t254.5 45q134 0 241.5 -46.5t181 -139.5t97 -231.5t-9.5 -323.5q-28 -144 -86 -265.5t-135 -208.5t-171.5 -148t-197 -90.5t-208.5 -29.5q-130 0 -235.5 44.5t-178.5 129.5 t-101.5 219.5t-2.5 303.5h-263l-129 -672h-49q-24 0 -31.5 7.5t-3.5 27.5zM715 431.5q19 -127.5 84 -211t159 -123.5t213 -40q86 0 170 24.5t163.5 76.5t144.5 127t115 181.5t75 233.5q31 174 12.5 301.5t-83.5 211t-159 123.5t-214 40q-109 0 -213.5 -40t-195.5 -117 t-160 -202.5t-99 -283.5q-31 -174 -12 -301.5z" />
<glyph unicode="&#x42f;" horiz-adv-x="1339" d="M33 25q4 18 12 32h21q36 0 67 13.5t88 58.5q162 131 328 334q-160 42 -236.5 163.5t-38.5 311.5q45 233 223.5 364.5t428.5 131.5h348q23 0 30 -7.5t3 -27.5l-271 -1399h-49q-24 0 -31.5 7.5t-3.5 27.5l88 457q-158 -50 -319 -50q-39 0 -90 7q-190 -243 -346 -373 q-120 -101 -195 -101q-29 0 -45.5 14.5t-11.5 35.5zM365 938q-39 -195 64.5 -304.5t307.5 -109.5q179 0 318 41l153 787h-301q-135 0 -246 -44.5t-190.5 -139.5t-105.5 -230z" />
<glyph unicode="&#x430;" horiz-adv-x="1214" d="M102 324q32 164 164.5 257t325.5 93q194 0 352 -82l25 133q31 156 -51 233.5t-246 77.5q-198 0 -338 -73q-10 16 -6 43q7 35 121 73.5t253 38.5q198 0 296 -103.5t61 -297.5l-105 -535q-13 -64 1.5 -91.5t54.5 -27.5h34q2 -10 -2 -34q-3 -16 -28.5 -29.5t-59.5 -13.5 q-58 0 -83.5 49.5t-6.5 150.5l4 15q-78 -98 -199.5 -162t-254.5 -64q-173 0 -257.5 96.5t-54.5 252.5zM193 324q-24 -123 45.5 -195t189.5 -72q263 0 461 256l39 199q-68 38 -161.5 59t-188.5 21q-154 0 -258 -73.5t-127 -194.5z" />
<glyph unicode="&#x431;" horiz-adv-x="1288" d="M197 616q33 168 74.5 290.5t92 208t119.5 142.5t146 90t182 56l227 49q172 38 236 68q10 -15 10 -29q0 -59 -235 -111l-246 -53q-97 -22 -165 -54.5t-126.5 -90t-101 -144.5t-76.5 -215q106 99 235 156t269 57q200 0 300.5 -138.5t59.5 -350.5q-30 -158 -116 -288 t-215 -207t-275 -77q-242 0 -347.5 171t-47.5 470zM289 625q-54 -273 34.5 -420.5t284.5 -147.5q174 0 316 136.5t182 341.5q38 197 -49 308t-254 111q-263 0 -498 -243z" />
<glyph unicode="&#x432;" horiz-adv-x="1124" d="M168 299l154 795h401q122 0 199.5 -40t103.5 -102.5t10 -140.5q-15 -85 -71.5 -149.5t-145.5 -94.5q100 -32 146 -94t24 -168q-25 -130 -145.5 -217.5t-321.5 -87.5h-164q-127 0 -175 68t-15 231zM260 313q-26 -133 1.5 -182t119.5 -49h162q153 0 245 59.5t111 161.5 q21 102 -52 159.5t-241 57.5h-305zM317 602h304q149 0 227.5 55.5t97.5 149.5t-39 149.5t-207 55.5h-303z" />
<glyph unicode="&#x433;" horiz-adv-x="962" d="M121 35l205 1059h657q20 0 26 -9t1 -32l-6 -41h-603l-196 -1012h-49q-24 0 -31.5 7.5t-3.5 27.5z" />
<glyph unicode="&#x434;" horiz-adv-x="1140" d="M-61 -207l55 289h86q244 503 342 1012h610q24 0 31.5 -7.5t3.5 -27.5l-190 -977h65q23 0 30.5 -7.5t4.5 -27.5l-55 -289h-50q-24 0 -31 7.5t-3 27.5l41 207h-809l-47 -242h-50q-23 0 -30.5 7.5t-3.5 27.5zM178 82h608l183 930h-469q-48 -209 -132 -456.5t-190 -473.5z " />
<glyph unicode="&#x435;" d="M147 557q25 125 88.5 231.5t149 178t185.5 111.5t200 40q188 0 284.5 -113.5t61.5 -293.5q-14 -73 -49 -136q-22 -41 -46 -54t-67 -13h-723q-25 -206 80.5 -328.5t278.5 -122.5q163 0 293 68q11 -16 6 -43q-5 -32 -103 -69.5t-221 -37.5q-228 0 -348 162.5t-70 419.5z M244 590h735q35 55 47 121q28 146 -48.5 235.5t-227.5 89.5q-104 0 -207 -53.5t-184.5 -157t-114.5 -235.5z" />
<glyph unicode="&#x436;" horiz-adv-x="1617" d="M-16 27q3 19 12 34h39q61 0 135 80q177 195 354 537q-152 155 -260 348q-6 12 -6 27q7 32 72 51q159 -312 458 -549l105 537q33 10 63 10q28 0 25 -25l-102 -522q395 238 671 549q32 -10 43.5 -23t8.5 -28q0 -12 -15 -27q-179 -188 -395 -348q43 -351 145 -537 q24 -47 48.5 -63.5t54.5 -16.5h39q3 -15 0 -34q-3 -15 -29 -29t-51 -14q-46 0 -81 20.5t-67 85.5q-94 186 -139 533q-123 -85 -252 -162l-88 -461h-49q-24 0 -31.5 7.5t-3.5 27.5l82 426q-104 78 -188 162q-181 -343 -346 -533q-57 -65 -99.5 -85.5t-89.5 -20.5 q-25 0 -45.5 14t-17.5 29z" />
<glyph unicode="&#x437;" horiz-adv-x="1046" d="M98 94q8 28 25 45q134 -82 309 -82q153 0 247 60.5t114 156.5q21 108 -56 171t-245 63h-23q-23 0 -20 27q5 24 18 55h25q165 0 259.5 63t114.5 168q21 100 -44 157.5t-179 57.5q-101 0 -189.5 -43t-142.5 -123q-36 8 -53 21q-25 19 -2 49q65 81 170.5 129.5t230.5 48.5 q159 0 242 -83t57 -216q-18 -95 -86 -164t-168 -102q104 -32 152.5 -103t28.5 -174q-26 -133 -148 -217t-315 -84q-88 0 -167 23t-118.5 50t-36.5 46z" />
<glyph unicode="&#x438;" horiz-adv-x="1280" d="M119 25l209 1073q30 10 63 10q29 0 23 -25l-187 -962l869 964q20 23 43 23q30 0 71 -33l-209 -1075h-49q-24 0 -31 7.5t-3 27.5l182 944l-867 -965q-22 -22 -43 -22q-33 0 -71 33z" />
<glyph unicode="&#x439;" horiz-adv-x="1280" d="M119 25l209 1073q30 10 63 10q29 0 23 -25l-187 -962l869 964q20 23 43 23q30 0 71 -33l-209 -1075h-49q-24 0 -31 7.5t-3 27.5l182 944l-867 -965q-22 -22 -43 -22q-33 0 -71 33zM561 1475q29 16 57 16q10 0 14.5 -3.5t6 -9t2.5 -20.5q2 -86 44 -132t120 -46 q81 0 146.5 53.5t99.5 157.5h39q23 0 29 -8t-1 -25q-39 -112 -126 -180t-201 -68q-116 0 -176 70t-54 195z" />
<glyph unicode="&#x43a;" d="M121 35l205 1057q33 10 63 10q28 0 25 -25l-111 -571q463 251 791 598q58 -18 51 -51q0 -12 -15 -27q-213 -213 -509 -414q59 -143 132.5 -270.5t135.5 -200.5q36 -45 58 -61.5t48 -16.5h39q2 -10 -2 -34q-3 -15 -29 -29t-51 -14q-41 0 -74.5 21.5t-76.5 82.5 q-144 193 -258 473q-130 -82 -258 -149l-80 -414h-49q-24 0 -31.5 7.5t-3.5 27.5z" />
<glyph unicode="&#x43b;" horiz-adv-x="1318" d="M-51 35q3 22 22 49q59 -27 109 -27q43 0 73.5 22.5t66.5 93t79 204.5q111 354 180 717h738q20 0 25.5 -8.5t0.5 -32.5l-203 -1053h-49q-24 0 -31.5 7.5t-3.5 27.5l191 977h-590q-61 -306 -166 -645q-47 -157 -96 -243.5t-99.5 -117.5t-123.5 -31q-49 0 -88.5 20t-34.5 40 z" />
<glyph unicode="&#x43c;" horiz-adv-x="1550" d="M70 35l352 1036q51 33 86 33q25 0 33 -25l237 -635l492 650h67q23 0 31 -7.5t6 -27.5l-49 -1059h-57q-23 0 -30 7t-5 28l47 938l-463 -606q-15 -21 -47 -21h-57l-232 627l-327 -973h-50q-24 0 -32.5 7.5t-1.5 27.5z" />
<glyph unicode="&#x43d;" horiz-adv-x="1251" d="M121 35l205 1057q33 10 63 10q28 0 25 -25l-92 -471h677l95 488h49q24 0 31.5 -7.5t3.5 -27.5l-205 -1059h-49q-24 0 -31.5 7.5t-3.5 27.5l94 489h-678l-100 -524h-49q-24 0 -31.5 7.5t-3.5 27.5z" />
<glyph unicode="&#x43e;" horiz-adv-x="1286" d="M141 307.5q-21 106.5 4 239.5q34 173 131.5 304.5t228 199t273.5 67.5q106 0 193 -39t143.5 -113t77 -180t-5.5 -239q-50 -259 -230.5 -415.5t-400.5 -156.5q-106 0 -193 39.5t-143.5 113t-77.5 180zM233.5 340q16.5 -94 67 -157t123 -94.5t160.5 -31.5q110 0 213 52 t185.5 163t111.5 263q23 125 6.5 219t-67 156.5t-123 94t-160.5 31.5q-81 0 -161 -30.5t-150.5 -88.5t-123.5 -150.5t-75 -207.5q-23 -125 -6.5 -219z" />
<glyph unicode="&#x43f;" horiz-adv-x="1251" d="M121 35l205 1059h817q24 0 31.5 -7.5t3.5 -27.5l-205 -1059h-49q-24 0 -31.5 7.5t-3.5 27.5l190 977h-678l-196 -1012h-49q-24 0 -31.5 7.5t-3.5 27.5z" />
<glyph unicode="&#x440;" horiz-adv-x="1300" d="M35 -401l291 1493q33 10 63 10q28 0 25 -25l-45 -233q87 123 214.5 198.5t268.5 75.5q204 0 304 -141t54 -385q-25 -125 -86 -237.5t-147 -196.5t-197 -133.5t-229 -49.5q-102 0 -186.5 36.5t-139.5 101.5l-106 -549h-49q-23 0 -30.5 7.5t-4.5 27.5zM246 211 q121 -154 319 -154q192 0 351.5 155t203.5 382q40 209 -43.5 325.5t-251.5 116.5q-127 0 -255.5 -85t-229.5 -249z" />
<glyph unicode="&#x441;" horiz-adv-x="1124" d="M153 324.5q-26 113.5 1 259.5q24 123 85 225t144 169t182.5 103.5t202.5 36.5q137 0 229.5 -65t122.5 -160q11 -31 -20 -49q-34 -18 -66 -21q-25 99 -94.5 156t-187.5 57q-117 0 -222 -53.5t-182 -157.5t-104 -241q-21 -106 -7.5 -190t52 -147.5t96 -105.5t125 -63 t139.5 -21q157 0 283 66q11 -16 6 -43q-7 -33 -106.5 -69t-215.5 -36q-111 0 -206.5 40.5t-163 118t-93.5 191z" />
<glyph unicode="&#x442;" horiz-adv-x="1056" d="M197 1038q5 26 18 56h858q20 0 26 -9t1 -32l-6 -41h-406l-196 -1012h-50q-24 0 -31 7.5t-3 27.5l190 977h-381q-12 0 -17.5 7t-2.5 19z" />
<glyph unicode="&#x443;" horiz-adv-x="1282" d="M78 -240q28 158 219 263q-165 101 -107 397l132 672q33 10 63 10q28 0 25 -25l-127 -649q-36 -185 21 -278t212 -93q105 0 220.5 43t219.5 127l170 875h50q23 0 30 -7.5t4 -27.5l-202 -1036q-46 -240 -216.5 -389.5t-426.5 -149.5q-150 0 -230.5 72.5t-56.5 195.5z M168 -240q-17 -81 43 -133.5t168 -52.5q226 0 362 120t174 324l25 119q-104 -75 -222 -118.5t-229 -43.5q-52 0 -118 15q-178 -96 -203 -230z" />
<glyph unicode="&#x444;" horiz-adv-x="1552" d="M141 547q25 127 92.5 232.5t163.5 176.5t213.5 112t245.5 48l76 383q30 10 63 10q29 0 23 -24l-70 -367q128 -5 232.5 -46t175 -111.5t98.5 -177.5t2 -236q-33 -172 -142 -301t-260.5 -196.5t-328.5 -74.5l-72 -370h-49q-23 0 -30.5 7.5t-4.5 27.5l66 337 q-126 7 -227.5 48.5t-170 112.5t-95 176.5t-1.5 232.5zM235 356.5q20 -90.5 78.5 -154t144 -99t193.5 -44.5l191 975q-107 -5 -204.5 -36t-180.5 -87.5t-141.5 -145t-79.5 -200.5q-21 -118 -1 -208.5zM741 57q86 2 167.5 21t156.5 57.5t135 93t103 131.5t61 168 q22 118 -1 212.5t-83.5 156t-148.5 96.5t-199 41z" />
<glyph unicode="&#x445;" horiz-adv-x="1140" d="M27 35q170 275 495 512l-282 497q38 54 67 54q14 0 27 -19l266 -471q284 208 455 486h53q43 0 22 -35q-175 -282 -491 -518l244 -426q32 -52 82 -52h26q2 -10 -2 -34q-3 -14 -28.5 -28.5t-53.5 -14.5q-34 0 -60 20.5t-54 67.5l-234 405q-296 -214 -457 -479h-53 q-43 0 -22 35z" />
<glyph unicode="&#x446;" horiz-adv-x="1257" d="M168 299l154 793q33 10 63 10q28 0 25 -25l-150 -764q-26 -133 1.5 -182t119.5 -49h522l197 1012h49q24 0 31.5 -7.5t3.5 -27.5l-191 -977h66q23 0 30.5 -7.5t4.5 -27.5l-56 -289h-49q-24 0 -31.5 7.5t-3.5 27.5l41 207h-637q-127 0 -175 68t-15 231z" />
<glyph unicode="&#x447;" horiz-adv-x="1249" d="M219 729l70 363q33 10 63 10q28 0 25 -25l-68 -340q-36 -185 21.5 -277.5t212.5 -92.5q105 0 221 43t219 125l109 559h49q24 0 31.5 -7.5t3.5 -27.5l-205 -1059h-49q-24 0 -31.5 7.5t-3.5 27.5l80 409q-102 -74 -219.5 -116.5t-229.5 -42.5q-192 0 -266 118t-33 326z" />
<glyph unicode="&#x448;" horiz-adv-x="1646" d="M168 299l154 793q33 10 63 10q28 0 25 -25l-150 -764q-26 -133 1.5 -182t119.5 -49h328l196 1012h49q24 0 31.5 -7.5t3.5 -27.5l-190 -977h493l197 1012h49q24 0 31.5 -7.5t3.5 -27.5l-205 -1059h-1010q-127 0 -175 68t-15 231z" />
<glyph unicode="&#x449;" horiz-adv-x="1646" d="M168 299l154 793q33 10 63 10q28 0 25 -25l-150 -764q-26 -133 1.5 -182t119.5 -49h328l196 1012h49q24 0 31.5 -7.5t3.5 -27.5l-190 -977h493l197 1012h49q24 0 31.5 -7.5t3.5 -27.5l-191 -977h66q23 0 30.5 -7.5t4.5 -27.5l-56 -289h-49q-24 0 -31.5 7.5t-3.5 27.5 l41 207h-1026q-127 0 -175 68t-15 231z" />
<glyph unicode="&#x44a;" horiz-adv-x="1441" d="M197 1038q5 26 18 56h447q24 0 31 -7.5t3 -27.5l-67 -352q142 51 319 51q214 0 314.5 -98t68.5 -269q-36 -179 -180.5 -285t-400.5 -106h-101q-127 0 -175 68t-15 231l139 713h-381q-12 0 -17.5 7t-2.5 19zM551 313q-26 -133 1.5 -182t119.5 -49h110q195 0 313 82.5 t146 226.5q25 135 -54.5 210t-264.5 75q-170 0 -310 -49z" />
<glyph unicode="&#x44b;" horiz-adv-x="1533" d="M168 299l154 793q33 10 63 10q28 0 25 -25l-72 -370q142 51 319 51q214 0 314.5 -98t68.5 -269q-36 -179 -180.5 -285t-400.5 -106h-101q-127 0 -175 68t-15 231zM260 313q-26 -133 1.5 -182t119.5 -49h111q195 0 312.5 82t145.5 227q25 135 -54.5 210t-264.5 75 q-169 0 -309 -49zM1176 166l180 926q33 10 63 10q28 0 25 -25l-178 -911q-10 -57 3.5 -81t51.5 -24h37q3 -15 0 -34q-3 -16 -28.5 -29.5t-59.5 -13.5q-58 0 -85 44.5t-9 137.5z" />
<glyph unicode="&#x44c;" horiz-adv-x="1148" d="M168 299l154 793q33 10 63 10q28 0 25 -25l-72 -370q142 51 319 51q214 0 314.5 -98t68.5 -269q-36 -179 -180.5 -285t-400.5 -106h-101q-127 0 -175 68t-15 231zM260 313q-26 -133 1.5 -182t119.5 -49h111q195 0 312.5 82t145.5 227q25 135 -54.5 210t-264.5 75 q-169 0 -309 -49z" />
<glyph unicode="&#x44d;" horiz-adv-x="1161" d="M88 80q4 24 23 43q103 -66 258 -66q83 0 170.5 28.5t168.5 82t147.5 141t100.5 195.5h-542q-26 0 -19 26q4 22 19 56h565q39 204 -57.5 327t-274.5 123q-118 0 -211 -57.5t-153 -155.5q-38 4 -58 21q-25 19 -4 49q66 94 186 159.5t257 65.5q103 0 188 -36t142 -105 t78 -168t-3 -225q-28 -141 -100 -258.5t-169 -192.5t-208.5 -116.5t-222.5 -41.5q-78 0 -146.5 18.5t-103.5 42.5t-31 44z" />
<glyph unicode="&#x44e;" horiz-adv-x="1660" d="M121 35l205 1057q33 10 63 10q28 0 25 -25l-95 -481h213q41 159 137.5 279t222 181.5t261.5 61.5q106 0 193 -39t143.5 -113t77 -180t-5.5 -239q-50 -259 -230.5 -415.5t-400.5 -156.5q-212 0 -332.5 146.5t-83.5 392.5h-211l-98 -514h-49q-24 0 -31.5 7.5t-3.5 27.5z M607.5 340q16.5 -94 67 -157t123 -94.5t160.5 -31.5q110 0 213 52t185.5 163t111.5 263q23 125 6.5 219t-67 156.5t-123 94t-160.5 31.5q-81 0 -161 -30.5t-150.5 -88.5t-123.5 -150.5t-75 -207.5q-23 -125 -6.5 -219z" />
<glyph unicode="&#x44f;" horiz-adv-x="1181" d="M70 25q4 18 12 32h22q36 0 69 13.5t85 60.5q115 100 205 223q-130 35 -190 126t-33 233q35 181 181.5 281t364.5 100h287q24 0 31.5 -7.5t3.5 -27.5l-205 -1059h-49q-24 0 -31.5 7.5t-3.5 27.5l64 332q-109 -33 -250 -33q-34 0 -88 4q-93 -133 -223 -256 q-112 -107 -195 -107q-29 0 -45.5 14.5t-11.5 35.5zM330 713q-29 -149 56.5 -223t272.5 -74q134 0 240 28l111 568h-228q-394 0 -452 -299z" />
<glyph unicode="&#x450;" d="M147 557q25 125 88.5 231.5t149 178t185.5 111.5t200 40q188 0 284.5 -113.5t61.5 -293.5q-14 -73 -49 -136q-22 -41 -46 -54t-67 -13h-723q-25 -206 80.5 -328.5t278.5 -122.5q163 0 293 68q11 -16 6 -43q-5 -32 -103 -69.5t-221 -37.5q-228 0 -348 162.5t-70 419.5z M244 590h735q35 55 47 121q28 146 -48.5 235.5t-227.5 89.5q-104 0 -207 -53.5t-184.5 -157t-114.5 -235.5zM625 1464q15 24 32 41q16 13 29 13q10 0 21 -15l225 -258l-35 -31q-11 -8 -18 -8q-8 0 -19 11z" />
<glyph unicode="&#x451;" d="M147 557q25 125 88.5 231.5t149 178t185.5 111.5t200 40q188 0 284.5 -113.5t61.5 -293.5q-14 -73 -49 -136q-22 -41 -46 -54t-67 -13h-723q-25 -206 80.5 -328.5t278.5 -122.5q163 0 293 68q11 -16 6 -43q-5 -32 -103 -69.5t-221 -37.5q-228 0 -348 162.5t-70 419.5z M244 590h735q35 55 47 121q28 146 -48.5 235.5t-227.5 89.5q-104 0 -207 -53.5t-184.5 -157t-114.5 -235.5zM571 1364q6 29 27 47.5t47 18.5q27 0 43 -19.5t10 -50.5q-6 -29 -27.5 -47.5t-47.5 -18.5q-27 0 -42.5 19.5t-9.5 50.5zM903 1364q6 29 27 47.5t47 18.5 q27 0 43 -19.5t10 -50.5q-6 -29 -27.5 -47.5t-48.5 -18.5t-42 19.5t-9 50.5z" />
<glyph unicode="&#x452;" horiz-adv-x="1282" d="M121 35l237 1229h-106q-26 0 -19 26q8 32 17 47h123l30 156q33 10 64 10q15 0 21 -6t4 -18l-29 -142h391q20 0 26 -8.5t3 -32.5l-9 -32h-425l-60 -308q104 75 222 118.5t229 43.5q191 0 264.5 -117.5t32.5 -326.5l-140 -721q-33 -174 -141 -301q-39 -46 -80.5 -78.5 t-68.5 -44t-37 -6.5q-8 5 -15.5 16t-7.5 21q213 154 258 387l142 719q36 185 -21.5 277.5t-212.5 92.5q-105 0 -220.5 -43t-219.5 -127l-168 -866h-49q-24 0 -31.5 7.5t-3.5 27.5z" />
<glyph unicode="&#x453;" horiz-adv-x="966" d="M137 35l205 1059h657q20 0 26 -9t1 -32l-6 -41h-602l-197 -1012h-49q-24 0 -31.5 7.5t-3.5 27.5zM561 1245l324 258q19 15 28 15q11 0 21 -13q12 -12 16 -41l-329 -247q-17 -11 -23 -11q-9 0 -14 8z" />
<glyph unicode="&#x454;" horiz-adv-x="1124" d="M153 324.5q-26 113.5 1 259.5q24 123 85 225t144 169t182.5 103.5t202.5 36.5q137 0 229.5 -65t122.5 -160q11 -31 -20 -49q-34 -18 -66 -21q-25 99 -94.5 156t-187.5 57q-180 0 -324 -123t-184 -327h538q20 0 26 -9t1 -32l-8 -41h-570q-5 -87 16 -161t61 -126t95 -88.5 t117.5 -54t128.5 -17.5q157 0 283 66q11 -16 6 -43q-7 -33 -106.5 -69t-215.5 -36q-111 0 -206.5 40.5t-163 118t-93.5 191z" />
<glyph unicode="&#x455;" horiz-adv-x="1017" d="M117 86q4 27 22 45q127 -74 291 -74q301 0 342 199q16 83 -38.5 139.5t-198.5 93.5q-184 46 -259.5 127.5t-50.5 210.5t139.5 210t272.5 81q125 0 212 -48.5t120 -129.5q12 -28 -23 -49q-24 -15 -61 -21q-24 80 -95.5 123t-171.5 43q-111 0 -198 -59.5t-107 -157.5 q-17 -91 43.5 -147.5t225.5 -100.5q171 -46 237 -119t43 -190q-27 -135 -142 -211t-302 -76q-81 0 -155 20.5t-112 46.5t-34 44z" />
<glyph unicode="&#x456;" horiz-adv-x="514" d="M145 168l181 924q33 10 63 10q28 0 25 -25l-178 -909q-10 -57 4.5 -81t52.5 -24h37q2 -10 -2 -34q-3 -16 -28.5 -29.5t-59.5 -13.5q-58 0 -85.5 44.5t-9.5 137.5zM377 1446q4 28 25.5 45.5t48.5 17.5t42 -19t9 -50q-6 -29 -26.5 -46.5t-47.5 -17.5t-42 19.5t-9 50.5z" />
<glyph unicode="&#x457;" horiz-adv-x="514" d="M145 168l181 924q33 10 63 10q28 0 25 -25l-178 -909q-10 -57 4.5 -81t52.5 -24h37q2 -10 -2 -34q-3 -16 -28.5 -29.5t-59.5 -13.5q-58 0 -85.5 44.5t-9.5 137.5zM195 1364q6 29 26.5 47.5t46.5 18.5q27 0 43.5 -19.5t10.5 -50.5q-6 -29 -27.5 -47.5t-48.5 -18.5 t-42 19.5t-9 50.5zM526 1364q6 29 27 47.5t47 18.5q27 0 43 -19.5t10 -50.5q-6 -29 -27.5 -47.5t-47.5 -18.5q-27 0 -42.5 19.5t-9.5 50.5z" />
<glyph unicode="&#x458;" horiz-adv-x="495" d="M-131 -379q103 75 168.5 174t87.5 213l211 1084q33 10 63 10q28 0 25 -25l-207 -1063q-37 -179 -141 -301q-39 -46 -80.5 -78.5t-68 -44t-36.5 -6.5q-8 5 -15 16t-7 21zM387 1446q4 28 25.5 45.5t48.5 17.5t42 -19t9 -50q-6 -29 -26.5 -46.5t-47.5 -17.5t-42 19.5 t-9 50.5z" />
<glyph unicode="&#x459;" horiz-adv-x="1949" d="M-51 35q3 22 22 49q59 -27 109 -27q43 0 73.5 22.5t66.5 93t79 204.5q111 354 180 717h697q20 0 25.5 -8.5t0.5 -32.5l-65 -346q142 51 319 51q214 0 314.5 -98t68.5 -269q-36 -179 -180.5 -285t-401.5 -106h-100q-127 0 -175 68t-15 231l139 713h-549 q-61 -306 -166 -645q-47 -157 -96 -243.5t-99.5 -117.5t-123.5 -31q-49 0 -88.5 20t-34.5 40zM1059 313q-26 -133 1.5 -182t119.5 -49h110q195 0 313 82.5t146 226.5q25 135 -54.5 210t-264.5 75q-170 0 -310 -49z" />
<glyph unicode="&#x45a;" horiz-adv-x="1882" d="M121 35l205 1057q33 10 63 10q28 0 25 -25l-92 -471h636l95 488h49q24 0 31.5 -7.5t3.5 -27.5l-68 -352q142 51 320 51q214 0 314.5 -98t68.5 -269q-36 -179 -180.5 -285t-401.5 -106h-100q-127 0 -175.5 68t-15.5 231l43 225h-637l-100 -524h-49q-24 0 -31.5 7.5 t-3.5 27.5zM991 313q-26 -133 1.5 -182t119.5 -49h111q195 0 312.5 82t145.5 227q25 135 -54.5 210t-264.5 75q-169 0 -309 -49z" />
<glyph unicode="&#x45b;" horiz-adv-x="1306" d="M121 35l237 1229h-106q-26 0 -19 26q8 32 17 47h123l30 156q33 10 64 10q15 0 21 -6t4 -18l-29 -142h371q20 0 25.5 -8.5t2.5 -32.5l-8 -32h-405l-60 -308q104 75 222 118.5t229 43.5q191 0 264.5 -117.5t32.5 -326.5l-99 -506q-10 -56 5 -80.5t53 -24.5h37q1 -7 -3 -34 q-3 -16 -28.5 -29.5t-59.5 -13.5q-58 0 -85 44.5t-9 137.5l99 498q36 185 -21.5 277.5t-212.5 92.5q-105 0 -220.5 -43t-219.5 -127l-168 -866h-49q-24 0 -31.5 7.5t-3.5 27.5z" />
<glyph unicode="&#x45c;" d="M121 35l205 1057q33 10 63 10q28 0 25 -25l-111 -571q463 251 791 598q58 -18 51 -51q0 -12 -15 -27q-213 -213 -509 -414q59 -143 132.5 -270.5t135.5 -200.5q36 -45 58 -61.5t48 -16.5h39q2 -10 -2 -34q-3 -15 -29 -29t-51 -14q-41 0 -74.5 21.5t-76.5 82.5 q-144 193 -258 473q-130 -82 -258 -149l-80 -414h-49q-24 0 -31.5 7.5t-3.5 27.5zM606 1245l324 258q19 15 28 15q11 0 21 -13q12 -12 16 -41l-329 -247q-16 -11 -23 -11q-9 0 -14 8z" />
<glyph unicode="&#x45d;" horiz-adv-x="1280" d="M119 25q38 -33 71 -33q21 0 43 22l867 965l-182 -944q-4 -20 3 -27.5t31 -7.5h49l209 1075q-41 33 -71 33q-23 0 -43 -23l-869 -964l187 962q6 25 -23 25q-33 0 -63 -10zM627 1464q15 24 32 41q16 13 29 13q10 0 21 -15l225 -258l-35 -31q-11 -8 -18 -8q-8 0 -19 11z" />
<glyph unicode="&#x45e;" horiz-adv-x="1282" d="M78 -240q28 158 219 263q-165 101 -107 397l132 672q33 10 63 10q28 0 25 -25l-127 -649q-36 -185 21 -278t212 -93q105 0 220.5 43t219.5 127l170 875h50q23 0 30 -7.5t4 -27.5l-202 -1036q-46 -240 -216.5 -389.5t-426.5 -149.5q-150 0 -230.5 72.5t-56.5 195.5z M168 -240q-17 -81 43 -133.5t168 -52.5q226 0 362 120t174 324l25 119q-104 -75 -222 -118.5t-229 -43.5q-52 0 -118 15q-178 -96 -203 -230zM563 1475q29 16 58 16q14 0 17 -6t5 -27q2 -86 44 -132t120 -46q81 0 146.5 53.5t99.5 157.5h39q23 0 29 -8t-1 -25 q-39 -112 -126 -180t-201 -68q-116 0 -176 70t-54 195z" />
<glyph unicode="&#x45f;" horiz-adv-x="1257" d="M168 299l154 793q33 10 63 10q28 0 25 -25l-150 -764q-26 -133 1.5 -182t119.5 -49h522l197 1012h49q24 0 31.5 -7.5t3.5 -27.5l-205 -1059h-375l-47 -242h-49q-24 0 -31.5 7.5t-3.5 27.5l41 207h-156q-127 0 -175 68t-15 231z" />
<glyph unicode="&#x490;" horiz-adv-x="1126" d="M145 35l273 1399h729l51 264q30 10 64 10q28 0 22 -25l-63 -331h-729l-263 -1352h-49q-24 0 -31.5 7.5t-3.5 27.5z" />
<glyph unicode="&#x491;" horiz-adv-x="962" d="M121 35l205 1059h602l47 239q33 10 63 10q15 0 21 -6t4 -18l-59 -307h-603l-196 -1012h-49q-24 0 -31.5 7.5t-3.5 27.5z" />
<glyph unicode="&#x1e80;" horiz-adv-x="2260" d="M301 1407l176 -1407h78q33 0 51 29q421 611 697 1288l139 -1317h78q31 0 51 29q237 333 416 662t333 706q9 20 3 28.5t-29 8.5h-56q-295 -733 -712 -1321l-140 1288q-1 18 -10 25.5t-28 7.5h-86q-319 -769 -701 -1323l-160 1298q-3 29 -24 29q-31 0 -76 -31zM1186 1821 q18 29 33 41t26 12q13 0 23 -14l225 -258l-35 -31q-11 -8 -18 -8q-9 0 -19 10z" />
<glyph unicode="&#x1e81;" horiz-adv-x="1785" d="M233 1077q45 31 76 31q22 0 25 -29l129 -964q145 207 267 439.5t241 539.5h69q19 0 28.5 -7.5t10.5 -25.5l144 -944q301 433 495 977h47q23 0 29 -8.5t0 -28.5q-99 -276 -224 -520.5t-306 -505.5q-12 -18 -23 -24.5t-29 -6.5h-71l-133 954q-191 -474 -504 -925 q-20 -29 -51 -29h-70zM877 1464q15 24 32 41q16 13 29 13q9 0 20 -15l226 -258l-35 -31q-11 -8 -19 -8q-7 0 -18 11z" />
<glyph unicode="&#x1e82;" horiz-adv-x="2260" d="M301 1407q45 31 76 31q21 0 24 -29l160 -1298q382 554 701 1323h86q19 0 28 -7.5t10 -25.5l140 -1288q417 588 712 1321h56q23 0 29 -8.5t-3 -28.5q-154 -377 -333 -706t-416 -662q-20 -29 -51 -29h-78l-139 1317q-276 -677 -697 -1288q-18 -29 -51 -29h-78zM1182 1602 l323 258q17 14 27 14q13 0 22 -12q14 -19 17 -41l-330 -248q-15 -10 -22 -10q-10 0 -15 8z" />
<glyph unicode="&#x1e83;" horiz-adv-x="1785" d="M233 1077q45 31 76 31q22 0 25 -29l129 -964q145 207 267 439.5t241 539.5h69q19 0 28.5 -7.5t10.5 -25.5l144 -944q301 433 495 977h47q23 0 29 -8.5t0 -28.5q-99 -276 -224 -520.5t-306 -505.5q-12 -18 -23 -24.5t-29 -6.5h-71l-133 954q-191 -474 -504 -925 q-20 -29 -51 -29h-70zM889 1245l323 258q19 15 29 15q11 0 21 -13q12 -12 16 -41l-330 -247q-16 -11 -22 -11q-10 0 -15 8z" />
<glyph unicode="&#x1e84;" horiz-adv-x="2260" d="M301 1407l176 -1407h78q33 0 51 29q421 611 697 1288l139 -1317h78q31 0 51 29q237 333 416 662t333 706q9 20 3 28.5t-29 8.5h-56q-295 -733 -712 -1321l-140 1288q-1 18 -10 25.5t-28 7.5h-86q-319 -769 -701 -1323l-160 1298q-3 29 -24 29q-31 0 -76 -31zM1149 1720 q4 29 25.5 47.5t48.5 18.5t42 -19.5t9 -50.5q-4 -29 -25.5 -47t-48.5 -18t-42 19t-9 50zM1481 1720q4 29 25 47.5t48 18.5t42.5 -19.5t9.5 -50.5q-4 -29 -25.5 -47t-48.5 -18t-42 19t-9 50z" />
<glyph unicode="&#x1e85;" horiz-adv-x="1785" d="M233 1077q45 31 76 31q22 0 25 -29l129 -964q145 207 267 439.5t241 539.5h69q19 0 28.5 -7.5t10.5 -25.5l144 -944q301 433 495 977h47q23 0 29 -8.5t0 -28.5q-99 -276 -224 -520.5t-306 -505.5q-12 -18 -23 -24.5t-29 -6.5h-71l-133 954q-191 -474 -504 -925 q-20 -29 -51 -29h-70zM850 1364q6 29 27 47.5t47 18.5q27 0 43 -19.5t10 -50.5q-6 -29 -27.5 -47.5t-48.5 -18.5t-42 19.5t-9 50.5zM1182 1364q6 29 26.5 47.5t46.5 18.5q27 0 43.5 -19.5t10.5 -50.5q-6 -29 -27.5 -47.5t-48.5 -18.5t-42 19.5t-9 50.5z" />
<glyph unicode="&#x1ef2;" horiz-adv-x="1331" d="M276 1395q49 43 76 43q18 0 31 -25l307 -833q184 179 355 397.5t307 456.5h51q49 0 27 -37q-138 -244 -324 -479.5t-397 -436.5l-93 -481h-49q-24 0 -31.5 7.5t-3.5 27.5l86 442zM715 1821q18 29 33 41t26 12q13 0 23 -14l225 -258l-35 -31q-11 -8 -18 -8q-9 0 -19 10z " />
<glyph unicode="&#x1ef3;" horiz-adv-x="1282" d="M78 -240q28 158 219 263q-165 101 -107 397l132 672q33 10 63 10q28 0 25 -25l-127 -649q-36 -185 21 -278t212 -93q105 0 220.5 43t219.5 127l170 875h50q23 0 30 -7.5t4 -27.5l-202 -1036q-46 -240 -216.5 -389.5t-426.5 -149.5q-150 0 -230.5 72.5t-56.5 195.5z M168 -240q-17 -81 43 -133.5t168 -52.5q226 0 362 120t174 324l25 119q-104 -75 -222 -118.5t-229 -43.5q-52 0 -118 15q-178 -96 -203 -230zM635 1464q13 21 33 41q16 13 28 13q10 0 21 -15l225 -258l-35 -31q-11 -8 -18 -8q-8 0 -19 11z" />
<glyph unicode="&#x2000;" horiz-adv-x="1001" />
<glyph unicode="&#x2001;" horiz-adv-x="2003" />
<glyph unicode="&#x2002;" horiz-adv-x="1001" />
<glyph unicode="&#x2003;" horiz-adv-x="2003" />
<glyph unicode="&#x2004;" horiz-adv-x="667" />
<glyph unicode="&#x2005;" horiz-adv-x="500" />
<glyph unicode="&#x2006;" horiz-adv-x="333" />
<glyph unicode="&#x2007;" horiz-adv-x="333" />
<glyph unicode="&#x2008;" horiz-adv-x="250" />
<glyph unicode="&#x2009;" horiz-adv-x="409" />
<glyph unicode="&#x200a;" horiz-adv-x="111" />
<glyph unicode="&#x2010;" horiz-adv-x="933" d="M221 666q4 20 19 55h542q20 0 26 -9t1 -32l-8 -41h-561q-26 0 -19 27z" />
<glyph unicode="&#x2011;" horiz-adv-x="1003" d="M256 666q5 24 18 55h543q20 0 26 -9t1 -32l-8 -41h-562q-25 0 -18 27z" />
<glyph unicode="&#x2012;" horiz-adv-x="1392" d="M221 666q4 20 19 55h1001q20 0 26 -9t1 -32l-8 -41h-1020q-26 0 -19 27z" />
<glyph unicode="&#x2013;" horiz-adv-x="1024" d="M47 666q4 20 19 55h981q20 0 25.5 -8.5t0.5 -32.5l-8 -41h-999q-26 0 -19 27z" />
<glyph unicode="&#x2014;" horiz-adv-x="2048" d="M47 666q4 20 19 55h2005q20 0 25.5 -8.5t0.5 -32.5l-8 -41h-2023q-26 0 -19 27z" />
<glyph unicode="&#x2015;" horiz-adv-x="2048" d="M252 666q5 24 18 55h1596q20 0 25.5 -8.5t0.5 -32.5l-8 -41h-1614q-25 0 -18 27z" />
<glyph unicode="&#x2016;" horiz-adv-x="847" d="M119 -231l340 1755q33 10 63 10q28 0 25 -25l-346 -1775h-49q-23 0 -30 7.5t-3 27.5zM385 -231l340 1755q33 10 63 10q28 0 25 -25l-346 -1775h-49q-23 0 -30 7.5t-3 27.5z" />
<glyph unicode="&#x2017;" horiz-adv-x="1228" d="M-49 -356q5 24 18 55h981q20 0 26 -9t1 -32l-8 -41h-1000q-25 0 -18 27zM-8 -143q5 24 18 55h981q20 0 26 -9t1 -32l-8 -41h-1000q-25 0 -18 27z" />
<glyph unicode="&#x2018;" horiz-adv-x="671" d="M430 1239q13 67 49 128t82 103q19 17 36.5 29t27.5 15.5t12 1.5q12 -6 12 -25q-109 -91 -135 -191q24 -3 35.5 -21.5t5.5 -47.5q-4 -29 -25.5 -47.5t-48.5 -18.5q-28 0 -43 19.5t-8 54.5z" />
<glyph unicode="&#x2019;" horiz-adv-x="671" d="M379 1194q105 88 135 190q-24 3 -35.5 22t-5.5 48q4 29 25.5 47.5t48.5 18.5q28 0 42.5 -19.5t8.5 -54.5q-13 -67 -49 -129t-82 -103q-19 -17 -36.5 -28.5t-28 -15t-13.5 -1.5q-10 7 -10 25z" />
<glyph unicode="&#x201a;" horiz-adv-x="671" d="M104 -215q110 93 136 190q-23 3 -35 22.5t-6 47.5q4 29 25 47.5t48 18.5q28 0 43.5 -19.5t8.5 -54.5q-13 -67 -49 -129t-82 -103q-18 -17 -35.5 -28.5t-28 -15t-12.5 -1.5q-13 6 -13 25z" />
<glyph unicode="&#x201b;" horiz-adv-x="671" d="M470.5 1315q-11.5 60 0.5 131q6 35 29 54.5t51 19.5q26 0 40 -18.5t9 -47.5q-6 -28 -26 -47.5t-44 -22.5q-12 -99 62 -190q-8 -19 -23 -25q-3 -2 -11.5 1.5t-21 15t-24.5 28.5q-30 41 -41.5 101z" />
<glyph unicode="&#x201c;" horiz-adv-x="909" d="M430 1239q13 67 49 128t82 103q19 17 36.5 29t27.5 15.5t12 1.5q12 -6 12 -25q-109 -91 -135 -191q24 -3 35.5 -21.5t5.5 -47.5q-4 -29 -25.5 -47.5t-48.5 -18.5q-28 0 -43 19.5t-8 54.5zM668 1239q13 67 49 128t82 103q19 17 36.5 29t27 15.5t11.5 1.5q13 -6 13 -25 q-109 -91 -135 -191q24 -3 35.5 -21.5t5.5 -47.5q-4 -29 -25.5 -47.5t-48.5 -18.5q-28 0 -43 19.5t-8 54.5z" />
<glyph unicode="&#x201d;" horiz-adv-x="909" d="M379 1194q105 88 135 190q-24 3 -35.5 22t-5.5 48q4 29 25.5 47.5t48.5 18.5q28 0 42.5 -19.5t8.5 -54.5q-13 -67 -49 -129t-82 -103q-19 -17 -36.5 -28.5t-28 -15t-13.5 -1.5q-10 7 -10 25zM616 1194q106 90 136 190q-24 3 -35.5 22t-5.5 48q4 29 25 47.5t48 18.5 q28 0 43 -19.5t9 -54.5q-13 -67 -49 -129t-82 -103q-19 -17 -36.5 -28.5t-28 -15t-13.5 -1.5q-11 7 -11 25z" />
<glyph unicode="&#x201e;" horiz-adv-x="909" d="M104 -215q110 93 136 190q-23 3 -35 22.5t-6 47.5q4 29 25 47.5t48 18.5q28 0 43.5 -19.5t8.5 -54.5q-13 -67 -49 -129t-82 -103q-18 -17 -35.5 -28.5t-28 -15t-12.5 -1.5q-13 6 -13 25zM342 -215q109 92 135 190q-23 3 -35 22.5t-6 47.5q4 29 25.5 47.5t48.5 18.5 q28 0 43 -19.5t8 -54.5q-13 -67 -49 -129t-82 -103q-18 -17 -35.5 -28.5t-28 -15t-12.5 -1.5q-12 6 -12 25z" />
<glyph unicode="&#x201f;" horiz-adv-x="909" d="M470.5 1315q-11.5 60 0.5 131q6 35 29 54.5t51 19.5q26 0 40 -18.5t9 -47.5q-6 -28 -26 -47.5t-44 -22.5q-12 -99 62 -190q-8 -19 -23 -25q-3 -2 -11.5 1.5t-21 15t-24.5 28.5q-30 41 -41.5 101zM708.5 1315q-11.5 60 0.5 131q6 35 28.5 54.5t50.5 19.5q26 0 40 -18.5 t10 -47.5q-6 -28 -26 -47.5t-44 -22.5q-12 -100 61 -190q-8 -19 -22 -25q-3 -2 -11.5 1.5t-21 15t-24.5 28.5q-30 41 -41.5 101z" />
<glyph unicode="&#x2020;" horiz-adv-x="1097" d="M256 1110q7 36 20 66l373 -11l64 355q46 12 75 12q28 0 25 -25l-74 -342l346 11q20 1 26 -8t1 -33l-10 -52l-377 11l-264 -1362h-49q-23 0 -30.5 7.5t-4.5 27.5l258 1327l-361 -11q-25 0 -18 27z" />
<glyph unicode="&#x2021;" horiz-adv-x="1122" d="M74 115q8 41 22 65l373 -10l178 924l-360 -11q-26 0 -19 27q6 32 21 66l373 -11l63 355q46 12 76 12q27 0 24 -25l-73 -342l346 11q20 1 25.5 -8t0.5 -33l-10 -52l-377 11l-178 -924l346 10q20 1 26 -8t1 -33l-10 -51l-377 10l-62 -342q-3 -24 -32 -24q-26 0 -72 12 l76 354l-361 -10q-23 0 -20 27z" />
<glyph unicode="&#x2022;" horiz-adv-x="774" d="M283 686q0 64 38 101.5t99 37.5q60 0 102.5 -41.5t42.5 -109.5q0 -64 -37.5 -101.5t-99.5 -37.5q-60 0 -102.5 41.5t-42.5 109.5z" />
<glyph unicode="&#x2024;" horiz-adv-x="671" d="M199 45q4 29 25 47.5t48 18.5t42.5 -19.5t9.5 -50.5q-4 -29 -25.5 -47.5t-48.5 -18.5t-42 19.5t-9 50.5z" />
<glyph unicode="&#x2025;" horiz-adv-x="1343" d="M199 45q4 29 25 47.5t48 18.5t42.5 -19.5t9.5 -50.5q-4 -29 -25.5 -47.5t-48.5 -18.5t-42 19.5t-9 50.5zM870 45q4 29 25.5 47.5t48.5 18.5t42 -19.5t9 -50.5q-4 -29 -25 -47.5t-48 -18.5t-42.5 19.5t-9.5 50.5z" />
<glyph unicode="&#x2026;" horiz-adv-x="2015" d="M199 45q4 29 25 47.5t48 18.5t42.5 -19.5t9.5 -50.5q-4 -29 -25.5 -47.5t-48.5 -18.5t-42 19.5t-9 50.5zM870 45q4 29 25.5 47.5t48.5 18.5t42 -19.5t9 -50.5q-4 -29 -25 -47.5t-48 -18.5t-42.5 19.5t-9.5 50.5zM1542 45q4 29 25.5 47.5t48.5 18.5t42 -19.5t9 -50.5 q-4 -29 -25.5 -47.5t-48.5 -18.5t-42 19.5t-9 50.5z" />
<glyph unicode="&#x202f;" horiz-adv-x="400" />
<glyph unicode="&#x2030;" horiz-adv-x="2516" d="M252 1090q32 161 141 260.5t248 99.5q140 0 211 -99.5t39 -260.5t-141 -261t-248 -100q-140 0 -211 100t-39 261zM344 1098q-27 -135 21.5 -211t158.5 -76q100 0 175.5 73t99.5 197q26 135 -23.5 211t-159.5 76q-99 0 -173 -72.5t-99 -197.5zM467.5 11q-6.5 11 3.5 26 l858 1397h37q23 0 29 -11t-4 -26l-856 -1397h-37q-24 0 -30.5 11zM971 344q32 161 141 261t248 100q140 0 211 -100t39 -261q-30 -161 -139.5 -260.5t-249.5 -99.5q-139 0 -209.5 99.5t-40.5 260.5zM1063 352q-26 -135 23 -210.5t159 -75.5q99 0 174 72.5t99 197.5 q27 135 -22 211t-159 76q-99 0 -174.5 -73t-99.5 -198zM1739 344q32 161 141 261t248 100q140 0 211 -100t39 -261q-30 -161 -139.5 -260.5t-249.5 -99.5q-139 0 -209.5 99.5t-40.5 260.5zM1831 352q-26 -135 23 -210.5t159 -75.5q99 0 174 72.5t99 197.5q27 135 -22 211 t-159 76q-99 0 -174.5 -73t-99.5 -198z" />
<glyph unicode="&#x2032;" horiz-adv-x="604" d="M279 882q-5 8 4 27l252 529q23 10 55 10q20 0 23.5 -11t-7.5 -34l-264 -529h-37q-21 0 -26 8z" />
<glyph unicode="&#x2033;" horiz-adv-x="851" d="M279 882q-5 8 4 27l252 529q23 10 55 10q20 0 23.5 -11t-7.5 -34l-264 -529h-37q-21 0 -26 8zM526 882q-5 8 4 27l252 529q23 10 56 10q20 0 23.5 -11t-7.5 -34l-264 -529h-37q-22 0 -27 8z" />
<glyph unicode="&#x2039;" horiz-adv-x="788" d="M188 637l5 25l497 311q27 18 43 18q17 0 12 -30q-8 -32 -18 -52l-440 -270l321 -260q20 -16 15 -39l-15 -74l-405 336q-20 16 -15 35z" />
<glyph unicode="&#x203a;" horiz-adv-x="788" d="M119 266l14 74q5 25 27 39l424 260l-334 270q-4 26 2 52q5 30 24 30q14 0 35 -18l375 -311l-4 -25q-5 -21 -27 -35z" />
<glyph unicode="&#x203c;" horiz-adv-x="845" d="M135 45q4 29 25.5 46.5t48.5 17.5t42 -19.5t9 -50.5q-4 -29 -25.5 -46.5t-48.5 -17.5t-42 19.5t-9 50.5zM231 387q63 410 134 774l51 271q38 10 69 10q19 0 26.5 -6t4.5 -19l-49 -256q-63 -322 -176 -809h-33q-19 0 -24 7.5t-3 27.5zM436 45q4 29 25.5 46.5t48.5 17.5 t42 -19.5t9 -50.5q-4 -29 -25.5 -46.5t-48.5 -17.5t-42 19.5t-9 50.5zM532 387q63 410 134 774l51 271q38 10 69 10q19 0 26.5 -6t4.5 -19l-49 -256q-63 -322 -176 -809h-33q-19 0 -24 7.5t-3 27.5z" />
<glyph unicode="&#x203e;" horiz-adv-x="839" d="M322 1311q3 26 16 47h498q20 0 25.5 -8.5t0.5 -32.5l-6 -33h-516q-25 0 -18 27z" />
<glyph unicode="&#x2044;" horiz-adv-x="315" d="M-248 11q-6 11 4 26l856 1397h37q23 0 29 -11t-4 -26l-856 -1397h-37q-23 0 -29 11z" />
<glyph unicode="&#x205f;" horiz-adv-x="500" />
<glyph unicode="&#x20a0;" horiz-adv-x="1556" d="M205 971q43 222 200.5 354.5t348.5 132.5q129 0 206 -58t103 -147q13 -27 -19 -45q-26 -14 -67 -18q-44 186 -240 186q-97 0 -188 -47t-160.5 -141t-93.5 -217q-21 -120 -1 -208.5t75 -147t126 -87t152 -28.5q103 0 174 24l94 482h609q25 0 18 -27q-7 -36 -18 -55h-535 l-71 -373h432q20 0 25.5 -8.5t0.5 -32.5l-8 -41h-467l-31 -156q-26 -133 1.5 -182t119.5 -49h365q20 0 25.5 -8.5t0.5 -32.5l-6 -41h-407q-127 0 -175.5 68t-15.5 231l29 145q-80 -26 -180 -26q-230 0 -350.5 153t-71.5 400z" />
<glyph unicode="&#x20a1;" horiz-adv-x="1406" d="M201 764q30 153 102 281.5t169 213.5t209 135t228 60l68 160h33q27 0 34 -8t-2 -27l-51 -121q68 -3 127 -18l74 174h33q27 0 34 -8t-2 -27l-67 -162q96 -37 160.5 -106t91.5 -156q11 -31 -23 -49q-29 -18 -63 -21q-50 179 -201 248l-524 -1247q95 -29 192 -29 q204 0 367 88q11 -16 6 -43q-7 -39 -127.5 -83t-265.5 -44q-103 0 -209 27l-78 -182h-33q-27 0 -34 8t2 27l71 174q-56 24 -106 59l-115 -268h-33q-27 0 -34 8t2 27l118 284q-109 106 -150.5 266.5t-2.5 358.5zM293 770q-65 -328 102 -530l479 1130q-202 -28 -367 -188 t-214 -412zM455 182q43 -37 104 -67l526 1245q-48 12 -129 16z" />
<glyph unicode="&#x20a2;" horiz-adv-x="1406" d="M196 439.5q-31 145.5 5 324.5q26 131 82.5 244t132.5 194.5t167.5 140t188.5 87t193 28.5q188 0 311.5 -84t165.5 -219q11 -31 -23 -49q-29 -18 -63 -21q-38 140 -145 215.5t-263 75.5q-104 0 -208 -41t-194 -116t-158 -192t-95 -257q-51 -254 38.5 -432.5t278.5 -245.5 l154 787q30 10 63 10q28 0 25 -25l-27 -137q61 78 138.5 120t158.5 42q92 0 142 -29q25 -14 22 -31q-4 -16 -14 -26q-20 -20 -41 -33q-53 37 -144 37q-75 0 -153.5 -54.5t-136.5 -162.5l-101 -520q63 -13 127 -13q204 0 367 88q11 -16 6 -43q-7 -39 -127.5 -83t-265.5 -44 q-159 0 -287 56t-208.5 159.5t-111.5 249z" />
<glyph unicode="&#x20a3;" horiz-adv-x="1116" d="M78 557q7 29 18 47h150l30 164h-133q-25 0 -18 27q3 26 16 47h150l117 592h794q26 0 19 -27q-4 -20 -19 -55h-721l-100 -510h563q20 0 26 -8.5t3 -32.5l-8 -33h-598l-31 -164h563q20 0 26 -9t1 -32l-6 -33h-598l-103 -530h-49q-24 0 -31.5 7.5t-3.5 27.5l96 495h-133 q-23 0 -20 27z" />
<glyph unicode="&#x20a4;" horiz-adv-x="1220" d="M78 41l8 35q72 59 111 118t61 164l25 134h-125q-26 0 -19 26q3 24 17 47h141l33 164h-125q-24 0 -21 27q7 26 19 47h141l39 198q42 215 175.5 336t309.5 121q143 0 237 -82.5t116 -220.5q7 -33 -21 -49q-30 -16 -67 -19q-36 289 -283 289q-135 0 -239 -97t-136 -265 l-41 -211h473q20 0 26 -9t1 -32l-6 -33h-508l-33 -164h473q20 0 26 -9t1 -32l-6 -32h-508l-23 -119q-41 -202 -151 -291h821q20 0 26 -9t1 -32l-7 -41h-934q-20 0 -26 9t-2 32z" />
<glyph unicode="&#x20a6;" horiz-adv-x="1470" d="M98 588q7 26 19 47h135l31 164h-119q-26 0 -19 26q3 24 17 47h135l104 537q51 33 86 33q24 0 33 -23l250 -547h485l111 562h49q23 0 30 -7.5t3 -27.5l-102 -527h108q20 0 26 -9t1 -32l-6 -32h-144l-31 -164h109q20 0 26 -9t1 -32l-6 -33h-144l-104 -536q-51 -33 -86 -33 q-22 0 -33 22l-252 547h-483l-109 -561h-49q-24 0 -31.5 7.5t-3.5 27.5l103 526h-119q-24 0 -21 27zM342 635h436l-78 164h-327zM387 872h281l-197 431zM805 799l76 -164h329l31 164h-436zM915 561l197 -430l84 430h-281z" />
<glyph unicode="&#x20a7;" horiz-adv-x="2242" d="M145 35l273 1399h227q186 0 300.5 -89t131.5 -251h180l62 311q30 10 63 10q29 0 23 -24l-57 -297h292q20 0 26 -9t1 -32v-4q95 69 236 69q120 0 187.5 -46t102.5 -132q12 -28 -22 -49q-27 -15 -62 -21q-26 85 -78 125.5t-147 40.5q-103 0 -173 -56.5t-89 -152.5 q-17 -89 38 -145.5t189 -93.5q287 -79 242 -307q-25 -131 -134.5 -206t-287.5 -75h-313q-143 0 -209.5 90.5t-34.5 249.5l131 672h-162q-3 -43 -12 -94q-25 -124 -85.5 -224t-142.5 -163t-178 -96.5t-196 -33.5q-81 0 -156 21l-82 -422h-49q-24 0 -31.5 7.5t-3.5 27.5z M326 500q67 -17 155 -17q182 0 320 116.5t178 318.5q40 209 -58.5 321.5t-289.5 112.5h-139zM1202 346q-25 -134 22 -199t152 -65h303q139 0 221 49t101 143q32 170 -197 234q-161 44 -228.5 121.5t-41.5 206.5q18 104 90 176h-291z" />
<glyph unicode="&#x20a8;" horiz-adv-x="1957" d="M145 35l273 1399h266q250 0 377 -131.5t82 -364.5q-34 -168 -136.5 -283t-248.5 -170q42 -214 121 -356q21 -42 44 -57t72 -15h21q3 -16 0 -32q-3 -20 -30 -35t-64 -15q-82 0 -134 111q-66 133 -116 375q-87 -19 -172 -19q-101 0 -181 25l-90 -467h-49q-24 0 -31.5 7.5 t-3.5 27.5zM334 545q72 -21 182 -21q204 0 351 109.5t186 304.5q38 202 -69 308t-314 106h-178zM1133 80q4 27 22 45q112 -68 260 -68q127 0 202.5 52t94.5 147q15 87 -30.5 145t-168.5 95q-315 96 -268 342q25 125 125 202.5t244 77.5q108 0 183.5 -48t107.5 -130 q12 -28 -23 -49q-24 -15 -61 -21q-50 166 -226 166q-98 0 -171 -56t-91 -151q-17 -90 38 -149.5t188 -101.5q147 -46 206.5 -123t36.5 -193q-24 -128 -129 -207.5t-270 -79.5q-72 0 -138 19t-100.5 43.5t-31.5 42.5z" />
<glyph unicode="&#x20a9;" horiz-adv-x="2260" d="M92 557q7 26 19 47h290l-22 164h-221q-26 0 -19 27q3 24 17 47h215l-70 565q45 31 76 31q21 0 24 -29l68 -567h520q145 290 273 592h86q19 0 28 -7.5t10 -25.5l60 -559h520q143 275 272 592h56q23 0 29 -8.5t-3 -28.5q-101 -252 -254 -555h183q20 0 25.5 -8.5t2.5 -32.5 l-8 -33h-241q-63 -120 -89 -164h265q20 0 25.5 -8.5t0.5 -32.5l-6 -33h-328q-129 -220 -325 -501q-20 -29 -51 -29h-78l-58 530h-464q-130 -231 -314 -501q-18 -29 -51 -29h-78l-67 530h-297q-24 0 -21 27zM479 768l21 -164h364q35 60 88 164h-473zM510 530l51 -419 q146 214 262 419h-313zM961 604h417l-18 164h-313q-52 -106 -86 -164zM1085 842h267l-49 475q-92 -223 -218 -475zM1454 768l19 -164h366q36 61 90 164h-475zM1481 530l45 -417q141 199 270 417h-315z" />
<glyph unicode="&#x20aa;" horiz-adv-x="1851" d="M145 35l273 1399h448q267 0 366 -144.5t42 -441.5l-66 -332h-49q-23 0 -30 7.5t-3 27.5l56 283q53 275 -32 396.5t-312 121.5h-346l-263 -1352h-49q-24 0 -31.5 7.5t-3.5 27.5zM690 586l64 321q33 11 63 11q29 0 23 -25l-58 -293q-53 -275 32 -396.5t312 -121.5h347 l264 1352h49q23 0 30 -7.5t3 -27.5l-271 -1399h-448q-267 0 -367 145t-43 441z" />
<glyph unicode="&#x20ab;" horiz-adv-x="1300" d="M127 253.5q-19 90.5 2 207.5q30 157 125.5 288.5t235 209t290.5 77.5q209 0 326 -137l59 303h-401q-24 0 -21 27q7 26 19 47h418l30 158h50q23 0 30 -7.5t2 -27.5l-22 -123h96q20 0 26 -9t1 -32l-7 -33h-131l-198 -1020q-13 -64 1 -91.5t54 -27.5h35q2 -10 -2 -34 q-3 -16 -28.5 -29.5t-59.5 -13.5q-58 0 -83.5 49.5t-6.5 150.5l12 64q-87 -124 -214.5 -199.5t-268.5 -75.5q-93 0 -169.5 32t-128.5 94t-71 152.5zM156 -266q7 29 18 47h782q20 0 26 -9t1 -32l-6 -33h-801q-23 0 -20 27zM219 459q-36 -190 54 -296t249 -106q128 0 256.5 85 t229.5 249l77 408q-119 155 -319 155q-185 0 -345.5 -142.5t-201.5 -352.5z" />
<glyph unicode="&#x20ac;" horiz-adv-x="1406" d="M51 578q7 26 19 47h112q3 59 19 139l4 24h-88q-26 0 -19 27q3 24 17 47h108q35 113 94.5 209.5t133.5 167t159.5 120.5t175.5 74.5t179 24.5q188 0 311.5 -84t165.5 -219q11 -31 -23 -49q-29 -18 -63 -21q-38 140 -145 215.5t-263 75.5q-128 0 -252.5 -58.5 t-228.5 -177.5t-154 -278h596q20 0 26 -9t1 -32l-6 -33h-635l-2 -18q-17 -87 -17 -145h588q20 0 26 -9t1 -32l-6 -33h-606q17 -230 168 -362t376 -132q204 0 367 88q11 -16 6 -43q-7 -39 -127.5 -83t-265.5 -44q-270 0 -440.5 156t-180.5 420h-110q-24 0 -21 27z" />
<glyph unicode="&#x2122;" horiz-adv-x="1468" d="M111 1384q0 -24 24 -24h193v-594q0 -20 9 -27.5t32 -7.5h37v629h223v33q0 23 -7.5 32t-27.5 9h-475q-8 -20 -8 -50zM670 766l69 651q46 27 68 27q23 0 37 -25l192 -385l199 400h57q23 0 32.5 -7.5t10.5 -27.5l72 -668h-47q-23 0 -31 7t-10 28l-55 563l-179 -364 q-12 -21 -43 -21h-45l-188 385l-59 -598h-39q-24 0 -33 7.5t-8 27.5z" />
<glyph unicode="&#x2202;" horiz-adv-x="1308" d="M156 420q0 112 39.5 205t107 154t157 94.5t189.5 33.5q133 0 254.5 -48.5t204.5 -127.5q-6 295 -146 470t-356 175q-112 0 -201 -59t-124 -176q-34 3 -60 16q-24 14 -24 31q0 11 6 26q44 113 152.5 178.5t254.5 65.5q125 0 232.5 -51t186.5 -145t124 -236.5t45 -316.5 v-27q0 -327 -154.5 -517t-416.5 -190q-206 0 -338.5 128.5t-132.5 316.5zM246 420q0 -153 110 -258t271 -105q206 0 339 157t142 425q-196 186 -444 186q-178 0 -298 -108t-120 -297z" />
<glyph unicode="&#x2206;" horiz-adv-x="1355" d="M88 35l571 1390q39 17 78 17q25 0 37 -27l582 -1415h-1239q-44 0 -29 35zM199 82h1032l-516 1270z" />
<glyph unicode="&#x220f;" horiz-adv-x="1439" d="M258 -193v1709h956q23 0 32 -7.5t9 -27.5v-1708h-49q-24 0 -32.5 7t-8.5 27v1627h-817v-1661h-49q-24 0 -32.5 7t-8.5 27z" />
<glyph unicode="&#x2211;" horiz-adv-x="1226" d="M135 1448q3 28 19 51q11 17 39 17h962q20 0 27.5 -9t7.5 -32v-41h-938l508 -738v-12q0 -14 -12 -35l-486 -794h893q20 0 27.5 -9t7.5 -32v-41h-1000q-20 0 -27 8.5t-7 32.5v30l508 836z" />
<glyph unicode="&#x221a;" horiz-adv-x="1159" d="M135 723q0 27 8 55h156q19 0 28.5 -5.5t16.5 -22.5l299 -644l354 1471h41q41 0 33 -37l-366 -1505q-4 -20 -16 -27.5t-34 -7.5h-53l-328 696h-114q-25 0 -25 27z" />
<glyph unicode="&#x221e;" horiz-adv-x="1648" d="M221 682q0 128 88 206.5t203 78.5q100 0 178.5 -48t169.5 -169q82 111 167 164t183 53q115 0 203 -78.5t88 -206.5t-88 -206.5t-203 -78.5q-102 0 -179.5 47.5t-168.5 169.5q-81 -112 -166 -164.5t-184 -52.5q-115 0 -203 78.5t-88 206.5zM303 682q0 -99 61.5 -156 t151.5 -57q80 0 146 43t151 170q-93 128 -155.5 170.5t-141.5 42.5q-90 0 -151.5 -57t-61.5 -156zM907 682q92 -128 156 -170.5t143 -42.5q90 0 151.5 57t61.5 156t-61.5 156t-151.5 57q-81 0 -146.5 -43.5t-152.5 -169.5z" />
<glyph unicode="&#x222b;" horiz-adv-x="1064" d="M86 -434q0 24 14 45q79 -35 197 -35q110 0 168.5 62t58.5 182v1362q0 159 82 248.5t225 89.5q58 0 111.5 -13t82 -29.5t28.5 -29.5q0 -22 -15 -45q-79 35 -196 35q-110 0 -169 -62t-59 -182v-1362q0 -159 -82 -248.5t-225 -89.5q-58 0 -111.5 13t-81.5 29.5t-28 29.5z " />
<glyph unicode="&#x2248;" horiz-adv-x="1372" d="M242 410q28 100 97 157.5t163 57.5q126 0 246 -103q66 -55 108 -75.5t90 -20.5q62 0 110 51t68 146l66 -15q24 -6 18 -30q-26 -110 -95.5 -172t-168.5 -62q-127 0 -246 102q-66 55 -108.5 76t-89.5 21q-62 0 -110 -51t-68 -146q-38 -4 -66 12q-23 13 -14 52zM242 799 q28 100 97 157.5t163 57.5q126 0 246 -103q66 -55 108 -75.5t90 -20.5q62 0 110 51t68 146l66 -15q24 -6 18 -30q-26 -110 -95.5 -172t-168.5 -62q-126 0 -246 103q-66 55 -108 75.5t-90 20.5q-62 0 -110 -51t-68 -146q-36 -4 -66 13q-23 13 -14 51z" />
<glyph unicode="&#x2260;" horiz-adv-x="1372" d="M233 446q0 24 9 56h342l184 356h-510q-25 0 -25 27q0 23 9 55h567l166 320h37q31 0 39 -10t-4 -33l-144 -277h275q20 0 27 -8.5t7 -32.5v-41h-350l-184 -356h500q20 0 27 -8.5t7 -32.5v-41h-577l-164 -320h-37q-31 0 -39 10t4 33l142 277h-283q-25 0 -25 26z" />
<glyph unicode="&#x2264;" horiz-adv-x="1306" d="M201 27q0 -27 24 -27h955v41q0 23 -7.5 32t-27.5 9h-936q-8 -28 -8 -55zM201 821v56l936 407q14 6 23 -0.5t9 -23.5q0 -37 -6 -58l-868 -371l831 -354q25 -10 34 -19.5t9 -31.5v-61l-927 403q-23 9 -32 20t-9 33z" />
<glyph unicode="&#x2265;" horiz-adv-x="1306" d="M201 0v41q0 23 7.5 32t27.5 9h935q9 -31 9 -55q0 -27 -25 -27h-954zM211 365v61q0 22 9 31.5t34 19.5l831 354l-868 371q-6 21 -6 58q0 17 9.5 23.5t23.5 0.5l936 -407v-56q0 -22 -9 -33t-32 -20z" />
<glyph unicode="&#x25ca;" horiz-adv-x="1056" d="M135 723l383 717q30 12 64 12q15 0 21.5 -4t14.5 -18l377 -707l-383 -700q-13 -23 -55 -23h-27zM236 723l329 -612l330 612l-330 616z" />
<glyph unicode="&#x25fc;" horiz-adv-x="1095" d="M0 0v1096h1096v-1096h-1096z" />
</font>
</defs>
</svg>
