<?xml version="1.0" standalone="no"?>
<!DOCTYPE svg PUBLIC "-//W3C//DTD SVG 1.1//EN" "http://www.w3.org/Graphics/SVG/1.1/DTD/svg11.dtd" >
<svg xmlns="http://www.w3.org/2000/svg">
<metadata></metadata>
<defs>
<font id="core_rhino_35_lightitalic" horiz-adv-x="1579" >
<font-face units-per-em="2048" ascent="1638" descent="-410" />
<missing-glyph horiz-adv-x="614" />
<glyph unicode="&#xfb01;" horiz-adv-x="1308" d="M182 1016q5 31 25 78h219l14 73q32 166 134.5 259.5t246.5 93.5q63 0 114 -13.5t75.5 -31.5t21.5 -35q-6 -35 -33 -66q-66 27 -174 27q-97 0 -161.5 -56.5t-85.5 -166.5l-17 -84h617q22 0 29 -12t1 -40l-159 -831q-24 -115 55 -115h37q0 -40 -2 -49q-5 -24 -38 -42.5 t-81 -18.5q-69 0 -100.5 53t-10.5 158l152 780h-522l-189 -977h-86q-28 0 -37.5 8.5t-5.5 30.5l182 938h-194q-36 0 -27 39zM1130 1423q6 38 34.5 62t64.5 24t57 -26t14 -68q-7 -39 -35 -62.5t-65 -23.5t-58 26.5t-12 67.5z" />
<glyph unicode="&#xfb02;" horiz-adv-x="1398" d="M182 1016q5 31 25 78h219l14 67q33 174 142.5 266.5t291.5 92.5q167 0 295 -66l7 37q58 14 96 14q41 0 35 -35l-236 -1208q-32 -162 105 -162q64 0 122 23q13 -21 9 -57q-5 -26 -60.5 -53t-126.5 -27q-113 0 -161 71t-21 209l211 1088q-109 47 -272 47q-138 0 -207.5 -55 t-91.5 -175l-17 -77h348q42 0 31 -52l-12 -65h-389l-189 -977h-86q-28 0 -37.5 8.5t-5.5 30.5l182 938h-194q-36 0 -27 39z" />
<glyph horiz-adv-x="682" />
<glyph horiz-adv-x="0" />
<glyph horiz-adv-x="0" />
<glyph unicode="&#xd;" horiz-adv-x="485" />
<glyph unicode=" "  horiz-adv-x="614" />
<glyph unicode="&#x09;" horiz-adv-x="614" />
<glyph unicode="&#xa0;" horiz-adv-x="614" />
<glyph unicode="!" horiz-adv-x="573" d="M127 74q9 40 38.5 64t67.5 24t59.5 -26.5t14.5 -69.5q-9 -41 -38.5 -66t-67.5 -25q-37 0 -59 27.5t-15 71.5zM227 399q47 352 127 762l52 269q58 14 108 14q26 0 35.5 -8t5.5 -27l-47 -248q-62 -315 -180 -803h-64q-24 0 -31.5 9t-5.5 32z" />
<glyph unicode="&#x22;" horiz-adv-x="874" d="M338 891l88 536q53 17 106 17q24 0 32 -9t5 -28l-123 -553h-67q-26 0 -35 8.5t-6 28.5zM600 891l88 536q53 17 107 17q24 0 31.5 -8.5t4.5 -28.5l-122 -553h-68q-26 0 -35 8.5t-6 28.5z" />
<glyph unicode="#" horiz-adv-x="1423" d="M100 418q5 21 29 82h227l158 432h-203q-35 0 -26 41q5 32 26 80h246l139 377q54 14 99 14q22 0 30 -8t4 -25v-8l-131 -350h379l137 377q54 14 101 14q42 0 33 -33v-8l-131 -350h182q22 0 28.5 -10.5t2.5 -38.5l-15 -72h-241l-158 -432h201q22 0 28 -11.5t0 -37.5l-14 -72 h-260l-135 -379h-88q-29 0 -37.5 8.5t0.5 36.5l118 334h-376l-136 -379h-88q-29 0 -37 8.5t1 36.5l118 334h-184q-33 0 -27 39zM498 500h379l157 432h-379z" />
<glyph unicode="$" horiz-adv-x="1214" d="M135 121q7 37 33 63q157 -88 362 -88q173 0 276 68.5t124 179.5q22 108 -49.5 180t-249.5 125q-212 62 -305 165.5t-62 260.5q29 154 156.5 257t308.5 122l37 195q47 14 86 14q23 0 31.5 -8.5t5.5 -26.5l-33 -174q135 -13 227.5 -78t126.5 -157q10 -29 7 -45 q-3 -21 -35 -37q-44 -21 -99 -25q-26 107 -107.5 165t-207.5 58q-139 0 -239 -69.5t-123 -184.5q-22 -109 46.5 -180t252.5 -131q218 -72 307 -168t59 -252q-31 -154 -157 -253.5t-314 -116.5l-41 -209h-78q-27 0 -36.5 9.5t-4.5 31.5l31 165q-147 7 -245.5 53t-90.5 91z " />
<glyph unicode="%" horiz-adv-x="1771" d="M246 1090q32 162 144.5 261t254.5 99t217 -99.5t43 -260.5q-32 -163 -144.5 -262t-254.5 -99t-217 99t-43 262zM373 1098q-24 -122 20 -191t142 -69q88 0 153.5 65.5t87.5 177.5q24 122 -19 190t-141 68q-89 0 -155 -65t-88 -176zM463 29q4 12 8 18l852 1387h59 q22 0 30.5 -8t6.5 -21q-5 -14 -8 -19l-850 -1386h-59q-22 0 -31.5 8t-7.5 21zM977 344q32 162 144.5 261.5t254.5 99.5t217 -100t43 -261q-32 -163 -144.5 -261.5t-254.5 -98.5t-217 98.5t-43 261.5zM1106 352q-24 -121 19.5 -190.5t140.5 -69.5q88 0 153.5 66t87.5 178 q25 122 -18 190t-141 68q-88 0 -154 -65t-88 -177z" />
<glyph unicode="&#x26;" horiz-adv-x="1482" d="M96 336q25 127 121 237t248 179q-63 108 -81 192.5t1 169.5q29 147 155.5 245.5t282.5 98.5q149 0 232 -89t57 -226q-52 -262 -463 -420q193 -266 340 -408q114 100 211.5 231t153.5 273q44 0 65 -18q14 -12 6 -58q-20 -104 -121 -247t-231 -258q78 -68 137 -105 q66 -41 115 -41h37q4 -16 0 -49q-6 -27 -38.5 -47.5t-74.5 -20.5q-60 0 -127 41q-85 51 -168 131q-251 -172 -505 -172q-186 0 -285 99.5t-68 261.5zM233 340q-22 -112 47.5 -178t204.5 -66q192 0 387 131q-195 195 -313 375q-31 44 -45 68q-117 -57 -189.5 -144.5 t-91.5 -185.5zM524 1118q-15 -75 0.5 -146t71.5 -167q338 137 375 328q18 96 -32 152t-146 56q-95 0 -173 -63t-96 -160z" />
<glyph unicode="'" horiz-adv-x="565" d="M315 891l88 536q53 17 107 17q24 0 32 -9t5 -28l-123 -553h-68q-26 0 -35 8.5t-6 28.5z" />
<glyph unicode="(" horiz-adv-x="778" d="M241 282q-8 164 31 353q53 276 177 497t288 363q71 63 103 47q21 -9 28 -51q-354 -323 -458 -856q-104 -534 127 -856q-23 -41 -50 -51q-39 -16 -84 47q-72 93 -113 218t-49 289z" />
<glyph unicode=")" horiz-adv-x="778" d="M-8 -221q356 327 459 856t-127 856q20 41 49 51q38 15 82 -47q71 -93 112 -218t50 -289t-29 -353q-55 -276 -179 -497t-288 -363q-70 -62 -101 -47q-25 9 -28 51z" />
<glyph unicode="*" horiz-adv-x="1259" d="M176 735q0 46 17 99q13 41 47 32l370 -139l-18 412q46 16 98 16q43 0 43 -35l-16 -395l389 147q30 -42 45 -88q14 -45 -18 -53l-383 -106l262 -326q-30 -43 -70 -68q-37 -24 -57 2l-223 332l-230 -344q-42 15 -88 45q-35 25 -14 53l243 308z" />
<glyph unicode="+" horiz-adv-x="1349" d="M221 659q0 45 10 78h412v422q46 17 92 17q43 0 43 -35v-404h381q23 0 32 -10.5t9 -38.5v-67h-422v-437h-86q-27 0 -38 8.5t-11 30.5v398h-389q-33 0 -33 38z" />
<glyph unicode="," horiz-adv-x="673" d="M86 -221q114 92 143 198q-29 6 -44.5 32.5t-8.5 64.5q9 39 39.5 64.5t67.5 25.5q39 0 60 -27.5t11 -77.5q-26 -144 -143 -254q-36 -33 -67 -50t-40 -13q-18 11 -18 37z" />
<glyph unicode="-" horiz-adv-x="978" d="M242 659q6 27 28 82h533q23 0 30 -11.5t1 -39.5l-15 -72h-551q-33 0 -26 41z" />
<glyph unicode="." horiz-adv-x="673" d="M176 74q9 39 39.5 64.5t67.5 25.5q38 0 60 -27t13 -71q-9 -41 -38 -66t-66 -25q-38 0 -60.5 27.5t-15.5 71.5z" />
<glyph unicode="/" horiz-adv-x="968" d="M-129 -199q0 8 10 21l1186 1720h86q20 0 29 -7t6 -19q0 -8 -10 -21l-1188 -1720h-84q-20 0 -29 7t-6 19z" />
<glyph unicode="0" horiz-adv-x="1345" d="M193 717q67 350 248 545.5t433 195.5q250 0 355.5 -195.5t38.5 -545.5q-69 -350 -250 -546t-432 -196q-252 0 -357 196t-36 546zM336 729q-57 -295 17 -463t268 -168q184 0 315.5 160t187.5 447q57 295 -17.5 462.5t-268.5 167.5q-183 0 -314.5 -160t-187.5 -446z" />
<glyph unicode="1" horiz-adv-x="1345" d="M401 1122q3 20 31 35l486 277h77q26 0 35 -9.5t6 -31.5l-270 -1393h-90q-28 0 -37.5 8.5t-5.5 30.5l241 1239l-417 -242q-30 18 -49 54q-9 18 -7 32z" />
<glyph unicode="2" horiz-adv-x="1345" d="M143 98q876 433 963 881q32 164 -43.5 260t-235.5 96q-124 0 -228.5 -72t-176.5 -206q-60 4 -88 28q-24 18 -21 39q4 19 17 35q94 141 227.5 220t298.5 79q216 0 325 -132.5t66 -348.5q-89 -459 -825 -856h629q22 0 28 -10.5t0 -38.5l-12 -72h-864q-38 0 -49 25 q-14 29 -11 73z" />
<glyph unicode="3" horiz-adv-x="1345" d="M119 125q7 33 33 63q156 -90 376 -90q181 0 308.5 78.5t154.5 216.5q29 153 -66.5 237t-314.5 101q-35 3 -49 27q-14 27 -10 76l526 479h-665q-34 0 -25 39q6 42 27 82h786q36 0 47 -25q16 -36 13 -74l-547 -501q112 -16 195.5 -49t141 -85.5t78.5 -129t2 -171.5 q-25 -130 -113.5 -227t-217.5 -147t-281 -50q-71 0 -136.5 10.5t-113.5 27t-83.5 36.5t-52 40t-13.5 36z" />
<glyph unicode="4" horiz-adv-x="1345" d="M119 395q68 141 176 295.5t236.5 296.5t278 262t288.5 185q51 14 98 14q32 0 42.5 -10.5t4.5 -38.5l-190 -981h153q23 0 30 -11.5t1 -37.5l-12 -72h-195l-57 -297h-90q-27 0 -37 9t-6 30l51 258h-713q-38 0 -49 25q-13 34 -10 73zM279 418h634l172 885 q-228 -129 -457.5 -381.5t-348.5 -503.5z" />
<glyph unicode="5" horiz-adv-x="1345" d="M123 125q7 33 33 63q150 -90 370 -90q196 0 323.5 91t158.5 249q31 157 -61 248.5t-288 91.5q-117 0 -247 -28q-35 -7 -47 -7q-14 0 -31 17l-19 16l220 658h714q22 0 29 -11t2 -39l-14 -71h-643l-148 -449q115 35 238 35q242 0 358.5 -123t75.5 -338 q-39 -204 -208 -333.5t-419 -129.5q-71 0 -136.5 10.5t-113 27t-82.5 36.5t-51.5 40t-13.5 36z" />
<glyph unicode="6" horiz-adv-x="1345" d="M203 676l4 29q68 349 273 551t468 202q148 0 244.5 -63.5t124.5 -177.5q5 -19 2 -43q-6 -22 -37 -41q-39 -20 -100 -27q-7 114 -75.5 171.5t-176.5 57.5q-196 0 -353.5 -152t-220.5 -427q93 69 212.5 110t242.5 41q101 0 184.5 -33.5t139.5 -94t78 -151.5t1 -200 q-37 -194 -196.5 -323.5t-372.5 -129.5q-263 0 -384.5 188.5t-57.5 512.5zM332 627q-39 -245 56 -387t284 -142q144 0 260 92.5t143 233.5q33 167 -57.5 263.5t-253.5 96.5q-232 0 -432 -157z" />
<glyph unicode="7" horiz-adv-x="1345" d="M356 1352q6 42 27 82h895q36 0 47 -25q15 -34 12 -72q-502 -601 -819 -1337h-90q-57 0 -37 45q315 692 778 1268h-788q-34 0 -25 39z" />
<glyph unicode="8" horiz-adv-x="1345" d="M129 367q27 132 129 230.5t277 156.5q-133 63 -182 143t-27 193q31 158 181 263t357 105q211 0 318.5 -106t77.5 -262q-21 -107 -107 -199t-213 -154q153 -68 214 -156.5t38 -209.5q-34 -173 -200.5 -284.5t-407.5 -111.5q-234 0 -361.5 109.5t-93.5 282.5zM268 365 q-24 -121 76 -195t264 -74q170 0 294.5 77t146.5 194q23 118 -62.5 192t-324.5 146q-185 -61 -278 -145t-116 -195zM465 1094q-21 -106 56 -169.5t304 -142.5q256 126 293 310q22 108 -57 175.5t-221 67.5q-141 0 -247 -67.5t-128 -173.5z" />
<glyph unicode="9" horiz-adv-x="1345" d="M176 119q6 35 33 65q127 -86 309 -86q99 0 189.5 34t171.5 102t144 182t97 262q-92 -70 -211.5 -111t-242.5 -41q-101 0 -185 33.5t-140 94.5t-78 152t-1 200q37 194 196 323t373 129q264 0 385.5 -188t57.5 -512l-4 -29q-36 -184 -110.5 -329t-175 -237t-220.5 -140 t-252 -48q-92 0 -174 25t-124.5 58.5t-37.5 60.5zM401 1010q-33 -167 58 -264t254 -97q227 0 432 158q38 245 -56.5 386.5t-283.5 141.5q-144 0 -260.5 -92t-143.5 -233z" />
<glyph unicode=":" horiz-adv-x="673" d="M176 74q9 39 39.5 64.5t67.5 25.5q38 0 60 -27t13 -71q-9 -41 -38 -66t-66 -25q-38 0 -60.5 27.5t-15.5 71.5zM362 1028q7 40 38 65t69 25t59.5 -27t12.5 -71q-7 -39 -36.5 -64.5t-66.5 -25.5q-39 0 -62 27t-14 71z" />
<glyph unicode=";" horiz-adv-x="673" d="M86 -221q114 92 143 198q-29 6 -44.5 32.5t-8.5 64.5q9 39 39.5 64.5t67.5 25.5q39 0 60 -27.5t11 -77.5q-26 -144 -143 -254q-36 -33 -67 -50t-40 -13q-18 11 -18 37zM362 1028q7 40 38 65t69 25t59.5 -27t12.5 -71q-7 -39 -36.5 -64.5t-66.5 -25.5q-39 0 -62 27t-14 71 z" />
<glyph unicode="&#x3c;" horiz-adv-x="1349" d="M221 655v90l928 400q16 4 20 4q31 0 31 -45q0 -47 -8 -78l-821 -346l786 -332q23 -10 33 -22t10 -37v-96l-938 403q-23 9 -32 21.5t-9 37.5z" />
<glyph unicode="=" horiz-adv-x="1349" d="M221 438q0 43 10 76h928q23 0 32 -10.5t9 -38.5v-68h-946q-33 0 -33 41zM221 883q0 40 10 78h928q23 0 32 -11.5t9 -38.5v-67h-946q-33 0 -33 39z" />
<glyph unicode="&#x3e;" horiz-adv-x="1349" d="M221 193v96q0 25 10 37t33 22l789 332l-824 346q-8 31 -8 78q0 45 31 45q4 0 20 -4l928 -400v-90q0 -45 -41 -59z" />
<glyph unicode="?" horiz-adv-x="1136" d="M252 1122q4 22 16 37q186 299 506 299q188 0 285 -109t63 -282q-24 -119 -96 -211.5t-213 -191.5q-108 -77 -148.5 -125.5t-52.5 -114.5l-12 -66h-90q-27 0 -36.5 9.5t-6.5 31.5l8 33q15 89 71.5 160t186.5 160q117 80 174 152t76 163q23 121 -44 194.5t-191 73.5 q-120 0 -222.5 -71t-165.5 -207q-55 3 -90 28q-22 12 -18 37zM383 74q9 40 38.5 64t67.5 24q37 0 59 -26.5t15 -69.5q-9 -41 -38.5 -66t-67.5 -25q-37 0 -59 27.5t-15 71.5z" />
<glyph unicode="@" horiz-adv-x="2091" d="M172 320.5q-10 115.5 16 242.5q37 189 140 356t245 285t317.5 186t354.5 68q189 0 341 -65t246.5 -177.5t131 -268.5t2.5 -333q-43 -220 -183 -369t-310 -149q-96 0 -154.5 51t-61.5 140q-85 -84 -191 -132.5t-212 -48.5q-143 0 -219.5 104.5t-44.5 272.5 q24 122 90.5 225.5t155 170.5t190.5 104t201 37q117 0 202.5 -47.5t131.5 -128.5l-166 -418q-40 -100 -12.5 -163.5t114.5 -63.5q113 0 216.5 115t137.5 296q34 159 1.5 295.5t-112.5 236.5t-213.5 157t-301.5 57q-206 0 -401 -101t-336 -284t-185 -408 q-23 -110 -14.5 -211.5t39.5 -189.5t89 -160t133.5 -123.5t174 -79.5t209.5 -28q288 0 526 161q26 -19 23 -49q-1 -14 -27.5 -39t-79 -55.5t-119 -57.5t-159.5 -45t-189 -18q-125 0 -236.5 31t-198 88t-153 138t-103 180.5t-46.5 215zM723 489q-25 -122 23.5 -194t152.5 -72 q189 0 350 164l168 426q-61 94 -217 94q-99 0 -199.5 -51.5t-177.5 -149.5t-100 -217z" />
<glyph unicode="A" horiz-adv-x="1359" d="M-23 29q3 9 9 18l796 1370q66 27 127 27q27 0 38 -10t16 -35l270 -1399h-100q-28 0 -40 8t-14 27l-63 356h-686l-224 -391h-88q-22 0 -33 8q-9 6 -9 16q0 2 1 5zM395 512h598l-145 791z" />
<glyph unicode="B" horiz-adv-x="1333" d="M184 328l215 1106h492q112 0 196.5 -30t132 -82t65.5 -120q10 -37 10 -76q0 -33 -7 -69q-23 -117 -97.5 -199.5t-191.5 -122.5q121 -33 177 -122q38 -61 38 -141q0 -37 -8 -79q-35 -177 -183 -285t-386 -108h-236q-141 0 -196 76q-34 47 -34 132q0 53 13 120zM326 168 q25 -48 112 -47h226q172 0 274 72t127 202q6 34 6 63q0 90 -59 142q-79 68 -264 68h-359l-63 -326q-12 -63 -12 -106.5t12 -67.5zM412 788h344q169 0 266.5 68t122.5 195q6 28 6 54q-1 81 -59 135q-76 71 -234 71h-344z" />
<glyph unicode="C" horiz-adv-x="1406" d="M188 436q-14 67 -14 141q0 87 19 185q31 162 110 296t184.5 220t229.5 133t250 47q189 0 313.5 -82.5t165.5 -218.5q4 -10 4 -19q0 -6 -2 -12q-2 -17 -31 -36q-53 -29 -102 -35q-32 134 -131 207t-248 73q-96 0 -191 -38t-178 -108t-146 -179.5t-89 -241.5 q-16 -85 -16 -160q0 -65 12 -123q26 -125 96.5 -211.5t177.5 -132t238 -45.5q194 0 358 84q7 -16 7 -36q0 -14 -3 -29q-8 -45 -131 -92.5t-272 -47.5q-160 0 -289 55.5t-210.5 157.5t-111.5 248z" />
<glyph unicode="D" horiz-adv-x="1480" d="M186 330l215 1104h459q148 0 264.5 -49.5t189.5 -142.5q74 -94 101 -226q12 -60 12 -126q0 -81 -18 -173q-43 -218 -164.5 -382t-293 -249.5t-369.5 -85.5h-181q-143 0 -197 76q-33 45 -32 128q0 55 14 126zM328 168q24 -47 112 -47h156q114 0 221 38.5t197.5 111.5 t158 188t95.5 258q15 81 15 151q0 58 -10 108q-22 112 -85 186.5t-155 112.5t-206 38h-311l-188 -969q-12 -64 -12 -108t12 -68z" />
<glyph unicode="E" horiz-adv-x="1167" d="M184 328l215 1106h799q26 0 26 -29q0 -6 -1 -12q-7 -33 -27 -82h-682l-106 -543h540q23 0 30.5 -11t2.5 -38l-14 -72h-582l-59 -305q-11 -57 -11 -98q1 -48 15 -74q28 -50 108 -49h512q23 0 30 -11.5t1 -39.5l-12 -70h-568q-143 0 -198 76q-33 46 -33 128q0 54 14 124z " />
<glyph unicode="F" horiz-adv-x="1120" d="M131 39l272 1395h799q26 0 26 -29q0 -6 -1 -12q-7 -33 -27 -82h-682l-106 -547h540q23 0 30 -10.5t1 -38.5l-12 -72h-582l-125 -643h-90q-27 0 -37 9q-7 6 -7 19q0 5 1 11z" />
<glyph unicode="G" horiz-adv-x="1533" d="M188 438q-14 67 -14 141q0 87 19 183q31 161 110.5 294.5t186.5 220t233 134t256 47.5q189 0 318 -81t176 -216q4 -10 4 -19q0 -6 -2 -12q-5 -17 -33 -36q-49 -29 -103 -35q-32 135 -134 205.5t-251 70.5q-100 0 -199.5 -38.5t-184 -109t-148.5 -179.5t-90 -240 q-16 -85 -16 -160q0 -65 12 -122q26 -125 94.5 -211.5t172.5 -132.5t230 -46q163 0 258 56.5t113 152.5l55 277h-323q-33 0 -27 39q9 39 27 81h444q22 0 29.5 -11t3.5 -38l-68 -344q-31 -156 -174.5 -245t-365.5 -89q-159 0 -287.5 56t-209.5 158.5t-112 248.5z" />
<glyph unicode="H" horiz-adv-x="1478" d="M131 39l270 1388q53 17 101 17q41 0 35 -35l-123 -631h784l129 656h90q26 0 35 -10q7 -7 7 -21q0 -5 -1 -10l-270 -1393h-90q-28 0 -37.5 8.5t-5.5 30.5l121 618h-785l-127 -657h-90q-27 0 -37 9q-7 6 -7 19q0 5 1 11z" />
<glyph unicode="I" horiz-adv-x="579" d="M143 39l271 1388q53 17 100 17q36 0 36 -27q0 -4 -1 -8l-273 -1409h-90q-28 0 -38 8q-7 6 -6 19q0 5 1 12z" />
<glyph unicode="J" horiz-adv-x="841" d="M-2 135q75 -37 197 -37q116 0 193 69t104 206l204 1057q54 14 101 14q23 0 31 -8q5 -5 5 -13q0 -5 -2 -12l-200 -1038q-37 -189 -149.5 -293.5t-291.5 -104.5q-57 0 -111.5 14.5t-86.5 36.5q-27 20 -27 39q0 32 33 70z" />
<glyph unicode="K" horiz-adv-x="1347" d="M131 39l270 1388q53 17 101 17q41 0 35 -35l-142 -729q233 136 473.5 334.5t440.5 429.5q51 -17 71 -35q16 -14 16 -32q0 -4 -1 -9q-4 -24 -23 -43q-227 -272 -581 -530q76 -222 164 -399.5t165 -254.5q45 -45 88 -45h33q0 -37 -2 -53q-6 -26 -40.5 -47t-78.5 -21 q-62 0 -123 64q-159 167 -325 676q-158 -111 -307 -191l-101 -524h-90q-27 0 -37 9q-7 6 -7 19q0 5 1 11z" />
<glyph unicode="L" horiz-adv-x="1116" d="M184 328l213 1099q53 17 101 17q22 0 29.5 -8.5t4.5 -26.5l-206 -1067q-11 -57 -11 -98q1 -48 15 -74q28 -50 108 -49h520q22 1 28 -11q3 -6 4 -17q0 -10 -3 -23l-12 -70h-574q-143 0 -198 76q-33 46 -33 128q0 54 14 124z" />
<glyph unicode="M" horiz-adv-x="1837" d="M76 41l416 1362q67 41 120 41q17 0 25.5 -6t15.5 -25l297 -811l627 832h100q26 0 34.5 -9t8.5 -32l-116 -1393h-99q-29 0 -39.5 9t-7.5 32l109 1188l-563 -748q-20 -26 -62 -26h-82l-282 774l-367 -1229h-92q-29 0 -39 9q-6 6 -6 18q0 6 2 14z" />
<glyph unicode="N" horiz-adv-x="1470" d="M133 41l264 1358q30 20 64 32.5t55 12.5q29 0 41 -27l526 -1194l236 1211h90q29 0 37 -9q6 -6 5 -19q0 -6 -1 -13l-264 -1358q-68 -45 -117 -45q-29 0 -43 26l-526 1194l-234 -1210h-90q-28 0 -38 9q-7 6 -6 20q0 5 1 12z" />
<glyph unicode="O" d="M174 393q-10 58 -10 123q0 93 20 201q34 179 115 322.5t190 233.5t237.5 137.5t264.5 47.5q135 0 244 -46.5t183 -139.5q76 -94 100 -232q10 -59 10 -126q0 -91 -19 -197q-35 -179 -116 -322.5t-190.5 -234t-237.5 -138t-263 -47.5q-136 0 -245.5 46.5t-184 139.5 t-98.5 232zM319 455q18 -119 77 -198.5t146.5 -119t198.5 -39.5q79 0 156.5 22.5t151.5 71t135 118t108 170t70 220.5q18 99 18 183q0 50 -6 95q-18 119 -77 198.5t-147.5 119t-199.5 39.5q-100 0 -196 -37t-181 -108.5t-149.5 -189.5t-93.5 -267q-18 -98 -18 -181 q0 -51 7 -97z" />
<glyph unicode="P" horiz-adv-x="1296" d="M133 41l273 1393h425q254 0 378 -138q90 -100 90 -256q0 -59 -13 -127q-46 -241 -226 -376.5t-415 -135.5q-174 0 -293 45l-86 -446h-90q-28 0 -38 9q-7 6 -6 20q0 5 1 12zM373 557q112 -33 280 -33q124 0 226.5 45t173.5 135t96 214q10 52 10 98q0 121 -69 195 q-95 102 -287 102h-283z" />
<glyph unicode="Q" d="M174 393q-10 58 -10 123q0 93 20 201q34 179 115 322.5t190 233.5t237.5 137.5t264.5 47.5q135 0 244 -46.5t183.5 -139.5t99.5 -232q10 -59 10 -126q0 -91 -19 -197q-48 -238 -170.5 -406.5t-291.5 -253.5q47 -121 102 -173t121 -52h35q2 -14 -2 -51q-5 -25 -37.5 -44.5 t-83.5 -19.5q-170 0 -254 293q-110 -35 -226 -35q-136 0 -245.5 46.5t-184 139.5t-98.5 232zM320 455q18 -119 77.5 -198.5t147 -119t196.5 -39.5q79 0 156.5 22.5t151.5 71t135 118t108 170t70 220.5q18 99 18 183q0 50 -6 95q-18 119 -77 198.5t-147.5 119t-199.5 39.5 q-100 0 -196 -37t-181 -108.5t-149.5 -189.5t-93.5 -267q-18 -97 -18 -179q0 -53 8 -99z" />
<glyph unicode="R" horiz-adv-x="1339" d="M131 39l272 1395h406q253 0 379 -132q93 -98 93 -251q0 -53 -11 -113q-37 -185 -157 -305.5t-290 -165.5q106 -243 217 -336q45 -39 90 -39h29q4 -16 0 -49q-6 -27 -37.5 -47.5t-74.5 -20.5q-54 0 -109 43q-72 60 -138 174.5t-114 251.5q-18 -2 -51 -2q-157 0 -279 41 l-92 -483h-90q-27 0 -37 9q-7 6 -7 19q0 5 1 11zM379 596q109 -33 258 -33q190 0 322.5 98t168.5 277q9 48 9 89q0 119 -71 189q-96 96 -288 95h-260z" />
<glyph unicode="S" horiz-adv-x="1214" d="M135 121q7 37 33 63q157 -88 362 -88q173 0 276 68.5t124 179.5q5 25 5 49q-1 76 -55 131q-72 72 -249 125q-212 61 -305 165q-70 78 -70 186q0 36 8 75q32 168 180.5 275.5t348.5 107.5q161 0 270 -68t147 -171q8 -22 8 -37q0 -4 -1 -8q-3 -21 -35 -37q-44 -21 -99 -25 q-26 107 -107.5 165t-207.5 58q-139 0 -239 -69.5t-123 -184.5q-5 -26 -6 -51q0 -76 52 -129q68 -71 253 -131q218 -72 307 -168q67 -72 66 -177q0 -36 -7 -75q-34 -170 -183.5 -272.5t-369.5 -102.5q-109 0 -202 24q-93 23 -140 57q-42 30 -42 58q0 3 1 7z" />
<glyph unicode="T" horiz-adv-x="1243" d="M272 1352q6 37 27 82h1008q21 0 28 -12q4 -7 4 -19q0 -9 -2 -21l-14 -71h-461l-254 -1311h-90q-27 0 -37 9t-6 30l248 1272h-426q-27 0 -27 26q0 6 2 15z" />
<glyph unicode="U" horiz-adv-x="1472" d="M229 598l162 829q53 17 101 17q40 0 34 -35l-159 -821q-15 -76 -15 -141q0 -127 56 -217q84 -134 264.5 -134t316 134.5t178.5 357.5l166 846h90q26 0 35 -10q7 -7 7 -21q0 -5 -1 -10l-155 -795q-55 -287 -234.5 -455t-427.5 -168q-249 0 -361 168q-76 113 -75 279 q0 82 18 176z" />
<glyph unicode="V" horiz-adv-x="1452" d="M281 1399q68 43 116 43q16 0 23 -7.5t12 -27.5l240 -1237q195 253 386.5 583.5t346.5 680.5h94q40 0 40 -24q0 -8 -5 -19q-332 -751 -797 -1354q-18 -22 -32 -29.5t-39 -7.5h-115z" />
<glyph unicode="W" horiz-adv-x="2269" d="M293 1399q65 43 115 43q18 0 26.5 -7.5t9.5 -27.5l138 -1241q354 524 653 1268h129q28 0 41 -9t16 -32l123 -1225q390 572 662 1266h96q38 0 38 -23q0 -8 -5 -20q-276 -701 -721 -1354q-27 -37 -72 -37h-121l-123 1257q-274 -661 -651 -1220q-25 -37 -72 -37h-116z" />
<glyph unicode="X" horiz-adv-x="1392" d="M33 27q5 17 10 24q249 397 627 688l-353 623q69 78 111 78q26 0 37 -23l330 -583q327 267 530 600h98q19 0 29 -8q7 -6 7 -16q0 -3 -1 -7q-3 -9 -10 -23q-221 -354 -596 -653l375 -659q-69 -78 -111 -78q-26 0 -37 22l-352 621q-330 -256 -559 -633h-98q-20 0 -30 7 q-7 5 -8 14q0 3 1 6z" />
<glyph unicode="Y" horiz-adv-x="1343" d="M266 1378q74 62 119 62q27 0 33 -21l289 -796q373 384 612 811h90q22 0 33 -8q9 -6 9 -16q0 -2 -1 -5q-2 -12 -12 -31q-275 -475 -695 -889l-94 -485h-90q-28 0 -37.5 8.5t-5.5 30.5l86 440z" />
<glyph unicode="Z" horiz-adv-x="1241" d="M63 98l1041 1213h-739q-36 0 -27 41q5 31 29 82h860q36 0 47 -25q11 -22 11 -57q0 -8 -1 -17l-1040 -1214h780q22 0 29.5 -12t1.5 -39l-13 -70h-919q-38 0 -49 25q-12 24 -12 58q0 7 1 15z" />
<glyph unicode="[" horiz-adv-x="854" d="M213 96l279 1440h485q33 0 24 -41q-5 -33 -24 -76h-373l-256 -1315q-27 -144 0.5 -199t114.5 -55h172q22 0 29.5 -11t3.5 -38l-15 -67h-223q-153 0 -204 84t-13 278z" />
<glyph unicode="\" horiz-adv-x="968" d="M201 1516q7 26 47 26h86l520 -1720q2 -8 2 -21q-6 -26 -47 -26h-86l-520 1720q-2 8 -2 21z" />
<glyph unicode="]" horiz-adv-x="854" d="M-72 -266l15 67q4 27 15.5 38t33.5 11h172q91 0 138.5 54t74.5 200l256 1315h-373q-3 33 4 76q9 41 41 41h436q26 0 36 -9.5t5 -31.5l-270 -1399q-38 -194 -122 -278t-238 -84h-224z" />
<glyph unicode="^" horiz-adv-x="1269" d="M211 803q0 13 10 28l375 603h96q25 0 41 -10.5t35 -39.5l365 -585l-66 -41q-17 -10 -31 -10q-20 0 -37 28l-333 535l-351 -563q-50 3 -84 24q-20 13 -20 31z" />
<glyph unicode="_" horiz-adv-x="1024" d="M-137 -289q6 31 20 62h973q23 0 30 -11.5t1 -37.5l-10 -54h-990q-30 0 -24 41z" />
<glyph unicode="`" horiz-adv-x="845" d="M430 1405q23 37 55 63q18 15 37 15q18 0 31 -19l209 -245l-51 -45q-16 -13 -27 -13q-14 0 -27 13z" />
<glyph unicode="a" horiz-adv-x="1218" d="M94 319q32 166 166.5 260.5t329.5 94.5q184 0 319 -74l23 113q7 38 7 71q0 92 -56 144q-77 72 -238 71q-181 0 -319 -69q-17 23 -9 61q7 41 123 84t258 43q208 0 306 -106q71 -76 70 -201q0 -49 -11 -106l-94 -494q-6 -27 -5 -47q0 -68 60 -68h37q0 -40 -2 -49 q-5 -23 -37 -42t-74 -19q-64 0 -96 49q-25 37 -25 98q0 19 2 39q-77 -92 -188 -144.5t-240 -52.5q-169 -1 -253 95q-62 71 -61 174q0 36 7 75zM229 324q-5 -27 -5 -51q0 -72 46 -119q62 -62 172 -62q111 0 219.5 56.5t194.5 170.5l33 175q-57 28 -142.5 44.5t-166.5 16.5 q-143 0 -236 -62t-115 -169z" />
<glyph unicode="b" horiz-adv-x="1302" d="M190 473l199 1018q43 14 94 14q22 0 30 -7.5t5 -24.5l-106 -553q93 93 210.5 145.5t239.5 52.5q198 0 300 -143q70 -97 70 -241q0 -67 -15 -144q-33 -168 -130 -309t-237.5 -223.5t-292.5 -82.5q-214 1 -312 135q-68 93 -68 232q0 61 13 131zM318 304q12 -72 50 -118.5 t92 -69t122 -22.5q109 0 214.5 64.5t182 178.5t102.5 251q13 67 13 123q0 31 -4 58q-11 77 -49 129t-96 77.5t-132 25.5q-104 0 -220.5 -59.5t-207.5 -161.5l-61 -307q-10 -58 -10 -107q-1 -33 4 -62z" />
<glyph unicode="c" horiz-adv-x="1128" d="M144 324q-13 56 -13 120q0 65 14 138q32 163 126 286.5t222.5 186.5t272.5 63q141 0 236 -63.5t124 -159.5q4 -12 4 -31q-6 -25 -32 -39q-42 -23 -99 -30q-18 94 -83 149t-179 55q-161 0 -289.5 -113t-164.5 -302q-11 -62 -12 -117q-1 -53 11 -99q22 -92 79 -153t133 -92 t163 -31q154 0 283 66q14 -25 10 -62q-8 -40 -110.5 -80.5t-227.5 -40.5q-112 0 -208 40.5t-165 118t-95 190.5z" />
<glyph unicode="d" horiz-adv-x="1331" d="M129 502q34 172 132 313t238 222t292 81q201 0 305 -119l96 496h86q26 1 36 -9q8 -7 8 -23q0 -4 -1 -9l-242 -1243q-6 -27 -6 -47q0 -68 62 -68h36q0 -40 -2 -49q-5 -23 -36.5 -42t-73.5 -19q-67 0 -101 58q-22 37 -23 93q0 30 7 66q-78 -103 -196.5 -165.5t-253.5 -62.5 q-204 0 -306 142q-71 98 -71 244q0 66 14 141zM266 504q-13 -65 -12 -120q0 -110 50 -182q76 -110 235 -110q117 0 235 79.5t207 229.5l90 465q-109 133 -291 133q-179 0 -326 -142t-188 -353z" />
<glyph unicode="e" horiz-adv-x="1175" d="M141 553q33 169 132 299.5t230.5 198t272.5 67.5q188 0 286 -114q72 -84 73 -202q0 -41 -9 -87q-16 -84 -55 -150q-26 -44 -55.5 -60t-79.5 -16h-670q-3 -29 -3 -56q0 -61 15 -113q22 -76 69 -124.5t113 -75t146 -26.5q157 0 289 66q15 -30 8 -62q-8 -40 -108.5 -81.5 t-229.5 -41.5q-233 -1 -353 161q-86 115 -85 277q0 66 14 140zM289 606h663q29 47 41 105q7 35 7 66q0 85 -50 143q-68 79 -207 79q-149 0 -278.5 -108t-175.5 -285z" />
<glyph unicode="f" horiz-adv-x="866" d="M182 1016q5 31 25 78h219l14 73q33 169 136.5 261t252.5 92q62 0 115.5 -15t80.5 -35q24 -19 24 -35q0 -29 -33 -67q-68 33 -185 33q-208 0 -253 -223l-17 -84h348q33 0 33 -33q0 -8 -2 -19l-12 -65h-389l-189 -977h-86q-28 0 -37.5 8.5t-5.5 30.5l182 938h-194 q-29 0 -29 25q0 6 2 14z" />
<glyph unicode="g" horiz-adv-x="1306" d="M27 -236q34 174 237 275q-93 63 -130 182q-20 64 -20 140q0 66 15 141q34 172 132 313t238 222t292 81q199 0 307 -117l16 93h86q26 0 36 -10q7 -6 7 -18q0 -6 -2 -13l-199 -1028q-21 -108 -80 -204.5t-148 -169.5t-212.5 -116t-263.5 -43q-162 0 -248 74q-68 59 -68 148 q0 24 5 50zM164 -225q-3 -15 -3 -29q0 -54 42 -90q53 -47 157 -47q206 0 358.5 114.5t186.5 294.5l37 185q-78 -103 -196.5 -165.5t-253.5 -62.5q-65 0 -140 21q-84 -47 -129.5 -100.5t-58.5 -120.5zM266 504q-13 -65 -13 -120q0 -110 51 -182q75 -110 235 -110 q117 0 235 79.5t207 229.5l90 465q-109 133 -291 133q-179 0 -326 -142t-188 -353z" />
<glyph unicode="h" horiz-adv-x="1312" d="M109 39l282 1452q58 14 94 14q23 0 31.5 -8.5t5.5 -26.5l-98 -501q212 149 426 149q189 0 264 -122q48 -78 49 -194q0 -65 -16 -143l-86 -448q-6 -27 -5 -47q0 -68 60 -68h37q0 -40 -2 -49q-5 -24 -38 -42.5t-81 -18.5q-69 0 -100 53q-18 32 -18 82q0 34 8 76l90 465 q13 64 13 116q0 221 -228 221q-95 0 -200.5 -39t-195.5 -112l-163 -848h-86q-28 0 -38 8q-7 6 -6 19q0 5 1 12z" />
<glyph unicode="i" horiz-adv-x="538" d="M139 197l174 893q58 14 95 14q23 0 31 -8.5t5 -26.5l-165 -858q-6 -27 -5 -47q0 -68 60 -68h37q0 -40 -2 -49q-5 -24 -38 -42.5t-81 -18.5q-68 0 -100 53q-19 32 -19 82q0 34 8 76zM358 1423q6 37 35.5 61.5t65.5 24.5t56 -26q15 -19 14 -47q0 -10 -1 -21 q-7 -39 -35 -62.5t-65 -23.5q-35 1 -57 27q-16 19 -16 44q0 11 3 23z" />
<glyph unicode="j" horiz-adv-x="518" d="M-137 -362q209 163 252 380l209 1072q58 14 94 14q23 0 31.5 -8.5t5.5 -26.5l-205 -1053q-36 -182 -156 -309q-57 -59 -109 -91t-79 -32q-15 0 -28 17.5t-15 36.5zM369 1423q6 38 35 62t65 24t57 -26q15 -19 15 -48q0 -9 -2 -20q-7 -39 -35.5 -62.5t-65.5 -23.5 q-35 0 -56 27q-16 18 -16 44q0 11 3 23z" />
<glyph unicode="k" horiz-adv-x="1177" d="M109 39l282 1452q58 14 94 14q23 0 31.5 -8.5t5.5 -26.5l-180 -931q192 104 387 251.5t348 313.5q51 -20 67 -36q13 -13 12 -30q0 -5 -1 -10q-3 -17 -16 -33q-184 -200 -486 -395q57 -132 126 -249t130 -187q60 -68 99 -68h41q0 -40 -2 -49q-5 -23 -37 -42t-76 -19 q-69 0 -131 75q-69 84 -140.5 207t-123.5 260q-119 -71 -224 -125l-77 -403h-86q-28 0 -38 8q-7 6 -6 19q0 5 1 12z" />
<glyph unicode="l" horiz-adv-x="614" d="M156 266l237 1225q43 14 94 14q22 1 30 -7q6 -5 6 -16q0 -4 -1 -9l-235 -1211q-6 -31 -6 -56q0 -106 108 -106q65 0 123 23q13 -20 8 -57q-5 -26 -60 -53t-126 -27q-112 0 -158 70q-29 45 -30 117q0 42 10 93z" />
<glyph unicode="m" horiz-adv-x="1880" d="M109 39l204 1051q58 14 95 14q23 0 31 -8.5t5 -26.5l-22 -111q177 160 371 160q101 0 169 -45t91 -131q211 176 411 176q154 0 228 -97q49 -65 50 -169q0 -52 -13 -115l-101 -526q-6 -27 -5 -47q0 -68 60 -68h37q0 -40 -2 -49q-5 -24 -38 -42.5t-81 -18.5q-69 0 -100 53 q-18 32 -18 82q0 34 8 76l106 542q9 45 9 82q0 73 -32 115q-48 64 -157 63q-82 0 -173.5 -41.5t-176.5 -123.5q-4 -65 -12 -99l-142 -735h-84q-28 0 -37.5 8.5t-5.5 30.5l136 698q10 47 10 86q0 69 -32 111q-49 64 -157 65q-176 0 -344 -168l-159 -831h-86q-28 0 -38 8 q-7 6 -6 19q0 5 1 12z" />
<glyph unicode="n" horiz-adv-x="1312" d="M109 39l204 1051q58 14 95 14q23 0 31 -8.5t5 -26.5l-20 -100q212 149 426 149q189 0 264 -122q48 -78 49 -194q0 -65 -16 -143l-86 -448q-6 -27 -5 -47q0 -68 60 -68h37q0 -40 -2 -49q-5 -24 -38 -42.5t-81 -18.5q-69 0 -100 53q-18 32 -18 82q0 34 8 76l90 465 q13 64 13 116q0 221 -228 221q-95 0 -200.5 -39t-195.5 -112l-163 -848h-86q-28 0 -38 8q-7 6 -6 19q0 5 1 12z" />
<glyph unicode="o" horiz-adv-x="1286" d="M134 306q-10 48 -9 102q0 65 14 139q35 175 133.5 306.5t230 198t275.5 66.5q107 0 195 -38.5t146 -112t79 -179.5q9 -46 9 -98q0 -67 -15 -143q-26 -131 -89 -240.5t-149 -181t-189 -111t-210 -39.5t-195 38.5t-146 112.5t-80 180zM272 357q15 -87 60.5 -145.5 t110.5 -88t145 -29.5q75 0 148 28t137.5 80.5t112.5 138.5t69 194q12 66 12 123q-1 42 -7 79q-16 87 -61 145t-110.5 87.5t-145.5 29.5q-76 0 -148.5 -27.5t-136 -80.5t-111 -138.5t-68.5 -193.5q-13 -68 -13 -127q0 -40 6 -75z" />
<glyph unicode="p" horiz-adv-x="1306" d="M27 -395l288 1485q43 14 95 14q22 0 29.5 -8t4.5 -25l-34 -180q84 107 199.5 167t250.5 60q204 0 306 -142q71 -97 71 -243q0 -66 -14 -141q-34 -172 -132 -313.5t-238 -222.5t-292 -81q-200 0 -307 119l-102 -530h-84q-28 0 -37 9q-6 6 -6 17q0 7 2 15zM281 227 q109 -133 288 -133q180 0 327 142.5t187 353.5q13 66 13 121q0 110 -50 181q-74 109 -233 109q-117 0 -235 -79.5t-207 -229.5z" />
<glyph unicode="q" horiz-adv-x="1306" d="M129 502q34 172 132 313t238 222t292 81q201 0 305 -119l18 95h86q26 0 36 -10q7 -6 7 -18q0 -6 -2 -13l-289 -1489h-86q-27 0 -36.5 9.5t-4.5 31.5l117 598q-84 -107 -199.5 -167.5t-250.5 -60.5q-204 0 -306 142q-71 98 -71 244q0 66 14 141zM266 504q-13 -65 -13 -120 q0 -110 51 -182q75 -110 235 -110q117 0 235 79.5t207 229.5l90 465q-109 133 -291 133q-179 0 -326 -142t-188 -353z" />
<glyph unicode="r" horiz-adv-x="903" d="M109 39l204 1051q58 14 95 14q23 0 31 -8.5t5 -26.5l-26 -141q144 190 356 190q119 0 193 -49q27 -15 27 -38q0 -4 -1 -9q0 -12 -14 -29q-31 -36 -74 -55q-70 61 -190 61q-96 0 -182 -64t-152 -192l-143 -743h-86q-28 0 -38 8q-7 6 -6 19q0 5 1 12z" />
<glyph unicode="s" horiz-adv-x="1019" d="M106 100q7 38 33 64q131 -72 291 -72q273 0 307 172q3 17 3 33q0 53 -37 91q-48 48 -179 81q-187 47 -262 131q-56 63 -56 151q0 31 7 64q26 134 145.5 218.5t284.5 84.5q125 0 213.5 -48.5t122.5 -131.5q4 -8 4 -19q0 -7 -2 -14q-3 -22 -35 -39q-47 -21 -92 -28 q-18 77 -83 119t-157 42q-101 0 -176 -52t-92 -136q-3 -18 -3 -34q0 -60 44 -99q56 -50 205 -90q171 -46 238 -121q49 -55 49 -133q0 -29 -7 -62q-27 -138 -144.5 -217.5t-305.5 -79.5q-89 0 -166 21t-116 50q-35 26 -35 48q0 3 1 6z" />
<glyph unicode="t" horiz-adv-x="919" d="M184 1016q5 31 25 78h199l61 309q43 14 94 14q22 0 30 -8t5 -25l-57 -290h368q23 0 31 -11q4 -7 4 -19q0 -8 -2 -20l-14 -67h-410l-125 -647q-8 -41 -9 -75q0 -65 30 -103q46 -58 145 -58q110 0 191 37q16 -22 8 -61q-5 -31 -77 -63t-165 -32q-150 1 -220 95 q-47 64 -47 161q0 46 11 101l125 645h-176q-27 0 -27 24q0 7 2 15z" />
<glyph unicode="u" horiz-adv-x="1253" d="M172 461l123 629q54 14 94 14q22 0 31 -9t6 -26l-121 -616q-9 -48 -9 -91q0 -102 52 -171q74 -99 213 -99t251.5 98.5t143.5 262.5l125 641h84q27 0 37 -10q6 -6 6 -17q0 -6 -2 -14l-114 -592q-42 -222 -196 -354t-357 -132q-205 -1 -307 131q-73 93 -72 233q0 57 12 122 z" />
<glyph unicode="v" horiz-adv-x="1200" d="M211 1063q68 43 113 43q26 0 32 -29l181 -932q151 187 303 439.5t266 509.5h84q40 0 40 -24q0 -8 -5 -19q-251 -558 -623 -1018q-26 -33 -65 -33h-113z" />
<glyph unicode="w" horiz-adv-x="1787" d="M221 1063q72 45 117 45q28 0 31 -33l104 -928q266 397 469 947h113q23 0 34.5 -10t14.5 -33l113 -904q274 410 462 947h86q39 0 39 -26q0 -8 -4 -19q-183 -517 -514 -1014q-25 -35 -63 -35h-121l-105 915q-173 -443 -458 -882q-22 -33 -64 -33h-117z" />
<glyph unicode="x" horiz-adv-x="1144" d="M14 27q4 14 9 18q82 134 208.5 265t272.5 239l-273 477q65 74 103 74q11 0 20.5 -7.5t14 -14.5t13 -23t11.5 -21l223 -395q256 204 410 455h94q33 0 33 -25q0 -5 -3 -11t-5 -11q-84 -134 -208.5 -266t-264.5 -240l217 -383q36 -62 92 -62h27q0 -37 -2 -49 q-5 -25 -36.5 -43t-76.5 -18q-41 0 -70 26t-69 97l-197 342q-270 -210 -414 -451h-94q-19 0 -29 8q-7 6 -7 13q0 3 1 6z" />
<glyph unicode="y" horiz-adv-x="1284" d="M66 -236q30 159 215 263q-78 54 -103 158q-12 48 -12 105q0 66 16 144l127 656q43 14 97 14q22 0 29.5 -8t4.5 -25l-123 -639q-13 -66 -13 -119q0 -82 32 -134q51 -85 194 -85q95 0 201.5 39t196.5 111l164 850h86q27 0 36 -10q7 -6 7 -17q0 -6 -2 -14l-201 -1035 q-22 -111 -75.5 -206t-134 -166.5t-193 -112.5t-242.5 -41q-162 0 -246 75q-66 59 -66 147q0 24 5 50zM203 -225q-3 -15 -3 -29q0 -54 42 -90q53 -47 153 -47q195 0 322.5 106t163.5 289l24 125q-96 -72 -207 -113t-219 -41q-50 0 -104 13q-147 -87 -172 -213z" />
<glyph unicode="z" horiz-adv-x="1030" d="M51 96l803 881h-582q-35 0 -26 39q5 35 24 78h699q35 0 45 -23q16 -26 16 -74l-803 -880h611q21 0 27 -11t1 -40l-12 -66h-741q-35 0 -45 23q-17 27 -17 73z" />
<glyph unicode="{" horiz-adv-x="827" d="M174 621l14 71q110 0 177.5 68.5t87.5 173.5l51 262q34 174 145.5 257t270.5 83h38q34 0 25 -41q-5 -29 -25 -76h-86q-87 0 -150 -58.5t-83 -160.5l-49 -254q-24 -121 -79 -197t-151 -114q81 -39 106.5 -114.5t2.5 -196.5l-49 -256q-20 -101 21.5 -159.5t125.5 -58.5h60 q23 0 30 -10.5t2 -38.5l-14 -67h-67q-164 0 -245 81t-48 259l51 262q20 100 -12 161.5t-111 73.5q-27 3 -35 13.5t-4 36.5z" />
<glyph unicode="|" horiz-adv-x="632" d="M291 -369v1932q35 12 80 12q43 0 43 -35v-1950h-74q-27 0 -38 9.5t-11 31.5z" />
<glyph unicode="}" horiz-adv-x="827" d="M-88 -266l12 67q4 27 15.5 38t33.5 11h52q87 0 150 58t83 160l49 256q23 120 79.5 195.5t152.5 115.5q-81 38 -107.5 114t-3.5 197l49 254q21 101 -22 160t-125 59h-78q-3 33 4 76q9 41 43 41h39q76 0 134 -19t99 -60t53.5 -105.5t-3.5 -155.5l-52 -262q-20 -106 20 -174 t150 -68l-14 -71q-4 -26 -16 -36.5t-39 -13.5q-85 -12 -140.5 -74t-76.5 -161l-52 -262q-33 -177 -146.5 -258.5t-277.5 -81.5h-65z" />
<glyph unicode="~" horiz-adv-x="1349" d="M215 594q0 12 4 24q29 110 101.5 168t171.5 58q124 0 243 -96q64 -52 106.5 -72.5t84.5 -20.5q56 0 96.5 45.5t58.5 143.5l99 -21q17 -3 22.5 -13t1.5 -32q-24 -116 -98.5 -177.5t-175.5 -61.5q-125 0 -244 96q-63 52 -105.5 72t-84.5 20q-56 0 -97 -45t-59 -143 q-64 -3 -102 18q-23 14 -23 37z" />
<glyph unicode="&#xa1;" horiz-adv-x="573" d="M66 -315l47 247q62 315 180 803h63q24 0 31 -9t4 -32q-41 -335 -125 -762l-51 -268q-58 -14 -109 -14q-26 0 -35.5 8t-4.5 27zM313 1028q7 40 37.5 65t69.5 25q37 0 59 -27t13 -71q-7 -39 -36.5 -63.5t-68.5 -24.5q-38 0 -60.5 26.5t-13.5 69.5z" />
<glyph unicode="&#xa2;" horiz-adv-x="1128" d="M138 359.5q-15 99.5 7 222.5q43 222 193.5 363t347.5 167l39 205q47 14 90 14q41 0 35 -35l-37 -180q122 -12 203.5 -72.5t109.5 -148.5q4 -12 4 -31q-6 -25 -32 -39q-42 -23 -99 -30q-18 94 -83 149t-179 55q-161 0 -289.5 -113t-164.5 -302q-22 -123 -0.5 -215.5 t78.5 -153.5t133 -92t163 -31q154 0 283 66q14 -25 10 -62q-8 -40 -110.5 -80.5t-227.5 -40.5h-8l-39 -204h-80q-26 0 -35.5 9.5t-5.5 31.5l35 180q-88 21 -158.5 69.5t-119 123.5t-63.5 174.5z" />
<glyph unicode="&#xa3;" horiz-adv-x="1220" d="M68 49l12 62q71 53 109.5 109.5t56.5 148.5l51 256h-109q-34 0 -28 32q8 40 20 64h135l54 274q42 217 180.5 340t322.5 123q144 0 235.5 -79.5t123.5 -213.5q6 -18 2 -41q-3 -18 -31 -32q-51 -23 -104 -29q-13 138 -79 205t-173 67q-123 0 -214.5 -87t-121.5 -242 l-55 -285h460q22 0 29.5 -11t1.5 -38l-8 -47h-502l-49 -250q-33 -170 -145 -254h786q22 0 28.5 -11.5t0.5 -39.5l-13 -70h-944q-22 0 -29 11t-3 38z" />
<glyph unicode="&#xa4;" horiz-adv-x="1417" d="M188 1145q10 29 48 67q30 30 53 7l174 -179q131 93 282 93q152 0 279 -93l188 193q34 -15 68 -49q30 -30 6 -54l-174 -176q94 -121 94 -274q0 -158 -92 -274l189 -191q-11 -31 -48 -68q-29 -29 -53 -6l-176 176q-123 -90 -281 -90q-159 0 -278 92l-188 -192 q-34 15 -68 49q-29 30 -6 53l174 177q-94 118 -94 274q0 159 92 274zM414 692q0 -160 100.5 -256t243.5 -96q129 0 224 92.5t95 235.5q0 160 -100.5 256t-243.5 96q-129 0 -224 -92.5t-95 -235.5z" />
<glyph unicode="&#xa5;" horiz-adv-x="1341" d="M262 1376q70 64 113 64q28 0 41 -29l323 -643q155 133 313.5 312t270.5 354h88q24 0 35 -7t8 -20q-5 -21 -35 -64q-128 -184 -298 -370.5t-347 -331.5l-4 -23h260q20 0 26 -9.5t1 -35.5l-8 -41h-295l-19 -90h260q20 0 26 -10t1 -35l-8 -43h-295l-68 -354h-90q-27 0 -37 9 t-6 30l62 315h-273q-26 0 -20 31q7 27 18 57h291l18 90h-272q-26 0 -20 31q8 31 18 55h291l4 21z" />
<glyph unicode="&#xa6;" horiz-adv-x="632" d="M291 -246v652q35 12 80 12q43 0 43 -35v-670h-74q-27 0 -38 9.5t-11 31.5zM291 786v654q35 12 80 12q43 0 43 -35v-669h-74q-28 0 -38.5 8t-10.5 30z" />
<glyph unicode="&#xa7;" horiz-adv-x="1032" d="M72 -80q7 39 32 64q131 -72 291 -72q275 0 305 172q15 76 -33 124.5t-178 80.5q-191 45 -265 125.5t-50 206.5q17 87 79.5 151.5t162.5 101.5q-171 100 -137 281q26 134 145.5 218.5t284.5 84.5q125 0 213 -48.5t122 -131.5q8 -19 5 -33q-6 -23 -37 -39q-44 -21 -92 -28 q-18 77 -82 119t-156 42q-101 0 -177 -52t-91 -136q-17 -82 38.5 -131.5t204.5 -93.5q170 -51 237 -126.5t44 -193.5q-17 -85 -76.5 -150t-154.5 -104q85 -44 116.5 -107.5t14.5 -152.5q-27 -138 -145 -217.5t-306 -79.5q-67 0 -129.5 12.5t-103 31.5t-63.5 41t-19 40z M311 625q-18 -88 47 -139.5t224 -86.5q94 26 151 81.5t68 117.5q18 88 -47 139t-224 88q-95 -28 -151.5 -82.5t-67.5 -117.5z" />
<glyph unicode="&#xa8;" horiz-adv-x="845" d="M338 1325q7 38 34.5 61t63.5 23q37 0 58 -25t14 -65q-7 -39 -34.5 -62.5t-63.5 -23.5q-35 0 -57 25.5t-15 66.5zM688 1325q7 38 34.5 61t61.5 23q37 0 58 -25t14 -65q-7 -39 -34.5 -62.5t-63.5 -23.5q-35 0 -56 25.5t-14 66.5z" />
<glyph unicode="&#xa9;" horiz-adv-x="1687" d="M139 717q0 202 99.5 372.5t270 269.5t372.5 99q151 0 288.5 -58.5t236.5 -157.5t157.5 -236.5t58.5 -288.5q0 -202 -99 -372.5t-269.5 -270t-372.5 -99.5t-372.5 99.5t-270 270t-99.5 372.5zM229 717q0 -179 87.5 -331t237.5 -239.5t327 -87.5q133 0 253.5 52t207.5 140 t138.5 210t51.5 256q0 133 -51.5 255t-138.5 210t-207.5 140t-253.5 52q-177 0 -327 -88t-237.5 -239.5t-87.5 -329.5zM532 741q0 166 100 268.5t255 102.5q94 0 166 -37.5t110 -101.5q11 -18 11 -31q0 -16 -19 -27q-27 -19 -72 -26q-55 129 -200 129q-105 0 -171.5 -74 t-66.5 -201q0 -148 90.5 -237.5t231.5 -89.5q104 0 174 39q14 -25 14 -49q0 -28 -68.5 -56t-154.5 -28q-164 0 -282 116.5t-118 302.5z" />
<glyph unicode="&#xaa;" horiz-adv-x="909" d="M180 883q23 114 120 183t232 69q137 0 230 -56l14 78q20 97 -28.5 147t-163.5 50q-125 0 -236 -49q-8 16 -4 53q5 27 91 59.5t190 32.5q152 0 224.5 -77.5t45.5 -221.5l-68 -340q-7 -40 3 -57t38 -17h23q5 -29 0 -43q-3 -16 -32.5 -31.5t-63.5 -15.5q-51 0 -74.5 33 t-11.5 96q-48 -61 -127 -99t-164 -38q-123 0 -190.5 68.5t-47.5 175.5zM299 883q-13 -71 33 -110.5t123 -39.5q156 0 268 152l22 110q-77 45 -206 45q-97 0 -161 -41t-79 -116z" />
<glyph unicode="&#xab;" horiz-adv-x="1198" d="M176 627l10 53l492 305q30 19 43 19q22 0 14 -41q-5 -33 -24 -76l-410 -248l297 -240q21 -16 16 -49l-20 -102l-401 330q-22 19 -17 49zM604 627l10 53l492 305q30 19 43 19q22 0 14 -41q-5 -33 -24 -76l-410 -248l297 -240q21 -16 16 -49l-20 -102l-401 330 q-22 19 -17 49z" />
<glyph unicode="&#xac;" horiz-adv-x="1349" d="M221 846q0 45 10 78h908q23 0 32 -11t9 -39v-509h-86q-27 0 -38.5 9t-11.5 32v401h-790q-33 0 -33 39z" />
<glyph unicode="&#xad;" horiz-adv-x="944" d="M236 659q6 27 28 82h533q23 0 29.5 -11.5t0.5 -39.5l-14 -72h-551q-33 0 -26 41z" />
<glyph unicode="&#xae;" horiz-adv-x="1687" d="M139 717q0 202 99.5 372.5t270 269.5t372.5 99q151 0 288.5 -58.5t236.5 -157.5t157.5 -236.5t58.5 -288.5q0 -202 -99 -372.5t-269.5 -270t-372.5 -99.5t-372.5 99.5t-270 270t-99.5 372.5zM229 717q0 -135 51.5 -257t138.5 -210.5t208 -140.5t254 -52t253 52t207 140.5 t138 210.5t51 257q0 133 -51 254.5t-138 209.5t-207.5 140.5t-252.5 52.5q-178 0 -328 -88.5t-237 -240t-87 -328.5zM610 358v754h264q142 0 225 -72t83 -194q0 -92 -45 -157t-127 -93q62 -114 118 -160q30 -24 62 -24h18q6 -24 6 -41q0 -21 -20.5 -35t-52.5 -14 q-45 0 -84 36q-89 82 -154 217h-45q-57 0 -135 19v-260h-80q-33 0 -33 24zM723 684q66 -16 135 -16q87 0 149 47t62 131q0 83 -55 127.5t-154 44.5h-137v-334z" />
<glyph unicode="&#xaf;" horiz-adv-x="845" d="M324 1309q6 35 20 63h500q20 0 26 -9.5t0 -35.5l-10 -57h-516q-29 0 -20 39z" />
<glyph unicode="&#xb0;" horiz-adv-x="815" d="M141 1161q0 127 86 212t217 85t217.5 -85t86.5 -212t-86.5 -212t-217.5 -85t-217 85t-86 212zM250 1167q0 -94 58.5 -152.5t142.5 -58.5q81 0 134.5 55t53.5 144q0 94 -58.5 152.5t-142.5 58.5q-81 0 -134.5 -55t-53.5 -144z" />
<glyph unicode="&#xb1;" horiz-adv-x="1349" d="M221 39q0 40 10 78h928q23 0 32 -11.5t9 -39.5v-66h-946q-33 0 -33 39zM221 811q0 45 10 78h412v422q43 16 92 16q43 0 43 -35v-403h381q23 0 32 -10.5t9 -38.5v-68h-422v-436h-86q-27 0 -38 8.5t-11 30.5v397h-389q-33 0 -33 39z" />
<glyph unicode="&#xb2;" horiz-adv-x="808" d="M168 668q221 107 373.5 236.5t177.5 258.5q18 90 -23 139.5t-116 49.5q-143 0 -230 -162q-43 0 -76 20q-17 14 -14 31q4 16 14 31q54 81 140 129.5t186 48.5q131 0 195 -79t39 -206q-18 -91 -85 -182t-159.5 -164t-210.5 -139h332q19 0 24 -8.5t0 -30.5l-10 -59h-510 q-35 0 -43 22q-8 20 -4 64z" />
<glyph unicode="&#xb3;" horiz-adv-x="808" d="M139 670q6 31 27 55q102 -63 231 -63q106 0 175 42.5t81 110.5q17 84 -32.5 129t-167.5 66q-30 5 -35 24q-8 19 -8 47l282 254h-379q-28 0 -22 33q11 46 22 66h480q32 0 41 -23q10 -26 4 -63l-291 -263q261 -56 219 -266q-23 -117 -127.5 -185.5t-251.5 -68.5 q-72 0 -133 18.5t-90 42.5t-25 44z" />
<glyph unicode="&#xb4;" horiz-adv-x="845" d="M393 1219l303 245q25 19 39 19q21 0 33 -15q22 -30 31 -63l-318 -231q-19 -13 -30 -13q-13 0 -23 13z" />
<glyph unicode="&#xb5;" horiz-adv-x="1282" d="M18 -426l295 1516q58 14 95 14q23 0 31 -8.5t5 -26.5l-159 -823q61 -73 151 -112.5t185 -39.5q282 0 348 338l127 662h86q27 0 36.5 -9.5t4.5 -31.5l-119 -619q-42 -216 -165 -337.5t-312 -121.5q-107 0 -201 41t-164 113l-117 -596h-86q-27 0 -36.5 9.5t-4.5 31.5z" />
<glyph unicode="&#xb6;" horiz-adv-x="1183" d="M154 1077q0 166 120.5 261.5t296.5 95.5h519q22 0 30 -10.5t8 -39.5v-43h-170v-1609h-53q-28 0 -38.5 7.5t-10.5 29.5v1572h-172v-1609h-55q-28 0 -38.5 7.5t-10.5 29.5v952q-119 0 -214 40t-153.5 122t-58.5 194z" />
<glyph unicode="&#xb7;" horiz-adv-x="673" d="M295 684q7 39 38 64.5t68 25.5q38 0 59.5 -27t14.5 -71q-9 -41 -38 -65.5t-66 -24.5q-38 0 -60.5 27t-15.5 71z" />
<glyph unicode="&#xb8;" horiz-adv-x="845" d="M59 -465l11 53q8 31 32 31q10 0 44 -6t55 -6q60 0 99 24t48 68q11 53 -32.5 84.5t-143.5 40.5q-23 9 -20 24q1 2 3 6.5t3 6.5l104 139h121l-90 -119q94 -14 138.5 -62.5t31.5 -121.5q-17 -87 -89 -135.5t-179 -48.5q-78 0 -136 22z" />
<glyph unicode="&#xb9;" horiz-adv-x="808" d="M301 1243q4 14 25 25l290 166h60q22 0 29 -8t2 -27l-158 -817h-76q-21 0 -28.5 7.5t-4.5 24.5l133 689l-227 -129q-27 23 -37 43q-8 16 -8 26z" />
<glyph unicode="&#xba;" horiz-adv-x="909" d="M191.5 868q-15.5 76 3.5 176q37 190 168 298t290 108q76 0 138.5 -26t106.5 -77t60 -127t-2 -176q-25 -129 -98 -223t-166.5 -138t-195.5 -44q-76 0 -138.5 25.5t-106.5 76.5t-59.5 127zM313 1053q-27 -143 31.5 -229.5t177.5 -86.5q108 0 197 79.5t117 219.5 q27 143 -31 229.5t-178 86.5q-107 0 -196.5 -79.5t-117.5 -219.5z" />
<glyph unicode="&#xbb;" horiz-adv-x="1198" d="M104 248l21 102q5 31 35 49l391 240l-313 248q0 51 4 76q8 41 32 41q13 0 35 -19l371 -305l-10 -53q-5 -29 -35 -49zM532 248l21 102q5 31 35 49l391 240l-313 248q0 51 4 76q8 41 32 41q13 0 35 -19l371 -305l-10 -53q-5 -29 -35 -49z" />
<glyph unicode="&#xbc;" horiz-adv-x="1912" d="M301 1243q4 14 25 25l290 166h60q22 0 29 -8t2 -27l-158 -817h-76q-21 0 -28.5 7.5t-4.5 24.5l133 689l-227 -129q-27 23 -37 43q-8 16 -8 26zM521.5 12q-8.5 12 4.5 35l852 1387h60q53 0 28 -48l-850 -1386h-59q-27 0 -35.5 12zM1141 260q81 162 211 309.5t282 251.5 q76 41 133 41q26 0 35 -9.5t4 -31.5l-106 -549h82q18 0 23.5 -8.5t2.5 -30.5l-12 -59h-115l-32 -174h-76q-42 0 -33 33l27 141h-379q-32 0 -43 23q-7 27 -4 63zM1266 272h319l90 461q-113 -80 -226.5 -206.5t-182.5 -254.5z" />
<glyph unicode="&#xbd;" horiz-adv-x="1912" d="M301 1243q4 14 25 25l290 166h60q22 0 29 -8t2 -27l-158 -817h-76q-21 0 -28.5 7.5t-4.5 24.5l133 689l-227 -129q-27 23 -37 43q-8 16 -8 26zM521.5 12q-8.5 12 4.5 35l852 1387h60q53 0 28 -48l-850 -1386h-59q-27 0 -35.5 12zM1157 86q220 106 372.5 236.5 t178.5 259.5q18 90 -23 139t-116 49q-143 0 -230 -162q-40 0 -75 21q-18 15 -15 30q3 14 15 31q54 81 139.5 129.5t185.5 48.5q131 0 195 -78.5t39 -205.5q-26 -135 -149.5 -260t-305.5 -226h332q19 0 24 -8.5t0 -30.5l-10 -59h-510q-34 0 -43 23q-10 26 -4 63z" />
<glyph unicode="&#xbe;" horiz-adv-x="1912" d="M139 670q6 31 27 55q102 -63 231 -63q106 0 175 42.5t81 110.5q17 84 -32.5 129t-167.5 66q-30 5 -35 24q-8 19 -8 47l282 254h-379q-28 0 -22 33q11 46 22 66h480q32 0 41 -23q10 -26 4 -63l-291 -263q261 -56 219 -266q-23 -117 -127.5 -185.5t-251.5 -68.5 q-72 0 -133 18.5t-90 42.5t-25 44zM521.5 12q-8.5 12 4.5 35l852 1387h60q53 0 28 -48l-850 -1386h-59q-27 0 -35.5 12zM1141 260q81 162 211 309.5t282 251.5q76 41 133 41q26 0 35 -9.5t4 -31.5l-106 -549h82q18 0 23.5 -8.5t2.5 -30.5l-12 -59h-115l-32 -174h-76 q-42 0 -33 33l27 141h-379q-32 0 -43 23q-7 27 -4 63zM1266 272h319l90 461q-113 -80 -226.5 -206.5t-182.5 -254.5z" />
<glyph unicode="&#xbf;" horiz-adv-x="1136" d="M61 27q23 118 95 210.5t213 192.5q110 76 150 125t52 115l13 65h90q27 0 36.5 -9.5t4.5 -31.5l-6 -32q-18 -89 -74 -160.5t-184 -159.5q-117 -80 -174 -152t-76 -163q-24 -121 43.5 -195t191.5 -74q120 0 221 71t166 208q53 -3 90 -29q23 -14 19 -37q-3 -15 -17 -37 q-186 -299 -505 -299q-188 0 -285.5 109.5t-63.5 282.5zM621 1028q7 41 37 65.5t69 24.5q37 0 59 -27t13 -71q-7 -39 -36.5 -63.5t-68.5 -24.5q-37 0 -59.5 26.5t-13.5 69.5z" />
<glyph unicode="&#xc0;" horiz-adv-x="1359" d="M-23 29q3 9 9 18l796 1370q66 27 127 27q27 0 38 -10t16 -35l270 -1399h-100q-28 0 -40 8t-14 27l-63 356h-686l-224 -391h-88q-22 0 -33 8t-8 21zM395 512h598l-145 791zM725 1802q24 39 55 64q17 14 37 14q16 0 31 -18l209 -246l-51 -45q-15 -12 -29 -12q-13 0 -25 12z " />
<glyph unicode="&#xc1;" horiz-adv-x="1359" d="M-23 29q3 9 9 18l796 1370q66 27 127 27q27 0 38 -10t16 -35l270 -1399h-100q-28 0 -40 8t-14 27l-63 356h-686l-224 -391h-88q-22 0 -33 8t-8 21zM395 512h598l-145 791zM760 1618l303 246q24 18 39 18q22 0 33 -14q20 -27 30 -64l-317 -231q-18 -12 -31 -12t-22 12z " />
<glyph unicode="&#xc2;" horiz-adv-x="1359" d="M-23 29q3 9 9 18l796 1370q66 27 127 27q27 0 38 -10t16 -35l270 -1399h-100q-28 0 -40 8t-14 27l-63 356h-686l-224 -391h-88q-22 0 -33 8t-8 21zM395 512h598l-145 791zM614 1616q2 9 19 26l289 236h39q18 0 26 -3.5t21 -16.5l204 -246l-55 -51q-19 -15 -31 -15 q-14 0 -32 21l-160 196l-258 -215q-33 13 -51 35q-14 14 -11 33z" />
<glyph unicode="&#xc3;" horiz-adv-x="1359" d="M-23 29q3 9 9 18l796 1370q66 27 127 27q27 0 38 -10t16 -35l270 -1399h-100q-28 0 -40 8t-14 27l-63 356h-686l-224 -391h-88q-22 0 -33 8t-8 21zM395 512h598l-145 791zM627 1659q2 9 10 30.5t10 26.5q65 115 180 115q71 0 131 -66q54 -57 89 -57q31 0 52 25t40 94 l69 -17q20 -4 23.5 -15.5t-4.5 -33.5q-28 -74 -79 -114.5t-118 -40.5q-72 0 -131 65q-50 58 -86 58q-31 0 -53 -25.5t-41 -91.5q-47 -3 -76 10q-23 10 -16 37z" />
<glyph unicode="&#xc4;" horiz-adv-x="1359" d="M-23 29q3 9 9 18l796 1370q66 27 127 27q27 0 38 -10t16 -35l270 -1399h-100q-28 0 -40 8t-14 27l-63 356h-686l-224 -391h-88q-22 0 -33 8t-8 21zM395 512h598l-145 791zM672 1722q7 38 34.5 61t63.5 23q37 0 58 -25t12 -65q-7 -39 -35 -62.5t-64 -23.5 q-35 0 -55.5 25.5t-13.5 66.5zM1022 1722q7 38 34.5 61t61.5 23q37 0 58 -25t12 -65q-7 -39 -34.5 -62.5t-63.5 -23.5q-35 0 -55 25.5t-13 66.5z" />
<glyph unicode="&#xc5;" horiz-adv-x="1359" d="M-23 29q3 9 9 18l796 1370q66 27 127 27q27 0 38 -10t16 -35l270 -1399h-100q-28 0 -40 8t-14 27l-63 356h-686l-224 -391h-88q-22 0 -33 8t-8 21zM395 512h598l-145 791zM741 1718q13 78 78.5 130.5t147.5 52.5q80 0 124 -52.5t31 -130.5q-15 -77 -81 -129.5t-146 -52.5 q-82 0 -125.5 52t-28.5 130zM829 1724q-9 -51 15 -80.5t71 -29.5q42 0 76 28t41 70q10 51 -15.5 81t-72.5 30q-41 0 -73.5 -28t-41.5 -71z" />
<glyph unicode="&#xc6;" horiz-adv-x="1802" d="M-42 12q-9 12 7 35l957 1354q74 33 161 33h748q30 0 24 -41q-9 -38 -26 -82h-688l-107 -543h549q22 0 29 -11.5t2 -37.5l-15 -72h-587l-60 -305q-25 -126 0.5 -173.5t114.5 -47.5h518q22 0 28.5 -11.5t0.5 -39.5l-12 -70h-574q-149 0 -199 77.5t-16 250.5l12 63h-465 l-272 -391h-92q-29 0 -38 12zM442 512h406l156 801z" />
<glyph unicode="&#xc7;" horiz-adv-x="1406" d="M193 762q31 162 110 296t184.5 220t229.5 133t250 47q189 0 313.5 -82.5t165.5 -218.5q6 -17 2 -31q-2 -17 -31 -36q-53 -29 -102 -35q-32 134 -131 207t-248 73q-96 0 -191 -38t-178 -108t-146 -179.5t-89 -241.5q-30 -158 -4 -283t96.5 -211.5t177.5 -132t238 -45.5 q194 0 358 84q12 -26 4 -65q-8 -45 -131.5 -92.5t-273.5 -47.5l-70 -94q94 -14 138.5 -62.5t31.5 -121.5q-17 -87 -89 -135.5t-179 -48.5q-77 0 -135 22l10 53q8 31 33 31q9 0 43 -6t55 -6q60 0 99 24t48 68q11 53 -32.5 84.5t-143.5 40.5q-23 9 -20 24q1 2 3 6.5t3 6.5 l90 123q-276 38 -414 248t-75 530z" />
<glyph unicode="&#xc8;" horiz-adv-x="1167" d="M184 328l215 1106h799q31 0 25 -41q-7 -33 -27 -82h-682l-106 -543h540q23 0 30.5 -11t2.5 -38l-14 -72h-582l-59 -305q-24 -122 3.5 -171.5t108.5 -49.5h512q23 0 30 -11.5t1 -39.5l-12 -70h-568q-143 0 -198 75.5t-19 252.5zM676 1802q24 39 55 64q17 14 37 14 q16 0 31 -18l209 -246l-52 -45q-15 -12 -28 -12t-25 12z" />
<glyph unicode="&#xc9;" horiz-adv-x="1167" d="M184 328l215 1106h799q31 0 25 -41q-7 -33 -27 -82h-682l-106 -543h540q23 0 30.5 -11t2.5 -38l-14 -72h-582l-59 -305q-24 -122 3.5 -171.5t108.5 -49.5h512q23 0 30 -11.5t1 -39.5l-12 -70h-568q-143 0 -198 75.5t-19 252.5zM668 1616l303 246q21 18 39 18q21 0 32 -14 q22 -29 31 -64l-317 -231q-18 -12 -33 -12q-12 0 -21 12z" />
<glyph unicode="&#xca;" horiz-adv-x="1167" d="M184 328l215 1106h799q31 0 25 -41q-7 -33 -27 -82h-682l-106 -543h540q23 0 30.5 -11t2.5 -38l-14 -72h-582l-59 -305q-24 -122 3.5 -171.5t108.5 -49.5h512q23 0 30 -11.5t1 -39.5l-12 -70h-568q-143 0 -198 75.5t-19 252.5zM549 1616q3 11 18 26l289 236h39 q18 0 26 -3.5t21 -16.5l205 -246l-55 -51q-19 -15 -31 -15q-15 0 -33 21l-160 196l-258 -215q-33 13 -51 35q-13 13 -10 33z" />
<glyph unicode="&#xcb;" horiz-adv-x="1167" d="M184 328l215 1106h799q31 0 25 -41q-7 -33 -27 -82h-682l-106 -543h540q23 0 30.5 -11t2.5 -38l-14 -72h-582l-59 -305q-24 -122 3.5 -171.5t108.5 -49.5h512q23 0 30 -11.5t1 -39.5l-12 -70h-568q-143 0 -198 75.5t-19 252.5zM602 1722q7 38 34.5 61t63.5 23 q37 0 58 -25t12 -65q-7 -39 -34.5 -62.5t-63.5 -23.5q-35 0 -56 25.5t-14 66.5zM952 1722q7 38 35 61t62 23q37 0 57.5 -25t11.5 -65q-7 -39 -34.5 -62.5t-63.5 -23.5q-35 0 -55 25.5t-13 66.5z" />
<glyph unicode="&#xcc;" horiz-adv-x="579" d="M143 39l271 1388q53 17 100 17q41 0 35 -35l-273 -1409h-90q-28 0 -37.5 8.5t-5.5 30.5zM297 1802q24 39 55 64q17 14 37 14q16 0 31 -18l209 -246l-51 -45q-15 -12 -29 -12q-13 0 -25 12z" />
<glyph unicode="&#xcd;" horiz-adv-x="579" d="M143 39l271 1388q53 17 100 17q41 0 35 -35l-273 -1409h-90q-28 0 -37.5 8.5t-5.5 30.5zM416 1616l303 246q21 18 39 18q22 0 33 -14q20 -27 30 -64l-317 -231q-18 -12 -33 -12q-11 0 -20 12z" />
<glyph unicode="&#xce;" horiz-adv-x="579" d="M143 39l271 1388q53 17 100 17q41 0 35 -35l-273 -1409h-90q-28 0 -37.5 8.5t-5.5 30.5zM225 1616q2 9 19 26l288 236h39q18 0 26 -3.5t21 -16.5l205 -246l-55 -51q-19 -15 -31 -15q-14 0 -32 21l-160 196l-258 -215q-33 13 -51 35q-14 14 -11 33z" />
<glyph unicode="&#xcf;" horiz-adv-x="579" d="M143 39l271 1388q53 17 100 17q41 0 35 -35l-273 -1409h-90q-28 0 -37.5 8.5t-5.5 30.5zM283 1722q7 38 34.5 61t63.5 23q37 0 58 -25t12 -65q-7 -39 -35 -62.5t-64 -23.5q-35 0 -55.5 25.5t-13.5 66.5zM633 1722q7 38 34.5 61t61.5 23q37 0 58 -25t12 -65 q-7 -39 -35 -62.5t-64 -23.5q-35 0 -54.5 25t-12.5 67z" />
<glyph unicode="&#xd0;" horiz-adv-x="1480" d="M115 700q8 40 20 64h135l131 670h459q148 0 264.5 -49.5t190 -142.5t100.5 -225.5t-6 -299.5q-43 -218 -164.5 -382t-293 -249.5t-369.5 -85.5h-181q-142 0 -196.5 75.5t-18.5 254.5l66 338h-109q-34 0 -28 32zM328 168q24 -47 112 -47h156q114 0 221 38.5t197.5 111.5 t158 188t95.5 258q27 147 5 258.5t-85 186.5t-155 113t-206 38h-311l-106 -549h419q22 0 28.5 -10.5t0.5 -38.5l-8 -47h-459l-63 -324q-24 -129 0 -176z" />
<glyph unicode="&#xd1;" horiz-adv-x="1470" d="M133 41l264 1358q30 20 64 32.5t55 12.5q29 0 41 -27l526 -1194l236 1211h90q28 0 36.5 -9t4.5 -32l-264 -1358q-68 -45 -117 -45q-29 0 -43 26l-526 1194l-234 -1210h-90q-28 0 -37.5 9t-5.5 32zM684 1659q2 9 10.5 29.5t10.5 27.5q65 115 180 115q71 0 131 -66 q54 -57 88 -57q31 0 52 25t40 94l70 -17q19 -4 22.5 -15.5t-4.5 -33.5q-28 -74 -79 -114.5t-118 -40.5q-72 0 -131 65q-50 58 -86 58q-31 0 -53 -25.5t-41 -91.5q-47 -3 -76 10q-23 10 -16 37z" />
<glyph unicode="&#xd2;" d="M174 393q-24 139 10 324q34 179 115 322.5t190 233.5t237.5 137.5t264.5 47.5q135 0 244 -46.5t183.5 -139.5t99 -231.5t-8.5 -323.5q-35 -179 -116 -322.5t-190.5 -234t-237.5 -138t-263 -47.5q-136 0 -245.5 46.5t-184 139.5t-98.5 232zM319 455q18 -119 77 -198.5 t146.5 -119t198.5 -39.5q79 0 156.5 22.5t151.5 71t135 118t108 170t70 220.5q29 159 11.5 278t-76.5 198.5t-147.5 119t-199.5 39.5q-100 0 -196 -37t-181 -108.5t-149.5 -189.5t-93.5 -267q-29 -159 -11 -278zM836 1802q24 39 55 64q17 14 37 14q15 0 30 -18l209 -246 l-51 -45q-15 -12 -29 -12q-12 0 -24 12z" />
<glyph unicode="&#xd3;" d="M174 393q-24 139 10 324q34 179 115 322.5t190 233.5t237.5 137.5t264.5 47.5q135 0 244 -46.5t183.5 -139.5t99 -231.5t-8.5 -323.5q-35 -179 -116 -322.5t-190.5 -234t-237.5 -138t-263 -47.5q-136 0 -245.5 46.5t-184 139.5t-98.5 232zM319 455q18 -119 77 -198.5 t146.5 -119t198.5 -39.5q79 0 156.5 22.5t151.5 71t135 118t108 170t70 220.5q29 159 11.5 278t-76.5 198.5t-147.5 119t-199.5 39.5q-100 0 -196 -37t-181 -108.5t-149.5 -189.5t-93.5 -267q-29 -159 -11 -278zM858 1616l303 246q21 18 39 18q22 0 33 -14q22 -29 31 -64 l-318 -231q-18 -12 -33 -12q-11 0 -20 12z" />
<glyph unicode="&#xd4;" d="M174 393q-24 139 10 324q34 179 115 322.5t190 233.5t237.5 137.5t264.5 47.5q135 0 244 -46.5t183.5 -139.5t99 -231.5t-8.5 -323.5q-35 -179 -116 -322.5t-190.5 -234t-237.5 -138t-263 -47.5q-136 0 -245.5 46.5t-184 139.5t-98.5 232zM319 455q18 -119 77 -198.5 t146.5 -119t198.5 -39.5q79 0 156.5 22.5t151.5 71t135 118t108 170t70 220.5q29 159 11.5 278t-76.5 198.5t-147.5 119t-199.5 39.5q-100 0 -196 -37t-181 -108.5t-149.5 -189.5t-93.5 -267q-29 -159 -11 -278zM725 1616q3 11 18 26l289 236h39q18 0 26 -3.5t21 -16.5 l205 -246l-55 -51q-19 -15 -31 -15q-15 0 -33 21l-160 196l-258 -215q-33 13 -51 35q-13 13 -10 33z" />
<glyph unicode="&#xd5;" d="M174 393q-24 139 10 324q34 179 115 322.5t190 233.5t237.5 137.5t264.5 47.5q135 0 244 -46.5t183.5 -139.5t99 -231.5t-8.5 -323.5q-35 -179 -116 -322.5t-190.5 -234t-237.5 -138t-263 -47.5q-136 0 -245.5 46.5t-184 139.5t-98.5 232zM319 455q18 -119 77 -198.5 t146.5 -119t198.5 -39.5q79 0 156.5 22.5t151.5 71t135 118t108 170t70 220.5q29 159 11.5 278t-76.5 198.5t-147.5 119t-199.5 39.5q-100 0 -196 -37t-181 -108.5t-149.5 -189.5t-93.5 -267q-29 -159 -11 -278zM737 1659q2 9 10.5 29.5t10.5 27.5q65 115 180 115 q71 0 131 -66q54 -57 88 -57q31 0 52 25t40 94l70 -17q19 -4 22.5 -15.5t-4.5 -33.5q-28 -74 -78.5 -114.5t-117.5 -40.5q-72 0 -131 65q-50 58 -86 58q-31 0 -53.5 -25.5t-41.5 -91.5q-46 -3 -75 10q-24 10 -17 37z" />
<glyph unicode="&#xd6;" d="M174 393q-24 139 10 324q34 179 115 322.5t190 233.5t237.5 137.5t264.5 47.5q135 0 244 -46.5t183.5 -139.5t99 -231.5t-8.5 -323.5q-35 -179 -116 -322.5t-190.5 -234t-237.5 -138t-263 -47.5q-136 0 -245.5 46.5t-184 139.5t-98.5 232zM319 455q18 -119 77 -198.5 t146.5 -119t198.5 -39.5q79 0 156.5 22.5t151.5 71t135 118t108 170t70 220.5q29 159 11.5 278t-76.5 198.5t-147.5 119t-199.5 39.5q-100 0 -196 -37t-181 -108.5t-149.5 -189.5t-93.5 -267q-29 -159 -11 -278zM780 1722q7 38 35 61t64 23q37 0 57.5 -25t11.5 -65 q-7 -39 -34.5 -62.5t-63.5 -23.5q-35 0 -56 25.5t-14 66.5zM1130 1722q7 38 35 61t62 23q37 0 57.5 -25t11.5 -65q-7 -39 -34.5 -62.5t-63.5 -23.5q-35 0 -55 25.5t-13 66.5z" />
<glyph unicode="&#xd7;" horiz-adv-x="1349" d="M293 346l330 332l-330 336q19 34 47 69q11 14 27.5 15t31.5 -13l312 -319l311 319q24 24 49 5q30 -24 57 -76l-331 -336l331 -332l-53 -53q-35 -35 -65 -6l-299 303l-301 -305q-29 -29 -62 4z" />
<glyph unicode="&#xd8;" d="M19.5 15.5q-6.5 15.5 17.5 37.5l192 174q-103 198 -45 490q34 179 115 322.5t190 233.5t237.5 137.5t264.5 47.5q273 0 416 -174l168 150h74q28 0 30.5 -15t-20.5 -37l-197 -176q104 -190 47 -489q-35 -179 -116 -322.5t-190.5 -234t-237.5 -138t-263 -47.5 q-272 0 -419 175l-166 -150h-60q-31 0 -37.5 15.5zM330 733q-47 -235 20 -397l944 846q-117 153 -344 153q-100 0 -196 -37t-181 -108.5t-149.5 -189.5t-93.5 -267zM397 252q118 -154 344 -154q79 0 156.5 22.5t151.5 71t135 118t108 170t70 220.5q47 233 -21 398z" />
<glyph unicode="&#xd9;" horiz-adv-x="1472" d="M229 598l162 829q53 17 101 17q40 0 34 -35l-159 -821q-43 -223 40.5 -357.5t264.5 -134.5t316.5 134.5t178.5 357.5l166 846h90q26 0 35 -9.5t6 -31.5l-155 -795q-55 -287 -234.5 -455t-427.5 -168t-360.5 168t-57.5 455zM782 1802q23 37 56 64q17 14 36 14q16 0 31 -18 l209 -246l-51 -45q-15 -12 -29 -12q-12 0 -24 12z" />
<glyph unicode="&#xda;" horiz-adv-x="1472" d="M229 598l162 829q53 17 101 17q40 0 34 -35l-159 -821q-43 -223 40.5 -357.5t264.5 -134.5t316.5 134.5t178.5 357.5l166 846h90q26 0 35 -9.5t6 -31.5l-155 -795q-55 -287 -234.5 -455t-427.5 -168t-360.5 168t-57.5 455zM807 1616l303 246q21 18 39 18q22 0 33 -14 q20 -27 30 -64l-317 -231q-18 -12 -33 -12q-11 0 -20 12z" />
<glyph unicode="&#xdb;" horiz-adv-x="1472" d="M229 598l162 829q53 17 101 17q40 0 34 -35l-159 -821q-43 -223 40.5 -357.5t264.5 -134.5t316.5 134.5t178.5 357.5l166 846h90q26 0 35 -9.5t6 -31.5l-155 -795q-55 -287 -234.5 -455t-427.5 -168t-360.5 168t-57.5 455zM670 1616q3 11 18 26l289 236h39q18 0 26 -3.5 t21 -16.5l205 -246l-56 -51q-19 -15 -30 -15q-15 0 -33 21l-160 196l-258 -215q-33 13 -51 35q-13 13 -10 33z" />
<glyph unicode="&#xdc;" horiz-adv-x="1472" d="M229 598l162 829q53 17 101 17q40 0 34 -35l-159 -821q-43 -223 40.5 -357.5t264.5 -134.5t316.5 134.5t178.5 357.5l166 846h90q26 0 35 -9.5t6 -31.5l-155 -795q-55 -287 -234.5 -455t-427.5 -168t-360.5 168t-57.5 455zM727 1722q7 38 34.5 61t63.5 23q37 0 58 -25 t12 -65q-7 -39 -34.5 -62.5t-63.5 -23.5q-35 0 -56 25.5t-14 66.5zM1077 1722q7 38 35 61t62 23q37 0 57.5 -25t11.5 -65q-7 -39 -34.5 -62.5t-63.5 -23.5q-35 0 -55 25.5t-13 66.5z" />
<glyph unicode="&#xdd;" horiz-adv-x="1343" d="M266 1378q74 62 119 62q27 0 33 -21l289 -796q373 384 612 811h90q22 0 33 -8t8 -21q-2 -12 -12 -31q-275 -475 -695 -889l-94 -485h-90q-28 0 -37.5 8.5t-5.5 30.5l86 440zM760 1616l303 246q21 18 39 18q22 0 33 -14q20 -27 30 -64l-317 -231q-18 -12 -33 -12 q-11 0 -20 12z" />
<glyph unicode="&#xde;" horiz-adv-x="1296" d="M131 39l270 1388q53 17 101 17q41 0 35 -35l-35 -180h289q252 0 377.5 -138.5t78.5 -381.5q-24 -122 -86 -220.5t-148.5 -161.5t-191.5 -96.5t-219 -33.5q-168 0 -293 43l-45 -240h-90q-27 0 -37 9t-6 30zM332 352q109 -35 280 -35q189 0 324.5 104t171.5 292 q37 191 -59 292t-287 101h-285z" />
<glyph unicode="&#xdf;" horiz-adv-x="1292" d="M111 41l182 934q44 229 186.5 356t345.5 127q187 0 284 -107.5t67 -263.5q-23 -116 -106.5 -200t-209.5 -123q180 -42 269 -155.5t59 -268.5t-169 -260t-341 -105q-122 0 -208.5 39.5t-78.5 81.5q7 39 31 66q101 -64 256 -64q144 0 247.5 72.5t125.5 185.5 q26 129 -66.5 221t-298.5 123q-7 46 -2 70q4 22 15 32t34 15q121 27 201.5 98.5t99.5 163.5q22 114 -43 185t-188 71q-136 0 -238 -92.5t-133 -257.5l-190 -985h-88q-28 0 -37.5 9t-5.5 32z" />
<glyph unicode="&#xe0;" horiz-adv-x="1218" d="M94 319q32 166 166.5 260.5t329.5 94.5q184 0 319 -74l23 113q28 143 -49 214.5t-238 71.5q-181 0 -319 -69q-17 23 -9 61q7 41 123 84t258 43q207 0 305.5 -106t59.5 -307l-94 -494q-24 -115 55 -115h37q0 -40 -2 -49q-5 -23 -37 -42t-74 -19q-64 0 -96.5 49t-22.5 137 q-77 -92 -188 -144.5t-240 -52.5q-169 0 -252.5 95.5t-54.5 248.5zM229 324q-21 -108 41.5 -170t171.5 -62q111 0 219.5 56.5t194.5 170.5l33 175q-57 28 -142.5 44.5t-166.5 16.5q-143 0 -236 -62t-115 -169zM594 1446q23 37 55 63q18 15 37 15q18 0 31 -19l209 -245 l-52 -46q-15 -12 -26 -12q-15 0 -27 12z" />
<glyph unicode="&#xe1;" horiz-adv-x="1218" d="M94 319q32 166 166.5 260.5t329.5 94.5q184 0 319 -74l23 113q28 143 -49 214.5t-238 71.5q-181 0 -319 -69q-17 23 -9 61q7 41 123 84t258 43q207 0 305.5 -106t59.5 -307l-94 -494q-24 -115 55 -115h37q0 -40 -2 -49q-5 -23 -37 -42t-74 -19q-64 0 -96.5 49t-22.5 137 q-77 -92 -188 -144.5t-240 -52.5q-169 0 -252.5 95.5t-54.5 248.5zM229 324q-21 -108 41.5 -170t171.5 -62q111 0 219.5 56.5t194.5 170.5l33 175q-57 28 -142.5 44.5t-166.5 16.5q-143 0 -236 -62t-115 -169zM578 1260l303 245q25 19 39 19q20 0 32 -15q22 -30 31 -63 l-317 -232q-18 -12 -31 -12q-14 0 -23 12z" />
<glyph unicode="&#xe2;" horiz-adv-x="1218" d="M94 319q32 166 166.5 260.5t329.5 94.5q184 0 319 -74l23 113q28 143 -49 214.5t-238 71.5q-181 0 -319 -69q-17 23 -9 61q7 41 123 84t258 43q207 0 305.5 -106t59.5 -307l-94 -494q-24 -115 55 -115h37q0 -40 -2 -49q-5 -23 -37 -42t-74 -19q-64 0 -96.5 49t-22.5 137 q-77 -92 -188 -144.5t-240 -52.5q-169 0 -252.5 95.5t-54.5 248.5zM229 324q-21 -108 41.5 -170t171.5 -62q111 0 219.5 56.5t194.5 170.5l33 175q-57 28 -142.5 44.5t-166.5 16.5q-143 0 -236 -62t-115 -169zM467 1260q3 12 20 26l287 236h39q29 0 47 -21l207 -246l-57 -51 q-18 -14 -31 -14q-16 0 -33 20l-160 197l-256 -215q-36 14 -53 35q-13 13 -10 33z" />
<glyph unicode="&#xe3;" horiz-adv-x="1218" d="M94 319q32 166 166.5 260.5t329.5 94.5q184 0 319 -74l23 113q28 143 -49 214.5t-238 71.5q-181 0 -319 -69q-17 23 -9 61q7 41 123 84t258 43q207 0 305.5 -106t59.5 -307l-94 -494q-24 -115 55 -115h37q0 -40 -2 -49q-5 -23 -37 -42t-74 -19q-64 0 -96.5 49t-22.5 137 q-77 -92 -188 -144.5t-240 -52.5q-169 0 -252.5 95.5t-54.5 248.5zM229 324q-21 -108 41.5 -170t171.5 -62q111 0 219.5 56.5t194.5 170.5l33 175q-57 28 -142.5 44.5t-166.5 16.5q-143 0 -236 -62t-115 -169zM475 1300q1 9 10.5 31.5t10.5 26.5q65 115 180 115 q71 0 131 -66q54 -57 88 -57q31 0 52 24.5t40 93.5l70 -16q19 -4 22.5 -15.5t-4.5 -33.5q-28 -74 -78.5 -115t-117.5 -41q-71 0 -131 66q-49 57 -86 57q-31 0 -53.5 -25.5t-41.5 -91.5q-44 -3 -75 11q-23 10 -17 36z" />
<glyph unicode="&#xe4;" horiz-adv-x="1218" d="M94 319q32 166 166.5 260.5t329.5 94.5q184 0 319 -74l23 113q28 143 -49 214.5t-238 71.5q-181 0 -319 -69q-17 23 -9 61q7 41 123 84t258 43q207 0 305.5 -106t59.5 -307l-94 -494q-24 -115 55 -115h37q0 -40 -2 -49q-5 -23 -37 -42t-74 -19q-64 0 -96.5 49t-22.5 137 q-77 -92 -188 -144.5t-240 -52.5q-169 0 -252.5 95.5t-54.5 248.5zM229 324q-21 -108 41.5 -170t171.5 -62q111 0 219.5 56.5t194.5 170.5l33 175q-57 28 -142.5 44.5t-166.5 16.5q-143 0 -236 -62t-115 -169zM520 1366q7 38 34.5 61t63.5 23q37 0 58 -25t14 -65 q-7 -39 -35.5 -62.5t-64.5 -23.5q-35 0 -56 25.5t-14 66.5zM870 1366q7 38 35 61t62 23q36 0 57 -25t14 -65q-7 -39 -35.5 -62.5t-64.5 -23.5q-35 0 -55 25.5t-13 66.5z" />
<glyph unicode="&#xe5;" horiz-adv-x="1218" d="M94 319q32 166 166.5 260.5t329.5 94.5q184 0 319 -74l23 113q28 143 -49 214.5t-238 71.5q-181 0 -319 -69q-17 23 -9 61q7 41 123 84t258 43q207 0 305.5 -106t59.5 -307l-94 -494q-24 -115 55 -115h37q0 -40 -2 -49q-5 -23 -37 -42t-74 -19q-64 0 -96.5 49t-22.5 137 q-77 -92 -188 -144.5t-240 -52.5q-169 0 -252.5 95.5t-54.5 248.5zM229 324q-21 -108 41.5 -170t171.5 -62q111 0 219.5 56.5t194.5 170.5l33 175q-57 28 -142.5 44.5t-166.5 16.5q-143 0 -236 -62t-115 -169zM578 1362q15 78 79 130t146 52q80 0 125 -52t30 -130 q-15 -77 -81 -129.5t-146 -52.5q-81 0 -124.5 52t-28.5 130zM666 1368q-9 -52 15 -81.5t71 -29.5q42 0 75.5 28.5t40.5 70.5q10 51 -14.5 80.5t-71.5 29.5q-41 0 -74 -27.5t-42 -70.5z" />
<glyph unicode="&#xe6;" horiz-adv-x="1933" d="M94 317q32 166 166.5 261.5t329.5 95.5q182 0 319 -78l23 117q28 143 -49 214.5t-238 71.5q-181 0 -319 -69q-17 23 -9 61q7 41 123 84t258 43q152 0 248.5 -63t114.5 -181q84 113 212 178.5t261 65.5q190 0 287 -113.5t63 -291.5q-44 -224 -190 -224h-670 q-10 -93 12 -168.5t69 -124.5t113 -75.5t146 -26.5q157 0 289 66q15 -30 8 -62q-8 -40 -108.5 -81.5t-229.5 -41.5q-145 0 -250 67t-153 187q-100 -122 -229 -188t-273 -66q-182 0 -268 95.5t-56 246.5zM229 319q-21 -105 41.5 -166t171.5 -61q115 0 230.5 62.5t204.5 191.5 q0 64 12 141q-56 32 -141.5 50t-167.5 18q-143 0 -236.5 -64.5t-114.5 -171.5zM1047 606h663q27 40 41 103q25 131 -43.5 210.5t-204.5 79.5q-98 0 -189.5 -47t-163 -137.5t-103.5 -208.5z" />
<glyph unicode="&#xe7;" horiz-adv-x="1128" d="M139 350.5q-18 102.5 6 231.5q32 163 126 286.5t222.5 186.5t272.5 63q141 0 236 -63.5t124 -159.5q4 -12 4 -31q-6 -25 -32 -39q-42 -23 -99 -30q-18 94 -83 149t-179 55q-161 0 -289.5 -113t-164.5 -302q-22 -123 -0.5 -215.5t78.5 -153.5t133 -92t163 -31 q154 0 283 66q14 -25 10 -62q-8 -40 -105 -79t-220 -42l-70 -94q94 -14 138.5 -62.5t31.5 -121.5q-17 -87 -89 -135.5t-179 -48.5q-77 0 -135 22l10 53q8 31 33 31q9 0 42.5 -6t55.5 -6q60 0 99 24t48 68q11 53 -32.5 84.5t-143.5 40.5q-23 9 -20 24q1 2 3 6.5t3 6.5l92 125 q-94 16 -171.5 63t-130.5 123t-71 178.5z" />
<glyph unicode="&#xe8;" horiz-adv-x="1175" d="M141 553q33 169 132 299.5t230.5 198t272.5 67.5q189 0 286.5 -113.5t63.5 -289.5q-16 -84 -55 -150q-26 -44 -55.5 -60t-79.5 -16h-670q-10 -93 12 -168.5t69 -124.5t113 -75.5t146 -26.5q157 0 289 66q15 -30 8 -62q-8 -40 -108.5 -81.5t-229.5 -41.5 q-232 0 -352.5 161.5t-71.5 416.5zM289 606h663q29 47 41 105q25 130 -43.5 209t-206.5 79q-149 0 -278.5 -108t-175.5 -285zM612 1446q22 35 56 63q18 15 37 15q17 0 30 -19l209 -245l-51 -46q-15 -12 -27 -12q-14 0 -26 12z" />
<glyph unicode="&#xe9;" horiz-adv-x="1175" d="M141 553q33 169 132 299.5t230.5 198t272.5 67.5q189 0 286.5 -113.5t63.5 -289.5q-16 -84 -55 -150q-26 -44 -55.5 -60t-79.5 -16h-670q-10 -93 12 -168.5t69 -124.5t113 -75.5t146 -26.5q157 0 289 66q15 -30 8 -62q-8 -40 -108.5 -81.5t-229.5 -41.5 q-232 0 -352.5 161.5t-71.5 416.5zM289 606h663q29 47 41 105q25 130 -43.5 209t-206.5 79q-149 0 -278.5 -108t-175.5 -285zM584 1260l303 245q25 19 39 19q20 0 32 -15q22 -30 31 -63l-317 -232q-18 -12 -31 -12q-14 0 -23 12z" />
<glyph unicode="&#xea;" horiz-adv-x="1175" d="M141 553q33 169 132 299.5t230.5 198t272.5 67.5q189 0 286.5 -113.5t63.5 -289.5q-16 -84 -55 -150q-26 -44 -55.5 -60t-79.5 -16h-670q-10 -93 12 -168.5t69 -124.5t113 -75.5t146 -26.5q157 0 289 66q15 -30 8 -62q-8 -40 -108.5 -81.5t-229.5 -41.5 q-232 0 -352.5 161.5t-71.5 416.5zM289 606h663q29 47 41 105q25 130 -43.5 209t-206.5 79q-149 0 -278.5 -108t-175.5 -285zM483 1260q3 12 21 26l287 236h38q30 0 48 -21l206 -246l-57 -51q-18 -14 -31 -14q-15 0 -32 20l-160 197l-256 -215q-36 14 -53 35q-14 14 -11 33z " />
<glyph unicode="&#xeb;" horiz-adv-x="1175" d="M141 553q33 169 132 299.5t230.5 198t272.5 67.5q189 0 286.5 -113.5t63.5 -289.5q-16 -84 -55 -150q-26 -44 -55.5 -60t-79.5 -16h-670q-10 -93 12 -168.5t69 -124.5t113 -75.5t146 -26.5q157 0 289 66q15 -30 8 -62q-8 -40 -108.5 -81.5t-229.5 -41.5 q-232 0 -352.5 161.5t-71.5 416.5zM289 606h663q29 47 41 105q25 130 -43.5 209t-206.5 79q-149 0 -278.5 -108t-175.5 -285zM541 1366q7 38 34.5 61t63.5 23q37 0 58 -25t14 -65q-7 -39 -36 -62.5t-65 -23.5q-35 0 -55.5 25.5t-13.5 66.5zM891 1366q7 38 34.5 61t61.5 23 q37 0 58 -25t14 -65q-7 -39 -36 -62.5t-65 -23.5q-35 0 -54.5 25t-12.5 67z" />
<glyph unicode="&#xec;" horiz-adv-x="538" d="M139 197l174 893q58 14 95 14q23 0 31 -8.5t5 -26.5l-165 -858q-24 -115 55 -115h37q0 -40 -2 -49q-5 -24 -38 -42.5t-81 -18.5q-69 0 -100.5 53t-10.5 158zM205 1446q23 37 55 63q18 15 37 15q18 0 31 -19l209 -245l-52 -46q-15 -12 -26 -12q-15 0 -27 12z" />
<glyph unicode="&#xed;" horiz-adv-x="538" d="M139 197l174 893q58 14 95 14q23 0 31 -8.5t5 -26.5l-165 -858q-24 -115 55 -115h37q0 -40 -2 -49q-5 -24 -38 -42.5t-81 -18.5q-69 0 -100.5 53t-10.5 158zM283 1260l303 245q25 19 39 19q20 0 32 -15q22 -30 31 -63l-317 -232q-18 -12 -31 -12q-14 0 -23 12z" />
<glyph unicode="&#xee;" horiz-adv-x="538" d="M121 1260q3 12 20 26l287 236h39q29 0 47 -21l207 -246l-57 -51q-18 -14 -31 -14q-16 0 -33 20l-160 197l-256 -215q-36 14 -53 35q-13 13 -10 33zM139 197l174 893q58 14 95 14q23 0 31 -8.5t5 -26.5l-165 -858q-24 -115 55 -115h37q0 -40 -2 -49q-5 -24 -38 -42.5 t-81 -18.5q-69 0 -100.5 53t-10.5 158z" />
<glyph unicode="&#xef;" horiz-adv-x="538" d="M139 197l174 893q58 14 95 14q23 0 31 -8.5t5 -26.5l-165 -858q-24 -115 55 -115h37q0 -40 -2 -49q-5 -24 -38 -42.5t-81 -18.5q-69 0 -100.5 53t-10.5 158zM176 1366q7 38 34.5 61t63.5 23q37 0 58 -25t14 -65q-7 -39 -35.5 -62.5t-64.5 -23.5q-35 0 -56 25.5t-14 66.5z M526 1366q7 38 35 61t62 23q36 0 57 -25t14 -65q-7 -39 -35.5 -62.5t-64.5 -23.5q-35 0 -55 25.5t-13 66.5z" />
<glyph unicode="&#xf0;" horiz-adv-x="1224" d="M104 430q25 127 90 233t150.5 174.5t184 106t196.5 37.5q100 0 186.5 -33.5t139.5 -101.5q35 217 -15 366l-225 -120q-33 -17 -43 8q-12 27 -12 59l239 129q-81 113 -252 113q-143 0 -276 -62q-7 9 -10 27t0 33q8 40 112.5 80.5t218.5 40.5q227 0 332 -162l125 67 q22 11 34 7t21 -27l17 -39l-156 -86q73 -199 4 -557q-71 -365 -251.5 -556.5t-438.5 -191.5q-199 0 -304 127t-67 328zM242 432q-29 -149 42.5 -244.5t215.5 -95.5q188 0 327 153t197 451l4 21q-108 145 -313 145q-163 0 -299 -114.5t-174 -315.5z" />
<glyph unicode="&#xf1;" horiz-adv-x="1312" d="M109 39l204 1051q58 14 95 14q23 0 31 -8.5t5 -26.5l-20 -100q212 149 426 149q189 0 264 -121.5t33 -337.5l-86 -448q-24 -115 55 -115h37q0 -40 -2 -49q-5 -24 -38 -42.5t-81 -18.5q-69 0 -100 53t-10 158l90 465q66 337 -215 337q-95 0 -200.5 -39t-195.5 -112 l-163 -848h-86q-28 0 -37.5 8.5t-5.5 30.5zM520 1300q1 9 10.5 31.5t10.5 26.5q65 115 180 115q71 0 131 -66q54 -57 88 -57q31 0 52 24.5t40 93.5l70 -16q19 -4 22.5 -15.5t-4.5 -33.5q-28 -74 -78.5 -115t-117.5 -41q-71 0 -131 66q-49 57 -86 57q-31 0 -53.5 -25.5 t-41.5 -91.5q-44 -3 -75 11q-23 10 -17 36z" />
<glyph unicode="&#xf2;" horiz-adv-x="1286" d="M134.5 306q-21.5 106 4.5 241q35 175 133.5 306.5t230 198t275.5 66.5q107 0 195 -38.5t146 -112t79 -179.5t-6 -241q-26 -131 -89 -240.5t-149 -181t-189 -111t-210 -39.5t-195 38.5t-146 112.5t-79.5 180zM272 357q15 -87 60.5 -145.5t110.5 -88t145 -29.5q75 0 148 28 t137.5 80.5t112.5 138.5t69 194q21 115 5.5 202t-61 145t-111 87.5t-145.5 29.5q-76 0 -148.5 -27.5t-136 -80.5t-111 -138.5t-68.5 -193.5q-22 -115 -7 -202zM616 1446q22 35 56 63q18 15 37 15q17 0 30 -19l209 -245l-51 -46q-15 -12 -27 -12q-14 0 -26 12z" />
<glyph unicode="&#xf3;" horiz-adv-x="1286" d="M134.5 306q-21.5 106 4.5 241q35 175 133.5 306.5t230 198t275.5 66.5q107 0 195 -38.5t146 -112t79 -179.5t-6 -241q-26 -131 -89 -240.5t-149 -181t-189 -111t-210 -39.5t-195 38.5t-146 112.5t-79.5 180zM272 357q15 -87 60.5 -145.5t110.5 -88t145 -29.5q75 0 148 28 t137.5 80.5t112.5 138.5t69 194q21 115 5.5 202t-61 145t-111 87.5t-145.5 29.5q-76 0 -148.5 -27.5t-136 -80.5t-111 -138.5t-68.5 -193.5q-22 -115 -7 -202zM641 1260l303 245q25 19 39 19q21 0 33 -15q22 -30 31 -63l-318 -232q-18 -12 -31 -12t-22 12z" />
<glyph unicode="&#xf4;" horiz-adv-x="1286" d="M134.5 306q-21.5 106 4.5 241q35 175 133.5 306.5t230 198t275.5 66.5q107 0 195 -38.5t146 -112t79 -179.5t-6 -241q-26 -131 -89 -240.5t-149 -181t-189 -111t-210 -39.5t-195 38.5t-146 112.5t-79.5 180zM272 357q15 -87 60.5 -145.5t110.5 -88t145 -29.5q75 0 148 28 t137.5 80.5t112.5 138.5t69 194q21 115 5.5 202t-61 145t-111 87.5t-145.5 29.5q-76 0 -148.5 -27.5t-136 -80.5t-111 -138.5t-68.5 -193.5q-22 -115 -7 -202zM512 1260q3 12 20 26l287 236h39q29 0 47 -21l207 -246l-57 -51q-17 -14 -31 -14q-16 0 -33 20l-160 197 l-256 -215q-36 14 -53 35q-13 13 -10 33z" />
<glyph unicode="&#xf5;" horiz-adv-x="1286" d="M134.5 306q-21.5 106 4.5 241q35 175 133.5 306.5t230 198t275.5 66.5q107 0 195 -38.5t146 -112t79 -179.5t-6 -241q-26 -131 -89 -240.5t-149 -181t-189 -111t-210 -39.5t-195 38.5t-146 112.5t-79.5 180zM272 357q15 -87 60.5 -145.5t110.5 -88t145 -29.5q75 0 148 28 t137.5 80.5t112.5 138.5t69 194q21 115 5.5 202t-61 145t-111 87.5t-145.5 29.5q-76 0 -148.5 -27.5t-136 -80.5t-111 -138.5t-68.5 -193.5q-22 -115 -7 -202zM520 1300q1 9 10.5 31.5t10.5 26.5q65 115 180 115q71 0 131 -66q54 -57 88 -57q31 0 52 24.5t40 93.5l70 -16 q19 -4 22.5 -15.5t-4.5 -33.5q-28 -74 -78.5 -115t-117.5 -41q-71 0 -131 66q-49 57 -86 57q-31 0 -53.5 -25.5t-41.5 -91.5q-44 -3 -75 11q-23 10 -17 36z" />
<glyph unicode="&#xf6;" horiz-adv-x="1286" d="M134.5 306q-21.5 106 4.5 241q35 175 133.5 306.5t230 198t275.5 66.5q107 0 195 -38.5t146 -112t79 -179.5t-6 -241q-26 -131 -89 -240.5t-149 -181t-189 -111t-210 -39.5t-195 38.5t-146 112.5t-79.5 180zM272 357q15 -87 60.5 -145.5t110.5 -88t145 -29.5q75 0 148 28 t137.5 80.5t112.5 138.5t69 194q21 115 5.5 202t-61 145t-111 87.5t-145.5 29.5q-76 0 -148.5 -27.5t-136 -80.5t-111 -138.5t-68.5 -193.5q-22 -115 -7 -202zM565 1366q7 38 35 61t64 23t57 -25t14 -65q-7 -39 -35.5 -62.5t-64.5 -23.5q-35 0 -56 25.5t-14 66.5zM915 1366 q7 38 35 61t62 23q36 0 57 -25t14 -65q-7 -39 -35.5 -62.5t-64.5 -23.5q-35 0 -55 25.5t-13 66.5z" />
<glyph unicode="&#xf7;" horiz-adv-x="1349" d="M221 659q0 45 10 78h928q23 0 32 -10.5t9 -38.5v-67h-946q-33 0 -33 38zM621 295q0 40 25 65t63 25t65 -27t27 -71q0 -39 -24.5 -64.5t-61.5 -25.5q-38 0 -66 27t-28 71zM621 1071q0 39 25.5 64.5t62.5 25.5q38 0 65 -27t27 -71q0 -41 -24.5 -65.5t-61.5 -24.5 q-38 0 -66 27t-28 71z" />
<glyph unicode="&#xf8;" horiz-adv-x="1286" d="M27 25q0 11 18 26l137 123q-85 151 -43 373q35 175 133.5 306.5t230 198t275.5 66.5q197 0 318 -127l112 103h56q22 0 31.5 -7t7.5 -20q-4 -12 -15 -23l-139 -124q87 -154 43 -373q-26 -131 -89 -240.5t-149 -181t-189 -111t-210 -39.5q-201 0 -319 127l-113 -102h-62 q-21 0 -29 7t-5 18zM279 559q-35 -163 16 -285l692 621q-88 104 -244 104q-76 0 -148.5 -27.5t-136 -80.5t-111 -138.5t-68.5 -193.5zM342 199q88 -105 246 -105q75 0 148 28t137.5 80.5t112.5 138.5t69 194q32 162 -19 284z" />
<glyph unicode="&#xf9;" horiz-adv-x="1253" d="M172 461l123 629q54 14 94 14q22 0 31 -9t6 -26l-121 -616q-31 -163 43 -262t213 -99t251.5 98.5t143.5 262.5l125 641h84q27 0 36.5 -9.5t4.5 -31.5l-114 -592q-42 -222 -196 -354t-357 -132q-204 0 -306.5 131.5t-60.5 354.5zM600 1446q23 37 55 63q18 15 37 15 q18 0 31 -19l209 -245l-51 -46q-15 -12 -27 -12q-15 0 -27 12z" />
<glyph unicode="&#xfa;" horiz-adv-x="1253" d="M172 461l123 629q54 14 94 14q22 0 31 -9t6 -26l-121 -616q-31 -163 43 -262t213 -99t251.5 98.5t143.5 262.5l125 641h84q27 0 36.5 -9.5t4.5 -31.5l-114 -592q-42 -222 -196 -354t-357 -132q-204 0 -306.5 131.5t-60.5 354.5zM625 1260l303 245q25 19 39 19 q20 0 32 -15q22 -30 31 -63l-317 -232q-18 -12 -31 -12q-14 0 -23 12z" />
<glyph unicode="&#xfb;" horiz-adv-x="1253" d="M172 461l123 629q54 14 94 14q22 0 31 -9t6 -26l-121 -616q-31 -163 43 -262t213 -99t251.5 98.5t143.5 262.5l125 641h84q27 0 36.5 -9.5t4.5 -31.5l-114 -592q-42 -222 -196 -354t-357 -132q-204 0 -306.5 131.5t-60.5 354.5zM494 1260q3 12 20 26l287 236h39 q29 0 47 -21l207 -246l-58 -51q-18 -14 -30 -14q-16 0 -33 20l-160 197l-256 -215q-36 14 -53 35q-13 13 -10 33z" />
<glyph unicode="&#xfc;" horiz-adv-x="1253" d="M172 461l123 629q54 14 94 14q22 0 31 -9t6 -26l-121 -616q-31 -163 43 -262t213 -99t251.5 98.5t143.5 262.5l125 641h84q27 0 36.5 -9.5t4.5 -31.5l-114 -592q-42 -222 -196 -354t-357 -132q-204 0 -306.5 131.5t-60.5 354.5zM549 1366q7 38 34.5 61t63.5 23 q37 0 58 -25t14 -65q-7 -39 -36 -62.5t-65 -23.5q-35 0 -55.5 25.5t-13.5 66.5zM899 1366q7 38 34.5 61t61.5 23q37 0 58 -25t14 -65q-7 -39 -35.5 -62.5t-64.5 -23.5q-35 0 -55 25.5t-13 66.5z" />
<glyph unicode="&#xfd;" horiz-adv-x="1284" d="M66 -236q30 159 215 263q-78 54 -103 158t4 249l127 656q43 14 97 14q22 0 29.5 -8t4.5 -25l-123 -639q-33 -168 18.5 -253t194.5 -85q95 0 201.5 39t196.5 111l164 850h86q27 0 36.5 -9.5t4.5 -31.5l-201 -1035q-22 -111 -75.5 -206t-134 -166.5t-193 -112.5t-242.5 -41 q-162 0 -246 75t-61 197zM203 -225q-14 -73 39 -119.5t153 -46.5q195 0 322.5 106t163.5 289l24 125q-96 -72 -207 -113t-219 -41q-50 0 -104 13q-147 -87 -172 -213zM641 1260l303 245q25 19 39 19q21 0 33 -15q22 -30 31 -63l-318 -232q-18 -12 -31 -12t-22 12z" />
<glyph unicode="&#xfe;" horiz-adv-x="1306" d="M35 -354l358 1845q43 14 94 14q22 0 30 -7.5t5 -24.5l-112 -582q84 107 199.5 167t250.5 60q204 0 306.5 -141.5t56.5 -384.5q-34 -172 -132 -313.5t-238 -222.5t-292 -81q-200 0 -307 119l-94 -489h-84q-28 0 -37 9t-4 32zM281 227q109 -133 288 -133q180 0 327 142.5 t187 353.5q38 194 -36.5 302.5t-233.5 108.5q-117 0 -235 -79.5t-207 -229.5z" />
<glyph unicode="&#xff;" horiz-adv-x="1284" d="M66 -236q30 159 215 263q-78 54 -103 158t4 249l127 656q43 14 97 14q22 0 29.5 -8t4.5 -25l-123 -639q-33 -168 18.5 -253t194.5 -85q95 0 201.5 39t196.5 111l164 850h86q27 0 36.5 -9.5t4.5 -31.5l-201 -1035q-22 -111 -75.5 -206t-134 -166.5t-193 -112.5t-242.5 -41 q-162 0 -246 75t-61 197zM203 -225q-14 -73 39 -119.5t153 -46.5q195 0 322.5 106t163.5 289l24 125q-96 -72 -207 -113t-219 -41q-50 0 -104 13q-147 -87 -172 -213zM559 1366q7 38 34.5 61t63.5 23q37 0 58 -25t14 -65q-7 -39 -35.5 -62.5t-64.5 -23.5q-35 0 -56 25.5 t-14 66.5zM909 1366q7 38 35 61t62 23q36 0 57 -25t14 -65q-7 -39 -35.5 -62.5t-64.5 -23.5q-35 0 -55 25.5t-13 66.5z" />
<glyph unicode="&#x100;" horiz-adv-x="1359" d="M-23 29q3 9 9 18l796 1370q66 27 127 27q27 0 38 -10t16 -35l270 -1399h-100q-28 0 -40 8t-14 27l-63 356h-686l-224 -391h-88q-22 0 -33 8t-8 21zM395 512h598l-145 791zM655 1706q6 23 21 63h500q20 0 26 -9.5t2 -35.5l-10 -57h-516q-29 0 -23 39z" />
<glyph unicode="&#x101;" horiz-adv-x="1218" d="M94 319q32 166 166.5 260.5t329.5 94.5q184 0 319 -74l23 113q28 143 -49 214.5t-238 71.5q-181 0 -319 -69q-17 23 -9 61q7 41 123 84t258 43q207 0 305.5 -106t59.5 -307l-94 -494q-24 -115 55 -115h37q0 -40 -2 -49q-5 -23 -37 -42t-74 -19q-64 0 -96.5 49t-22.5 137 q-77 -92 -188 -144.5t-240 -52.5q-169 0 -252.5 95.5t-54.5 248.5zM229 324q-21 -108 41.5 -170t171.5 -62q111 0 219.5 56.5t194.5 170.5l33 175q-57 28 -142.5 44.5t-166.5 16.5q-143 0 -236 -62t-115 -169zM504 1348q8 32 20 63h500q21 0 27 -9.5t2 -35.5l-11 -57h-516 q-28 0 -22 39z" />
<glyph unicode="&#x102;" horiz-adv-x="1359" d="M-23 29q3 9 9 18l796 1370q66 27 127 27q27 0 38 -10t16 -35l270 -1399h-100q-28 0 -40 8t-14 27l-63 356h-686l-224 -391h-88q-22 0 -33 8t-8 21zM395 512h598l-145 791zM666 1833q50 22 84 22q21 0 26.5 -6.5t5.5 -29.5q1 -75 37.5 -114.5t102.5 -39.5q149 0 211 190 h65q28 0 35.5 -8t-0.5 -28q-34 -108 -123 -179t-209 -71q-116 0 -179 69t-56 195z" />
<glyph unicode="&#x103;" horiz-adv-x="1218" d="M94 319q32 166 166.5 260.5t329.5 94.5q184 0 319 -74l23 113q28 143 -49 214.5t-238 71.5q-181 0 -319 -69q-17 23 -9 61q7 41 123 84t258 43q207 0 305.5 -106t59.5 -307l-94 -494q-24 -115 55 -115h37q0 -40 -2 -49q-5 -23 -37 -42t-74 -19q-64 0 -96.5 49t-22.5 137 q-77 -92 -188 -144.5t-240 -52.5q-169 0 -252.5 95.5t-54.5 248.5zM229 324q-21 -108 41.5 -170t171.5 -62q111 0 219.5 56.5t194.5 170.5l33 175q-57 28 -142.5 44.5t-166.5 16.5q-143 0 -236 -62t-115 -169zM514 1475q50 22 84 22q21 0 27 -7t6 -30q1 -75 37 -114t102 -39 q149 0 211 190h66q27 0 34.5 -8.5t-0.5 -28.5q-34 -108 -122.5 -179t-208.5 -71q-116 0 -179.5 69.5t-56.5 195.5z" />
<glyph unicode="&#x104;" horiz-adv-x="1359" d="M-23 29q3 9 9 18l796 1370q66 27 127 27q27 0 38 -10t16 -35l270 -1399q-91 -56 -141.5 -118.5t-61.5 -123.5q-10 -48 16.5 -79t90.5 -31q45 0 82 12q23 8 32 1t6 -30l-12 -53q-57 -29 -143 -29q-108 0 -158 54.5t-31 144.5q12 67 65 136.5t132 117.5q-28 6 -31 33 l-63 356h-686l-224 -391h-88q-22 0 -33 8t-8 21zM395 512h598l-145 791z" />
<glyph unicode="&#x105;" horiz-adv-x="1204" d="M94 319q32 166 166.5 260.5t329.5 94.5q184 0 319 -74l23 113q28 143 -49 214.5t-238 71.5q-181 0 -319 -69q-17 23 -9 61q7 41 123 84t258 43q207 0 305.5 -106t59.5 -307l-94 -494q-24 -115 55 -115h37q0 -40 -2 -49q-5 -23 -37 -42t-74 -19h-6q-158 -105 -178 -228 q-10 -48 16 -79t90 -31q44 0 82 12q23 8 32.5 1t6.5 -30l-12 -53q-57 -29 -143 -29q-108 0 -158 54.5t-31 144.5q14 82 74 151.5t145 116.5q-51 51 -37 156q-77 -92 -188 -144.5t-240 -52.5q-169 0 -252.5 95.5t-54.5 248.5zM229 324q-21 -108 41.5 -170t171.5 -62 q111 0 219.5 56.5t194.5 170.5l33 175q-57 28 -142.5 44.5t-166.5 16.5q-143 0 -236 -62t-115 -169z" />
<glyph unicode="&#x106;" horiz-adv-x="1406" d="M187.5 436.5q-30.5 145.5 5.5 325.5q31 162 110 296t184.5 220t229.5 133t250 47q189 0 313.5 -82.5t165.5 -218.5q6 -17 2 -31q-2 -17 -31 -36q-53 -29 -102 -35q-32 134 -131 207t-248 73q-96 0 -191 -38t-178 -108t-146 -179.5t-89 -241.5q-30 -158 -4 -283 t96.5 -211.5t177.5 -132t238 -45.5q194 0 358 84q12 -26 4 -65q-8 -45 -131 -92.5t-272 -47.5q-160 0 -289 55.5t-210.5 158t-112 248zM813 1616l303 246q21 18 39 18q22 0 33 -14q22 -29 31 -64l-318 -231q-18 -12 -33 -12q-11 0 -20 12z" />
<glyph unicode="&#x107;" horiz-adv-x="1128" d="M144.5 324q-26.5 113 0.5 258q32 163 126 286.5t222.5 186.5t272.5 63q141 0 236 -63.5t124 -159.5q4 -12 4 -31q-6 -25 -32 -39q-42 -23 -99 -30q-18 94 -83 149t-179 55q-161 0 -289.5 -113t-164.5 -302q-22 -123 -0.5 -215.5t78.5 -153.5t133 -92t163 -31 q154 0 283 66q14 -25 10 -62q-8 -40 -110.5 -80.5t-227.5 -40.5q-112 0 -208 40.5t-164.5 118t-95 190.5zM590 1260l303 245q25 19 39 19q21 0 33 -15q21 -28 30 -63l-317 -232q-18 -12 -31 -12t-22 12z" />
<glyph unicode="&#x108;" horiz-adv-x="1406" d="M187.5 436.5q-30.5 145.5 5.5 325.5q31 162 110 296t184.5 220t229.5 133t250 47q189 0 313.5 -82.5t165.5 -218.5q6 -17 2 -31q-2 -17 -31 -36q-53 -29 -102 -35q-32 134 -131 207t-248 73q-96 0 -191 -38t-178 -108t-146 -179.5t-89 -241.5q-30 -158 -4 -283 t96.5 -211.5t177.5 -132t238 -45.5q194 0 358 84q12 -26 4 -65q-8 -45 -131 -92.5t-272 -47.5q-160 0 -289 55.5t-210.5 158t-112 248zM692 1616q2 9 19 26l288 236h39q18 0 26 -3.5t21 -16.5l205 -246l-55 -51q-19 -15 -31 -15q-15 0 -33 21l-159 196l-258 -215 q-34 14 -52 35q-13 13 -10 33z" />
<glyph unicode="&#x109;" horiz-adv-x="1128" d="M144.5 324q-26.5 113 0.5 258q32 163 126 286.5t222.5 186.5t272.5 63q141 0 236 -63.5t124 -159.5q4 -12 4 -31q-6 -25 -32 -39q-42 -23 -99 -30q-18 94 -83 149t-179 55q-161 0 -289.5 -113t-164.5 -302q-22 -123 -0.5 -215.5t78.5 -153.5t133 -92t163 -31 q154 0 283 66q14 -25 10 -62q-8 -40 -110.5 -80.5t-227.5 -40.5q-112 0 -208 40.5t-164.5 118t-95 190.5zM467 1260q3 12 20 26l287 236h39q29 0 47 -21l207 -246l-57 -51q-18 -14 -31 -14q-16 0 -33 20l-160 197l-256 -215q-36 14 -53 35q-13 13 -10 33z" />
<glyph unicode="&#x10a;" horiz-adv-x="1406" d="M187.5 436.5q-30.5 145.5 5.5 325.5q31 162 110 296t184.5 220t229.5 133t250 47q189 0 313.5 -82.5t165.5 -218.5q6 -17 2 -31q-2 -17 -31 -36q-53 -29 -102 -35q-32 134 -131 207t-248 73q-96 0 -191 -38t-178 -108t-146 -179.5t-89 -241.5q-30 -158 -4 -283 t96.5 -211.5t177.5 -132t238 -45.5q194 0 358 84q12 -26 4 -65q-8 -45 -131 -92.5t-272 -47.5q-160 0 -289 55.5t-210.5 158t-112 248zM920 1722q7 37 35 60.5t63 23.5q37 0 57.5 -25t11.5 -65q-7 -39 -34.5 -62.5t-63.5 -23.5q-35 0 -55.5 25.5t-13.5 66.5z" />
<glyph unicode="&#x10b;" horiz-adv-x="1128" d="M144.5 324q-26.5 113 0.5 258q32 163 126 286.5t222.5 186.5t272.5 63q141 0 236 -63.5t124 -159.5q4 -12 4 -31q-6 -25 -32 -39q-42 -23 -99 -30q-18 94 -83 149t-179 55q-161 0 -289.5 -113t-164.5 -302q-22 -123 -0.5 -215.5t78.5 -153.5t133 -92t163 -31 q154 0 283 66q14 -25 10 -62q-8 -40 -110.5 -80.5t-227.5 -40.5q-112 0 -208 40.5t-164.5 118t-95 190.5zM705 1366q7 37 35 60.5t63 23.5q36 0 57 -25t14 -65q-7 -39 -35.5 -62.5t-64.5 -23.5q-35 0 -55.5 25.5t-13.5 66.5z" />
<glyph unicode="&#x10c;" horiz-adv-x="1406" d="M187.5 436.5q-30.5 145.5 5.5 325.5q31 162 110 296t184.5 220t229.5 133t250 47q189 0 313.5 -82.5t165.5 -218.5q6 -17 2 -31q-2 -17 -31 -36q-53 -29 -102 -35q-32 134 -131 207t-248 73q-96 0 -191 -38t-178 -108t-146 -179.5t-89 -241.5q-30 -158 -4 -283 t96.5 -211.5t177.5 -132t238 -45.5q194 0 358 84q12 -26 4 -65q-8 -45 -131 -92.5t-272 -47.5q-160 0 -289 55.5t-210.5 158t-112 248zM739 1808q51 70 86 70q19 0 52 -41l141 -176l266 223l47 -53q10 -14 8 -21q-3 -13 -20 -28l-289 -236h-39q-18 0 -26 4t-21 17z" />
<glyph unicode="&#x10d;" horiz-adv-x="1128" d="M144.5 324q-26.5 113 0.5 258q32 163 126 286.5t222.5 186.5t272.5 63q141 0 236 -63.5t124 -159.5q4 -12 4 -31q-6 -25 -32 -39q-42 -23 -99 -30q-18 94 -83 149t-179 55q-161 0 -289.5 -113t-164.5 -302q-22 -123 -0.5 -215.5t78.5 -153.5t133 -92t163 -31 q154 0 283 66q14 -25 10 -62q-8 -40 -110.5 -80.5t-227.5 -40.5q-112 0 -208 40.5t-164.5 118t-95 190.5zM500 1452q54 70 86 70q12 0 22.5 -9t28.5 -32l141 -176l269 223l45 -53q10 -10 10 -21q-2 -11 -23 -29l-288 -235h-39q-18 0 -26 3.5t-21 16.5z" />
<glyph unicode="&#x10e;" horiz-adv-x="1480" d="M186 330l215 1104h459q148 0 264.5 -49.5t190 -142.5t100.5 -225.5t-6 -299.5q-43 -218 -164.5 -382t-293 -249.5t-369.5 -85.5h-181q-142 0 -196.5 75.5t-18.5 254.5zM328 168q24 -47 112 -47h156q114 0 221 38.5t197.5 111.5t158 188t95.5 258q27 147 5 258.5 t-85 186.5t-155 113t-206 38h-311l-188 -969q-24 -129 0 -176zM616 1808q51 70 86 70q19 0 52 -41l141 -176l266 223l47 -53q11 -15 9 -21q-2 -12 -21 -28l-289 -236h-39q-18 0 -26 4t-21 17z" />
<glyph unicode="&#x10f;" horiz-adv-x="1484" d="M129 502q34 172 132 313t238 222t292 81q201 0 305 -119l96 496h86q26 0 36 -9.5t7 -31.5l-242 -1243q-24 -115 56 -115h36q0 -40 -2 -49q-5 -23 -36.5 -42t-73.5 -19q-67 0 -101.5 58t-15.5 159q-78 -103 -196.5 -165.5t-253.5 -62.5q-204 0 -306.5 142t-56.5 385z M266 504q-38 -193 37.5 -302.5t235.5 -109.5q117 0 235 79.5t207 229.5l90 465q-109 133 -291 133q-179 0 -326 -142t-188 -353zM1386 1120q111 90 146 199q-30 6 -45 31.5t-8 64.5t37 64.5t67 25.5q39 0 60.5 -27t11.5 -77q-26 -146 -144 -254q-35 -33 -66 -50.5t-40 -13.5 q-19 11 -19 37z" />
<glyph unicode="&#x110;" horiz-adv-x="1480" d="M115 700q8 40 20 64h135l131 670h459q148 0 264.5 -49.5t190 -142.5t100.5 -225.5t-6 -299.5q-43 -218 -164.5 -382t-293 -249.5t-369.5 -85.5h-181q-142 0 -196.5 75.5t-18.5 254.5l66 338h-109q-34 0 -28 32zM328 168q24 -47 112 -47h156q114 0 221 38.5t197.5 111.5 t158 188t95.5 258q27 147 5 258.5t-85 186.5t-155 113t-206 38h-311l-106 -549h419q22 0 28.5 -10.5t0.5 -38.5l-8 -47h-459l-63 -324q-24 -129 0 -176z" />
<glyph unicode="&#x111;" horiz-adv-x="1316" d="M129 502q34 172 132 313t238 222t292 81q201 0 305 -119l49 252h-350q-35 0 -29 33q5 23 20 64h377l29 147h86q26 0 36 -9.5t7 -31.5l-23 -106h86q23 0 30.5 -11.5t2.5 -38.5l-10 -47h-127l-201 -1040q-24 -115 56 -115h36q0 -40 -2 -49q-5 -23 -36.5 -42t-73.5 -19 q-67 0 -101.5 58t-15.5 159q-78 -103 -196.5 -165.5t-253.5 -62.5q-204 0 -306.5 142t-56.5 385zM266 504q-38 -193 37.5 -302.5t235.5 -109.5q117 0 235 79.5t207 229.5l90 465q-109 133 -291 133q-179 0 -326 -142t-188 -353z" />
<glyph unicode="&#x112;" horiz-adv-x="1167" d="M184 328l215 1106h799q31 0 25 -41q-7 -33 -27 -82h-682l-106 -543h540q23 0 30.5 -11t2.5 -38l-14 -72h-582l-59 -305q-24 -122 3.5 -171.5t108.5 -49.5h512q23 0 30 -11.5t1 -39.5l-12 -70h-568q-143 0 -198 75.5t-19 252.5zM586 1706q8 32 20 63h500q21 0 27 -9.5 t2 -35.5l-11 -57h-516q-28 0 -22 39z" />
<glyph unicode="&#x113;" horiz-adv-x="1175" d="M141 553q33 169 132 299.5t230.5 198t272.5 67.5q189 0 286.5 -113.5t63.5 -289.5q-16 -84 -55 -150q-26 -44 -55.5 -60t-79.5 -16h-670q-10 -93 12 -168.5t69 -124.5t113 -75.5t146 -26.5q157 0 289 66q15 -30 8 -62q-8 -40 -108.5 -81.5t-229.5 -41.5 q-232 0 -352.5 161.5t-71.5 416.5zM289 606h663q29 47 41 105q25 130 -43.5 209t-206.5 79q-149 0 -278.5 -108t-175.5 -285zM532 1348q6 23 21 63h500q20 0 26 -9.5t2 -35.5l-10 -57h-516q-29 0 -23 39z" />
<glyph unicode="&#x114;" horiz-adv-x="1167" d="M184 328l215 1106h799q31 0 25 -41q-7 -33 -27 -82h-682l-106 -543h540q23 0 30.5 -11t2.5 -38l-14 -72h-582l-59 -305q-24 -122 3.5 -171.5t108.5 -49.5h512q23 0 30 -11.5t1 -39.5l-12 -70h-568q-143 0 -198 75.5t-19 252.5zM596 1833q50 22 84 22q21 0 27 -7t6 -29 q1 -75 37 -114.5t102 -39.5q149 0 211 190h65q28 0 35.5 -8t-0.5 -28q-34 -108 -123 -179t-209 -71q-116 0 -179 69t-56 195z" />
<glyph unicode="&#x115;" horiz-adv-x="1175" d="M141 553q33 169 132 299.5t230.5 198t272.5 67.5q189 0 286.5 -113.5t63.5 -289.5q-16 -84 -55 -150q-26 -44 -55.5 -60t-79.5 -16h-670q-10 -93 12 -168.5t69 -124.5t113 -75.5t146 -26.5q157 0 289 66q15 -30 8 -62q-8 -40 -108.5 -81.5t-229.5 -41.5 q-232 0 -352.5 161.5t-71.5 416.5zM289 606h663q29 47 41 105q25 130 -43.5 209t-206.5 79q-149 0 -278.5 -108t-175.5 -285zM543 1475q50 22 84 22q21 0 26.5 -7t5.5 -30q1 -75 37.5 -114t102.5 -39q149 0 211 190h65q27 0 35 -8.5t0 -28.5q-34 -108 -123 -179t-209 -71 q-116 0 -179 69.5t-56 195.5z" />
<glyph unicode="&#x116;" horiz-adv-x="1167" d="M184 328l215 1106h799q31 0 25 -41q-7 -33 -27 -82h-682l-106 -543h540q23 0 30.5 -11t2.5 -38l-14 -72h-582l-59 -305q-24 -122 3.5 -171.5t108.5 -49.5h512q23 0 30 -11.5t1 -39.5l-12 -70h-568q-143 0 -198 75.5t-19 252.5zM774 1722q7 37 35 60.5t63 23.5 q37 0 58 -25t12 -65q-7 -39 -34.5 -62.5t-63.5 -23.5q-35 0 -56 25.5t-14 66.5z" />
<glyph unicode="&#x117;" horiz-adv-x="1175" d="M141 553q33 169 132 299.5t230.5 198t272.5 67.5q189 0 286.5 -113.5t63.5 -289.5q-16 -84 -55 -150q-26 -44 -55.5 -60t-79.5 -16h-670q-10 -93 12 -168.5t69 -124.5t113 -75.5t146 -26.5q157 0 289 66q15 -30 8 -62q-8 -40 -108.5 -81.5t-229.5 -41.5 q-232 0 -352.5 161.5t-71.5 416.5zM289 606h663q29 47 41 105q25 130 -43.5 209t-206.5 79q-149 0 -278.5 -108t-175.5 -285zM723 1366q7 37 35 60.5t63 23.5q37 0 58 -25t14 -65q-7 -39 -35.5 -62.5t-64.5 -23.5q-35 0 -56 25.5t-14 66.5z" />
<glyph unicode="&#x118;" horiz-adv-x="1167" d="M184 328l215 1106h799q31 0 25 -41q-7 -33 -27 -82h-682l-106 -543h540q23 0 30.5 -11t2.5 -38l-14 -72h-582l-59 -305q-24 -122 3.5 -171.5t108.5 -49.5h512q23 0 30 -11.5t1 -39.5l-12 -70h-97q-91 -56 -141 -118.5t-61 -123.5q-10 -48 16 -79t90 -31q44 0 82 12 q23 8 32.5 1t6.5 -30l-12 -53q-57 -29 -144 -29q-107 0 -157 54.5t-31 144.5q12 67 64 135.5t131 116.5h-347q-143 0 -198 75.5t-19 252.5z" />
<glyph unicode="&#x119;" horiz-adv-x="1175" d="M141 553q33 169 132 299.5t230.5 198t272.5 67.5q189 0 286.5 -113.5t63.5 -289.5q-16 -84 -55 -150q-26 -44 -55.5 -60t-79.5 -16h-670q-10 -93 12 -168.5t69 -124.5t113 -75.5t146 -26.5q157 0 289 66q15 -30 8 -62q-6 -30 -70 -64t-155 -48q-156 -106 -176 -228 q-10 -48 16 -79t90 -31q44 0 82 12q23 8 32.5 1t6.5 -30l-12 -53q-57 -29 -144 -29q-107 0 -157 54.5t-31 144.5q11 59 52 120t104 107q-222 9 -335.5 169.5t-64.5 408.5zM289 606h663q29 47 41 105q25 130 -43.5 209t-206.5 79q-149 0 -278.5 -108t-175.5 -285z" />
<glyph unicode="&#x11a;" horiz-adv-x="1167" d="M184 328l215 1106h799q31 0 25 -41q-7 -33 -27 -82h-682l-106 -543h540q23 0 30.5 -11t2.5 -38l-14 -72h-582l-59 -305q-24 -122 3.5 -171.5t108.5 -49.5h512q23 0 30 -11.5t1 -39.5l-12 -70h-568q-143 0 -198 75.5t-19 252.5zM578 1808q51 70 86 70q12 0 22.5 -9 t28.5 -32l141 -176l266 223l47 -53q11 -15 9 -21q-2 -12 -21 -28l-289 -236h-39q-18 0 -26 4t-21 17z" />
<glyph unicode="&#x11b;" horiz-adv-x="1175" d="M141 553q33 169 132 299.5t230.5 198t272.5 67.5q189 0 286.5 -113.5t63.5 -289.5q-16 -84 -55 -150q-26 -44 -55.5 -60t-79.5 -16h-670q-10 -93 12 -168.5t69 -124.5t113 -75.5t146 -26.5q157 0 289 66q15 -30 8 -62q-8 -40 -108.5 -81.5t-229.5 -41.5 q-232 0 -352.5 161.5t-71.5 416.5zM289 606h663q29 47 41 105q25 130 -43.5 209t-206.5 79q-149 0 -278.5 -108t-175.5 -285zM516 1452q54 70 86 70q12 0 22.5 -9t28.5 -32l142 -176l268 223l45 -53q10 -10 10 -21q-2 -12 -22 -29l-289 -235h-39q-18 0 -26 3.5t-21 16.5z " />
<glyph unicode="&#x11c;" horiz-adv-x="1533" d="M188 437.5q-31 145.5 5 324.5q31 161 110.5 294.5t186.5 220t233 134t256 47.5q189 0 318 -81t176 -216q6 -17 2 -31q-5 -17 -33 -36q-49 -29 -103 -35q-32 135 -134 205.5t-251 70.5q-100 0 -199.5 -38.5t-184 -109t-148.5 -179.5t-90 -240q-30 -158 -4 -282.5 t94.5 -211t172.5 -132.5t230 -46q163 0 258 56.5t113 152.5l55 277h-323q-33 0 -27 39q9 39 27 81h444q22 0 29.5 -11t3.5 -38l-68 -344q-31 -156 -174.5 -245t-365.5 -89q-159 0 -287.5 56t-209.5 158.5t-112 248zM700 1616q2 9 19 26l289 236h39q18 0 26 -3.5t21 -16.5 l204 -246l-55 -51q-19 -15 -31 -15q-14 0 -32 21l-160 196l-258 -215q-33 13 -51 35q-14 14 -11 33z" />
<glyph unicode="&#x11d;" horiz-adv-x="1306" d="M27 -236q34 174 237 275q-93 63 -130 182t-5 281q34 172 132 313t238 222t292 81q199 0 307 -117l16 93h86q26 0 36 -9.5t5 -31.5l-199 -1028q-21 -108 -80 -204.5t-148 -169.5t-212.5 -116t-263.5 -43q-162 0 -248 74.5t-63 197.5zM164 -225q-14 -73 39 -119.5 t157 -46.5q206 0 358.5 114.5t186.5 294.5l37 185q-78 -103 -196.5 -165.5t-253.5 -62.5q-65 0 -140 21q-84 -47 -129.5 -100.5t-58.5 -120.5zM266 504q-38 -193 37.5 -302.5t235.5 -109.5q117 0 235 79.5t207 229.5l90 465q-109 133 -291 133q-179 0 -326 -142t-188 -353z M543 1260q3 12 20 26l287 236h39q29 0 47 -21l207 -246l-58 -51q-17 -14 -30 -14q-16 0 -33 20l-160 197l-256 -215q-36 14 -53 35q-13 13 -10 33z" />
<glyph unicode="&#x11e;" horiz-adv-x="1533" d="M188 437.5q-31 145.5 5 324.5q31 161 110.5 294.5t186.5 220t233 134t256 47.5q189 0 318 -81t176 -216q6 -17 2 -31q-5 -17 -33 -36q-49 -29 -103 -35q-32 135 -134 205.5t-251 70.5q-100 0 -199.5 -38.5t-184 -109t-148.5 -179.5t-90 -240q-30 -158 -4 -282.5 t94.5 -211t172.5 -132.5t230 -46q163 0 258 56.5t113 152.5l55 277h-323q-33 0 -27 39q9 39 27 81h444q22 0 29.5 -11t3.5 -38l-68 -344q-31 -156 -174.5 -245t-365.5 -89q-159 0 -287.5 56t-209.5 158.5t-112 248zM748 1833q50 22 83 22q21 0 27 -7t6 -29 q1 -75 37.5 -114.5t102.5 -39.5q148 0 210 190h66q28 0 35.5 -8t-0.5 -28q-34 -108 -123 -179t-209 -71q-116 0 -179 69t-56 195z" />
<glyph unicode="&#x11f;" horiz-adv-x="1306" d="M27 -236q34 174 237 275q-93 63 -130 182t-5 281q34 172 132 313t238 222t292 81q199 0 307 -117l16 93h86q26 0 36 -9.5t5 -31.5l-199 -1028q-21 -108 -80 -204.5t-148 -169.5t-212.5 -116t-263.5 -43q-162 0 -248 74.5t-63 197.5zM164 -225q-14 -73 39 -119.5 t157 -46.5q206 0 358.5 114.5t186.5 294.5l37 185q-78 -103 -196.5 -165.5t-253.5 -62.5q-65 0 -140 21q-84 -47 -129.5 -100.5t-58.5 -120.5zM266 504q-38 -193 37.5 -302.5t235.5 -109.5q117 0 235 79.5t207 229.5l90 465q-109 133 -291 133q-179 0 -326 -142t-188 -353z M590 1475q49 22 84 22q21 0 27 -7t6 -30q1 -75 37 -114t102 -39q149 0 211 190h65q27 0 35 -8.5t0 -28.5q-34 -108 -123 -179t-209 -71q-116 0 -179 69.5t-56 195.5z" />
<glyph unicode="&#x120;" horiz-adv-x="1533" d="M188 437.5q-31 145.5 5 324.5q31 161 110.5 294.5t186.5 220t233 134t256 47.5q189 0 318 -81t176 -216q6 -17 2 -31q-5 -17 -33 -36q-49 -29 -103 -35q-32 135 -134 205.5t-251 70.5q-100 0 -199.5 -38.5t-184 -109t-148.5 -179.5t-90 -240q-30 -158 -4 -282.5 t94.5 -211t172.5 -132.5t230 -46q163 0 258 56.5t113 152.5l55 277h-323q-33 0 -27 39q9 39 27 81h444q22 0 29.5 -11t3.5 -38l-68 -344q-31 -156 -174.5 -245t-365.5 -89q-159 0 -287.5 56t-209.5 158.5t-112 248zM928 1722q7 37 35 60.5t63 23.5q37 0 58 -25t12 -65 q-7 -39 -35 -62.5t-64 -23.5q-35 0 -55.5 25.5t-13.5 66.5z" />
<glyph unicode="&#x121;" horiz-adv-x="1306" d="M27 -236q34 174 237 275q-93 63 -130 182t-5 281q34 172 132 313t238 222t292 81q199 0 307 -117l16 93h86q26 0 36 -9.5t5 -31.5l-199 -1028q-21 -108 -80 -204.5t-148 -169.5t-212.5 -116t-263.5 -43q-162 0 -248 74.5t-63 197.5zM164 -225q-14 -73 39 -119.5 t157 -46.5q206 0 358.5 114.5t186.5 294.5l37 185q-78 -103 -196.5 -165.5t-253.5 -62.5q-65 0 -140 21q-84 -47 -129.5 -100.5t-58.5 -120.5zM266 504q-38 -193 37.5 -302.5t235.5 -109.5q117 0 235 79.5t207 229.5l90 465q-109 133 -291 133q-179 0 -326 -142t-188 -353z M770 1366q7 37 35 60.5t63 23.5q37 0 58 -25t14 -65q-7 -39 -35.5 -62.5t-64.5 -23.5q-35 0 -56 25.5t-14 66.5z" />
<glyph unicode="&#x122;" horiz-adv-x="1533" d="M188 437.5q-31 145.5 5 324.5q31 161 110.5 294.5t186.5 220t233 134t256 47.5q189 0 318 -81t176 -216q6 -17 2 -31q-5 -17 -33 -36q-49 -29 -103 -35q-32 135 -134 205.5t-251 70.5q-100 0 -199.5 -38.5t-184 -109t-148.5 -179.5t-90 -240q-30 -158 -4 -282.5 t94.5 -211t172.5 -132.5t230 -46q163 0 258 56.5t113 152.5l55 277h-323q-33 0 -27 39q9 39 27 81h444q22 0 29.5 -11t3.5 -38l-68 -344q-31 -156 -174.5 -245t-365.5 -89q-159 0 -287.5 56t-209.5 158.5t-112 248zM565 -434q103 86 133 178q-29 6 -43.5 30t-7.5 60 q7 38 37 62t66 24q37 0 57.5 -25t11.5 -69q-25 -136 -129 -229q-23 -23 -47 -40t-39.5 -23t-19.5 -3q-7 3 -13 13.5t-6 21.5z" />
<glyph unicode="&#x123;" horiz-adv-x="1306" d="M27 -236q34 174 237 275q-93 63 -130 182t-5 281q34 172 132 313t238 222t292 81q199 0 307 -117l16 93h86q26 0 36 -9.5t5 -31.5l-199 -1028q-21 -108 -80 -204.5t-148 -169.5t-212.5 -116t-263.5 -43q-162 0 -248 74.5t-63 197.5zM164 -225q-14 -73 39 -119.5 t157 -46.5q206 0 358.5 114.5t186.5 294.5l37 185q-78 -103 -196.5 -165.5t-253.5 -62.5q-65 0 -140 21q-84 -47 -129.5 -100.5t-58.5 -120.5zM266 504q-38 -193 37.5 -302.5t235.5 -109.5q117 0 235 79.5t207 229.5l90 465q-109 133 -291 133q-179 0 -326 -142t-188 -353z M750 1274q28 135 129 229q24 23 48 40t39 23t19 3q7 -3 13 -13.5t6 -21.5q-104 -87 -134 -178q29 -6 44.5 -30t9.5 -60q-7 -37 -38 -61.5t-67 -24.5q-37 0 -56.5 25t-12.5 69z" />
<glyph unicode="&#x124;" horiz-adv-x="1478" d="M131 39l270 1388q53 17 101 17q41 0 35 -35l-123 -631h784l129 656h90q26 0 35 -9.5t6 -31.5l-270 -1393h-90q-28 0 -37.5 8.5t-5.5 30.5l121 618h-785l-127 -657h-90q-27 0 -37 9t-6 30zM678 1616q3 11 18 26l289 236h39q18 0 26 -3.5t21 -16.5l205 -246l-55 -51 q-19 -15 -31 -15q-15 0 -33 21l-160 196l-258 -215q-33 13 -51 35q-13 13 -10 33z" />
<glyph unicode="&#x125;" horiz-adv-x="1312" d="M109 39l276 1421q62 15 94 15q23 0 31.5 -8.5t5.5 -26.5l-92 -475q211 153 426 153q189 0 264 -121.5t33 -337.5l-86 -448q-24 -115 55 -115h37q0 -40 -2 -49q-5 -24 -38 -42.5t-81 -18.5q-69 0 -100 53t-10 158l90 465q66 337 -215 337q-95 0 -200.5 -39t-195.5 -112 l-163 -848h-86q-28 0 -37.5 8.5t-5.5 30.5zM360 1616q2 9 19 26l289 236h39q18 0 26 -3.5t21 -16.5l204 -246l-55 -51q-19 -15 -31 -15q-14 0 -32 21l-160 196l-258 -215q-33 13 -51 35q-14 14 -11 33z" />
<glyph unicode="&#x126;" horiz-adv-x="1478" d="M131 39l201 1026h-111q-35 0 -28 33q8 38 20 63h137l51 266q53 17 101 17q41 0 35 -35l-48 -248h785l53 273h90q26 0 35 -9.5t6 -31.5l-45 -232h105q23 0 29.5 -10.5t0.5 -38.5l-8 -47h-145l-207 -1065h-90q-28 0 -37.5 8.5t-5.5 30.5l121 618h-785l-127 -657h-90 q-27 0 -37 9t-6 30zM414 778h784l57 287h-784z" />
<glyph unicode="&#x127;" horiz-adv-x="1312" d="M109 39l235 1212h-94q-33 0 -27 33q7 37 21 64h118l29 143q58 14 94 14q23 0 31.5 -8.5t5.5 -26.5l-24 -122h344q41 0 32 -50l-10 -47h-385l-55 -282q212 149 426 149q189 0 264 -121.5t33 -337.5l-86 -448q-24 -115 55 -115h37q0 -40 -2 -49q-5 -24 -38 -42.5t-81 -18.5 q-69 0 -100 53t-10 158l90 465q66 337 -215 337q-95 0 -200.5 -39t-195.5 -112l-163 -848h-86q-28 0 -37.5 8.5t-5.5 30.5z" />
<glyph unicode="&#x128;" horiz-adv-x="579" d="M143 39l271 1388q53 17 100 17q41 0 35 -35l-273 -1409h-90q-28 0 -37.5 8.5t-5.5 30.5zM240 1659q2 9 10 30.5t10 26.5q65 115 180 115q71 0 131 -66q54 -57 88 -57q31 0 52.5 25t40.5 94l69 -17q20 -4 23.5 -15.5t-4.5 -33.5q-28 -74 -79 -114.5t-118 -40.5 q-72 0 -131 65q-50 58 -86 58q-31 0 -53 -25.5t-41 -91.5q-47 -3 -76 10q-23 10 -16 37z" />
<glyph unicode="&#x129;" horiz-adv-x="538" d="M131 1300q1 9 10.5 31.5t10.5 26.5q65 115 180 115q71 0 131 -66q54 -57 88 -57q31 0 52 24.5t40 93.5l70 -16q19 -4 22.5 -15.5t-4.5 -33.5q-28 -74 -78.5 -115t-117.5 -41q-72 0 -132 66q-49 57 -86 57q-31 0 -53 -25.5t-41 -91.5q-45 -3 -76 11q-23 10 -16 36z M139 197l174 893q58 14 95 14q23 0 31 -8.5t5 -26.5l-165 -858q-24 -115 55 -115h37q0 -40 -2 -49q-5 -24 -38 -42.5t-81 -18.5q-69 0 -100.5 53t-10.5 158z" />
<glyph unicode="&#x12a;" horiz-adv-x="579" d="M143 39l271 1388q53 17 100 17q41 0 35 -35l-273 -1409h-90q-28 0 -37.5 8.5t-5.5 30.5zM266 1706q6 23 21 63h499q21 0 27 -9.5t2 -35.5l-10 -57h-516q-29 0 -23 39z" />
<glyph unicode="&#x12b;" horiz-adv-x="538" d="M139 197l174 893q58 14 95 14q23 0 31 -8.5t5 -26.5l-165 -858q-24 -115 55 -115h37q0 -40 -2 -49q-5 -24 -38 -42.5t-81 -18.5q-69 0 -100.5 53t-10.5 158zM160 1348q8 32 20 63h500q21 0 27 -9.5t2 -35.5l-11 -57h-516q-28 0 -22 39z" />
<glyph unicode="&#x12c;" horiz-adv-x="579" d="M143 39l271 1388q53 17 100 17q41 0 35 -35l-273 -1409h-90q-28 0 -37.5 8.5t-5.5 30.5zM276 1833q49 22 84 22q21 0 27 -7t6 -29q1 -75 37 -114.5t102 -39.5q149 0 211 190h66q28 0 35.5 -8t-0.5 -28q-34 -108 -123 -179t-209 -71q-116 0 -179.5 69t-56.5 195z" />
<glyph unicode="&#x12d;" horiz-adv-x="538" d="M139 197l174 893q58 14 95 14q23 0 31 -8.5t5 -26.5l-165 -858q-24 -115 55 -115h37q0 -40 -2 -49q-5 -24 -38 -42.5t-81 -18.5q-69 0 -100.5 53t-10.5 158zM170 1475q49 22 84 22q21 0 27 -7t6 -30q1 -75 37 -114t102 -39q149 0 211 190h65q27 0 35 -8.5t0 -28.5 q-34 -108 -122.5 -179t-208.5 -71q-116 0 -179.5 69.5t-56.5 195.5z" />
<glyph unicode="&#x12e;" horiz-adv-x="579" d="M-43 -252q13 68 66.5 138.5t136.5 119.5q-21 6 -15 35l271 1389q54 14 100 14q42 0 33 -33l-273 -1411q-91 -56 -141 -118.5t-61 -123.5q-10 -48 16.5 -79t91.5 -31q42 0 80 12q23 8 32.5 1t6.5 -30l-12 -53q-57 -29 -144 -29q-107 0 -157 54.5t-31 144.5z" />
<glyph unicode="&#x12f;" horiz-adv-x="538" d="M-10 -252q13 68 64 136.5t132 117.5q-72 43 -45 195l174 893q43 14 95 14q22 0 29.5 -8t4.5 -25l-168 -868q-12 -57 2 -81t52 -24h43q0 -41 -2 -49q-3 -17 -25 -33t-53 -24q-165 -105 -187 -234q-10 -48 16.5 -79t90.5 -31q45 0 82 12q23 8 32.5 1t6.5 -30l-12 -53 q-57 -29 -144 -29q-107 0 -157 54.5t-31 144.5zM360 1423q7 39 35 62.5t64 23.5q37 0 57.5 -25.5t13.5 -66.5q-7 -39 -35 -62.5t-65 -23.5t-58 25.5t-12 66.5z" />
<glyph unicode="&#x130;" horiz-adv-x="579" d="M143 39l271 1388q53 17 100 17q41 0 35 -35l-273 -1409h-90q-28 0 -37.5 8.5t-5.5 30.5zM457 1722q7 37 35 60.5t63 23.5q37 0 58 -25t12 -65q-7 -39 -35 -62.5t-64 -23.5q-35 0 -55.5 25.5t-13.5 66.5z" />
<glyph unicode="&#x131;" horiz-adv-x="538" d="M139 197l174 893q58 14 95 14q23 0 31 -8.5t5 -26.5l-165 -858q-24 -115 55 -115h37q0 -40 -2 -49q-5 -24 -38 -42.5t-81 -18.5q-69 0 -100.5 53t-10.5 158z" />
<glyph unicode="&#x132;" horiz-adv-x="1355" d="M141 39l271 1388q53 17 100 17q41 0 35 -35l-273 -1409h-90q-28 0 -37.5 8.5t-5.5 30.5zM496 70q6 35 32 65q75 -37 197 -37q116 0 193 69t104 206l205 1057q54 14 100 14q23 0 31.5 -8t3.5 -25l-201 -1038q-37 -189 -149.5 -293.5t-290.5 -104.5q-57 0 -111.5 14.5 t-86 37t-27.5 43.5z" />
<glyph unicode="&#x133;" horiz-adv-x="1013" d="M139 197l174 893q58 14 95 14q23 0 31 -8.5t5 -26.5l-165 -858q-24 -115 55 -115h37q0 -40 -2 -49q-5 -24 -38 -42.5t-81 -18.5q-69 0 -100.5 53t-10.5 158zM356 -362q210 162 254 380l209 1072q58 14 94 14q23 0 31.5 -8.5t5.5 -26.5l-205 -1053q-36 -184 -155 -309 q-57 -60 -110 -91.5t-81 -31.5q-15 0 -28 17.5t-15 36.5zM358 1423q6 37 35.5 61.5t65.5 24.5t56 -26t13 -68q-7 -39 -35 -62.5t-65 -23.5q-35 0 -57 26.5t-13 67.5zM864 1423q6 37 35.5 61.5t65.5 24.5t56 -26t13 -68q-7 -39 -35 -62.5t-65 -23.5q-35 0 -57 26.5t-13 67.5z " />
<glyph unicode="&#x134;" horiz-adv-x="841" d="M-35 70q5 33 33 65q75 -37 197 -37q116 0 193 69t104 206l204 1057q54 14 101 14q23 0 31 -8t3 -25l-200 -1038q-37 -189 -149.5 -293.5t-291.5 -104.5q-57 0 -111.5 14.5t-86 37t-27.5 43.5zM502 1616q3 11 18 26l289 236h39q18 0 26 -3.5t21 -16.5l205 -246l-56 -51 q-19 -15 -30 -15q-15 0 -33 21l-160 196l-258 -215q-33 13 -51 35q-13 13 -10 33z" />
<glyph unicode="&#x135;" horiz-adv-x="559" d="M-137 -362q209 163 252 380l209 1072q58 14 94 14q23 0 31.5 -8.5t5.5 -26.5l-205 -1053q-36 -182 -156 -309q-57 -59 -109 -91t-79 -32q-15 0 -28 17.5t-15 36.5zM127 1260q3 12 20 26l287 236h39q29 0 47 -21l207 -246l-57 -51q-18 -14 -31 -14q-16 0 -33 20l-160 197 l-256 -215q-36 14 -53 35q-13 13 -10 33z" />
<glyph unicode="&#x136;" horiz-adv-x="1347" d="M131 39l270 1388q53 17 101 17q41 0 35 -35l-142 -729q233 136 473.5 334.5t440.5 429.5q51 -17 71 -35t15 -41q-4 -24 -23 -43q-227 -272 -581 -530q76 -222 164 -399.5t165 -254.5q45 -45 88 -45h33q0 -37 -2 -53q-6 -26 -40.5 -47t-78.5 -21q-62 0 -123 64 q-159 167 -325 676q-158 -111 -307 -191l-101 -524h-90q-27 0 -37 9t-6 30zM416 -434q103 86 133 178q-29 6 -43.5 30t-7.5 60q7 38 36.5 62t65.5 24q37 0 58 -25t12 -69q-25 -136 -129 -229q-23 -23 -47.5 -40t-40 -23t-19.5 -3q-7 3 -12.5 13.5t-5.5 21.5z" />
<glyph unicode="&#x137;" horiz-adv-x="1177" d="M109 39l282 1452q58 14 94 14q23 0 31.5 -8.5t5.5 -26.5l-180 -931q192 104 387 251.5t348 313.5q50 -20 66.5 -36.5t11.5 -39.5q-3 -17 -16 -33q-184 -200 -486 -395q57 -132 126 -249t130 -187q60 -68 99 -68h41q0 -40 -2 -49q-5 -23 -37 -42t-76 -19q-69 0 -131 75 q-69 84 -140.5 207t-123.5 260q-119 -71 -224 -125l-77 -403h-86q-28 0 -37.5 8.5t-5.5 30.5zM322 -434q103 86 133 178q-29 6 -44 30.5t-8 59.5q7 38 37 62t66 24q37 0 57.5 -25t11.5 -69q-25 -136 -129 -229q-23 -23 -47 -40t-39.5 -23t-19.5 -3q-7 3 -12.5 13.5 t-5.5 21.5z" />
<glyph unicode="&#x138;" horiz-adv-x="1177" d="M109 39l204 1051q58 14 95 14q23 0 31 -8.5t5 -26.5l-102 -530q192 104 387 251.5t348 313.5q50 -20 66.5 -36.5t11.5 -39.5q-3 -17 -16 -33q-184 -200 -486 -395q57 -132 126 -249t130 -187q60 -68 99 -68h41q0 -40 -2 -49q-5 -23 -37 -42t-76 -19q-69 0 -131 75 q-69 84 -140.5 207t-123.5 260q-119 -71 -224 -125l-77 -403h-86q-28 0 -37.5 8.5t-5.5 30.5z" />
<glyph unicode="&#x139;" horiz-adv-x="1116" d="M184 328l213 1099q53 17 101 17q22 0 29.5 -8.5t4.5 -26.5l-206 -1067q-24 -122 3.5 -171.5t108.5 -49.5h520q22 0 28.5 -11.5t0.5 -39.5l-12 -70h-574q-143 0 -198 75.5t-19 252.5zM397 1616l303 246q21 18 39 18q22 0 33 -14q22 -29 31 -64l-318 -231q-18 -12 -32 -12 q-12 0 -21 12z" />
<glyph unicode="&#x13a;" horiz-adv-x="614" d="M156 266l231 1194q47 15 94 15q22 0 30 -8t5 -25l-229 -1180q-32 -162 102 -162q65 0 123 23q13 -20 8 -57q-5 -26 -60 -53t-126 -27q-112 0 -158.5 70.5t-19.5 209.5zM373 1616l303 246q21 18 39 18q22 0 33 -14q20 -27 30 -64l-317 -231q-18 -12 -33 -12q-11 0 -20 12z " />
<glyph unicode="&#x13b;" horiz-adv-x="1116" d="M184 328l213 1099q53 17 101 17q22 0 29.5 -8.5t4.5 -26.5l-206 -1067q-24 -122 3.5 -171.5t108.5 -49.5h520q22 0 28.5 -11.5t0.5 -39.5l-12 -70h-574q-143 0 -198 75.5t-19 252.5zM395 -434q103 86 133 178q-29 6 -43.5 30t-7.5 60q7 38 37 62t66 24q37 0 57.5 -25 t11.5 -69q-25 -136 -129 -229q-23 -23 -47 -40t-39.5 -23t-19.5 -3q-7 3 -13 13.5t-6 21.5z" />
<glyph unicode="&#x13c;" horiz-adv-x="614" d="M117 -434q103 86 133 178q-29 6 -43.5 30t-7.5 60q7 38 36.5 62t65.5 24q37 0 58 -25t12 -69q-25 -136 -129 -229q-23 -23 -47.5 -40t-40 -23t-19.5 -3q-7 3 -12.5 13.5t-5.5 21.5zM156 266l237 1225q43 14 94 14q22 0 30 -7.5t5 -24.5l-235 -1211q-32 -162 102 -162 q65 0 123 23q13 -20 8 -57q-5 -26 -60 -53t-126 -27q-112 0 -158.5 70.5t-19.5 209.5z" />
<glyph unicode="&#x13d;" horiz-adv-x="1116" d="M184 328l213 1099q53 17 101 17q22 0 29.5 -8.5t4.5 -26.5l-206 -1067q-24 -122 3.5 -171.5t108.5 -49.5h520q22 0 28.5 -11.5t0.5 -39.5l-12 -70h-574q-143 0 -198 75.5t-19 252.5zM610 1120q111 90 146 199q-30 6 -45.5 31.5t-8.5 64.5t37.5 64.5t67.5 25.5 q39 0 60.5 -27t11.5 -77q-26 -146 -144 -254q-35 -33 -66 -50.5t-40 -13.5q-19 11 -19 37z" />
<glyph unicode="&#x13e;" horiz-adv-x="684" d="M156 266l237 1225q43 14 94 14q22 0 30 -7.5t5 -24.5l-235 -1211q-32 -162 102 -162q65 0 123 23q13 -20 8 -57q-5 -26 -60 -53t-126 -27q-112 0 -158.5 70.5t-19.5 209.5zM586 1120q110 89 145 199q-30 6 -45 31.5t-8 64.5t37 64.5t67 25.5q39 0 60.5 -27t11.5 -77 q-26 -147 -143 -254q-35 -33 -66.5 -50.5t-40.5 -13.5q-18 11 -18 37z" />
<glyph unicode="&#x13f;" horiz-adv-x="1116" d="M184 328l213 1099q53 17 101 17q22 0 29.5 -8.5t4.5 -26.5l-206 -1067q-24 -122 3.5 -171.5t108.5 -49.5h520q22 0 28.5 -11.5t0.5 -39.5l-12 -70h-574q-143 0 -198 75.5t-19 252.5zM762 762q7 37 35 60.5t63 23.5q36 0 56.5 -25t13.5 -65q-7 -39 -35 -62.5t-64 -23.5 t-57 25.5t-12 66.5z" />
<glyph unicode="&#x140;" horiz-adv-x="743" d="M156 266l237 1225q43 14 94 14q22 0 30 -7.5t5 -24.5l-235 -1211q-32 -162 102 -162q65 0 123 23q13 -20 8 -57q-5 -26 -60 -53t-126 -27q-112 0 -158.5 70.5t-19.5 209.5zM616 780q6 37 35 60.5t64 23.5q36 0 56 -25t13 -65q-7 -39 -34.5 -62.5t-63.5 -23.5t-57.5 25.5 t-12.5 66.5z" />
<glyph unicode="&#x141;" horiz-adv-x="1116" d="M55 616l201 86l141 725q53 17 101 17q22 0 29.5 -8.5t4.5 -26.5l-122 -639l419 182q24 12 33 -6q13 -27 17 -72l-492 -215l-61 -317q-24 -122 3.5 -171.5t108.5 -49.5h520q22 0 28.5 -11.5t0.5 -39.5l-12 -70h-574q-143 0 -198 75.5t-19 252.5l52 264l-130 -55 q-31 -13 -40 14q-11 33 -11 65z" />
<glyph unicode="&#x142;" horiz-adv-x="614" d="M41 653l207 92l145 746q43 14 94 14q22 0 30 -7.5t5 -24.5l-129 -664l187 82q30 13 43 -10q14 -32 14 -64l-264 -117l-86 -438q-32 -162 102 -162q65 0 123 23q13 -20 8 -57q-5 -26 -60 -53t-126 -27q-112 0 -158.5 70.5t-19.5 209.5l71 371l-139 -62q-28 -13 -39 9 t-8 69z" />
<glyph unicode="&#x143;" horiz-adv-x="1470" d="M133 41l264 1358q30 20 64 32.5t55 12.5q29 0 41 -27l526 -1194l236 1211h90q28 0 36.5 -9t4.5 -32l-264 -1358q-68 -45 -117 -45q-29 0 -43 26l-526 1194l-234 -1210h-90q-28 0 -37.5 9t-5.5 32zM813 1616l303 246q21 18 39 18q22 0 33 -14q22 -29 31 -64l-318 -231 q-18 -12 -33 -12q-11 0 -20 12z" />
<glyph unicode="&#x144;" horiz-adv-x="1312" d="M109 39l204 1051q58 14 95 14q23 0 31 -8.5t5 -26.5l-20 -100q212 149 426 149q189 0 264 -121.5t33 -337.5l-86 -448q-24 -115 55 -115h37q0 -40 -2 -49q-5 -24 -38 -42.5t-81 -18.5q-69 0 -100 53t-10 158l90 465q66 337 -215 337q-95 0 -200.5 -39t-195.5 -112 l-163 -848h-86q-28 0 -37.5 8.5t-5.5 30.5zM649 1260l303 245q25 19 39 19q21 0 33 -15q22 -30 31 -63l-318 -232q-18 -12 -30 -12q-14 0 -23 12z" />
<glyph unicode="&#x145;" horiz-adv-x="1470" d="M133 41l264 1358q30 20 64 32.5t55 12.5q29 0 41 -27l526 -1194l236 1211h90q28 0 36.5 -9t4.5 -32l-264 -1358q-68 -45 -117 -45q-29 0 -43 26l-526 1194l-234 -1210h-90q-28 0 -37.5 9t-5.5 32zM463 -434q103 86 133 178q-29 6 -43.5 30t-7.5 60q7 38 36.5 62t65.5 24 q37 0 58 -25t12 -69q-25 -136 -129 -229q-23 -23 -47.5 -40t-40 -23t-19.5 -3q-7 3 -12.5 13.5t-5.5 21.5z" />
<glyph unicode="&#x146;" horiz-adv-x="1312" d="M109 39l204 1051q58 14 95 14q23 0 31 -8.5t5 -26.5l-20 -100q212 149 426 149q189 0 264 -121.5t33 -337.5l-86 -448q-24 -115 55 -115h37q0 -40 -2 -49q-5 -24 -38 -42.5t-81 -18.5q-69 0 -100 53t-10 158l90 465q66 337 -215 337q-95 0 -200.5 -39t-195.5 -112 l-163 -848h-86q-28 0 -37.5 8.5t-5.5 30.5zM387 -434q103 86 133 178q-29 6 -43.5 30t-7.5 60q7 38 36.5 62t65.5 24q37 0 58 -25t12 -69q-25 -136 -129 -229q-23 -23 -47 -40t-39.5 -23t-19.5 -3q-7 3 -13 13.5t-6 21.5z" />
<glyph unicode="&#x147;" horiz-adv-x="1470" d="M133 41l264 1358q30 20 64 32.5t55 12.5q29 0 41 -27l526 -1194l236 1211h90q28 0 36.5 -9t4.5 -32l-264 -1358q-68 -45 -117 -45q-29 0 -43 26l-526 1194l-234 -1210h-90q-28 0 -37.5 9t-5.5 32zM698 1808q51 70 86 70q19 0 52 -41l141 -176l266 223l47 -53 q10 -14 8 -21q-3 -13 -20 -28l-289 -236h-39q-18 0 -26 4t-21 17z" />
<glyph unicode="&#x148;" horiz-adv-x="1312" d="M109 39l204 1051q58 14 95 14q23 0 31 -8.5t5 -26.5l-20 -100q212 149 426 149q189 0 264 -121.5t33 -337.5l-86 -448q-24 -115 55 -115h37q0 -40 -2 -49q-5 -24 -38 -42.5t-81 -18.5q-69 0 -100 53t-10 158l90 465q66 337 -215 337q-95 0 -200.5 -39t-195.5 -112 l-163 -848h-86q-28 0 -37.5 8.5t-5.5 30.5zM535 1452q54 70 86 70q12 0 22.5 -9t28.5 -32l141 -176l268 223l45 -53q11 -11 11 -21q-2 -11 -23 -29l-289 -235h-39q-18 0 -26 3.5t-21 16.5z" />
<glyph unicode="&#x149;" horiz-adv-x="1353" d="M147 39l205 1051q58 14 94 14q23 0 31.5 -8.5t5.5 -26.5l-20 -100q212 149 426 149q189 0 264 -121.5t33 -337.5l-86 -448q-24 -115 55 -115h37q0 -40 -2 -49q-5 -24 -38 -42.5t-81 -18.5q-69 0 -100 53t-10 158l90 465q66 337 -215 337q-95 0 -200.5 -39t-195.5 -112 l-164 -848h-86q-28 0 -37.5 8.5t-5.5 30.5zM164 1120q110 89 145 199q-30 6 -45 31.5t-8 64.5t37 64.5t67 25.5q39 0 60.5 -27t11.5 -77q-26 -147 -143 -254q-35 -33 -66.5 -50.5t-40.5 -13.5q-18 11 -18 37z" />
<glyph unicode="&#x14a;" horiz-adv-x="1470" d="M133 41l264 1358q30 20 64 32.5t55 12.5q29 0 41 -27l526 -1192l236 1209h90q28 0 36.5 -9t4.5 -32l-281 -1438q-35 -183 -155 -309q-62 -68 -121.5 -100.5t-79.5 -22.5q-30 19 -33 55q208 157 252 381l6 33l-538 1216l-234 -1208h-90q-28 0 -37.5 9t-5.5 32z" />
<glyph unicode="&#x14b;" horiz-adv-x="1298" d="M109 39l204 1051q58 14 95 14q23 0 31 -8.5t5 -26.5l-20 -100q212 149 426 149q189 0 264 -121.5t33 -337.5l-137 -704q-36 -182 -156 -309q-57 -60 -109.5 -91.5t-80.5 -31.5q-15 0 -28 17t-15 36q213 164 253 381l138 705q66 337 -215 337q-95 0 -200.5 -39 t-195.5 -112l-163 -848h-86q-28 0 -37.5 8.5t-5.5 30.5z" />
<glyph unicode="&#x14c;" d="M174 393q-24 139 10 324q34 179 115 322.5t190 233.5t237.5 137.5t264.5 47.5q135 0 244 -46.5t183.5 -139.5t99 -231.5t-8.5 -323.5q-35 -179 -116 -322.5t-190.5 -234t-237.5 -138t-263 -47.5q-136 0 -245.5 46.5t-184 139.5t-98.5 232zM319 455q18 -119 77 -198.5 t146.5 -119t198.5 -39.5q79 0 156.5 22.5t151.5 71t135 118t108 170t70 220.5q29 159 11.5 278t-76.5 198.5t-147.5 119t-199.5 39.5q-100 0 -196 -37t-181 -108.5t-149.5 -189.5t-93.5 -267q-29 -159 -11 -278zM764 1706q8 32 20 63h500q21 0 27 -9.5t2 -35.5l-10 -57h-517 q-28 0 -22 39z" />
<glyph unicode="&#x14d;" horiz-adv-x="1286" d="M134.5 306q-21.5 106 4.5 241q35 175 133.5 306.5t230 198t275.5 66.5q107 0 195 -38.5t146 -112t79 -179.5t-6 -241q-26 -131 -89 -240.5t-149 -181t-189 -111t-210 -39.5t-195 38.5t-146 112.5t-79.5 180zM272 357q15 -87 60.5 -145.5t110.5 -88t145 -29.5q75 0 148 28 t137.5 80.5t112.5 138.5t69 194q21 115 5.5 202t-61 145t-111 87.5t-145.5 29.5q-76 0 -148.5 -27.5t-136 -80.5t-111 -138.5t-68.5 -193.5q-22 -115 -7 -202zM549 1348q8 32 20 63h500q21 0 27 -9.5t2 -35.5l-11 -57h-516q-28 0 -22 39z" />
<glyph unicode="&#x14e;" d="M174 393q-24 139 10 324q34 179 115 322.5t190 233.5t237.5 137.5t264.5 47.5q135 0 244 -46.5t183.5 -139.5t99 -231.5t-8.5 -323.5q-35 -179 -116 -322.5t-190.5 -234t-237.5 -138t-263 -47.5q-136 0 -245.5 46.5t-184 139.5t-98.5 232zM319 455q18 -119 77 -198.5 t146.5 -119t198.5 -39.5q79 0 156.5 22.5t151.5 71t135 118t108 170t70 220.5q29 159 11.5 278t-76.5 198.5t-147.5 119t-199.5 39.5q-100 0 -196 -37t-181 -108.5t-149.5 -189.5t-93.5 -267q-29 -159 -11 -278zM774 1833q50 22 84 22q21 0 27 -7t6 -29q1 -75 37 -114.5 t102 -39.5q149 0 211 190h66q27 0 34.5 -8t-0.5 -28q-34 -108 -122.5 -179t-208.5 -71q-116 0 -179.5 69t-56.5 195z" />
<glyph unicode="&#x14f;" horiz-adv-x="1286" d="M134.5 306q-21.5 106 4.5 241q35 175 133.5 306.5t230 198t275.5 66.5q107 0 195 -38.5t146 -112t79 -179.5t-6 -241q-26 -131 -89 -240.5t-149 -181t-189 -111t-210 -39.5t-195 38.5t-146 112.5t-79.5 180zM272 357q15 -87 60.5 -145.5t110.5 -88t145 -29.5q75 0 148 28 t137.5 80.5t112.5 138.5t69 194q21 115 5.5 202t-61 145t-111 87.5t-145.5 29.5q-76 0 -148.5 -27.5t-136 -80.5t-111 -138.5t-68.5 -193.5q-22 -115 -7 -202zM559 1475q49 22 84 22q21 0 27 -7t6 -30q1 -75 37 -114t102 -39q149 0 211 190h66q27 0 34.5 -8.5t-0.5 -28.5 q-34 -108 -122.5 -179t-208.5 -71q-116 0 -179.5 69.5t-56.5 195.5z" />
<glyph unicode="&#x150;" d="M174 393q-24 139 10 324q34 179 115 322.5t190 233.5t237.5 137.5t264.5 47.5q135 0 244 -46.5t183.5 -139.5t99 -231.5t-8.5 -323.5q-35 -179 -116 -322.5t-190.5 -234t-237.5 -138t-263 -47.5q-136 0 -245.5 46.5t-184 139.5t-98.5 232zM319 455q18 -119 77 -198.5 t146.5 -119t198.5 -39.5q79 0 156.5 22.5t151.5 71t135 118t108 170t70 220.5q29 159 11.5 278t-76.5 198.5t-147.5 119t-199.5 39.5q-100 0 -196 -37t-181 -108.5t-149.5 -189.5t-93.5 -267q-29 -159 -11 -278zM707 1616l303 246q21 18 39 18q21 0 32 -14q22 -29 31 -64 l-317 -231q-18 -12 -33 -12q-12 0 -21 12zM1006 1616l303 246q21 18 39 18q21 0 32 -14q22 -29 31 -64l-317 -231q-18 -12 -33 -12q-12 0 -21 12z" />
<glyph unicode="&#x151;" horiz-adv-x="1286" d="M134.5 306q-21.5 106 4.5 241q35 175 133.5 306.5t230 198t275.5 66.5q107 0 195 -38.5t146 -112t79 -179.5t-6 -241q-26 -131 -89 -240.5t-149 -181t-189 -111t-210 -39.5t-195 38.5t-146 112.5t-79.5 180zM272 357q15 -87 60.5 -145.5t110.5 -88t145 -29.5q75 0 148 28 t137.5 80.5t112.5 138.5t69 194q21 115 5.5 202t-61 145t-111 87.5t-145.5 29.5q-76 0 -148.5 -27.5t-136 -80.5t-111 -138.5t-68.5 -193.5q-22 -115 -7 -202zM492 1260l303 245q25 19 39 19q20 0 32 -15q22 -30 31 -63l-317 -232q-18 -12 -31 -12q-14 0 -23 12zM791 1260 l303 245q25 19 39 19q20 0 32 -15q22 -30 31 -63l-317 -232q-18 -12 -31 -12q-14 0 -23 12z" />
<glyph unicode="&#x152;" horiz-adv-x="1986" d="M174 393q-24 139 10 324q27 142 85.5 263t135.5 208t170 148.5t191 91.5t197 30q157 0 239 -65l8 41h805q31 0 25 -41q-7 -33 -27 -82h-688l-106 -543h546q23 0 30.5 -11t2.5 -38l-14 -72h-588l-59 -305q-24 -122 3.5 -171.5t108.5 -49.5h518q23 0 30 -11.5t1 -39.5 l-12 -70h-574q-133 0 -188 61q-146 -86 -330 -86q-134 0 -242 46.5t-181 139.5t-97 232zM318.5 454q17.5 -119 77 -198t147 -118.5t198.5 -39.5q139 0 246 56q-14 62 8 174l185 948q-100 59 -230 59q-80 0 -157.5 -22.5t-151 -71t-134 -118t-107.5 -170t-70 -220.5 q-29 -160 -11.5 -279z" />
<glyph unicode="&#x153;" horiz-adv-x="2093" d="M134 306q-21 106 5 241q34 174 132 305.5t230 198.5t277 67q149 0 258 -79t142 -218q90 139 228 218t288 79q189 0 286.5 -113.5t63.5 -289.5q-16 -84 -55 -150q-26 -43 -56 -59.5t-80 -16.5h-669q-10 -93 12 -168.5t69 -124.5t113 -75.5t146 -26.5q156 0 288 66 q16 -32 9 -62q-8 -40 -108.5 -81.5t-229.5 -41.5q-158 0 -265.5 79t-144.5 218q-86 -141 -226 -219t-292 -78q-108 0 -196 38.5t-146 112.5t-79 180zM272 356q15 -87 60.5 -145.5t110.5 -87.5t145 -29q76 0 148.5 27.5t136 80.5t111.5 139t69 194l4 14q36 212 -58 331 t-258 119q-159 0 -290 -114.5t-172 -325.5q-22 -116 -7 -203zM1206 606h664q29 47 41 105q25 130 -43.5 209t-206.5 79q-149 0 -279 -108t-176 -285z" />
<glyph unicode="&#x154;" horiz-adv-x="1339" d="M131 39l272 1395h406q253 0 379 -132t82 -364q-37 -185 -157 -305.5t-290 -165.5q106 -243 217 -336q45 -39 90 -39h29q4 -16 0 -49q-6 -27 -37.5 -47.5t-74.5 -20.5q-54 0 -109 43q-72 60 -138 174.5t-114 251.5q-18 -2 -51 -2q-157 0 -279 41l-92 -483h-90q-27 0 -37 9 t-6 30zM379 596q109 -33 258 -33q190 0 322.5 98t168.5 277q34 182 -62 277.5t-288 95.5h-260zM682 1616l303 246q21 18 39 18q22 0 33 -14q20 -27 30 -64l-317 -231q-18 -12 -33 -12q-11 0 -20 12z" />
<glyph unicode="&#x155;" horiz-adv-x="903" d="M109 39l204 1051q58 14 95 14q23 0 31 -8.5t5 -26.5l-26 -141q144 190 356 190q119 0 193 -49q32 -18 26 -47q0 -12 -14 -29q-31 -36 -74 -55q-70 61 -190 61q-96 0 -182 -64t-152 -192l-143 -743h-86q-28 0 -37.5 8.5t-5.5 30.5zM481 1260l303 245q25 19 39 19 q21 0 33 -15q22 -30 31 -63l-318 -232q-18 -12 -30 -12q-14 0 -23 12z" />
<glyph unicode="&#x156;" horiz-adv-x="1339" d="M131 39l272 1395h406q253 0 379 -132t82 -364q-37 -185 -157 -305.5t-290 -165.5q106 -243 217 -336q45 -39 90 -39h29q4 -16 0 -49q-6 -27 -37.5 -47.5t-74.5 -20.5q-54 0 -109 43q-72 60 -138 174.5t-114 251.5q-18 -2 -51 -2q-157 0 -279 41l-92 -483h-90q-27 0 -37 9 t-6 30zM379 596q109 -33 258 -33q190 0 322.5 98t168.5 277q34 182 -62 277.5t-288 95.5h-260zM387 -434q103 86 133 178q-29 6 -43.5 30t-7.5 60q7 38 36.5 62t65.5 24q37 0 58 -25t12 -69q-25 -136 -129 -229q-23 -23 -47 -40t-39.5 -23t-19.5 -3q-7 3 -13 13.5t-6 21.5z " />
<glyph unicode="&#x157;" horiz-adv-x="903" d="M-29 -434q103 86 133 178q-29 6 -43.5 30t-7.5 60q7 38 37 62t66 24q37 0 57.5 -25t11.5 -69q-25 -136 -129 -229q-23 -23 -47 -40t-39.5 -23t-19.5 -3q-7 3 -13 13.5t-6 21.5zM109 39l204 1051q58 14 95 14q23 0 31 -8.5t5 -26.5l-26 -141q144 190 356 190 q119 0 193 -49q32 -18 26 -47q0 -12 -14 -29q-31 -36 -74 -55q-70 61 -190 61q-96 0 -182 -64t-152 -192l-143 -743h-86q-28 0 -37.5 8.5t-5.5 30.5z" />
<glyph unicode="&#x158;" horiz-adv-x="1339" d="M131 39l272 1395h406q253 0 379 -132t82 -364q-37 -185 -157 -305.5t-290 -165.5q106 -243 217 -336q45 -39 90 -39h29q4 -16 0 -49q-6 -27 -37.5 -47.5t-74.5 -20.5q-54 0 -109 43q-72 60 -138 174.5t-114 251.5q-18 -2 -51 -2q-157 0 -279 41l-92 -483h-90q-27 0 -37 9 t-6 30zM379 596q109 -33 258 -33q190 0 322.5 98t168.5 277q34 182 -62 277.5t-288 95.5h-260zM598 1808q51 70 86 70q12 0 22.5 -9t28.5 -32l142 -176l266 223l47 -53q10 -14 8 -21q-3 -13 -20 -28l-289 -236h-39q-18 0 -26 4t-21 17z" />
<glyph unicode="&#x159;" horiz-adv-x="903" d="M109 39l204 1051q58 14 95 14q23 0 31 -8.5t5 -26.5l-26 -141q144 190 356 190q119 0 193 -49q32 -18 26 -47q0 -12 -14 -29q-31 -36 -74 -55q-70 61 -190 61q-96 0 -182 -64t-152 -192l-143 -743h-86q-28 0 -37.5 8.5t-5.5 30.5zM397 1452q54 70 86 70q19 0 52 -41 l141 -176l268 223l45 -53q10 -10 10 -21q-2 -12 -22 -29l-289 -235h-39q-18 0 -26 3.5t-21 16.5z" />
<glyph unicode="&#x15a;" horiz-adv-x="1214" d="M135 121q7 37 33 63q157 -88 362 -88q173 0 276 68.5t124 179.5q22 108 -49.5 180t-249.5 125q-212 62 -305 165.5t-62 260.5q32 168 180.5 275.5t348.5 107.5q161 0 270 -68t147 -171q10 -29 7 -45q-3 -21 -35 -37q-44 -21 -99 -25q-26 107 -107.5 165t-207.5 58 q-139 0 -239 -69.5t-123 -184.5q-22 -109 46.5 -180t252.5 -131q218 -72 307 -168t59 -252q-34 -170 -183.5 -272.5t-369.5 -102.5q-109 0 -202 24t-140 57.5t-41 64.5zM655 1616l303 246q21 18 39 18q22 0 33 -14q22 -29 31 -64l-318 -231q-18 -12 -32 -12q-12 0 -21 12z " />
<glyph unicode="&#x15b;" horiz-adv-x="1019" d="M106 100q7 38 33 64q131 -72 291 -72q273 0 307 172q14 75 -34 123.5t-179 81.5q-187 46 -262 130.5t-49 215.5q26 134 145.5 218.5t284.5 84.5q125 0 213.5 -48.5t122.5 -131.5q6 -14 2 -33q-3 -22 -35 -39q-47 -21 -92 -28q-18 77 -83 119t-157 42q-101 0 -176 -52 t-92 -136q-15 -83 41 -133t205 -90q171 -46 238 -121t42 -195q-27 -138 -144.5 -217.5t-305.5 -79.5q-89 0 -166 21t-116 50t-34 54zM489 1260l304 245q25 19 38 19q21 0 33 -15q22 -30 31 -63l-317 -232q-18 -12 -31 -12q-14 0 -23 12z" />
<glyph unicode="&#x15c;" horiz-adv-x="1214" d="M135 121q7 37 33 63q157 -88 362 -88q173 0 276 68.5t124 179.5q22 108 -49.5 180t-249.5 125q-212 62 -305 165.5t-62 260.5q32 168 180.5 275.5t348.5 107.5q161 0 270 -68t147 -171q10 -29 7 -45q-3 -21 -35 -37q-44 -21 -99 -25q-26 107 -107.5 165t-207.5 58 q-139 0 -239 -69.5t-123 -184.5q-22 -109 46.5 -180t252.5 -131q218 -72 307 -168t59 -252q-34 -170 -183.5 -272.5t-369.5 -102.5q-109 0 -202 24t-140 57.5t-41 64.5zM524 1616q2 9 19 26l288 236h39q18 0 27 -4t21 -16l204 -246l-55 -51q-19 -15 -31 -15q-14 0 -32 21 l-160 196l-258 -215q-33 13 -51 35q-14 14 -11 33z" />
<glyph unicode="&#x15d;" horiz-adv-x="1019" d="M106 100q7 38 33 64q131 -72 291 -72q273 0 307 172q14 75 -34 123.5t-179 81.5q-187 46 -262 130.5t-49 215.5q26 134 145.5 218.5t284.5 84.5q125 0 213.5 -48.5t122.5 -131.5q6 -14 2 -33q-3 -22 -35 -39q-47 -21 -92 -28q-18 77 -83 119t-157 42q-101 0 -176 -52 t-92 -136q-15 -83 41 -133t205 -90q171 -46 238 -121t42 -195q-27 -138 -144.5 -217.5t-305.5 -79.5q-89 0 -166 21t-116 50t-34 54zM371 1260q3 12 20 26l287 236h39q29 0 47 -21l207 -246l-58 -51q-17 -14 -30 -14q-16 0 -33 20l-160 197l-256 -215q-36 14 -53 35 q-13 13 -10 33z" />
<glyph unicode="&#x15e;" horiz-adv-x="1214" d="M135 121q7 37 33 63q157 -88 362 -88q173 0 276 68.5t124 179.5q22 108 -49.5 180t-249.5 125q-212 62 -305 165.5t-62 260.5q32 168 180.5 275.5t348.5 107.5q161 0 270 -68t147 -171q10 -29 7 -45q-3 -21 -35 -37q-44 -21 -99 -25q-26 107 -107.5 165t-207.5 58 q-139 0 -239 -69.5t-123 -184.5q-22 -109 46.5 -180t252.5 -131q218 -72 307 -168t59 -252q-29 -146 -144.5 -242.5t-287.5 -121.5l-78 -105q94 -14 138.5 -62.5t31.5 -121.5q-17 -87 -89 -135.5t-179 -48.5q-77 0 -135 22l10 53q8 31 33 31q9 0 43 -6t55 -6q60 0 99 24 t48 68q11 53 -32.5 84.5t-143.5 40.5q-23 9 -20 24q1 2 3 6.5t3 6.5l84 114q-107 1 -198 25t-137 57t-40 64z" />
<glyph unicode="&#x15f;" horiz-adv-x="1019" d="M106 100q7 38 33 64q131 -72 291 -72q273 0 307 172q14 75 -34 123.5t-179 81.5q-187 46 -262 130.5t-49 215.5q26 134 145.5 218.5t284.5 84.5q125 0 213.5 -48.5t122.5 -131.5q6 -14 2 -33q-3 -22 -35 -39q-47 -21 -92 -28q-18 77 -83 119t-157 42q-101 0 -176 -52 t-92 -136q-15 -83 41 -133t205 -90q171 -46 238 -121t42 -195q-23 -119 -113 -194.5t-235 -95.5l-75 -101q94 -13 138.5 -61.5t30.5 -122.5q-17 -87 -89 -135.5t-179 -48.5q-77 0 -135 22l10 53q8 31 33 31q10 0 43 -6t55 -6q61 0 100 24t48 68q11 53 -32.5 84.5 t-143.5 40.5q-24 9 -21 24q1 2 3 6.5t3 6.5l84 114q-123 4 -210.5 45.5t-80.5 79.5z" />
<glyph unicode="&#x160;" horiz-adv-x="1214" d="M135 121q7 37 33 63q157 -88 362 -88q173 0 276 68.5t124 179.5q22 108 -49.5 180t-249.5 125q-212 62 -305 165.5t-62 260.5q32 168 180.5 275.5t348.5 107.5q161 0 270 -68t147 -171q10 -29 7 -45q-3 -21 -35 -37q-44 -21 -99 -25q-26 107 -107.5 165t-207.5 58 q-139 0 -239 -69.5t-123 -184.5q-22 -109 46.5 -180t252.5 -131q218 -72 307 -168t59 -252q-34 -170 -183.5 -272.5t-369.5 -102.5q-109 0 -202 24t-140 57.5t-41 64.5zM555 1808q51 70 86 70q12 0 22.5 -9t28.5 -32l142 -176l266 223l47 -53q10 -14 8 -21q-3 -13 -20 -28 l-289 -236h-39q-18 0 -26 4t-21 17z" />
<glyph unicode="&#x161;" horiz-adv-x="1019" d="M106 100q7 38 33 64q131 -72 291 -72q273 0 307 172q14 75 -34 123.5t-179 81.5q-187 46 -262 130.5t-49 215.5q26 134 145.5 218.5t284.5 84.5q125 0 213.5 -48.5t122.5 -131.5q6 -14 2 -33q-3 -22 -35 -39q-47 -21 -92 -28q-18 77 -83 119t-157 42q-101 0 -176 -52 t-92 -136q-15 -83 41 -133t205 -90q171 -46 238 -121t42 -195q-27 -138 -144.5 -217.5t-305.5 -79.5q-89 0 -166 21t-116 50t-34 54zM403 1452q54 70 86 70q19 0 52 -41l141 -176l268 223l45 -53q11 -11 11 -21q-2 -11 -23 -29l-289 -235h-39q-18 0 -26 3.5t-21 16.5z" />
<glyph unicode="&#x162;" horiz-adv-x="1243" d="M272 1352q6 37 27 82h1008q21 0 28 -12t2 -40l-14 -71h-461l-254 -1311l-90 -119q94 -14 138.5 -62.5t31.5 -121.5q-17 -87 -89 -135.5t-179 -48.5q-77 0 -135 22l10 53q8 31 33 31q10 0 43 -6t55 -6q60 0 99 24t48 68q11 53 -32.5 84.5t-143.5 40.5q-23 9 -20 24 q1 2 3 6.5t3 6.5l106 143q-20 6 -14 35l248 1272h-426q-34 0 -25 41z" />
<glyph unicode="&#x163;" horiz-adv-x="919" d="M184 1016q5 31 25 78h199l61 309q43 14 94 14q22 0 30 -8t5 -25l-57 -290h368q23 0 30.5 -11t2.5 -39l-14 -67h-410l-125 -647q-24 -120 21.5 -178t144.5 -58q110 0 191 37q16 -22 8 -61q-5 -31 -77 -63t-165 -32h-2l-70 -94q94 -14 138.5 -62.5t31.5 -121.5 q-17 -87 -89 -135.5t-179 -48.5q-77 0 -135 22l10 53q8 31 33 31q10 0 43 -6t55 -6q61 0 100 24t48 68q11 53 -32.5 84.5t-143.5 40.5q-24 9 -21 24q1 2 3 6.5t3 6.5l99 131q-95 31 -134.5 119t-13.5 221l125 645h-176q-34 0 -25 39z" />
<glyph unicode="&#x164;" horiz-adv-x="1243" d="M272 1352q6 37 27 82h1008q21 0 28 -12t2 -40l-14 -71h-461l-254 -1311h-90q-27 0 -37 9t-6 30l248 1272h-426q-34 0 -25 41zM582 1808q51 70 86 70q12 0 22.5 -9t28.5 -32l141 -176l266 223l48 -53q10 -14 8 -21q-2 -12 -21 -28l-289 -236h-38q-18 0 -26.5 4t-21.5 17z " />
<glyph unicode="&#x165;" horiz-adv-x="1091" d="M184 1016q5 31 25 78h199l61 309q43 14 94 14q22 0 30 -8t5 -25l-57 -290h368q23 0 30.5 -11t2.5 -39l-14 -67h-410l-125 -647q-24 -120 21.5 -178t144.5 -58q110 0 191 37q16 -22 8 -61q-5 -31 -77 -63t-165 -32q-150 0 -219.5 94.5t-36.5 262.5l125 645h-176 q-34 0 -25 39zM993 1120q111 90 146 199q-30 6 -45.5 31.5t-8.5 64.5t37.5 64.5t67.5 25.5q39 0 60.5 -27t11.5 -77q-26 -146 -144 -254q-35 -33 -66 -50.5t-40 -13.5q-19 11 -19 37z" />
<glyph unicode="&#x166;" horiz-adv-x="1243" d="M272 1352q6 37 27 82h1008q21 0 28 -12t2 -40l-14 -71h-461l-106 -547h221q22 0 28.5 -10.5t0.5 -38.5l-9 -47h-260l-129 -668h-90q-27 0 -37 9t-6 30l123 629h-227q-33 0 -27 32q6 34 21 64h251l107 547h-426q-34 0 -25 41z" />
<glyph unicode="&#x167;" horiz-adv-x="919" d="M154 539q6 28 18 61h139l74 377h-176q-34 0 -25 39q5 31 25 78h199l61 309q43 14 94 14q22 0 30 -8t5 -25l-57 -290h368q23 0 30.5 -11t2.5 -39l-14 -67h-410l-74 -377h275q22 0 29.5 -11t3.5 -38l-9 -45h-315l-35 -176q-24 -120 21.5 -178t144.5 -58q110 0 191 37 q16 -22 8 -61q-5 -31 -77 -63t-165 -32q-150 0 -219.5 94.5t-36.5 262.5l35 174h-113q-37 0 -28 33z" />
<glyph unicode="&#x168;" horiz-adv-x="1472" d="M229 598l162 829q53 17 101 17q40 0 34 -35l-159 -821q-43 -223 40.5 -357.5t264.5 -134.5t316.5 134.5t178.5 357.5l166 846h90q26 0 35 -9.5t6 -31.5l-155 -795q-55 -287 -234.5 -455t-427.5 -168t-360.5 168t-57.5 455zM684 1659q2 9 10.5 29.5t10.5 27.5 q65 115 180 115q71 0 131 -66q54 -57 88 -57q31 0 52 25t40 94l70 -17q19 -4 22.5 -15.5t-4.5 -33.5q-28 -74 -79 -114.5t-118 -40.5q-72 0 -131 65q-50 58 -86 58q-31 0 -53 -25.5t-41 -91.5q-47 -3 -76 10q-23 10 -16 37z" />
<glyph unicode="&#x169;" horiz-adv-x="1253" d="M172 461l123 629q54 14 94 14q22 0 31 -9t6 -26l-121 -616q-31 -163 43 -262t213 -99t251.5 98.5t143.5 262.5l125 641h84q27 0 36.5 -9.5t4.5 -31.5l-114 -592q-42 -222 -196 -354t-357 -132q-204 0 -306.5 131.5t-60.5 354.5zM504 1300q1 7 4.5 17t8.5 22.5t7 18.5 q65 115 181 115q71 0 131 -66q54 -57 88 -57q31 0 52 24.5t40 93.5l69 -16q20 -4 23.5 -15.5t-4.5 -33.5q-28 -74 -79 -115t-118 -41q-71 0 -131 66q-49 57 -86 57q-31 0 -53 -25.5t-41 -91.5q-45 -3 -76 11q-23 10 -16 36z" />
<glyph unicode="&#x16a;" horiz-adv-x="1472" d="M229 598l162 829q53 17 101 17q40 0 34 -35l-159 -821q-43 -223 40.5 -357.5t264.5 -134.5t316.5 134.5t178.5 357.5l166 846h90q26 0 35 -9.5t6 -31.5l-155 -795q-55 -287 -234.5 -455t-427.5 -168t-360.5 168t-57.5 455zM711 1706q8 32 20 63h500q21 0 27 -9.5t2 -35.5 l-11 -57h-516q-28 0 -22 39z" />
<glyph unicode="&#x16b;" horiz-adv-x="1253" d="M172 461l123 629q54 14 94 14q22 0 31 -9t6 -26l-121 -616q-31 -163 43 -262t213 -99t251.5 98.5t143.5 262.5l125 641h84q27 0 36.5 -9.5t4.5 -31.5l-114 -592q-42 -222 -196 -354t-357 -132q-204 0 -306.5 131.5t-60.5 354.5zM532 1348q6 23 21 63h500q20 0 26 -9.5 t2 -35.5l-10 -57h-516q-29 0 -23 39z" />
<glyph unicode="&#x16c;" horiz-adv-x="1472" d="M229 598l162 829q53 17 101 17q40 0 34 -35l-159 -821q-43 -223 40.5 -357.5t264.5 -134.5t316.5 134.5t178.5 357.5l166 846h90q26 0 35 -9.5t6 -31.5l-155 -795q-55 -287 -234.5 -455t-427.5 -168t-360.5 168t-57.5 455zM721 1833q49 22 84 22q21 0 27 -7t6 -29 q1 -75 37 -114.5t102 -39.5q149 0 211 190h65q28 0 35.5 -8t-0.5 -28q-34 -108 -123 -179t-209 -71q-116 0 -179 69t-56 195z" />
<glyph unicode="&#x16d;" horiz-adv-x="1253" d="M172 461l123 629q54 14 94 14q22 0 31 -9t6 -26l-121 -616q-31 -163 43 -262t213 -99t251.5 98.5t143.5 262.5l125 641h84q27 0 36.5 -9.5t4.5 -31.5l-114 -592q-42 -222 -196 -354t-357 -132q-204 0 -306.5 131.5t-60.5 354.5zM543 1475q50 22 84 22q21 0 26.5 -7 t5.5 -30q1 -75 37.5 -114t102.5 -39q149 0 211 190h65q27 0 35 -8.5t0 -28.5q-34 -108 -123 -179t-209 -71q-116 0 -179 69.5t-56 195.5z" />
<glyph unicode="&#x16e;" horiz-adv-x="1472" d="M229 598l162 829q53 17 101 17q40 0 34 -35l-159 -821q-43 -223 40.5 -357.5t264.5 -134.5t316.5 134.5t178.5 357.5l166 846h90q26 0 35 -9.5t6 -31.5l-155 -795q-55 -287 -234.5 -455t-427.5 -168t-360.5 168t-57.5 455zM797 1718q13 78 78 130.5t147 52.5 q80 0 124.5 -52.5t31.5 -130.5q-15 -77 -81.5 -129.5t-146.5 -52.5q-81 0 -124.5 52t-28.5 130zM885 1724q-9 -51 15 -80.5t71 -29.5q42 0 75.5 28t40.5 70q10 51 -15.5 81t-72.5 30q-41 0 -73 -28t-41 -71z" />
<glyph unicode="&#x16f;" horiz-adv-x="1253" d="M172 461l123 629q54 14 94 14q22 0 31 -9t6 -26l-121 -616q-31 -163 43 -262t213 -99t251.5 98.5t143.5 262.5l125 641h84q27 0 36.5 -9.5t4.5 -31.5l-114 -592q-42 -222 -196 -354t-357 -132q-204 0 -306.5 131.5t-60.5 354.5zM618 1362q15 78 79.5 130t146.5 52 q80 0 125 -52t30 -130q-15 -77 -81 -129.5t-146 -52.5q-82 0 -125.5 52t-28.5 130zM707 1368q-9 -52 15 -81.5t71 -29.5q42 0 75.5 28.5t40.5 70.5q10 51 -14.5 80.5t-71.5 29.5q-41 0 -74 -27.5t-42 -70.5z" />
<glyph unicode="&#x170;" horiz-adv-x="1472" d="M229 598l162 829q53 17 101 17q40 0 34 -35l-159 -821q-43 -223 40.5 -357.5t264.5 -134.5t316.5 134.5t178.5 357.5l166 846h90q26 0 35 -9.5t6 -31.5l-155 -795q-55 -287 -234.5 -455t-427.5 -168t-360.5 168t-57.5 455zM709 1616l303 246q21 18 39 18q21 0 32 -14 q22 -29 31 -64l-317 -231q-18 -12 -33 -12q-12 0 -21 12zM1008 1616l303 246q21 18 39 18q21 0 32 -14q22 -29 31 -64l-317 -231q-18 -12 -33 -12q-12 0 -21 12z" />
<glyph unicode="&#x171;" horiz-adv-x="1253" d="M172 461l123 629q54 14 94 14q22 0 31 -9t6 -26l-121 -616q-31 -163 43 -262t213 -99t251.5 98.5t143.5 262.5l125 641h84q27 0 36.5 -9.5t4.5 -31.5l-114 -592q-42 -222 -196 -354t-357 -132q-204 0 -306.5 131.5t-60.5 354.5zM489 1260l304 245q25 19 38 19 q21 0 33 -15q22 -30 31 -63l-317 -232q-18 -12 -31 -12q-14 0 -23 12zM788 1260l304 245q25 19 38 19q21 0 33 -15q22 -30 31 -63l-317 -232q-18 -12 -31 -12q-14 0 -23 12z" />
<glyph unicode="&#x172;" horiz-adv-x="1472" d="M229 598l162 829q53 17 101 17q40 0 34 -35l-159 -821q-43 -223 40.5 -357.5t264.5 -134.5t316.5 134.5t178.5 357.5l166 846h90q26 0 35 -9.5t6 -31.5l-155 -795q-47 -247 -189.5 -407.5t-343.5 -200.5q-161 -106 -182 -232q-10 -48 16 -79t90 -31q44 0 82 12 q23 8 32.5 1t6.5 -30l-12 -53q-57 -29 -143 -29q-108 0 -158 54.5t-31 144.5q11 59 52 120t104 107q-240 6 -349.5 173t-54.5 450z" />
<glyph unicode="&#x173;" horiz-adv-x="1253" d="M172 461l123 629q54 14 94 14q22 0 31 -9t6 -26l-121 -616q-31 -163 43 -262t213 -99t251.5 98.5t143.5 262.5l125 641h84q27 0 36.5 -9.5t4.5 -31.5l-114 -592q-36 -187 -152 -311t-276 -160q-161 -105 -185 -232q-10 -48 16.5 -79t90.5 -31q44 0 82 12q23 8 32.5 1 t6.5 -30l-13 -53q-57 -29 -143 -29q-108 0 -158 54.5t-31 144.5q11 59 52 120t104 107q-195 8 -291.5 138t-54.5 348z" />
<glyph unicode="&#x174;" horiz-adv-x="2269" d="M293 1399q65 43 115 43q18 0 26.5 -7.5t9.5 -27.5l138 -1241q354 524 653 1268h129q28 0 41 -9t16 -32l123 -1225q390 572 662 1266h96q51 0 33 -43q-276 -701 -721 -1354q-27 -37 -72 -37h-121l-123 1257q-274 -661 -651 -1220q-25 -37 -72 -37h-116zM1075 1616 q2 9 19 26l288 236h39q18 0 26 -3.5t21 -16.5l205 -246l-55 -51q-19 -15 -31 -15q-15 0 -33 21l-159 196l-258 -215q-34 14 -52 35q-13 13 -10 33z" />
<glyph unicode="&#x175;" horiz-adv-x="1787" d="M221 1063q72 45 117 45q28 0 31 -33l104 -928q266 397 469 947h113q23 0 34.5 -10t14.5 -33l113 -904q274 410 462 947h86q51 0 35 -45q-183 -517 -514 -1014q-25 -35 -63 -35h-121l-105 915q-173 -443 -458 -882q-22 -33 -64 -33h-117zM772 1260q3 12 21 26l286 236h39 q29 0 47 -21l207 -246l-57 -51q-17 -14 -31 -14q-16 0 -33 20l-159 197l-256 -215q-37 15 -54 35q-13 13 -10 33z" />
<glyph unicode="&#x176;" horiz-adv-x="1347" d="M268 1378q74 62 119 62q27 0 33 -21l289 -796q373 384 612 811h90q22 0 33 -8t8 -21q-2 -12 -12 -31q-275 -475 -695 -889l-94 -485h-90q-28 0 -37.5 8.5t-5.5 30.5l86 440zM618 1616q2 9 19 26l289 236h39q18 0 26 -3.5t21 -16.5l205 -246l-56 -51q-19 -15 -31 -15 q-14 0 -32 21l-160 196l-258 -215q-33 13 -51 35q-14 14 -11 33z" />
<glyph unicode="&#x177;" horiz-adv-x="1284" d="M66 -236q30 159 215 263q-78 54 -103 158t4 249l127 656q43 14 97 14q22 0 29.5 -8t4.5 -25l-123 -639q-33 -168 18.5 -253t194.5 -85q95 0 201.5 39t196.5 111l164 850h86q27 0 36.5 -9.5t4.5 -31.5l-201 -1035q-22 -111 -75.5 -206t-134 -166.5t-193 -112.5t-242.5 -41 q-162 0 -246 75t-61 197zM203 -225q-14 -73 39 -119.5t153 -46.5q195 0 322.5 106t163.5 289l24 125q-96 -72 -207 -113t-219 -41q-50 0 -104 13q-147 -87 -172 -213zM506 1260q3 12 20 26l287 236h39q29 0 47 -21l207 -246l-57 -51q-17 -14 -31 -14q-16 0 -33 20l-160 197 l-256 -215q-36 14 -53 35q-13 13 -10 33z" />
<glyph unicode="&#x178;" horiz-adv-x="1343" d="M266 1378q74 62 119 62q27 0 33 -21l289 -796q373 384 612 811h90q22 0 33 -8t8 -21q-2 -12 -12 -31q-275 -475 -695 -889l-94 -485h-90q-28 0 -37.5 8.5t-5.5 30.5l86 440zM662 1722q7 38 34.5 61t63.5 23q37 0 57.5 -25t11.5 -65q-7 -39 -34.5 -62.5t-63.5 -23.5 q-35 0 -55.5 25.5t-13.5 66.5zM1012 1722q7 38 34.5 61t61.5 23q37 0 58 -25t12 -65q-7 -39 -35 -62.5t-64 -23.5q-35 0 -54.5 25t-12.5 67z" />
<glyph unicode="&#x179;" horiz-adv-x="1241" d="M63 98l1041 1213h-739q-36 0 -27 41q5 31 29 82h860q36 0 47 -25q13 -27 10 -74l-1040 -1214h780q22 0 29.5 -12t1.5 -39l-13 -70h-919q-38 0 -49 25q-14 29 -11 73zM707 1616l303 246q21 18 39 18q21 0 32 -14q22 -29 31 -64l-317 -231q-18 -12 -33 -12q-12 0 -21 12z " />
<glyph unicode="&#x17a;" horiz-adv-x="1030" d="M51 96l803 881h-582q-35 0 -26 39q5 35 24 78h699q35 0 45 -23q16 -26 16 -74l-803 -880h611q21 0 27 -11t1 -40l-12 -66h-741q-35 0 -45 23q-17 27 -17 73zM526 1260l303 245q25 19 39 19q21 0 33 -15q22 -30 31 -63l-318 -232q-18 -12 -30 -12q-14 0 -23 12z" />
<glyph unicode="&#x17b;" horiz-adv-x="1241" d="M63 98l1041 1213h-739q-36 0 -27 41q5 31 29 82h860q36 0 47 -25q13 -27 10 -74l-1040 -1214h780q22 0 29.5 -12t1.5 -39l-13 -70h-919q-38 0 -49 25q-14 29 -11 73zM778 1722q7 37 35.5 60.5t63.5 23.5q37 0 57.5 -25t11.5 -65q-7 -39 -34.5 -62.5t-63.5 -23.5 q-35 0 -56 25.5t-14 66.5z" />
<glyph unicode="&#x17c;" horiz-adv-x="1030" d="M51 96l803 881h-582q-35 0 -26 39q5 35 24 78h699q35 0 45 -23q16 -26 16 -74l-803 -880h611q21 0 27 -11t1 -40l-12 -66h-741q-35 0 -45 23q-17 27 -17 73zM606 1366q7 37 35.5 60.5t63.5 23.5q36 0 57 -25t14 -65q-7 -39 -35.5 -62.5t-64.5 -23.5q-35 0 -56 25.5 t-14 66.5z" />
<glyph unicode="&#x17d;" horiz-adv-x="1241" d="M63 98l1041 1213h-739q-36 0 -27 41q5 31 29 82h860q36 0 47 -25q13 -27 10 -74l-1040 -1214h780q22 0 29.5 -12t1.5 -39l-13 -70h-919q-38 0 -49 25q-14 29 -11 73zM590 1808q51 70 86 70q12 0 22.5 -9t28.5 -32l141 -176l267 223l47 -53q10 -14 8 -21q-2 -12 -21 -28 l-288 -236h-39q-18 0 -26 4t-21 17z" />
<glyph unicode="&#x17e;" horiz-adv-x="1030" d="M51 96l803 881h-582q-35 0 -26 39q5 35 24 78h699q35 0 45 -23q16 -26 16 -74l-803 -880h611q21 0 27 -11t1 -40l-12 -66h-741q-35 0 -45 23q-17 27 -17 73zM420 1452q54 70 86 70q12 0 22.5 -9t28.5 -32l141 -176l269 223l45 -53q10 -10 10 -21q-2 -11 -23 -29 l-288 -235h-39q-18 0 -26 3.5t-21 16.5z" />
<glyph unicode="&#x17f;" horiz-adv-x="866" d="M182 1016q5 31 25 78h219l14 73q33 169 136.5 261t252.5 92q62 0 115.5 -15t80.5 -35.5t24 -37.5q-6 -33 -33 -64q-68 33 -185 33q-208 0 -253 -223l-228 -1178h-86q-28 0 -37.5 8.5t-5.5 30.5l182 938h-194q-36 0 -27 39z" />
<glyph unicode="&#x191;" horiz-adv-x="1126" d="M-133 -422q207 162 250 381l286 1475h805q31 0 25 -41q-7 -33 -27 -82h-688l-106 -547h549q22 0 28 -10.5t0 -38.5l-12 -72h-588l-135 -686q-15 -80 -50 -152.5t-76 -122t-84.5 -87t-78 -55t-53.5 -17.5q-14 0 -28 17t-17 38z" />
<glyph unicode="&#x192;" horiz-adv-x="866" d="M-287 -418q6 33 33 64q68 -33 182 -33q209 0 254 223l221 1141h-194q-36 0 -27 39q5 31 25 78h219l14 73q33 169 136.5 261t252.5 92q62 0 115.5 -15t80.5 -35.5t24 -37.5q-6 -33 -33 -64q-68 33 -185 33q-208 0 -253 -223l-17 -84h348q42 0 31 -52l-12 -65h-389 l-220 -1131q-33 -168 -136.5 -260t-252.5 -92q-61 0 -114 15t-79.5 35.5t-23.5 37.5z" />
<glyph unicode="&#x1fa;" horiz-adv-x="1359" d="M-23 29q3 9 9 18l776 1335q-36 24 -52.5 65t-7.5 91q15 76 81.5 129t146.5 53q81 0 124.5 -52.5t28.5 -129.5q-9 -50 -40 -91t-76 -65l266 -1382h-100q-28 0 -40 8t-14 27l-63 356h-686l-224 -391h-88q-22 0 -33 8t-8 21zM395 512h598l-145 791zM793 1542 q-10 -50 15.5 -79t72.5 -29q40 0 72.5 27.5t41.5 70.5q9 50 -15 79t-71 29q-42 0 -75.5 -28t-40.5 -70zM809 1806l225 185q21 16 39 16q13 0 25 -12q17 -17 30 -60l-243 -174q-13 -8 -25 -8q-11 0 -18 10z" />
<glyph unicode="&#x1fb;" horiz-adv-x="1218" d="M94 319q32 166 166.5 260.5t329.5 94.5q184 0 319 -74l23 113q28 143 -49 214.5t-238 71.5q-181 0 -319 -69q-17 23 -9 61q7 41 123 84t258 43q207 0 305.5 -106t59.5 -307l-94 -494q-24 -115 55 -115h37q0 -40 -2 -49q-5 -23 -37 -42t-74 -19q-64 0 -96.5 49t-22.5 137 q-77 -92 -188 -144.5t-240 -52.5q-169 0 -252.5 95.5t-54.5 248.5zM229 324q-21 -108 41.5 -170t171.5 -62q111 0 219.5 56.5t194.5 170.5l33 175q-57 28 -142.5 44.5t-166.5 16.5q-143 0 -236 -62t-115 -169zM578 1362q13 76 79 129t146 53q81 0 125 -52.5t30 -129.5 q-15 -78 -80 -130t-147 -52q-80 0 -124 52t-29 130zM666 1366q-9 -50 16 -79.5t72 -29.5q40 0 73.5 28.5t40.5 70.5q10 50 -14.5 79t-71.5 29q-41 0 -74 -27.5t-42 -70.5zM682 1630l227 185q19 16 37 16q17 0 25 -12q17 -17 30 -60l-243 -174q-13 -8 -25 -8q-8 0 -18 10z " />
<glyph unicode="&#x1fc;" horiz-adv-x="1802" d="M-42 12q-9 12 7 35l957 1354q74 33 161 33h748q30 0 24 -41q-9 -38 -26 -82h-688l-107 -543h549q22 0 29 -11.5t2 -37.5l-15 -72h-587l-60 -305q-25 -126 0.5 -173.5t114.5 -47.5h518q22 0 28.5 -11.5t0.5 -39.5l-12 -70h-574q-149 0 -199 77.5t-16 250.5l12 63h-465 l-272 -391h-92q-29 0 -38 12zM442 512h406l156 801zM1212 1616l304 246q21 18 38 18q22 0 33 -14q22 -29 31 -64l-318 -231q-18 -12 -32 -12q-12 0 -21 12z" />
<glyph unicode="&#x1fd;" horiz-adv-x="1933" d="M94 317q32 166 166.5 261.5t329.5 95.5q182 0 319 -78l23 117q28 143 -49 214.5t-238 71.5q-181 0 -319 -69q-17 23 -9 61q7 41 123 84t258 43q152 0 248.5 -63t114.5 -181q84 113 212 178.5t261 65.5q190 0 287 -113.5t63 -291.5q-44 -224 -190 -224h-670 q-10 -93 12 -168.5t69 -124.5t113 -75.5t146 -26.5q157 0 289 66q15 -30 8 -62q-8 -40 -108.5 -81.5t-229.5 -41.5q-145 0 -250 67t-153 187q-100 -122 -229 -188t-273 -66q-182 0 -268 95.5t-56 246.5zM229 319q-21 -105 41.5 -166t171.5 -61q115 0 230.5 62.5t204.5 191.5 q0 64 12 141q-56 32 -141.5 50t-167.5 18q-143 0 -236.5 -64.5t-114.5 -171.5zM967 1260l303 245q25 19 39 19q20 0 32 -15q22 -30 31 -63l-317 -232q-18 -12 -31 -12q-14 0 -23 12zM1047 606h663q27 40 41 103q25 131 -43.5 210.5t-204.5 79.5q-98 0 -189.5 -47 t-163 -137.5t-103.5 -208.5z" />
<glyph unicode="&#x1fe;" d="M19.5 15.5q-6.5 15.5 17.5 37.5l192 174q-103 198 -45 490q34 179 115 322.5t190 233.5t237.5 137.5t264.5 47.5q273 0 416 -174l168 150h74q28 0 30.5 -15t-20.5 -37l-197 -176q104 -190 47 -489q-35 -179 -116 -322.5t-190.5 -234t-237.5 -138t-263 -47.5 q-272 0 -419 175l-166 -150h-60q-31 0 -37.5 15.5zM330 733q-47 -235 20 -397l944 846q-117 153 -344 153q-100 0 -196 -37t-181 -108.5t-149.5 -189.5t-93.5 -267zM397 252q118 -154 344 -154q79 0 156.5 22.5t151.5 71t135 118t108 170t70 220.5q47 233 -21 398zM858 1616 l303 246q21 18 39 18q22 0 33 -14q22 -29 31 -64l-318 -231q-18 -12 -33 -12q-11 0 -20 12z" />
<glyph unicode="&#x1ff;" horiz-adv-x="1286" d="M27 25q0 11 18 26l137 123q-85 151 -43 373q35 175 133.5 306.5t230 198t275.5 66.5q197 0 318 -127l112 103h56q22 0 31.5 -7t7.5 -20q-4 -12 -15 -23l-139 -124q87 -154 43 -373q-26 -131 -89 -240.5t-149 -181t-189 -111t-210 -39.5q-201 0 -319 127l-113 -102h-62 q-21 0 -29 7t-5 18zM279 559q-35 -163 16 -285l692 621q-88 104 -244 104q-76 0 -148.5 -27.5t-136 -80.5t-111 -138.5t-68.5 -193.5zM342 199q88 -105 246 -105q75 0 148 28t137.5 80.5t112.5 138.5t69 194q32 162 -19 284zM641 1260l303 245q25 19 39 19q21 0 33 -15 q22 -30 31 -63l-318 -232q-18 -12 -31 -12t-22 12z" />
<glyph unicode="&#x218;" horiz-adv-x="1214" d="M135 121q7 37 33 63q157 -88 362 -88q173 0 276 68.5t124 179.5q22 108 -49.5 180t-249.5 125q-212 62 -305 165.5t-62 260.5q32 168 180.5 275.5t348.5 107.5q161 0 270 -68t147 -171q10 -29 7 -45q-3 -21 -35 -37q-44 -21 -99 -25q-26 107 -107.5 165t-207.5 58 q-139 0 -239 -69.5t-123 -184.5q-22 -109 46.5 -180t252.5 -131q218 -72 307 -168t59 -252q-34 -170 -183.5 -272.5t-369.5 -102.5q-109 0 -202 24t-140 57.5t-41 64.5zM379 -434q103 86 133 178q-29 6 -43.5 30t-7.5 60q7 38 36.5 62t65.5 24q37 0 58 -25t12 -69 q-25 -136 -129 -229q-23 -23 -47.5 -40t-40 -23t-19.5 -3q-7 3 -12.5 13.5t-5.5 21.5z" />
<glyph unicode="&#x219;" horiz-adv-x="1019" d="M106 100q7 38 33 64q131 -72 291 -72q273 0 307 172q14 75 -34 123.5t-179 81.5q-187 46 -262 130.5t-49 215.5q26 134 145.5 218.5t284.5 84.5q125 0 213.5 -48.5t122.5 -131.5q6 -14 2 -33q-3 -22 -35 -39q-47 -21 -92 -28q-18 77 -83 119t-157 42q-101 0 -176 -52 t-92 -136q-15 -83 41 -133t205 -90q171 -46 238 -121t42 -195q-27 -138 -144.5 -217.5t-305.5 -79.5q-89 0 -166 21t-116 50t-34 54zM276 -434q104 87 134 178q-29 6 -44 30.5t-8 59.5q7 38 37 62t66 24q37 0 57.5 -25t11.5 -69q-25 -136 -129 -229q-23 -23 -47 -40 t-39.5 -23t-19.5 -3q-7 3 -13 13.5t-6 21.5z" />
<glyph unicode="&#x21a;" horiz-adv-x="1243" d="M272 1352q6 37 27 82h1008q21 0 28 -12t2 -40l-14 -71h-461l-254 -1311h-90q-27 0 -37 9t-6 30l248 1272h-426q-34 0 -25 41zM338 -434q103 86 133 178q-29 6 -43.5 30t-7.5 60q7 38 36.5 62t65.5 24q37 0 58 -25t12 -69q-25 -136 -129 -229q-23 -23 -47.5 -40t-40 -23 t-19.5 -3q-7 3 -12.5 13.5t-5.5 21.5z" />
<glyph unicode="&#x21b;" horiz-adv-x="919" d="M184 1016q5 31 25 78h199l61 309q43 14 94 14q22 0 30 -8t5 -25l-57 -290h368q23 0 30.5 -11t2.5 -39l-14 -67h-410l-125 -647q-24 -120 21.5 -178t144.5 -58q110 0 191 37q16 -22 8 -61q-5 -31 -77 -63t-165 -32q-150 0 -219.5 94.5t-36.5 262.5l125 645h-176 q-34 0 -25 39zM276 -434q104 87 134 178q-29 6 -44 30.5t-8 59.5q7 38 37 62t66 24q37 0 57.5 -25t11.5 -69q-25 -136 -129 -229q-23 -23 -47 -40t-39.5 -23t-19.5 -3q-7 3 -13 13.5t-6 21.5z" />
<glyph unicode="&#x2c6;" horiz-adv-x="845" d="M285 1219q3 13 20 26l287 236h39q29 0 47 -21l207 -246l-58 -51q-17 -14 -28 -14q-18 0 -35 20l-160 197l-256 -215q-36 14 -53 35q-13 13 -10 33z" />
<glyph unicode="&#x2c7;" horiz-adv-x="845" d="M307 1411q54 70 86 70q12 0 22.5 -9t28.5 -32l142 -176l268 223l47 -53q8 -11 8 -21q-2 -12 -22 -29l-287 -235h-39q-29 0 -49 20z" />
<glyph unicode="&#x2d8;" horiz-adv-x="845" d="M334 1434q46 22 82 22q21 0 27 -7t6 -30q1 -75 37 -114t102 -39q149 0 211 190h65q27 0 35 -8.5t0 -28.5q-34 -108 -123 -179t-209 -71q-116 0 -179 69.5t-54 195.5z" />
<glyph unicode="&#x2d9;" horiz-adv-x="845" d="M512 1325q7 37 35 60.5t63 23.5q37 0 58 -25t14 -65q-7 -39 -34.5 -62.5t-63.5 -23.5q-35 0 -57 25.5t-15 66.5z" />
<glyph unicode="&#x2da;" horiz-adv-x="845" d="M408 1321q15 78 79 130t146 52q80 0 125 -52t30 -130t-80 -130t-145 -52q-82 0 -126 52t-29 130zM496 1327q-9 -51 15 -80.5t71 -29.5q42 0 75.5 28t40.5 70q10 51 -14.5 80.5t-71.5 29.5q-41 0 -74 -27.5t-42 -70.5z" />
<glyph unicode="&#x2db;" horiz-adv-x="845" d="M106 -252q12 67 64 135.5t131 116.5h125q-91 -56 -141.5 -118.5t-61.5 -123.5q-10 -48 16.5 -79t90.5 -31q44 0 82 12q23 8 32.5 1t6.5 -30l-13 -53q-57 -29 -143 -29q-108 0 -158 54.5t-31 144.5z" />
<glyph unicode="&#x2dc;" horiz-adv-x="845" d="M293 1262q4 17 22 57q62 115 181 115q69 0 129 -66q54 -57 88 -57q31 0 52 25t40 94l72 -17q18 -4 21.5 -15.5t-5.5 -33.5q-26 -74 -78 -115t-119 -41q-71 0 -131 66q-47 57 -86 57q-31 0 -51.5 -25t-40.5 -92q-48 -3 -76 11q-22 8 -18 37z" />
<glyph unicode="&#x2dd;" horiz-adv-x="845" d="M244 1219l303 245q25 19 39 19q20 0 32 -15q22 -30 31 -63l-317 -231q-19 -13 -31 -13t-22 13zM543 1219l303 245q25 19 39 19q21 0 33 -15q21 -28 30 -63l-317 -231q-19 -13 -31 -13t-22 13z" />
<glyph unicode="&#x3a9;" horiz-adv-x="1603" d="M84 39q7 33 27 82h303q-141 106 -197.5 263.5t-17.5 354.5q42 218 160.5 382.5t284.5 250.5t357 86q142 0 254 -50t182 -143t95 -226t-8 -300q-39 -198 -156.5 -355t-298.5 -263h272q22 0 29.5 -12t1.5 -39l-12 -70h-518l14 76q5 29 33 43q194 101 324.5 258.5 t168.5 357.5q28 147 9 259t-76 187.5t-143.5 114.5t-194.5 39t-210 -39.5t-188 -113.5t-149.5 -189t-91.5 -258q-38 -200 31.5 -357.5t224.5 -258.5q21 -14 16 -43l-14 -76h-483q-35 0 -29 39z" />
<glyph unicode="&#x400;" horiz-adv-x="1167" d="M184 328l215 1106h799q31 0 25 -41q-7 -33 -27 -82h-682l-106 -543h540q23 0 30.5 -11t2.5 -38l-14 -72h-582l-59 -305q-24 -122 3.5 -171.5t108.5 -49.5h512q23 0 30 -11.5t1 -39.5l-12 -70h-568q-143 0 -198 75.5t-19 252.5zM676 1802q24 39 55 64q17 14 37 14 q16 0 31 -18l209 -246l-52 -45q-15 -12 -28 -12t-25 12z" />
<glyph unicode="&#x401;" horiz-adv-x="1167" d="M184 328l215 1106h799q31 0 25 -41q-7 -33 -27 -82h-682l-106 -543h540q23 0 30.5 -11t2.5 -38l-14 -72h-582l-59 -305q-24 -122 3.5 -171.5t108.5 -49.5h512q23 0 30 -11.5t1 -39.5l-12 -70h-568q-143 0 -198 75.5t-19 252.5zM602 1722q7 38 34.5 61t63.5 23 q37 0 58 -25t12 -65q-7 -39 -34.5 -62.5t-63.5 -23.5q-35 0 -56 25.5t-14 66.5zM952 1722q7 38 35 61t62 23q37 0 57.5 -25t11.5 -65q-7 -39 -34.5 -62.5t-63.5 -23.5q-35 0 -55 25.5t-13 66.5z" />
<glyph unicode="&#x402;" d="M272 1352q6 37 27 82h1008q21 0 28 -12t2 -40l-14 -71h-461l-104 -533q85 63 183.5 99t191.5 36q187 0 264 -121.5t37 -336.5l-86 -439q-34 -172 -152 -301q-59 -65 -114.5 -102.5t-80.5 -28.5q-32 13 -45 56q208 157 252 378l84 435q68 338 -211 338q-82 0 -172.5 -34.5 t-173.5 -97.5l-127 -659h-90q-27 0 -37 9t-6 30l248 1272h-426q-34 0 -25 41z" />
<glyph unicode="&#x403;" horiz-adv-x="1126" d="M129 39l272 1395h801q21 0 27.5 -12t1.5 -40l-14 -71h-701l-254 -1311h-90q-27 0 -37 9t-6 30zM688 1616l303 246q21 18 39 18q22 0 33 -14q22 -29 31 -64l-318 -231q-18 -12 -33 -12q-11 0 -20 12z" />
<glyph unicode="&#x404;" horiz-adv-x="1406" d="M187.5 436.5q-30.5 145.5 5.5 325.5q31 162 110 296t184.5 220t229.5 133t250 47q189 0 313.5 -82.5t165.5 -218.5q6 -17 2 -31q-2 -17 -31 -36q-53 -29 -102 -35q-32 134 -131 207t-248 73q-76 0 -152.5 -23.5t-148 -71.5t-131 -114t-104.5 -157.5t-66 -196.5h696 q22 0 29.5 -11t1.5 -38l-14 -72h-730q-7 -129 29 -234t106.5 -175t170 -108t217.5 -38q194 0 358 84q12 -26 4 -65q-8 -45 -131 -92.5t-272 -47.5q-160 0 -289 55.5t-210.5 158t-112 248z" />
<glyph unicode="&#x405;" horiz-adv-x="1214" d="M135 121q7 37 33 63q157 -88 362 -88q173 0 276 68.5t124 179.5q22 108 -49.5 180t-249.5 125q-212 62 -305 165.5t-62 260.5q32 168 180.5 275.5t348.5 107.5q161 0 270 -68t147 -171q10 -29 7 -45q-3 -21 -35 -37q-44 -21 -99 -25q-26 107 -107.5 165t-207.5 58 q-139 0 -239 -69.5t-123 -184.5q-22 -109 46.5 -180t252.5 -131q218 -72 307 -168t59 -252q-34 -170 -183.5 -272.5t-369.5 -102.5q-109 0 -202 24t-140 57.5t-41 64.5z" />
<glyph unicode="&#x406;" horiz-adv-x="579" d="M143 39l271 1388q53 17 100 17q41 0 35 -35l-273 -1409h-90q-28 0 -37.5 8.5t-5.5 30.5z" />
<glyph unicode="&#x407;" horiz-adv-x="579" d="M143 39l271 1388q53 17 100 17q41 0 35 -35l-273 -1409h-90q-28 0 -37.5 8.5t-5.5 30.5zM283 1722q7 38 34.5 61t63.5 23q37 0 58 -25t12 -65q-7 -39 -35 -62.5t-64 -23.5q-35 0 -55.5 25.5t-13.5 66.5zM633 1722q7 38 34.5 61t61.5 23q37 0 58 -25t12 -65 q-7 -39 -35 -62.5t-64 -23.5q-35 0 -54.5 25t-12.5 67z" />
<glyph unicode="&#x408;" horiz-adv-x="841" d="M-35 70q5 33 33 65q75 -37 197 -37q116 0 193 69t104 206l204 1057q54 14 101 14q23 0 31 -8t3 -25l-200 -1038q-37 -189 -149.5 -293.5t-291.5 -104.5q-57 0 -111.5 14.5t-86 37t-27.5 43.5z" />
<glyph unicode="&#x409;" horiz-adv-x="2285" d="M-49 53q6 40 33 70q53 -27 125 -27t124 59.5t111 223.5q78 213 155.5 496t131.5 559h803q26 0 35 -9.5t6 -31.5l-101 -508q167 65 373 65q241 0 363.5 -122.5t80.5 -342.5q-47 -234 -227 -359.5t-453 -125.5h-174q-139 0 -191.5 73t-17.5 255l191 983h-574 q-50 -225 -122 -490t-140 -459q-54 -151 -110 -236t-115.5 -118t-142.5 -33q-73 0 -121.5 25.5t-42.5 52.5zM1269 164.5q23 -43.5 107 -43.5h135q141 0 250.5 35.5t186 117t100.5 203.5q33 173 -58.5 261.5t-293.5 88.5q-182 0 -342 -57l-84 -428q-24 -134 -1 -177.5z" />
<glyph unicode="&#x40a;" horiz-adv-x="2228" d="M131 39l270 1388q53 17 101 17q41 0 35 -35l-123 -631h745l129 656h90q26 0 35 -9.5t6 -31.5l-100 -508q167 65 373 65q241 0 363.5 -122.5t80.5 -342.5q-46 -234 -227 -359.5t-453 -125.5h-174q-139 0 -191.5 73t-17.5 255l64 329h-746l-127 -657h-90q-27 0 -37 9t-6 30 zM1213.5 164.5q23.5 -43.5 107.5 -43.5h135q141 0 250.5 35.5t186 117t100.5 203.5q33 173 -59 261.5t-294 88.5q-182 0 -342 -57l-84 -428q-24 -134 -0.5 -177.5z" />
<glyph unicode="&#x40b;" horiz-adv-x="1603" d="M272 1352q6 37 27 82h1008q21 0 28 -12t2 -40l-14 -71h-461l-104 -533q85 63 183.5 99t191.5 36q187 0 264 -121.5t37 -336.5l-48 -244q-24 -115 56 -115h37q0 -40 -2 -49q-5 -24 -38 -42.5t-81 -18.5q-70 0 -103 53.5t-12 157.5l49 256q68 338 -211 338 q-82 0 -172.5 -34.5t-173.5 -97.5l-127 -659h-90q-27 0 -37 9t-6 30l248 1272h-426q-34 0 -25 41z" />
<glyph unicode="&#x40c;" horiz-adv-x="1347" d="M131 39l270 1388q53 17 101 17q41 0 35 -35l-142 -729q233 136 473.5 334.5t440.5 429.5q51 -17 71 -35t15 -41q-4 -24 -23 -43q-227 -272 -581 -530q76 -222 164 -399.5t165 -254.5q45 -45 88 -45h33q0 -37 -2 -53q-6 -26 -40.5 -47t-78.5 -21q-62 0 -123 64 q-159 167 -325 676q-158 -111 -307 -191l-101 -524h-90q-27 0 -37 9t-6 30zM743 1616l304 246q21 18 38 18q22 0 33 -14q22 -29 31 -64l-318 -231q-18 -12 -32 -12q-12 0 -21 12z" />
<glyph unicode="&#x40d;" horiz-adv-x="1470" d="M131 35l270 1392q53 17 101 17q41 0 35 -35l-232 -1188l993 1194q23 29 52 29q22 0 50 -13.5t50 -33.5l-270 -1397h-90q-28 0 -37.5 8.5t-5.5 30.5l227 1171l-991 -1194q-23 -26 -50 -26q-22 0 -51.5 12.5t-50.5 32.5zM793 1802q24 39 55 64q17 14 37 14q15 0 30 -18 l209 -246l-51 -45q-15 -12 -29 -12q-12 0 -24 12z" />
<glyph unicode="&#x40e;" horiz-adv-x="1316" d="M251.5 11q-7.5 11 10.5 34q183 198 342 395l-301 938q74 62 115 62q17 0 25 -6.5t14 -24.5l256 -836q342 434 573 861h90q23 0 33.5 -13t-0.5 -35q-197 -354 -464 -711.5t-568 -674.5h-90q-28 0 -35.5 11zM664 1833q49 22 84 22q21 0 26.5 -6.5t5.5 -29.5 q1 -75 37.5 -114.5t102.5 -39.5q148 0 210 190h66q28 0 35.5 -8t-0.5 -28q-34 -108 -123 -179t-209 -71q-116 0 -179 69t-56 195z" />
<glyph unicode="&#x40f;" horiz-adv-x="1480" d="M186 328l213 1099q53 17 101 17q41 0 35 -35l-207 -1067q-24 -122 3.5 -171.5t108.5 -49.5h639l256 1313h88q27 0 35.5 -9.5t5.5 -31.5l-270 -1393h-453l-59 -301h-90q-27 0 -36.5 9.5t-4.5 31.5l51 260h-199q-143 0 -198 75.5t-19 252.5z" />
<glyph unicode="&#x410;" horiz-adv-x="1359" d="M-23 29q3 9 9 18l796 1370q66 27 127 27q27 0 38 -10t16 -35l270 -1399h-100q-28 0 -40 8t-14 27l-63 356h-686l-224 -391h-88q-22 0 -33 8t-8 21zM395 512h598l-145 791z" />
<glyph unicode="&#x411;" horiz-adv-x="1353" d="M186 328l215 1106h811q21 0 27.5 -12t1.5 -40l-14 -71h-711l-84 -426q167 65 375 65q241 0 363.5 -122.5t80.5 -342.5q-47 -234 -228 -359.5t-454 -125.5h-166q-143 0 -198 75.5t-19 252.5zM328 342q-24 -122 3.5 -171.5t108.5 -49.5h129q142 0 251.5 35.5t185.5 117 t100 203.5q33 173 -58 261.5t-292 88.5q-184 0 -344 -57z" />
<glyph unicode="&#x412;" horiz-adv-x="1333" d="M184 328l215 1106h492q112 0 196.5 -30t132 -82t65.5 -119.5t3 -145.5q-23 -117 -97.5 -199.5t-191.5 -122.5q121 -33 177 -122t30 -220q-35 -177 -183 -285t-386 -108h-236q-141 0 -196 76t-21 252zM326 168.5q25 -47.5 112 -47.5h226q172 0 274 72t127 202 q26 136 -53 204.5t-264 68.5h-359l-63 -326q-25 -126 0 -173.5zM412 788h344q169 0 266.5 68t122.5 195q24 118 -52.5 189t-234.5 71h-344z" />
<glyph unicode="&#x413;" horiz-adv-x="1126" d="M129 39l272 1395h801q21 0 27.5 -12t1.5 -40l-14 -71h-701l-254 -1311h-90q-27 0 -37 9t-6 30z" />
<glyph unicode="&#x414;" horiz-adv-x="1318" d="M-66 -260l74 381h103q139 294 252 632.5t184 680.5h700q27 0 35.5 -9.5t5.5 -31.5l-248 -1272h76q27 0 36.5 -9.5t4.5 -31.5l-74 -381h-88q-27 0 -36.5 9.5t-4.5 31.5l52 260h-881l-59 -301h-89q-28 0 -38 9.5t-5 31.5zM258 121h643l232 1190h-474q-61 -266 -171 -593.5 t-230 -596.5z" />
<glyph unicode="&#x415;" horiz-adv-x="1167" d="M184 328l215 1106h799q31 0 25 -41q-7 -33 -27 -82h-682l-106 -543h540q23 0 30.5 -11t2.5 -38l-14 -72h-582l-59 -305q-24 -122 3.5 -171.5t108.5 -49.5h512q23 0 30 -11.5t1 -39.5l-12 -70h-568q-143 0 -198 75.5t-19 252.5z" />
<glyph unicode="&#x416;" horiz-adv-x="1996" d="M-29 43q4 32 19 53h30q66 0 152 80q106 99 242.5 275.5t261.5 384.5q-247 263 -342 499q-5 10 0 35q7 44 112 74q93 -208 236 -389t307 -312l133 684q53 17 101 17q22 0 29.5 -8.5t4.5 -26.5l-129 -666q214 131 428 311.5t390 389.5q50 -16 68.5 -34t15.5 -40 q-4 -22 -17 -35q-180 -232 -534 -499q45 -209 111 -385.5t134 -274.5q57 -80 123 -80h31q2 -17 -2 -53q-6 -28 -39 -48t-78 -20q-89 0 -160 99q-72 103 -136.5 282.5t-110.5 391.5q-122 -87 -254 -166l-113 -582h-90q-27 0 -37 9t-6 30l106 543q-101 78 -192 166 q-127 -212 -261.5 -391.5t-248.5 -282.5q-108 -99 -197 -99q-45 0 -69.5 20t-18.5 48z" />
<glyph unicode="&#x417;" horiz-adv-x="1220" d="M84 129q8 39 33 64q156 -95 379 -95q179 0 300.5 72t147.5 203q27 141 -79.5 222t-336.5 81h-20q-35 0 -27 41q5 28 27 80h43q203 0 333.5 77t155.5 203q23 122 -48 190t-214 68q-123 0 -225.5 -57t-169.5 -170q-74 6 -100 47q-7 12 -4 29q4 15 14 28q80 108 216 177 t294 69q198 0 303 -104.5t74 -268.5q-25 -129 -124.5 -219.5t-244.5 -128.5q151 -34 224.5 -127t45.5 -239q-36 -186 -201.5 -291t-398.5 -105q-66 0 -130.5 10.5t-113 28t-85 37.5t-54.5 41t-14 37z" />
<glyph unicode="&#x418;" horiz-adv-x="1470" d="M131 35l270 1392q53 17 101 17q41 0 35 -35l-232 -1188l993 1194q23 29 52 29q22 0 50 -13.5t50 -33.5l-270 -1397h-90q-28 0 -37.5 8.5t-5.5 30.5l227 1171l-991 -1194q-23 -26 -50 -26q-22 0 -51.5 12.5t-50.5 32.5z" />
<glyph unicode="&#x419;" horiz-adv-x="1470" d="M131 35l270 1392q53 17 101 17q41 0 35 -35l-232 -1188l993 1194q23 29 52 29q22 0 50 -13.5t50 -33.5l-270 -1397h-90q-28 0 -37.5 8.5t-5.5 30.5l227 1171l-991 -1194q-23 -26 -50 -26q-22 0 -51.5 12.5t-50.5 32.5zM721 1833q49 22 84 22q21 0 27 -7t6 -29 q1 -75 37 -114.5t102 -39.5q149 0 211 190h65q28 0 35.5 -8t-0.5 -28q-34 -108 -123 -179t-209 -71q-116 0 -179 69t-56 195z" />
<glyph unicode="&#x41a;" horiz-adv-x="1347" d="M131 39l270 1388q53 17 101 17q41 0 35 -35l-142 -729q233 136 473.5 334.5t440.5 429.5q51 -17 71 -35t15 -41q-4 -24 -23 -43q-227 -272 -581 -530q76 -222 164 -399.5t165 -254.5q45 -45 88 -45h33q0 -37 -2 -53q-6 -26 -40.5 -47t-78.5 -21q-62 0 -123 64 q-159 167 -325 676q-158 -111 -307 -191l-101 -524h-90q-27 0 -37 9t-6 30z" />
<glyph unicode="&#x41b;" horiz-adv-x="1536" d="M-49 53q6 40 33 70q53 -27 125 -27t124 59.5t111 223.5q78 213 155.5 496t131.5 559h844q26 0 35 -9.5t6 -31.5l-271 -1393h-90q-28 0 -37.5 8.5t-5.5 30.5l248 1272h-615q-50 -225 -122 -490t-140 -459q-54 -151 -110 -236t-115.5 -118t-142.5 -33q-73 0 -121.5 25.5 t-42.5 52.5z" />
<glyph unicode="&#x41c;" horiz-adv-x="1837" d="M76 41l416 1362q67 41 120 41q17 0 25.5 -6t15.5 -25l297 -811l627 832h100q26 0 34.5 -9t8.5 -32l-116 -1393h-99q-29 0 -39.5 9t-7.5 32l109 1188l-563 -748q-20 -26 -62 -26h-82l-282 774l-367 -1229h-92q-29 0 -38.5 9t-4.5 32z" />
<glyph unicode="&#x41d;" horiz-adv-x="1478" d="M131 39l270 1388q53 17 101 17q41 0 35 -35l-123 -631h784l129 656h90q26 0 35 -9.5t6 -31.5l-270 -1393h-90q-28 0 -37.5 8.5t-5.5 30.5l121 618h-785l-127 -657h-90q-27 0 -37 9t-6 30z" />
<glyph unicode="&#x41e;" d="M174 393q-24 139 10 324q34 179 115 322.5t190 233.5t237.5 137.5t264.5 47.5q135 0 244 -46.5t183.5 -139.5t99 -231.5t-8.5 -323.5q-35 -179 -116 -322.5t-190.5 -234t-237.5 -138t-263 -47.5q-136 0 -245.5 46.5t-184 139.5t-98.5 232zM319 455q18 -119 77 -198.5 t146.5 -119t198.5 -39.5q79 0 156.5 22.5t151.5 71t135 118t108 170t70 220.5q29 159 11.5 278t-76.5 198.5t-147.5 119t-199.5 39.5q-100 0 -196 -37t-181 -108.5t-149.5 -189.5t-93.5 -267q-29 -159 -11 -278z" />
<glyph unicode="&#x41f;" horiz-adv-x="1480" d="M129 39l272 1395h1022q26 0 35 -9.5t6 -31.5l-270 -1393h-90q-28 0 -37.5 8.5t-5.5 30.5l248 1272h-793l-254 -1311h-90q-27 0 -37 9t-6 30z" />
<glyph unicode="&#x420;" horiz-adv-x="1296" d="M133 41l273 1393h425q254 0 378 -138t77 -383q-46 -241 -226 -376.5t-415 -135.5q-174 0 -293 45l-86 -446h-90q-28 0 -37.5 9t-5.5 32zM373 557q112 -33 280 -33q124 0 226.5 45t173.5 135t96 214q36 191 -59 293t-287 102h-283z" />
<glyph unicode="&#x421;" horiz-adv-x="1406" d="M187.5 436.5q-30.5 145.5 5.5 325.5q31 162 110 296t184.5 220t229.5 133t250 47q189 0 313.5 -82.5t165.5 -218.5q6 -17 2 -31q-2 -17 -31 -36q-53 -29 -102 -35q-32 134 -131 207t-248 73q-96 0 -191 -38t-178 -108t-146 -179.5t-89 -241.5q-30 -158 -4 -283 t96.5 -211.5t177.5 -132t238 -45.5q194 0 358 84q12 -26 4 -65q-8 -45 -131 -92.5t-272 -47.5q-160 0 -289 55.5t-210.5 158t-112 248z" />
<glyph unicode="&#x422;" horiz-adv-x="1243" d="M272 1352q6 37 27 82h1008q21 0 28 -12t2 -40l-14 -71h-461l-254 -1311h-90q-27 0 -37 9t-6 30l248 1272h-426q-34 0 -25 41z" />
<glyph unicode="&#x423;" horiz-adv-x="1316" d="M251.5 11q-7.5 11 10.5 34q183 198 342 395l-301 938q74 62 115 62q17 0 25 -6.5t14 -24.5l256 -836q342 434 573 861h90q23 0 33.5 -13t-0.5 -35q-197 -354 -464 -711.5t-568 -674.5h-90q-28 0 -35.5 11z" />
<glyph unicode="&#x424;" horiz-adv-x="1544" d="M168 723q25 125 94 227.5t165.5 169t208.5 106t230 48.5l31 153q53 17 100 17q39 0 33 -35l-26 -135q116 -9 213 -48t167.5 -105.5t100 -169.5t4.5 -228t-94 -228.5t-166 -171t-209.5 -107t-231.5 -48.5l-30 -168h-88q-28 0 -37.5 8.5t-5.5 30.5l24 129 q-115 10 -211.5 49.5t-167.5 106.5t-100 170t-4 229zM313 741q-37 -193 64 -310t299 -138l168 860q-129 -8 -238.5 -56.5t-189 -140.5t-103.5 -215zM813 289q127 8 236.5 56.5t189.5 141.5t104 218q37 191 -64 308t-298 138z" />
<glyph unicode="&#x425;" horiz-adv-x="1392" d="M33 27q5 17 10 24q249 397 627 688l-353 623q69 78 111 78q26 0 37 -23l330 -583q327 267 530 600h98q19 0 28.5 -8t6.5 -23q-3 -9 -10 -23q-221 -354 -596 -653l375 -659q-69 -78 -111 -78q-26 0 -37 22l-352 621q-330 -256 -559 -633h-98q-21 0 -30.5 7t-6.5 20z" />
<glyph unicode="&#x426;" horiz-adv-x="1490" d="M186 328l213 1102q54 14 101 14q23 0 31.5 -8t3.5 -25l-207 -1069q-24 -122 3.5 -171.5t108.5 -49.5h633l256 1313h90q27 0 36 -9t5 -32l-248 -1272h76q28 0 37 -9t4 -32l-74 -381h-88q-28 0 -37.5 9t-5.5 32l52 260h-773q-143 0 -198 75.5t-19 252.5z" />
<glyph unicode="&#x427;" horiz-adv-x="1400" d="M270 895l105 532q53 17 100 17q41 0 35 -35l-98 -504q-36 -188 49 -285.5t266 -97.5q197 0 358 74l164 838h88q27 0 35.5 -9.5t5.5 -31.5l-270 -1393h-88q-28 0 -37.5 8.5t-5.5 30.5l86 442q-174 -80 -377 -80q-229 0 -344.5 132t-71.5 362z" />
<glyph unicode="&#x428;" horiz-adv-x="1869" d="M186 328l213 1099q53 17 101 17q41 0 35 -35l-207 -1067q-24 -122 3.5 -171.5t108.5 -49.5h363l256 1313h90q26 0 35 -9.5t6 -31.5l-248 -1272h518l256 1313h90q27 0 35.5 -9.5t5.5 -31.5l-270 -1393h-1174q-143 0 -198 75.5t-19 252.5z" />
<glyph unicode="&#x429;" horiz-adv-x="1878" d="M186 328l213 1099q53 17 101 17q41 0 35 -35l-207 -1067q-24 -122 3.5 -171.5t108.5 -49.5h363l256 1313h90q26 0 35 -9.5t6 -31.5l-248 -1272h518l256 1313h90q27 0 35.5 -9.5t5.5 -31.5l-248 -1272h78q28 0 36.5 -9t4.5 -32l-73 -381h-91q-27 0 -36 9t-5 32l52 260 h-1162q-143 0 -198 75.5t-19 252.5z" />
<glyph unicode="&#x42a;" horiz-adv-x="1689" d="M272 1352q6 37 27 82h543q24 0 32 -10.5t3 -37.5l-99 -501q167 65 375 65q241 0 362.5 -122.5t79.5 -342.5q-47 -234 -227 -359.5t-453 -125.5h-165q-143 0 -198.5 75.5t-19.5 252.5l191 983h-426q-34 0 -25 41zM674 342q-24 -122 3.5 -171.5t108.5 -49.5h129 q141 0 250.5 35.5t186 117t100.5 203.5q33 173 -58 261.5t-292 88.5q-184 0 -344 -57z" />
<glyph unicode="&#x42b;" horiz-adv-x="1812" d="M184 328l213 1099q53 17 101 17q22 0 29.5 -8.5t4.5 -26.5l-102 -524q167 65 375 65q241 0 363.5 -122.5t80.5 -342.5q-47 -234 -228 -359.5t-454 -125.5h-166q-143 0 -198 75.5t-19 252.5zM326 342q-24 -122 3.5 -171.5t108.5 -49.5h129q142 0 251.5 35.5t185.5 117 t100 203.5q33 173 -58 261.5t-292 88.5q-184 0 -344 -57zM1389 39l270 1388q53 17 100 17q41 0 35 -35l-272 -1409h-90q-27 0 -37 9t-6 30z" />
<glyph unicode="&#x42c;" horiz-adv-x="1341" d="M184 328l213 1099q53 17 101 17q22 0 29.5 -8.5t4.5 -26.5l-102 -524q167 65 375 65q241 0 363.5 -122.5t80.5 -342.5q-47 -234 -228 -359.5t-454 -125.5h-166q-143 0 -198 75.5t-19 252.5zM326 342q-24 -122 3.5 -171.5t108.5 -49.5h129q142 0 251.5 35.5t185.5 117 t100 203.5q33 173 -58 261.5t-292 88.5q-184 0 -344 -57z" />
<glyph unicode="&#x42d;" horiz-adv-x="1406" d="M104 115q7 36 33 65q127 -84 326 -84q157 0 302.5 65t260.5 192t172 298h-696q-34 0 -25 39q9 41 27 82h727q25 135 4 240t-77 176.5t-136.5 109t-175.5 37.5q-149 0 -275 -73t-211 -207q-54 6 -90 35q-21 18 -18 36q4 16 14 31q96 136 253 218.5t345 82.5 q126 0 231.5 -46t178 -134.5t99 -218.5t-4.5 -297q-35 -177 -122 -325.5t-208.5 -249t-272 -156.5t-310.5 -56q-100 0 -185 23.5t-128 56t-38 60.5z" />
<glyph unicode="&#x42e;" horiz-adv-x="2050" d="M131 39l270 1388q53 17 101 17q41 0 35 -35l-123 -637h252q40 166 121 298.5t187.5 216t229.5 127.5t254 44q136 0 245.5 -47t184 -140t99.5 -232t-9 -322q-28 -144 -86.5 -265.5t-137 -208.5t-174 -148t-199.5 -90.5t-212 -29.5q-130 0 -235.5 43t-179.5 125.5 t-104.5 213t-8.5 294.5h-252l-125 -651h-90q-27 0 -37 9t-6 30zM788 453.5q18 -119.5 77 -199t146.5 -119t198.5 -39.5q79 0 156.5 22.5t151.5 71t135 118t108 170t70 220.5q29 160 11.5 279.5t-76.5 199t-147.5 119t-199.5 39.5q-100 0 -196 -37t-181 -108.5t-149.5 -189.5 t-93.5 -267q-29 -160 -11 -279.5z" />
<glyph unicode="&#x42f;" horiz-adv-x="1339" d="M33 43q3 23 16 49h29q44 0 106 39q150 94 348 336q-154 45 -226.5 165.5t-35.5 305.5q44 232 222 364t432 132h356q26 0 35 -9.5t6 -31.5l-270 -1393h-90q-27 0 -37 9t-6 30l86 444q-133 -41 -295 -41q-33 0 -47 2q-236 -310 -420 -426q-67 -43 -125 -43 q-43 0 -66.5 20.5t-17.5 47.5zM412 938q-36 -179 58.5 -277t285.5 -98q149 0 270 33l139 715h-260q-193 0 -326 -95.5t-167 -277.5z" />
<glyph unicode="&#x430;" horiz-adv-x="1218" d="M94 319q32 166 166.5 260.5t329.5 94.5q184 0 319 -74l23 113q28 143 -49 214.5t-238 71.5q-181 0 -319 -69q-17 23 -9 61q7 41 123 84t258 43q207 0 305.5 -106t59.5 -307l-94 -494q-24 -115 55 -115h37q0 -40 -2 -49q-5 -23 -37 -42t-74 -19q-64 0 -96.5 49t-22.5 137 q-77 -92 -188 -144.5t-240 -52.5q-169 0 -252.5 95.5t-54.5 248.5zM229 324q-21 -108 41.5 -170t171.5 -62q111 0 219.5 56.5t194.5 170.5l33 175q-57 28 -142.5 44.5t-166.5 16.5q-143 0 -236 -62t-115 -169z" />
<glyph unicode="&#x431;" horiz-adv-x="1290" d="M186 612q50 262 122.5 420t174.5 239t258 115l275 58q183 41 254 76q21 -25 18 -58q-2 -28 -79 -63.5t-222 -69.5l-250 -57q-97 -24 -161 -67.5t-114 -131t-89 -231.5q221 194 471 194q198 0 299.5 -139t60.5 -350q-48 -248 -220 -410t-398 -162q-245 0 -351.5 170 t-48.5 467zM324 614q-50 -252 28 -387t256 -135q159 0 290 124.5t169 318.5q35 181 -46 282t-235 101q-115 0 -230 -57.5t-216 -160.5z" />
<glyph unicode="&#x432;" horiz-adv-x="1130" d="M156 299l153 795h424q178 0 258.5 -83.5t57.5 -207.5q-15 -79 -69 -141t-134 -93q194 -67 158 -260q-26 -136 -148.5 -222.5t-320.5 -86.5h-183q-128 0 -177.5 68.5t-18.5 230.5zM283.5 195q7.5 -45 33.5 -61.5t80 -16.5h156q137 0 216.5 50t98.5 144q19 92 -47.5 141.5 t-216.5 49.5h-274l-35 -183q-19 -79 -11.5 -124zM352 618h275q128 0 198 48.5t86 130.5q16 83 -35 131.5t-180 48.5h-274z" />
<glyph unicode="&#x433;" horiz-adv-x="964" d="M109 39l204 1055h670q22 0 28.5 -12t0.5 -40l-13 -65h-573l-188 -977h-86q-28 0 -37.5 8.5t-5.5 30.5z" />
<glyph unicode="&#x434;" horiz-adv-x="1163" d="M-66 -201l64 318h94q230 461 338 977h614q26 0 36 -9.5t5 -31.5l-180 -936h68q26 0 35 -9.5t6 -31.5l-62 -318h-86q-27 0 -36.5 9.5t-6.5 31.5l41 201h-753l-48 -242h-86q-27 0 -36.5 9.5t-6.5 31.5zM231 117h539l166 860h-401q-47 -196 -126 -424t-178 -436z" />
<glyph unicode="&#x435;" horiz-adv-x="1175" d="M141 553q33 169 132 299.5t230.5 198t272.5 67.5q189 0 286.5 -113.5t63.5 -289.5q-16 -84 -55 -150q-26 -44 -55.5 -60t-79.5 -16h-670q-10 -93 12 -168.5t69 -124.5t113 -75.5t146 -26.5q157 0 289 66q15 -30 8 -62q-8 -40 -108.5 -81.5t-229.5 -41.5 q-232 0 -352.5 161.5t-71.5 416.5zM289 606h663q29 47 41 105q25 130 -43.5 209t-206.5 79q-149 0 -278.5 -108t-175.5 -285z" />
<glyph unicode="&#x436;" horiz-adv-x="1628" d="M-16 47q6 29 18 49h41q31 0 62 16.5t73 63.5q150 163 322 486q-171 176 -246 333q-7 21 -4 35q5 23 28 40.5t76 35.5q152 -303 424 -518l99 502q43 14 94 14q23 0 31.5 -8t5.5 -25l-95 -483q364 222 623 518q48 -18 65.5 -36t12.5 -40q-3 -16 -19 -35 q-152 -173 -376 -333q47 -321 133 -486q26 -47 51 -63.5t55 -16.5h41q3 -24 -2 -49q-5 -22 -39 -42.5t-69 -20.5q-56 0 -94.5 28t-71.5 97q-83 175 -121 475q-113 -77 -215 -135l-86 -449h-86q-28 0 -37.5 9t-5.5 32l80 408q-95 66 -164 135q-148 -289 -305 -475 q-58 -68 -108 -96.5t-105 -28.5q-36 0 -63.5 20.5t-22.5 42.5z" />
<glyph unicode="&#x437;" horiz-adv-x="1056" d="M92 111q7 36 31 63q132 -82 307 -82q144 0 231 53t105 140q18 95 -54.5 149.5t-228.5 54.5h-20q-34 0 -25 39q5 31 25 78h29q153 0 239.5 54.5t104.5 148.5q18 86 -40 138t-157 52q-97 0 -177 -43t-130 -125q-39 3 -74 25q-23 15 -25.5 36.5t15.5 41.5q72 83 184 133.5 t232 50.5q164 0 249.5 -84.5t59.5 -218.5q-18 -92 -85 -160.5t-165 -101.5q102 -30 149 -100t27 -172q-26 -136 -151.5 -221t-327.5 -85q-89 0 -169.5 24t-122 55.5t-36.5 56.5z" />
<glyph unicode="&#x438;" horiz-adv-x="1282" d="M109 33l204 1061q43 14 97 14q40 0 34 -35l-170 -878l797 886q24 27 55 27q49 0 95 -43l-207 -1065h-86q-27 0 -37 9t-6 32l168 860l-797 -885q-26 -26 -53 -26q-21 0 -47.5 11.5t-46.5 31.5z" />
<glyph unicode="&#x439;" horiz-adv-x="1282" d="M109 33l204 1061q43 14 97 14q40 0 34 -35l-170 -878l797 886q24 27 55 27q49 0 95 -43l-207 -1065h-86q-27 0 -37 9t-6 32l168 860l-797 -885q-26 -26 -53 -26q-21 0 -47.5 11.5t-46.5 31.5zM555 1475q49 22 84 22q21 0 27 -7t6 -30q1 -75 37 -114t102 -39 q149 0 211 190h65q27 0 35 -8.5t0 -28.5q-34 -108 -122.5 -179t-208.5 -71q-116 0 -179.5 69.5t-56.5 195.5z" />
<glyph unicode="&#x43a;" horiz-adv-x="1177" d="M109 39l204 1051q58 14 95 14q23 0 31 -8.5t5 -26.5l-102 -530q192 104 387 251.5t348 313.5q50 -20 66.5 -36.5t11.5 -39.5q-3 -17 -16 -33q-184 -200 -486 -395q57 -132 126 -249t130 -187q60 -68 99 -68h41q0 -40 -2 -49q-5 -23 -37 -42t-76 -19q-69 0 -131 75 q-69 84 -140.5 207t-123.5 260q-119 -71 -224 -125l-77 -403h-86q-28 0 -37.5 8.5t-5.5 30.5z" />
<glyph unicode="&#x43b;" horiz-adv-x="1329" d="M-51 51q7 34 35 66q50 -27 106 -27q42 0 72.5 20.5t64 81.5t70.5 173q110 340 184 729h746q25 0 33 -10t4 -35l-203 -1049h-84q-28 0 -38.5 9t-6.5 32l182 936h-520q-73 -352 -164 -631q-65 -209 -142 -290t-192 -81q-60 0 -106 25t-41 51z" />
<glyph unicode="&#x43c;" horiz-adv-x="1550" d="M59 41l342 1024q61 39 115 39q33 0 43 -29l223 -600l469 619h97q26 0 35.5 -9.5t7.5 -31.5l-60 -1053h-92q-24 0 -34 9t-9 30l53 870l-409 -538q-19 -25 -58 -25h-90l-207 563l-299 -909h-82q-27 0 -39.5 9.5t-5.5 31.5z" />
<glyph unicode="&#x43d;" horiz-adv-x="1253" d="M109 39l204 1051q58 14 95 14q23 0 31 -8.5t5 -26.5l-86 -446h613l90 471h86q26 0 35.5 -9.5t5.5 -31.5l-203 -1053h-86q-28 0 -37.5 8.5t-5.5 30.5l92 467h-612l-98 -506h-86q-28 0 -37.5 8.5t-5.5 30.5z" />
<glyph unicode="&#x43e;" horiz-adv-x="1286" d="M134.5 306q-21.5 106 4.5 241q35 175 133.5 306.5t230 198t275.5 66.5q107 0 195 -38.5t146 -112t79 -179.5t-6 -241q-26 -131 -89 -240.5t-149 -181t-189 -111t-210 -39.5t-195 38.5t-146 112.5t-79.5 180zM272 357q15 -87 60.5 -145.5t110.5 -88t145 -29.5q75 0 148 28 t137.5 80.5t112.5 138.5t69 194q21 115 5.5 202t-61 145t-111 87.5t-145.5 29.5q-76 0 -148.5 -27.5t-136 -80.5t-111 -138.5t-68.5 -193.5q-22 -115 -7 -202z" />
<glyph unicode="&#x43f;" horiz-adv-x="1253" d="M109 39l204 1055h834q26 0 35.5 -9.5t5.5 -31.5l-203 -1053h-86q-28 0 -37.5 8.5t-5.5 30.5l182 938h-612l-188 -977h-86q-28 0 -37.5 8.5t-5.5 30.5z" />
<glyph unicode="&#x440;" horiz-adv-x="1306" d="M27 -395l288 1485q43 14 95 14q22 0 29.5 -8t4.5 -25l-34 -180q84 107 199.5 167t250.5 60q204 0 306.5 -141.5t56.5 -384.5q-34 -172 -132 -313.5t-238 -222.5t-292 -81q-200 0 -307 119l-102 -530h-84q-28 0 -37 9t-4 32zM281 227q109 -133 288 -133q180 0 327 142.5 t187 353.5q38 194 -36.5 302.5t-233.5 108.5q-117 0 -235 -79.5t-207 -229.5z" />
<glyph unicode="&#x441;" horiz-adv-x="1128" d="M144.5 324q-26.5 113 0.5 258q32 163 126 286.5t222.5 186.5t272.5 63q141 0 236 -63.5t124 -159.5q4 -12 4 -31q-6 -25 -32 -39q-42 -23 -99 -30q-18 94 -83 149t-179 55q-161 0 -289.5 -113t-164.5 -302q-22 -123 -0.5 -215.5t78.5 -153.5t133 -92t163 -31 q154 0 283 66q14 -25 10 -62q-8 -40 -110.5 -80.5t-227.5 -40.5q-112 0 -208 40.5t-164.5 118t-95 190.5z" />
<glyph unicode="&#x442;" horiz-adv-x="1067" d="M186 1016q5 31 25 78h870q22 0 28.5 -12t0.5 -40l-12 -65h-391l-189 -977h-86q-28 0 -37.5 8.5t-5.5 30.5l182 938h-358q-36 0 -27 39z" />
<glyph unicode="&#x443;" horiz-adv-x="1284" d="M66 -236q30 159 215 263q-78 54 -103 158t4 249l127 656q43 14 97 14q22 0 29.5 -8t4.5 -25l-123 -639q-33 -168 18.5 -253t194.5 -85q95 0 201.5 39t196.5 111l164 850h86q27 0 36.5 -9.5t4.5 -31.5l-201 -1035q-22 -111 -75.5 -206t-134 -166.5t-193 -112.5t-242.5 -41 q-162 0 -246 75t-61 197zM203 -225q-14 -73 39 -119.5t153 -46.5q195 0 322.5 106t163.5 289l24 125q-96 -72 -207 -113t-219 -41q-50 0 -104 13q-147 -87 -172 -213z" />
<glyph unicode="&#x444;" horiz-adv-x="1556" d="M133 547q33 165 136.5 290.5t248.5 194t318 82.5l73 381q54 14 99 14q41 0 32 -34l-69 -361q128 -8 230.5 -49t171 -111.5t94.5 -175t1 -231.5q-33 -169 -138.5 -296t-254 -194.5t-323.5 -76.5l-74 -375h-86q-27 0 -36.5 9.5t-4.5 31.5l65 334q-125 9 -224.5 51 t-166 112.5t-91.5 174.5t-1 229zM274 561q-40 -203 62 -322.5t303 -140.5l174 897q-98 -7 -185 -36.5t-160 -82t-124 -133t-70 -182.5zM772 94q101 5 191.5 34t166 81.5t128.5 134.5t73 186q19 108 0 190.5t-72.5 141t-132 91.5t-178.5 42z" />
<glyph unicode="&#x445;" horiz-adv-x="1150" d="M14 27q4 14 9 18q82 134 208.5 265t272.5 239l-273 477q65 74 103 74q11 0 20.5 -7.5t14 -14.5t13 -23t11.5 -21l223 -395q256 204 410 455h94q36 0 33 -29q0 -1 -3 -7.5t-5 -10.5q-84 -134 -208.5 -266t-264.5 -240l217 -383q36 -62 92 -62h27q0 -37 -2 -49 q-5 -25 -36.5 -43t-76.5 -18q-41 0 -70 26t-69 97l-197 342q-270 -210 -414 -451h-94q-19 0 -28.5 7.5t-6.5 19.5z" />
<glyph unicode="&#x446;" horiz-adv-x="1275" d="M160 299l153 791q43 14 97 14q22 0 29.5 -8t4.5 -25l-145 -752q-19 -79 -11.5 -124t33.5 -61.5t80 -16.5h482l188 977h86q28 0 36.5 -9t4.5 -32l-180 -936h67q28 0 36.5 -9t4.5 -32l-61 -318h-84q-28 0 -38 9t-7 32l41 201h-621q-128 0 -177.5 68.5t-18.5 230.5z" />
<glyph unicode="&#x447;" horiz-adv-x="1253" d="M211 743l68 347q58 14 94 14q23 0 31.5 -8.5t5.5 -26.5l-64 -328q-33 -169 19.5 -253.5t195.5 -84.5q95 0 199 38t196 110l105 543h86q26 0 35.5 -9.5t5.5 -31.5l-203 -1053h-86q-28 0 -37.5 8.5t-5.5 30.5l76 385q-92 -66 -202.5 -102.5t-219.5 -36.5q-190 0 -265.5 121 t-33.5 337z" />
<glyph unicode="&#x448;" horiz-adv-x="1640" d="M160 299l153 791q43 14 97 14q22 0 29.5 -8t4.5 -25l-145 -752q-19 -79 -11.5 -124t33.5 -61.5t80 -16.5h291l189 977h84q28 0 37.5 -9t5.5 -32l-181 -936h435l188 977h86q27 0 36 -9t5 -32l-203 -1053h-1018q-128 0 -177.5 68.5t-18.5 230.5z" />
<glyph unicode="&#x449;" horiz-adv-x="1654" d="M160 299l153 791q43 14 97 14q22 0 29.5 -8t4.5 -25l-145 -752q-19 -79 -11.5 -124t33.5 -61.5t80 -16.5h291l189 977h84q28 0 37.5 -9t5.5 -32l-181 -936h435l188 977h86q27 0 36 -9t5 -32l-180 -936h67q27 0 36 -9t5 -32l-61 -318h-86q-28 0 -37 9t-6 32l41 201h-1000 q-128 0 -177.5 68.5t-18.5 230.5z" />
<glyph unicode="&#x44a;" horiz-adv-x="1435" d="M186 1016q5 31 25 78h469q26 0 36 -9.5t5 -31.5l-66 -342q136 47 303 47q204 0 303.5 -98t67.5 -269q-35 -181 -181.5 -286t-399.5 -105h-111q-128 0 -178 68.5t-19 230.5l131 678h-358q-36 0 -27 39zM568.5 195q7.5 -45 33.5 -61.5t80 -16.5h104q174 0 277.5 71 t128.5 199q24 120 -48 186t-235 66q-149 0 -276 -39l-53 -281q-19 -79 -11.5 -124z" />
<glyph unicode="&#x44b;" horiz-adv-x="1570" d="M156 299l153 791q58 14 94 14q23 0 31.5 -8.5t5.5 -26.5l-69 -358q136 47 303 47q204 0 303 -98t67 -269q-35 -181 -181.5 -286t-399.5 -105h-111q-128 0 -177.5 68.5t-18.5 230.5zM283.5 195q7.5 -45 33.5 -61.5t80 -16.5h107q172 0 275 71t128 199q24 120 -47.5 186 t-234.5 66q-150 0 -277 -39l-53 -281q-19 -79 -11.5 -124zM1180 195l174 895q54 14 94 14q23 0 31.5 -8.5t5.5 -26.5l-168 -868q-12 -57 1.5 -81t51.5 -24h41q0 -25 -2 -39q-7 -31 -36 -51t-81 -20q-153 0 -112 209z" />
<glyph unicode="&#x44c;" horiz-adv-x="1148" d="M156 299l153 791q58 14 94 14q23 0 31.5 -8.5t5.5 -26.5l-69 -358q136 47 303 47q204 0 303 -98t67 -269q-35 -181 -181.5 -286t-399.5 -105h-111q-128 0 -177.5 68.5t-18.5 230.5zM283.5 195q7.5 -45 33.5 -61.5t80 -16.5h107q172 0 275 71t128 199q24 120 -47.5 186 t-234.5 66q-150 0 -277 -39l-53 -281q-19 -79 -11.5 -124z" />
<glyph unicode="&#x44d;" horiz-adv-x="1163" d="M84 96q3 26 31 62q106 -66 258 -66q105 0 208.5 42.5t194.5 133.5t137 217h-485q-33 0 -27 39q7 33 27 78h516q29 180 -57 288.5t-242 108.5q-114 0 -200 -55t-140 -149q-57 7 -86 30q-22 16 -16 39q0 13 12 31q68 96 189 159.5t262 63.5q107 0 193.5 -36.5t143.5 -105.5 t78 -168.5t-4 -225.5q-28 -140 -100.5 -257t-170 -192.5t-209.5 -116.5t-224 -41q-84 0 -154.5 20t-105 48t-29.5 53z" />
<glyph unicode="&#x44e;" horiz-adv-x="1689" d="M109 39l204 1051q58 14 95 14q23 0 31 -8.5t5 -26.5l-88 -457h201q66 232 241 369t382 137q107 0 195 -39t146 -112.5t79 -179.5t-5 -240q-26 -131 -89.5 -240.5t-149.5 -181t-189.5 -111t-210.5 -39.5q-211 0 -333 140.5t-91 380.5h-198l-96 -496h-86q-28 0 -37.5 8.5 t-5.5 30.5zM673 355.5q15 -87.5 60.5 -146t110.5 -88t145 -29.5q160 0 293 115t174 328q21 115 5.5 202t-60.5 145t-110.5 87.5t-145.5 29.5q-159 0 -291.5 -114.5t-173.5 -325.5q-22 -116 -7 -203.5z" />
<glyph unicode="&#x44f;" horiz-adv-x="1179" d="M61 39q10 34 17 45h26q34 0 80 27q131 80 254 245q-122 36 -178 128t-29 229q35 179 178 280t355 101h309q27 0 36.5 -9.5t4.5 -31.5l-203 -1053h-86q-27 0 -37 9t-6 30l64 323q-97 -30 -232 -30q-35 0 -51 2q-151 -213 -309 -320q-58 -39 -115 -39q-39 0 -61 18.5 t-17 45.5zM367 713q-26 -131 52 -196.5t243 -65.5q117 0 204 22l99 504h-197q-348 0 -401 -264z" />
<glyph unicode="&#x450;" horiz-adv-x="1175" d="M141 553q33 169 132 299.5t230.5 198t272.5 67.5q189 0 286.5 -113.5t63.5 -289.5q-16 -84 -55 -150q-26 -44 -55.5 -60t-79.5 -16h-670q-10 -93 12 -168.5t69 -124.5t113 -75.5t146 -26.5q157 0 289 66q15 -30 8 -62q-8 -40 -108.5 -81.5t-229.5 -41.5 q-232 0 -352.5 161.5t-71.5 416.5zM289 606h663q29 47 41 105q25 130 -43.5 209t-206.5 79q-149 0 -278.5 -108t-175.5 -285zM612 1446q22 35 56 63q18 15 37 15q17 0 30 -19l209 -245l-51 -46q-15 -12 -27 -12q-14 0 -26 12z" />
<glyph unicode="&#x451;" horiz-adv-x="1175" d="M141 553q33 169 132 299.5t230.5 198t272.5 67.5q189 0 286.5 -113.5t63.5 -289.5q-16 -84 -55 -150q-26 -44 -55.5 -60t-79.5 -16h-670q-10 -93 12 -168.5t69 -124.5t113 -75.5t146 -26.5q157 0 289 66q15 -30 8 -62q-8 -40 -108.5 -81.5t-229.5 -41.5 q-232 0 -352.5 161.5t-71.5 416.5zM289 606h663q29 47 41 105q25 130 -43.5 209t-206.5 79q-149 0 -278.5 -108t-175.5 -285zM541 1366q7 38 34.5 61t63.5 23q37 0 58 -25t14 -65q-7 -39 -36 -62.5t-65 -23.5q-35 0 -55.5 25.5t-13.5 66.5zM891 1366q7 38 34.5 61t61.5 23 q37 0 58 -25t14 -65q-7 -39 -36 -62.5t-65 -23.5q-35 0 -54.5 25t-12.5 67z" />
<glyph unicode="&#x452;" horiz-adv-x="1282" d="M109 39l235 1212h-94q-33 0 -27 33q7 37 21 64h118l29 143q58 14 94 14q23 0 31.5 -8.5t5.5 -26.5l-24 -122h358q22 0 29 -11.5t2 -38.5l-10 -47h-398l-55 -282q212 149 426 149q189 0 264 -121.5t33 -337.5l-137 -704q-36 -182 -156 -309q-57 -60 -109.5 -91.5 t-80.5 -31.5q-15 0 -28 17t-15 36q213 164 253 381l138 705q66 337 -215 337q-95 0 -200.5 -39t-195.5 -112l-163 -848h-86q-28 0 -37.5 8.5t-5.5 30.5z" />
<glyph unicode="&#x453;" horiz-adv-x="964" d="M109 39l204 1055h670q22 0 28.5 -12t0.5 -40l-13 -65h-573l-188 -977h-86q-28 0 -37.5 8.5t-5.5 30.5zM545 1260l303 245q25 19 39 19q21 0 33 -15q21 -28 30 -63l-317 -232q-18 -12 -31 -12t-22 12z" />
<glyph unicode="&#x454;" horiz-adv-x="1128" d="M144.5 324q-26.5 113 0.5 258q32 163 126 286.5t222.5 186.5t272.5 63q141 0 236 -63.5t124 -159.5q4 -12 4 -31q-6 -25 -32 -39q-42 -23 -99 -30q-18 94 -83 149t-179 55q-158 0 -284.5 -108t-165.5 -289h485q23 0 29.5 -10.5t1.5 -38.5l-12 -68h-519q-3 -95 28 -171.5 t85.5 -124t124 -72.5t147.5 -25q154 0 283 66q14 -25 10 -62q-8 -40 -110.5 -80.5t-227.5 -40.5q-112 0 -208 40.5t-164.5 118t-95 190.5z" />
<glyph unicode="&#x455;" horiz-adv-x="1019" d="M106 100q7 38 33 64q131 -72 291 -72q273 0 307 172q14 75 -34 123.5t-179 81.5q-187 46 -262 130.5t-49 215.5q26 134 145.5 218.5t284.5 84.5q125 0 213.5 -48.5t122.5 -131.5q6 -14 2 -33q-3 -22 -35 -39q-47 -21 -92 -28q-18 77 -83 119t-157 42q-101 0 -176 -52 t-92 -136q-15 -83 41 -133t205 -90q171 -46 238 -121t42 -195q-27 -138 -144.5 -217.5t-305.5 -79.5q-89 0 -166 21t-116 50t-34 54z" />
<glyph unicode="&#x456;" horiz-adv-x="538" d="M139 197l174 893q58 14 95 14q23 0 31 -8.5t5 -26.5l-165 -858q-24 -115 55 -115h37q0 -40 -2 -49q-5 -24 -38 -42.5t-81 -18.5q-69 0 -100.5 53t-10.5 158zM358 1423q6 37 35.5 61.5t65.5 24.5t56 -26t13 -68q-7 -39 -35 -62.5t-65 -23.5q-35 0 -57 26.5t-13 67.5z" />
<glyph unicode="&#x457;" horiz-adv-x="538" d="M139 197l174 893q58 14 95 14q23 0 31 -8.5t5 -26.5l-165 -858q-24 -115 55 -115h37q0 -40 -2 -49q-5 -24 -38 -42.5t-81 -18.5q-69 0 -100.5 53t-10.5 158zM176 1366q7 38 34.5 61t63.5 23q37 0 58 -25t14 -65q-7 -39 -35.5 -62.5t-64.5 -23.5q-35 0 -56 25.5t-14 66.5z M526 1366q7 38 35 61t62 23q36 0 57 -25t14 -65q-7 -39 -35.5 -62.5t-64.5 -23.5q-35 0 -55 25.5t-13 66.5z" />
<glyph unicode="&#x458;" horiz-adv-x="518" d="M-137 -362q209 163 252 380l209 1072q58 14 94 14q23 0 31.5 -8.5t5.5 -26.5l-205 -1053q-36 -182 -156 -309q-57 -59 -109 -91t-79 -32q-15 0 -28 17.5t-15 36.5zM369 1423q6 38 35 62t65 24t56.5 -26t13.5 -68q-7 -39 -35.5 -62.5t-65.5 -23.5q-35 0 -56.5 26.5 t-12.5 67.5z" />
<glyph unicode="&#x459;" horiz-adv-x="1943" d="M-51 49q5 30 33 66q55 -25 108 -25q42 0 72 19.5t64 80t71 172.5q103 318 184 732h711q46 0 37 -45l-66 -338q136 47 303 47q204 0 303.5 -98t67.5 -269q-35 -181 -182 -286t-400 -105h-110q-128 0 -178 68.5t-19 230.5l131 678h-485q-67 -326 -166 -633 q-64 -208 -140.5 -288.5t-193.5 -80.5q-58 0 -104 24.5t-41 49.5zM1086.5 159q23.5 -42 103.5 -42h106q172 0 275.5 71t128.5 199q24 120 -48 186t-235 66q-149 0 -276 -39l-54 -281q-24 -118 -0.5 -160z" />
<glyph unicode="&#x45a;" horiz-adv-x="1867" d="M109 39l204 1051q58 14 95 14q23 0 31 -8.5t5 -26.5l-86 -446h578l90 471h86q27 0 36.5 -9.5t4.5 -31.5l-66 -342q136 47 304 47q204 0 303 -98t67 -269q-35 -181 -181.5 -286t-399.5 -105h-111q-128 0 -178 68.5t-19 230.5l41 207h-577l-98 -506h-86q-28 0 -37.5 8.5 t-5.5 30.5zM1000.5 195q7.5 -45 33.5 -61.5t80 -16.5h107q172 0 275 71t128 199q24 120 -48 186t-235 66q-149 0 -276 -39l-53 -281q-19 -79 -11.5 -124z" />
<glyph unicode="&#x45b;" horiz-adv-x="1312" d="M109 39l235 1212h-94q-33 0 -27 33q7 37 21 64h118l29 143q58 14 94 14q23 0 31.5 -8.5t5.5 -26.5l-24 -122h344q41 0 32 -50l-10 -47h-385l-55 -282q212 149 426 149q189 0 264 -121.5t33 -337.5l-86 -448q-24 -115 55 -115h37q0 -40 -2 -49q-5 -24 -38 -42.5t-81 -18.5 q-69 0 -100 53t-10 158l90 465q66 337 -215 337q-95 0 -200.5 -39t-195.5 -112l-163 -848h-86q-28 0 -37.5 8.5t-5.5 30.5z" />
<glyph unicode="&#x45c;" horiz-adv-x="1177" d="M109 39l204 1051q58 14 95 14q23 0 31 -8.5t5 -26.5l-102 -530q192 104 387 251.5t348 313.5q50 -20 66.5 -36.5t11.5 -39.5q-3 -17 -16 -33q-184 -200 -486 -395q57 -132 126 -249t130 -187q60 -68 99 -68h41q0 -40 -2 -49q-5 -23 -37 -42t-76 -19q-69 0 -131 75 q-69 84 -140.5 207t-123.5 260q-119 -71 -224 -125l-77 -403h-86q-28 0 -37.5 8.5t-5.5 30.5zM596 1260l303 245q25 19 39 19q21 0 33 -15q21 -28 30 -63l-317 -232q-18 -12 -31 -12t-22 12z" />
<glyph unicode="&#x45d;" horiz-adv-x="1282" d="M109 33l204 1061q43 14 97 14q40 0 34 -35l-170 -878l797 886q24 27 55 27q49 0 95 -43l-207 -1065h-86q-27 0 -37 9t-6 32l168 860l-797 -885q-26 -26 -53 -26q-21 0 -47.5 11.5t-46.5 31.5zM614 1446q22 35 56 63q18 15 37 15q17 0 30 -19l209 -245l-51 -46 q-15 -12 -27 -12q-14 0 -26 12z" />
<glyph unicode="&#x45e;" horiz-adv-x="1284" d="M66 -236q30 159 215 263q-78 54 -103 158t4 249l127 656q43 14 97 14q22 0 29.5 -8t4.5 -25l-123 -639q-33 -168 18.5 -253t194.5 -85q95 0 201.5 39t196.5 111l164 850h86q27 0 36.5 -9.5t4.5 -31.5l-201 -1035q-22 -111 -75.5 -206t-134 -166.5t-193 -112.5t-242.5 -41 q-162 0 -246 75t-61 197zM203 -225q-14 -73 39 -119.5t153 -46.5q195 0 322.5 106t163.5 289l24 125q-96 -72 -207 -113t-219 -41q-50 0 -104 13q-147 -87 -172 -213zM557 1475q49 22 84 22q21 0 27 -7t6 -30q1 -75 37 -114t102 -39q149 0 211 190h66q27 0 34.5 -8.5 t-0.5 -28.5q-34 -108 -122.5 -179t-208.5 -71q-116 0 -179.5 69.5t-56.5 195.5z" />
<glyph unicode="&#x45f;" horiz-adv-x="1259" d="M160 299l153 791q43 14 97 14q22 0 29.5 -8t4.5 -25l-145 -752q-19 -79 -11.5 -124t33.5 -61.5t80 -16.5h480l188 977h86q27 0 36 -9t5 -32l-203 -1053h-364l-47 -242h-86q-27 0 -36.5 9.5t-6.5 31.5l41 201h-138q-128 0 -177.5 68.5t-18.5 230.5z" />
<glyph unicode="&#x490;" horiz-adv-x="1126" d="M133 41l273 1393h698l49 260q54 14 100 14q23 0 31.5 -8t5.5 -25l-71 -362h-699l-254 -1313h-90q-28 0 -37.5 9t-5.5 32z" />
<glyph unicode="&#x491;" horiz-adv-x="964" d="M109 39l204 1055h574l47 235q54 14 96 14q22 0 30 -8.5t5 -25.5l-66 -332h-573l-188 -977h-86q-28 0 -37.5 8.5t-5.5 30.5z" />
<glyph unicode="&#x1e80;" horiz-adv-x="2269" d="M293 1399q65 43 115 43q18 0 26.5 -7.5t9.5 -27.5l138 -1241q354 524 653 1268h129q28 0 41 -9t16 -32l123 -1225q390 572 662 1266h96q51 0 33 -43q-276 -701 -721 -1354q-27 -37 -72 -37h-121l-123 1257q-274 -661 -651 -1220q-25 -37 -72 -37h-116zM1180 1802 q24 39 55 64q17 14 37 14q16 0 31 -18l208 -246l-51 -45q-15 -12 -28 -12t-25 12z" />
<glyph unicode="&#x1e81;" horiz-adv-x="1787" d="M221 1063q72 45 117 45q28 0 31 -33l104 -928q266 397 469 947h113q23 0 34.5 -10t14.5 -33l113 -904q274 410 462 947h86q51 0 35 -45q-183 -517 -514 -1014q-25 -35 -63 -35h-121l-105 915q-173 -443 -458 -882q-22 -33 -64 -33h-117zM862 1446q22 35 56 63 q18 15 36 15t31 -19l209 -245l-51 -46q-15 -12 -27 -12q-14 0 -26 12z" />
<glyph unicode="&#x1e82;" horiz-adv-x="2269" d="M293 1399q65 43 115 43q18 0 26.5 -7.5t9.5 -27.5l138 -1241q354 524 653 1268h129q28 0 41 -9t16 -32l123 -1225q390 572 662 1266h96q51 0 33 -43q-276 -701 -721 -1354q-27 -37 -72 -37h-121l-123 1257q-274 -661 -651 -1220q-25 -37 -72 -37h-116zM1180 1616l303 246 q21 18 39 18q21 0 32 -14q22 -29 31 -64l-317 -231q-18 -12 -33 -12q-12 0 -21 12z" />
<glyph unicode="&#x1e83;" horiz-adv-x="1787" d="M221 1063q72 45 117 45q28 0 31 -33l104 -928q266 397 469 947h113q23 0 34.5 -10t14.5 -33l113 -904q274 410 462 947h86q51 0 35 -45q-183 -517 -514 -1014q-25 -35 -63 -35h-121l-105 915q-173 -443 -458 -882q-22 -33 -64 -33h-117zM877 1260l303 245q25 19 39 19 q20 0 32 -15q22 -30 31 -63l-317 -232q-18 -12 -31 -12q-14 0 -23 12z" />
<glyph unicode="&#x1e84;" horiz-adv-x="2269" d="M293 1399q65 43 115 43q18 0 26.5 -7.5t9.5 -27.5l138 -1241q354 524 653 1268h129q28 0 41 -9t16 -32l123 -1225q390 572 662 1266h96q51 0 33 -43q-276 -701 -721 -1354q-27 -37 -72 -37h-121l-123 1257q-274 -661 -651 -1220q-25 -37 -72 -37h-116zM1126 1722 q7 38 35 61t64 23q37 0 57.5 -25t11.5 -65q-7 -39 -34.5 -62.5t-63.5 -23.5q-35 0 -56 25.5t-14 66.5zM1477 1722q7 38 34.5 61t61.5 23q37 0 57.5 -25t11.5 -65q-7 -39 -34.5 -62.5t-63.5 -23.5q-35 0 -54.5 25t-12.5 67z" />
<glyph unicode="&#x1e85;" horiz-adv-x="1787" d="M221 1063q72 45 117 45q28 0 31 -33l104 -928q266 397 469 947h113q23 0 34.5 -10t14.5 -33l113 -904q274 410 462 947h86q51 0 35 -45q-183 -517 -514 -1014q-25 -35 -63 -35h-121l-105 915q-173 -443 -458 -882q-22 -33 -64 -33h-117zM819 1366q7 38 35 61t64 23 t57 -25t14 -65q-7 -39 -35.5 -62.5t-64.5 -23.5q-35 0 -56 25.5t-14 66.5zM1169 1366q7 38 35 61t62 23q36 0 57 -25t14 -65q-7 -39 -35.5 -62.5t-64.5 -23.5q-35 0 -55 25.5t-13 66.5z" />
<glyph unicode="&#x1ef2;" horiz-adv-x="1343" d="M266 1378q74 62 119 62q27 0 33 -21l289 -796q373 384 612 811h90q22 0 33 -8t8 -21q-2 -12 -12 -31q-275 -475 -695 -889l-94 -485h-90q-28 0 -37.5 8.5t-5.5 30.5l86 440zM711 1802q24 39 55 64q17 14 37 14q16 0 31 -18l208 -246l-51 -45q-15 -12 -28 -12t-25 12z" />
<glyph unicode="&#x1ef3;" horiz-adv-x="1284" d="M66 -236q30 159 215 263q-78 54 -103 158t4 249l127 656q43 14 97 14q22 0 29.5 -8t4.5 -25l-123 -639q-33 -168 18.5 -253t194.5 -85q95 0 201.5 39t196.5 111l164 850h86q27 0 36.5 -9.5t4.5 -31.5l-201 -1035q-22 -111 -75.5 -206t-134 -166.5t-193 -112.5t-242.5 -41 q-162 0 -246 75t-61 197zM203 -225q-14 -73 39 -119.5t153 -46.5q195 0 322.5 106t163.5 289l24 125q-96 -72 -207 -113t-219 -41q-50 0 -104 13q-147 -87 -172 -213zM618 1446q22 35 56 63q18 15 37 15q17 0 30 -19l209 -245l-51 -46q-15 -12 -27 -12q-14 0 -26 12z" />
<glyph unicode="&#x2000;" horiz-adv-x="1003" />
<glyph unicode="&#x2001;" horiz-adv-x="2007" />
<glyph unicode="&#x2002;" horiz-adv-x="1003" />
<glyph unicode="&#x2003;" horiz-adv-x="2007" />
<glyph unicode="&#x2004;" horiz-adv-x="669" />
<glyph unicode="&#x2005;" horiz-adv-x="501" />
<glyph unicode="&#x2006;" horiz-adv-x="334" />
<glyph unicode="&#x2007;" horiz-adv-x="334" />
<glyph unicode="&#x2008;" horiz-adv-x="250" />
<glyph unicode="&#x2009;" horiz-adv-x="409" />
<glyph unicode="&#x200a;" horiz-adv-x="111" />
<glyph unicode="&#x2010;" horiz-adv-x="933" d="M219 659q5 21 29 82h532q23 0 30 -11.5t1 -39.5l-14 -72h-551q-34 0 -27 41z" />
<glyph unicode="&#x2011;" horiz-adv-x="978" d="M242 659q6 27 28 82h533q23 0 30 -11.5t1 -39.5l-15 -72h-551q-33 0 -26 41z" />
<glyph unicode="&#x2012;" horiz-adv-x="1392" d="M219 659q7 33 27 82h993q23 0 30 -11.5t1 -39.5l-15 -72h-1011q-32 0 -25 41z" />
<glyph unicode="&#x2013;" horiz-adv-x="1024" d="M45 659q7 33 27 82h972q23 0 30 -11.5t1 -39.5l-14 -72h-991q-32 0 -25 41z" />
<glyph unicode="&#x2014;" horiz-adv-x="2048" d="M45 659q7 33 27 82h1996q23 0 30 -11.5t1 -39.5l-14 -72h-2015q-32 0 -25 41z" />
<glyph unicode="&#x2015;" horiz-adv-x="2048" d="M250 659q8 38 26 82h1588q23 0 29.5 -11.5t0.5 -39.5l-14 -72h-1606q-31 0 -24 41z" />
<glyph unicode="&#x2016;" horiz-adv-x="882" d="M104 -225l340 1747q44 12 88 12q23 0 31.5 -8t5.5 -25l-344 -1767h-80q-27 0 -36 9t-5 32zM395 -225l340 1747q44 12 88 12q22 0 30 -8t5 -25l-344 -1767h-78q-28 0 -37 9t-4 32z" />
<glyph unicode="&#x2017;" horiz-adv-x="1228" d="M-51 -362q4 21 22 67h975q23 0 29.5 -10.5t1.5 -38.5l-12 -59h-992q-31 0 -24 41zM-8 -137q6 23 22 69h975q23 0 30 -11.5t1 -39.5l-10 -57h-992q-32 0 -26 39z" />
<glyph unicode="&#x2018;" horiz-adv-x="673" d="M397 1196q29 146 144 254q25 23 49 38.5t38.5 21t18.5 3.5q17 -9 21 -36q-110 -86 -146 -199q29 -6 44.5 -32t8.5 -64q-7 -39 -38 -64.5t-68 -25.5q-39 0 -60.5 27t-11.5 77z" />
<glyph unicode="&#x2019;" horiz-adv-x="673" d="M348 1133q112 90 146 198q-29 6 -45 32t-9 64q7 39 38.5 65t68.5 26q39 0 59.5 -27.5t11.5 -77.5q-29 -147 -143 -254q-36 -33 -67.5 -50t-40.5 -13q-15 9 -19 37z" />
<glyph unicode="&#x201a;" horiz-adv-x="673" d="M86 -221q114 92 143 198q-29 6 -44.5 32.5t-8.5 64.5q9 39 39.5 64.5t67.5 25.5q39 0 60 -27.5t11 -77.5q-26 -144 -143 -254q-36 -33 -67 -50t-40 -13q-18 11 -18 37z" />
<glyph unicode="&#x201b;" horiz-adv-x="673" d="M440 1413q9 50 41.5 77.5t71.5 27.5q37 0 57 -26t13 -65q-7 -38 -33 -64t-58 -32q-9 -108 68 -198q-12 -27 -35 -37q-6 -2 -18 3.5t-29.5 21t-32.5 38.5q-74 109 -45 254z" />
<glyph unicode="&#x201c;" horiz-adv-x="960" d="M397 1196q29 146 144 254q25 23 49 38.5t38.5 21t18.5 3.5q17 -9 21 -36q-110 -86 -146 -199q29 -6 44.5 -32t8.5 -64q-7 -39 -38 -64.5t-68 -25.5q-39 0 -60.5 27t-11.5 77zM684 1196q29 147 143 254q25 23 49 38.5t39 21t19 3.5q16 -8 20 -36q-109 -85 -145 -199 q29 -6 44.5 -32t8.5 -64q-7 -39 -38 -64.5t-68 -25.5q-39 0 -60.5 27t-11.5 77z" />
<glyph unicode="&#x201d;" horiz-adv-x="960" d="M348 1133q112 90 146 198q-29 6 -45 32t-9 64q7 39 38.5 65t68.5 26q39 0 59.5 -27.5t11.5 -77.5q-29 -147 -143 -254q-36 -33 -67.5 -50t-40.5 -13q-15 9 -19 37zM635 1133q110 89 145 198q-29 6 -44.5 32t-8.5 64q7 39 38.5 65t68.5 26q39 0 59.5 -27.5t11.5 -77.5 q-29 -147 -143 -254q-36 -33 -68 -50t-41 -13q-14 8 -18 37z" />
<glyph unicode="&#x201e;" horiz-adv-x="960" d="M86 -221q114 92 143 198q-29 6 -44.5 32.5t-8.5 64.5q9 39 39.5 64.5t67.5 25.5q39 0 60 -27.5t11 -77.5q-26 -144 -143 -254q-36 -33 -67 -50t-40 -13q-18 11 -18 37zM373 -221q114 92 143 198q-29 6 -44.5 32.5t-8.5 64.5q9 39 39 64.5t67 25.5q39 0 60.5 -27.5 t11.5 -77.5q-26 -144 -143 -254q-36 -33 -67 -50t-40 -13q-18 11 -18 37z" />
<glyph unicode="&#x201f;" horiz-adv-x="960" d="M440 1413q9 50 41.5 77.5t71.5 27.5q37 0 57 -26t13 -65q-7 -38 -33 -64t-58 -32q-9 -108 68 -198q-12 -27 -35 -37q-6 -2 -18 3.5t-29.5 21t-32.5 38.5q-74 109 -45 254zM727 1413q9 50 41.5 77.5t71.5 27.5q37 0 56.5 -25.5t12.5 -65.5q-7 -38 -32.5 -64t-57.5 -32 q-9 -108 68 -198q-12 -27 -35 -37q-6 -2 -18 3.5t-29.5 21t-32.5 38.5q-74 109 -45 254z" />
<glyph unicode="&#x2020;" horiz-adv-x="1083" d="M244 1096q12 50 26 82l357 -15l57 355q54 14 100 14q23 0 31.5 -8.5t5.5 -26.5l-78 -334l328 15q21 1 28 -11.5t1 -40.5l-13 -71l-360 14l-260 -1337h-72q-27 0 -36.5 9.5t-4.5 31.5l252 1296l-334 -12q-19 0 -25 8.5t-3 30.5z" />
<glyph unicode="&#x2021;" horiz-adv-x="1105" d="M68 125q10 42 24 82l354 -14l170 876l-333 -12q-17 0 -23.5 9t-3.5 30q8 33 25 82l356 -15l59 355q51 14 99 14q21 0 30 -8t6 -23l-75 -338l325 15q23 0 30 -12t1 -40l-12 -71l-361 14l-170 -876l324 14q23 0 30 -11.5t1 -37.5l-15 -74l-360 14l-55 -331q-6 -35 -50 -35 q-43 0 -94 14l80 352l-336 -12q-17 0 -23 8.5t-3 30.5z" />
<glyph unicode="&#x2022;" horiz-adv-x="831" d="M268 688q0 82 49.5 131t128.5 49q77 0 133 -53.5t56 -142.5q0 -83 -49 -131.5t-129 -48.5q-77 0 -133 53.5t-56 142.5z" />
<glyph unicode="&#x2024;" horiz-adv-x="671" d="M176 74q9 39 39.5 64.5t67.5 25.5q38 0 60 -27t13 -71q-9 -41 -38 -66t-66 -25q-38 0 -60.5 27.5t-15.5 71.5z" />
<glyph unicode="&#x2025;" horiz-adv-x="1343" d="M176 74q9 39 39.5 64.5t67.5 25.5q38 0 60 -27t13 -71q-9 -41 -38 -66t-66 -25q-38 0 -60.5 27.5t-15.5 71.5zM848 74q9 39 39 64.5t67 25.5q38 0 60.5 -27t13.5 -71q-9 -41 -38 -66t-66 -25q-38 0 -60.5 27.5t-15.5 71.5z" />
<glyph unicode="&#x2026;" horiz-adv-x="2017" d="M176 74q9 39 39.5 64.5t67.5 25.5q38 0 60 -27t13 -71q-9 -41 -38 -66t-66 -25q-38 0 -60.5 27.5t-15.5 71.5zM848 74q9 39 39 64.5t67 25.5q38 0 60.5 -27t13.5 -71q-9 -41 -38 -66t-66 -25q-38 0 -60.5 27.5t-15.5 71.5zM1522 74q9 39 39 64.5t67 25.5q38 0 60.5 -27 t13.5 -71q-9 -41 -38.5 -66t-66.5 -25q-38 0 -60 27.5t-15 71.5z" />
<glyph unicode="&#x202f;" horiz-adv-x="401" />
<glyph unicode="&#x2030;" horiz-adv-x="2547" d="M246 1090q32 162 144.5 261t254.5 99t217 -99.5t43 -260.5q-32 -163 -144.5 -262t-254.5 -99t-217 99t-43 262zM373 1098q-24 -122 20 -191t142 -69q88 0 153.5 65.5t87.5 177.5q24 122 -19 190t-141 68q-89 0 -155 -65t-88 -176zM463 29q4 12 8 18l852 1387h59 q22 0 30.5 -8t6.5 -21q-5 -14 -8 -19l-850 -1386h-59q-22 0 -31.5 8t-7.5 21zM977 344q32 162 144.5 261.5t254.5 99.5t217 -100t43 -261q-32 -163 -144.5 -261.5t-254.5 -98.5t-217 98.5t-43 261.5zM1106 352q-24 -121 19.5 -190.5t140.5 -69.5q88 0 153.5 66t87.5 178 q25 122 -18 190t-141 68q-88 0 -154 -65t-88 -177zM1755 344q32 162 144.5 261.5t254.5 99.5t217.5 -100t43.5 -261q-32 -163 -145 -261.5t-255 -98.5t-217 98.5t-43 261.5zM1884 352q-24 -121 19.5 -190.5t140.5 -69.5q88 0 154 66t88 178q24 122 -19 190t-141 68 q-88 0 -154 -65t-88 -177z" />
<glyph unicode="&#x2032;" horiz-adv-x="624" d="M272 915l240 519q40 14 92 14q54 0 29 -55l-264 -519h-62q-52 0 -35 41z" />
<glyph unicode="&#x2033;" horiz-adv-x="919" d="M272 915l240 519q40 14 92 14q54 0 29 -55l-264 -519h-62q-52 0 -35 41zM569 915l240 519q40 14 92 14q54 0 29 -55l-264 -519h-62q-52 0 -35 41z" />
<glyph unicode="&#x2039;" horiz-adv-x="772" d="M176 627l10 53l492 305q30 19 43 19q22 0 14 -41q-5 -33 -24 -76l-410 -248l297 -240q21 -16 16 -49l-20 -102l-401 330q-22 19 -17 49z" />
<glyph unicode="&#x203a;" horiz-adv-x="772" d="M104 248l21 102q5 31 35 49l391 240l-313 248q0 51 4 76q8 41 32 41q13 0 35 -19l371 -305l-10 -53q-5 -29 -35 -49z" />
<glyph unicode="&#x203c;" horiz-adv-x="942" d="M127 74q9 40 38.5 64t67.5 24t59.5 -26.5t14.5 -69.5q-9 -41 -38.5 -66t-67.5 -25q-37 0 -59 27.5t-15 71.5zM227 399q47 352 127 762l52 269q58 14 108 14q26 0 35.5 -8t5.5 -27l-47 -248q-62 -315 -180 -803h-64q-24 0 -31.5 9t-5.5 32zM494 74q9 40 38.5 64t67.5 24 t59.5 -26.5t14.5 -69.5q-9 -41 -38.5 -66t-68.5 -25q-37 0 -58.5 27.5t-14.5 71.5zM594 399q47 352 127 762l51 269q58 14 109 14q26 0 35.5 -8t5.5 -27l-48 -248q-62 -315 -180 -803h-63q-24 0 -31.5 9t-5.5 32z" />
<glyph unicode="&#x203e;" horiz-adv-x="845" d="M324 1309q6 35 20 63h500q20 0 26 -9.5t0 -35.5l-10 -57h-516q-29 0 -20 39z" />
<glyph unicode="&#x2044;" horiz-adv-x="331" d="M-246 47l850 1387h60q53 0 28 -48l-850 -1386h-59q-56 0 -29 47z" />
<glyph unicode="&#x205f;" horiz-adv-x="501" />
<glyph unicode="&#x20a0;" horiz-adv-x="1574" d="M197 969q30 149 115 262t199 170t239 57q114 0 199 -49.5t118 -153.5q2 -12 2 -32q-6 -17 -27 -31q-41 -22 -92 -25q-35 172 -223 172q-133 0 -246.5 -102t-144.5 -266q-20 -110 -3 -192.5t65.5 -137t115 -82t145.5 -27.5q102 0 172 23l89 451h618q34 0 25 -41 q-5 -31 -25 -78h-504l-63 -320h397q23 0 30.5 -10.5t2.5 -38.5l-15 -67h-438l-20 -111q-26 -127 -0.5 -175t114.5 -48h338q23 0 29.5 -11t1.5 -38l-12 -68h-393q-153 0 -201.5 83t-7.5 292l14 74q-79 -31 -195 -31q-148 0 -254 67t-151 193t-14 291z" />
<glyph unicode="&#x20a1;" horiz-adv-x="1406" d="M193 762q30 154 102 282t169.5 214t212 137t234.5 61l68 158h59q33 0 21 -31l-53 -127q73 -3 145 -22l76 180h59q33 0 21 -31l-76 -180q161 -77 215 -246q6 -17 2 -31q-2 -17 -31 -36q-53 -29 -102 -35q-39 142 -141 213l-490 -1155q83 -17 156 -17q194 0 358 84 q12 -26 4 -65q-8 -45 -131 -92.5t-272 -47.5q-77 0 -164 17l-74 -172h-51q-16 0 -23.5 9.5t0.5 29.5l66 155q-70 23 -131 62l-109 -256h-51q-16 0 -22.5 8.5t0.5 30.5l114 270q-115 104 -158 266t-3 367zM332 768q-56 -299 86 -485l440 1046q-182 -29 -331.5 -178.5 t-194.5 -382.5zM481 215q55 -46 125 -76l492 1170q-64 23 -146 26z" />
<glyph unicode="&#x20a2;" horiz-adv-x="1406" d="M187.5 436.5q-30.5 145.5 5.5 325.5q31 162 110 296t184.5 220t229.5 133t250 47q189 0 313.5 -82.5t165.5 -218.5q6 -17 2 -31q-2 -17 -31 -36q-53 -29 -102 -35q-32 134 -131 207t-248 73q-96 0 -191 -38t-178 -108t-146 -179.5t-89 -241.5q-44 -229 29.5 -391 t234.5 -234l143 734q37 12 103 12q34 0 28 -31l-24 -129q53 74 130.5 117t160.5 43q78 0 127 -27q31 -16 26 -43q-2 -14 -18 -33q-23 -26 -62 -51q-53 35 -131 35q-74 0 -146 -52.5t-118 -146.5l-92 -467q49 -8 117 -8q194 0 358 84q12 -26 4 -65q-8 -45 -131 -92.5 t-272 -47.5q-160 0 -289 55.5t-210.5 158t-112 248z" />
<glyph unicode="&#x20a3;" horiz-adv-x="1120" d="M72 549q3 27 18 57h146l30 158h-127q-26 0 -20 31q5 22 18 57h146l114 582h805q31 0 25 -41q-7 -33 -27 -82h-688l-90 -459h539q20 0 25.5 -10t0.5 -35l-8 -43h-573l-31 -158h538q20 0 25.5 -9.5t1.5 -35.5l-8 -43h-574l-100 -518h-90q-28 0 -37.5 8.5t-5.5 30.5l94 479 h-127q-26 0 -20 31z" />
<glyph unicode="&#x20a4;" horiz-adv-x="1220" d="M68 49l12 62q71 53 109.5 109.5t56.5 148.5l22 110h-118q-27 0 -21 31q3 20 21 57h135l30 156h-118q-27 0 -21 33q8 32 21 55h135l37 184q42 217 180.5 340t322.5 123q144 0 235.5 -79.5t123.5 -213.5q6 -18 2 -41q-3 -18 -31 -32q-51 -23 -104 -29q-13 138 -79 205 t-173 67q-123 0 -214.5 -87t-121.5 -242l-39 -195h440q21 0 28 -10t1 -35l-8 -43h-477l-31 -156h440q20 0 26.5 -10.5t2.5 -36.5l-8 -41h-477l-21 -104q-33 -170 -145 -254h786q22 0 28.5 -11.5t0.5 -39.5l-13 -70h-944q-22 0 -29 11t-3 38z" />
<glyph unicode="&#x20a6;" horiz-adv-x="1470" d="M92 588q8 36 23 57h137l27 143h-121q-27 0 -21 31q8 37 23 58h137l100 522q30 20 64 32.5t55 12.5q29 0 41 -27l238 -540h415l109 557h90q28 0 36.5 -9t4.5 -32l-100 -516h110q21 0 27 -10t0 -36l-8 -43h-148l-26 -143h110q21 0 27 -9.5t0 -35.5l-8 -43h-148l-100 -522 q-68 -45 -117 -45q-29 0 -43 26l-240 541h-413l-107 -557h-90q-28 0 -37.5 9t-5.5 32l100 516h-120q-27 0 -21 31zM391 645h359l-64 143h-268zM436 877h211l-147 333zM834 788l63 -143h268l27 143h-358zM934 557l149 -334l64 334h-213z" />
<glyph unicode="&#x20a7;" horiz-adv-x="2308" d="M131 39l272 1395h236q194 0 314.5 -86t138.5 -254h172l61 309q51 14 94 14q23 0 31.5 -8.5t5.5 -26.5l-57 -288h287q28 0 36 -9.5t4 -35.5q101 69 242 69q230 0 297 -178q12 -40 -18 -61q-46 -30 -107 -41q-19 80 -67 120.5t-134 40.5q-77 0 -145.5 -53t-83.5 -127 q-15 -83 35.5 -131.5t175.5 -83.5q289 -81 244 -313q-27 -136 -138.5 -213.5t-295.5 -77.5h-353q-158 0 -224 92.5t-34 263.5l121 621h-151q-3 -27 -9 -51q-24 -125 -82.5 -226.5t-139 -166t-175.5 -98.5t-197 -34q-78 0 -143 19l-80 -420h-90q-27 0 -37 9t-6 30zM367 537 q58 -15 129 -15q160 0 285.5 105t162.5 291q35 189 -52 291t-253 102h-121zM1255 354q-24 -121 22.5 -179t145.5 -58h318q254 0 289 168q14 74 -27.5 123t-149.5 79q-165 43 -232.5 122.5t-43.5 211.5q19 92 74 156h-275z" />
<glyph unicode="&#x20a8;" horiz-adv-x="1980" d="M131 39l272 1395h289q254 0 380.5 -132t82.5 -364q-33 -166 -133 -280.5t-246 -170.5q20 -89 53 -176.5t68 -146.5q27 -44 48 -58t65 -14h26q3 -18 0 -39q-6 -33 -39 -55.5t-86 -22.5q-91 0 -151 117q-70 139 -115 363q-70 -13 -133 -13q-94 0 -160 19l-88 -461h-90 q-27 0 -37 9t-6 30zM377 580q61 -17 145 -17q189 0 321.5 98t168.5 277q34 182 -61.5 277.5t-286.5 95.5h-146zM1147 96q8 43 31 64q123 -68 256 -68q111 0 179 44.5t85 127.5q14 75 -27.5 125.5t-148.5 83.5q-158 50 -225.5 135.5t-43.5 212.5q27 132 132.5 214.5 t254.5 82.5q116 0 189 -48.5t104 -133.5q19 -45 -30 -70q-40 -21 -93 -28q-19 78 -70 119.5t-128 41.5q-85 0 -147 -49t-79 -131q-16 -82 35 -134t170 -93q144 -48 203.5 -126t36.5 -194q-25 -132 -134 -214.5t-274 -82.5q-81 0 -148.5 21t-100 49t-27.5 51z" />
<glyph unicode="&#x20a9;" horiz-adv-x="2269" d="M86 557q8 34 20 57h279l-18 144h-215q-27 0 -21 30q8 32 21 58h206l-65 553q65 43 115 43q18 0 26.5 -7.5t9.5 -27.5l64 -561h465q128 256 262 588h129q28 0 41 -9t16 -32l56 -547h467q140 283 262 588h96q51 0 33 -43q-101 -256 -242 -545h170q20 0 26.5 -10t2.5 -35 l-11 -43h-235q-30 -64 -76 -144h248q20 0 26.5 -10t2.5 -35l-11 -43h-317q-150 -264 -305 -489q-27 -37 -72 -37h-121l-53 526h-424q-123 -230 -297 -489q-25 -37 -72 -37h-116l-64 526h-289q-26 0 -20 31zM516 758l16 -144h322q55 102 74 144h-412zM541 526l41 -360 q109 159 221 360h-262zM993 614h367l-14 144h-279q-19 -42 -74 -144zM1112 846h225l-39 411q-103 -243 -186 -411zM1485 758l14 -144h322q37 70 75 144h-411zM1507 526l37 -358q114 164 225 358h-262z" />
<glyph unicode="&#x20aa;" horiz-adv-x="1845" d="M131 39l272 1395h478q267 0 365.5 -144.5t41.5 -441.5l-65 -332h-90q-27 0 -36 8.5t-5 30.5l55 281q23 107 19.5 187.5t-23 135.5t-62.5 88.5t-99 48.5t-132 15h-332l-254 -1311h-90q-27 0 -37 9t-6 30zM668 586l61 315q53 17 100 17q39 0 33 -35l-55 -287 q-23 -106 -20.5 -186t21.5 -135t61 -89.5t99 -49.5t136 -15h332l256 1313h90q27 0 35.5 -9.5t5.5 -31.5l-271 -1393h-475q-267 0 -366.5 145t-42.5 441z" />
<glyph unicode="&#x20ab;" horiz-adv-x="1316" d="M118.5 256.5q-19.5 90.5 2.5 204.5q47 244 236.5 409.5t416.5 165.5q197 0 305 -121l54 275h-365q-34 0 -25 33q4 35 21 63h389l29 148h86q26 0 35 -9.5t6 -31.5l-21 -107h86q23 0 29.5 -11t1.5 -38l-10 -47h-127l-189 -979q-24 -115 56 -115h36q0 -40 -2 -49 q-5 -23 -36.5 -42t-73.5 -19q-67 0 -101 57.5t-16 165.5q-83 -104 -197.5 -169t-246.5 -65q-97 0 -176 33t-131.5 95.5t-72 153zM156 -268q5 34 22 67h795q22 0 29.5 -11t3.5 -38l-13 -57h-813q-17 0 -22 9t-2 30zM258 463q-33 -173 47.5 -272t233.5 -99q118 0 235 78 t207 231l74 383q-107 134 -289 134q-174 0 -322 -131t-186 -324z" />
<glyph unicode="&#x20ac;" horiz-adv-x="1406" d="M45 569q3 30 21 58h108q3 58 19 135l4 22h-84q-27 0 -21 31q6 27 21 57h106q44 138 124.5 250t180.5 185t214 112t229 39q189 0 313.5 -82.5t165.5 -218.5q6 -17 2 -31q-2 -17 -31 -36q-53 -29 -102 -35q-32 134 -131 207t-248 73q-86 0 -172.5 -31t-164 -88t-141.5 -146 t-100 -198h549q20 0 26.5 -10t2.5 -35l-8 -43h-592l-4 -16q-15 -96 -15 -141h543q20 0 26.5 -10t2.5 -35l-8 -43h-562q23 -209 164.5 -326t356.5 -117q194 0 358 84q12 -26 4 -65q-8 -45 -131 -92.5t-272 -47.5q-272 0 -442.5 151.5t-182.5 412.5h-108q-27 0 -21 30z" />
<glyph unicode="&#x2122;" horiz-adv-x="1488" d="M104 1374q0 31 11 60h483q22 0 30.5 -10t8.5 -35v-48h-215v-610h-60q-26 0 -35.5 8t-9.5 27v575h-180q-33 0 -33 33zM682 768l68 645q53 31 79 31q17 0 26 -6t17 -21l183 -360l190 377h70q44 0 47 -37l70 -666h-66q-25 0 -34.5 7t-10.5 28l-53 516l-156 -315 q-12 -23 -45 -23h-59l-166 338l-58 -551h-57q-27 0 -37.5 8t-7.5 29z" />
<glyph unicode="&#x2202;" horiz-adv-x="1310" d="M147 428q0 144 68.5 254.5t181 167.5t248.5 57q123 0 234.5 -41t189.5 -110q-9 274 -137 426.5t-324 152.5q-108 0 -187.5 -57.5t-109.5 -171.5q-58 7 -94 27q-29 19 -29 41q0 17 11 43q50 114 158.5 177.5t256.5 63.5q128 0 237 -51.5t188.5 -146.5t124 -237.5 t44.5 -317.5v-29q0 -324 -158 -512.5t-421 -188.5q-213 0 -347.5 129.5t-134.5 323.5zM287 424q0 -141 98 -233.5t242 -92.5q189 0 311 142t131 387q-170 157 -401 157q-163 0 -272 -96.5t-109 -263.5z" />
<glyph unicode="&#x2206;" horiz-adv-x="1368" d="M90 51l541 1366q59 27 121 27q27 0 40.5 -10t22.5 -35l553 -1399h-1239q-24 0 -36 14t-3 37zM262 121h916l-459 1182z" />
<glyph unicode="&#x220f;" horiz-adv-x="1439" d="M244 -186v1702h975q26 0 37.5 -9.5t11.5 -31.5v-1702h-90q-27 0 -38.5 9.5t-11.5 31.5v1579h-745v-1620h-90q-26 0 -37.5 9.5t-11.5 31.5z" />
<glyph unicode="&#x2211;" horiz-adv-x="1236" d="M129 1403q9 49 37 88q20 25 59 25h932q22 0 31.5 -12t9.5 -40v-71h-905l479 -686v-29q0 -25 -16 -49l-447 -733h854q22 0 31.5 -12t9.5 -40v-71h-1016q-22 0 -31.5 11.5t-9.5 39.5v63l486 793z" />
<glyph unicode="&#x221a;" horiz-adv-x="1163" d="M129 709q0 36 10 69h170q47 0 62 -35l270 -600l330 1434h71q48 0 39 -41l-342 -1493q-6 -24 -21 -33.5t-46 -9.5h-97l-301 668h-110q-35 0 -35 41z" />
<glyph unicode="&#x221e;" horiz-adv-x="1628" d="M211 682q0 130 90 210.5t211 80.5q96 0 175.5 -47t162.5 -158q153 205 340 205q121 0 211 -80.5t90 -210.5t-90 -211.5t-211 -81.5q-97 0 -175.5 47t-162.5 158q-153 -205 -340 -205q-121 0 -211 81.5t-90 211.5zM334 682q0 -86 53 -136t133 -50q70 0 129.5 38.5 t132.5 147.5q-82 110 -137.5 147t-124.5 37q-80 0 -133 -49t-53 -135zM918 682q81 -111 137.5 -148.5t126.5 -37.5q80 0 133 50t53 136q0 85 -53.5 134.5t-132.5 49.5q-70 0 -128 -38t-136 -146z" />
<glyph unicode="&#x222b;" horiz-adv-x="1071" d="M82 -418q0 32 20 64q74 -33 191 -33q211 0 211 223v1331q0 169 85 261t234 92q92 0 165 -30.5t73 -57.5q0 -30 -21 -64q-74 33 -190 33q-211 0 -211 -223v-1332q0 -168 -85.5 -260t-234.5 -92q-92 0 -164.5 30.5t-72.5 57.5z" />
<glyph unicode="&#x2248;" horiz-adv-x="1349" d="M215 377q0 12 4 24q29 110 101.5 168t171.5 58q122 0 243 -97q63 -52 106 -72t85 -20q56 0 96.5 45.5t58.5 143.5l99 -21q17 -3 22.5 -13t1.5 -32q-24 -116 -98.5 -177.5t-175.5 -61.5q-125 0 -244 96q-63 52 -105.5 72t-84.5 20q-56 0 -97 -45t-59 -143q-64 -3 -102 18 q-23 14 -23 37zM215 786q0 13 4 25q29 110 101.5 167.5t171.5 57.5q124 0 243 -96q63 -52 106 -72t85 -20q121 0 155 188l99 -20q17 -3 22.5 -13t1.5 -32q-24 -116 -98.5 -178t-175.5 -62q-125 0 -244 96q-64 52 -106 72.5t-84 20.5q-56 0 -97 -45.5t-59 -143.5 q-62 -3 -102 19q-23 14 -23 36z" />
<glyph unicode="&#x2260;" horiz-adv-x="1349" d="M221 438q0 43 10 76h332l170 330h-479q-33 0 -33 39q0 40 10 78h562l155 299h72q24 0 33 -11.5t-2 -34.5l-131 -253h239q23 0 32 -11.5t9 -38.5v-67h-342l-170 -330h471q23 0 32 -10.5t9 -38.5v-68h-571l-154 -297h-72q-53 0 -30 45l129 252h-248q-33 0 -33 41z" />
<glyph unicode="&#x2264;" horiz-adv-x="1306" d="M199 809v90l915 399q20 5 21 5q30 0 30 -46t-8 -77l-809 -346l774 -332q23 -10 33 -22.5t10 -37.5v-96l-925 404q-23 9 -32 21.5t-9 37.5zM201 39q0 40 10 78h928q22 0 31.5 -11.5t9.5 -39.5v-66h-947q-32 0 -32 39z" />
<glyph unicode="&#x2265;" horiz-adv-x="1306" d="M201 0v66q0 28 9.5 39.5t31.5 11.5h927q11 -42 11 -78q0 -39 -33 -39h-946zM215 346v96q0 25 10 37.5t33 22.5l774 332l-809 346q-8 31 -8 77t31 46l20 -5l916 -399v-90q0 -25 -9 -37.5t-32 -21.5z" />
<glyph unicode="&#x25ca;" horiz-adv-x="1058" d="M129 723l379 713q37 16 82 16q18 0 25.5 -5t15.5 -20l373 -704l-375 -696q-15 -27 -60 -27h-51zM270 723l297 -557l297 557l-297 559z" />
<glyph unicode="&#x25fc;" horiz-adv-x="1095" d="M0 0v1096h1096v-1096h-1096z" />
</font>
</defs>
</svg>
