<?xml version="1.0" standalone="no"?>
<!DOCTYPE svg PUBLIC "-//W3C//DTD SVG 1.1//EN" "http://www.w3.org/Graphics/SVG/1.1/DTD/svg11.dtd" >
<svg xmlns="http://www.w3.org/2000/svg">
<metadata></metadata>
<defs>
<font id="core_rhino_35_lightregular" horiz-adv-x="1579" >
<font-face units-per-em="2048" ascent="1638" descent="-410" />
<missing-glyph horiz-adv-x="614" />
<glyph unicode="&#xfb01;" horiz-adv-x="1308" d="M68 1016q0 40 10 78h219v73q0 166 83.5 259.5t227.5 93.5q94 0 161 -26.5t67 -53.5q0 -38 -21 -66q-69 27 -178 27q-97 0 -151 -56.5t-54 -166.5v-84h617q22 0 31.5 -12t9.5 -40v-831q0 -62 19.5 -88.5t57.5 -26.5h37q8 -28 8 -49q0 -24 -29 -42.5t-77 -18.5 q-69 0 -110.5 53t-41.5 158v780h-522v-977h-86q-28 0 -38.5 8.5t-10.5 30.5v938h-195q-34 0 -34 39zM936 1423q0 38 23 62t59 24q37 0 63.5 -26.5t26.5 -67.5q0 -39 -23.5 -62.5t-60.5 -23.5q-36 0 -62 26t-26 68z" />
<glyph unicode="&#xfb02;" horiz-adv-x="1398" d="M68 1016q0 40 10 78h219v67q0 174 91.5 266.5t273.5 92.5q168 0 307 -66v37q54 14 94 14q41 0 41 -35v-1208q0 -162 135 -162q65 0 119 23q18 -24 18 -57q0 -26 -49.5 -53t-120.5 -27q-113 0 -175 71t-62 209v1088q-118 47 -281 47q-138 0 -197 -55t-59 -175v-77h348 q22 0 31.5 -12t9.5 -40v-65h-389v-977h-86q-28 0 -38.5 8.5t-10.5 30.5v938h-195q-34 0 -34 39z" />
<glyph horiz-adv-x="682" />
<glyph horiz-adv-x="0" />
<glyph horiz-adv-x="0" />
<glyph unicode="&#xd;" horiz-adv-x="485" />
<glyph unicode=" "  horiz-adv-x="614" />
<glyph unicode="&#x09;" horiz-adv-x="614" />
<glyph unicode="&#xa0;" horiz-adv-x="614" />
<glyph unicode="!" horiz-adv-x="573" d="M197 74q0 39 24.5 63.5t63.5 24.5q38 0 65 -26.5t27 -69.5q0 -41 -24.5 -66t-63.5 -25q-37 0 -64.5 27.5t-27.5 71.5zM211 1161v269q54 14 104 14t50 -35v-248q0 -339 -25 -803h-64q-24 0 -32.5 9t-10.5 32q-22 344 -22 762z" />
<glyph unicode="&#x22;" horiz-adv-x="874" d="M231 1427q49 17 103 17q45 0 45 -37l-17 -553h-67q-26 0 -36.5 8.5t-10.5 28.5zM494 1427q49 17 102 17q45 0 45 -37l-16 -553h-68q-26 0 -36.5 8.5t-10.5 28.5z" />
<glyph unicode="#" horiz-adv-x="1423" d="M102 418q0 28 13 82h227l74 432h-203q-35 0 -35 41q0 34 12 80h246l66 377q51 14 94 14t43 -33v-8l-61 -350h378l64 377q51 14 96 14q41 0 41 -33v-8l-61 -350h182q22 0 30.5 -10.5t8.5 -38.5v-72h-242l-74 -432h201q22 0 30.5 -11t8.5 -38v-72h-260l-63 -379h-89 q-29 0 -39 9t-6 36l56 334h-377l-64 -379h-88q-29 0 -39 9t-6 36l56 334h-185q-35 0 -35 39zM483 500h379l74 432h-379z" />
<glyph unicode="$" horiz-adv-x="1214" d="M137 1075q0 154 107.5 257t283.5 122v195q44 14 84 14q43 0 43 -35v-174q139 -13 244.5 -78t157.5 -157q14 -25 14 -45q0 -22 -27 -37q-41 -21 -94 -25q-47 107 -139.5 165t-218.5 58q-139 0 -226 -69.5t-87 -184.5q0 -109 81.5 -180t276.5 -131q232 -72 340 -168 t108 -252q0 -154 -106.5 -253.5t-292.5 -116.5v-209h-78q-27 0 -38 9.5t-11 31.5v165q-148 7 -256 53t-108 91q0 36 20 63q174 -88 379 -88q173 0 262.5 68.5t89.5 179.5q0 108 -85.5 180t-272.5 125q-224 62 -337.5 165t-113.5 261z" />
<glyph unicode="%" horiz-adv-x="1771" d="M117 1090q0 162 93.5 261t235.5 99t236 -99.5t94 -260.5q0 -163 -94 -262t-236 -99t-235.5 99t-93.5 262zM242 1098q0 -122 57.5 -191t155.5 -69q88 0 141 65.5t53 177.5q0 122 -56.5 190t-154.5 68q-89 0 -142.5 -65t-53.5 -176zM541 29q0 6 4 18l581 1387h60 q43 0 43 -29q0 -7 -4 -19l-582 -1386h-59q-43 0 -43 29zM993 344q0 162 94 261.5t236 99.5t236 -99.5t94 -261.5q0 -163 -94 -261.5t-236 -98.5t-236 98.5t-94 261.5zM1120 352q0 -122 57.5 -191t153.5 -69q88 0 141.5 66t53.5 178q0 122 -56.5 190t-154.5 68 q-88 0 -141.5 -65t-53.5 -177z" />
<glyph unicode="&#x26;" horiz-adv-x="1482" d="M115 336q0 127 74 237t212 179q-84 107 -116.5 189t-32.5 173q0 147 107.5 245.5t263.5 98.5q149 0 249.5 -89t100.5 -226q0 -261 -381 -420q240 -262 420 -408q95 100 166.5 231t99.5 273q44 0 68 -18q18 -13 18 -58q0 -104 -73 -247t-181 -258q92 -69 158 -105 q75 -41 123 -41h36q9 -24 9 -49q0 -27 -28.5 -47.5t-70.5 -20.5q-60 0 -135 41q-88 48 -192 131q-220 -172 -473 -172q-186 0 -304 99.5t-118 261.5zM250 340q0 -112 82 -178t217 -66q191 0 362 131q-230 193 -387 375q-32 37 -57 68q-106 -57 -161.5 -144.5t-55.5 -185.5z M389 1118q0 -75 29.5 -145.5t103.5 -167.5q312 138 312 328q0 96 -62 152t-158 56q-95 0 -160 -63t-65 -160z" />
<glyph unicode="'" horiz-adv-x="565" d="M209 1427q49 17 102 17q45 0 45 -37l-16 -553h-68q-26 0 -36.5 8.5t-10.5 28.5z" />
<glyph unicode="(" horiz-adv-x="778" d="M231 635q0 276 81 497t218 363q58 63 93 47q26 -10 39 -51q-293 -326 -293 -856t293 -856q-13 -41 -39 -51q-35 -16 -93 47q-137 142 -218 363t-81 497z" />
<glyph unicode=")" horiz-adv-x="778" d="M117 -221q293 326 293 856t-293 856q13 41 39 51q35 15 92 -47q136 -143 217.5 -364t81.5 -496t-81.5 -496t-217.5 -364q-57 -62 -92 -47q-26 10 -39 51z" />
<glyph unicode="*" horiz-adv-x="1259" d="M139 735q0 46 17 99q13 41 47 32l370 -139l-18 412q46 16 98 16q43 0 43 -35l-16 -395l389 147q30 -42 45 -88q14 -45 -18 -53l-383 -106l262 -326q-30 -43 -70 -68q-37 -24 -57 2l-223 332l-230 -344q-42 15 -88 45q-35 25 -14 53l244 308z" />
<glyph unicode="+" horiz-adv-x="1349" d="M184 659q0 41 11 78h411v422q46 17 92 17q43 0 43 -35v-404h381q23 0 32 -10.5t9 -38.5v-67h-422v-437h-86q-27 0 -38 8.5t-11 30.5v398h-389q-33 0 -33 38z" />
<glyph unicode="," horiz-adv-x="673" d="M211 -221q94 91 106 198q-30 6 -50.5 32.5t-20.5 64.5q0 39 25.5 64.5t62.5 25.5q39 0 65.5 -27.5t26.5 -77.5q0 -145 -94 -254q-29 -33 -57 -50t-37 -13q-19 10 -27 37z" />
<glyph unicode="-" horiz-adv-x="978" d="M197 659q0 32 12 82h532q23 0 32 -11.5t9 -39.5v-72h-551q-34 0 -34 41z" />
<glyph unicode="." horiz-adv-x="673" d="M246 74q0 39 25.5 64.5t62.5 25.5q38 0 65 -27t27 -71q0 -41 -24.5 -66t-61.5 -25q-38 0 -66 27.5t-28 71.5z" />
<glyph unicode="/" horiz-adv-x="968" d="M-10 -199q0 9 6 21l854 1720h86q41 0 41 -26q0 -9 -6 -21l-854 -1720h-86q-41 0 -41 26z" />
<glyph unicode="0" horiz-adv-x="1345" d="M135 717q0 350 143.5 545.5t395.5 195.5q250 0 393 -195.5t143 -545.5q0 -351 -142.5 -546.5t-393.5 -195.5q-252 0 -395.5 196t-143.5 546zM276 729q0 -295 107 -463t301 -168q184 0 285.5 160t101.5 447q0 295 -107.5 462.5t-301.5 167.5q-183 0 -284.5 -160 t-101.5 -446z" />
<glyph unicode="1" horiz-adv-x="1345" d="M266 1122q0 19 25 35l430 277h78q26 0 37.5 -9.5t11.5 -31.5v-1393h-90q-28 0 -38.5 8.5t-10.5 30.5v1239l-371 -242q-34 18 -59 54q-13 20 -13 32z" />
<glyph unicode="2" horiz-adv-x="1345" d="M178 1124q0 19 8 35q67 140 185.5 219.5t283.5 79.5q216 0 351 -132.5t135 -348.5q0 -459 -660 -856h629q22 0 30.5 -10.5t8.5 -38.5v-72h-864q-37 0 -54 25q-17 28 -24 73q139 76 253 151t216 163t172 176.5t110.5 188.5t40.5 202q0 164 -94 260t-254 96 q-124 0 -215 -72t-137 -206q-59 4 -94 28q-27 18 -27 39z" />
<glyph unicode="3" horiz-adv-x="1345" d="M178 125q0 35 21 63q172 -90 393 -90q181 0 293 78.5t112 216.5q0 303 -446 338q-37 3 -53 27q-20 26 -27 76l434 479h-665q-33 0 -33 39q0 44 10 82h787q36 0 53 -25q19 -28 26 -74l-450 -501q236 -32 370 -140t134 -295q0 -195 -149 -309.5t-382 -114.5 q-87 0 -169.5 16t-137.5 39.5t-88 49t-33 45.5z" />
<glyph unicode="4" horiz-adv-x="1345" d="M125 395q40 141 118 295.5t179 296.5t227 262t252 185q51 14 96 14q32 0 45 -10.5t13 -38.5v-981h153q23 0 32 -11t9 -38v-72h-194v-297h-90q-27 0 -38.5 9t-11.5 30v258h-712q-36 0 -53 25q-19 30 -25 73zM281 418h634v885q-204 -129 -384.5 -381.5t-249.5 -503.5z" />
<glyph unicode="5" horiz-adv-x="1345" d="M182 125q0 35 21 63q167 -90 387 -90q197 0 306.5 91t109.5 249q0 157 -109 248.5t-305 91.5q-118 0 -244 -28q-32 -7 -45 -7q-15 0 -35 17l-20 16l90 658h715q22 0 31.5 -11.5t9.5 -38.5v-71h-643l-62 -449q111 35 232 35q242 0 383 -123t141 -338q0 -204 -144 -333.5 t-393 -129.5q-87 0 -169.5 16t-136.5 39.5t-87 49t-33 45.5z" />
<glyph unicode="6" horiz-adv-x="1345" d="M154 676v29q0 175 44.5 317.5t124 237.5t188.5 146.5t237 51.5q148 0 256.5 -63.5t158.5 -177.5q11 -26 11 -43q0 -22 -29 -41q-36 -20 -94 -27q-30 114 -109.5 171.5t-187.5 57.5q-196 0 -324 -152.5t-137 -426.5q78 69 189.5 110t234.5 41q209 0 353 -131.5t144 -347.5 q0 -194 -134 -323.5t-347 -129.5q-263 0 -421 188.5t-158 512.5zM293 627q9 -245 131 -387t311 -142q144 0 242 92.5t98 233.5q0 167 -109 263.5t-272 96.5q-231 0 -401 -157z" />
<glyph unicode="7" horiz-adv-x="1345" d="M176 1352q0 44 10 82h895q37 0 54 -25q19 -29 26 -72q-386 -601 -561 -1337h-90q-55 0 -45 45q181 690 532 1268h-788q-33 0 -33 39z" />
<glyph unicode="8" horiz-adv-x="1345" d="M141 367q0 132 83 230.5t247 156.5q-145 62 -209.5 142.5t-64.5 193.5q0 158 129.5 263t337.5 105q211 0 338.5 -106t127.5 -262q0 -107 -67.5 -199t-181.5 -154q165 -68 243 -156.5t78 -209.5q0 -173 -144.5 -284.5t-385.5 -111.5q-234 0 -382.5 109.5t-148.5 282.5z M281 365q0 -121 113.5 -195t277.5 -74q170 0 279.5 77t109.5 194q0 118 -100 192t-353 146q-174 -61 -250.5 -145t-76.5 -195zM336 1094q0 -106 89.5 -169.5t330.5 -142.5q233 127 233 310q0 108 -91.5 175.5t-233.5 67.5q-141 0 -234.5 -67.5t-93.5 -173.5z" />
<glyph unicode="9" horiz-adv-x="1345" d="M150 1006q0 194 134 323t347 129q263 0 421 -188t158 -512v-29q0 -184 -46 -329t-128.5 -237t-193 -140t-242.5 -48q-92 0 -179 25t-136 58.5t-49 60.5q0 35 20 65q142 -86 326 -86q99 0 183 34t151.5 102t108.5 182t46 262q-77 -69 -189 -110.5t-235 -41.5 q-101 0 -191.5 33.5t-158.5 94.5t-107.5 152t-39.5 200zM289 1010q0 -168 109 -264.5t272 -96.5q225 0 401 158q-10 245 -131.5 386.5t-310.5 141.5q-144 0 -242 -92t-98 -233z" />
<glyph unicode=":" horiz-adv-x="673" d="M246 74q0 39 25.5 64.5t62.5 25.5q38 0 65 -27t27 -71q0 -41 -24.5 -66t-61.5 -25q-38 0 -66 27.5t-28 71.5zM246 1028q0 40 25 65t63 25t65 -27t27 -71q0 -39 -24.5 -64.5t-61.5 -25.5q-38 0 -66 27t-28 71z" />
<glyph unicode=";" horiz-adv-x="673" d="M211 -221q94 91 106 198q-30 6 -50.5 32.5t-20.5 64.5q0 39 25.5 64.5t62.5 25.5q39 0 65.5 -27.5t26.5 -77.5q0 -145 -94 -254q-29 -33 -57 -50t-37 -13q-19 10 -27 37zM246 1028q0 40 25 65t63 25t65 -27t27 -71q0 -39 -24.5 -64.5t-61.5 -25.5q-38 0 -66 27t-28 71z " />
<glyph unicode="&#x3c;" horiz-adv-x="1349" d="M184 655v90l928 400q16 4 21 4q30 0 30 -45q0 -47 -8 -78l-821 -346l786 -332q23 -10 33 -22t10 -37v-96l-938 403q-23 9 -32 21.5t-9 37.5z" />
<glyph unicode="=" horiz-adv-x="1349" d="M184 438q0 39 11 76h927q23 0 32 -10.5t9 -38.5v-68h-946q-33 0 -33 41zM184 883q0 36 11 78h927q23 0 32 -11.5t9 -38.5v-67h-946q-33 0 -33 39z" />
<glyph unicode="&#x3e;" horiz-adv-x="1349" d="M184 193v96q0 25 10 37t33 22l789 332l-823 346q-9 34 -9 78q0 45 31 45q5 0 21 -4l927 -400v-90q0 -45 -41 -59z" />
<glyph unicode="?" horiz-adv-x="1136" d="M117 1122q0 21 8 37q61 142 173 220.5t275 78.5q188 0 306 -109t118 -282q0 -119 -54 -211.5t-175 -191.5q-94 -76 -125 -125t-31 -115v-66h-90q-27 0 -38 9.5t-11 31.5v33q0 89 42.5 160.5t154.5 159.5q101 81 144.5 152.5t43.5 162.5q0 121 -81.5 194.5t-205.5 73.5 q-120 0 -208 -71t-125 -207q-53 3 -97 28q-24 13 -24 37zM453 74q0 39 24.5 63.5t63.5 24.5q37 0 64.5 -26.5t27.5 -69.5q0 -41 -24.5 -66t-63.5 -25q-37 0 -64.5 27.5t-27.5 71.5z" />
<glyph unicode="@" horiz-adv-x="2091" d="M162 563q0 252 119.5 458t321.5 321.5t441 115.5q189 0 354 -65t281 -177.5t183 -268.5t67 -333q0 -220 -111.5 -369t-281.5 -149q-95 0 -162.5 51t-89.5 140q-67 -83 -164.5 -132t-204.5 -49q-143 0 -239 104.5t-96 272.5q0 122 46 225.5t122 170.5t170.5 104t193.5 37 q117 0 211.5 -47.5t155.5 -128.5l-84 -418q-20 -101 20 -164t127 -63q112 0 193.5 115t81.5 296q0 157 -57.5 295t-158 237.5t-245 156.5t-312.5 57q-154 0 -294.5 -59.5t-245 -163t-166.5 -252.5t-62 -318q0 -163 60 -309t163 -252.5t249.5 -168.5t312.5 -62q289 0 495 161 q30 -20 33 -49q1 -14 -20.5 -39t-68 -55.5t-107.5 -57.5t-150.5 -45t-185.5 -18q-188 0 -354 69t-284.5 187.5t-187.5 284.5t-69 354zM711 489q0 -122 62 -194t165 -72q93 0 175 42.5t144 121.5l84 426q-79 94 -235 94q-99 0 -189 -51.5t-148 -149.5t-58 -217z" />
<glyph unicode="A" horiz-adv-x="1359" d="M55 29q0 6 4 18l531 1370q59 27 121 27q27 0 40.5 -10t22.5 -35l541 -1399h-101q-27 0 -40 8t-19 27l-133 356h-686l-148 -391h-88q-45 0 -45 29zM379 512h598l-299 791z" />
<glyph unicode="B" horiz-adv-x="1333" d="M203 328v1106h491q222 0 346.5 -108t124.5 -269q0 -117 -58.5 -199.5t-166.5 -122.5q127 -33 199.5 -122t72.5 -220q0 -177 -127.5 -285t-365.5 -108h-236q-141 0 -210.5 76t-69.5 252zM342 342q0 -126 34.5 -173.5t121.5 -47.5h225q172 0 260 72t88 202q0 273 -371 273 h-358v-326zM342 788h344q169 0 253.5 68t84.5 195q0 118 -90 189t-248 71h-344v-523z" />
<glyph unicode="C" horiz-adv-x="1406" d="M127 762q0 130 34.5 243t94.5 195t140.5 141t174.5 88t195 29q189 0 329.5 -82.5t209.5 -218.5q8 -16 8 -31q0 -17 -25 -36q-46 -29 -96 -35q-59 134 -171 207t-261 73q-96 0 -184 -38t-157.5 -108t-111 -179.5t-41.5 -241.5q0 -154 50.5 -282t137.5 -212.5t202.5 -131 t246.5 -46.5q198 0 342 84q19 -28 19 -65q0 -45 -114.5 -92.5t-262.5 -47.5q-160 0 -300 56t-241.5 156.5t-160 249t-58.5 325.5z" />
<glyph unicode="D" horiz-adv-x="1480" d="M205 330v1104h459q148 0 274.5 -50t218 -141.5t143.5 -227t52 -298.5t-52 -298.5t-143.5 -227t-218 -141.5t-274.5 -50h-181q-142 0 -210 75.5t-68 254.5zM344 344q0 -128 34 -175.5t122 -47.5h155q114 0 213.5 38.5t176 111.5t121 188t44.5 258t-44.5 258t-121 188 t-176 111.5t-213.5 38.5h-311v-969z" />
<glyph unicode="E" horiz-adv-x="1167" d="M203 328v1106h798q33 0 33 -41q0 -40 -10 -82h-682v-543h541q23 0 32 -11t9 -38v-72h-582v-305q0 -122 37.5 -171.5t118.5 -49.5h512q23 0 32 -11.5t9 -39.5v-70h-568q-143 0 -211.5 75t-68.5 253z" />
<glyph unicode="F" horiz-adv-x="1120" d="M207 39v1395h799q32 0 32 -41q0 -40 -10 -82h-682v-547h541q23 0 32 -10.5t9 -38.5v-72h-582v-643h-90q-27 0 -38 8.5t-11 30.5z" />
<glyph unicode="G" horiz-adv-x="1533" d="M127 762q0 161 53 294.5t143.5 220t207.5 134t247 47.5q189 0 333.5 -81t217.5 -216q8 -16 8 -31q0 -18 -24 -36q-46 -29 -96 -35q-57 135 -173.5 205.5t-265.5 70.5q-100 0 -192 -38.5t-163.5 -109t-114 -179.5t-42.5 -240q0 -153 50 -281.5t135.5 -213t198.5 -131 t239 -46.5q164 0 248 56.5t84 152.5v277h-324q-33 0 -33 39q0 43 10 81h445q22 0 31.5 -11t9.5 -38v-344q0 -156 -126.5 -245t-348.5 -89q-160 0 -299 56.5t-240.5 157.5t-160 249.5t-58.5 323.5z" />
<glyph unicode="H" horiz-adv-x="1478" d="M207 39v1388q49 17 96 17q43 0 43 -35v-631h784v656h91q26 0 37.5 -9.5t11.5 -31.5v-1393h-90q-28 0 -39 8.5t-11 30.5v618h-784v-657h-90q-27 0 -38 8.5t-11 30.5z" />
<glyph unicode="I" horiz-adv-x="579" d="M219 39v1388q49 17 96 17q43 0 43 -35v-1409h-90q-28 0 -38.5 8.5t-10.5 30.5z" />
<glyph unicode="J" horiz-adv-x="841" d="M35 70q0 38 20 65q81 -37 203 -37q116 0 180 69t64 206v1057q51 14 96 14q43 0 43 -33v-1038q0 -189 -91.5 -293.5t-270.5 -104.5q-87 0 -165.5 31t-78.5 64z" />
<glyph unicode="K" horiz-adv-x="1347" d="M207 39v1388q49 17 96 17q43 0 43 -35v-729q207 136 408.5 334.5t355.5 429.5q55 -17 78.5 -35t23.5 -41t-14 -43q-176 -272 -479 -530q120 -223 242.5 -400t214.5 -254q54 -45 96 -45h33q8 -28 8 -53q0 -26 -30.5 -47t-74.5 -21q-62 0 -135 64q-198 174 -457 676 q-141 -112 -270 -191v-524h-90q-27 0 -38 8.5t-11 30.5z" />
<glyph unicode="L" horiz-adv-x="1116" d="M203 328v1099q49 17 96 17q43 0 43 -35v-1067q0 -122 37.5 -171.5t118.5 -49.5h520q22 0 30.5 -11.5t8.5 -39.5v-70h-574q-143 0 -211.5 75t-68.5 253z" />
<glyph unicode="M" horiz-adv-x="1837" d="M152 41l149 1362q61 41 113 41q17 0 27 -6t20 -25l454 -811l465 832h101q27 0 37.5 -9t13.5 -32l154 -1393h-99q-29 0 -40 9t-13 32l-123 1188l-418 -748q-14 -26 -57 -26h-82l-432 774l-129 -1229h-92q-29 0 -39 8.5t-10 32.5z" />
<glyph unicode="N" horiz-adv-x="1470" d="M209 41v1358q26 20 56.5 32.5t51.5 12.5q30 0 48 -27l757 -1194v1211h90q28 0 39 -9t11 -32v-1358q-26 -20 -57 -32.5t-52 -12.5q-27 0 -47 26l-758 1194v-1210h-90q-28 0 -38.5 9t-10.5 32z" />
<glyph unicode="O" d="M127 717q0 144 34.5 265.5t96 208.5t145 147.5t182 90t206.5 29.5q135 0 253.5 -47.5t210 -137.5t144.5 -233.5t53 -322.5t-53 -322.5t-144.5 -234t-210 -138t-253.5 -47.5q-136 0 -255 47.5t-211 138t-145 234t-53 322.5zM270 733q0 -155 42.5 -277.5t116 -199.5 t169.5 -117.5t207 -40.5q100 0 189 37t160 108.5t113 189.5t42 267q0 155 -42 277.5t-115.5 199.5t-170 117.5t-207.5 40.5q-100 0 -189 -37t-160 -108.5t-113 -189.5t-42 -267z" />
<glyph unicode="P" horiz-adv-x="1296" d="M209 41v1393h426q254 0 405.5 -138.5t151.5 -382.5q0 -122 -42.5 -220.5t-117 -161.5t-172.5 -96.5t-211 -33.5q-173 0 -301 45v-446h-90q-28 0 -38.5 9t-10.5 32zM348 557q118 -33 287 -33q189 0 303.5 103.5t114.5 290.5q0 191 -115 293t-307 102h-283v-756z" />
<glyph unicode="Q" d="M127 717q0 144 34.5 265.5t96 208.5t145 147.5t182 90t206.5 29.5q135 0 253.5 -47.5t210 -137.5t144.5 -233.5t53 -322.5q0 -238 -90 -406.5t-244 -253.5q130 -225 266 -225h35q8 -19 8 -51q0 -25 -28.5 -44.5t-79.5 -19.5q-169 0 -309 293q-103 -35 -219 -35 q-136 0 -255 47.5t-211 138t-145 234t-53 322.5zM270 733q0 -154 43 -277t117 -200t170 -117.5t205 -40.5q100 0 189 37t160 108.5t113 189.5t42 267q0 155 -42 277.5t-115.5 199.5t-170 117.5t-207.5 40.5q-100 0 -189 -37t-160 -108.5t-113 -189.5t-42 -267z" />
<glyph unicode="R" horiz-adv-x="1339" d="M207 39v1395h405q254 0 405.5 -132t151.5 -364q0 -185 -96 -305.5t-258 -165.5q150 -241 283 -336q53 -39 98 -39h29q8 -21 8 -49q0 -27 -27.5 -47.5t-70.5 -20.5q-56 0 -117 43q-164 118 -336 426q-16 -2 -49 -2q-160 0 -287 41v-483h-90q-27 0 -38 8.5t-11 30.5z M346 596q115 -33 264 -33q190 0 304 98t114 277q0 182 -114.5 277.5t-307.5 95.5h-260v-715z" />
<glyph unicode="S" horiz-adv-x="1214" d="M137 1075q0 169 127.5 276t327.5 107q161 0 284 -68t181 -171q14 -25 14 -45q0 -22 -27 -37q-41 -21 -94 -25q-47 107 -139.5 165t-218.5 58q-139 0 -226 -69.5t-87 -184.5q0 -109 81.5 -180t276.5 -131q232 -72 340 -168t108 -252q0 -170 -129.5 -272.5t-349.5 -102.5 q-109 0 -206.5 24t-151 57.5t-53.5 64.5q0 36 20 63q174 -88 379 -88q173 0 262.5 68.5t89.5 179.5q0 108 -85.5 180t-272.5 125q-224 62 -337.5 165t-113.5 261z" />
<glyph unicode="T" horiz-adv-x="1243" d="M92 1352q0 40 10 82h1008q22 0 31.5 -12t9.5 -40v-71h-461v-1311h-90q-27 0 -38 8.5t-11 30.5v1272h-426q-33 0 -33 41z" />
<glyph unicode="U" horiz-adv-x="1472" d="M197 598v829q49 17 96 17q43 0 43 -35v-821q0 -223 109 -357.5t290 -134.5q182 0 292 134.5t110 357.5v846h90q26 0 37.5 -9.5t11.5 -31.5v-795q0 -287 -146.5 -455t-394.5 -168t-393 168t-145 455z" />
<glyph unicode="V" horiz-adv-x="1452" d="M92 1399q59 43 109 43q17 0 25 -7.5t16 -27.5l479 -1237q146 254 273.5 584t213.5 680h95q28 0 39 -10q8 -7 8 -20q0 -6 -2 -13q-190 -755 -535 -1354q-12 -21 -25.5 -29t-39.5 -8h-115z" />
<glyph unicode="W" horiz-adv-x="2269" d="M104 1399q56 43 107 43q33 0 43 -35l379 -1241q255 531 405 1268h129q28 0 43.5 -9t22.5 -32l362 -1225q278 574 414 1266h96q44 0 44 -31q0 -5 -1 -12q-144 -711 -458 -1354q-19 -37 -66 -37h-121l-366 1257q-140 -647 -414 -1220q-16 -37 -66 -37h-116z" />
<glyph unicode="X" horiz-adv-x="1392" d="M111 27q0 9 6 24q173 399 491 688l-473 623q54 78 96 78q24 0 41 -23l443 -583q275 266 413 600h99q41 0 41 -31q0 -11 -6 -23q-149 -350 -469 -653l503 -659q-54 -78 -96 -78q-24 0 -41 22l-473 621q-280 -259 -436 -633h-98q-41 0 -41 27z" />
<glyph unicode="Y" horiz-adv-x="1343" d="M82 1378q62 62 106 62q25 0 37 -21l443 -796q298 380 454 811h90q48 0 48 -29q0 -10 -7 -31q-182 -476 -522 -889v-485h-90q-28 0 -38.5 8.5t-10.5 30.5v440z" />
<glyph unicode="Z" horiz-adv-x="1241" d="M127 98l805 1213h-739q-35 0 -35 41q0 32 12 82h860q36 0 53 -25q18 -29 25 -74l-805 -1214h780q22 0 31.5 -11.5t9.5 -39.5v-70h-919q-36 0 -53 25q-19 30 -25 73z" />
<glyph unicode="[" horiz-adv-x="854" d="M276 96v1440h486q33 0 33 -41q0 -34 -11 -76h-372v-1315q0 -144 38 -199t125 -55h173q22 0 31 -11t9 -38v-67h-223q-153 0 -221 84t-68 278z" />
<glyph unicode="\" horiz-adv-x="968" d="M-10 1516q0 26 41 26h86l854 -1720q6 -12 6 -21q0 -26 -41 -26h-86l-854 1720q-6 12 -6 21z" />
<glyph unicode="]" horiz-adv-x="854" d="M57 1495q0 41 33 41h436q26 0 37.5 -9.5t11.5 -31.5v-1399q0 -195 -67 -278.5t-221 -83.5h-224v67q0 27 9.5 38t31.5 11h172q91 0 127.5 54t36.5 200v1315h-372q-11 42 -11 76z" />
<glyph unicode="^" horiz-adv-x="1269" d="M174 803q0 13 10 28l375 603h96q25 0 41 -10.5t35 -39.5l365 -585l-66 -41q-17 -10 -31 -10q-19 0 -36 28l-334 535l-350 -563q-50 3 -84 24q-21 14 -21 31z" />
<glyph unicode="_" horiz-adv-x="1024" d="M0 -289q0 26 8 62h975q23 0 32 -11t9 -38v-54h-991q-33 0 -33 41z" />
<glyph unicode="`" horiz-adv-x="845" d="M240 1405q15 35 43 63q15 15 34 15q16 0 35 -19l256 -245l-43 -45q-13 -13 -24 -13q-13 0 -29 13z" />
<glyph unicode="a" horiz-adv-x="1218" d="M115 319q0 166 116.5 260.5t311.5 94.5q183 0 334 -74v113q0 143 -90.5 214.5t-251.5 71.5q-182 0 -308 -69q-20 23 -20 61q0 19 27.5 41t73.5 41t114.5 32t140.5 13q207 0 327 -106t120 -307v-494q0 -62 19.5 -88.5t57.5 -26.5h37q9 -31 9 -49q0 -23 -28.5 -42 t-70.5 -19q-64 0 -106.5 49t-48.5 137q-60 -92 -160.5 -144.5t-229.5 -52.5q-169 0 -271.5 95.5t-102.5 248.5zM250 324q0 -108 74.5 -170t183.5 -62q111 0 208.5 56.5t160.5 170.5v175q-63 28 -152 44.5t-170 16.5q-144 0 -224.5 -62t-80.5 -169z" />
<glyph unicode="b" horiz-adv-x="1302" d="M182 473v1018q41 14 92 14q41 0 41 -32v-553q76 93 183 145.5t229 52.5q198 0 328.5 -143t130.5 -385q0 -168 -69.5 -309t-194.5 -223.5t-277 -82.5q-214 0 -338.5 135t-124.5 363zM315 473q0 -185 94.5 -282t237.5 -97q167 0 285.5 143t118.5 351q0 199 -98.5 306 t-252.5 107q-104 0 -209 -59.5t-176 -161.5v-307z" />
<glyph unicode="c" horiz-adv-x="1128" d="M115 582q0 163 70 286.5t186 186.5t260 63q141 0 248.5 -63.5t156.5 -159.5q8 -16 8 -31q0 -24 -24 -39q-36 -23 -92 -30q-36 94 -111.5 149t-189.5 55q-161 0 -268 -113t-107 -302q0 -118 41.5 -214.5t109.5 -155.5t150.5 -90.5t169.5 -31.5q153 0 270 66q21 -31 21 -62 q0 -40 -94 -80.5t-220 -40.5q-112 0 -216 41t-187 116.5t-132.5 192.5t-49.5 257z" />
<glyph unicode="d" horiz-adv-x="1331" d="M115 502q0 172 70 313t194 222t276 81q202 0 330 -119v496h86q26 0 37.5 -9.5t11.5 -31.5v-1243q0 -62 19.5 -88.5t58.5 -26.5h37q8 -28 8 -49q0 -23 -28 -42t-70 -19q-66 0 -112.5 57.5t-47.5 159.5q-58 -102 -164 -165t-241 -63q-204 0 -334.5 142t-130.5 385zM252 504 q0 -193 96.5 -302.5t255.5 -109.5q117 0 219 79.5t162 229.5v465q-133 133 -315 133q-180 0 -299 -142t-119 -353z" />
<glyph unicode="e" horiz-adv-x="1175" d="M117 553q0 127 42.5 234.5t114.5 179t167 111.5t200 40q190 0 310 -113.5t120 -289.5q0 -77 -27 -150q-19 -44 -44.5 -60t-75.5 -16h-670q17 -184 135 -289.5t283 -105.5q157 0 274 66q21 -28 21 -62q0 -40 -92.5 -81.5t-221.5 -41.5q-152 0 -274.5 72.5t-192 205 t-69.5 300.5zM254 606h664q20 48 20 105q0 130 -83.5 209t-221.5 79q-149 0 -258 -108t-121 -285z" />
<glyph unicode="f" horiz-adv-x="866" d="M68 1016q0 40 10 78h219v73q0 169 85 261t234 92q92 0 165 -30.5t73 -57.5q0 -32 -20 -64q-74 33 -191 33q-211 0 -211 -223v-84h348q22 0 31.5 -12t9.5 -40v-65h-389v-977h-86q-28 0 -38.5 8.5t-10.5 30.5v938h-195q-34 0 -34 39z" />
<glyph unicode="g" horiz-adv-x="1306" d="M115 502q0 172 70 313t194 222t276 81q201 0 330 -117v93h86q26 0 37.5 -9.5t11.5 -31.5v-1028q0 -108 -40.5 -204.5t-115 -169.5t-189.5 -116t-255 -43q-162 0 -263 75t-101 197q0 174 184 275q-105 63 -165 182t-60 281zM252 504q0 -193 96.5 -302.5t255.5 -109.5 q117 0 219 79.5t162 229.5v465q-133 133 -315 133q-180 0 -299 -142t-119 -353zM291 -225q0 -73 62.5 -119.5t166.5 -46.5q205 0 335 114.5t130 294.5v185q-58 -102 -164 -165t-241 -63q-65 0 -144 21q-145 -93 -145 -221z" />
<glyph unicode="h" horiz-adv-x="1312" d="M184 39v1452q54 14 92 14q43 0 43 -35v-501q183 149 396 149q189 0 288 -121.5t99 -337.5v-448q0 -62 19.5 -88.5t58.5 -26.5h37q8 -28 8 -49q0 -24 -29.5 -42.5t-77.5 -18.5q-69 0 -110 53t-41 158v465q0 337 -281 337q-95 0 -193 -39t-174 -112v-848h-86 q-28 0 -38.5 8.5t-10.5 30.5z" />
<glyph unicode="i" horiz-adv-x="538" d="M164 1423q0 38 24 62t60 24t62 -26t26 -68q0 -39 -23.5 -62.5t-60.5 -23.5q-35 0 -61.5 26.5t-26.5 67.5zM184 197v893q54 14 92 14q43 0 43 -35v-858q0 -62 19.5 -88.5t58.5 -26.5h37q8 -28 8 -49q0 -24 -29 -42.5t-77 -18.5q-69 0 -110.5 53t-41.5 158z" />
<glyph unicode="j" horiz-adv-x="518" d="M14 -362q181 164 181 380v1072q54 14 92 14q43 0 43 -35v-1053q0 -180 -97 -309q-46 -60 -91.5 -91.5t-73.5 -31.5q-15 0 -32 17.5t-22 36.5zM174 1423q0 38 24 62t60 24t62 -26t26 -68q0 -39 -23.5 -62.5t-60.5 -23.5q-35 0 -61.5 26.5t-26.5 67.5z" />
<glyph unicode="k" horiz-adv-x="1177" d="M184 39v1452q54 14 92 14q43 0 43 -35v-931q172 104 339.5 251.5t287.5 313.5q53 -20 72.5 -37t19.5 -39q0 -16 -10 -33q-149 -203 -407 -395q83 -133 174.5 -249.5t165.5 -186.5q73 -68 110 -68h41q8 -28 8 -49q0 -23 -28 -42t-72 -19q-71 0 -146 75 q-85 84 -180.5 206.5t-175.5 260.5q-110 -75 -199 -125v-403h-86q-28 0 -38.5 8.5t-10.5 30.5z" />
<glyph unicode="l" horiz-adv-x="614" d="M186 266v1225q41 14 93 14q22 0 31 -7.5t9 -24.5v-1211q0 -162 134 -162q64 0 118 23q19 -25 19 -57q0 -26 -49.5 -53t-120.5 -27q-112 0 -173 70.5t-61 209.5z" />
<glyph unicode="m" horiz-adv-x="1880" d="M184 39v1051q54 14 92 14q43 0 43 -35v-111q145 160 338 160q102 0 179 -45t116 -131q176 176 377 176q154 0 247 -97t93 -284v-526q0 -62 19.5 -88.5t58.5 -26.5h37q8 -28 8 -49q0 -24 -29 -42.5t-77 -18.5q-69 0 -110.5 53t-41.5 158v542q0 133 -60.5 196.5 t-168.5 63.5q-82 0 -166.5 -41.5t-153.5 -123.5q8 -62 8 -99v-735h-84q-28 0 -38.5 8.5t-10.5 30.5v698q0 133 -61 197.5t-168 64.5q-82 0 -163 -41.5t-149 -126.5v-831h-86q-28 0 -38.5 8.5t-10.5 30.5z" />
<glyph unicode="n" horiz-adv-x="1312" d="M184 39v1051q54 14 92 14q43 0 43 -35v-100q183 149 396 149q189 0 288 -121.5t99 -337.5v-448q0 -62 19.5 -88.5t58.5 -26.5h37q8 -28 8 -49q0 -24 -29.5 -42.5t-77.5 -18.5q-69 0 -110 53t-41 158v465q0 337 -281 337q-95 0 -193 -39t-174 -112v-848h-86 q-28 0 -38.5 8.5t-10.5 30.5z" />
<glyph unicode="o" horiz-adv-x="1286" d="M117 547q0 131 42 240.5t114 181t167.5 110.5t202.5 39t202.5 -39t167.5 -110.5t114 -181t42 -240.5t-42 -240.5t-114 -181t-167.5 -111t-202.5 -39.5t-202.5 39.5t-167.5 111t-114 181t-42 240.5zM252 559q0 -111 33 -201.5t89.5 -147t127.5 -86.5t151 -30 q75 0 142.5 28t121.5 81t85.5 138.5t31.5 193.5q0 111 -33 201t-89.5 146.5t-127.5 86.5t-151 30q-76 0 -143.5 -27.5t-121 -80.5t-85 -138.5t-31.5 -193.5z" />
<glyph unicode="p" horiz-adv-x="1306" d="M186 -395v1485q41 14 93 14q40 0 40 -33v-180q63 107 167 167t239 60q204 0 334.5 -142t130.5 -384q0 -172 -70.5 -313.5t-194.5 -222.5t-276 -81q-202 0 -330 119v-530h-83q-28 0 -39 9t-11 32zM319 227q133 -133 316 -133q179 0 298.5 142.5t119.5 353.5 q0 193 -96.5 302t-256.5 109q-117 0 -219 -79.5t-162 -229.5v-465z" />
<glyph unicode="q" horiz-adv-x="1306" d="M115 502q0 172 70 313t194 222t276 81q202 0 330 -119v95h86q26 0 37.5 -9.5t11.5 -31.5v-1489h-86q-27 0 -38 9.5t-11 31.5v598q-63 -107 -166.5 -167.5t-238.5 -60.5q-204 0 -334.5 142t-130.5 385zM252 504q0 -193 96.5 -302.5t255.5 -109.5q117 0 219 79.5t162 229.5 v465q-133 133 -315 133q-180 0 -299 -142t-119 -353z" />
<glyph unicode="r" horiz-adv-x="903" d="M184 39v1051q54 14 92 14q43 0 43 -35v-141q110 190 320 190q121 0 203 -49q37 -19 37 -47q0 -11 -11 -29q-26 -37 -63 -55q-79 61 -201 61q-96 0 -170.5 -64.5t-114.5 -191.5v-743h-86q-28 0 -38.5 8.5t-10.5 30.5z" />
<glyph unicode="s" horiz-adv-x="1019" d="M137 815q0 134 103 218.5t268 84.5q125 0 223 -48.5t148 -131.5q10 -17 10 -33q0 -22 -29 -39q-41 -21 -86 -28q-33 77 -105.5 119t-164.5 42q-101 0 -166.5 -52t-65.5 -136q0 -82 66 -132.5t223 -90.5q180 -46 261 -121t81 -195q0 -138 -102.5 -217.5t-290.5 -79.5 q-132 0 -236 42.5t-104 82.5q0 41 20 64q144 -72 306 -72q272 0 272 172q0 74 -57.5 123t-194.5 82q-195 45 -287 130t-92 216z" />
<glyph unicode="t" horiz-adv-x="919" d="M70 1016q0 40 10 78h199v309q41 14 92 14q41 0 41 -33v-290h368q23 0 32 -11t9 -39v-67h-409v-647q0 -120 57 -178t156 -58q109 0 182 37q20 -23 20 -61q0 -31 -65 -63t-158 -32q-150 0 -237.5 94.5t-87.5 262.5v645h-177q-32 0 -32 39z" />
<glyph unicode="u" horiz-adv-x="1253" d="M166 461v629q51 14 92 14q43 0 43 -35v-616q0 -163 93.5 -262t232.5 -99t232 98.5t93 262.5v641h84q27 0 38 -9.5t11 -31.5v-592q0 -222 -127.5 -354t-330.5 -132q-204 0 -332.5 132t-128.5 354z" />
<glyph unicode="v" horiz-adv-x="1200" d="M88 1063q59 43 105 43q14 0 22 -6.5t14 -22.5l363 -932q115 187 218.5 440t166.5 509h84q45 0 45 -30q0 -6 -2 -13q-67 -267 -177.5 -530.5t-248.5 -487.5q-18 -33 -60 -33h-112z" />
<glyph unicode="w" horiz-adv-x="1787" d="M98 1063q62 45 107 45q29 0 37 -33l286 -928q185 395 285 947h113q43 0 57 -43l289 -904q196 417 278 947h86q44 0 44 -34q0 -5 -1 -11q-82 -522 -317 -1014q-17 -35 -57 -35h-121l-281 915q-85 -442 -289 -882q-9 -19 -21.5 -26t-35.5 -7h-117z" />
<glyph unicode="x" horiz-adv-x="1144" d="M92 27q0 12 4 18q57 134 158 265t225 239l-364 477q50 74 88 74q9 0 17 -4t16 -12t13 -14.5t13.5 -18.5t11.5 -17l301 -395q220 210 322 455h94q37 0 37 -29q0 -12 -4 -18q-57 -134 -156 -266t-219 -240l293 -383q48 -62 102 -62h27q8 -28 8 -49q0 -25 -27.5 -43 t-72.5 -18q-41 0 -75.5 26t-88.5 97l-262 342q-226 -206 -328 -451h-94q-39 0 -39 27z" />
<glyph unicode="y" horiz-adv-x="1284" d="M180 434v656q41 14 94 14q41 0 41 -33v-639q0 -338 281 -338q95 0 193.5 39t173.5 111v850h86q27 0 38 -9.5t11 -31.5v-1035q0 -111 -35.5 -206t-102 -166.5t-171 -112.5t-234.5 -41q-162 0 -261 75t-99 197q0 161 163 263q-178 108 -178 407zM330 -225 q0 -73 62.5 -119.5t162.5 -46.5q195 0 301.5 106t106.5 289v125q-81 -72 -184.5 -113t-211.5 -41q-52 0 -106 13q-131 -88 -131 -213z" />
<glyph unicode="z" horiz-adv-x="1030" d="M115 96l633 881h-582q-35 0 -35 39q0 40 10 78h699q33 0 49 -23q22 -29 31 -74l-633 -880h610q22 0 30.5 -11.5t8.5 -39.5v-66h-741q-34 0 -50 23q-21 27 -30 73z" />
<glyph unicode="{" horiz-adv-x="827" d="M137 621v71q110 0 163.5 68t53.5 174v262q0 174 95.5 257t255.5 83h38q33 0 33 -41q0 -38 -10 -76h-86q-87 0 -139 -58.5t-52 -160.5v-254q0 -121 -41 -197t-129 -114q89 -39 129.5 -114.5t40.5 -196.5v-256q0 -101 53.5 -159.5t137.5 -58.5h59q23 0 32 -10.5t9 -38.5 v-67h-67q-164 0 -261.5 81.5t-97.5 258.5v262q0 101 -43.5 162t-126.5 73q-27 3 -37 13.5t-10 36.5z" />
<glyph unicode="|" horiz-adv-x="632" d="M254 -369v1932q34 12 80 12q43 0 43 -35v-1950h-74q-27 0 -38 9.5t-11 31.5z" />
<glyph unicode="}" horiz-adv-x="827" d="M45 -199q0 27 9.5 38t31.5 11h51q87 0 139 58t52 160v256q0 121 40.5 196.5t129.5 114.5q-88 38 -129 114t-41 197v254q0 101 -54.5 160t-136.5 59h-78q-10 38 -10 76q0 41 35 41h39q158 0 253 -83.5t95 -256.5v-262q0 -106 53.5 -174t163.5 -68v-71q0 -26 -10 -36.5 t-37 -13.5q-82 -12 -126 -74.5t-44 -160.5v-262q0 -91 -27 -158t-76.5 -106t-112.5 -57.5t-142 -18.5h-68v67z" />
<glyph unicode="~" horiz-adv-x="1349" d="M178 594q0 12 4 24q29 110 101.5 168t171.5 58q124 0 243 -96q64 -52 106.5 -72.5t84.5 -20.5q56 0 96.5 45.5t58.5 143.5l99 -21q17 -3 22.5 -13t1.5 -32q-24 -116 -98.5 -177.5t-175.5 -61.5q-125 0 -244 96q-63 52 -105.5 72t-84.5 20q-56 0 -97 -45t-59 -143 q-64 -3 -102 18q-23 14 -23 37z" />
<glyph unicode="&#xa1;" horiz-adv-x="573" d="M197 1028q0 41 24.5 65.5t63.5 24.5q37 0 64.5 -27t27.5 -71q0 -39 -24.5 -63.5t-63.5 -24.5q-38 0 -65 26.5t-27 69.5zM209 -68q0 357 24 803h64q24 0 32.5 -9t10.5 -32q22 -344 22 -762v-268q-54 -14 -104 -14q-26 0 -37.5 8t-11.5 27v247z" />
<glyph unicode="&#xa2;" horiz-adv-x="1128" d="M115 582q0 222 122.5 363t315.5 167v205q44 14 86 14q41 0 41 -35v-180q124 -12 217.5 -73t138.5 -148q8 -16 8 -31q0 -24 -24 -39q-36 -23 -92 -30q-36 94 -111.5 149t-189.5 55q-161 0 -268 -113t-107 -302q0 -118 41.5 -214.5t109.5 -155.5t150.5 -90.5t169.5 -31.5 q153 0 270 66q21 -31 21 -62q0 -40 -94 -80.5t-220 -40.5h-8v-204h-80q-26 0 -37.5 9.5t-11.5 31.5v180q-92 21 -172 70t-142.5 122t-98 176t-35.5 222z" />
<glyph unicode="&#xa3;" horiz-adv-x="1220" d="M115 657q0 32 8 64h135v274q0 217 115 340t299 123q144 0 250.5 -79.5t164.5 -213.5q11 -22 11 -41q0 -18 -25 -32q-47 -22 -98 -29q-40 138 -119 205t-186 67q-123 0 -198 -87t-75 -242v-285h461q22 0 31.5 -11t9.5 -38v-47h-502v-250q0 -170 -96 -254h786 q22 0 30.5 -11.5t8.5 -39.5v-70h-944q-22 0 -31.5 11t-9.5 38v62q61 53 89 109.5t28 148.5v256h-108q-35 0 -35 32z" />
<glyph unicode="&#xa4;" horiz-adv-x="1417" d="M152 1145q11 31 47 67q30 30 53 7l174 -179q131 93 283 93q151 0 278 -93l189 193q32 -14 67 -49q30 -30 6 -54l-174 -176q94 -121 94 -274q0 -158 -92 -274l189 -191q-11 -32 -47 -68q-30 -30 -54 -6l-176 176q-123 -90 -280 -90q-160 0 -279 92l-188 -192 q-34 15 -68 49q-30 30 -6 53l174 177q-94 118 -94 274q0 159 92 274zM377 692q0 -160 100.5 -256t243.5 -96q129 0 224 92.5t95 235.5q0 160 -100.5 256t-243.5 96q-129 0 -224 -92.5t-95 -235.5z" />
<glyph unicode="&#xa5;" horiz-adv-x="1341" d="M78 1376q58 64 100 64q27 0 47 -29l449 -643q129 134 252 313t200 353h88q50 0 50 -27q0 -17 -23 -64q-92 -183 -225.5 -369.5t-282.5 -332.5v-23h260q20 0 27.5 -9.5t7.5 -35.5v-41h-295v-90h260q20 0 27.5 -10t7.5 -35v-43h-295v-354h-90q-27 0 -38 8.5t-11 30.5v315 h-272q-27 0 -27 31q0 25 8 57h291v90h-272q-27 0 -27 31q0 27 8 55h291v21z" />
<glyph unicode="&#xa6;" horiz-adv-x="632" d="M254 -246v652q35 12 80 12q43 0 43 -35v-670h-74q-27 0 -38 9.5t-11 31.5zM254 786v654q34 12 80 12q43 0 43 -35v-669h-74q-28 0 -38.5 8t-10.5 30z" />
<glyph unicode="&#xa7;" horiz-adv-x="1032" d="M137 621q0 87 49.5 151.5t141.5 101.5q-191 101 -191 281q0 134 103 218.5t268 84.5q125 0 223 -48.5t148 -131.5q10 -17 10 -33q0 -22 -29 -39q-41 -21 -86 -28q-33 77 -105.5 119t-164.5 42q-101 0 -166.5 -52t-65.5 -136q0 -82 65.5 -131.5t223.5 -93.5 q179 -51 260.5 -126.5t81.5 -193.5q0 -85 -47.5 -150t-134.5 -104q94 -44 138 -107.5t44 -152.5q0 -138 -102.5 -217.5t-290.5 -79.5q-132 0 -236 42.5t-104 82.5q0 41 20 64q144 -72 306 -72q272 0 272 172q0 76 -58 124.5t-194 80.5q-200 45 -289.5 125.5t-89.5 206.5z M272 625q0 -88 75 -139.5t241 -86.5q88 26 134 81.5t46 117.5q0 88 -74 139.5t-241 87.5q-90 -28 -135.5 -82t-45.5 -118z" />
<glyph unicode="&#xa8;" horiz-adv-x="845" d="M164 1325q0 38 23 61t59 23t62 -25t26 -65q0 -39 -23 -62.5t-59 -23.5q-35 0 -61.5 25.5t-26.5 66.5zM514 1325q0 38 23 61t57 23q36 0 62 -25t26 -65q0 -39 -23 -62.5t-59 -23.5q-35 0 -60.5 25.5t-25.5 66.5z" />
<glyph unicode="&#xa9;" horiz-adv-x="1687" d="M102 717q0 202 99.5 372.5t270 269.5t372.5 99q151 0 288.5 -58.5t236.5 -157.5t157.5 -236.5t58.5 -288.5q0 -202 -99 -372.5t-269.5 -270t-372.5 -99.5t-372.5 99.5t-270 270t-99.5 372.5zM193 717q0 -134 51.5 -256t138.5 -210t207.5 -140t253.5 -52t253.5 52 t207.5 140t138.5 210t51.5 256q0 133 -51.5 255t-138.5 210t-207.5 140t-253.5 52t-253.5 -52t-207.5 -140t-138.5 -210t-51.5 -255zM496 741q0 166 99.5 268.5t254.5 102.5q94 0 166 -37.5t110 -101.5q11 -18 11 -31q0 -16 -19 -27q-27 -19 -71 -26q-55 129 -201 129 q-105 0 -171.5 -74t-66.5 -201q0 -148 90.5 -237.5t231.5 -89.5q104 0 174 39q14 -25 14 -49q0 -28 -68.5 -56t-154.5 -28q-164 0 -281.5 116.5t-117.5 302.5z" />
<glyph unicode="&#xaa;" horiz-adv-x="909" d="M92 883q0 114 84 183t219 69q136 0 240 -56v78q0 197 -232 197q-125 0 -225 -49q-14 21 -14 53q0 16 32.5 37t95.5 38t134 17q152 0 240 -77.5t88 -221.5v-340q0 -40 13 -57t42 -17h22q9 -27 9 -43t-27 -31.5t-61 -15.5q-51 0 -81 33t-30 96q-38 -61 -108.5 -99 t-155.5 -38q-124 0 -204.5 68.5t-80.5 175.5zM211 883q0 -71 53.5 -110.5t130.5 -39.5q158 0 240 152v110q-86 45 -215 45q-97 0 -153 -41t-56 -116z" />
<glyph unicode="&#xab;" horiz-adv-x="1198" d="M137 627v53l432 305q27 19 39 19q23 0 23 -41q0 -38 -10 -76l-361 -248l344 -240q25 -17 25 -49v-102l-465 330q-27 20 -27 49zM565 627v53l432 305q27 19 39 19q23 0 23 -41q0 -38 -10 -76l-361 -248l344 -240q25 -17 25 -49v-102l-465 330q-27 20 -27 49z" />
<glyph unicode="&#xac;" horiz-adv-x="1349" d="M184 846q0 41 11 78h907q23 0 32 -11t9 -39v-509h-86q-27 0 -38 9t-11 32v401h-791q-33 0 -33 39z" />
<glyph unicode="&#xad;" horiz-adv-x="944" d="M190 659q0 28 13 82h532q23 0 32 -11.5t9 -39.5v-72h-551q-35 0 -35 41z" />
<glyph unicode="&#xae;" horiz-adv-x="1687" d="M102 717q0 202 99.5 372.5t270 269.5t372.5 99q151 0 288.5 -58.5t236.5 -157.5t157.5 -236.5t58.5 -288.5q0 -202 -99 -372.5t-269.5 -270t-372.5 -99.5t-372.5 99.5t-270 270t-99.5 372.5zM193 717q0 -180 86.5 -331.5t236.5 -240t328 -88.5q133 0 253 52t207 140.5 t138 210.5t51 257q0 133 -51 254.5t-138 209.5t-207.5 140.5t-252.5 52.5q-133 0 -254 -52.5t-208 -140.5t-138 -209.5t-51 -254.5zM573 358v754h265q142 0 224.5 -72t82.5 -194q0 -92 -45 -157t-127 -93q61 -112 119 -160q30 -24 61 -24h18q7 -28 7 -41q0 -21 -21 -35 t-53 -14q-45 0 -84 36q-89 82 -154 217h-45q-57 0 -135 19v-260h-80q-33 0 -33 24zM686 684q66 -16 135 -16q87 0 149 47t62 131q0 83 -55 127.5t-154 44.5h-137v-334z" />
<glyph unicode="&#xaf;" horiz-adv-x="845" d="M152 1309q0 31 8 63h499q21 0 29 -9.5t8 -35.5v-57h-516q-28 0 -28 39z" />
<glyph unicode="&#xb0;" horiz-adv-x="815" d="M104 1161q0 127 86.5 212t217.5 85t217 -85t86 -212t-86 -212t-217 -85t-217.5 85t-86.5 212zM213 1167q0 -94 58.5 -152.5t142.5 -58.5q81 0 134.5 55t53.5 144q0 94 -58.5 152.5t-142.5 58.5q-81 0 -134.5 -55t-53.5 -144z" />
<glyph unicode="&#xb1;" horiz-adv-x="1349" d="M184 39q0 36 11 78h927q23 0 32 -11.5t9 -39.5v-66h-946q-33 0 -33 39zM184 811q0 41 11 78h411v422q43 16 92 16q43 0 43 -35v-403h381q23 0 32 -10.5t9 -38.5v-68h-422v-436h-86q-27 0 -38 8.5t-11 30.5v397h-389q-33 0 -33 39z" />
<glyph unicode="&#xb2;" horiz-adv-x="808" d="M102 1241q0 13 9 31q38 81 114 129.5t176 48.5q131 0 210 -79t79 -206q0 -135 -98.5 -259.5t-261.5 -225.5h332q19 0 25.5 -8.5t6.5 -30.5v-59h-510q-33 0 -47 22q-13 26 -16 64q201 106 327.5 236t126.5 259q0 90 -50.5 139.5t-125.5 49.5q-140 0 -196 -162 q-42 0 -80 20q-21 15 -21 31z" />
<glyph unicode="&#xb3;" horiz-adv-x="808" d="M92 670q0 31 17 55q113 -63 243 -63q106 0 166 42.5t60 110.5q0 84 -58.5 129t-179.5 66q-30 5 -41 24q-12 22 -16 47l233 254h-379q-28 0 -28 33q0 35 8 66h479q33 0 47 -23q13 -26 16 -63l-241 -263q272 -55 272 -266q0 -117 -91.5 -185.5t-238.5 -68.5 q-107 0 -187.5 36t-80.5 69z" />
<glyph unicode="&#xb4;" horiz-adv-x="845" d="M240 1219l256 245q19 19 34 19q20 0 35 -15q28 -28 43 -63l-272 -231q-16 -13 -29 -13q-11 0 -24 13z" />
<glyph unicode="&#xb5;" horiz-adv-x="1282" d="M184 -426v1516q54 14 92 14q43 0 43 -35v-823q76 -73 174 -112.5t193 -39.5q281 0 281 338v662h86q27 0 38 -9.5t11 -31.5v-619q0 -216 -99 -337.5t-288 -121.5q-107 0 -209 41t-187 113v-596h-86q-27 0 -38 9.5t-11 31.5z" />
<glyph unicode="&#xb6;" horiz-adv-x="1183" d="M117 1077q0 166 121 261.5t297 95.5h518q22 0 30.5 -10.5t8.5 -39.5v-43h-170v-1609h-54q-28 0 -38.5 7.5t-10.5 29.5v1572h-172v-1609h-55q-28 0 -38.5 7.5t-10.5 29.5v952q-119 0 -214 40t-153.5 122t-58.5 194z" />
<glyph unicode="&#xb7;" horiz-adv-x="673" d="M246 684q0 39 25.5 64.5t62.5 25.5q38 0 65 -27t27 -71q0 -41 -24.5 -65.5t-61.5 -24.5q-38 0 -66 27t-28 71z" />
<glyph unicode="&#xb8;" horiz-adv-x="845" d="M233 -412q0 31 27 31q10 0 44 -6t56 -6q61 0 95 24t34 68q0 107 -200 125q-25 9 -25 24q0 5 4 13l76 139h121l-66 -119q97 -14 151 -62.5t54 -121.5q0 -87 -62 -135.5t-169 -48.5q-79 0 -140 22v53z" />
<glyph unicode="&#xb9;" horiz-adv-x="808" d="M143 1243q0 14 19 25l258 166h59q22 0 30.5 -8t8.5 -27v-817h-76q-22 0 -30.5 7.5t-8.5 24.5v689l-202 -129q-29 22 -45 43q-13 17 -13 26z" />
<glyph unicode="&#xba;" horiz-adv-x="909" d="M74 1044q0 128 54.5 222t139.5 139t187 45t187 -45t139.5 -139t54.5 -222q0 -191 -111 -298t-270 -107t-270 107t-111 298zM193 1053q0 -143 75.5 -229.5t194.5 -86.5q108 0 181 79.5t73 219.5q0 143 -75.5 229.5t-195.5 86.5q-107 0 -180 -79.5t-73 -219.5z" />
<glyph unicode="&#xbb;" horiz-adv-x="1198" d="M137 963q0 41 25 41q14 0 39 -19l430 -305v-53q0 -30 -25 -49l-467 -330v102q0 31 27 49l344 240l-363 248q-10 57 -10 76zM565 963q0 41 25 41q14 0 39 -19l430 -305v-53q0 -30 -25 -49l-467 -330v102q0 31 27 49l344 240l-363 248q-10 57 -10 76z" />
<glyph unicode="&#xbc;" horiz-adv-x="1912" d="M143 1243q0 14 19 25l258 166h59q22 0 30.5 -8t8.5 -27v-817h-76q-22 0 -30.5 7.5t-8.5 24.5v689l-202 -129q-29 22 -45 43q-13 17 -13 26zM600 47l582 1387h59q54 0 39 -48l-582 -1386h-59q-57 0 -39 47zM1174 260q49 161 151 308.5t234 252.5q68 41 124 41 q26 0 37 -9.5t11 -31.5v-549h81q19 0 26 -8.5t7 -30.5v-59h-114v-174h-76q-21 0 -30 7.5t-9 25.5v141h-379q-33 0 -47 23q-13 26 -16 63zM1296 272h320v461q-98 -80 -187.5 -207t-132.5 -254z" />
<glyph unicode="&#xbd;" horiz-adv-x="1912" d="M143 1243q0 14 19 25l258 166h59q22 0 30.5 -8t8.5 -27v-817h-76q-22 0 -30.5 7.5t-8.5 24.5v689l-202 -129q-29 22 -45 43q-13 17 -13 26zM600 47l582 1387h59q54 0 39 -48l-582 -1386h-59q-57 0 -39 47zM1204 659q0 15 8 31q38 81 114.5 129.5t176.5 48.5 q131 0 210 -78.5t79 -205.5q0 -135 -98.5 -260t-261.5 -226h331q19 0 26 -8.5t7 -30.5v-59h-510q-33 0 -47 23q-13 26 -16 63q200 106 327 236.5t127 259.5q0 90 -50.5 139t-125.5 49q-140 0 -196 -162q-40 0 -80 21q-21 15 -21 30z" />
<glyph unicode="&#xbe;" horiz-adv-x="1912" d="M92 670q0 31 17 55q113 -63 243 -63q106 0 166 42.5t60 110.5q0 84 -58.5 129t-179.5 66q-30 5 -41 24q-12 22 -16 47l233 254h-379q-28 0 -28 33q0 35 8 66h479q33 0 47 -23q13 -26 16 -63l-241 -263q272 -55 272 -266q0 -117 -91.5 -185.5t-238.5 -68.5 q-107 0 -187.5 36t-80.5 69zM600 47l582 1387h59q54 0 39 -48l-582 -1386h-59q-57 0 -39 47zM1174 260q49 161 151 308.5t234 252.5q68 41 124 41q26 0 37 -9.5t11 -31.5v-549h81q19 0 26 -8.5t7 -30.5v-59h-114v-174h-76q-21 0 -30 7.5t-9 25.5v141h-379q-33 0 -47 23 q-13 26 -16 63zM1296 272h320v461q-98 -80 -187.5 -207t-132.5 -254z" />
<glyph unicode="&#xbf;" horiz-adv-x="1136" d="M139 27q0 119 54 211.5t176 191.5q94 76 124.5 124.5t30.5 115.5v65h90q27 0 38.5 -9.5t11.5 -31.5v-32q0 -89 -42.5 -160.5t-154.5 -159.5q-101 -81 -144.5 -152.5t-43.5 -162.5q0 -121 81 -195t205 -74q120 0 208.5 71.5t125.5 207.5q50 -3 96 -29q25 -14 25 -37 q0 -21 -8 -37q-61 -142 -173.5 -220.5t-275.5 -78.5q-187 0 -305.5 109.5t-118.5 282.5zM504 1028q0 41 24.5 65.5t63.5 24.5q37 0 64.5 -27t27.5 -71q0 -39 -24.5 -63.5t-63.5 -24.5q-37 0 -64.5 26.5t-27.5 69.5z" />
<glyph unicode="&#xc0;" horiz-adv-x="1359" d="M55 29q0 6 4 18l531 1370q59 27 121 27q27 0 40.5 -10t22.5 -35l541 -1399h-101q-27 0 -40 8t-19 27l-133 356h-686l-148 -391h-88q-45 0 -45 29zM379 512h598l-299 791zM457 1802q15 35 43 63q15 15 34 15q16 0 35 -19l256 -245l-43 -45q-13 -13 -24 -13q-13 0 -29 13z " />
<glyph unicode="&#xc1;" horiz-adv-x="1359" d="M55 29q0 6 4 18l531 1370q59 27 121 27q27 0 40.5 -10t22.5 -35l541 -1399h-101q-27 0 -40 8t-19 27l-133 356h-686l-148 -391h-88q-45 0 -45 29zM379 512h598l-299 791zM528 1618l256 246q18 18 35 18q21 0 35 -14q27 -27 43 -64l-272 -231q-15 -12 -29 -12 q-13 0 -25 12z" />
<glyph unicode="&#xc2;" horiz-adv-x="1359" d="M55 29q0 6 4 18l531 1370q59 27 121 27q27 0 40.5 -10t22.5 -35l541 -1399h-101q-27 0 -40 8t-19 27l-133 356h-686l-148 -391h-88q-45 0 -45 29zM379 512h598l-299 791zM383 1616q0 12 14 26l242 236h39q18 0 27.5 -4t23.5 -17l254 -246l-47 -51q-14 -14 -27 -14 q-16 0 -36 20l-199 197l-215 -215q-40 15 -60 35q-16 13 -16 33z" />
<glyph unicode="&#xc3;" horiz-adv-x="1359" d="M55 29q0 6 4 18l531 1370q59 27 121 27q27 0 40.5 -10t22.5 -35l541 -1399h-101q-27 0 -40 8t-19 27l-133 356h-686l-148 -391h-88q-45 0 -45 29zM379 512h598l-299 791zM387 1659q0 12 10 57q41 115 158 115q69 0 143 -66q65 -57 99 -57q31 0 47 25t22 94l74 -17 q36 -8 27 -49q-12 -74 -55.5 -114.5t-110.5 -40.5q-73 0 -144 65q-61 58 -98 58q-31 0 -47.5 -25.5t-22.5 -91.5q-48 -3 -77 10q-25 9 -25 37z" />
<glyph unicode="&#xc4;" horiz-adv-x="1359" d="M55 29q0 6 4 18l531 1370q59 27 121 27q27 0 40.5 -10t22.5 -35l541 -1399h-101q-27 0 -40 8t-19 27l-133 356h-686l-148 -391h-88q-45 0 -45 29zM379 512h598l-299 791zM420 1722q0 38 23 61t59 23t62 -25t26 -65q0 -39 -23 -62.5t-59 -23.5q-35 0 -61.5 25.5 t-26.5 66.5zM770 1722q0 38 23 61t57 23q36 0 62 -25t26 -65q0 -39 -23 -62.5t-59 -23.5q-35 0 -60.5 25.5t-25.5 66.5z" />
<glyph unicode="&#xc5;" horiz-adv-x="1359" d="M55 29q0 6 4 18l531 1370q59 27 121 27q27 0 40.5 -10t22.5 -35l541 -1399h-101q-27 0 -40 8t-19 27l-133 356h-686l-148 -391h-88q-45 0 -45 29zM379 512h598l-299 791zM489 1718q0 78 54.5 130t136.5 52q80 0 135 -52t55 -130t-55 -130t-135 -52q-82 0 -136.5 52 t-54.5 130zM578 1724q0 -51 29.5 -80.5t76.5 -29.5q42 0 70 28t28 70q0 51 -30.5 80.5t-77.5 29.5q-41 0 -68.5 -27.5t-27.5 -70.5z" />
<glyph unicode="&#xc6;" horiz-adv-x="1802" d="M38.5 12q-10.5 12 0.5 35l694 1354q68 33 154 33h747q33 0 33 -41q0 -40 -10 -82h-688v-543h549q21 0 29.5 -11t8.5 -38v-72h-587v-305q0 -126 34 -173.5t123 -47.5h519q21 0 29.5 -11.5t8.5 -39.5v-70h-573q-148 0 -213.5 77.5t-65.5 250.5v63h-464l-197 -391h-92 q-29 0 -39.5 12zM426 512h405v801z" />
<glyph unicode="&#xc7;" horiz-adv-x="1406" d="M127 762q0 130 34.5 243t94.5 195t140.5 141t174.5 88t195 29q189 0 329.5 -82.5t209.5 -218.5q8 -16 8 -31q0 -17 -25 -36q-46 -29 -96 -35q-59 134 -171 207t-261 73q-96 0 -184 -38t-157.5 -108t-111 -179.5t-41.5 -241.5q0 -154 50.5 -282t137.5 -212.5t202.5 -131 t246.5 -46.5q198 0 342 84q19 -28 19 -65q0 -45 -114.5 -92.5t-264.5 -47.5l-51 -94q97 -13 150.5 -61.5t53.5 -122.5q0 -87 -62 -135.5t-169 -48.5q-78 0 -139 22v53q0 31 26 31q10 0 45 -6t56 -6q61 0 95 24t34 68q0 107 -201 125q-25 9 -25 24q0 5 4 13l66 123 q-139 18 -256.5 81t-203 162t-133.5 237t-48 298z" />
<glyph unicode="&#xc8;" horiz-adv-x="1167" d="M203 328v1106h798q33 0 33 -41q0 -40 -10 -82h-682v-543h541q23 0 32 -11t9 -38v-72h-582v-305q0 -122 37.5 -171.5t118.5 -49.5h512q23 0 32 -11.5t9 -39.5v-70h-568q-143 0 -211.5 75t-68.5 253zM408 1802q15 35 43 63q15 15 34 15q16 0 35 -19l256 -245l-43 -45 q-13 -13 -24 -13q-13 0 -29 13z" />
<glyph unicode="&#xc9;" horiz-adv-x="1167" d="M203 328v1106h798q33 0 33 -41q0 -40 -10 -82h-682v-543h541q23 0 32 -11t9 -38v-72h-582v-305q0 -122 37.5 -171.5t118.5 -49.5h512q23 0 32 -11.5t9 -39.5v-70h-568q-143 0 -211.5 75t-68.5 253zM437 1616l256 245q19 19 34 19q20 0 35 -15q28 -28 43 -63l-272 -231 q-16 -13 -29 -13q-11 0 -24 13z" />
<glyph unicode="&#xca;" horiz-adv-x="1167" d="M203 328v1106h798q33 0 33 -41q0 -40 -10 -82h-682v-543h541q23 0 32 -11t9 -38v-72h-582v-305q0 -122 37.5 -171.5t118.5 -49.5h512q23 0 32 -11.5t9 -39.5v-70h-568q-143 0 -211.5 75t-68.5 253zM317 1616q0 11 15 26l241 236h39q30 0 52 -20l254 -246l-48 -51 q-15 -15 -26 -15q-16 0 -37 21l-199 196l-215 -215q-38 14 -59 35q-17 14 -17 33z" />
<glyph unicode="&#xcb;" horiz-adv-x="1167" d="M203 328v1106h798q33 0 33 -41q0 -40 -10 -82h-682v-543h541q23 0 32 -11t9 -38v-72h-582v-305q0 -122 37.5 -171.5t118.5 -49.5h512q23 0 32 -11.5t9 -39.5v-70h-568q-143 0 -211.5 75t-68.5 253zM350 1722q0 38 23 61t59 23t62 -25t26 -65q0 -39 -23 -62.5t-59 -23.5 q-35 0 -61.5 25.5t-26.5 66.5zM700 1722q0 38 23 61t57 23q36 0 62 -25t26 -65q0 -39 -23 -62.5t-59 -23.5q-35 0 -60.5 25.5t-25.5 66.5z" />
<glyph unicode="&#xcc;" horiz-adv-x="579" d="M29 1802q16 37 43 64q14 14 34 14q17 0 35 -18l256 -246l-43 -45q-12 -12 -24 -12q-14 0 -29 12zM219 39v1388q49 17 96 17q43 0 43 -35v-1409h-90q-28 0 -38.5 8.5t-10.5 30.5z" />
<glyph unicode="&#xcd;" horiz-adv-x="579" d="M185 1616l256 245q19 19 34 19q20 0 35 -15q28 -28 43 -63l-272 -231q-16 -13 -29 -13q-11 0 -24 13zM219 39v1388q49 17 96 17q43 0 43 -35v-1409h-90q-28 0 -38.5 8.5t-10.5 30.5z" />
<glyph unicode="&#xce;" horiz-adv-x="579" d="M-6 1616q0 12 14 26l242 236h39q18 0 27.5 -4t23.5 -17l254 -246l-47 -51q-14 -14 -27 -14q-16 0 -36 20l-199 197l-215 -215q-40 15 -60 35q-16 13 -16 33zM219 39v1388q49 17 96 17q43 0 43 -35v-1409h-90q-28 0 -38.5 8.5t-10.5 30.5z" />
<glyph unicode="&#xcf;" horiz-adv-x="579" d="M31 1722q0 38 23 61t59 23t62 -25t26 -65q0 -39 -23 -62.5t-59 -23.5q-35 0 -61.5 25.5t-26.5 66.5zM219 39v1388q49 17 96 17q43 0 43 -35v-1409h-90q-28 0 -38.5 8.5t-10.5 30.5zM381 1722q0 38 23 61t57 23q36 0 62 -25t26 -65q0 -39 -23 -62.5t-59 -23.5 q-35 0 -60.5 25.5t-25.5 66.5z" />
<glyph unicode="&#xd0;" horiz-adv-x="1480" d="M61 700q0 28 9 64h135v670h459q148 0 274.5 -50t218 -141.5t143.5 -227t52 -298.5t-52 -298.5t-143.5 -227t-218 -141.5t-274.5 -50h-181q-142 0 -210 75.5t-68 254.5v338h-109q-35 0 -35 32zM344 344q0 -128 34 -175.5t122 -47.5h155q114 0 213.5 38.5t176 111.5 t121 188t44.5 258t-44.5 258t-121 188t-176 111.5t-213.5 38.5h-311v-549h420q22 0 30.5 -10.5t8.5 -38.5v-47h-459v-324z" />
<glyph unicode="&#xd1;" horiz-adv-x="1470" d="M209 41v1358q26 20 56.5 32.5t51.5 12.5q30 0 48 -27l757 -1194v1211h90q28 0 39 -9t11 -32v-1358q-26 -20 -57 -32.5t-52 -12.5q-27 0 -47 26l-758 1194v-1210h-90q-28 0 -38.5 9t-10.5 32zM444 1659q0 7 11 57q41 115 157 115q70 0 144 -66q65 -57 98 -57q31 0 47.5 25 t22.5 94l73 -17q36 -8 27 -49q-12 -74 -55.5 -114.5t-110.5 -40.5q-72 0 -143 65q-61 58 -99 58q-31 0 -47 -25.5t-22 -91.5q-48 -3 -78 10q-25 9 -25 37z" />
<glyph unicode="&#xd2;" d="M127 717q0 144 34.5 265.5t96 208.5t145 147.5t182 90t206.5 29.5q135 0 253.5 -47.5t210 -137.5t144.5 -233.5t53 -322.5t-53 -322.5t-144.5 -234t-210 -138t-253.5 -47.5q-136 0 -255 47.5t-211 138t-145 234t-53 322.5zM270 733q0 -155 42.5 -277.5t116 -199.5 t169.5 -117.5t207 -40.5q100 0 189 37t160 108.5t113 189.5t42 267q0 155 -42 277.5t-115.5 199.5t-170 117.5t-207.5 40.5q-100 0 -189 -37t-160 -108.5t-113 -189.5t-42 -267zM568 1802q15 35 43 63q15 15 34 15q16 0 35 -19l256 -245l-43 -45q-13 -13 -24 -13 q-13 0 -29 13z" />
<glyph unicode="&#xd3;" d="M127 717q0 144 34.5 265.5t96 208.5t145 147.5t182 90t206.5 29.5q135 0 253.5 -47.5t210 -137.5t144.5 -233.5t53 -322.5t-53 -322.5t-144.5 -234t-210 -138t-253.5 -47.5q-136 0 -255 47.5t-211 138t-145 234t-53 322.5zM270 733q0 -155 42.5 -277.5t116 -199.5 t169.5 -117.5t207 -40.5q100 0 189 37t160 108.5t113 189.5t42 267q0 155 -42 277.5t-115.5 199.5t-170 117.5t-207.5 40.5q-100 0 -189 -37t-160 -108.5t-113 -189.5t-42 -267zM627 1616l256 245q19 19 34 19q20 0 35 -15q28 -28 43 -63l-272 -231q-16 -13 -29 -13 q-11 0 -24 13z" />
<glyph unicode="&#xd4;" d="M127 717q0 144 34.5 265.5t96 208.5t145 147.5t182 90t206.5 29.5q135 0 253.5 -47.5t210 -137.5t144.5 -233.5t53 -322.5t-53 -322.5t-144.5 -234t-210 -138t-253.5 -47.5q-136 0 -255 47.5t-211 138t-145 234t-53 322.5zM270 733q0 -155 42.5 -277.5t116 -199.5 t169.5 -117.5t207 -40.5q100 0 189 37t160 108.5t113 189.5t42 267q0 155 -42 277.5t-115.5 199.5t-170 117.5t-207.5 40.5q-100 0 -189 -37t-160 -108.5t-113 -189.5t-42 -267zM493 1616q0 12 14 26l242 236h39q18 0 27.5 -4t23.5 -17l254 -246l-47 -51q-14 -14 -27 -14 q-16 0 -36 20l-199 197l-215 -215q-40 15 -60 35q-16 13 -16 33z" />
<glyph unicode="&#xd5;" d="M127 717q0 144 34.5 265.5t96 208.5t145 147.5t182 90t206.5 29.5q135 0 253.5 -47.5t210 -137.5t144.5 -233.5t53 -322.5t-53 -322.5t-144.5 -234t-210 -138t-253.5 -47.5q-136 0 -255 47.5t-211 138t-145 234t-53 322.5zM270 733q0 -155 42.5 -277.5t116 -199.5 t169.5 -117.5t207 -40.5q100 0 189 37t160 108.5t113 189.5t42 267q0 155 -42 277.5t-115.5 199.5t-170 117.5t-207.5 40.5q-100 0 -189 -37t-160 -108.5t-113 -189.5t-42 -267zM498 1659q0 12 10 57q41 115 158 115q69 0 143 -66q65 -57 99 -57q31 0 47 25t22 94l74 -17 q36 -8 27 -49q-12 -74 -55.5 -115t-110.5 -41q-72 0 -144 66q-60 57 -98 57q-31 0 -47.5 -25.5t-22.5 -91.5q-46 -3 -77 11q-25 9 -25 37z" />
<glyph unicode="&#xd6;" d="M127 717q0 144 34.5 265.5t96 208.5t145 147.5t182 90t206.5 29.5q135 0 253.5 -47.5t210 -137.5t144.5 -233.5t53 -322.5t-53 -322.5t-144.5 -234t-210 -138t-253.5 -47.5q-136 0 -255 47.5t-211 138t-145 234t-53 322.5zM270 733q0 -155 42.5 -277.5t116 -199.5 t169.5 -117.5t207 -40.5q100 0 189 37t160 108.5t113 189.5t42 267q0 155 -42 277.5t-115.5 199.5t-170 117.5t-207.5 40.5q-100 0 -189 -37t-160 -108.5t-113 -189.5t-42 -267zM528 1722q0 38 23 61t59 23t62 -25t26 -65q0 -39 -23 -62.5t-59 -23.5q-35 0 -61.5 25.5 t-26.5 66.5zM879 1722q0 38 22.5 61t56.5 23q37 0 63 -25t26 -65q0 -39 -23 -62.5t-59 -23.5q-35 0 -60.5 25.5t-25.5 66.5z" />
<glyph unicode="&#xd7;" horiz-adv-x="1349" d="M256 346l330 332l-330 336q19 34 47 69q11 14 27.5 15t31.5 -13l312 -319l311 319q24 24 49 5q32 -25 58 -76l-332 -336l332 -332l-54 -53q-36 -35 -65 -6l-299 303l-301 -305q-29 -29 -62 4z" />
<glyph unicode="&#xd8;" d="M98.5 15.5q-9.5 15.5 10.5 37.5l159 174q-141 194 -141 490q0 144 34.5 265.5t96 208.5t145 147.5t182 90t206.5 29.5q273 0 450 -174l137 150h74q28 0 34.5 -15t-13.5 -37l-162 -176q141 -194 141 -489q0 -179 -53 -322.5t-144.5 -234t-210 -138t-253.5 -47.5 q-274 0 -455 175l-137 -150h-60q-31 0 -40.5 15.5zM270 733q0 -235 99 -397l778 846q-144 153 -373 153q-100 0 -189 -37t-160 -108.5t-113 -189.5t-42 -267zM432 252q71 -76 167.5 -115t205.5 -39q100 0 189 37t160 108.5t113 189.5t42 267q0 236 -99 398z" />
<glyph unicode="&#xd9;" horiz-adv-x="1472" d="M197 598v829q49 17 96 17q43 0 43 -35v-821q0 -223 109 -357.5t290 -134.5q182 0 292 134.5t110 357.5v846h90q26 0 37.5 -9.5t11.5 -31.5v-795q0 -287 -146.5 -455t-394.5 -168t-393 168t-145 455zM514 1802q15 35 43 63q15 15 34 15q16 0 35 -19l256 -245l-43 -45 q-13 -13 -24 -13q-13 0 -29 13z" />
<glyph unicode="&#xda;" horiz-adv-x="1472" d="M197 598v829q49 17 96 17q43 0 43 -35v-821q0 -223 109 -357.5t290 -134.5q182 0 292 134.5t110 357.5v846h90q26 0 37.5 -9.5t11.5 -31.5v-795q0 -287 -146.5 -455t-394.5 -168t-393 168t-145 455zM576 1616l256 245q19 19 34 19q20 0 35 -15q28 -28 43 -63l-272 -231 q-16 -13 -29 -13q-11 0 -24 13z" />
<glyph unicode="&#xdb;" horiz-adv-x="1472" d="M197 598v829q49 17 96 17q43 0 43 -35v-821q0 -223 109 -357.5t290 -134.5q182 0 292 134.5t110 357.5v846h90q26 0 37.5 -9.5t11.5 -31.5v-795q0 -287 -146.5 -455t-394.5 -168t-393 168t-145 455zM438 1616q0 12 14 26l242 236h39q18 0 27.5 -4t23.5 -17l254 -246 l-47 -51q-14 -14 -27 -14q-16 0 -36 20l-199 197l-215 -215q-40 15 -60 35q-16 13 -16 33z" />
<glyph unicode="&#xdc;" horiz-adv-x="1472" d="M197 598v829q49 17 96 17q43 0 43 -35v-821q0 -223 109 -357.5t290 -134.5q182 0 292 134.5t110 357.5v846h90q26 0 37.5 -9.5t11.5 -31.5v-795q0 -287 -146.5 -455t-394.5 -168t-393 168t-145 455zM475 1722q0 38 23 61t59 23t62 -25t26 -65q0 -39 -23 -62.5t-59 -23.5 q-35 0 -61.5 25.5t-26.5 66.5zM825 1722q0 38 23 61t57 23q36 0 62 -25t26 -65q0 -39 -23 -62.5t-59 -23.5q-35 0 -60.5 25.5t-25.5 66.5z" />
<glyph unicode="&#xdd;" horiz-adv-x="1343" d="M82 1378q62 62 106 62q25 0 37 -21l443 -796q298 380 454 811h90q48 0 48 -29q0 -10 -7 -31q-182 -476 -522 -889v-485h-90q-28 0 -38.5 8.5t-10.5 30.5v440zM529 1616l256 245q19 19 34 19q20 0 35 -15q28 -28 43 -63l-272 -231q-16 -13 -29 -13q-11 0 -24 13z" />
<glyph unicode="&#xde;" horiz-adv-x="1296" d="M207 39v1388q49 17 96 17q43 0 43 -35v-180h289q253 0 405 -138.5t152 -381.5q0 -122 -42.5 -220.5t-117 -161.5t-173 -96.5t-212.5 -33.5q-171 0 -301 43v-240h-90q-27 0 -38 8.5t-11 30.5zM346 352q115 -35 287 -35q189 0 304.5 104t115.5 292q0 191 -115.5 292 t-306.5 101h-285v-754z" />
<glyph unicode="&#xdf;" horiz-adv-x="1292" d="M186 41v934q0 229 118 356t321 127q187 0 304.5 -107.5t117.5 -263.5q0 -116 -67 -200t-185 -123q188 -42 298.5 -155t110.5 -269q0 -155 -118 -260t-320 -105q-122 0 -216.5 39.5t-94.5 81.5q0 39 18 66q113 -64 268 -64q144 0 234 72.5t90 185.5q0 129 -110 221 t-322 123q-17 46 -17 70q0 22 9.5 32t31.5 15q116 27 183 98.5t67 163.5q0 114 -78.5 185t-201.5 71q-135 0 -219 -92.5t-84 -257.5v-985h-88q-28 0 -39 9t-11 32z" />
<glyph unicode="&#xe0;" horiz-adv-x="1218" d="M115 319q0 166 116.5 260.5t311.5 94.5q183 0 334 -74v113q0 143 -90.5 214.5t-251.5 71.5q-182 0 -308 -69q-20 23 -20 61q0 19 27.5 41t73.5 41t114.5 32t140.5 13q207 0 327 -106t120 -307v-494q0 -62 19.5 -88.5t57.5 -26.5h37q9 -31 9 -49q0 -23 -28.5 -42 t-70.5 -19q-64 0 -106.5 49t-48.5 137q-60 -92 -160.5 -144.5t-229.5 -52.5q-169 0 -271.5 95.5t-102.5 248.5zM250 324q0 -108 74.5 -170t183.5 -62q111 0 208.5 56.5t160.5 170.5v175q-63 28 -152 44.5t-170 16.5q-144 0 -224.5 -62t-80.5 -169zM396 1446q15 35 43 63 q15 15 34 15q16 0 35 -19l256 -245l-43 -45q-13 -13 -24 -13q-13 0 -29 13z" />
<glyph unicode="&#xe1;" horiz-adv-x="1218" d="M115 319q0 166 116.5 260.5t311.5 94.5q183 0 334 -74v113q0 143 -90.5 214.5t-251.5 71.5q-182 0 -308 -69q-20 23 -20 61q0 19 27.5 41t73.5 41t114.5 32t140.5 13q207 0 327 -106t120 -307v-494q0 -62 19.5 -88.5t57.5 -26.5h37q9 -31 9 -49q0 -23 -28.5 -42 t-70.5 -19q-64 0 -106.5 49t-48.5 137q-60 -92 -160.5 -144.5t-229.5 -52.5q-169 0 -271.5 95.5t-102.5 248.5zM250 324q0 -108 74.5 -170t183.5 -62q111 0 208.5 56.5t160.5 170.5v175q-63 28 -152 44.5t-170 16.5q-144 0 -224.5 -62t-80.5 -169zM416 1260l256 245 q19 19 34 19q20 0 35 -15q28 -28 43 -63l-272 -231q-16 -13 -29 -13q-11 0 -24 13z" />
<glyph unicode="&#xe2;" horiz-adv-x="1218" d="M115 319q0 166 116.5 260.5t311.5 94.5q183 0 334 -74v113q0 143 -90.5 214.5t-251.5 71.5q-182 0 -308 -69q-20 23 -20 61q0 19 27.5 41t73.5 41t114.5 32t140.5 13q207 0 327 -106t120 -307v-494q0 -62 19.5 -88.5t57.5 -26.5h37q9 -31 9 -49q0 -23 -28.5 -42 t-70.5 -19q-64 0 -106.5 49t-48.5 137q-60 -92 -160.5 -144.5t-229.5 -52.5q-169 0 -271.5 95.5t-102.5 248.5zM250 324q0 -108 74.5 -170t183.5 -62q111 0 208.5 56.5t160.5 170.5v175q-63 28 -152 44.5t-170 16.5q-144 0 -224.5 -62t-80.5 -169zM305 1260q0 12 14 26 l242 236h39q18 0 27.5 -4t23.5 -17l254 -246l-47 -51q-14 -14 -27 -14q-16 0 -36 20l-199 197l-215 -215q-40 15 -60 35q-16 13 -16 33z" />
<glyph unicode="&#xe3;" horiz-adv-x="1218" d="M115 319q0 166 116.5 260.5t311.5 94.5q183 0 334 -74v113q0 143 -90.5 214.5t-251.5 71.5q-182 0 -308 -69q-20 23 -20 61q0 19 27.5 41t73.5 41t114.5 32t140.5 13q207 0 327 -106t120 -307v-494q0 -62 19.5 -88.5t57.5 -26.5h37q9 -31 9 -49q0 -23 -28.5 -42 t-70.5 -19q-64 0 -106.5 49t-48.5 137q-60 -92 -160.5 -144.5t-229.5 -52.5q-169 0 -271.5 95.5t-102.5 248.5zM250 324q0 -108 74.5 -170t183.5 -62q111 0 208.5 56.5t160.5 170.5v175q-63 28 -152 44.5t-170 16.5q-144 0 -224.5 -62t-80.5 -169zM305 1300q0 13 10 58 q41 115 158 115q69 0 143 -66q65 -57 99 -57q31 0 47 24.5t22 93.5l74 -16q36 -8 27 -49q-12 -74 -55.5 -115t-110.5 -41q-72 0 -144 66q-60 57 -98 57q-31 0 -47 -25.5t-22 -91.5q-46 -3 -78 11q-25 9 -25 36z" />
<glyph unicode="&#xe4;" horiz-adv-x="1218" d="M115 319q0 166 116.5 260.5t311.5 94.5q183 0 334 -74v113q0 143 -90.5 214.5t-251.5 71.5q-182 0 -308 -69q-20 23 -20 61q0 19 27.5 41t73.5 41t114.5 32t140.5 13q207 0 327 -106t120 -307v-494q0 -62 19.5 -88.5t57.5 -26.5h37q9 -31 9 -49q0 -23 -28.5 -42 t-70.5 -19q-64 0 -106.5 49t-48.5 137q-60 -92 -160.5 -144.5t-229.5 -52.5q-169 0 -271.5 95.5t-102.5 248.5zM250 324q0 -108 74.5 -170t183.5 -62q111 0 208.5 56.5t160.5 170.5v175q-63 28 -152 44.5t-170 16.5q-144 0 -224.5 -62t-80.5 -169zM338 1366q0 38 23 61 t59 23t62 -25t26 -65q0 -39 -23 -62.5t-59 -23.5q-35 0 -61.5 25.5t-26.5 66.5zM688 1366q0 38 23 61t57 23q36 0 62 -25t26 -65q0 -39 -23 -62.5t-59 -23.5q-35 0 -60.5 25.5t-25.5 66.5z" />
<glyph unicode="&#xe5;" horiz-adv-x="1218" d="M115 319q0 166 116.5 260.5t311.5 94.5q183 0 334 -74v113q0 143 -90.5 214.5t-251.5 71.5q-182 0 -308 -69q-20 23 -20 61q0 19 27.5 41t73.5 41t114.5 32t140.5 13q207 0 327 -106t120 -307v-494q0 -62 19.5 -88.5t57.5 -26.5h37q9 -31 9 -49q0 -23 -28.5 -42 t-70.5 -19q-64 0 -106.5 49t-48.5 137q-60 -92 -160.5 -144.5t-229.5 -52.5q-169 0 -271.5 95.5t-102.5 248.5zM250 324q0 -108 74.5 -170t183.5 -62q111 0 208.5 56.5t160.5 170.5v175q-63 28 -152 44.5t-170 16.5q-144 0 -224.5 -62t-80.5 -169zM395 1362q0 78 54.5 130 t136.5 52q80 0 135 -52t55 -130t-55 -130t-135 -52q-82 0 -136.5 52t-54.5 130zM484 1368q0 -51 29.5 -80.5t76.5 -29.5q42 0 70 28t28 70q0 51 -30.5 80.5t-77.5 29.5q-41 0 -68.5 -27.5t-27.5 -70.5z" />
<glyph unicode="&#xe6;" horiz-adv-x="1933" d="M115 317q0 166 116.5 261.5t311.5 95.5q181 0 334 -78v117q0 143 -90.5 214.5t-251.5 71.5q-182 0 -308 -69q-20 23 -20 61q0 19 27.5 41t73.5 41t114.5 32t140.5 13q152 0 260.5 -63t149.5 -181q63 113 178 178.5t248 65.5q190 0 310 -113.5t120 -291.5 q0 -224 -148 -224h-669q17 -184 135 -289.5t283 -105.5q157 0 274 66q20 -27 20 -62q0 -40 -92 -81.5t-221 -41.5q-145 0 -263.5 67t-189.5 187q-76 -122 -192 -188t-260 -66q-182 0 -286.5 95.5t-104.5 246.5zM250 319q0 -105 74.5 -166t183.5 -61q114 0 217.5 62.5 t167.5 191.5q-13 57 -16 141q-62 32 -151 50t-171 18q-143 0 -224 -64.5t-81 -171.5zM1012 606h663q21 44 21 103q0 131 -83.5 210.5t-219.5 79.5q-150 0 -259 -108t-122 -285z" />
<glyph unicode="&#xe7;" horiz-adv-x="1128" d="M115 582q0 163 70 286.5t186 186.5t260 63q141 0 248.5 -63.5t156.5 -159.5q8 -16 8 -31q0 -24 -24 -39q-36 -23 -92 -30q-36 94 -111.5 149t-189.5 55q-161 0 -268 -113t-107 -302q0 -118 41.5 -214.5t109.5 -155.5t150.5 -90.5t169.5 -31.5q153 0 270 66q21 -31 21 -62 q0 -40 -89.5 -79t-211.5 -42l-51 -94q97 -13 150.5 -61.5t53.5 -122.5q0 -87 -62 -135.5t-169 -48.5q-78 0 -139 22v53q0 31 26 31q10 0 45 -6t56 -6q61 0 95 24t34 68q0 107 -201 125q-25 9 -25 24q0 5 4 13l68 125q-97 16 -183.5 63.5t-154 121.5t-106.5 180.5t-39 230.5z " />
<glyph unicode="&#xe8;" horiz-adv-x="1175" d="M117 553q0 127 42.5 234.5t114.5 179t167 111.5t200 40q190 0 310 -113.5t120 -289.5q0 -77 -27 -150q-19 -44 -44.5 -60t-75.5 -16h-670q17 -184 135 -289.5t283 -105.5q157 0 274 66q21 -28 21 -62q0 -40 -92.5 -81.5t-221.5 -41.5q-152 0 -274.5 72.5t-192 205 t-69.5 300.5zM254 606h664q20 48 20 105q0 130 -83.5 209t-221.5 79q-149 0 -258 -108t-121 -285zM414 1446q15 35 43 63q15 15 34 15q16 0 35 -19l256 -245l-43 -45q-13 -13 -24 -13q-13 0 -29 13z" />
<glyph unicode="&#xe9;" horiz-adv-x="1175" d="M117 553q0 127 42.5 234.5t114.5 179t167 111.5t200 40q190 0 310 -113.5t120 -289.5q0 -77 -27 -150q-19 -44 -44.5 -60t-75.5 -16h-670q17 -184 135 -289.5t283 -105.5q157 0 274 66q21 -28 21 -62q0 -40 -92.5 -81.5t-221.5 -41.5q-152 0 -274.5 72.5t-192 205 t-69.5 300.5zM254 606h664q20 48 20 105q0 130 -83.5 209t-221.5 79q-149 0 -258 -108t-121 -285zM422 1260l256 245q19 19 34 19q20 0 35 -15q28 -28 43 -63l-272 -231q-16 -13 -29 -13q-11 0 -24 13z" />
<glyph unicode="&#xea;" horiz-adv-x="1175" d="M117 553q0 127 42.5 234.5t114.5 179t167 111.5t200 40q190 0 310 -113.5t120 -289.5q0 -77 -27 -150q-19 -44 -44.5 -60t-75.5 -16h-670q17 -184 135 -289.5t283 -105.5q157 0 274 66q21 -28 21 -62q0 -40 -92.5 -81.5t-221.5 -41.5q-152 0 -274.5 72.5t-192 205 t-69.5 300.5zM254 606h664q20 48 20 105q0 130 -83.5 209t-221.5 79q-149 0 -258 -108t-121 -285zM322 1260q0 12 14 26l242 236h38q28 0 52 -21l254 -246l-48 -51q-14 -14 -26 -14q-17 0 -37 20l-199 197l-215 -215q-38 14 -59 35q-16 13 -16 33z" />
<glyph unicode="&#xeb;" horiz-adv-x="1175" d="M117 553q0 127 42.5 234.5t114.5 179t167 111.5t200 40q190 0 310 -113.5t120 -289.5q0 -77 -27 -150q-19 -44 -44.5 -60t-75.5 -16h-670q17 -184 135 -289.5t283 -105.5q157 0 274 66q21 -28 21 -62q0 -40 -92.5 -81.5t-221.5 -41.5q-152 0 -274.5 72.5t-192 205 t-69.5 300.5zM254 606h664q20 48 20 105q0 130 -83.5 209t-221.5 79q-149 0 -258 -108t-121 -285zM359 1366q0 38 23 61t59 23t62 -25t26 -65q0 -39 -23 -62.5t-59 -23.5q-35 0 -61.5 25.5t-26.5 66.5zM709 1366q0 38 23 61t57 23q36 0 62 -25t26 -65q0 -39 -23 -62.5 t-59 -23.5q-35 0 -60.5 25.5t-25.5 66.5z" />
<glyph unicode="&#xec;" horiz-adv-x="538" d="M7 1446q15 35 43 63q15 15 34 15q16 0 35 -19l256 -245l-43 -45q-13 -13 -24 -13q-13 0 -29 13zM184 197v893q54 14 92 14q43 0 43 -35v-858q0 -62 19.5 -88.5t58.5 -26.5h37q8 -28 8 -49q0 -24 -29 -42.5t-77 -18.5q-69 0 -110.5 53t-41.5 158z" />
<glyph unicode="&#xed;" horiz-adv-x="538" d="M121 1260l256 245q19 19 34 19q20 0 35 -15q28 -28 43 -63l-272 -231q-16 -13 -29 -13q-11 0 -24 13zM184 197v893q54 14 92 14q43 0 43 -35v-858q0 -62 19.5 -88.5t58.5 -26.5h37q8 -28 8 -49q0 -24 -29 -42.5t-77 -18.5q-69 0 -110.5 53t-41.5 158z" />
<glyph unicode="&#xee;" horiz-adv-x="538" d="M-41 1260q0 12 14 26l242 236h39q18 0 27.5 -4t23.5 -17l254 -246l-47 -51q-14 -14 -27 -14q-16 0 -36 20l-199 197l-215 -215q-40 15 -60 35q-16 13 -16 33zM184 197v893q54 14 92 14q43 0 43 -35v-858q0 -62 19.5 -88.5t58.5 -26.5h37q8 -28 8 -49q0 -24 -29 -42.5 t-77 -18.5q-69 0 -110.5 53t-41.5 158z" />
<glyph unicode="&#xef;" horiz-adv-x="538" d="M-6 1366q0 38 23 61t59 23t62 -25t26 -65q0 -39 -23 -62.5t-59 -23.5q-35 0 -61.5 25.5t-26.5 66.5zM184 197v893q54 14 92 14q43 0 43 -35v-858q0 -62 19.5 -88.5t58.5 -26.5h37q8 -28 8 -49q0 -24 -29 -42.5t-77 -18.5q-69 0 -110.5 53t-41.5 158zM344 1366q0 38 23 61 t57 23q36 0 62 -25t26 -65q0 -39 -23 -62.5t-59 -23.5q-35 0 -60.5 25.5t-25.5 66.5z" />
<glyph unicode="&#xf0;" horiz-adv-x="1224" d="M104 430q0 127 43.5 233t116 174.5t163.5 106t189 37.5q100 0 193.5 -33.5t159.5 -101.5q-8 223 -86 366l-201 -120q-29 -17 -45 8t-25 59l215 129q-105 113 -272 113q-145 0 -266 -62q-21 21 -21 60q0 40 96.5 80.5t210.5 40.5q229 0 365 -162l111 67q20 11 33 7t26 -27 l25 -39l-140 -86q113 -199 113 -557q0 -364 -143.5 -556t-401.5 -192q-199 0 -329 127t-130 328zM240 432q0 -149 90.5 -244.5t234.5 -95.5q188 0 297 153.5t109 450.5v21q-134 145 -340 145q-163 0 -277 -114.5t-114 -315.5z" />
<glyph unicode="&#xf1;" horiz-adv-x="1312" d="M184 39v1051q54 14 92 14q43 0 43 -35v-100q183 149 396 149q189 0 288 -121.5t99 -337.5v-448q0 -62 19.5 -88.5t58.5 -26.5h37q8 -28 8 -49q0 -24 -29.5 -42.5t-77.5 -18.5q-69 0 -110 53t-41 158v465q0 337 -281 337q-95 0 -193 -39t-174 -112v-848h-86 q-28 0 -38.5 8.5t-10.5 30.5zM350 1300q0 13 10 58q41 115 158 115q70 0 144 -66q65 -57 98 -57q31 0 47 24.5t22 93.5l74 -16q36 -8 27 -49q-12 -74 -55.5 -115t-110.5 -41q-71 0 -143 66q-60 57 -99 57q-31 0 -47 -25.5t-22 -91.5q-46 -3 -78 11q-25 9 -25 36z" />
<glyph unicode="&#xf2;" horiz-adv-x="1286" d="M117 547q0 131 42 240.5t114 181t167.5 110.5t202.5 39t202.5 -39t167.5 -110.5t114 -181t42 -240.5t-42 -240.5t-114 -181t-167.5 -111t-202.5 -39.5t-202.5 39.5t-167.5 111t-114 181t-42 240.5zM252 559q0 -111 33 -201.5t89.5 -147t127.5 -86.5t151 -30 q75 0 142.5 28t121.5 81t85.5 138.5t31.5 193.5q0 111 -33 201t-89.5 146.5t-127.5 86.5t-151 30q-76 0 -143.5 -27.5t-121 -80.5t-85 -138.5t-31.5 -193.5zM418 1446q15 35 43 63q15 15 34 15q16 0 35 -19l256 -245l-43 -45q-13 -13 -24 -13q-13 0 -29 13z" />
<glyph unicode="&#xf3;" horiz-adv-x="1286" d="M117 547q0 131 42 240.5t114 181t167.5 110.5t202.5 39t202.5 -39t167.5 -110.5t114 -181t42 -240.5t-42 -240.5t-114 -181t-167.5 -111t-202.5 -39.5t-202.5 39.5t-167.5 111t-114 181t-42 240.5zM252 559q0 -111 33 -201.5t89.5 -147t127.5 -86.5t151 -30 q75 0 142.5 28t121.5 81t85.5 138.5t31.5 193.5q0 111 -33 201t-89.5 146.5t-127.5 86.5t-151 30q-76 0 -143.5 -27.5t-121 -80.5t-85 -138.5t-31.5 -193.5zM480 1260l256 245q19 19 34 19q20 0 35 -15q28 -28 43 -63l-272 -231q-16 -13 -29 -13q-11 0 -24 13z" />
<glyph unicode="&#xf4;" horiz-adv-x="1286" d="M117 547q0 131 42 240.5t114 181t167.5 110.5t202.5 39t202.5 -39t167.5 -110.5t114 -181t42 -240.5t-42 -240.5t-114 -181t-167.5 -111t-202.5 -39.5t-202.5 39.5t-167.5 111t-114 181t-42 240.5zM252 559q0 -111 33 -201.5t89.5 -147t127.5 -86.5t151 -30 q75 0 142.5 28t121.5 81t85.5 138.5t31.5 193.5q0 111 -33 201t-89.5 146.5t-127.5 86.5t-151 30q-76 0 -143.5 -27.5t-121 -80.5t-85 -138.5t-31.5 -193.5zM350 1260q0 12 14 26l242 236h39q18 0 27.5 -4t23.5 -17l254 -246l-47 -51q-14 -14 -27 -14q-16 0 -36 20l-199 197 l-215 -215q-40 15 -60 35q-16 13 -16 33z" />
<glyph unicode="&#xf5;" horiz-adv-x="1286" d="M117 547q0 131 42 240.5t114 181t167.5 110.5t202.5 39t202.5 -39t167.5 -110.5t114 -181t42 -240.5t-42 -240.5t-114 -181t-167.5 -111t-202.5 -39.5t-202.5 39.5t-167.5 111t-114 181t-42 240.5zM252 559q0 -111 33 -201.5t89.5 -147t127.5 -86.5t151 -30 q75 0 142.5 28t121.5 81t85.5 138.5t31.5 193.5q0 111 -33 201t-89.5 146.5t-127.5 86.5t-151 30q-76 0 -143.5 -27.5t-121 -80.5t-85 -138.5t-31.5 -193.5zM350 1301q0 12 10 57q41 115 158 115q69 0 143 -66q65 -57 99 -57q31 0 47 25t22 94l74 -17q36 -8 27 -49 q-12 -74 -55.5 -115t-110.5 -41q-72 0 -144 66q-60 57 -98 57q-31 0 -47.5 -25.5t-22.5 -91.5q-46 -3 -77 11q-25 9 -25 37z" />
<glyph unicode="&#xf6;" horiz-adv-x="1286" d="M117 547q0 131 42 240.5t114 181t167.5 110.5t202.5 39t202.5 -39t167.5 -110.5t114 -181t42 -240.5t-42 -240.5t-114 -181t-167.5 -111t-202.5 -39.5t-202.5 39.5t-167.5 111t-114 181t-42 240.5zM252 559q0 -111 33 -201.5t89.5 -147t127.5 -86.5t151 -30 q75 0 142.5 28t121.5 81t85.5 138.5t31.5 193.5q0 111 -33 201t-89.5 146.5t-127.5 86.5t-151 30q-76 0 -143.5 -27.5t-121 -80.5t-85 -138.5t-31.5 -193.5zM383 1366q0 38 23 61t59 23t62 -25t26 -65q0 -39 -23 -62.5t-59 -23.5q-35 0 -61.5 25.5t-26.5 66.5zM733 1366 q0 38 23 61t57 23q36 0 62 -25t26 -65q0 -39 -23 -62.5t-59 -23.5q-35 0 -60.5 25.5t-25.5 66.5z" />
<glyph unicode="&#xf7;" horiz-adv-x="1349" d="M184 659q0 41 11 78h927q23 0 32 -10.5t9 -38.5v-67h-946q-33 0 -33 38zM584 295q0 40 25 65t63 25t65 -27t27 -71q0 -39 -24.5 -64.5t-61.5 -25.5q-38 0 -66 27t-28 71zM584 1071q0 39 25.5 64.5t62.5 25.5q38 0 65 -27t27 -71q0 -41 -24.5 -65.5t-61.5 -24.5 q-38 0 -66 27t-28 71z" />
<glyph unicode="&#xf8;" horiz-adv-x="1286" d="M104 25q0 11 15 26l112 123q-114 149 -114 373q0 131 42 240.5t114 181t167.5 110.5t202.5 39q200 0 342 -127l94 103h56q43 0 43 -27q0 -12 -11 -23l-114 -124q116 -151 116 -373q0 -131 -42 -240.5t-114 -181t-167.5 -111t-202.5 -39.5q-202 0 -344 127l-94 -102h-62 q-39 0 -39 25zM252 559q0 -167 72 -285l573 621q-110 104 -264 104q-76 0 -143.5 -27.5t-121 -80.5t-85 -138.5t-31.5 -193.5zM387 199q108 -105 266 -105q75 0 142.5 28t121.5 81t85.5 138.5t31.5 193.5q0 164 -73 284z" />
<glyph unicode="&#xf9;" horiz-adv-x="1253" d="M166 461v629q51 14 92 14q43 0 43 -35v-616q0 -163 93.5 -262t232.5 -99t232 98.5t93 262.5v641h84q27 0 38 -9.5t11 -31.5v-592q0 -222 -127.5 -354t-330.5 -132q-204 0 -332.5 132t-128.5 354zM402 1446q15 35 43 63q15 15 34 15q16 0 35 -19l256 -245l-43 -45 q-13 -13 -24 -13q-13 0 -29 13z" />
<glyph unicode="&#xfa;" horiz-adv-x="1253" d="M166 461v629q51 14 92 14q43 0 43 -35v-616q0 -163 93.5 -262t232.5 -99t232 98.5t93 262.5v641h84q27 0 38 -9.5t11 -31.5v-592q0 -222 -127.5 -354t-330.5 -132q-204 0 -332.5 132t-128.5 354zM463 1260l256 245q19 19 34 19q20 0 35 -15q28 -28 43 -63l-272 -231 q-16 -13 -29 -13q-11 0 -24 13z" />
<glyph unicode="&#xfb;" horiz-adv-x="1253" d="M166 461v629q51 14 92 14q43 0 43 -35v-616q0 -163 93.5 -262t232.5 -99t232 98.5t93 262.5v641h84q27 0 38 -9.5t11 -31.5v-592q0 -222 -127.5 -354t-330.5 -132q-204 0 -332.5 132t-128.5 354zM332 1260q0 12 14 26l242 236h39q18 0 27.5 -4t23.5 -17l254 -246l-47 -51 q-14 -14 -27 -14q-16 0 -36 20l-199 197l-215 -215q-40 15 -60 35q-16 13 -16 33z" />
<glyph unicode="&#xfc;" horiz-adv-x="1253" d="M166 461v629q51 14 92 14q43 0 43 -35v-616q0 -163 93.5 -262t232.5 -99t232 98.5t93 262.5v641h84q27 0 38 -9.5t11 -31.5v-592q0 -222 -127.5 -354t-330.5 -132q-204 0 -332.5 132t-128.5 354zM367 1366q0 38 23 61t59 23t62 -25t26 -65q0 -39 -23 -62.5t-59 -23.5 q-35 0 -61.5 25.5t-26.5 66.5zM717 1366q0 38 23 61t57 23q36 0 62 -25t26 -65q0 -39 -23 -62.5t-59 -23.5q-35 0 -60.5 25.5t-25.5 66.5z" />
<glyph unicode="&#xfd;" horiz-adv-x="1284" d="M180 434v656q41 14 94 14q41 0 41 -33v-639q0 -338 281 -338q95 0 193.5 39t173.5 111v850h86q27 0 38 -9.5t11 -31.5v-1035q0 -111 -35.5 -206t-102 -166.5t-171 -112.5t-234.5 -41q-162 0 -261 75t-99 197q0 161 163 263q-178 108 -178 407zM330 -225 q0 -73 62.5 -119.5t162.5 -46.5q195 0 301.5 106t106.5 289v125q-81 -72 -184.5 -113t-211.5 -41q-52 0 -106 13q-131 -88 -131 -213zM480 1260l256 245q19 19 34 19q20 0 35 -15q28 -28 43 -63l-272 -231q-16 -13 -29 -13q-11 0 -24 13z" />
<glyph unicode="&#xfe;" horiz-adv-x="1306" d="M186 -354v1845q41 14 93 14q22 0 31 -7.5t9 -24.5v-582q63 107 167 167t239 60q204 0 334.5 -142t130.5 -384q0 -172 -70.5 -313.5t-194.5 -222.5t-276 -81q-202 0 -330 119v-489h-83q-28 0 -39 9t-11 32zM319 227q133 -133 316 -133q179 0 298.5 142.5t119.5 353.5 q0 193 -96.5 302t-256.5 109q-117 0 -219 -79.5t-162 -229.5v-465z" />
<glyph unicode="&#xff;" horiz-adv-x="1284" d="M180 434v656q41 14 94 14q41 0 41 -33v-639q0 -338 281 -338q95 0 193.5 39t173.5 111v850h86q27 0 38 -9.5t11 -31.5v-1035q0 -111 -35.5 -206t-102 -166.5t-171 -112.5t-234.5 -41q-162 0 -261 75t-99 197q0 161 163 263q-178 108 -178 407zM330 -225 q0 -73 62.5 -119.5t162.5 -46.5q195 0 301.5 106t106.5 289v125q-81 -72 -184.5 -113t-211.5 -41q-52 0 -106 13q-131 -88 -131 -213zM377 1366q0 38 23 61t59 23t62 -25t26 -65q0 -39 -23 -62.5t-59 -23.5q-35 0 -61.5 25.5t-26.5 66.5zM727 1366q0 38 23 61t57 23 q36 0 62 -25t26 -65q0 -39 -23 -62.5t-59 -23.5q-35 0 -60.5 25.5t-25.5 66.5z" />
<glyph unicode="&#x100;" horiz-adv-x="1359" d="M55 29q0 6 4 18l531 1370q59 27 121 27q27 0 40.5 -10t22.5 -35l541 -1399h-101q-27 0 -40 8t-19 27l-133 356h-686l-148 -391h-88q-45 0 -45 29zM379 512h598l-299 791zM408 1706q0 31 8 63h499q21 0 29 -9.5t8 -35.5v-57h-516q-28 0 -28 39z" />
<glyph unicode="&#x101;" horiz-adv-x="1218" d="M115 319q0 166 116.5 260.5t311.5 94.5q183 0 334 -74v113q0 143 -90.5 214.5t-251.5 71.5q-182 0 -308 -69q-20 23 -20 61q0 19 27.5 41t73.5 41t114.5 32t140.5 13q207 0 327 -106t120 -307v-494q0 -62 19.5 -88.5t57.5 -26.5h37q9 -31 9 -49q0 -23 -28.5 -42 t-70.5 -19q-64 0 -106.5 49t-48.5 137q-60 -92 -160.5 -144.5t-229.5 -52.5q-169 0 -271.5 95.5t-102.5 248.5zM250 324q0 -108 74.5 -170t183.5 -62q111 0 208.5 56.5t160.5 170.5v175q-63 28 -152 44.5t-170 16.5q-144 0 -224.5 -62t-80.5 -169zM326 1348q0 31 8 63h500 q20 0 28 -9.5t8 -35.5v-57h-516q-28 0 -28 39z" />
<glyph unicode="&#x102;" horiz-adv-x="1359" d="M55 29q0 6 4 18l531 1370q59 27 121 27q27 0 40.5 -10t22.5 -35l541 -1399h-101q-27 0 -40 8t-19 27l-133 356h-686l-148 -391h-88q-45 0 -45 29zM379 512h598l-299 791zM393 1833q42 22 78 22q21 0 28.5 -7t12.5 -29q15 -75 58.5 -114.5t109.5 -39.5q69 0 116 45.5 t58 144.5h66q28 0 37 -8t6 -28q-13 -108 -88 -179t-195 -71q-116 0 -193 69t-94 195z" />
<glyph unicode="&#x103;" horiz-adv-x="1218" d="M115 319q0 166 116.5 260.5t311.5 94.5q183 0 334 -74v113q0 143 -90.5 214.5t-251.5 71.5q-182 0 -308 -69q-20 23 -20 61q0 19 27.5 41t73.5 41t114.5 32t140.5 13q207 0 327 -106t120 -307v-494q0 -62 19.5 -88.5t57.5 -26.5h37q9 -31 9 -49q0 -23 -28.5 -42 t-70.5 -19q-64 0 -106.5 49t-48.5 137q-60 -92 -160.5 -144.5t-229.5 -52.5q-169 0 -271.5 95.5t-102.5 248.5zM250 324q0 -108 74.5 -170t183.5 -62q111 0 208.5 56.5t160.5 170.5v175q-63 28 -152 44.5t-170 16.5q-144 0 -224.5 -62t-80.5 -169zM311 1475q42 22 78 22 q21 0 28.5 -7.5t12.5 -29.5q15 -75 58.5 -114t109.5 -39q69 0 116 45.5t58 144.5h66q27 0 36.5 -8t6.5 -29q-13 -108 -88 -179t-195 -71q-116 0 -193 69.5t-94 195.5z" />
<glyph unicode="&#x104;" horiz-adv-x="1359" d="M55 29q0 6 4 18l531 1370q59 27 121 27q27 0 40.5 -10t22.5 -35l541 -1399q-156 -110 -156 -242q0 -48 32.5 -79t96.5 -31q46 0 80 12q43 15 43 -29v-53q-54 -29 -139 -29q-107 0 -167.5 54t-60.5 145q0 66 39.5 136t108.5 118q-28 6 -37 33l-133 356h-686l-148 -391h-88 q-45 0 -45 29zM379 512h598l-299 791z" />
<glyph unicode="&#x105;" horiz-adv-x="1204" d="M115 319q0 166 116.5 260.5t311.5 94.5q183 0 334 -74v113q0 143 -90.5 214.5t-251.5 71.5q-182 0 -308 -69q-20 23 -20 61q0 19 27.5 41t73.5 41t114.5 32t140.5 13q207 0 327 -106t120 -307v-494q0 -62 19.5 -88.5t57.5 -26.5h37q9 -31 9 -49q0 -23 -28.5 -42 t-70.5 -19h-6q-135 -104 -135 -228q0 -48 32.5 -79t96.5 -31q46 0 80 12q43 15 43 -29v-53q-54 -29 -139 -29q-107 0 -167.5 54t-60.5 145q0 82 46.5 151.5t121.5 116.5q-61 51 -67 156q-60 -92 -160.5 -144.5t-229.5 -52.5q-169 0 -271.5 95.5t-102.5 248.5zM250 324 q0 -108 74.5 -170t183.5 -62q111 0 208.5 56.5t160.5 170.5v175q-63 28 -152 44.5t-170 16.5q-144 0 -224.5 -62t-80.5 -169z" />
<glyph unicode="&#x106;" horiz-adv-x="1406" d="M127 762q0 130 34.5 243t94.5 195t140.5 141t174.5 88t195 29q189 0 329.5 -82.5t209.5 -218.5q8 -16 8 -31q0 -17 -25 -36q-46 -29 -96 -35q-59 134 -171 207t-261 73q-96 0 -184 -38t-157.5 -108t-111 -179.5t-41.5 -241.5q0 -154 50.5 -282t137.5 -212.5t202.5 -131 t246.5 -46.5q198 0 342 84q19 -28 19 -65q0 -45 -114.5 -92.5t-262.5 -47.5q-160 0 -300 56t-241.5 156.5t-160 249t-58.5 325.5zM582 1616l256 245q19 19 34 19q20 0 35 -15q28 -28 43 -63l-272 -231q-16 -13 -29 -13q-11 0 -24 13z" />
<glyph unicode="&#x107;" horiz-adv-x="1128" d="M115 582q0 163 70 286.5t186 186.5t260 63q141 0 248.5 -63.5t156.5 -159.5q8 -16 8 -31q0 -24 -24 -39q-36 -23 -92 -30q-36 94 -111.5 149t-189.5 55q-161 0 -268 -113t-107 -302q0 -118 41.5 -214.5t109.5 -155.5t150.5 -90.5t169.5 -31.5q153 0 270 66q21 -31 21 -62 q0 -40 -94 -80.5t-220 -40.5q-112 0 -216 41t-187 116.5t-132.5 192.5t-49.5 257zM428 1260l256 245q19 19 34 19q20 0 35 -15q28 -28 43 -63l-272 -231q-16 -13 -29 -13q-11 0 -24 13z" />
<glyph unicode="&#x108;" horiz-adv-x="1406" d="M127 762q0 130 34.5 243t94.5 195t140.5 141t174.5 88t195 29q189 0 329.5 -82.5t209.5 -218.5q8 -16 8 -31q0 -17 -25 -36q-46 -29 -96 -35q-59 134 -171 207t-261 73q-96 0 -184 -38t-157.5 -108t-111 -179.5t-41.5 -241.5q0 -154 50.5 -282t137.5 -212.5t202.5 -131 t246.5 -46.5q198 0 342 84q19 -28 19 -65q0 -45 -114.5 -92.5t-262.5 -47.5q-160 0 -300 56t-241.5 156.5t-160 249t-58.5 325.5zM461 1616q0 12 14 26l242 236h39q18 0 27.5 -4t23.5 -17l254 -246l-47 -51q-14 -14 -27 -14q-16 0 -36 20l-199 197l-215 -215q-40 15 -60 35 q-16 13 -16 33z" />
<glyph unicode="&#x109;" horiz-adv-x="1128" d="M115 582q0 163 70 286.5t186 186.5t260 63q141 0 248.5 -63.5t156.5 -159.5q8 -16 8 -31q0 -24 -24 -39q-36 -23 -92 -30q-36 94 -111.5 149t-189.5 55q-161 0 -268 -113t-107 -302q0 -118 41.5 -214.5t109.5 -155.5t150.5 -90.5t169.5 -31.5q153 0 270 66q21 -31 21 -62 q0 -40 -94 -80.5t-220 -40.5q-112 0 -216 41t-187 116.5t-132.5 192.5t-49.5 257zM305 1260q0 12 14 26l242 236h39q18 0 27.5 -4t23.5 -17l254 -246l-47 -51q-14 -14 -27 -14q-16 0 -36 20l-199 197l-215 -215q-40 15 -60 35q-16 13 -16 33z" />
<glyph unicode="&#x10a;" horiz-adv-x="1406" d="M127 762q0 130 34.5 243t94.5 195t140.5 141t174.5 88t195 29q189 0 329.5 -82.5t209.5 -218.5q8 -16 8 -31q0 -17 -25 -36q-46 -29 -96 -35q-59 134 -171 207t-261 73q-96 0 -184 -38t-157.5 -108t-111 -179.5t-41.5 -241.5q0 -154 50.5 -282t137.5 -212.5t202.5 -131 t246.5 -46.5q198 0 342 84q19 -28 19 -65q0 -45 -114.5 -92.5t-262.5 -47.5q-160 0 -300 56t-241.5 156.5t-160 249t-58.5 325.5zM668 1722q0 37 23.5 60.5t58.5 23.5q36 0 62 -25t26 -65q0 -39 -23 -62.5t-59 -23.5q-35 0 -61.5 25.5t-26.5 66.5z" />
<glyph unicode="&#x10b;" horiz-adv-x="1128" d="M115 582q0 163 70 286.5t186 186.5t260 63q141 0 248.5 -63.5t156.5 -159.5q8 -16 8 -31q0 -24 -24 -39q-36 -23 -92 -30q-36 94 -111.5 149t-189.5 55q-161 0 -268 -113t-107 -302q0 -118 41.5 -214.5t109.5 -155.5t150.5 -90.5t169.5 -31.5q153 0 270 66q21 -31 21 -62 q0 -40 -94 -80.5t-220 -40.5q-112 0 -216 41t-187 116.5t-132.5 192.5t-49.5 257zM522 1366q0 37 23.5 60.5t58.5 23.5q36 0 62 -25t26 -65q0 -39 -23 -62.5t-59 -23.5q-35 0 -61.5 25.5t-26.5 66.5z" />
<glyph unicode="&#x10c;" horiz-adv-x="1406" d="M127 762q0 130 34.5 243t94.5 195t140.5 141t174.5 88t195 29q189 0 329.5 -82.5t209.5 -218.5q8 -16 8 -31q0 -17 -25 -36q-46 -29 -96 -35q-59 134 -171 207t-261 73q-96 0 -184 -38t-157.5 -108t-111 -179.5t-41.5 -241.5q0 -154 50.5 -282t137.5 -212.5t202.5 -131 t246.5 -46.5q198 0 342 84q19 -28 19 -65q0 -45 -114.5 -92.5t-262.5 -47.5q-160 0 -300 56t-241.5 156.5t-160 249t-58.5 325.5zM471 1808q39 70 72 70q18 0 59 -41l176 -176l223 223l58 -53q12 -12 12 -21q0 -12 -16 -28l-242 -236h-39q-18 0 -27.5 4t-23.5 17z" />
<glyph unicode="&#x10d;" horiz-adv-x="1128" d="M115 582q0 163 70 286.5t186 186.5t260 63q141 0 248.5 -63.5t156.5 -159.5q8 -16 8 -31q0 -24 -24 -39q-36 -23 -92 -30q-36 94 -111.5 149t-189.5 55q-161 0 -268 -113t-107 -302q0 -118 41.5 -214.5t109.5 -155.5t150.5 -90.5t169.5 -31.5q153 0 270 66q21 -31 21 -62 q0 -40 -94 -80.5t-220 -40.5q-112 0 -216 41t-187 116.5t-132.5 192.5t-49.5 257zM301 1452q39 70 72 70q18 0 59 -41l176 -176l223 223l58 -53q12 -12 12 -21q0 -13 -16 -29l-242 -235h-39q-18 0 -27.5 4t-23.5 16z" />
<glyph unicode="&#x10e;" horiz-adv-x="1480" d="M205 330v1104h459q148 0 274.5 -50t218 -141.5t143.5 -227t52 -298.5t-52 -298.5t-143.5 -227t-218 -141.5t-274.5 -50h-181q-142 0 -210 75.5t-68 254.5zM344 344q0 -128 34 -175.5t122 -47.5h155q114 0 213.5 38.5t176 111.5t121 188t44.5 258t-44.5 258t-121 188 t-176 111.5t-213.5 38.5h-311v-969zM348 1808q39 70 71 70q19 0 60 -41l176 -176l223 223l58 -53q12 -12 12 -21q0 -12 -17 -29l-241 -235h-39q-29 0 -51 20z" />
<glyph unicode="&#x10f;" horiz-adv-x="1484" d="M115 502q0 172 70 313t194 222t276 81q202 0 330 -119v496h86q26 0 37.5 -9.5t11.5 -31.5v-1243q0 -62 19.5 -88.5t58.5 -26.5h37q8 -28 8 -49q0 -23 -28 -42t-70 -19q-66 0 -112.5 57.5t-47.5 159.5q-58 -102 -164 -165t-241 -63q-204 0 -334.5 142t-130.5 385zM252 504 q0 -193 96.5 -302.5t255.5 -109.5q117 0 219 79.5t162 229.5v465q-133 133 -315 133q-180 0 -299 -142t-119 -353zM1251 1120q95 92 107 199q-31 6 -51.5 32t-20.5 64q0 39 25.5 64.5t62.5 25.5q39 0 65.5 -27t26.5 -77q0 -145 -94 -254q-29 -33 -57 -50.5t-37 -13.5 q-19 10 -27 37z" />
<glyph unicode="&#x110;" horiz-adv-x="1480" d="M61 700q0 28 9 64h135v670h459q148 0 274.5 -50t218 -141.5t143.5 -227t52 -298.5t-52 -298.5t-143.5 -227t-218 -141.5t-274.5 -50h-181q-142 0 -210 75.5t-68 254.5v338h-109q-35 0 -35 32zM344 344q0 -128 34 -175.5t122 -47.5h155q114 0 213.5 38.5t176 111.5 t121 188t44.5 258t-44.5 258t-121 188t-176 111.5t-213.5 38.5h-311v-549h420q22 0 30.5 -10.5t8.5 -38.5v-47h-459v-324z" />
<glyph unicode="&#x111;" horiz-adv-x="1316" d="M115 502q0 172 70 313t194 222t276 81q202 0 330 -119v252h-350q-35 0 -35 33q0 32 8 64h377v147h86q26 0 37.5 -9.5t11.5 -31.5v-106h86q23 0 32 -11.5t9 -38.5v-47h-127v-1040q0 -62 19.5 -88.5t58.5 -26.5h37q8 -28 8 -49q0 -23 -28 -42t-70 -19q-66 0 -112.5 57.5 t-47.5 159.5q-58 -102 -164 -165t-241 -63q-204 0 -334.5 142t-130.5 385zM252 504q0 -193 96.5 -302.5t255.5 -109.5q117 0 219 79.5t162 229.5v465q-133 133 -315 133q-180 0 -299 -142t-119 -353z" />
<glyph unicode="&#x112;" horiz-adv-x="1167" d="M203 328v1106h798q33 0 33 -41q0 -40 -10 -82h-682v-543h541q23 0 32 -11t9 -38v-72h-582v-305q0 -122 37.5 -171.5t118.5 -49.5h512q23 0 32 -11.5t9 -39.5v-70h-568q-143 0 -211.5 75t-68.5 253zM338 1706q0 31 8 63h500q21 0 29 -9.5t8 -35.5v-57h-516q-29 0 -29 39z " />
<glyph unicode="&#x113;" horiz-adv-x="1175" d="M117 553q0 127 42.5 234.5t114.5 179t167 111.5t200 40q190 0 310 -113.5t120 -289.5q0 -77 -27 -150q-19 -44 -44.5 -60t-75.5 -16h-670q17 -184 135 -289.5t283 -105.5q157 0 274 66q21 -28 21 -62q0 -40 -92.5 -81.5t-221.5 -41.5q-152 0 -274.5 72.5t-192 205 t-69.5 300.5zM254 606h664q20 48 20 105q0 130 -83.5 209t-221.5 79q-149 0 -258 -108t-121 -285zM354 1348q0 31 8 63h500q21 0 29 -9.5t8 -35.5v-57h-516q-29 0 -29 39z" />
<glyph unicode="&#x114;" horiz-adv-x="1167" d="M203 328v1106h798q33 0 33 -41q0 -40 -10 -82h-682v-543h541q23 0 32 -11t9 -38v-72h-582v-305q0 -122 37.5 -171.5t118.5 -49.5h512q23 0 32 -11.5t9 -39.5v-70h-568q-143 0 -211.5 75t-68.5 253zM324 1833q42 22 77 22q21 0 28.5 -7t12.5 -29q15 -75 58.5 -114.5 t109.5 -39.5q69 0 116 45.5t58 144.5h66q28 0 37 -8t6 -28q-13 -108 -88 -179t-195 -71q-116 0 -192.5 69t-93.5 195z" />
<glyph unicode="&#x115;" horiz-adv-x="1175" d="M117 553q0 127 42.5 234.5t114.5 179t167 111.5t200 40q190 0 310 -113.5t120 -289.5q0 -77 -27 -150q-19 -44 -44.5 -60t-75.5 -16h-670q17 -184 135 -289.5t283 -105.5q157 0 274 66q21 -28 21 -62q0 -40 -92.5 -81.5t-221.5 -41.5q-152 0 -274.5 72.5t-192 205 t-69.5 300.5zM254 606h664q20 48 20 105q0 130 -83.5 209t-221.5 79q-149 0 -258 -108t-121 -285zM340 1475q42 22 78 22q21 0 28.5 -7.5t12.5 -29.5q15 -75 58.5 -114t109.5 -39q69 0 116 45.5t58 144.5h65q27 0 36.5 -8t6.5 -29q-13 -108 -87.5 -179t-194.5 -71 q-116 0 -193 69.5t-94 195.5z" />
<glyph unicode="&#x116;" horiz-adv-x="1167" d="M203 328v1106h798q33 0 33 -41q0 -40 -10 -82h-682v-543h541q23 0 32 -11t9 -38v-72h-582v-305q0 -122 37.5 -171.5t118.5 -49.5h512q23 0 32 -11.5t9 -39.5v-70h-568q-143 0 -211.5 75t-68.5 253zM522 1722q0 37 23.5 60.5t58.5 23.5q36 0 62 -25t26 -65 q0 -39 -23 -62.5t-59 -23.5q-35 0 -61.5 25.5t-26.5 66.5z" />
<glyph unicode="&#x117;" horiz-adv-x="1175" d="M117 553q0 127 42.5 234.5t114.5 179t167 111.5t200 40q190 0 310 -113.5t120 -289.5q0 -77 -27 -150q-19 -44 -44.5 -60t-75.5 -16h-670q17 -184 135 -289.5t283 -105.5q157 0 274 66q21 -28 21 -62q0 -40 -92.5 -81.5t-221.5 -41.5q-152 0 -274.5 72.5t-192 205 t-69.5 300.5zM254 606h664q20 48 20 105q0 130 -83.5 209t-221.5 79q-149 0 -258 -108t-121 -285zM541 1366q0 37 23.5 60.5t58.5 23.5q36 0 62 -25t26 -65q0 -39 -23 -62.5t-59 -23.5q-35 0 -61.5 25.5t-26.5 66.5z" />
<glyph unicode="&#x118;" horiz-adv-x="1167" d="M203 328v1106h798q33 0 33 -41q0 -40 -10 -82h-682v-543h541q23 0 32 -11t9 -38v-72h-582v-305q0 -122 37.5 -171.5t118.5 -49.5h512q23 0 32 -11.5t9 -39.5v-70h-97q-155 -109 -155 -242q0 -48 32.5 -79t96.5 -31q46 0 80 12q43 15 43 -29v-53q-54 -29 -140 -29 q-107 0 -167 54t-60 145q0 67 38 135.5t107 116.5h-346q-143 0 -211.5 75t-68.5 253z" />
<glyph unicode="&#x119;" horiz-adv-x="1175" d="M117 553q0 127 42.5 234.5t114.5 179t167 111.5t200 40q190 0 310 -113.5t120 -289.5q0 -77 -27 -150q-19 -44 -44.5 -60t-75.5 -16h-670q17 -184 135 -289.5t283 -105.5q157 0 274 66q21 -28 21 -62q0 -30 -57 -64t-146 -48q-133 -105 -133 -228q0 -48 32.5 -79 t96.5 -31q46 0 80 12q43 15 43 -29v-53q-54 -29 -140 -29q-107 0 -167 54t-60 145q0 59 29.5 120t83.5 107q-223 9 -367.5 169.5t-144.5 408.5zM254 606h664q20 48 20 105q0 130 -83.5 209t-221.5 79q-149 0 -258 -108t-121 -285z" />
<glyph unicode="&#x11a;" horiz-adv-x="1167" d="M203 328v1106h798q33 0 33 -41q0 -40 -10 -82h-682v-543h541q23 0 32 -11t9 -38v-72h-582v-305q0 -122 37.5 -171.5t118.5 -49.5h512q23 0 32 -11.5t9 -39.5v-70h-568q-143 0 -211.5 75t-68.5 253zM310 1808q39 70 71 70q19 0 60 -41l176 -176l223 223l58 -53 q12 -12 12 -21q0 -12 -17 -29l-241 -235h-39q-29 0 -51 20z" />
<glyph unicode="&#x11b;" horiz-adv-x="1175" d="M117 553q0 127 42.5 234.5t114.5 179t167 111.5t200 40q190 0 310 -113.5t120 -289.5q0 -77 -27 -150q-19 -44 -44.5 -60t-75.5 -16h-670q17 -184 135 -289.5t283 -105.5q157 0 274 66q21 -28 21 -62q0 -40 -92.5 -81.5t-221.5 -41.5q-152 0 -274.5 72.5t-192 205 t-69.5 300.5zM254 606h664q20 48 20 105q0 130 -83.5 209t-221.5 79q-149 0 -258 -108t-121 -285zM318 1452q39 70 71 70q19 0 60 -41l176 -176l223 223l58 -53q12 -12 12 -21q0 -12 -17 -29l-241 -235h-39q-29 0 -51 20z" />
<glyph unicode="&#x11c;" horiz-adv-x="1533" d="M127 762q0 161 53 294.5t143.5 220t207.5 134t247 47.5q189 0 333.5 -81t217.5 -216q8 -16 8 -31q0 -18 -24 -36q-46 -29 -96 -35q-57 135 -173.5 205.5t-265.5 70.5q-100 0 -192 -38.5t-163.5 -109t-114 -179.5t-42.5 -240q0 -153 50 -281.5t135.5 -213t198.5 -131 t239 -46.5q164 0 248 56.5t84 152.5v277h-324q-33 0 -33 39q0 43 10 81h445q22 0 31.5 -11t9.5 -38v-344q0 -156 -126.5 -245t-348.5 -89q-160 0 -299 56.5t-240.5 157.5t-160 249.5t-58.5 323.5zM469 1616q0 12 14 26l242 236h39q18 0 27.5 -4t23.5 -16l254 -246l-47 -51 q-15 -15 -27 -15q-16 0 -37 21l-198 196l-215 -215q-40 15 -60 35q-16 13 -16 33z" />
<glyph unicode="&#x11d;" horiz-adv-x="1306" d="M115 502q0 172 70 313t194 222t276 81q201 0 330 -117v93h86q26 0 37.5 -9.5t11.5 -31.5v-1028q0 -108 -40.5 -204.5t-115 -169.5t-189.5 -116t-255 -43q-162 0 -263 75t-101 197q0 174 184 275q-105 63 -165 182t-60 281zM252 504q0 -193 96.5 -302.5t255.5 -109.5 q117 0 219 79.5t162 229.5v465q-133 133 -315 133q-180 0 -299 -142t-119 -353zM291 -225q0 -73 62.5 -119.5t166.5 -46.5q205 0 335 114.5t130 294.5v185q-58 -102 -164 -165t-241 -63q-65 0 -144 21q-145 -93 -145 -221zM381 1260q0 12 14 26l242 236h39q18 0 27.5 -4 t23.5 -17l254 -246l-47 -51q-14 -14 -27 -14q-17 0 -37 20l-198 197l-215 -215q-40 15 -60 35q-16 13 -16 33z" />
<glyph unicode="&#x11e;" horiz-adv-x="1533" d="M127 762q0 161 53 294.5t143.5 220t207.5 134t247 47.5q189 0 333.5 -81t217.5 -216q8 -16 8 -31q0 -18 -24 -36q-46 -29 -96 -35q-57 135 -173.5 205.5t-265.5 70.5q-100 0 -192 -38.5t-163.5 -109t-114 -179.5t-42.5 -240q0 -153 50 -281.5t135.5 -213t198.5 -131 t239 -46.5q164 0 248 56.5t84 152.5v277h-324q-33 0 -33 39q0 43 10 81h445q22 0 31.5 -11t9.5 -38v-344q0 -156 -126.5 -245t-348.5 -89q-160 0 -299 56.5t-240.5 157.5t-160 249.5t-58.5 323.5zM475 1833q42 22 78 22q21 0 28.5 -7.5t12.5 -29.5q15 -75 58.5 -114 t109.5 -39q69 0 116 45.5t58 144.5h66q27 0 36.5 -8t6.5 -29q-13 -108 -88 -179t-195 -71q-116 0 -193 69.5t-94 195.5z" />
<glyph unicode="&#x11f;" horiz-adv-x="1306" d="M115 502q0 172 70 313t194 222t276 81q201 0 330 -117v93h86q26 0 37.5 -9.5t11.5 -31.5v-1028q0 -108 -40.5 -204.5t-115 -169.5t-189.5 -116t-255 -43q-162 0 -263 75t-101 197q0 174 184 275q-105 63 -165 182t-60 281zM252 504q0 -193 96.5 -302.5t255.5 -109.5 q117 0 219 79.5t162 229.5v465q-133 133 -315 133q-180 0 -299 -142t-119 -353zM291 -225q0 -73 62.5 -119.5t166.5 -46.5q205 0 335 114.5t130 294.5v185q-58 -102 -164 -165t-241 -63q-65 0 -144 21q-145 -93 -145 -221zM387 1475q42 22 78 22q21 0 28.5 -7.5t12.5 -29.5 q15 -75 58.5 -114t109.5 -39q69 0 116 45.5t58 144.5h66q27 0 36.5 -8t6.5 -29q-13 -108 -88 -179t-195 -71q-116 0 -193 69.5t-94 195.5z" />
<glyph unicode="&#x120;" horiz-adv-x="1533" d="M127 762q0 161 53 294.5t143.5 220t207.5 134t247 47.5q189 0 333.5 -81t217.5 -216q8 -16 8 -31q0 -18 -24 -36q-46 -29 -96 -35q-57 135 -173.5 205.5t-265.5 70.5q-100 0 -192 -38.5t-163.5 -109t-114 -179.5t-42.5 -240q0 -153 50 -281.5t135.5 -213t198.5 -131 t239 -46.5q164 0 248 56.5t84 152.5v277h-324q-33 0 -33 39q0 43 10 81h445q22 0 31.5 -11t9.5 -38v-344q0 -156 -126.5 -245t-348.5 -89q-160 0 -299 56.5t-240.5 157.5t-160 249.5t-58.5 323.5zM676 1722q0 37 23.5 60.5t58.5 23.5q36 0 62 -25t26 -65q0 -39 -23 -62.5 t-59 -23.5q-35 0 -61.5 25.5t-26.5 66.5z" />
<glyph unicode="&#x121;" horiz-adv-x="1306" d="M115 502q0 172 70 313t194 222t276 81q201 0 330 -117v93h86q26 0 37.5 -9.5t11.5 -31.5v-1028q0 -108 -40.5 -204.5t-115 -169.5t-189.5 -116t-255 -43q-162 0 -263 75t-101 197q0 174 184 275q-105 63 -165 182t-60 281zM252 504q0 -193 96.5 -302.5t255.5 -109.5 q117 0 219 79.5t162 229.5v465q-133 133 -315 133q-180 0 -299 -142t-119 -353zM291 -225q0 -73 62.5 -119.5t166.5 -46.5q205 0 335 114.5t130 294.5v185q-58 -102 -164 -165t-241 -63q-65 0 -144 21q-145 -93 -145 -221zM588 1366q0 37 23.5 60.5t58.5 23.5q36 0 62 -25 t26 -65q0 -39 -23 -62.5t-59 -23.5q-35 0 -61.5 25.5t-26.5 66.5z" />
<glyph unicode="&#x122;" horiz-adv-x="1533" d="M127 762q0 161 53 294.5t143.5 220t207.5 134t247 47.5q189 0 333.5 -81t217.5 -216q8 -16 8 -31q0 -18 -24 -36q-46 -29 -96 -35q-57 135 -173.5 205.5t-265.5 70.5q-100 0 -192 -38.5t-163.5 -109t-114 -179.5t-42.5 -240q0 -153 50 -281.5t135.5 -213t198.5 -131 t239 -46.5q164 0 248 56.5t84 152.5v277h-324q-33 0 -33 39q0 43 10 81h445q22 0 31.5 -11t9.5 -38v-344q0 -156 -126.5 -245t-348.5 -89q-160 0 -299 56.5t-240.5 157.5t-160 249.5t-58.5 323.5zM733 -434q86 86 98 178q-30 6 -49.5 30t-19.5 60q0 38 25 62t61 24 q37 0 62.5 -25t25.5 -69q0 -135 -84 -229q-28 -34 -57 -52.5t-37 -13.5q-8 3 -16 14t-9 21z" />
<glyph unicode="&#x123;" horiz-adv-x="1306" d="M115 502q0 172 70 313t194 222t276 81q201 0 330 -117v93h86q26 0 37.5 -9.5t11.5 -31.5v-1028q0 -108 -40.5 -204.5t-115 -169.5t-189.5 -116t-255 -43q-162 0 -263 75t-101 197q0 174 184 275q-105 63 -165 182t-60 281zM252 504q0 -193 96.5 -302.5t255.5 -109.5 q117 0 219 79.5t162 229.5v465q-133 133 -315 133q-180 0 -299 -142t-119 -353zM291 -225q0 -73 62.5 -119.5t166.5 -46.5q205 0 335 114.5t130 294.5v185q-58 -102 -164 -165t-241 -63q-65 0 -144 21q-145 -93 -145 -221zM586 1274q0 135 84 229q28 34 57 52.5t37 13.5 q8 -3 15.5 -14t8.5 -21q-86 -86 -98 -178q30 -6 50 -30t20 -60q0 -38 -25 -62t-61 -24q-37 0 -62.5 25t-25.5 69z" />
<glyph unicode="&#x124;" horiz-adv-x="1478" d="M207 39v1388q49 17 96 17q43 0 43 -35v-631h784v656h91q26 0 37.5 -9.5t11.5 -31.5v-1393h-90q-28 0 -39 8.5t-11 30.5v618h-784v-657h-90q-27 0 -38 8.5t-11 30.5zM446 1616q0 12 14 26l242 236h39q18 0 27.5 -4t23.5 -17l254 -246l-47 -51q-14 -14 -27 -14 q-16 0 -36 20l-199 197l-215 -215q-40 15 -60 35q-16 13 -16 33z" />
<glyph unicode="&#x125;" horiz-adv-x="1312" d="M129 1616q0 12 14 26l242 236h39q18 0 27.5 -4t23.5 -16l254 -246l-47 -51q-15 -15 -27 -15q-16 0 -37 21l-198 196l-215 -215q-40 15 -60 35q-16 13 -16 33zM184 39v1421q58 15 92 15q43 0 43 -35v-475q181 153 396 153q189 0 288 -121.5t99 -337.5v-448 q0 -62 19.5 -88.5t58.5 -26.5h37q8 -28 8 -49q0 -24 -29.5 -42.5t-77.5 -18.5q-69 0 -110 53t-41 158v465q0 337 -281 337q-95 0 -193 -39t-174 -112v-848h-86q-28 0 -38.5 8.5t-10.5 30.5z" />
<glyph unicode="&#x126;" horiz-adv-x="1478" d="M61 1098q0 27 9 63h137v266q49 17 96 17q43 0 43 -35v-248h784v273h91q26 0 37.5 -9.5t11.5 -31.5v-232h104q23 0 32 -10.5t9 -38.5v-47h-145v-1065h-90q-28 0 -39 8.5t-11 30.5v618h-784v-657h-90q-27 0 -38 8.5t-11 30.5v1026h-111q-35 0 -35 33zM346 778h784v287h-784 v-287z" />
<glyph unicode="&#x127;" horiz-adv-x="1312" d="M57 1284q0 40 9 64h118v143q54 14 92 14q43 0 43 -35v-122h345q41 0 41 -50v-47h-386v-282q183 149 396 149q189 0 288 -121.5t99 -337.5v-448q0 -62 19.5 -88.5t58.5 -26.5h37q8 -28 8 -49q0 -24 -29.5 -42.5t-77.5 -18.5q-69 0 -110 53t-41 158v465q0 337 -281 337 q-95 0 -193 -39t-174 -112v-848h-86q-28 0 -38.5 8.5t-10.5 30.5v1212h-94q-33 0 -33 33z" />
<glyph unicode="&#x128;" horiz-adv-x="579" d="M0 1659q0 12 10 57q41 115 158 115q69 0 143 -66q65 -57 99 -57q31 0 47 25t22 94l74 -17q36 -8 27 -49q-12 -74 -55.5 -114.5t-110.5 -40.5q-73 0 -144 65q-61 58 -98 58q-31 0 -47.5 -25.5t-22.5 -91.5q-48 -3 -77 10q-25 9 -25 37zM219 39v1388q49 17 96 17 q43 0 43 -35v-1409h-90q-28 0 -38.5 8.5t-10.5 30.5z" />
<glyph unicode="&#x129;" horiz-adv-x="538" d="M-39 1301q0 12 10 57q41 115 158 115q69 0 143 -66q65 -57 99 -57q31 0 47 25t22 94l74 -17q36 -8 27 -49q-12 -74 -55.5 -115t-110.5 -41q-72 0 -144 66q-60 57 -98 57q-31 0 -47.5 -25.5t-22.5 -91.5q-46 -3 -77 11q-25 9 -25 37zM184 197v893q54 14 92 14q43 0 43 -35 v-858q0 -62 19.5 -88.5t58.5 -26.5h37q8 -28 8 -49q0 -24 -29 -42.5t-77 -18.5q-69 0 -110.5 53t-41.5 158z" />
<glyph unicode="&#x12a;" horiz-adv-x="579" d="M19 1706q0 31 8 63h499q21 0 29 -9.5t8 -35.5v-57h-516q-28 0 -28 39zM219 39v1388q49 17 96 17q43 0 43 -35v-1409h-90q-28 0 -38.5 8.5t-10.5 30.5z" />
<glyph unicode="&#x12b;" horiz-adv-x="538" d="M-18 1348q0 31 8 63h499q21 0 29 -9.5t8 -35.5v-57h-516q-28 0 -28 39zM184 197v893q54 14 92 14q43 0 43 -35v-858q0 -62 19.5 -88.5t58.5 -26.5h37q8 -28 8 -49q0 -24 -29 -42.5t-77 -18.5q-69 0 -110.5 53t-41.5 158z" />
<glyph unicode="&#x12c;" horiz-adv-x="579" d="M4 1833q42 22 78 22q21 0 28.5 -7t12.5 -29q15 -75 58.5 -114.5t109.5 -39.5q69 0 116 45.5t58 144.5h65q28 0 37 -8t6 -28q-13 -108 -87.5 -179t-194.5 -71q-116 0 -193 69t-94 195zM219 39v1388q49 17 96 17q43 0 43 -35v-1409h-90q-28 0 -38.5 8.5t-10.5 30.5z" />
<glyph unicode="&#x12d;" horiz-adv-x="538" d="M-33 1475q42 22 78 22q21 0 28.5 -7.5t12.5 -29.5q15 -75 58.5 -114t109.5 -39q69 0 116 45.5t58 144.5h66q27 0 36.5 -8t6.5 -29q-13 -108 -88 -179t-195 -71q-116 0 -193 69.5t-94 195.5zM184 197v893q54 14 92 14q43 0 43 -35v-858q0 -62 19.5 -88.5t58.5 -26.5h37 q8 -28 8 -49q0 -24 -29 -42.5t-77 -18.5q-69 0 -110.5 53t-41.5 158z" />
<glyph unicode="&#x12e;" horiz-adv-x="579" d="M88 -252q0 68 40 138.5t114 119.5q-21 6 -21 35v1389q51 14 96 14q41 0 41 -33v-1411q-155 -109 -155 -242q0 -48 33 -79t98 -31q44 0 78 12q43 15 43 -29v-53q-54 -29 -140 -29q-107 0 -167 54t-60 145z" />
<glyph unicode="&#x12f;" horiz-adv-x="538" d="M121 -252q0 67 38 136t109 118q-82 45 -82 195v893q41 14 93 14q40 0 40 -33v-868q0 -57 18 -81t56 -24h43q8 -32 8 -49t-19 -33.5t-48 -23.5q-141 -104 -141 -234q0 -48 32.5 -79t96.5 -31q45 0 79 12q43 15 43 -29v-53q-54 -29 -139 -29q-107 0 -167 54t-60 145z M166 1423q0 39 23 62.5t59 23.5q37 0 63.5 -25.5t26.5 -66.5q0 -39 -23.5 -62.5t-60.5 -23.5t-62.5 25.5t-25.5 66.5z" />
<glyph unicode="&#x130;" horiz-adv-x="579" d="M205 1722q0 37 23.5 60.5t58.5 23.5q36 0 62 -25t26 -65q0 -39 -23 -62.5t-59 -23.5q-35 0 -61.5 25.5t-26.5 66.5zM219 39v1388q49 17 96 17q43 0 43 -35v-1409h-90q-28 0 -38.5 8.5t-10.5 30.5z" />
<glyph unicode="&#x131;" horiz-adv-x="538" d="M184 197v893q54 14 92 14q43 0 43 -35v-858q0 -62 19.5 -88.5t58.5 -26.5h37q8 -28 8 -49q0 -24 -29 -42.5t-77 -18.5q-69 0 -110.5 53t-41.5 158z" />
<glyph unicode="&#x132;" horiz-adv-x="1355" d="M217 39v1388q49 17 96 17q43 0 43 -35v-1409h-90q-28 0 -38.5 8.5t-10.5 30.5zM565 70q0 37 21 65q81 -37 202 -37q116 0 180 69t64 206v1057q51 14 96 14q43 0 43 -33v-1038q0 -189 -91.5 -293.5t-270.5 -104.5q-87 0 -165.5 31t-78.5 64z" />
<glyph unicode="&#x133;" horiz-adv-x="1013" d="M164 1423q0 38 24 62t60 24t62 -26t26 -68q0 -39 -23.5 -62.5t-60.5 -23.5q-35 0 -61.5 26.5t-26.5 67.5zM184 197v893q54 14 92 14q43 0 43 -35v-858q0 -62 19.5 -88.5t58.5 -26.5h37q8 -28 8 -49q0 -24 -29 -42.5t-77 -18.5q-69 0 -110.5 53t-41.5 158zM510 -362 q180 163 180 380v1072q54 14 92 14q43 0 43 -35v-1053q0 -181 -96 -309q-46 -60 -92 -91.5t-74 -31.5q-15 0 -31.5 17.5t-21.5 36.5zM670 1423q0 38 24 62t60 24t62 -26t26 -68q0 -39 -23.5 -62.5t-60.5 -23.5q-35 0 -61.5 26.5t-26.5 67.5z" />
<glyph unicode="&#x134;" horiz-adv-x="841" d="M35 70q0 38 20 65q81 -37 203 -37q116 0 180 69t64 206v1057q51 14 96 14q43 0 43 -33v-1038q0 -189 -91.5 -293.5t-270.5 -104.5q-87 0 -165.5 31t-78.5 64zM270 1616q0 12 14 26l242 236h39q18 0 27.5 -4t23.5 -17l254 -246l-47 -51q-14 -14 -27 -14q-16 0 -36 20 l-199 197l-215 -215q-40 15 -60 35q-16 13 -16 33z" />
<glyph unicode="&#x135;" horiz-adv-x="559" d="M-35 1260q0 11 15 26l241 236h39q18 0 27.5 -4t23.5 -17l254 -246l-47 -51q-14 -14 -26 -14q-17 0 -37 20l-199 197l-215 -215q-38 14 -59 35q-17 14 -17 33zM14 -362q181 164 181 380v1072q54 14 92 14q43 0 43 -35v-1053q0 -180 -97 -309q-46 -60 -91.5 -91.5 t-73.5 -31.5q-15 0 -32 17.5t-22 36.5z" />
<glyph unicode="&#x136;" horiz-adv-x="1347" d="M207 39v1388q49 17 96 17q43 0 43 -35v-729q207 136 408.5 334.5t355.5 429.5q55 -17 78.5 -35t23.5 -41t-14 -43q-176 -272 -479 -530q120 -223 242.5 -400t214.5 -254q54 -45 96 -45h33q8 -28 8 -53q0 -26 -30.5 -47t-74.5 -21q-62 0 -135 64q-198 174 -457 676 q-141 -112 -270 -191v-524h-90q-27 0 -38 8.5t-11 30.5zM584 -434q86 86 98 178q-30 6 -50 30t-20 60q0 38 25 62t61 24q37 0 62.5 -25t25.5 -69q0 -135 -84 -229q-28 -34 -57 -52.5t-37 -13.5q-8 3 -15.5 14t-8.5 21z" />
<glyph unicode="&#x137;" horiz-adv-x="1177" d="M184 39v1452q54 14 92 14q43 0 43 -35v-931q172 104 339.5 251.5t287.5 313.5q53 -20 72.5 -37t19.5 -39q0 -16 -10 -33q-149 -203 -407 -395q83 -133 174.5 -249.5t165.5 -186.5q73 -68 110 -68h41q8 -28 8 -49q0 -23 -28 -42t-72 -19q-71 0 -146 75 q-85 84 -180.5 206.5t-175.5 260.5q-110 -75 -199 -125v-403h-86q-28 0 -38.5 8.5t-10.5 30.5zM489 -434q87 87 99 178q-30 6 -50 30t-20 60q0 38 25 62t61 24q37 0 62.5 -25t25.5 -69q0 -135 -84 -229q-28 -34 -57 -52.5t-37 -13.5q-8 3 -16 14t-9 21z" />
<glyph unicode="&#x138;" horiz-adv-x="1177" d="M184 39v1051q54 14 92 14q43 0 43 -35v-530q172 104 339.5 251.5t287.5 313.5q53 -20 72.5 -37t19.5 -39q0 -16 -10 -33q-149 -203 -407 -395q83 -133 174.5 -249.5t165.5 -186.5q73 -68 110 -68h41q8 -28 8 -49q0 -23 -28 -42t-72 -19q-71 0 -146 75 q-85 84 -180.5 206.5t-175.5 260.5q-110 -75 -199 -125v-403h-86q-28 0 -38.5 8.5t-10.5 30.5z" />
<glyph unicode="&#x139;" horiz-adv-x="1116" d="M166 1616l256 245q19 19 34 19q20 0 35 -15q28 -28 43 -63l-272 -231q-16 -13 -29 -13q-11 0 -24 13zM203 328v1099q49 17 96 17q43 0 43 -35v-1067q0 -122 37.5 -171.5t118.5 -49.5h520q22 0 30.5 -11.5t8.5 -39.5v-70h-574q-143 0 -211.5 75t-68.5 253z" />
<glyph unicode="&#x13a;" horiz-adv-x="614" d="M141 1616l256 246q18 18 35 18q21 0 35 -14q27 -27 43 -64l-272 -231q-15 -12 -29 -12q-13 0 -25 12zM186 266v1194q44 15 93 15q40 0 40 -33v-1180q0 -162 134 -162q64 0 118 23q19 -25 19 -57q0 -26 -49.5 -53t-120.5 -27q-112 0 -173 70.5t-61 209.5z" />
<glyph unicode="&#x13b;" horiz-adv-x="1116" d="M203 328v1099q49 17 96 17q43 0 43 -35v-1067q0 -122 37.5 -171.5t118.5 -49.5h520q22 0 30.5 -11.5t8.5 -39.5v-70h-574q-143 0 -211.5 75t-68.5 253zM563 -434q87 87 99 178q-30 6 -50 30t-20 60q0 38 25 62t61 24q37 0 62.5 -25t25.5 -69q0 -135 -84 -229 q-28 -34 -57 -52.5t-37 -13.5q-8 3 -16 14t-9 21z" />
<glyph unicode="&#x13c;" horiz-adv-x="614" d="M186 266v1225q41 14 93 14q22 0 31 -7.5t9 -24.5v-1211q0 -162 134 -162q64 0 118 23q19 -25 19 -57q0 -26 -49.5 -53t-120.5 -27q-112 0 -173 70.5t-61 209.5zM285 -434q86 86 98 178q-30 6 -50 30t-20 60q0 38 25 62t61 24q37 0 62.5 -25t25.5 -69q0 -135 -84 -229 q-28 -34 -57 -52.5t-37 -13.5q-8 3 -15.5 14t-8.5 21z" />
<glyph unicode="&#x13d;" horiz-adv-x="1116" d="M203 328v1099q49 17 96 17q43 0 43 -35v-1067q0 -122 37.5 -171.5t118.5 -49.5h520q22 0 30.5 -11.5t8.5 -39.5v-70h-574q-143 0 -211.5 75t-68.5 253zM475 1120q95 92 107 199q-31 6 -51.5 32t-20.5 64q0 39 25.5 64.5t62.5 25.5q39 0 65.5 -27t26.5 -77 q0 -145 -94 -254q-29 -33 -57 -50.5t-37 -13.5q-19 10 -27 37z" />
<glyph unicode="&#x13e;" horiz-adv-x="684" d="M186 266v1225q41 14 93 14q22 0 31 -7.5t9 -24.5v-1211q0 -162 134 -162q64 0 118 23q19 -25 19 -57q0 -26 -49.5 -53t-120.5 -27q-112 0 -173 70.5t-61 209.5zM451 1120q94 91 106 199q-31 6 -51.5 32t-20.5 64q0 39 25.5 64.5t62.5 25.5q39 0 66 -27t27 -77 q0 -144 -95 -254q-29 -33 -57 -50.5t-37 -13.5q-18 9 -26 37z" />
<glyph unicode="&#x13f;" horiz-adv-x="1116" d="M203 328v1099q49 17 96 17q43 0 43 -35v-1067q0 -122 37.5 -171.5t118.5 -49.5h520q22 0 30.5 -11.5t8.5 -39.5v-70h-574q-143 0 -211.5 75t-68.5 253zM696 762q0 37 23.5 60.5t58.5 23.5q36 0 62 -25t26 -65q0 -39 -23 -62.5t-59 -23.5q-35 0 -61.5 25.5t-26.5 66.5z " />
<glyph unicode="&#x140;" horiz-adv-x="743" d="M186 266v1225q41 14 93 14q22 0 31 -7.5t9 -24.5v-1211q0 -162 134 -162q64 0 118 23q19 -25 19 -57q0 -26 -49.5 -53t-120.5 -27q-112 0 -173 70.5t-61 209.5zM547 780q0 37 23.5 60.5t58.5 23.5q36 0 62 -25t26 -65q0 -39 -23 -62.5t-59 -23.5q-35 0 -61.5 25.5 t-26.5 66.5z" />
<glyph unicode="&#x141;" horiz-adv-x="1116" d="M18 616l185 86v725q49 17 96 17q43 0 43 -35v-639l385 182q23 12 35 -6q18 -25 29 -72l-449 -215v-317q0 -122 37.5 -171.5t118.5 -49.5h520q22 0 30.5 -11.5t8.5 -39.5v-70h-574q-143 0 -211.5 75t-68.5 253v264l-117 -55q-29 -15 -45 14q-18 32 -23 65z" />
<glyph unicode="&#x142;" horiz-adv-x="614" d="M-4 653l190 92v746q41 14 93 14q22 0 31 -7.5t9 -24.5v-664l170 82q29 14 46 -10q19 -28 26 -64l-242 -117v-438q0 -162 134 -162q64 0 118 23q19 -25 19 -57q0 -26 -49.5 -53t-120.5 -27q-112 0 -173 70.5t-61 209.5v371l-127 -62q-25 -12 -41 9q-16 26 -22 69z" />
<glyph unicode="&#x143;" horiz-adv-x="1470" d="M209 41v1358q26 20 56.5 32.5t51.5 12.5q30 0 48 -27l757 -1194v1211h90q28 0 39 -9t11 -32v-1358q-26 -20 -57 -32.5t-52 -12.5q-27 0 -47 26l-758 1194v-1210h-90q-28 0 -38.5 9t-10.5 32zM582 1616l256 245q19 19 34 19q20 0 35 -15q28 -28 43 -63l-272 -231 q-16 -13 -29 -13q-11 0 -24 13z" />
<glyph unicode="&#x144;" horiz-adv-x="1312" d="M184 39v1051q54 14 92 14q43 0 43 -35v-100q183 149 396 149q189 0 288 -121.5t99 -337.5v-448q0 -62 19.5 -88.5t58.5 -26.5h37q8 -28 8 -49q0 -24 -29.5 -42.5t-77.5 -18.5q-69 0 -110 53t-41 158v465q0 337 -281 337q-95 0 -193 -39t-174 -112v-848h-86 q-28 0 -38.5 8.5t-10.5 30.5zM488 1260l256 245q19 19 34 19q20 0 35 -15q28 -28 43 -63l-272 -231q-16 -13 -29 -13q-11 0 -24 13z" />
<glyph unicode="&#x145;" horiz-adv-x="1470" d="M209 41v1358q26 20 56.5 32.5t51.5 12.5q30 0 48 -27l757 -1194v1211h90q28 0 39 -9t11 -32v-1358q-26 -20 -57 -32.5t-52 -12.5q-27 0 -47 26l-758 1194v-1210h-90q-28 0 -38.5 9t-10.5 32zM631 -434q86 86 98 178q-30 6 -50 30t-20 60q0 38 25 62t61 24q37 0 63 -25 t26 -69q0 -135 -84 -229q-28 -34 -57 -52.5t-38 -13.5q-8 3 -15.5 14t-8.5 21z" />
<glyph unicode="&#x146;" horiz-adv-x="1312" d="M184 39v1051q54 14 92 14q43 0 43 -35v-100q183 149 396 149q189 0 288 -121.5t99 -337.5v-448q0 -62 19.5 -88.5t58.5 -26.5h37q8 -28 8 -49q0 -24 -29.5 -42.5t-77.5 -18.5q-69 0 -110 53t-41 158v465q0 337 -281 337q-95 0 -193 -39t-174 -112v-848h-86 q-28 0 -38.5 8.5t-10.5 30.5zM555 -434q86 86 98 178q-30 6 -49.5 30t-19.5 60q0 38 25 62t61 24q37 0 62.5 -25t25.5 -69q0 -135 -84 -229q-28 -34 -57 -52.5t-37 -13.5q-8 3 -16 14t-9 21z" />
<glyph unicode="&#x147;" horiz-adv-x="1470" d="M209 41v1358q26 20 56.5 32.5t51.5 12.5q30 0 48 -27l757 -1194v1211h90q28 0 39 -9t11 -32v-1358q-26 -20 -57 -32.5t-52 -12.5q-27 0 -47 26l-758 1194v-1210h-90q-28 0 -38.5 9t-10.5 32zM430 1808q39 70 72 70q18 0 59 -41l176 -176l224 223l57 -53q12 -12 12 -21 q0 -12 -16 -28l-242 -236h-39q-18 0 -27.5 4t-23.5 17z" />
<glyph unicode="&#x148;" horiz-adv-x="1312" d="M184 39v1051q54 14 92 14q43 0 43 -35v-100q183 149 396 149q189 0 288 -121.5t99 -337.5v-448q0 -62 19.5 -88.5t58.5 -26.5h37q8 -28 8 -49q0 -24 -29.5 -42.5t-77.5 -18.5q-69 0 -110 53t-41 158v465q0 337 -281 337q-95 0 -193 -39t-174 -112v-848h-86 q-28 0 -38.5 8.5t-10.5 30.5zM336 1452q39 70 72 70q18 0 59 -41l176 -176l223 223l58 -53q12 -12 12 -21q0 -13 -16 -29l-242 -235h-39q-29 0 -51 20z" />
<glyph unicode="&#x149;" horiz-adv-x="1353" d="M29 1120q94 91 106 199q-31 6 -51.5 32t-20.5 64q0 39 26 64.5t63 25.5q39 0 65.5 -27t26.5 -77q0 -145 -94 -254q-29 -33 -57.5 -50.5t-37.5 -13.5q-18 9 -26 37zM223 39v1051q54 14 92 14q43 0 43 -35v-100q183 149 396 149q189 0 288 -121.5t99 -337.5v-448 q0 -62 19.5 -88.5t58.5 -26.5h36q9 -31 9 -49q0 -24 -29.5 -42.5t-77.5 -18.5q-69 0 -110 53t-41 158v465q0 337 -281 337q-95 0 -193 -39t-174 -112v-848h-86q-28 0 -38.5 8.5t-10.5 30.5z" />
<glyph unicode="&#x14a;" horiz-adv-x="1470" d="M209 41v1358q26 20 56.5 32.5t51.5 12.5q30 0 48 -27l757 -1192v1209h90q28 0 39 -9t11 -32v-1438q0 -180 -97 -309q-50 -68 -102 -100.5t-74 -22.5q-34 19 -43 55q176 156 176 381v33l-774 1216v-1208h-90q-28 0 -38.5 9t-10.5 32z" />
<glyph unicode="&#x14b;" horiz-adv-x="1298" d="M184 39v1051q54 14 92 14q43 0 43 -35v-100q183 149 396 149q189 0 288 -121.5t99 -337.5v-704q0 -181 -96 -309q-46 -60 -92 -91.5t-74 -31.5q-15 0 -32 17t-22 36q181 164 181 381v705q0 337 -281 337q-95 0 -193 -39t-174 -112v-848h-86q-28 0 -38.5 8.5t-10.5 30.5z " />
<glyph unicode="&#x14c;" d="M127 717q0 144 34.5 265.5t96 208.5t145 147.5t182 90t206.5 29.5q135 0 253.5 -47.5t210 -137.5t144.5 -233.5t53 -322.5t-53 -322.5t-144.5 -234t-210 -138t-253.5 -47.5q-136 0 -255 47.5t-211 138t-145 234t-53 322.5zM270 733q0 -155 42.5 -277.5t116 -199.5 t169.5 -117.5t207 -40.5q100 0 189 37t160 108.5t113 189.5t42 267q0 155 -42 277.5t-115.5 199.5t-170 117.5t-207.5 40.5q-100 0 -189 -37t-160 -108.5t-113 -189.5t-42 -267zM517 1706q0 31 8 63h499q21 0 29 -9.5t8 -35.5v-57h-516q-28 0 -28 39z" />
<glyph unicode="&#x14d;" horiz-adv-x="1286" d="M117 547q0 131 42 240.5t114 181t167.5 110.5t202.5 39t202.5 -39t167.5 -110.5t114 -181t42 -240.5t-42 -240.5t-114 -181t-167.5 -111t-202.5 -39.5t-202.5 39.5t-167.5 111t-114 181t-42 240.5zM252 559q0 -111 33 -201.5t89.5 -147t127.5 -86.5t151 -30 q75 0 142.5 28t121.5 81t85.5 138.5t31.5 193.5q0 111 -33 201t-89.5 146.5t-127.5 86.5t-151 30q-76 0 -143.5 -27.5t-121 -80.5t-85 -138.5t-31.5 -193.5zM371 1348q0 31 8 63h499q21 0 29 -9.5t8 -35.5v-57h-516q-28 0 -28 39z" />
<glyph unicode="&#x14e;" d="M127 717q0 144 34.5 265.5t96 208.5t145 147.5t182 90t206.5 29.5q135 0 253.5 -47.5t210 -137.5t144.5 -233.5t53 -322.5t-53 -322.5t-144.5 -234t-210 -138t-253.5 -47.5q-136 0 -255 47.5t-211 138t-145 234t-53 322.5zM270 733q0 -155 42.5 -277.5t116 -199.5 t169.5 -117.5t207 -40.5q100 0 189 37t160 108.5t113 189.5t42 267q0 155 -42 277.5t-115.5 199.5t-170 117.5t-207.5 40.5q-100 0 -189 -37t-160 -108.5t-113 -189.5t-42 -267zM502 1833q42 22 78 22q21 0 28.5 -7t12.5 -29q15 -75 58 -114.5t109 -39.5q70 0 117 45.5 t58 144.5h65q28 0 37 -8t6 -28q-13 -108 -88 -179t-195 -71q-116 0 -192.5 69t-93.5 195z" />
<glyph unicode="&#x14f;" horiz-adv-x="1286" d="M117 547q0 131 42 240.5t114 181t167.5 110.5t202.5 39t202.5 -39t167.5 -110.5t114 -181t42 -240.5t-42 -240.5t-114 -181t-167.5 -111t-202.5 -39.5t-202.5 39.5t-167.5 111t-114 181t-42 240.5zM252 559q0 -111 33 -201.5t89.5 -147t127.5 -86.5t151 -30 q75 0 142.5 28t121.5 81t85.5 138.5t31.5 193.5q0 111 -33 201t-89.5 146.5t-127.5 86.5t-151 30q-76 0 -143.5 -27.5t-121 -80.5t-85 -138.5t-31.5 -193.5zM356 1475q42 22 78 22q21 0 28.5 -7.5t12.5 -29.5q15 -75 58.5 -114t109.5 -39q69 0 116 45.5t58 144.5h66 q27 0 36.5 -8t6.5 -29q-13 -108 -88 -179t-195 -71q-116 0 -193 69.5t-94 195.5z" />
<glyph unicode="&#x150;" d="M127 717q0 144 34.5 265.5t96 208.5t145 147.5t182 90t206.5 29.5q135 0 253.5 -47.5t210 -137.5t144.5 -233.5t53 -322.5t-53 -322.5t-144.5 -234t-210 -138t-253.5 -47.5q-136 0 -255 47.5t-211 138t-145 234t-53 322.5zM270 733q0 -155 42.5 -277.5t116 -199.5 t169.5 -117.5t207 -40.5q100 0 189 37t160 108.5t113 189.5t42 267q0 155 -42 277.5t-115.5 199.5t-170 117.5t-207.5 40.5q-100 0 -189 -37t-160 -108.5t-113 -189.5t-42 -267zM475 1616l256 246q18 18 35 18q21 0 35 -14q27 -27 43 -64l-273 -231q-15 -12 -28 -12t-25 12z M774 1616l256 246q18 18 35 18q21 0 35 -14q27 -27 43 -64l-273 -231q-15 -12 -28 -12t-25 12z" />
<glyph unicode="&#x151;" horiz-adv-x="1286" d="M117 547q0 131 42 240.5t114 181t167.5 110.5t202.5 39t202.5 -39t167.5 -110.5t114 -181t42 -240.5t-42 -240.5t-114 -181t-167.5 -111t-202.5 -39.5t-202.5 39.5t-167.5 111t-114 181t-42 240.5zM252 559q0 -111 33 -201.5t89.5 -147t127.5 -86.5t151 -30 q75 0 142.5 28t121.5 81t85.5 138.5t31.5 193.5q0 111 -33 201t-89.5 146.5t-127.5 86.5t-151 30q-76 0 -143.5 -27.5t-121 -80.5t-85 -138.5t-31.5 -193.5zM330 1260l256 245q19 19 35 19q19 0 34 -15q28 -28 43 -63l-272 -232q-15 -12 -29 -12q-12 0 -24 12zM629 1260 l256 245q19 19 35 19q19 0 34 -15q28 -28 43 -63l-272 -232q-15 -12 -29 -12q-12 0 -24 12z" />
<glyph unicode="&#x152;" horiz-adv-x="1986" d="M127 717q0 142 34.5 263t95 208t141 148.5t173 91.5t191.5 30q157 0 252 -65v41h805q32 0 32 -41q0 -40 -10 -82h-688v-543h547q23 0 32 -11t9 -38v-72h-588v-305q0 -122 37.5 -171.5t118.5 -49.5h518q23 0 32 -11.5t9 -39.5v-70h-574q-131 0 -198 61q-131 -86 -314 -86 q-134 0 -251 47.5t-208 138t-143.5 234t-52.5 322.5zM270 733q0 -155 42.5 -278t116.5 -200t169.5 -117t206.5 -40q139 0 235 56q-26 65 -26 174v948q-112 59 -240 59q-101 0 -190 -37t-160 -108.5t-112.5 -189.5t-41.5 -267z" />
<glyph unicode="&#x153;" horiz-adv-x="2093" d="M117 547q0 131 42 239.5t113.5 180.5t167 111.5t203.5 39.5q149 0 273.5 -79t185.5 -218q63 139 185 218t272 79q190 0 310 -113.5t120 -289.5q0 -77 -27 -150q-19 -44 -45 -60t-76 -16h-670q17 -184 135 -289.5t283 -105.5q158 0 275 66q20 -27 20 -62q0 -40 -92 -81.5 t-221 -41.5q-158 0 -280.5 79t-186.5 218q-59 -141 -184 -219t-277 -78q-108 0 -203.5 39.5t-167 111t-113.5 180.5t-42 241zM252 559q0 -112 33 -202.5t89.5 -146.5t127.5 -86t151 -30q75 0 142.5 27.5t121 80.5t84.5 139t31 194v14q-2 108 -36 195t-90 142t-126.5 84 t-148.5 29q-75 0 -142.5 -27.5t-120.5 -80.5t-84.5 -138.5t-31.5 -193.5zM1171 606h664q20 48 20 105q0 130 -83.5 209t-221.5 79q-149 0 -258 -108t-121 -285z" />
<glyph unicode="&#x154;" horiz-adv-x="1339" d="M207 39v1395h405q254 0 405.5 -132t151.5 -364q0 -185 -96 -305.5t-258 -165.5q150 -241 283 -336q53 -39 98 -39h29q8 -21 8 -49q0 -27 -27.5 -47.5t-70.5 -20.5q-56 0 -117 43q-164 118 -336 426q-16 -2 -49 -2q-160 0 -287 41v-483h-90q-27 0 -38 8.5t-11 30.5z M346 596q115 -33 264 -33q190 0 304 98t114 277q0 182 -114.5 277.5t-307.5 95.5h-260v-715zM451 1616l256 245q19 19 34 19q20 0 35 -15q28 -28 43 -63l-272 -231q-16 -13 -29 -13q-11 0 -24 13z" />
<glyph unicode="&#x155;" horiz-adv-x="903" d="M184 39v1051q54 14 92 14q43 0 43 -35v-141q110 190 320 190q121 0 203 -49q37 -19 37 -47q0 -11 -11 -29q-26 -37 -63 -55q-79 61 -201 61q-96 0 -170.5 -64.5t-114.5 -191.5v-743h-86q-28 0 -38.5 8.5t-10.5 30.5zM320 1260l256 245q19 19 34 19q20 0 35 -15 q28 -28 43 -63l-272 -231q-16 -13 -29 -13q-11 0 -24 13z" />
<glyph unicode="&#x156;" horiz-adv-x="1339" d="M207 39v1395h405q254 0 405.5 -132t151.5 -364q0 -185 -96 -305.5t-258 -165.5q150 -241 283 -336q53 -39 98 -39h29q8 -21 8 -49q0 -27 -27.5 -47.5t-70.5 -20.5q-56 0 -117 43q-164 118 -336 426q-16 -2 -49 -2q-160 0 -287 41v-483h-90q-27 0 -38 8.5t-11 30.5z M346 596q115 -33 264 -33q190 0 304 98t114 277q0 182 -114.5 277.5t-307.5 95.5h-260v-715zM555 -434q86 86 98 178q-30 6 -49.5 30t-19.5 60q0 38 25 62t61 24q37 0 62.5 -25t25.5 -69q0 -135 -84 -229q-28 -34 -57 -52.5t-37 -13.5q-8 3 -16 14t-9 21z" />
<glyph unicode="&#x157;" horiz-adv-x="903" d="M139 -434q87 87 99 178q-30 6 -50 30t-20 60q0 38 25 62t61 24q37 0 62.5 -25t25.5 -69q0 -135 -84 -229q-28 -34 -57 -52.5t-37 -13.5q-8 3 -16 14t-9 21zM184 39v1051q54 14 92 14q43 0 43 -35v-141q110 190 320 190q121 0 203 -49q37 -19 37 -47q0 -11 -11 -29 q-26 -37 -63 -55q-79 61 -201 61q-96 0 -170.5 -64.5t-114.5 -191.5v-743h-86q-28 0 -38.5 8.5t-10.5 30.5z" />
<glyph unicode="&#x158;" horiz-adv-x="1339" d="M207 39v1395h405q254 0 405.5 -132t151.5 -364q0 -185 -96 -305.5t-258 -165.5q150 -241 283 -336q53 -39 98 -39h29q8 -21 8 -49q0 -27 -27.5 -47.5t-70.5 -20.5q-56 0 -117 43q-164 118 -336 426q-16 -2 -49 -2q-160 0 -287 41v-483h-90q-27 0 -38 8.5t-11 30.5z M330 1808q39 70 71 70q19 0 60 -41l176 -176l223 223l58 -53q12 -12 12 -21q0 -11 -17 -28l-241 -236h-39q-18 0 -27.5 4t-23.5 17zM346 596q115 -33 264 -33q190 0 304 98t114 277q0 182 -114.5 277.5t-307.5 95.5h-260v-715z" />
<glyph unicode="&#x159;" horiz-adv-x="903" d="M184 39v1051q54 14 92 14q43 0 43 -35v-141q110 190 320 190q121 0 203 -49q37 -19 37 -47q0 -11 -11 -29q-26 -37 -63 -55q-79 61 -201 61q-96 0 -170.5 -64.5t-114.5 -191.5v-743h-86q-28 0 -38.5 8.5t-10.5 30.5zM199 1452q39 70 71 70q19 0 60 -41l176 -176l223 223 l57 -53q13 -13 13 -21q0 -12 -17 -29l-241 -235h-39q-18 0 -27.5 4t-23.5 16z" />
<glyph unicode="&#x15a;" horiz-adv-x="1214" d="M137 1075q0 169 127.5 276t327.5 107q161 0 284 -68t181 -171q14 -25 14 -45q0 -22 -27 -37q-41 -21 -94 -25q-47 107 -139.5 165t-218.5 58q-139 0 -226 -69.5t-87 -184.5q0 -109 81.5 -180t276.5 -131q232 -72 340 -168t108 -252q0 -170 -129.5 -272.5t-349.5 -102.5 q-109 0 -206.5 24t-151 57.5t-53.5 64.5q0 36 20 63q174 -88 379 -88q173 0 262.5 68.5t89.5 179.5q0 108 -85.5 180t-272.5 125q-224 62 -337.5 165t-113.5 261zM424 1616l256 245q19 19 34 19q20 0 35 -15q28 -28 43 -63l-272 -231q-16 -13 -29 -13q-11 0 -24 13z" />
<glyph unicode="&#x15b;" horiz-adv-x="1019" d="M137 815q0 134 103 218.5t268 84.5q125 0 223 -48.5t148 -131.5q10 -17 10 -33q0 -22 -29 -39q-41 -21 -86 -28q-33 77 -105.5 119t-164.5 42q-101 0 -166.5 -52t-65.5 -136q0 -82 66 -132.5t223 -90.5q180 -46 261 -121t81 -195q0 -138 -102.5 -217.5t-290.5 -79.5 q-132 0 -236 42.5t-104 82.5q0 41 20 64q144 -72 306 -72q272 0 272 172q0 74 -57.5 123t-194.5 82q-195 45 -287 130t-92 216zM328 1260l256 245q19 19 34 19q20 0 35 -15q28 -28 43 -63l-272 -231q-16 -13 -29 -13q-11 0 -24 13z" />
<glyph unicode="&#x15c;" horiz-adv-x="1214" d="M137 1075q0 169 127.5 276t327.5 107q161 0 284 -68t181 -171q14 -25 14 -45q0 -22 -27 -37q-41 -21 -94 -25q-47 107 -139.5 165t-218.5 58q-139 0 -226 -69.5t-87 -184.5q0 -109 81.5 -180t276.5 -131q232 -72 340 -168t108 -252q0 -170 -129.5 -272.5t-349.5 -102.5 q-109 0 -206.5 24t-151 57.5t-53.5 64.5q0 36 20 63q174 -88 379 -88q173 0 262.5 68.5t89.5 179.5q0 108 -85.5 180t-272.5 125q-224 62 -337.5 165t-113.5 261zM293 1616q0 12 14 26l242 236h39q18 0 27.5 -4t23.5 -17l254 -246l-47 -51q-14 -14 -27 -14q-16 0 -36 20 l-199 197l-215 -215q-40 15 -60 35q-16 13 -16 33z" />
<glyph unicode="&#x15d;" horiz-adv-x="1019" d="M137 815q0 134 103 218.5t268 84.5q125 0 223 -48.5t148 -131.5q10 -17 10 -33q0 -22 -29 -39q-41 -21 -86 -28q-33 77 -105.5 119t-164.5 42q-101 0 -166.5 -52t-65.5 -136q0 -82 66 -132.5t223 -90.5q180 -46 261 -121t81 -195q0 -138 -102.5 -217.5t-290.5 -79.5 q-132 0 -236 42.5t-104 82.5q0 41 20 64q144 -72 306 -72q272 0 272 172q0 74 -57.5 123t-194.5 82q-195 45 -287 130t-92 216zM209 1260q0 12 14 26l242 236h39q18 0 27.5 -4t23.5 -17l254 -246l-47 -51q-14 -14 -27 -14q-16 0 -36 20l-199 197l-215 -215q-40 15 -60 35 q-16 13 -16 33z" />
<glyph unicode="&#x15e;" horiz-adv-x="1214" d="M137 1075q0 169 127.5 276t327.5 107q161 0 284 -68t181 -171q14 -25 14 -45q0 -22 -27 -37q-41 -21 -94 -25q-47 107 -139.5 165t-218.5 58q-139 0 -226 -69.5t-87 -184.5q0 -109 81.5 -180t276.5 -131q232 -72 340 -168t108 -252q0 -146 -96 -242.5t-264 -121.5 l-57 -105q97 -13 150.5 -61.5t53.5 -122.5q0 -87 -62 -135.5t-169 -48.5q-78 0 -139 22v53q0 31 26 31q10 0 45 -6t56 -6q61 0 95 24t34 68q0 107 -201 125q-25 9 -25 24q0 3 5 13l61 114q-107 1 -202.5 25t-148 57t-52.5 64q0 36 20 63q174 -88 379 -88q173 0 262.5 68.5 t89.5 179.5q0 108 -85.5 180t-272.5 125q-224 62 -337.5 165t-113.5 261z" />
<glyph unicode="&#x15f;" horiz-adv-x="1019" d="M137 815q0 134 103 218.5t268 84.5q125 0 223 -48.5t148 -131.5q10 -17 10 -33q0 -22 -29 -39q-41 -21 -86 -28q-33 77 -105.5 119t-164.5 42q-101 0 -166.5 -52t-65.5 -136q0 -82 66 -132.5t223 -90.5q180 -46 261 -121t81 -195q0 -119 -75.5 -194.5t-217.5 -95.5 l-55 -101q97 -14 151 -62.5t54 -121.5q0 -87 -62.5 -135.5t-169.5 -48.5q-78 0 -139 22v53q0 31 27 31q10 0 44 -6t56 -6q61 0 95 24t34 68q0 107 -201 125q-24 9 -24 24q0 5 4 13l61 114q-125 4 -220 45.5t-95 79.5q0 41 20 64q144 -72 306 -72q272 0 272 172 q0 74 -57.5 123t-194.5 82q-195 45 -287 130t-92 216z" />
<glyph unicode="&#x160;" horiz-adv-x="1214" d="M137 1075q0 169 127.5 276t327.5 107q161 0 284 -68t181 -171q14 -25 14 -45q0 -22 -27 -37q-41 -21 -94 -25q-47 107 -139.5 165t-218.5 58q-139 0 -226 -69.5t-87 -184.5q0 -109 81.5 -180t276.5 -131q232 -72 340 -168t108 -252q0 -170 -129.5 -272.5t-349.5 -102.5 q-109 0 -206.5 24t-151 57.5t-53.5 64.5q0 36 20 63q174 -88 379 -88q173 0 262.5 68.5t89.5 179.5q0 108 -85.5 180t-272.5 125q-224 62 -337.5 165t-113.5 261zM287 1808q39 70 71 70q19 0 60 -41l176 -176l223 223l57 -53q13 -13 13 -21q0 -11 -17 -28l-241 -236h-39 q-18 0 -27.5 4t-23.5 17z" />
<glyph unicode="&#x161;" horiz-adv-x="1019" d="M137 815q0 134 103 218.5t268 84.5q125 0 223 -48.5t148 -131.5q10 -17 10 -33q0 -22 -29 -39q-41 -21 -86 -28q-33 77 -105.5 119t-164.5 42q-101 0 -166.5 -52t-65.5 -136q0 -82 66 -132.5t223 -90.5q180 -46 261 -121t81 -195q0 -138 -102.5 -217.5t-290.5 -79.5 q-132 0 -236 42.5t-104 82.5q0 41 20 64q144 -72 306 -72q272 0 272 172q0 74 -57.5 123t-194.5 82q-195 45 -287 130t-92 216zM205 1452q39 70 71 70q19 0 60 -41l176 -176l223 223l58 -53q12 -12 12 -21q0 -12 -17 -29l-241 -235h-39q-18 0 -27.5 4t-23.5 16z" />
<glyph unicode="&#x162;" horiz-adv-x="1243" d="M92 1352q0 40 10 82h1008q22 0 31.5 -12t9.5 -40v-71h-461v-1311l-65 -119q97 -13 150.5 -61.5t53.5 -122.5q0 -87 -62 -135.5t-169 -48.5q-78 0 -139 22v53q0 31 26 31q9 0 44 -6t57 -6q61 0 95 24t34 68q0 107 -201 125q-25 9 -25 24q0 3 5 13l77 143q-20 6 -20 35 v1272h-426q-33 0 -33 41z" />
<glyph unicode="&#x163;" horiz-adv-x="919" d="M70 1016q0 40 10 78h199v309q41 14 92 14q41 0 41 -33v-290h368q23 0 32 -11t9 -39v-67h-409v-647q0 -120 57 -178t156 -58q109 0 182 37q20 -23 20 -61q0 -31 -65 -63t-158 -32h-2l-51 -94q97 -14 151 -62.5t54 -121.5q0 -87 -62.5 -135.5t-169.5 -48.5q-78 0 -139 22 v53q0 31 27 31q10 0 44 -6t56 -6q61 0 95 24t34 68q0 107 -201 125q-24 9 -24 24q0 5 4 13l72 131q-101 31 -157 119t-56 221v645h-177q-32 0 -32 39z" />
<glyph unicode="&#x164;" horiz-adv-x="1243" d="M92 1352q0 40 10 82h1008q22 0 31.5 -12t9.5 -40v-71h-461v-1311h-90q-27 0 -38 8.5t-11 30.5v1272h-426q-33 0 -33 41zM314 1808q39 70 71 70q19 0 60 -41l176 -176l223 223l58 -53q12 -12 12 -21q0 -12 -17 -29l-241 -235h-39q-29 0 -51 20z" />
<glyph unicode="&#x165;" horiz-adv-x="1091" d="M70 1016q0 40 10 78h199v309q41 14 92 14q41 0 41 -33v-290h368q23 0 32 -11t9 -39v-67h-409v-647q0 -120 57 -178t156 -58q109 0 182 37q20 -23 20 -61q0 -31 -65 -63t-158 -32q-150 0 -237.5 94.5t-87.5 262.5v645h-177q-32 0 -32 39zM858 1120q95 92 107 199 q-31 6 -51.5 32t-20.5 64q0 39 25.5 64.5t62.5 25.5q39 0 65.5 -27t26.5 -77q0 -145 -94 -254q-29 -33 -57 -50.5t-37 -13.5q-19 10 -27 37z" />
<glyph unicode="&#x166;" horiz-adv-x="1243" d="M92 1352q0 40 10 82h1008q22 0 31.5 -12t9.5 -40v-71h-461v-547h221q22 0 30.5 -10.5t8.5 -38.5v-47h-260v-668h-90q-27 0 -38 8.5t-11 30.5v629h-227q-33 0 -33 32t8 64h252v547h-426q-33 0 -33 41z" />
<glyph unicode="&#x167;" horiz-adv-x="919" d="M70 1016q0 40 10 78h199v309q41 14 92 14q41 0 41 -33v-290h368q23 0 32 -11t9 -39v-67h-409v-377h274q22 0 31.5 -11t9.5 -38v-45h-315v-176q0 -120 57 -178t156 -58q109 0 182 37q20 -23 20 -61q0 -31 -65 -63t-158 -32q-150 0 -237.5 94.5t-87.5 262.5v174h-113 q-35 0 -35 33q0 29 8 61h140v377h-177q-32 0 -32 39z" />
<glyph unicode="&#x168;" horiz-adv-x="1472" d="M197 598v829q49 17 96 17q43 0 43 -35v-821q0 -223 109 -357.5t290 -134.5q182 0 292 134.5t110 357.5v846h90q26 0 37.5 -9.5t11.5 -31.5v-795q0 -287 -146.5 -455t-394.5 -168t-393 168t-145 455zM444 1659q0 12 10 57q41 115 158 115q69 0 143 -66q65 -57 99 -57 q31 0 47 25t22 94l74 -17q36 -8 27 -49q-12 -74 -55.5 -115t-110.5 -41q-72 0 -144 66q-60 57 -98 57q-31 0 -47.5 -25.5t-22.5 -91.5q-46 -3 -77 11q-25 9 -25 37z" />
<glyph unicode="&#x169;" horiz-adv-x="1253" d="M166 461v629q51 14 92 14q43 0 43 -35v-616q0 -163 93.5 -262t232.5 -99t232 98.5t93 262.5v641h84q27 0 38 -9.5t11 -31.5v-592q0 -222 -127.5 -354t-330.5 -132q-204 0 -332.5 132t-128.5 354zM334 1300q0 13 10 58q41 115 158 115q69 0 143 -66q65 -57 98 -57 q31 0 47.5 25t22.5 93l74 -16q20 -4 25.5 -15.5t0.5 -33.5q-12 -74 -55 -115t-110 -41q-72 0 -144 66q-60 57 -98 57q-31 0 -47.5 -25.5t-22.5 -91.5q-47 -3 -78 11q-24 9 -24 36z" />
<glyph unicode="&#x16a;" horiz-adv-x="1472" d="M197 598v829q49 17 96 17q43 0 43 -35v-821q0 -223 109 -357.5t290 -134.5q182 0 292 134.5t110 357.5v846h90q26 0 37.5 -9.5t11.5 -31.5v-795q0 -287 -146.5 -455t-394.5 -168t-393 168t-145 455zM463 1706q0 31 8 63h499q21 0 29 -9.5t8 -35.5v-57h-516q-28 0 -28 39z " />
<glyph unicode="&#x16b;" horiz-adv-x="1253" d="M166 461v629q51 14 92 14q43 0 43 -35v-616q0 -163 93.5 -262t232.5 -99t232 98.5t93 262.5v641h84q27 0 38 -9.5t11 -31.5v-592q0 -222 -127.5 -354t-330.5 -132q-204 0 -332.5 132t-128.5 354zM355 1348q0 31 8 63h499q21 0 29 -9.5t8 -35.5v-57h-516q-28 0 -28 39z " />
<glyph unicode="&#x16c;" horiz-adv-x="1472" d="M197 598v829q49 17 96 17q43 0 43 -35v-821q0 -223 109 -357.5t290 -134.5q182 0 292 134.5t110 357.5v846h90q26 0 37.5 -9.5t11.5 -31.5v-795q0 -287 -146.5 -455t-394.5 -168t-393 168t-145 455zM449 1833q42 22 77 22q21 0 28.5 -7t12.5 -29q15 -75 58.5 -114.5 t109.5 -39.5q69 0 116 45.5t58 144.5h66q28 0 37 -8t6 -28q-13 -108 -88 -179t-195 -71q-116 0 -192.5 69t-93.5 195z" />
<glyph unicode="&#x16d;" horiz-adv-x="1253" d="M166 461v629q51 14 92 14q43 0 43 -35v-616q0 -163 93.5 -262t232.5 -99t232 98.5t93 262.5v641h84q27 0 38 -9.5t11 -31.5v-592q0 -222 -127.5 -354t-330.5 -132q-204 0 -332.5 132t-128.5 354zM340 1475q42 22 78 22q21 0 28.5 -7.5t12.5 -29.5q15 -75 58.5 -114 t109.5 -39q69 0 116 45.5t58 144.5h65q27 0 36.5 -8t6.5 -29q-13 -108 -87.5 -179t-194.5 -71q-116 0 -193 69.5t-94 195.5z" />
<glyph unicode="&#x16e;" horiz-adv-x="1472" d="M197 598v829q49 17 96 17q43 0 43 -35v-821q0 -223 109 -357.5t290 -134.5q182 0 292 134.5t110 357.5v846h90q26 0 37.5 -9.5t11.5 -31.5v-795q0 -287 -146.5 -455t-394.5 -168t-393 168t-145 455zM545 1718q0 78 54 130.5t136 52.5q80 0 135.5 -52.5t55.5 -130.5 q0 -77 -55.5 -129.5t-135.5 -52.5q-82 0 -136 52t-54 130zM633 1724q0 -51 29.5 -80.5t76.5 -29.5q42 0 70.5 28t28.5 70q0 51 -31 81t-78 30q-41 0 -68.5 -28t-27.5 -71z" />
<glyph unicode="&#x16f;" horiz-adv-x="1253" d="M166 461v629q51 14 92 14q43 0 43 -35v-616q0 -163 93.5 -262t232.5 -99t232 98.5t93 262.5v641h84q27 0 38 -9.5t11 -31.5v-592q0 -222 -127.5 -354t-330.5 -132q-204 0 -332.5 132t-128.5 354zM436 1362q0 78 54.5 130t136.5 52q80 0 135 -52t55 -130t-55 -130 t-135 -52q-82 0 -136.5 52t-54.5 130zM525 1368q0 -51 29.5 -80.5t76.5 -29.5q42 0 70 28t28 70q0 51 -30.5 80.5t-77.5 29.5q-41 0 -68.5 -27.5t-27.5 -70.5z" />
<glyph unicode="&#x170;" horiz-adv-x="1472" d="M197 598v829q49 17 96 17q43 0 43 -35v-821q0 -223 109 -357.5t290 -134.5q182 0 292 134.5t110 357.5v846h90q26 0 37.5 -9.5t11.5 -31.5v-795q0 -287 -146.5 -455t-394.5 -168t-393 168t-145 455zM477 1616l256 246q18 18 35 18q21 0 35 -14q27 -27 43 -64l-273 -231 q-15 -12 -28 -12t-25 12zM776 1616l256 246q18 18 35 18q21 0 35 -14q27 -27 43 -64l-273 -231q-15 -12 -28 -12t-25 12z" />
<glyph unicode="&#x171;" horiz-adv-x="1253" d="M166 461v629q51 14 92 14q43 0 43 -35v-616q0 -163 93.5 -262t232.5 -99t232 98.5t93 262.5v641h84q27 0 38 -9.5t11 -31.5v-592q0 -222 -127.5 -354t-330.5 -132q-204 0 -332.5 132t-128.5 354zM328 1260l256 245q19 19 34 19q20 0 35 -15q28 -28 43 -63l-272 -232 q-15 -12 -29 -12q-12 0 -24 12zM627 1260l256 245q19 19 35 19q19 0 34 -15q28 -28 43 -63l-272 -232q-15 -12 -29 -12q-12 0 -24 12z" />
<glyph unicode="&#x172;" horiz-adv-x="1472" d="M197 598v829q49 17 96 17q43 0 43 -35v-821q0 -223 109 -357.5t290 -134.5q182 0 292 134.5t110 357.5v846h90q26 0 37.5 -9.5t11.5 -31.5v-795q0 -247 -111 -407.5t-305 -200.5q-137 -106 -137 -232q0 -48 32.5 -79t96.5 -31q46 0 80 12q43 15 43 -29v-53 q-54 -29 -139 -29q-107 0 -167.5 54t-60.5 145q0 59 29.5 120t83.5 107q-242 6 -383 173t-141 450z" />
<glyph unicode="&#x173;" horiz-adv-x="1253" d="M166 461v629q51 14 92 14q43 0 43 -35v-616q0 -163 93.5 -262t232.5 -99t232 98.5t93 262.5v641h84q27 0 38 -9.5t11 -31.5v-592q0 -187 -91.5 -311t-245.5 -160q-140 -106 -140 -232q0 -48 32.5 -79t96.5 -31q45 0 80 12q43 15 43 -29v-53q-54 -29 -139 -29 q-107 0 -167 54t-60 145q0 59 29 120t83 107q-197 8 -318.5 138t-121.5 348z" />
<glyph unicode="&#x174;" horiz-adv-x="2269" d="M104 1399q56 43 107 43q33 0 43 -35l379 -1241q255 531 405 1268h129q28 0 43.5 -9t22.5 -32l362 -1225q278 574 414 1266h96q52 0 43 -43q-144 -711 -458 -1354q-19 -37 -66 -37h-121l-366 1257q-140 -647 -414 -1220q-16 -37 -66 -37h-116zM844 1616q0 12 14 26 l242 236h39q18 0 27.5 -4t23.5 -17l254 -246l-47 -51q-14 -14 -27 -14q-16 0 -36 20l-199 197l-215 -215q-40 15 -60 35q-16 13 -16 33z" />
<glyph unicode="&#x175;" horiz-adv-x="1787" d="M98 1063q62 45 107 45q29 0 37 -33l286 -928q185 395 285 947h113q43 0 57 -43l289 -904q196 417 278 947h86q51 0 43 -45q-82 -522 -317 -1014q-17 -35 -57 -35h-121l-281 915q-85 -442 -289 -882q-9 -19 -21.5 -26t-35.5 -7h-117zM610 1260q0 12 14 26l242 236h39 q18 0 27.5 -4t23.5 -17l254 -246l-47 -51q-14 -14 -27 -14q-16 0 -36 20l-199 197l-215 -215q-40 15 -60 35q-16 13 -16 33z" />
<glyph unicode="&#x176;" horiz-adv-x="1347" d="M84 1378q62 62 106 62q25 0 37 -21l443 -796q298 380 454 811h90q48 0 48 -29q0 -10 -7 -31q-182 -476 -522 -889v-485h-90q-28 0 -38.5 8.5t-10.5 30.5v440zM387 1616q0 12 14 26l242 236h39q18 0 27.5 -4t23.5 -16l254 -246l-47 -51q-15 -15 -27 -15q-15 0 -36 21 l-199 196l-215 -215q-40 15 -60 35q-16 13 -16 33z" />
<glyph unicode="&#x177;" horiz-adv-x="1284" d="M180 434v656q41 14 94 14q41 0 41 -33v-639q0 -338 281 -338q95 0 193.5 39t173.5 111v850h86q27 0 38 -9.5t11 -31.5v-1035q0 -111 -35.5 -206t-102 -166.5t-171 -112.5t-234.5 -41q-162 0 -261 75t-99 197q0 161 163 263q-178 108 -178 407zM330 -225 q0 -73 62.5 -119.5t162.5 -46.5q195 0 301.5 106t106.5 289v125q-81 -72 -184.5 -113t-211.5 -41q-52 0 -106 13q-131 -88 -131 -213zM344 1260q0 12 14 26l242 236h39q18 0 27.5 -4t23.5 -17l254 -246l-47 -51q-14 -14 -27 -14q-16 0 -36 20l-199 197l-215 -215 q-40 15 -60 35q-16 13 -16 33z" />
<glyph unicode="&#x178;" horiz-adv-x="1343" d="M82 1378q62 62 106 62q25 0 37 -21l443 -796q298 380 454 811h90q48 0 48 -29q0 -10 -7 -31q-182 -476 -522 -889v-485h-90q-28 0 -38.5 8.5t-10.5 30.5v440zM410 1722q0 38 23 61t59 23t62 -25t26 -65q0 -39 -23 -62.5t-59 -23.5q-35 0 -61.5 25.5t-26.5 66.5zM760 1722 q0 38 23 61t57 23q36 0 62 -25t26 -65q0 -39 -23 -62.5t-59 -23.5q-35 0 -60.5 25.5t-25.5 66.5z" />
<glyph unicode="&#x179;" horiz-adv-x="1241" d="M127 98l805 1213h-739q-35 0 -35 41q0 32 12 82h860q36 0 53 -25q18 -29 25 -74l-805 -1214h780q22 0 31.5 -11.5t9.5 -39.5v-70h-919q-36 0 -53 25q-19 30 -25 73zM475 1616l256 246q18 18 35 18q21 0 35 -14q27 -27 43 -64l-273 -231q-15 -12 -28 -12t-25 12z" />
<glyph unicode="&#x17a;" horiz-adv-x="1030" d="M115 96l633 881h-582q-35 0 -35 39q0 40 10 78h699q33 0 49 -23q22 -29 31 -74l-633 -880h610q22 0 30.5 -11.5t8.5 -39.5v-66h-741q-34 0 -50 23q-21 27 -30 73zM365 1260l256 245q19 19 34 19q20 0 35 -15q28 -28 43 -63l-272 -231q-16 -13 -29 -13q-11 0 -24 13z" />
<glyph unicode="&#x17b;" horiz-adv-x="1241" d="M127 98l805 1213h-739q-35 0 -35 41q0 32 12 82h860q36 0 53 -25q18 -29 25 -74l-805 -1214h780q22 0 31.5 -11.5t9.5 -39.5v-70h-919q-36 0 -53 25q-19 30 -25 73zM526 1722q0 37 23.5 60.5t58.5 23.5q36 0 62 -25t26 -65q0 -39 -23 -62.5t-59 -23.5q-35 0 -61.5 25.5 t-26.5 66.5z" />
<glyph unicode="&#x17c;" horiz-adv-x="1030" d="M115 96l633 881h-582q-35 0 -35 39q0 40 10 78h699q33 0 49 -23q22 -29 31 -74l-633 -880h610q22 0 30.5 -11.5t8.5 -39.5v-66h-741q-34 0 -50 23q-21 27 -30 73zM424 1366q0 37 23.5 60.5t58.5 23.5q36 0 62 -25t26 -65q0 -39 -23 -62.5t-59 -23.5q-35 0 -61.5 25.5 t-26.5 66.5z" />
<glyph unicode="&#x17d;" horiz-adv-x="1241" d="M127 98l805 1213h-739q-35 0 -35 41q0 32 12 82h860q36 0 53 -25q18 -29 25 -74l-805 -1214h780q22 0 31.5 -11.5t9.5 -39.5v-70h-919q-36 0 -53 25q-19 30 -25 73zM322 1808q39 70 71 70q19 0 60 -41l176 -176l223 223l57 -53q13 -13 13 -21q0 -11 -17 -28l-241 -236 h-39q-28 0 -52 21z" />
<glyph unicode="&#x17e;" horiz-adv-x="1030" d="M115 96l633 881h-582q-35 0 -35 39q0 40 10 78h699q33 0 49 -23q22 -29 31 -74l-633 -880h610q22 0 30.5 -11.5t8.5 -39.5v-66h-741q-34 0 -50 23q-21 27 -30 73zM221 1452q39 70 72 70q18 0 59 -41l176 -176l224 223l57 -53q12 -12 12 -21q0 -13 -16 -29l-242 -235h-39 q-18 0 -27.5 4t-23.5 16z" />
<glyph unicode="&#x17f;" horiz-adv-x="866" d="M68 1016q0 40 10 78h219v73q0 169 85 261t234 92q92 0 165 -30.5t73 -57.5q0 -32 -20 -64q-74 33 -191 33q-211 0 -211 -223v-1178h-86q-28 0 -38.5 8.5t-10.5 30.5v938h-195q-34 0 -34 39z" />
<glyph unicode="&#x191;" horiz-adv-x="1126" d="M31 -422q176 159 176 381v1475h805q32 0 32 -41q0 -40 -10 -82h-688v-547h549q22 0 30.5 -10.5t8.5 -38.5v-72h-588v-686q0 -80 -21 -152.5t-52.5 -122t-68 -87t-67.5 -55t-51 -17.5q-14 0 -31.5 17t-23.5 38z" />
<glyph unicode="&#x192;" horiz-adv-x="866" d="M-125 -418q0 30 21 64q74 -33 190 -33q211 0 211 223v1141h-195q-34 0 -34 39q0 40 10 78h219v73q0 169 85 261t234 92q92 0 165 -30.5t73 -57.5q0 -32 -20 -64q-74 33 -191 33q-211 0 -211 -223v-84h348q22 0 31.5 -12t9.5 -40v-65h-389v-1131q0 -169 -85 -260.5 t-234 -91.5q-92 0 -165 30.5t-73 57.5z" />
<glyph unicode="&#x1fa;" horiz-adv-x="1359" d="M55 29q0 6 4 18l516 1335q-41 24 -64.5 65t-23.5 91q0 76 55.5 129t135.5 53q81 0 135.5 -52.5t54.5 -129.5q0 -50 -23.5 -91t-64.5 -65l535 -1382h-101q-27 0 -40 8t-19 27l-133 356h-686l-148 -391h-88q-45 0 -45 29zM379 512h598l-299 791zM541 1806l190 185 q16 16 35 16q15 0 27 -12q21 -18 43 -60l-211 -174q-11 -8 -23 -8q-10 0 -20 10zM575 1542q0 -50 31 -79t78 -29q40 0 68 28t28 70q0 50 -29.5 79t-76.5 29q-42 0 -70.5 -28t-28.5 -70z" />
<glyph unicode="&#x1fb;" horiz-adv-x="1218" d="M115 319q0 166 116.5 260.5t311.5 94.5q183 0 334 -74v113q0 143 -90.5 214.5t-251.5 71.5q-182 0 -308 -69q-20 23 -20 61q0 19 27.5 41t73.5 41t114.5 32t140.5 13q207 0 327 -106t120 -307v-494q0 -62 19.5 -88.5t57.5 -26.5h37q9 -31 9 -49q0 -23 -28.5 -42 t-70.5 -19q-64 0 -106.5 49t-48.5 137q-60 -92 -160.5 -144.5t-229.5 -52.5q-169 0 -271.5 95.5t-102.5 248.5zM250 324q0 -108 74.5 -170t183.5 -62q111 0 208.5 56.5t160.5 170.5v175q-63 28 -152 44.5t-170 16.5q-144 0 -224.5 -62t-80.5 -169zM395 1362q0 76 55.5 129 t135.5 53q81 0 135.5 -52.5t54.5 -129.5q0 -78 -54 -130t-136 -52q-80 0 -135.5 52.5t-55.5 129.5zM449 1630l190 185q16 16 35 16q14 0 26 -12q21 -18 43 -60l-211 -174q-11 -8 -22 -8t-21 10zM483 1366q0 -50 31 -79.5t78 -29.5q40 0 68 28.5t28 70.5q0 50 -29.5 79 t-76.5 29q-42 0 -70.5 -28t-28.5 -70z" />
<glyph unicode="&#x1fc;" horiz-adv-x="1802" d="M38.5 12q-10.5 12 0.5 35l694 1354q68 33 154 33h747q33 0 33 -41q0 -40 -10 -82h-688v-543h549q21 0 29.5 -11t8.5 -38v-72h-587v-305q0 -126 34 -173.5t123 -47.5h519q21 0 29.5 -11.5t8.5 -39.5v-70h-573q-148 0 -213.5 77.5t-65.5 250.5v63h-464l-197 -391h-92 q-29 0 -39.5 12zM426 512h405v801zM981 1616l256 245q19 19 34 19q20 0 35 -15q28 -28 43 -63l-272 -231q-16 -13 -29 -13q-11 0 -24 13z" />
<glyph unicode="&#x1fd;" horiz-adv-x="1933" d="M115 317q0 166 116.5 261.5t311.5 95.5q181 0 334 -78v117q0 143 -90.5 214.5t-251.5 71.5q-182 0 -308 -69q-20 23 -20 61q0 19 27.5 41t73.5 41t114.5 32t140.5 13q152 0 260.5 -63t149.5 -181q63 113 178 178.5t248 65.5q190 0 310 -113.5t120 -291.5 q0 -224 -148 -224h-669q17 -184 135 -289.5t283 -105.5q157 0 274 66q20 -27 20 -62q0 -40 -92 -81.5t-221 -41.5q-145 0 -263.5 67t-189.5 187q-76 -122 -192 -188t-260 -66q-182 0 -286.5 95.5t-104.5 246.5zM250 319q0 -105 74.5 -166t183.5 -61q114 0 217.5 62.5 t167.5 191.5q-13 57 -16 141q-62 32 -151 50t-171 18q-143 0 -224 -64.5t-81 -171.5zM805 1260l256 245q19 19 34 19q20 0 35 -15q28 -28 43 -63l-272 -231q-16 -13 -29 -13q-11 0 -24 13zM1012 606h663q21 44 21 103q0 131 -83.5 210.5t-219.5 79.5q-150 0 -259 -108 t-122 -285z" />
<glyph unicode="&#x1fe;" d="M98.5 15.5q-9.5 15.5 10.5 37.5l159 174q-141 194 -141 490q0 144 34.5 265.5t96 208.5t145 147.5t182 90t206.5 29.5q273 0 450 -174l137 150h74q28 0 34.5 -15t-13.5 -37l-162 -176q141 -194 141 -489q0 -179 -53 -322.5t-144.5 -234t-210 -138t-253.5 -47.5 q-274 0 -455 175l-137 -150h-60q-31 0 -40.5 15.5zM270 733q0 -235 99 -397l778 846q-144 153 -373 153q-100 0 -189 -37t-160 -108.5t-113 -189.5t-42 -267zM432 252q71 -76 167.5 -115t205.5 -39q100 0 189 37t160 108.5t113 189.5t42 267q0 236 -99 398zM627 1616 l256 245q19 19 34 19q20 0 35 -15q28 -28 43 -63l-272 -231q-16 -13 -29 -13q-11 0 -24 13z" />
<glyph unicode="&#x1ff;" horiz-adv-x="1286" d="M104 25q0 11 15 26l112 123q-114 149 -114 373q0 131 42 240.5t114 181t167.5 110.5t202.5 39q200 0 342 -127l94 103h56q43 0 43 -27q0 -12 -11 -23l-114 -124q116 -151 116 -373q0 -131 -42 -240.5t-114 -181t-167.5 -111t-202.5 -39.5q-202 0 -344 127l-94 -102h-62 q-39 0 -39 25zM252 559q0 -167 72 -285l573 621q-110 104 -264 104q-76 0 -143.5 -27.5t-121 -80.5t-85 -138.5t-31.5 -193.5zM387 199q108 -105 266 -105q75 0 142.5 28t121.5 81t85.5 138.5t31.5 193.5q0 164 -73 284zM480 1260l256 245q19 19 34 19q20 0 35 -15 q28 -28 43 -63l-272 -231q-16 -13 -29 -13q-11 0 -24 13z" />
<glyph unicode="&#x218;" horiz-adv-x="1214" d="M137 1075q0 169 127.5 276t327.5 107q161 0 284 -68t181 -171q14 -25 14 -45q0 -22 -27 -37q-41 -21 -94 -25q-47 107 -139.5 165t-218.5 58q-139 0 -226 -69.5t-87 -184.5q0 -109 81.5 -180t276.5 -131q232 -72 340 -168t108 -252q0 -170 -129.5 -272.5t-349.5 -102.5 q-109 0 -206.5 24t-151 57.5t-53.5 64.5q0 36 20 63q174 -88 379 -88q173 0 262.5 68.5t89.5 179.5q0 108 -85.5 180t-272.5 125q-224 62 -337.5 165t-113.5 261zM547 -434q86 86 98 178q-30 6 -50 30t-20 60q0 37 25.5 61.5t61.5 24.5q37 0 62.5 -25t25.5 -69 q0 -135 -84 -229q-28 -34 -57 -52.5t-38 -13.5q-8 3 -15.5 14t-8.5 21z" />
<glyph unicode="&#x219;" horiz-adv-x="1019" d="M137 815q0 134 103 218.5t268 84.5q125 0 223 -48.5t148 -131.5q10 -17 10 -33q0 -22 -29 -39q-41 -21 -86 -28q-33 77 -105.5 119t-164.5 42q-101 0 -166.5 -52t-65.5 -136q0 -82 66 -132.5t223 -90.5q180 -46 261 -121t81 -195q0 -138 -102.5 -217.5t-290.5 -79.5 q-132 0 -236 42.5t-104 82.5q0 41 20 64q144 -72 306 -72q272 0 272 172q0 74 -57.5 123t-194.5 82q-195 45 -287 130t-92 216zM444 -434q87 87 99 178q-30 6 -50 30t-20 60q0 38 25 62t61 24q37 0 62.5 -25t25.5 -69q0 -135 -84 -229q-28 -34 -57 -52.5t-37 -13.5 q-8 3 -16 14t-9 21z" />
<glyph unicode="&#x21a;" horiz-adv-x="1243" d="M92 1352q0 40 10 82h1008q22 0 31.5 -12t9.5 -40v-71h-461v-1311h-90q-27 0 -38 8.5t-11 30.5v1272h-426q-33 0 -33 41zM506 -434q86 86 98 178q-30 6 -49.5 30t-19.5 60q0 38 25 62t61 24q37 0 62.5 -25t25.5 -69q0 -135 -84 -229q-28 -34 -57 -52.5t-38 -13.5 q-8 3 -15.5 14t-8.5 21z" />
<glyph unicode="&#x21b;" horiz-adv-x="919" d="M70 1016q0 40 10 78h199v309q41 14 92 14q41 0 41 -33v-290h368q23 0 32 -11t9 -39v-67h-409v-647q0 -120 57 -178t156 -58q109 0 182 37q20 -23 20 -61q0 -31 -65 -63t-158 -32q-150 0 -237.5 94.5t-87.5 262.5v645h-177q-32 0 -32 39zM444 -434q87 87 99 178 q-30 6 -50 30t-20 60q0 38 25 62t61 24q37 0 62.5 -25t25.5 -69q0 -135 -84 -229q-28 -34 -57 -52.5t-37 -13.5q-8 3 -16 14t-9 21z" />
<glyph unicode="&#x2c6;" horiz-adv-x="845" d="M131 1219q0 12 14 26l242 236h39q18 0 27.5 -4t23.5 -17l254 -246l-47 -51q-14 -14 -27 -14q-16 0 -36 20l-199 197l-215 -215q-40 15 -60 35q-16 13 -16 33z" />
<glyph unicode="&#x2c7;" horiz-adv-x="845" d="M117 1411q39 70 71 70q19 0 60 -41l176 -176l223 223l58 -53q12 -12 12 -21q0 -12 -17 -29l-241 -235h-39q-18 0 -27.5 4t-23.5 16z" />
<glyph unicode="&#x2d8;" horiz-adv-x="845" d="M137 1434q42 22 78 22q21 0 28.5 -7.5t12.5 -29.5q15 -75 58.5 -114t109.5 -39q69 0 116 45.5t58 144.5h66q27 0 36.5 -8t6.5 -29q-13 -108 -88 -179t-195 -71q-116 0 -193 69.5t-94 195.5z" />
<glyph unicode="&#x2d9;" horiz-adv-x="845" d="M338 1325q0 37 23.5 60.5t58.5 23.5q36 0 62 -25t26 -65q0 -39 -23 -62.5t-59 -23.5q-35 0 -61.5 25.5t-26.5 66.5z" />
<glyph unicode="&#x2da;" horiz-adv-x="845" d="M233 1321q0 78 54.5 130t136.5 52q80 0 135 -52t55 -130t-55 -130t-135 -52q-82 0 -136.5 52t-54.5 130zM322 1327q0 -51 29.5 -80.5t76.5 -29.5q42 0 70 28t28 70q0 51 -30.5 80.5t-77.5 29.5q-41 0 -68.5 -27.5t-27.5 -70.5z" />
<glyph unicode="&#x2db;" horiz-adv-x="845" d="M238 -252q0 67 38 135.5t107 116.5h125q-156 -110 -156 -242q0 -48 32.5 -79t96.5 -31q45 0 80 12q43 15 43 -29v-53q-54 -29 -139 -29q-107 0 -167 54t-60 145z" />
<glyph unicode="&#x2dc;" horiz-adv-x="845" d="M131 1262q0 12 10 57q41 115 158 115q69 0 143 -66q65 -57 99 -57q31 0 47 25t22 94l74 -17q36 -8 27 -49q-12 -74 -55.5 -115t-110.5 -41q-72 0 -144 66q-60 57 -98 57q-31 0 -47.5 -25.5t-22.5 -91.5q-46 -3 -77 11q-25 9 -25 37z" />
<glyph unicode="&#x2dd;" horiz-adv-x="845" d="M90 1219l256 245q19 19 35 19q20 0 35 -15q28 -28 43 -63l-273 -231q-16 -13 -28 -13t-25 13zM389 1219l256 245q19 19 35 19q20 0 35 -15q28 -28 43 -63l-273 -231q-16 -13 -28 -13t-25 13z" />
<glyph unicode="&#x3a9;" horiz-adv-x="1603" d="M137 739q0 163 50.5 299t139 227.5t210.5 142t264 50.5t263.5 -50.5t209.5 -142t138 -227.5t50 -299q0 -198 -86.5 -355t-247.5 -263h273q22 0 31.5 -11.5t9.5 -39.5v-70h-518v76q0 29 24 43q174 101 274.5 258.5t100.5 357.5q0 143 -41.5 258t-113 189t-165.5 113.5 t-202 39.5t-202 -39.5t-165.5 -113.5t-113 -189t-41.5 -258q0 -200 100 -357.5t274 -258.5q25 -14 25 -43v-76h-483q-35 0 -35 39q0 40 10 82h303q-161 106 -248.5 263t-87.5 355z" />
<glyph unicode="&#x400;" horiz-adv-x="1167" d="M203 328v1106h798q33 0 33 -41q0 -40 -10 -82h-682v-543h541q23 0 32 -11t9 -38v-72h-582v-305q0 -122 37.5 -171.5t118.5 -49.5h512q23 0 32 -11.5t9 -39.5v-70h-568q-143 0 -211.5 75t-68.5 253zM408 1802q15 35 43 63q15 15 34 15q16 0 35 -19l256 -245l-43 -45 q-13 -13 -24 -13q-13 0 -29 13z" />
<glyph unicode="&#x401;" horiz-adv-x="1167" d="M203 328v1106h798q33 0 33 -41q0 -40 -10 -82h-682v-543h541q23 0 32 -11t9 -38v-72h-582v-305q0 -122 37.5 -171.5t118.5 -49.5h512q23 0 32 -11.5t9 -39.5v-70h-568q-143 0 -211.5 75t-68.5 253zM350 1722q0 38 23 61t59 23t62 -25t26 -65q0 -39 -23 -62.5t-59 -23.5 q-35 0 -61.5 25.5t-26.5 66.5zM700 1722q0 38 23 61t57 23q36 0 62 -25t26 -65q0 -39 -23 -62.5t-59 -23.5q-35 0 -60.5 25.5t-25.5 66.5z" />
<glyph unicode="&#x402;" d="M92 1352q0 40 10 82h1008q22 0 31.5 -12t9.5 -40v-71h-461v-533q72 63 163 99t185 36q187 0 288 -121.5t101 -336.5v-439q0 -171 -92 -301q-46 -64 -95 -102t-75 -29q-36 12 -55 56q178 158 178 378v435q0 338 -278 338q-82 0 -166 -34.5t-154 -97.5v-659h-90 q-27 0 -38 8.5t-11 30.5v1272h-426q-33 0 -33 41z" />
<glyph unicode="&#x403;" horiz-adv-x="1126" d="M205 39v1395h801q21 0 29.5 -12t8.5 -40v-71h-700v-1311h-90q-27 0 -38 8.5t-11 30.5zM457 1616l256 246q18 18 35 18q20 0 34 -14q27 -27 43 -64l-272 -231q-15 -12 -29 -12q-12 0 -24 12z" />
<glyph unicode="&#x404;" horiz-adv-x="1406" d="M127 762q0 130 34.5 243t94.5 195t140.5 141t174.5 88t195 29q189 0 329.5 -82.5t209.5 -218.5q8 -16 8 -31q0 -17 -25 -36q-46 -29 -96 -35q-59 134 -171 207t-261 73q-95 0 -183 -38t-157.5 -107.5t-111 -178t-42.5 -239.5h697q22 0 31.5 -11t9.5 -38v-72h-730 q23 -171 113.5 -298t224 -192t291.5 -65q198 0 342 84q19 -28 19 -65q0 -45 -114.5 -92.5t-262.5 -47.5q-160 0 -300 56t-241.5 156.5t-160 249t-58.5 325.5z" />
<glyph unicode="&#x405;" horiz-adv-x="1214" d="M137 1075q0 169 127.5 276t327.5 107q161 0 284 -68t181 -171q14 -25 14 -45q0 -22 -27 -37q-41 -21 -94 -25q-47 107 -139.5 165t-218.5 58q-139 0 -226 -69.5t-87 -184.5q0 -109 81.5 -180t276.5 -131q232 -72 340 -168t108 -252q0 -170 -129.5 -272.5t-349.5 -102.5 q-109 0 -206.5 24t-151 57.5t-53.5 64.5q0 36 20 63q174 -88 379 -88q173 0 262.5 68.5t89.5 179.5q0 108 -85.5 180t-272.5 125q-224 62 -337.5 165t-113.5 261z" />
<glyph unicode="&#x406;" horiz-adv-x="579" d="M219 39v1388q49 17 96 17q43 0 43 -35v-1409h-90q-28 0 -38.5 8.5t-10.5 30.5z" />
<glyph unicode="&#x407;" horiz-adv-x="579" d="M31 1722q0 38 23 61t59 23t62 -25t26 -65q0 -39 -23 -62.5t-59 -23.5q-35 0 -61.5 25.5t-26.5 66.5zM219 39v1388q49 17 96 17q43 0 43 -35v-1409h-90q-28 0 -38.5 8.5t-10.5 30.5zM381 1722q0 38 23 61t57 23q36 0 62 -25t26 -65q0 -39 -23 -62.5t-59 -23.5 q-35 0 -60.5 25.5t-25.5 66.5z" />
<glyph unicode="&#x408;" horiz-adv-x="841" d="M35 70q0 38 20 65q81 -37 203 -37q116 0 180 69t64 206v1057q51 14 96 14q43 0 43 -33v-1038q0 -189 -91.5 -293.5t-270.5 -104.5q-87 0 -165.5 31t-78.5 64z" />
<glyph unicode="&#x409;" horiz-adv-x="2285" d="M23 53q0 40 20 70q59 -27 129 -27q72 0 113 59.5t69 223.5q35 215 57.5 498t22.5 557h803q26 0 37.5 -9.5t11.5 -31.5v-508q153 65 359 65q241 0 387.5 -122.5t146.5 -342.5q0 -234 -156.5 -359.5t-429.5 -125.5h-174q-139 0 -205.5 73t-66.5 255v983h-574 q-7 -231 -27 -494t-50 -455q-24 -151 -63.5 -236t-93 -118t-136.5 -33q-72 0 -126 25.5t-54 52.5zM1286 342q0 -130 33 -175.5t117 -45.5h135q216 0 341.5 87.5t125.5 268.5q0 173 -109 261.5t-311 88.5q-181 0 -332 -57v-428z" />
<glyph unicode="&#x40a;" horiz-adv-x="2228" d="M207 39v1388q49 17 96 17q43 0 43 -35v-631h746v656h90q26 0 37.5 -9.5t11.5 -31.5v-508q153 65 358 65q242 0 388.5 -122.5t146.5 -342.5q0 -234 -157 -359.5t-429 -125.5h-174q-139 0 -205.5 73t-66.5 255v329h-746v-657h-90q-27 0 -38 8.5t-11 30.5zM1231 342 q0 -130 32.5 -175.5t116.5 -45.5h136q216 0 341 87.5t125 268.5q0 173 -108.5 261.5t-310.5 88.5q-181 0 -332 -57v-428z" />
<glyph unicode="&#x40b;" horiz-adv-x="1603" d="M92 1352q0 40 10 82h1008q22 0 31.5 -12t9.5 -40v-71h-461v-533q72 63 163 99t185 36q187 0 288 -121.5t101 -336.5v-244q0 -62 19.5 -88.5t58.5 -26.5h37q8 -28 8 -49q0 -24 -29 -42.5t-77 -18.5q-70 0 -113 53.5t-43 157.5v256q0 338 -278 338q-82 0 -166 -34.5 t-154 -97.5v-659h-90q-27 0 -38 8.5t-11 30.5v1272h-426q-33 0 -33 41z" />
<glyph unicode="&#x40c;" horiz-adv-x="1347" d="M207 39v1388q49 17 96 17q43 0 43 -35v-729q207 136 408.5 334.5t355.5 429.5q55 -17 78.5 -35t23.5 -41t-14 -43q-176 -272 -479 -530q120 -223 242.5 -400t214.5 -254q54 -45 96 -45h33q8 -28 8 -53q0 -26 -30.5 -47t-74.5 -21q-62 0 -135 64q-198 174 -457 676 q-141 -112 -270 -191v-524h-90q-27 0 -38 8.5t-11 30.5zM512 1616l256 245q19 19 34 19q20 0 35 -15q28 -28 43 -63l-272 -231q-16 -13 -29 -13q-11 0 -24 13z" />
<glyph unicode="&#x40d;" horiz-adv-x="1470" d="M207 35v1392q49 17 96 17q43 0 43 -35v-1188l760 1194q17 29 45 29q50 0 111 -47v-1397h-91q-28 0 -38.5 8.5t-10.5 30.5v1171l-760 -1194q-17 -26 -45 -26q-52 0 -110 45zM524 1802q16 37 43 64q14 14 35 14q17 0 35 -18l256 -246l-43 -45q-12 -12 -25 -12t-28 12z" />
<glyph unicode="&#x40e;" horiz-adv-x="1316" d="M119 1378q62 62 102 62q17 0 26.5 -6.5t18.5 -24.5l418 -836q267 451 406 861h90q23 0 36.5 -13.5t6.5 -34.5q-129 -355 -327 -712.5t-437 -673.5h-90q-28 0 -37.5 11t4.5 34q149 204 266 395zM391 1833q42 22 78 22q21 0 28.5 -7t12.5 -29q15 -75 58.5 -114.5 t109.5 -39.5q69 0 116 45.5t58 144.5h66q28 0 37 -8t6 -28q-13 -108 -88 -179t-195 -71q-116 0 -193 69t-94 195z" />
<glyph unicode="&#x40f;" horiz-adv-x="1480" d="M205 328v1099q49 17 96 17q43 0 43 -35v-1067q0 -122 37.5 -171.5t118.5 -49.5h639v1313h88q27 0 38 -9.5t11 -31.5v-1393h-453v-301h-90q-27 0 -38 9.5t-11 31.5v260h-199q-143 0 -211.5 75t-68.5 253z" />
<glyph unicode="&#x410;" horiz-adv-x="1359" d="M55 29q0 6 4 18l531 1370q59 27 121 27q27 0 40.5 -10t22.5 -35l541 -1399h-101q-27 0 -40 8t-19 27l-133 356h-686l-148 -391h-88q-45 0 -45 29zM379 512h598l-299 791z" />
<glyph unicode="&#x411;" horiz-adv-x="1353" d="M205 328v1106h811q22 0 30.5 -12t8.5 -40v-71h-711v-426q153 65 361 65q241 0 387.5 -122.5t146.5 -342.5q0 -234 -157.5 -359.5t-430.5 -125.5h-166q-143 0 -211.5 75t-68.5 253zM344 342q0 -122 37.5 -171.5t118.5 -49.5h129q106 0 190 20.5t146.5 62.5t96.5 111.5 t34 161.5q0 173 -108.5 261.5t-309.5 88.5q-183 0 -334 -57v-428z" />
<glyph unicode="&#x412;" horiz-adv-x="1333" d="M203 328v1106h491q222 0 346.5 -108t124.5 -269q0 -117 -58.5 -199.5t-166.5 -122.5q127 -33 199.5 -122t72.5 -220q0 -177 -127.5 -285t-365.5 -108h-236q-141 0 -210.5 76t-69.5 252zM342 342q0 -126 34.5 -173.5t121.5 -47.5h225q172 0 260 72t88 202q0 273 -371 273 h-358v-326zM342 788h344q169 0 253.5 68t84.5 195q0 118 -90 189t-248 71h-344v-523z" />
<glyph unicode="&#x413;" horiz-adv-x="1126" d="M205 39v1395h801q21 0 29.5 -12t8.5 -40v-71h-700v-1311h-90q-27 0 -38 8.5t-11 30.5z" />
<glyph unicode="&#x414;" horiz-adv-x="1318" d="M68 121h102q171 621 180 1313h701q27 0 38 -9.5t11 -31.5v-1272h76q27 0 38 -9.5t11 -31.5v-381h-88q-27 0 -38.5 9.5t-11.5 31.5v260h-880v-301h-88q-28 0 -39.5 9.5t-11.5 31.5v381zM317 121h644v1190h-474q-9 -263 -55.5 -590.5t-114.5 -599.5z" />
<glyph unicode="&#x415;" horiz-adv-x="1167" d="M203 328v1106h798q33 0 33 -41q0 -40 -10 -82h-682v-543h541q23 0 32 -11t9 -38v-72h-582v-305q0 -122 37.5 -171.5t118.5 -49.5h512q23 0 32 -11.5t9 -39.5v-70h-568q-143 0 -211.5 75t-68.5 253z" />
<glyph unicode="&#x416;" horiz-adv-x="1996" d="M45 43q0 34 8 53h31q66 0 137 80q87 98 188 274.5t187 385.5q-301 266 -438 499q-8 11 -8 35q0 44 98 74q134 -208 312.5 -389t367.5 -312v684q49 17 96 17q43 0 43 -35v-666q189 131 367.5 312t312.5 389q98 -30 98 -74q0 -24 -8 -35q-137 -233 -438 -499 q86 -209 187 -385.5t188 -274.5q71 -80 137 -80h31q8 -19 8 -53q0 -28 -29 -48t-74 -20q-89 0 -178 99q-187 208 -379 674q-110 -90 -223 -166v-582h-90q-27 0 -38 8.5t-11 30.5v543q-113 76 -223 166q-192 -466 -379 -674q-88 -99 -179 -99q-45 0 -73.5 20t-28.5 48z" />
<glyph unicode="&#x417;" horiz-adv-x="1220" d="M131 1184q0 15 8 28q60 108 182.5 177t280.5 69q198 0 323.5 -104.5t125.5 -268.5q0 -130 -81 -220t-218 -128q157 -34 248.5 -127t91.5 -239q0 -186 -145 -291t-378 -105q-82 0 -163.5 16.5t-138 40t-91.5 50t-35 47.5q0 36 21 64q176 -95 397 -95q179 0 287 72t108 203 q0 141 -122.5 222t-352.5 81h-20q-35 0 -35 41q0 34 12 80h43q203 0 318.5 77t115.5 203q0 122 -84 190t-227 68q-123 0 -214.5 -57t-137.5 -170q-77 7 -109 47q-10 13 -10 29z" />
<glyph unicode="&#x418;" horiz-adv-x="1470" d="M207 35v1392q49 17 96 17q43 0 43 -35v-1188l760 1194q17 29 45 29q50 0 111 -47v-1397h-91q-28 0 -38.5 8.5t-10.5 30.5v1171l-760 -1194q-17 -26 -45 -26q-52 0 -110 45z" />
<glyph unicode="&#x419;" horiz-adv-x="1470" d="M207 35v1392q49 17 96 17q43 0 43 -35v-1188l760 1194q17 29 45 29q50 0 111 -47v-1397h-91q-28 0 -38.5 8.5t-10.5 30.5v1171l-760 -1194q-17 -26 -45 -26q-52 0 -110 45zM449 1833q42 22 77 22q21 0 28.5 -7t12.5 -29q15 -75 58.5 -114.5t109.5 -39.5q69 0 116 45.5 t58 144.5h66q28 0 37 -8t6 -28q-13 -108 -88 -179t-195 -71q-116 0 -192.5 69t-93.5 195z" />
<glyph unicode="&#x41a;" horiz-adv-x="1347" d="M207 39v1388q49 17 96 17q43 0 43 -35v-729q207 136 408.5 334.5t355.5 429.5q55 -17 78.5 -35t23.5 -41t-14 -43q-176 -272 -479 -530q120 -223 242.5 -400t214.5 -254q54 -45 96 -45h33q8 -28 8 -53q0 -26 -30.5 -47t-74.5 -21q-62 0 -135 64q-198 174 -457 676 q-141 -112 -270 -191v-524h-90q-27 0 -38 8.5t-11 30.5z" />
<glyph unicode="&#x41b;" horiz-adv-x="1536" d="M23 53q0 40 20 70q59 -27 129 -27q72 0 113 59.5t69 223.5q35 215 57.5 498t22.5 557h844q26 0 37.5 -9.5t11.5 -31.5v-1393h-90q-28 0 -38.5 8.5t-10.5 30.5v1272h-615q-7 -231 -27 -494t-50 -455q-24 -151 -63.5 -236t-93 -118t-136.5 -33q-72 0 -126 25.5t-54 52.5z " />
<glyph unicode="&#x41c;" horiz-adv-x="1837" d="M152 41l149 1362q61 41 113 41q17 0 27 -6t20 -25l454 -811l465 832h101q27 0 37.5 -9t13.5 -32l154 -1393h-99q-29 0 -40 9t-13 32l-123 1188l-418 -748q-14 -26 -57 -26h-82l-432 774l-129 -1229h-92q-29 0 -39 8.5t-10 32.5z" />
<glyph unicode="&#x41d;" horiz-adv-x="1478" d="M207 39v1388q49 17 96 17q43 0 43 -35v-631h784v656h91q26 0 37.5 -9.5t11.5 -31.5v-1393h-90q-28 0 -39 8.5t-11 30.5v618h-784v-657h-90q-27 0 -38 8.5t-11 30.5z" />
<glyph unicode="&#x41e;" d="M127 717q0 144 34.5 265.5t96 208.5t145 147.5t182 90t206.5 29.5q135 0 253.5 -47.5t210 -137.5t144.5 -233.5t53 -322.5t-53 -322.5t-144.5 -234t-210 -138t-253.5 -47.5q-136 0 -255 47.5t-211 138t-145 234t-53 322.5zM270 733q0 -155 42.5 -277.5t116 -199.5 t169.5 -117.5t207 -40.5q100 0 189 37t160 108.5t113 189.5t42 267q0 155 -42 277.5t-115.5 199.5t-170 117.5t-207.5 40.5q-100 0 -189 -37t-160 -108.5t-113 -189.5t-42 -267z" />
<glyph unicode="&#x41f;" horiz-adv-x="1480" d="M205 39v1395h1022q26 0 37.5 -9.5t11.5 -31.5v-1393h-90q-28 0 -38.5 8.5t-10.5 30.5v1272h-793v-1311h-90q-27 0 -38 8.5t-11 30.5z" />
<glyph unicode="&#x420;" horiz-adv-x="1296" d="M209 41v1393h426q254 0 405.5 -138.5t151.5 -382.5q0 -122 -42.5 -220.5t-117 -161.5t-172.5 -96.5t-211 -33.5q-173 0 -301 45v-446h-90q-28 0 -38.5 9t-10.5 32zM348 557q118 -33 287 -33q189 0 303.5 103.5t114.5 290.5q0 191 -115 293t-307 102h-283v-756z" />
<glyph unicode="&#x421;" horiz-adv-x="1406" d="M127 762q0 130 34.5 243t94.5 195t140.5 141t174.5 88t195 29q189 0 329.5 -82.5t209.5 -218.5q8 -16 8 -31q0 -17 -25 -36q-46 -29 -96 -35q-59 134 -171 207t-261 73q-96 0 -184 -38t-157.5 -108t-111 -179.5t-41.5 -241.5q0 -154 50.5 -282t137.5 -212.5t202.5 -131 t246.5 -46.5q198 0 342 84q19 -28 19 -65q0 -45 -114.5 -92.5t-262.5 -47.5q-160 0 -300 56t-241.5 156.5t-160 249t-58.5 325.5z" />
<glyph unicode="&#x422;" horiz-adv-x="1243" d="M92 1352q0 40 10 82h1008q22 0 31.5 -12t9.5 -40v-71h-461v-1311h-90q-27 0 -38 8.5t-11 30.5v1272h-426q-33 0 -33 41z" />
<glyph unicode="&#x423;" horiz-adv-x="1316" d="M119 1378q62 62 102 62q17 0 26.5 -6.5t18.5 -24.5l418 -836q267 451 406 861h90q23 0 36.5 -13.5t6.5 -34.5q-129 -355 -327 -712.5t-437 -673.5h-90q-28 0 -37.5 11t4.5 34q149 204 266 395z" />
<glyph unicode="&#x424;" horiz-adv-x="1544" d="M111 723q0 125 49 227.5t132.5 169t188 106t221.5 48.5v153q49 17 97 17q41 0 41 -35v-135q93 -7 178.5 -32.5t161.5 -72t131.5 -109.5t88 -149.5t32.5 -187.5t-32.5 -188t-88 -150.5t-131 -110.5t-161.5 -73t-179 -33v-168h-88q-28 0 -39 8.5t-11 30.5v129 q-117 10 -221.5 49.5t-188 106.5t-132.5 170t-49 229zM252 741q0 -193 123.5 -310t326.5 -138v860q-195 -13 -322.5 -121t-127.5 -291zM840 289q195 13 322.5 122t127.5 294q0 191 -124 308t-326 138v-862z" />
<glyph unicode="&#x425;" horiz-adv-x="1392" d="M111 27q0 9 6 24q173 399 491 688l-473 623q54 78 96 78q24 0 41 -23l443 -583q275 266 413 600h99q41 0 41 -31q0 -11 -6 -23q-149 -350 -469 -653l503 -659q-54 -78 -96 -78q-24 0 -41 22l-473 621q-280 -259 -436 -633h-98q-41 0 -41 27z" />
<glyph unicode="&#x426;" horiz-adv-x="1490" d="M205 328v1102q51 14 96 14q43 0 43 -33v-1069q0 -122 37.5 -171.5t118.5 -49.5h633v1313h90q27 0 38 -9t11 -32v-1272h76q28 0 38.5 -9t10.5 -32v-381h-88q-28 0 -40 9t-12 32v260h-772q-143 0 -211.5 75t-68.5 253z" />
<glyph unicode="&#x427;" horiz-adv-x="1400" d="M180 895v532q49 17 96 17q43 0 43 -35v-504q0 -188 104 -285.5t286 -97.5q199 0 344 74v838h88q27 0 38 -9.5t11 -31.5v-1393h-88q-28 0 -38.5 8.5t-10.5 30.5v442q-74 -38 -171 -59t-192 -21q-229 0 -369.5 132t-140.5 362z" />
<glyph unicode="&#x428;" horiz-adv-x="1869" d="M205 328v1099q49 17 96 17q43 0 43 -35v-1067q0 -122 37.5 -171.5t118.5 -49.5h362v1313h90q26 0 37.5 -9.5t11.5 -31.5v-1272h519v1313h90q27 0 38 -9.5t11 -31.5v-1393h-1174q-143 0 -211.5 75t-68.5 253z" />
<glyph unicode="&#x429;" horiz-adv-x="1878" d="M205 328v1099q49 17 96 17q43 0 43 -35v-1067q0 -122 37.5 -171.5t118.5 -49.5h362v1313h90q26 0 37.5 -9.5t11.5 -31.5v-1272h519v1313h90q27 0 38 -9.5t11 -31.5v-1272h78q28 0 38.5 -9t10.5 -32v-381h-90q-27 0 -38 9t-11 32v260h-1162q-143 0 -211.5 75t-68.5 253z " />
<glyph unicode="&#x42a;" horiz-adv-x="1689" d="M92 1352q0 40 10 82h543q25 0 35 -11t10 -37v-501q153 65 361 65q241 0 386.5 -122.5t145.5 -342.5q0 -234 -156.5 -359.5t-429.5 -125.5h-166q-143 0 -211.5 75t-68.5 253v983h-426q-33 0 -33 41zM690 342q0 -122 37.5 -171.5t118.5 -49.5h129q216 0 341.5 87.5 t125.5 268.5q0 173 -108.5 261.5t-309.5 88.5q-183 0 -334 -57v-428z" />
<glyph unicode="&#x42b;" horiz-adv-x="1812" d="M203 328v1099q49 17 96 17q43 0 43 -35v-524q153 65 360 65q242 0 388.5 -122.5t146.5 -342.5q0 -234 -157.5 -359.5t-430.5 -125.5h-166q-143 0 -211.5 75t-68.5 253zM342 342q0 -122 37.5 -171.5t118.5 -49.5h129q106 0 190 20.5t146.5 62.5t96.5 111.5t34 161.5 q0 173 -108.5 261.5t-309.5 88.5q-183 0 -334 -57v-428zM1464 39v1388q49 17 97 17q43 0 43 -35v-1409h-91q-27 0 -38 8.5t-11 30.5z" />
<glyph unicode="&#x42c;" horiz-adv-x="1341" d="M203 328v1099q49 17 96 17q43 0 43 -35v-524q153 65 360 65q242 0 388.5 -122.5t146.5 -342.5q0 -234 -157.5 -359.5t-430.5 -125.5h-166q-143 0 -211.5 75t-68.5 253zM342 342q0 -122 37.5 -171.5t118.5 -49.5h129q106 0 190 20.5t146.5 62.5t96.5 111.5t34 161.5 q0 173 -108.5 261.5t-309.5 88.5q-183 0 -334 -57v-428z" />
<glyph unicode="&#x42d;" horiz-adv-x="1406" d="M117 1126q0 15 8 31q69 136 209.5 218.5t329.5 82.5q101 0 195 -29t174.5 -88t140.5 -141t94.5 -195t34.5 -243q0 -177 -58.5 -325.5t-160 -249t-241.5 -156.5t-300 -56q-148 0 -262.5 47.5t-114.5 92.5q0 38 18 65q144 -84 342 -84q241 0 417 149.5t212 405.5h-696 q-33 0 -33 39q0 44 10 82h727q-1 105 -28 196.5t-74.5 157.5t-109.5 114t-134 71.5t-147 23.5q-149 0 -261 -73t-171 -207q-52 6 -97 35q-24 18 -24 36z" />
<glyph unicode="&#x42e;" horiz-adv-x="2050" d="M207 39v1388q49 17 96 17q43 0 43 -35v-637h252q6 133 43 245.5t98.5 193t143 136.5t176 83.5t198.5 27.5q136 0 255 -48t211 -138.5t145 -233.5t53 -321q0 -179 -53 -322.5t-145 -234t-211 -138t-255 -47.5q-130 0 -244 43t-204 125.5t-146 213t-65 294.5h-252v-651h-90 q-27 0 -38 8.5t-11 30.5zM739 733q0 -155 42.5 -278.5t116 -200.5t169.5 -117.5t207 -40.5q100 0 189 37t160 108.5t113 189.5t42 267q0 155 -42 278.5t-116 200.5t-170 117.5t-207 40.5q-100 0 -189 -37t-160 -108.5t-113 -189.5t-42 -267z" />
<glyph unicode="&#x42f;" horiz-adv-x="1339" d="M106 43q0 25 9 49h28q46 0 99 39q131 94 282 336q-162 45 -258 165.5t-96 305.5q0 232 151.5 364t405.5 132h356q50 0 50 -41v-1393h-91q-27 0 -38 8.5t-11 30.5v444q-127 -41 -286 -41q-34 0 -50 2q-173 -310 -335 -426q-61 -43 -117 -43q-43 0 -71 20.5t-28 47.5z M311 938q0 -179 114 -277t304 -98q149 0 264 33v715h-260q-193 0 -307.5 -95.5t-114.5 -277.5z" />
<glyph unicode="&#x430;" horiz-adv-x="1218" d="M115 319q0 166 116.5 260.5t311.5 94.5q183 0 334 -74v113q0 143 -90.5 214.5t-251.5 71.5q-182 0 -308 -69q-20 23 -20 61q0 19 27.5 41t73.5 41t114.5 32t140.5 13q207 0 327 -106t120 -307v-494q0 -62 19.5 -88.5t57.5 -26.5h37q9 -31 9 -49q0 -23 -28.5 -42 t-70.5 -19q-64 0 -106.5 49t-48.5 137q-60 -92 -160.5 -144.5t-229.5 -52.5q-169 0 -271.5 95.5t-102.5 248.5zM250 324q0 -108 74.5 -170t183.5 -62q111 0 208.5 56.5t160.5 170.5v175q-63 28 -152 44.5t-170 16.5q-144 0 -224.5 -62t-80.5 -169z" />
<glyph unicode="&#x431;" horiz-adv-x="1290" d="M150 612q0 262 41.5 420t127.5 239t236 115l262 58q174 41 240 76q27 -27 30 -58q2 -18 -25.5 -39.5t-92 -46t-158.5 -47.5l-238 -57q-93 -24 -148.5 -67.5t-88.5 -131t-43 -231.5q184 194 432 194q198 0 327.5 -139t129.5 -350q0 -162 -62.5 -292t-179 -205t-266.5 -75 q-245 0 -384.5 169.5t-139.5 467.5zM287 614q0 -252 104.5 -387t282.5 -135q159 0 266 124.5t107 318.5q0 181 -101.5 282t-255.5 101q-116 0 -219.5 -57.5t-183.5 -160.5v-86z" />
<glyph unicode="&#x432;" horiz-adv-x="1130" d="M180 299v795h424q178 0 274.5 -83.5t96.5 -207.5q0 -80 -41.5 -141.5t-116.5 -92.5q209 -67 209 -260q0 -135 -106 -222t-304 -87h-182q-128 0 -191 68.5t-63 230.5zM315 319q0 -119 31 -160.5t111 -41.5h155q138 0 208.5 50.5t70.5 143.5q0 92 -75.5 141.5t-225.5 49.5 h-275v-183zM315 618h275q128 0 189 48.5t61 130.5q0 83 -60.5 131.5t-189.5 48.5h-275v-359z" />
<glyph unicode="&#x433;" horiz-adv-x="964" d="M184 39v1055h670q22 0 30.5 -12t8.5 -40v-65h-574v-977h-86q-28 0 -38.5 8.5t-10.5 30.5z" />
<glyph unicode="&#x434;" horiz-adv-x="1163" d="M57 117h95q139 454 149 977h614q50 0 50 -41v-936h67q26 0 37.5 -9.5t11.5 -31.5v-318h-86q-27 0 -38 9.5t-11 31.5v201h-753v-242h-87q-27 0 -38 9.5t-11 31.5v318zM291 117h538v860h-401q-22 -455 -137 -860z" />
<glyph unicode="&#x435;" horiz-adv-x="1175" d="M117 553q0 127 42.5 234.5t114.5 179t167 111.5t200 40q190 0 310 -113.5t120 -289.5q0 -77 -27 -150q-19 -44 -44.5 -60t-75.5 -16h-670q17 -184 135 -289.5t283 -105.5q157 0 274 66q21 -28 21 -62q0 -40 -92.5 -81.5t-221.5 -41.5q-152 0 -274.5 72.5t-192 205 t-69.5 300.5zM254 606h664q20 48 20 105q0 130 -83.5 209t-221.5 79q-149 0 -258 -108t-121 -285z" />
<glyph unicode="&#x436;" horiz-adv-x="1628" d="M57 47q0 18 9 49h40q31 0 59 16.5t62 63.5q117 161 228 486q-199 168 -312 333q-10 20 -10 35q0 23 19.5 40.5t70.5 35.5q207 -300 525 -518v502q41 14 92 14q43 0 43 -33v-483q315 219 522 518q51 -18 71.5 -35.5t20.5 -40.5q0 -17 -12 -35q-114 -167 -311 -333 q112 -327 227 -486q58 -80 121 -80h41q8 -19 8 -49q0 -22 -30.5 -42.5t-65.5 -20.5q-56 0 -100.5 28t-90.5 97q-119 179 -213 475q-83 -67 -188 -135v-449h-86q-28 0 -38.5 9t-10.5 32v408q-104 63 -191 135q-91 -288 -213 -475q-44 -68 -88.5 -96.5t-99.5 -28.5 q-36 0 -67.5 20.5t-31.5 42.5z" />
<glyph unicode="&#x437;" horiz-adv-x="1056" d="M142 892.5q-6 21.5 8 41.5q57 83 158 133.5t220 50.5q164 0 266.5 -84.5t102.5 -218.5q0 -92 -53.5 -160.5t-145.5 -101.5q108 -30 169 -100t61 -172q0 -136 -109 -221t-311 -85q-89 0 -174 24t-132.5 55.5t-47.5 56.5q0 36 18 63q148 -82 324 -82q144 0 220.5 53 t76.5 140q0 95 -83 149.5t-239 54.5h-20q-33 0 -33 39q0 40 10 78h29q153 0 229 54.5t76 148.5q0 87 -67.5 138.5t-166.5 51.5q-97 0 -169 -43t-105 -125q-40 3 -80 25q-26 15 -32 36.5z" />
<glyph unicode="&#x438;" horiz-adv-x="1282" d="M184 33v1061q41 14 92 14q43 0 43 -35v-878l625 886q18 27 49 27q50 0 103 -43v-1065h-86q-27 0 -38 9t-11 32v860l-625 -885q-20 -26 -49 -26q-50 0 -103 43z" />
<glyph unicode="&#x439;" horiz-adv-x="1282" d="M184 33v1061q41 14 92 14q43 0 43 -35v-878l625 886q18 27 49 27q50 0 103 -43v-1065h-86q-27 0 -38 9t-11 32v860l-625 -885q-20 -26 -49 -26q-50 0 -103 43zM352 1475q42 22 78 22q21 0 28.5 -7.5t12.5 -29.5q15 -75 58.5 -114t109.5 -39q69 0 116 45.5t58 144.5h66 q27 0 36.5 -8t6.5 -29q-13 -108 -88 -179t-195 -71q-116 0 -193 69.5t-94 195.5z" />
<glyph unicode="&#x43a;" horiz-adv-x="1177" d="M184 39v1051q54 14 92 14q43 0 43 -35v-530q172 104 339.5 251.5t287.5 313.5q53 -20 72.5 -37t19.5 -39q0 -16 -10 -33q-149 -203 -407 -395q83 -133 174.5 -249.5t165.5 -186.5q73 -68 110 -68h41q8 -28 8 -49q0 -23 -28 -42t-72 -19q-71 0 -146 75 q-85 84 -180.5 206.5t-175.5 260.5q-110 -75 -199 -125v-403h-86q-28 0 -38.5 8.5t-10.5 30.5z" />
<glyph unicode="&#x43b;" horiz-adv-x="1329" d="M23 51q0 36 20 66q55 -27 113 -27q42 0 68.5 20.5t48 81.5t36.5 173q43 323 43 729h746q25 0 35 -10t10 -35v-1049h-84q-28 0 -39.5 9t-11.5 32v936h-521q-4 -330 -41 -631q-25 -210 -86 -290.5t-176 -80.5q-60 0 -110.5 25t-50.5 51z" />
<glyph unicode="&#x43c;" horiz-adv-x="1550" d="M135 41l141 1024q55 39 109 39q32 0 47 -29l340 -600l350 619h97q26 0 37 -9.5t14 -31.5l143 -1053h-92q-24 0 -35 8.5t-14 30.5l-117 870l-305 -538q-14 -25 -51 -25h-90l-318 563l-123 -909h-82q-27 0 -40.5 9.5t-10.5 31.5z" />
<glyph unicode="&#x43d;" horiz-adv-x="1253" d="M184 39v1051q54 14 92 14q43 0 43 -35v-446h613v471h86q26 0 37.5 -9.5t11.5 -31.5v-1053h-86q-28 0 -38.5 8.5t-10.5 30.5v467h-613v-506h-86q-28 0 -38.5 8.5t-10.5 30.5z" />
<glyph unicode="&#x43e;" horiz-adv-x="1286" d="M117 547q0 131 42 240.5t114 181t167.5 110.5t202.5 39t202.5 -39t167.5 -110.5t114 -181t42 -240.5t-42 -240.5t-114 -181t-167.5 -111t-202.5 -39.5t-202.5 39.5t-167.5 111t-114 181t-42 240.5zM252 559q0 -111 33 -201.5t89.5 -147t127.5 -86.5t151 -30 q75 0 142.5 28t121.5 81t85.5 138.5t31.5 193.5q0 111 -33 201t-89.5 146.5t-127.5 86.5t-151 30q-76 0 -143.5 -27.5t-121 -80.5t-85 -138.5t-31.5 -193.5z" />
<glyph unicode="&#x43f;" horiz-adv-x="1253" d="M184 39v1055h834q26 0 37.5 -9.5t11.5 -31.5v-1053h-86q-28 0 -38.5 8.5t-10.5 30.5v938h-613v-977h-86q-28 0 -38.5 8.5t-10.5 30.5z" />
<glyph unicode="&#x440;" horiz-adv-x="1306" d="M186 -395v1485q41 14 93 14q40 0 40 -33v-180q63 107 167 167t239 60q204 0 334.5 -142t130.5 -384q0 -172 -70.5 -313.5t-194.5 -222.5t-276 -81q-202 0 -330 119v-530h-83q-28 0 -39 9t-11 32zM319 227q133 -133 316 -133q179 0 298.5 142.5t119.5 353.5 q0 193 -96.5 302t-256.5 109q-117 0 -219 -79.5t-162 -229.5v-465z" />
<glyph unicode="&#x441;" horiz-adv-x="1128" d="M115 582q0 163 70 286.5t186 186.5t260 63q141 0 248.5 -63.5t156.5 -159.5q8 -16 8 -31q0 -24 -24 -39q-36 -23 -92 -30q-36 94 -111.5 149t-189.5 55q-161 0 -268 -113t-107 -302q0 -118 41.5 -214.5t109.5 -155.5t150.5 -90.5t169.5 -31.5q153 0 270 66q21 -31 21 -62 q0 -40 -94 -80.5t-220 -40.5q-112 0 -216 41t-187 116.5t-132.5 192.5t-49.5 257z" />
<glyph unicode="&#x442;" horiz-adv-x="1067" d="M72 1016q0 40 10 78h870q22 0 30.5 -12t8.5 -40v-65h-391v-977h-86q-28 0 -38.5 8.5t-10.5 30.5v938h-359q-34 0 -34 39z" />
<glyph unicode="&#x443;" horiz-adv-x="1284" d="M180 434v656q41 14 94 14q41 0 41 -33v-639q0 -338 281 -338q95 0 193.5 39t173.5 111v850h86q27 0 38 -9.5t11 -31.5v-1035q0 -111 -35.5 -206t-102 -166.5t-171 -112.5t-234.5 -41q-162 0 -261 75t-99 197q0 161 163 263q-178 108 -178 407zM330 -225 q0 -73 62.5 -119.5t162.5 -46.5q195 0 301.5 106t106.5 289v125q-81 -72 -184.5 -113t-211.5 -41q-52 0 -106 13q-131 -88 -131 -213z" />
<glyph unicode="&#x444;" horiz-adv-x="1556" d="M111 547q0 125 45 228t124.5 173.5t187 113t234.5 52.5v381q51 14 95 14q41 0 41 -34v-361q174 -10 310 -77.5t217 -194.5t81 -295q0 -169 -81 -296t-217 -194.5t-310 -76.5v-375h-86q-27 0 -38.5 9.5t-11.5 31.5v334q-170 12 -302 80t-210.5 194.5t-78.5 292.5zM248 561 q0 -203 125 -322.5t329 -140.5v897q-97 -7 -178 -36.5t-143.5 -82t-97.5 -133t-35 -182.5zM838 94q100 5 184 34t149.5 81.5t102.5 134.5t37 186q0 139 -63.5 242t-168.5 157t-241 66v-901z" />
<glyph unicode="&#x445;" horiz-adv-x="1150" d="M92 27q0 12 4 18q57 134 158 265t225 239l-364 477q50 74 88 74q9 0 17 -4t16 -12t13 -14.5t13.5 -18.5t11.5 -17l301 -395q220 210 322 455h94q37 0 37 -29q0 -12 -4 -18q-57 -134 -156 -266t-219 -240l293 -383q48 -62 102 -62h27q8 -28 8 -49q0 -25 -27.5 -43 t-72.5 -18q-41 0 -75.5 26t-88.5 97l-262 342q-226 -206 -328 -451h-94q-39 0 -39 27z" />
<glyph unicode="&#x446;" horiz-adv-x="1275" d="M184 299v791q41 14 95 14q40 0 40 -33v-752q0 -119 31 -160.5t111 -41.5h481v977h86q28 0 38.5 -9t10.5 -32v-936h68q28 0 38.5 -9t10.5 -32v-318h-84q-28 0 -39.5 9t-11.5 32v201h-621q-128 0 -191 68.5t-63 230.5z" />
<glyph unicode="&#x447;" horiz-adv-x="1253" d="M150 743v347q54 14 92 14q43 0 43 -35v-328q0 -169 68.5 -253.5t211.5 -84.5q95 0 193 38t174 110v543h86q26 0 37.5 -9.5t11.5 -31.5v-1053h-86q-28 0 -38.5 8.5t-10.5 30.5v385q-78 -66 -182 -102.5t-213 -36.5q-190 0 -288.5 121t-98.5 337z" />
<glyph unicode="&#x448;" horiz-adv-x="1640" d="M184 299v791q41 14 95 14q40 0 40 -33v-752q0 -119 31 -160.5t111 -41.5h291v977h84q28 0 39.5 -9t11.5 -32v-936h434v977h86q27 0 38 -9t11 -32v-1053h-1018q-128 0 -191 68.5t-63 230.5z" />
<glyph unicode="&#x449;" horiz-adv-x="1654" d="M184 299v791q41 14 95 14q40 0 40 -33v-752q0 -119 31 -160.5t111 -41.5h291v977h84q28 0 39.5 -9t11.5 -32v-936h434v977h86q27 0 38 -9t11 -32v-936h68q27 0 38 -9t11 -32v-318h-86q-28 0 -38.5 9t-10.5 32v201h-1000q-128 0 -191 68.5t-63 230.5z" />
<glyph unicode="&#x44a;" horiz-adv-x="1435" d="M72 1016q0 40 10 78h469q26 0 37.5 -9.5t11.5 -31.5v-342q126 47 295 47q204 0 322 -98t118 -269q0 -181 -126.5 -286t-379.5 -105h-110q-128 0 -191 68.5t-63 230.5v678h-359q-34 0 -34 39zM600 319q0 -119 30.5 -160.5t110.5 -41.5h105q174 0 264 71t90 199 q0 120 -84.5 186t-247.5 66q-150 0 -268 -39v-281z" />
<glyph unicode="&#x44b;" horiz-adv-x="1570" d="M180 299v791q54 14 92 14q43 0 43 -35v-358q126 47 295 47q205 0 323 -98t118 -269q0 -181 -126.5 -286t-379.5 -105h-111q-128 0 -191 68.5t-63 230.5zM315 319q0 -119 31 -160.5t111 -41.5h106q172 0 262 71t90 199q0 120 -84 186t-247 66q-151 0 -269 -39v-281z M1225 195v895q51 14 92 14q43 0 43 -35v-868q0 -57 18 -81t56 -24h41q6 -21 6 -39q0 -30 -25.5 -50.5t-77.5 -20.5q-153 0 -153 209z" />
<glyph unicode="&#x44c;" horiz-adv-x="1148" d="M180 299v791q54 14 92 14q43 0 43 -35v-358q126 47 295 47q205 0 323 -98t118 -269q0 -181 -126.5 -286t-379.5 -105h-111q-128 0 -191 68.5t-63 230.5zM315 319q0 -119 31 -160.5t111 -41.5h106q172 0 262 71t90 199q0 120 -84 186t-247 66q-151 0 -269 -39v-281z" />
<glyph unicode="&#x44d;" horiz-adv-x="1163" d="M117 864q0 15 8 31q49 96 156.5 159.5t248.5 63.5q144 0 260.5 -63t186.5 -186.5t70 -286.5q0 -140 -50 -257t-132.5 -192.5t-187 -116.5t-216.5 -41q-126 0 -220 40.5t-94 80.5q0 30 21 62q117 -66 270 -66q78 0 152 25t138 72.5t110.5 124t62.5 171.5h-485 q-33 0 -33 39q0 40 10 78h516q-6 181 -112 289t-262 108q-114 0 -190 -55t-112 -149q-56 7 -92 30q-24 15 -24 39z" />
<glyph unicode="&#x44e;" horiz-adv-x="1689" d="M184 39v1051q54 14 92 14q43 0 43 -35v-457h201q14 155 88.5 271t187.5 175.5t248 59.5q107 0 203 -39.5t168.5 -111t115 -180.5t42.5 -240t-42.5 -240.5t-115 -181t-168.5 -111t-203 -39.5q-211 0 -360 140.5t-166 380.5h-199v-496h-86q-28 0 -38.5 8.5t-10.5 30.5z M653 559q0 -112 33 -202.5t89.5 -147.5t128 -87t151.5 -30q76 0 143.5 28t121 81t85 139.5t31.5 194.5q0 111 -33 201t-89.5 146.5t-128 86.5t-151.5 30q-75 0 -142.5 -27.5t-121.5 -80.5t-85.5 -138.5t-31.5 -193.5z" />
<glyph unicode="&#x44f;" horiz-adv-x="1179" d="M137 39q0 29 8 45h27q34 0 74 27q118 83 207 245q-129 36 -203 127.5t-74 229.5q0 179 123.5 280t335.5 101h309q27 0 38 -9.5t11 -31.5v-1053h-86q-27 0 -38 8.5t-11 30.5v323q-91 -30 -225 -30q-35 0 -51 2q-110 -212 -248 -320q-50 -39 -107 -39q-39 0 -64.5 18.5 t-25.5 45.5zM311 713q0 -131 90.5 -196.5t255.5 -65.5q117 0 201 22v504h-196q-168 0 -259.5 -65t-91.5 -199z" />
<glyph unicode="&#x450;" horiz-adv-x="1175" d="M117 553q0 127 42.5 234.5t114.5 179t167 111.5t200 40q190 0 310 -113.5t120 -289.5q0 -77 -27 -150q-19 -44 -44.5 -60t-75.5 -16h-670q17 -184 135 -289.5t283 -105.5q157 0 274 66q21 -28 21 -62q0 -40 -92.5 -81.5t-221.5 -41.5q-152 0 -274.5 72.5t-192 205 t-69.5 300.5zM254 606h664q20 48 20 105q0 130 -83.5 209t-221.5 79q-149 0 -258 -108t-121 -285zM414 1446q15 35 43 63q15 15 34 15q16 0 35 -19l256 -245l-43 -45q-13 -13 -24 -13q-13 0 -29 13z" />
<glyph unicode="&#x451;" horiz-adv-x="1175" d="M117 553q0 127 42.5 234.5t114.5 179t167 111.5t200 40q190 0 310 -113.5t120 -289.5q0 -77 -27 -150q-19 -44 -44.5 -60t-75.5 -16h-670q17 -184 135 -289.5t283 -105.5q157 0 274 66q21 -28 21 -62q0 -40 -92.5 -81.5t-221.5 -41.5q-152 0 -274.5 72.5t-192 205 t-69.5 300.5zM254 606h664q20 48 20 105q0 130 -83.5 209t-221.5 79q-149 0 -258 -108t-121 -285zM358 1366q0 38 23 61t59 23t62 -25t26 -65q0 -39 -23 -62.5t-59 -23.5q-35 0 -61.5 25.5t-26.5 66.5zM709 1366q0 38 22.5 61t56.5 23q37 0 63 -25t26 -65q0 -39 -23 -62.5 t-59 -23.5q-35 0 -60.5 25.5t-25.5 66.5z" />
<glyph unicode="&#x452;" horiz-adv-x="1282" d="M57 1284q0 40 9 64h118v143q54 14 92 14q43 0 43 -35v-122h359q21 0 30 -11.5t9 -38.5v-47h-398v-282q183 149 396 149q189 0 288 -121.5t99 -337.5v-704q0 -181 -96 -309q-46 -60 -92 -91.5t-74 -31.5q-15 0 -32 17t-22 36q181 164 181 381v705q0 337 -281 337 q-95 0 -193 -39t-174 -112v-848h-86q-28 0 -38.5 8.5t-10.5 30.5v1212h-94q-33 0 -33 33z" />
<glyph unicode="&#x453;" horiz-adv-x="964" d="M184 39v1055h670q22 0 30.5 -12t8.5 -40v-65h-574v-977h-86q-28 0 -38.5 8.5t-10.5 30.5zM383 1260l256 245q19 19 35 19q20 0 35 -15q28 -28 43 -63l-273 -232q-15 -12 -28 -12t-25 12z" />
<glyph unicode="&#x454;" horiz-adv-x="1128" d="M115 582q0 163 70 286.5t186 186.5t260 63q141 0 248.5 -63.5t156.5 -159.5q8 -16 8 -31q0 -24 -24 -39q-36 -23 -92 -30q-36 94 -111.5 149t-189.5 55q-158 0 -264.5 -108.5t-110.5 -288.5h485q23 0 32 -10.5t9 -38.5v-68h-518q16 -95 62 -171.5t110 -124t138.5 -72.5 t152.5 -25q153 0 270 66q21 -31 21 -62q0 -40 -94 -80.5t-220 -40.5q-112 0 -216 41t-187 116.5t-132.5 192.5t-49.5 257z" />
<glyph unicode="&#x455;" horiz-adv-x="1019" d="M137 815q0 134 103 218.5t268 84.5q125 0 223 -48.5t148 -131.5q10 -17 10 -33q0 -22 -29 -39q-41 -21 -86 -28q-33 77 -105.5 119t-164.5 42q-101 0 -166.5 -52t-65.5 -136q0 -82 66 -132.5t223 -90.5q180 -46 261 -121t81 -195q0 -138 -102.5 -217.5t-290.5 -79.5 q-132 0 -236 42.5t-104 82.5q0 41 20 64q144 -72 306 -72q272 0 272 172q0 74 -57.5 123t-194.5 82q-195 45 -287 130t-92 216z" />
<glyph unicode="&#x456;" horiz-adv-x="538" d="M164 1423q0 38 24 62t60 24t62 -26t26 -68q0 -39 -23.5 -62.5t-60.5 -23.5q-35 0 -61.5 26.5t-26.5 67.5zM184 197v893q54 14 92 14q43 0 43 -35v-858q0 -62 19.5 -88.5t58.5 -26.5h37q8 -28 8 -49q0 -24 -29 -42.5t-77 -18.5q-69 0 -110.5 53t-41.5 158z" />
<glyph unicode="&#x457;" horiz-adv-x="538" d="M-6 1366q0 38 23 61t59 23t62 -25t26 -65q0 -39 -23 -62.5t-59 -23.5q-35 0 -61.5 25.5t-26.5 66.5zM184 197v893q54 14 92 14q43 0 43 -35v-858q0 -62 19.5 -88.5t58.5 -26.5h37q8 -28 8 -49q0 -24 -29 -42.5t-77 -18.5q-69 0 -110.5 53t-41.5 158zM344 1366q0 38 23 61 t57 23q36 0 62 -25t26 -65q0 -39 -23 -62.5t-59 -23.5q-35 0 -60.5 25.5t-25.5 66.5z" />
<glyph unicode="&#x458;" horiz-adv-x="518" d="M14 -362q181 164 181 380v1072q54 14 92 14q43 0 43 -35v-1053q0 -180 -97 -309q-46 -60 -91.5 -91.5t-73.5 -31.5q-15 0 -32 17.5t-22 36.5zM174 1423q0 38 24 62t60 24t62 -26t26 -68q0 -39 -23.5 -62.5t-60.5 -23.5q-35 0 -61.5 26.5t-26.5 67.5z" />
<glyph unicode="&#x459;" horiz-adv-x="1943" d="M23 49q0 36 20 66q58 -25 113 -25q42 0 68 19.5t48 80t37 172.5q43 323 43 732h711q24 0 34.5 -10.5t10.5 -34.5v-338q126 47 295 47q204 0 322 -98t118 -269q0 -181 -126.5 -286t-379.5 -105h-110q-128 0 -191 68.5t-63 230.5v678h-486q-4 -310 -43 -633 q-24 -209 -84.5 -289t-177.5 -80q-59 0 -109 24.5t-50 49.5zM1108 319q0 -119 30.5 -160.5t110.5 -41.5h107q172 0 262 71t90 199q0 120 -84.5 186t-247.5 66q-150 0 -268 -39v-281z" />
<glyph unicode="&#x45a;" horiz-adv-x="1867" d="M184 39v1051q54 14 92 14q43 0 43 -35v-446h578v471h86q27 0 38 -9.5t11 -31.5v-342q126 47 295 47q204 0 322 -98t118 -269q0 -181 -126 -286t-379 -105h-111q-128 0 -191 68.5t-63 230.5v207h-578v-506h-86q-28 0 -38.5 8.5t-10.5 30.5zM1032 319q0 -119 31 -160.5 t111 -41.5h106q172 0 262 71t90 199q0 120 -84.5 186t-247.5 66q-150 0 -268 -39v-281z" />
<glyph unicode="&#x45b;" horiz-adv-x="1312" d="M57 1284q0 40 9 64h118v143q54 14 92 14q43 0 43 -35v-122h345q41 0 41 -50v-47h-386v-282q183 149 396 149q189 0 288 -121.5t99 -337.5v-448q0 -62 19.5 -88.5t58.5 -26.5h37q8 -28 8 -49q0 -24 -29.5 -42.5t-77.5 -18.5q-69 0 -110 53t-41 158v465q0 337 -281 337 q-95 0 -193 -39t-174 -112v-848h-86q-28 0 -38.5 8.5t-10.5 30.5v1212h-94q-33 0 -33 33z" />
<glyph unicode="&#x45c;" horiz-adv-x="1177" d="M184 39v1051q54 14 92 14q43 0 43 -35v-530q172 104 339.5 251.5t287.5 313.5q53 -20 72.5 -37t19.5 -39q0 -16 -10 -33q-149 -203 -407 -395q83 -133 174.5 -249.5t165.5 -186.5q73 -68 110 -68h41q8 -28 8 -49q0 -23 -28 -42t-72 -19q-71 0 -146 75 q-85 84 -180.5 206.5t-175.5 260.5q-110 -75 -199 -125v-403h-86q-28 0 -38.5 8.5t-10.5 30.5zM434 1260l256 245q19 19 35 19q20 0 35 -15q28 -28 43 -63l-273 -232q-15 -12 -28 -12t-25 12z" />
<glyph unicode="&#x45d;" horiz-adv-x="1282" d="M184 33v1061q41 14 92 14q43 0 43 -35v-878l625 886q18 27 49 27q50 0 103 -43v-1065h-86q-27 0 -38 9t-11 32v860l-625 -885q-20 -26 -49 -26q-50 0 -103 43zM416 1446q15 35 43 63q15 15 35 15q15 0 34 -19l256 -245l-43 -46q-12 -12 -24 -12q-14 0 -29 12z" />
<glyph unicode="&#x45e;" horiz-adv-x="1284" d="M180 434v656q41 14 94 14q41 0 41 -33v-639q0 -338 281 -338q95 0 193.5 39t173.5 111v850h86q27 0 38 -9.5t11 -31.5v-1035q0 -111 -35.5 -206t-102 -166.5t-171 -112.5t-234.5 -41q-162 0 -261 75t-99 197q0 161 163 263q-178 108 -178 407zM330 -225 q0 -73 62.5 -119.5t162.5 -46.5q195 0 301.5 106t106.5 289v125q-81 -72 -184.5 -113t-211.5 -41q-52 0 -106 13q-131 -88 -131 -213zM354 1475q42 22 78 22q21 0 28.5 -7.5t12.5 -29.5q15 -75 58.5 -114t109.5 -39q69 0 116 45.5t58 144.5h66q27 0 36.5 -8t6.5 -29 q-13 -108 -88 -179t-195 -71q-116 0 -193 69.5t-94 195.5z" />
<glyph unicode="&#x45f;" horiz-adv-x="1259" d="M184 299v791q41 14 95 14q40 0 40 -33v-752q0 -119 31 -160.5t111 -41.5h479v977h86q27 0 38 -9t11 -32v-1053h-364v-242h-86q-27 0 -38.5 9.5t-11.5 31.5v201h-137q-128 0 -191 68.5t-63 230.5z" />
<glyph unicode="&#x490;" horiz-adv-x="1126" d="M209 41v1393h698v260q51 14 97 14q43 0 43 -33v-362h-699v-1313h-90q-28 0 -38.5 9t-10.5 32z" />
<glyph unicode="&#x491;" horiz-adv-x="964" d="M184 39v1055h574v235q54 14 94 14q41 0 41 -34v-332h-574v-977h-86q-28 0 -38.5 8.5t-10.5 30.5z" />
<glyph unicode="&#x1e80;" horiz-adv-x="2269" d="M104 1399q56 43 107 43q33 0 43 -35l379 -1241q255 531 405 1268h129q28 0 43.5 -9t22.5 -32l362 -1225q278 574 414 1266h96q52 0 43 -43q-144 -711 -458 -1354q-19 -37 -66 -37h-121l-366 1257q-140 -647 -414 -1220q-16 -37 -66 -37h-116zM912 1802q15 35 43 63 q15 15 34 15q16 0 35 -19l256 -245l-43 -45q-13 -13 -24 -13q-13 0 -29 13z" />
<glyph unicode="&#x1e81;" horiz-adv-x="1787" d="M98 1063q62 45 107 45q29 0 37 -33l286 -928q185 395 285 947h113q43 0 57 -43l289 -904q196 417 278 947h86q51 0 43 -45q-82 -522 -317 -1014q-17 -35 -57 -35h-121l-281 915q-85 -442 -289 -882q-9 -19 -21.5 -26t-35.5 -7h-117zM664 1446q15 35 43 63q15 15 34 15 q16 0 35 -19l256 -245l-43 -46q-12 -12 -24 -12q-14 0 -29 12z" />
<glyph unicode="&#x1e82;" horiz-adv-x="2269" d="M104 1399q56 43 107 43q33 0 43 -35l379 -1241q255 531 405 1268h129q28 0 43.5 -9t22.5 -32l362 -1225q278 574 414 1266h96q52 0 43 -43q-144 -711 -458 -1354q-19 -37 -66 -37h-121l-366 1257q-140 -647 -414 -1220q-16 -37 -66 -37h-116zM949 1616l256 245 q19 19 34 19q20 0 35 -15q28 -28 43 -63l-272 -231q-16 -13 -29 -13q-11 0 -24 13z" />
<glyph unicode="&#x1e83;" horiz-adv-x="1787" d="M98 1063q62 45 107 45q29 0 37 -33l286 -928q185 395 285 947h113q43 0 57 -43l289 -904q196 417 278 947h86q51 0 43 -45q-82 -522 -317 -1014q-17 -35 -57 -35h-121l-281 915q-85 -442 -289 -882q-9 -19 -21.5 -26t-35.5 -7h-117zM715 1260l256 245q19 19 35 19 q19 0 34 -15q28 -28 43 -63l-272 -232q-15 -12 -29 -12q-12 0 -24 12z" />
<glyph unicode="&#x1e84;" horiz-adv-x="2269" d="M104 1399q56 43 107 43q33 0 43 -35l379 -1241q255 531 405 1268h129q28 0 43.5 -9t22.5 -32l362 -1225q278 574 414 1266h96q52 0 43 -43q-144 -711 -458 -1354q-19 -37 -66 -37h-121l-366 1257q-140 -647 -414 -1220q-16 -37 -66 -37h-116zM875 1722q0 38 23 61t59 23 t62 -25t26 -65q0 -39 -23 -62.5t-59 -23.5q-35 0 -61.5 25.5t-26.5 66.5zM1225 1722q0 38 23 61t57 23q36 0 62 -25t26 -65q0 -39 -23 -62.5t-59 -23.5q-35 0 -60.5 25.5t-25.5 66.5z" />
<glyph unicode="&#x1e85;" horiz-adv-x="1787" d="M98 1063q62 45 107 45q29 0 37 -33l286 -928q185 395 285 947h113q43 0 57 -43l289 -904q196 417 278 947h86q51 0 43 -45q-82 -522 -317 -1014q-17 -35 -57 -35h-121l-281 915q-85 -442 -289 -882q-9 -19 -21.5 -26t-35.5 -7h-117zM637 1366q0 38 23 61t59 23t62 -25 t26 -65q0 -39 -23 -62.5t-59 -23.5q-35 0 -61.5 25.5t-26.5 66.5zM987 1366q0 38 23 61t57 23q36 0 62 -25t26 -65q0 -39 -23 -62.5t-59 -23.5q-35 0 -60.5 25.5t-25.5 66.5z" />
<glyph unicode="&#x1ef2;" horiz-adv-x="1343" d="M82 1378q62 62 106 62q25 0 37 -21l443 -796q298 380 454 811h90q48 0 48 -29q0 -10 -7 -31q-182 -476 -522 -889v-485h-90q-28 0 -38.5 8.5t-10.5 30.5v440zM443 1802q15 35 43 63q15 15 34 15q16 0 35 -19l256 -245l-43 -45q-13 -13 -24 -13q-13 0 -29 13z" />
<glyph unicode="&#x1ef3;" horiz-adv-x="1284" d="M180 434v656q41 14 94 14q41 0 41 -33v-639q0 -338 281 -338q95 0 193.5 39t173.5 111v850h86q27 0 38 -9.5t11 -31.5v-1035q0 -111 -35.5 -206t-102 -166.5t-171 -112.5t-234.5 -41q-162 0 -261 75t-99 197q0 161 163 263q-178 108 -178 407zM330 -225 q0 -73 62.5 -119.5t162.5 -46.5q195 0 301.5 106t106.5 289v125q-81 -72 -184.5 -113t-211.5 -41q-52 0 -106 13q-131 -88 -131 -213zM420 1446q15 35 43 63q15 15 35 15q15 0 34 -19l256 -245l-43 -46q-12 -12 -24 -12q-14 0 -29 12z" />
<glyph unicode="&#x2000;" horiz-adv-x="1003" />
<glyph unicode="&#x2001;" horiz-adv-x="2007" />
<glyph unicode="&#x2002;" horiz-adv-x="1003" />
<glyph unicode="&#x2003;" horiz-adv-x="2007" />
<glyph unicode="&#x2004;" horiz-adv-x="669" />
<glyph unicode="&#x2005;" horiz-adv-x="501" />
<glyph unicode="&#x2006;" horiz-adv-x="334" />
<glyph unicode="&#x2007;" horiz-adv-x="334" />
<glyph unicode="&#x2008;" horiz-adv-x="250" />
<glyph unicode="&#x2009;" horiz-adv-x="409" />
<glyph unicode="&#x200a;" horiz-adv-x="111" />
<glyph unicode="&#x2010;" horiz-adv-x="933" d="M174 659q0 32 12 82h533q23 0 32 -11.5t9 -39.5v-72h-551q-35 0 -35 41z" />
<glyph unicode="&#x2011;" horiz-adv-x="978" d="M197 659q0 32 12 82h532q23 0 32 -11.5t9 -39.5v-72h-551q-34 0 -34 41z" />
<glyph unicode="&#x2012;" horiz-adv-x="1392" d="M174 659q0 40 10 82h994q23 0 32 -11.5t9 -39.5v-72h-1012q-33 0 -33 41z" />
<glyph unicode="&#x2013;" horiz-adv-x="1024" d="M0 659q0 40 10 82h973q23 0 32 -11.5t9 -39.5v-72h-991q-33 0 -33 41z" />
<glyph unicode="&#x2014;" horiz-adv-x="2048" d="M0 659q0 40 10 82h1997q23 0 32 -11.5t9 -39.5v-72h-2015q-33 0 -33 41z" />
<glyph unicode="&#x2015;" horiz-adv-x="2048" d="M205 659q0 40 10 82h1587q23 0 32 -11.5t9 -39.5v-72h-1605q-33 0 -33 41z" />
<glyph unicode="&#x2016;" horiz-adv-x="882" d="M231 -225v1747q41 12 86 12q43 0 43 -33v-1767h-79q-27 0 -38.5 9t-11.5 32zM522 -225v1747q40 12 86 12q41 0 41 -33v-1767h-78q-28 0 -38.5 9t-10.5 32z" />
<glyph unicode="&#x2017;" horiz-adv-x="1228" d="M102 -137q0 17 9 69h974q23 0 32 -11.5t9 -39.5v-57h-991q-33 0 -33 39zM102 -362q0 22 9 67h974q23 0 32 -10.5t9 -38.5v-59h-991q-33 0 -33 41z" />
<glyph unicode="&#x2018;" horiz-adv-x="673" d="M248 1196q0 145 94 254q29 33 57 50t37 13q20 -10 27 -36q-95 -92 -107 -199q31 -6 51.5 -32t20.5 -64q0 -39 -25.5 -64.5t-62.5 -25.5q-39 0 -65.5 27t-26.5 77z" />
<glyph unicode="&#x2019;" horiz-adv-x="673" d="M211 1133q94 91 106 198q-31 6 -51 32t-20 64q0 39 25.5 65t62.5 26q39 0 65.5 -27.5t26.5 -77.5q0 -145 -94 -254q-29 -33 -57 -50t-37 -13q-19 10 -27 37z" />
<glyph unicode="&#x201a;" horiz-adv-x="673" d="M211 -221q94 91 106 198q-30 6 -50.5 32.5t-20.5 64.5q0 39 25.5 64.5t62.5 25.5q39 0 65.5 -27.5t26.5 -77.5q0 -145 -94 -254q-29 -33 -57 -50t-37 -13q-19 10 -27 37z" />
<glyph unicode="&#x201b;" horiz-adv-x="673" d="M248 1413q0 50 26.5 77.5t65.5 27.5q37 0 62.5 -26t25.5 -65q0 -38 -20.5 -64t-51.5 -32q12 -106 107 -198q-8 -27 -27 -37q-9 -4 -37 13t-57 50q-94 109 -94 254z" />
<glyph unicode="&#x201c;" horiz-adv-x="960" d="M248 1196q0 145 94 254q29 33 57 50t37 13q20 -10 27 -36q-95 -92 -107 -199q31 -6 51.5 -32t20.5 -64q0 -39 -25.5 -64.5t-62.5 -25.5q-39 0 -65.5 27t-26.5 77zM535 1196q0 145 94 254q29 33 57 50t37 13q19 -10 27 -36q-95 -92 -107 -199q31 -6 51.5 -32t20.5 -64 q0 -39 -25.5 -64.5t-62.5 -25.5q-39 0 -65.5 27t-26.5 77z" />
<glyph unicode="&#x201d;" horiz-adv-x="960" d="M211 1133q94 91 106 198q-31 6 -51 32t-20 64q0 39 25.5 65t62.5 26q39 0 65.5 -27.5t26.5 -77.5q0 -145 -94 -254q-29 -33 -57 -50t-37 -13q-19 10 -27 37zM498 1133q94 91 106 198q-31 6 -51.5 32t-20.5 64q0 39 26 65t63 26q39 0 65.5 -27.5t26.5 -77.5 q0 -144 -95 -254q-29 -33 -57 -50t-37 -13q-18 9 -26 37z" />
<glyph unicode="&#x201e;" horiz-adv-x="960" d="M211 -221q94 91 106 198q-30 6 -50.5 32.5t-20.5 64.5q0 39 25.5 64.5t62.5 25.5q39 0 65.5 -27.5t26.5 -77.5q0 -145 -94 -254q-29 -33 -57 -50t-37 -13q-19 10 -27 37zM498 -221q94 91 106 198q-31 6 -51.5 32.5t-20.5 64.5q0 39 26 64.5t63 25.5q39 0 65.5 -27.5 t26.5 -77.5q0 -144 -95 -254q-29 -33 -57 -50t-37 -13q-18 9 -26 37z" />
<glyph unicode="&#x201f;" horiz-adv-x="960" d="M248 1413q0 50 26.5 77.5t65.5 27.5q37 0 62.5 -26t25.5 -65q0 -38 -20.5 -64t-51.5 -32q12 -106 107 -198q-8 -27 -27 -37q-9 -4 -37 13t-57 50q-94 109 -94 254zM535 1413q0 50 26.5 77.5t65.5 27.5q37 0 62.5 -26t25.5 -65q0 -38 -20.5 -64t-51.5 -32 q12 -106 107 -198q-8 -27 -27 -37q-9 -4 -37 13t-57 50q-94 109 -94 254z" />
<glyph unicode="&#x2020;" horiz-adv-x="1083" d="M115 1096q0 44 10 82l358 -15l-12 355q54 14 98 14q43 0 43 -35l-12 -334l326 15q21 1 30 -11.5t9 -40.5v-71l-363 14v-1337h-72q-27 0 -38 9.5t-11 31.5v1296l-331 -12q-19 0 -27 8.5t-8 30.5z" />
<glyph unicode="&#x2021;" horiz-adv-x="1105" d="M127 125q0 36 8 82l357 -14v876l-332 -12q-18 0 -25.5 9t-7.5 30q0 36 8 82l359 -15l-11 355q51 14 97 14q43 0 43 -31l-11 -338l324 15q23 0 32 -12t9 -40v-71l-363 14v-876l322 14q23 0 32 -11t9 -38v-74l-365 14l11 -331q0 -35 -43 -35q-46 0 -97 14l11 352l-334 -12 q-18 0 -25.5 9t-7.5 30z" />
<glyph unicode="&#x2022;" horiz-adv-x="831" d="M231 688q0 82 50 131t129 49q77 0 132.5 -53.5t55.5 -142.5q0 -83 -49 -131.5t-129 -48.5q-77 0 -133 53.5t-56 142.5z" />
<glyph unicode="&#x2024;" horiz-adv-x="671" d="M246 74q0 39 25.5 64.5t62.5 25.5q38 0 65 -27t27 -71q0 -41 -24.5 -66t-61.5 -25q-38 0 -66 27.5t-28 71.5z" />
<glyph unicode="&#x2025;" horiz-adv-x="1343" d="M246 74q0 39 25.5 64.5t62.5 25.5q38 0 65 -27t27 -71q0 -41 -24.5 -66t-61.5 -25q-38 0 -66 27.5t-28 71.5zM918 74q0 39 25.5 64.5t62.5 25.5q38 0 65 -27t27 -71q0 -41 -24.5 -66t-61.5 -25q-38 0 -66 27.5t-28 71.5z" />
<glyph unicode="&#x2026;" horiz-adv-x="2017" d="M246 74q0 39 25.5 64.5t62.5 25.5q38 0 65 -27t27 -71q0 -41 -24.5 -66t-61.5 -25q-38 0 -66 27.5t-28 71.5zM918 74q0 39 25.5 64.5t62.5 25.5q38 0 65 -27t27 -71q0 -41 -24.5 -66t-61.5 -25q-38 0 -66 27.5t-28 71.5zM1591 74q0 39 25.5 64.5t62.5 25.5q38 0 65.5 -27 t27.5 -71q0 -41 -24.5 -66t-61.5 -25q-38 0 -66.5 27.5t-28.5 71.5z" />
<glyph unicode="&#x202f;" horiz-adv-x="401" />
<glyph unicode="&#x2030;" horiz-adv-x="2547" d="M117 1090q0 162 93.5 261t235.5 99t236 -99.5t94 -260.5q0 -163 -94 -262t-236 -99t-235.5 99t-93.5 262zM242 1098q0 -122 57.5 -191t155.5 -69q88 0 141 65.5t53 177.5q0 122 -56.5 190t-154.5 68q-89 0 -142.5 -65t-53.5 -176zM541 29q0 6 4 18l581 1387h60 q43 0 43 -29q0 -7 -4 -19l-582 -1386h-59q-43 0 -43 29zM993 344q0 162 94 261.5t236 99.5t236 -99.5t94 -261.5q0 -163 -94 -261.5t-236 -98.5t-236 98.5t-94 261.5zM1120 352q0 -122 57.5 -191t153.5 -69q88 0 141.5 66t53.5 178q0 122 -56.5 190t-154.5 68 q-88 0 -141.5 -65t-53.5 -177zM1772 344q0 162 93.5 261.5t235.5 99.5t236 -99.5t94 -261.5q0 -163 -94 -261.5t-236 -98.5t-235.5 98.5t-93.5 261.5zM1898 352q0 -122 57.5 -191t153.5 -69q88 0 141.5 66t53.5 178q0 122 -56.5 190t-154.5 68q-88 0 -141.5 -65t-53.5 -177z " />
<glyph unicode="&#x2032;" horiz-adv-x="624" d="M178 915l137 519q40 14 91 14q55 0 38 -55l-163 -519h-62q-52 0 -41 41z" />
<glyph unicode="&#x2033;" horiz-adv-x="919" d="M178 915l137 519q40 14 91 14q55 0 38 -55l-163 -519h-62q-52 0 -41 41zM475 915l137 519q40 14 90 14q56 0 39 -55l-163 -519h-62q-52 0 -41 41z" />
<glyph unicode="&#x2039;" horiz-adv-x="772" d="M137 627v53l432 305q27 19 39 19q23 0 23 -41q0 -38 -10 -76l-361 -248l344 -240q25 -17 25 -49v-102l-465 330q-27 20 -27 49z" />
<glyph unicode="&#x203a;" horiz-adv-x="772" d="M137 963q0 41 25 41q14 0 39 -19l430 -305v-53q0 -30 -25 -49l-467 -330v102q0 31 27 49l344 240l-363 248q-10 57 -10 76z" />
<glyph unicode="&#x203c;" horiz-adv-x="942" d="M197 74q0 39 24.5 63.5t63.5 24.5q38 0 65 -26.5t27 -69.5q0 -41 -24.5 -66t-63.5 -25q-37 0 -64.5 27.5t-27.5 71.5zM211 1161v269q54 14 104 14t50 -35v-248q0 -339 -25 -803h-64q-24 0 -32.5 9t-10.5 32q-22 344 -22 762zM563 74q0 39 24.5 63.5t63.5 24.5 q38 0 65 -26.5t27 -69.5q0 -41 -24.5 -66t-63.5 -25q-37 0 -64.5 27.5t-27.5 71.5zM578 1161v269q54 14 104 14q26 0 37.5 -8t11.5 -27v-248q0 -357 -24 -803h-64q-24 0 -32.5 9t-10.5 32q-22 344 -22 762z" />
<glyph unicode="&#x203e;" horiz-adv-x="845" d="M152 1309q0 31 8 63h499q21 0 29 -9.5t8 -35.5v-57h-516q-28 0 -28 39z" />
<glyph unicode="&#x2044;" horiz-adv-x="331" d="M-174 47l582 1387h59q54 0 39 -48l-582 -1386h-59q-57 0 -39 47z" />
<glyph unicode="&#x205f;" horiz-adv-x="501" />
<glyph unicode="&#x20a0;" horiz-adv-x="1574" d="M92 969q0 112 36.5 205.5t99 155t145.5 95t176 33.5q74 0 138.5 -19.5t122.5 -66t95 -117.5q8 -16 8 -32q0 -18 -20 -31q-35 -22 -86 -25q-68 172 -258 172q-133 0 -226.5 -102t-93.5 -266q0 -106 34.5 -191.5t93 -138.5t131 -81t151.5 -28q103 0 168 23v451h618 q33 0 33 -41q0 -40 -10 -78h-504v-320h397q23 0 32 -10.5t9 -38.5v-67h-438v-111q0 -128 34.5 -175.5t123.5 -47.5h338q23 0 32 -11t9 -38v-68h-394q-153 0 -216.5 82.5t-63.5 292.5v74q-73 -31 -189 -31q-148 0 -267.5 67t-189 193.5t-69.5 290.5z" />
<glyph unicode="&#x20a1;" horiz-adv-x="1406" d="M127 762q0 154 47.5 282t128.5 214t185.5 137t222.5 61l37 158h59q33 0 27 -31l-29 -127q74 -3 149 -22l41 180h60q32 0 26 -31l-41 -180q180 -79 265 -246q8 -16 8 -31q0 -17 -25 -36q-46 -29 -96 -35q-63 141 -182 213l-265 -1155q87 -17 158 -17q198 0 342 84 q19 -28 19 -65q0 -45 -114.5 -92.5t-262.5 -47.5q-78 0 -168 17l-39 -172h-51q-16 0 -25.5 9.5t-5.5 29.5l35 155q-74 23 -144 62l-57 -256h-51q-16 0 -25.5 9.5t-5.5 29.5l62 270q-135 104 -210 266t-75 367zM266 768q0 -299 180 -485l236 1046q-176 -29 -296 -178.5 t-120 -382.5zM522 215q64 -46 140 -76l264 1170q-67 23 -150 26z" />
<glyph unicode="&#x20a2;" horiz-adv-x="1406" d="M127 762q0 130 34.5 243t94.5 195t140.5 141t174.5 88t195 29q189 0 329.5 -82.5t209.5 -218.5q8 -16 8 -31q0 -17 -25 -36q-46 -29 -96 -35q-59 134 -171 207t-261 73q-96 0 -184 -38t-157.5 -108t-111 -179.5t-41.5 -241.5q0 -229 105 -391t280 -234v734q38 12 101 12 q34 0 34 -31v-129q38 74 108 117t153 43q77 0 133 -27q34 -16 34 -43q0 -15 -12 -33q-19 -26 -51 -51q-59 35 -139 35q-74 0 -135.5 -52.5t-90.5 -146.5v-467q49 -8 117 -8q198 0 342 84q19 -28 19 -65q0 -45 -114.5 -92.5t-262.5 -47.5q-160 0 -300 56t-241.5 156.5 t-160 249t-58.5 325.5z" />
<glyph unicode="&#x20a3;" horiz-adv-x="1120" d="M47 549q0 25 8 57h146v158h-127q-27 0 -27 31q0 25 8 57h146v582h805q32 0 32 -41q0 -40 -10 -82h-688v-459h539q20 0 27 -10t7 -35v-43h-573v-158h539q20 0 27 -9.5t7 -35.5v-43h-573v-518h-90q-28 0 -38.5 8.5t-10.5 30.5v479h-127q-27 0 -27 31z" />
<glyph unicode="&#x20a4;" horiz-adv-x="1220" d="M113 510q0 30 10 57h135v156h-119q-26 0 -26 33q0 32 10 55h135v184q0 217 115 340t299 123q144 0 250.5 -79.5t164.5 -213.5q11 -22 11 -41q0 -18 -25 -32q-47 -22 -98 -29q-40 138 -119 205t-186 67q-123 0 -198 -87t-75 -242v-195h441q20 0 28 -9.5t8 -35.5v-43h-477 v-156h441q20 0 28 -10.5t8 -36.5v-41h-477v-104q0 -170 -96 -254h786q22 0 30.5 -11.5t8.5 -39.5v-70h-944q-22 0 -31.5 11t-9.5 38v62q61 53 89 109.5t28 148.5v110h-119q-26 0 -26 31z" />
<glyph unicode="&#x20a6;" horiz-adv-x="1470" d="M61 588q0 31 11 57h137v143h-121q-27 0 -27 31q0 32 11 58h137v522q26 20 56.5 32.5t51.5 12.5q30 0 48 -27l342 -540h415v557h90q28 0 39 -9t11 -32v-516h110q20 0 28.5 -10t8.5 -36v-43h-147v-143h110q21 0 29 -9.5t8 -35.5v-43h-147v-522q-26 -20 -57 -32.5t-52 -12.5 q-27 0 -47 26l-344 541h-414v-557h-90q-28 0 -38.5 9t-10.5 32v516h-121q-27 0 -27 31zM348 645h359l-91 143h-268v-143zM348 877h211l-211 333v-333zM764 788l90 -143h268v143h-358zM909 557l213 -334v334h-213z" />
<glyph unicode="&#x20a7;" horiz-adv-x="2308" d="M207 39v1395h235q194 0 332 -86t189 -254h172v309q51 14 92 14q43 0 43 -35v-288h286q28 0 39 -9.5t11 -35.5q88 69 227 69q232 0 332 -178q21 -40 -6 -61q-36 -29 -99 -41q-35 81 -90.5 121t-140.5 40q-78 0 -136.5 -53t-58.5 -127q0 -82 60 -131t192 -84 q305 -81 305 -313q0 -136 -97.5 -213.5t-281.5 -77.5h-352q-158 0 -241.5 92.5t-83.5 263.5v621h-152q2 -18 2 -51q0 -125 -39 -226.5t-107 -166t-156.5 -98.5t-190.5 -34q-78 0 -146 19v-420h-90q-27 0 -38 8.5t-11 30.5zM346 537q62 -15 131 -15q160 0 265.5 105 t105.5 291q0 189 -107.5 291t-273.5 102h-121v-774zM1270 354q0 -121 57 -179t156 -58h317q256 0 256 168q0 74 -50.5 123t-164.5 79q-173 44 -256.5 123.5t-83.5 210.5q0 92 43 156h-274v-623z" />
<glyph unicode="&#x20a8;" horiz-adv-x="1980" d="M207 39v1395h289q254 0 406.5 -132t152.5 -364q0 -166 -78 -280.5t-213 -170.5q79 -188 184 -323q35 -44 58.5 -58t68.5 -14h27q6 -18 6 -39q0 -33 -28 -55.5t-81 -22.5q-94 0 -174 117q-96 137 -186 363q-67 -13 -129 -13q-95 0 -164 19v-461h-90q-27 0 -38 8.5 t-11 30.5zM346 580q67 -17 150 -17q189 0 302 98t113 277q0 182 -114 277.5t-305 95.5h-146v-731zM1178 821q0 132 89 214.5t238 82.5q228 0 330 -182q25 -46 -18 -70q-34 -21 -86 -28q-34 78 -93.5 119.5t-136.5 41.5q-85 0 -137.5 -49.5t-52.5 -130.5q0 -83 60.5 -135 t187.5 -92q153 -48 228 -126t75 -194q0 -132 -93 -214.5t-258 -82.5q-81 0 -153 21t-110 49t-38 51q0 42 19 64q136 -68 270 -68q112 0 171 45t59 127q0 75 -51 125.5t-165 83.5q-168 50 -251.5 135.5t-83.5 212.5z" />
<glyph unicode="&#x20a9;" horiz-adv-x="2269" d="M61 557q0 21 9 57h278l-45 144h-215q-27 0 -27 30q0 22 9 58h206l-172 553q56 43 107 43q33 0 43 -35l172 -561h465q83 273 147 588h129q28 0 43.5 -9t22.5 -32l162 -547h467q85 276 147 588h96q52 0 43 -43q-60 -289 -137 -545h170q20 0 28.5 -10t8.5 -35v-43h-236 q-18 -63 -49 -144h248q20 0 28.5 -10t8.5 -35v-43h-317q-93 -247 -211 -489q-19 -37 -66 -37h-121l-153 526h-424q-87 -248 -203 -489q-16 -37 -66 -37h-116l-164 526h-289q-27 0 -27 31zM453 758l43 -144h321q36 107 47 144h-411zM522 526l111 -360q84 175 151 360h-262z M956 614h367l-41 144h-278q-5 -19 -48 -144zM1030 846h225l-118 411q-53 -230 -107 -411zM1421 758l41 -144h322q48 142 49 144h-412zM1489 526l106 -358q80 165 156 358h-262z" />
<glyph unicode="&#x20aa;" horiz-adv-x="1845" d="M207 39v1395h477q267 0 394.5 -145t127.5 -441v-332h-90q-27 0 -38 8.5t-11 30.5v281q0 133 -25.5 226t-77 147t-121 78t-165.5 24h-332v-1311h-90q-27 0 -38 8.5t-11 30.5zM637 586v315q49 17 96 17q41 0 41 -35v-287q0 -175 45 -281t128.5 -150t215.5 -44h332v1313h90 q27 0 38 -9.5t11 -31.5v-1393h-475q-267 0 -394.5 145t-127.5 441z" />
<glyph unicode="&#x20ab;" horiz-adv-x="1316" d="M115 461q0 161 72 293.5t195.5 207t272.5 74.5q196 0 330 -121v275h-364q-33 0 -33 33q0 42 8 63h389v148h86q26 0 37.5 -9.5t11.5 -31.5v-107h86q23 0 32 -11t9 -38v-47h-127v-979q0 -62 19.5 -88.5t58.5 -26.5h37q8 -28 8 -49q0 -23 -28 -42t-70 -19q-67 0 -112 57.5 t-48 165.5q-63 -105 -165 -169.5t-234 -64.5q-130 0 -236 57t-170.5 169t-64.5 260zM252 463q0 -173 99.5 -272t252.5 -99q117 0 218.5 78t162.5 231v383q-134 134 -315 134q-173 0 -295.5 -131t-122.5 -324zM291 -268q0 40 10 67h795q22 0 31.5 -11t9.5 -38v-57h-813 q-33 0 -33 39z" />
<glyph unicode="&#x20ac;" horiz-adv-x="1406" d="M16 569q0 29 11 58h108q-8 57 -8 135v22h-84q-27 0 -27 31q0 28 11 57h106q23 183 117 318t227.5 201.5t288.5 66.5q189 0 329.5 -82.5t209.5 -218.5q8 -16 8 -31q0 -17 -25 -36q-46 -29 -96 -35q-59 134 -171 207t-261 73q-179 0 -318.5 -124t-169.5 -339h549 q20 0 28.5 -10t8.5 -35v-43h-592v-16q0 -68 13 -141h542q20 0 28.5 -10t8.5 -35v-43h-561q63 -209 227.5 -326t378.5 -117q198 0 342 84q19 -28 19 -65q0 -45 -114.5 -92.5t-262.5 -47.5q-272 0 -471.5 151.5t-263.5 412.5h-109q-27 0 -27 30z" />
<glyph unicode="&#x2122;" horiz-adv-x="1488" d="M68 1374q0 33 10 60h483q22 0 30.5 -10t8.5 -35v-48h-215v-610h-59q-26 0 -35.5 8t-9.5 27v575h-181q-32 0 -32 33zM645 768l68 645q53 31 80 31q17 0 26 -6t17 -21l182 -360l190 377h70q44 0 47 -37l70 -666h-66q-25 0 -34.5 7t-10.5 28l-53 516l-156 -315 q-11 -23 -45 -23h-59l-166 338l-57 -551h-58q-27 0 -37.5 8t-7.5 29z" />
<glyph unicode="&#x2202;" horiz-adv-x="1310" d="M111 428q0 216 144 347.5t353 131.5q123 0 234.5 -41t189.5 -110q-9 274 -137 426.5t-324 152.5q-108 0 -187.5 -57.5t-109.5 -171.5q-58 7 -94 27q-28 19 -28 41q0 20 10 43q50 114 159 177.5t257 63.5q262 0 427.5 -202t165.5 -551v-29q0 -324 -158 -512.5t-421 -188.5 q-213 0 -347 129.5t-134 323.5zM250 424q0 -141 98 -233.5t242 -92.5q189 0 311 142t131 387q-170 157 -401 157q-163 0 -272 -96.5t-109 -263.5z" />
<glyph unicode="&#x2206;" horiz-adv-x="1368" d="M53 51l541 1366q59 27 121 27q27 0 40.5 -10t22.5 -35l553 -1399h-1239q-24 0 -36 14t-3 37zM225 121h916l-459 1182z" />
<glyph unicode="&#x220f;" horiz-adv-x="1439" d="M207 -186v1702h975q26 0 37.5 -9.5t11.5 -31.5v-1702h-90q-27 0 -38 9.5t-11 31.5v1579h-746v-1620h-90q-26 0 -37.5 9.5t-11.5 31.5z" />
<glyph unicode="&#x2211;" horiz-adv-x="1236" d="M92 1403q9 49 37 88q20 25 59 25h932q22 0 31.5 -12t9.5 -40v-71h-905l479 -686v-29q0 -25 -16 -49l-447 -733h854q22 0 31.5 -12t9.5 -40v-71h-1015q-22 0 -31.5 11.5t-9.5 39.5v63l485 793z" />
<glyph unicode="&#x221a;" horiz-adv-x="1163" d="M92 709q0 36 10 69h170q47 0 62 -35l270 -600l330 1434h72q47 0 38 -41l-342 -1493q-6 -24 -21 -33.5t-46 -9.5h-96l-301 668h-111q-35 0 -35 41z" />
<glyph unicode="&#x221e;" horiz-adv-x="1628" d="M174 682q0 130 90 210.5t211 80.5q96 0 175.5 -47t162.5 -158q153 205 340 205q121 0 211 -80.5t90 -210.5t-90 -211.5t-211 -81.5q-97 0 -175.5 47t-162.5 158q-153 -205 -340 -205q-121 0 -211 81.5t-90 211.5zM297 682q0 -86 53 -136t133 -50q70 0 129.5 38.5 t132.5 147.5q-82 110 -137.5 147t-124.5 37q-80 0 -133 -49t-53 -135zM881 682q81 -111 137.5 -148.5t126.5 -37.5q80 0 133 50t53 136q0 85 -53.5 134.5t-132.5 49.5q-70 0 -128 -38t-136 -146z" />
<glyph unicode="&#x222b;" horiz-adv-x="1071" d="M45 -418q0 30 21 64q74 -33 190 -33q211 0 211 223v1331q0 169 85 261t234 92q92 0 165 -30.5t73 -57.5q0 -32 -20 -64q-74 33 -191 33q-211 0 -211 -223v-1332q0 -169 -85 -260.5t-234 -91.5q-92 0 -165 30.5t-73 57.5z" />
<glyph unicode="&#x2248;" horiz-adv-x="1349" d="M178 377q0 12 4 24q29 110 101.5 168t171.5 58q122 0 243 -97q63 -52 106 -72t85 -20q56 0 96.5 45.5t58.5 143.5l99 -21q17 -3 22.5 -13t1.5 -32q-24 -116 -98.5 -177.5t-175.5 -61.5q-125 0 -244 96q-63 52 -105.5 72t-84.5 20q-56 0 -97 -45t-59 -143q-64 -3 -102 18 q-23 14 -23 37zM178 786q0 13 4 25q29 110 101.5 167.5t171.5 57.5q124 0 243 -96q63 -52 106 -72t85 -20q121 0 155 188l99 -20q17 -3 22.5 -13t1.5 -32q-24 -116 -98.5 -178t-175.5 -62q-125 0 -244 96q-64 52 -106 72.5t-84 20.5q-56 0 -97 -45.5t-59 -143.5 q-62 -3 -102 19q-23 14 -23 36z" />
<glyph unicode="&#x2260;" horiz-adv-x="1349" d="M184 438q0 39 11 76h331l170 330h-479q-33 0 -33 39q0 36 11 78h561l155 299h72q24 0 33 -11.5t-2 -34.5l-131 -253h239q23 0 32 -11.5t9 -38.5v-67h-342l-170 -330h471q23 0 32 -10.5t9 -38.5v-68h-571l-154 -297h-71q-24 0 -33 11t2 34l129 252h-248q-33 0 -33 41z" />
<glyph unicode="&#x2264;" horiz-adv-x="1306" d="M162 809v90l915 399q20 5 21 5q30 0 30 -46t-8 -77l-809 -346l774 -332q23 -10 33 -22.5t10 -37.5v-96l-925 404q-23 9 -32 21.5t-9 37.5zM164 39q0 40 10 78h928q22 0 31.5 -11.5t9.5 -39.5v-66h-946q-33 0 -33 39z" />
<glyph unicode="&#x2265;" horiz-adv-x="1306" d="M164 0v66q0 28 9.5 39.5t31.5 11.5h928q10 -38 10 -78q0 -39 -33 -39h-946zM178 346v96q0 25 10 37.5t33 22.5l774 332l-809 346q-8 31 -8 77t31 46l20 -5l916 -399v-90q0 -25 -9 -37.5t-32 -21.5z" />
<glyph unicode="&#x25ca;" horiz-adv-x="1058" d="M92 723l379 713q37 16 82 16q18 0 25.5 -5t15.5 -20l373 -704l-375 -696q-15 -27 -60 -27h-51zM233 723l297 -557l297 557l-297 559z" />
<glyph unicode="&#x25fc;" horiz-adv-x="1095" d="M0 0v1096h1096v-1096h-1096z" />
</font>
</defs>
</svg>
