<?xml version="1.0" encoding="utf-8"?>
<!-- Generator: Adobe Illustrator 16.0.1, SVG Export Plug-In . SVG Version: 6.00 Build 0)  -->
<!DOCTYPE svg PUBLIC "-//W3C//DTD SVG 1.1//EN" "http://www.w3.org/Graphics/SVG/1.1/DTD/svg11.dtd">
<svg version="1.1" id="Слой_1" xmlns="http://www.w3.org/2000/svg" xmlns:xlink="http://www.w3.org/1999/xlink" x="0px" y="0px"
	 width="109.44px" height="157.994px" viewBox="0 0 109.44 157.994" enable-background="new 0 0 109.44 157.994"
	 xml:space="preserve">
<g>
	<defs>
		<rect id="SVGID_1_" width="109.44" height="157.994"/>
	</defs>
	<clipPath id="SVGID_2_">
		<use xlink:href="#SVGID_1_"  overflow="visible"/>
	</clipPath>
	<path clip-path="url(#SVGID_2_)" fill-rule="evenodd" clip-rule="evenodd" fill="#98294C" d="M12.3,120.467
		c2.888,0,5.399,0.949,7.361,3.09c1.86,2.03,2.82,4.421,2.82,7.175c0,2.745-0.967,5.125-2.82,7.146
		c-1.962,2.142-4.473,3.09-7.361,3.09s-5.399-0.948-7.361-3.09c-1.853-2.022-2.82-4.401-2.82-7.146c0-2.755,0.96-5.145,2.82-7.175
		C6.901,121.416,9.412,120.467,12.3,120.467 M0.157,60.572c0-16.276,3.757-32.33,15.244-44.419
		C26.032,4.967,39.444,0.079,54.79,0.079c10.133,0,19.749,2.348,28.468,7.544c8.535,5.086,14.95,12.163,19.346,21.072
		c4.71,9.545,6.635,19.962,6.635,30.557c0,10.802-2.03,21.35-6.98,31.011c-4.559,8.897-11.083,15.941-19.855,20.756
		c-8.618,4.73-17.86,7.037-27.691,7.037c-10.294,0-20-2.388-28.79-7.784c-8.481-5.208-14.887-12.306-19.236-21.257
		C2.331,80.055,0.157,70.536,0.157,60.572 M47.676,60.125c0.813,0.618,1.55,1.329,2.185,2.132c1.495,1.888,2.432,4.157,3.033,6.474
		l0.62,2.388l-0.138,0.038l0.076,0.295l-8.29,2.278l-0.086-0.291l-0.356,0.098l-0.698-2.353c-0.326-1.098-0.784-2.348-1.483-3.264
		c-0.277-0.362-0.613-0.679-0.998-0.924c-0.302-0.192-0.632-0.34-0.961-0.479c-1.229-0.519-2.554-0.733-3.884-0.733
		c-1.532,0-3.136,0.192-4.56,0.785c-0.908,0.379-1.849,0.838-2.526,1.571l-0.077,0.082c-0.715,0.775-1.277,1.661-1.682,2.634
		c-0.773,1.863-1.102,3.848-1.102,5.859c0,2.167,0.29,4.494,1.287,6.444c0.78,1.523,1.892,2.665,3.43,3.428
		c1.641,0.813,3.385,1.222,5.217,1.222c1.642,0,3.233-0.334,4.755-0.946c0.903-0.364,1.818-0.776,2.638-1.309v-2.145h-9.583v-0.427
		h-0.377v-8.974l19.364-0.03v0.963h0.011v16.045l-0.827,0.66c-2.279,1.822-4.792,3.34-7.526,4.375
		c-2.603,0.985-5.329,1.49-8.113,1.49c-0.969,0-1.939-0.055-2.901-0.171c6.04,4.013,12.835,5.777,20.14,5.777
		c7.245,0,14.062-1.685,20.103-5.645c-0.422,0.026-0.844,0.038-1.265,0.038c-3.513,0-6.844-0.832-9.849-2.676
		c-1.244-0.764-2.357-1.694-3.404-2.708c-1.603-1.551-2.957-3.294-3.936-5.308c-1.456-2.998-2.193-6.221-2.193-9.555
		c0-5.5,1.345-10.859,5.22-14.936c1.786-1.879,3.885-3.319,6.277-4.259c-2.377-1.053-4.433-2.597-6.151-4.579
		c-1.805-2.082-3.174-4.44-4.082-7.015l-1.099,10.283l-0.984,0.627C51.241,58.447,49.497,59.375,47.676,60.125 M17.785,71.297
		c0.387-1.594,0.94-3.142,1.655-4.626c1.464-3.041,3.612-5.516,6.512-7.212c-0.773-0.398-1.523-0.839-2.245-1.322
		c-1.807-1.207-3.394-2.681-4.693-4.424l-0.017-0.021c-0.63-0.846-1.189-1.74-1.67-2.676c-0.316,3.121-0.446,6.261-0.446,9.398
		C16.881,64.055,17.146,67.71,17.785,71.297 M39.028,17.472c0.023,0.002,0.046,0.004,0.069,0.007
		c1.684,0.18,3.348,0.531,4.964,1.038l0.042,0.014l0.129,0.042c1.1,0.37,2.176,0.813,3.201,1.357
		c2.334,1.236,4.367,2.917,5.786,5.165c0.926,1.467,1.575,3.086,2.023,4.759c0.128-0.271,0.265-0.537,0.407-0.8
		c2.523-4.643,6.563-7.508,11.621-8.863c2.062-0.552,4.169-0.76,6.288-0.65c-5.824-3.553-12.23-5.185-19.062-5.185
		C49.132,14.356,43.922,15.322,39.028,17.472 M80.194,58.34c0.69,0.301,1.359,0.646,2.007,1.032
		c1.451,0.865,2.727,1.952,3.899,3.165c1.379,1.427,2.561,3.003,3.44,4.787c0.535,1.084,0.969,2.211,1.305,3.369
		c0.682-3.921,0.957-7.916,0.957-11.89c0-3.704-0.262-7.418-0.872-11.074c-0.866,2.459-2.245,4.633-4.16,6.468
		C84.855,56.03,82.656,57.414,80.194,58.34 M63.83,81.316c0.352,1.497,1.089,2.841,2.14,3.965c1.76,1.885,3.875,2.733,6.441,2.733
		c2.583,0,4.729-0.828,6.488-2.748c2.068-2.255,2.617-5.46,2.617-8.418c0-2.108-0.309-4.257-1.182-6.19
		c-0.696-1.539-1.707-2.799-3.144-3.704c-0.768-0.485-1.599-0.881-2.494-1.057c-0.508-0.1-1.032-0.114-1.548-0.114
		c-2.657,0-4.892,0.887-6.815,2.721c-2.368,2.258-2.808,6.407-2.808,9.509C63.526,79.117,63.577,80.24,63.83,81.316 M53.498,38.37
		c-0.019-0.888,0.015-1.778,0.108-2.662l-7.384,1.205l-0.482-2.626c-0.234-1.273-0.597-2.726-1.274-3.839
		c-0.542-0.892-1.422-1.556-2.323-2.055c-1.249-0.693-2.64-1.07-4.056-1.222c-1.64-0.175-3.38-0.156-4.971,0.316
		c-1.196,0.355-2.35,0.893-3.286,1.73c-0.887,0.793-1.635,1.711-2.206,2.756c-1.089,1.991-1.695,4.172-1.935,6.423
		c-0.26,2.426-0.213,5.063,0.671,7.366c0.693,1.806,1.807,3.222,3.443,4.264c1.741,1.108,3.646,1.775,5.698,1.995
		c1.832,0.195,3.667,0.01,5.437-0.492c1.067-0.302,2.157-0.66,3.148-1.168l0.319-2.984l-11.092-1.186l1.052-9.835L53.498,38.37z
		 M66.118,47.357c0.615,0.824,1.39,1.503,2.262,2.046c2.169,1.352,4.471,1.632,6.929,0.973c2.496-0.669,4.354-2.024,5.559-4.334
		c1.413-2.712,1.113-5.951,0.349-8.808c-0.546-2.036-1.4-4.033-2.745-5.673c-1.069-1.306-2.373-2.262-3.994-2.765
		c-1.626-0.505-3.25-0.486-4.888-0.048c-1.605,0.43-3.059,1.165-4.203,2.385c-0.44,0.469-0.811,1.004-1.145,1.552
		c-1.703,2.794-1.055,6.914-0.251,9.911C64.438,44.269,65.072,45.96,66.118,47.357 M11.818,139.227
		c0.07,0.011,0.148,0.024,0.218,0.024H12.3h0.264c0.069,0,0.148-0.014,0.217-0.024c1.709-0.236,3.106-0.986,4.302-2.231
		c1.572-1.637,1.961-4.083,1.961-6.264s-0.389-4.627-1.961-6.263c-1.197-1.246-2.593-1.991-4.302-2.231
		c-0.069-0.011-0.148-0.025-0.217-0.025H12.3h-0.264c-0.069,0-0.148,0.015-0.217,0.025c-1.709,0.24-3.105,0.985-4.302,2.231
		c-1.573,1.636-1.961,4.083-1.961,6.263c0,2.181,0.388,4.627,1.961,6.264C8.713,138.24,10.109,138.99,11.818,139.227
		 M39.159,121.577l0.028-0.028h0.137h0.056h0.007c0.071-0.021,0.144-0.048,0.206-0.082c0.036-0.021,0.064-0.053,0.085-0.089
		l0.096-0.161h1.408v4.935h-1.503l-0.082-0.213c-0.318-0.834-0.783-1.634-1.482-2.207c-0.587-0.48-1.238-0.865-1.955-1.123
		c-0.404-0.145-0.821-0.262-1.248-0.315c-0.385-0.05-0.776-0.081-1.165-0.081c-0.278,0-0.557,0.02-0.834,0.053
		c-0.286,0.035-0.568,0.098-0.844,0.183c-1.304,0.4-2.354,1.297-3.196,2.346c-1.193,1.486-1.453,3.712-1.453,5.55
		c0,0.576,0.039,1.156,0.095,1.73c0.066,0.67,0.209,1.334,0.391,1.981c0.388,1.373,1.12,2.563,2.1,3.593
		c1.217,1.279,3.077,1.604,4.768,1.604c1.169,0,2.251-0.298,3.233-0.931c0.96-0.62,1.374-1.518,1.374-2.649
		c0-0.401-0.038-0.985-0.264-1.331c-0.136-0.205-0.32-0.426-0.547-0.535c-0.077-0.037-0.159-0.068-0.244-0.083
		c-0.082-0.014-0.167-0.022-0.25-0.022h-0.332v-1.606h4.686v7.311l-0.223,0.076c-1.013,0.349-2.041,0.681-3.077,0.951
		c-0.829,0.216-1.669,0.342-2.52,0.425c-0.31,0.03-0.618,0.066-0.929,0.084c-0.33,0.021-0.66,0.028-0.99,0.028
		c-1.277,0-2.651-0.095-3.881-0.457c-0.844-0.248-1.773-0.553-2.532-1.005c-0.326-0.193-0.631-0.412-0.926-0.65
		c-0.208-0.168-0.408-0.35-0.59-0.547c-0.961-1.037-1.708-2.196-2.14-3.55c-0.46-1.442-0.64-2.962-0.64-4.471
		c0-0.885,0.103-1.773,0.362-2.622c0.209-0.688,0.457-1.382,0.784-2.023c0.206-0.403,0.439-0.807,0.709-1.171
		c0.135-0.182,0.268-0.369,0.407-0.548c0.877-1.123,1.993-1.959,3.289-2.54c1.246-0.558,2.564-0.896,3.932-0.917
		c0.048-0.001,0.096,0,0.144,0h0.111c0.746,0,1.589,0.025,2.32,0.189c0.464,0.104,0.977,0.207,1.415,0.392
		c0.101,0.043,0.199,0.096,0.3,0.136c0.089,0.036,0.178,0.075,0.269,0.108c0.152,0.056,0.309,0.1,0.465,0.146
		c0.166,0.05,0.336,0.086,0.506,0.116l0.046,0.009l0.02,0.015H39.159z M54.113,120.467c2.888,0,5.398,0.949,7.361,3.09
		c1.859,2.03,2.819,4.421,2.819,7.175c0,2.745-0.967,5.125-2.819,7.146c-1.963,2.142-4.474,3.09-7.361,3.09
		c-2.889,0-5.399-0.948-7.361-3.09c-1.853-2.022-2.82-4.401-2.82-7.146c0-2.755,0.96-5.145,2.82-7.175
		C48.714,121.416,51.225,120.467,54.113,120.467 M53.632,139.227c0.069,0.011,0.148,0.024,0.218,0.024h0.264h0.264
		c0.068,0,0.147-0.014,0.217-0.024c1.71-0.236,3.106-0.986,4.302-2.231c1.572-1.637,1.961-4.083,1.961-6.264
		s-0.389-4.627-1.961-6.263c-1.196-1.246-2.593-1.991-4.302-2.231c-0.069-0.011-0.148-0.025-0.217-0.025h-0.264H53.85
		c-0.07,0-0.149,0.015-0.218,0.025c-1.709,0.24-3.105,0.985-4.302,2.231c-1.572,1.636-1.961,4.083-1.961,6.263
		c0,2.181,0.389,4.627,1.961,6.264C50.526,138.24,51.922,138.99,53.632,139.227 M80.972,121.577L81,121.549h0.138h0.055h0.009
		c0.069-0.021,0.143-0.048,0.205-0.082c0.036-0.021,0.063-0.053,0.085-0.089l0.097-0.161h1.407v4.935h-1.503l-0.081-0.213
		c-0.319-0.834-0.784-1.634-1.482-2.207c-0.588-0.48-1.239-0.865-1.955-1.123c-0.404-0.145-0.822-0.262-1.248-0.315
		c-0.386-0.05-0.776-0.081-1.165-0.081c-0.278,0-0.558,0.02-0.834,0.053c-0.287,0.035-0.568,0.098-0.845,0.183
		c-1.304,0.4-2.354,1.297-3.196,2.346c-1.191,1.486-1.453,3.712-1.453,5.55c0,0.576,0.039,1.156,0.097,1.73
		c0.064,0.67,0.208,1.334,0.391,1.981c0.387,1.373,1.119,2.563,2.099,3.593c1.219,1.279,3.077,1.604,4.77,1.604
		c1.169,0,2.25-0.298,3.231-0.931c0.962-0.62,1.375-1.518,1.375-2.649c0-0.401-0.037-0.985-0.265-1.331
		c-0.136-0.205-0.32-0.426-0.547-0.535c-0.076-0.037-0.159-0.068-0.244-0.083c-0.082-0.014-0.166-0.022-0.25-0.022h-0.331v-1.606
		h4.687v7.311l-0.225,0.076c-1.012,0.349-2.04,0.681-3.076,0.951c-0.828,0.216-1.67,0.342-2.521,0.425
		c-0.309,0.03-0.618,0.066-0.928,0.084c-0.33,0.021-0.661,0.028-0.991,0.028c-1.277,0-2.65-0.095-3.881-0.457
		c-0.845-0.248-1.773-0.553-2.531-1.005c-0.326-0.193-0.632-0.412-0.927-0.65c-0.208-0.168-0.408-0.35-0.59-0.547
		c-0.961-1.037-1.707-2.196-2.14-3.55c-0.461-1.442-0.64-2.962-0.64-4.471c0-0.885,0.102-1.773,0.361-2.622
		c0.209-0.688,0.457-1.382,0.784-2.023c0.205-0.403,0.438-0.807,0.708-1.171c0.136-0.182,0.27-0.369,0.407-0.548
		c0.877-1.123,1.993-1.959,3.29-2.54c1.246-0.558,2.563-0.896,3.931-0.917c0.049-0.001,0.097,0,0.145,0h0.111
		c0.747,0,1.589,0.025,2.319,0.189c0.464,0.104,0.979,0.207,1.416,0.392c0.101,0.043,0.199,0.096,0.299,0.136
		c0.091,0.036,0.179,0.075,0.27,0.108c0.153,0.056,0.309,0.1,0.465,0.146c0.166,0.05,0.336,0.086,0.506,0.116l0.046,0.009
		l0.021,0.015H80.972z M95.927,120.467c2.888,0,5.398,0.949,7.361,3.09c1.858,2.03,2.819,4.421,2.819,7.175
		c0,2.745-0.968,5.125-2.819,7.146c-1.963,2.142-4.474,3.09-7.361,3.09c-2.889,0-5.399-0.948-7.362-3.09
		c-1.853-2.022-2.819-4.401-2.819-7.146c0-2.755,0.961-5.145,2.819-7.175C90.527,121.416,93.038,120.467,95.927,120.467
		 M95.444,139.227c0.069,0.011,0.148,0.024,0.219,0.024h0.264h0.263c0.07,0,0.148-0.014,0.219-0.024
		c1.709-0.236,3.105-0.986,4.301-2.231c1.573-1.637,1.961-4.083,1.961-6.264s-0.388-4.627-1.961-6.263
		c-1.197-1.246-2.593-1.991-4.302-2.231c-0.069-0.011-0.147-0.025-0.218-0.025h-0.263h-0.264c-0.07,0-0.149,0.015-0.219,0.025
		c-1.708,0.24-3.104,0.985-4.302,2.231c-1.572,1.636-1.96,4.083-1.96,6.263c0,2.181,0.388,4.627,1.96,6.264
		C92.34,138.24,93.735,138.99,95.444,139.227"/>
	<path clip-path="url(#SVGID_2_)" fill="#B43670" d="M12.3,120.799c2.922,0,5.294,0.994,7.116,2.981
		c1.822,1.989,2.733,4.307,2.733,6.951c0,2.626-0.911,4.935-2.733,6.922c-1.822,1.989-4.194,2.983-7.116,2.983
		c-2.923,0-5.295-0.994-7.117-2.983c-1.822-1.987-2.733-4.296-2.733-6.922c0-2.645,0.911-4.962,2.733-6.951
		C7.005,121.793,9.377,120.799,12.3,120.799 M12.3,121.881h-0.264c-0.083,0-0.171,0.009-0.264,0.027
		c-1.627,0.13-3.126,0.906-4.494,2.33c-1.369,1.426-2.054,3.59-2.054,6.493c0,2.904,0.685,5.068,2.054,6.492
		c1.368,1.425,2.867,2.201,4.494,2.331c0.093,0.018,0.181,0.028,0.264,0.028H12.3h0.263c0.084,0,0.171-0.011,0.264-0.028
		c1.627-0.13,3.126-0.906,4.495-2.331c1.368-1.424,2.053-3.588,2.053-6.492c0-2.903-0.685-5.067-2.053-6.493
		c-1.369-1.424-2.868-2.2-4.495-2.33c-0.093-0.019-0.18-0.027-0.264-0.027H12.3z M40.85,121.548v4.272h-0.944
		c-0.388-1.017-0.915-1.799-1.581-2.345c-0.666-0.545-1.35-0.938-2.053-1.179c-0.444-0.166-0.883-0.277-1.318-0.333
		s-0.837-0.083-1.207-0.083c-0.277,0-0.569,0.018-0.874,0.055s-0.606,0.103-0.902,0.195c-1.22,0.37-2.34,1.188-3.357,2.455
		c-1.017,1.267-1.526,3.186-1.526,5.757c0,0.518,0.033,1.106,0.097,1.762c0.065,0.657,0.199,1.337,0.402,2.04
		c0.37,1.351,1.097,2.594,2.178,3.731c1.083,1.138,2.752,1.707,5.008,1.707c1.258,0,2.396-0.329,3.413-0.985
		c1.018-0.657,1.526-1.633,1.526-2.928c0-0.685-0.106-1.188-0.319-1.512c-0.212-0.323-0.439-0.541-0.679-0.652
		c-0.111-0.055-0.222-0.092-0.333-0.111c-0.111-0.018-0.213-0.026-0.306-0.026v-0.944h4.023v6.742
		c-1.183,0.406-2.201,0.722-3.052,0.943c-0.851,0.223-1.673,0.361-2.469,0.416c-0.296,0.037-0.601,0.065-0.915,0.083
		c-0.315,0.02-0.639,0.028-0.972,0.028c-1.516,0-2.779-0.148-3.787-0.444c-1.008-0.296-1.827-0.62-2.455-0.971
		c-0.352-0.222-0.648-0.43-0.888-0.624c-0.241-0.194-0.426-0.366-0.555-0.514c-0.962-0.98-1.651-2.122-2.067-3.426
		c-0.417-1.305-0.625-2.762-0.625-4.37c0-0.926,0.116-1.768,0.347-2.525c0.232-0.758,0.486-1.415,0.763-1.97
		c0.241-0.463,0.467-0.837,0.68-1.124c0.213-0.286,0.347-0.467,0.402-0.541c0.87-1.073,1.924-1.886,3.163-2.441
		c1.24-0.555,2.507-0.851,3.802-0.888h0.138h0.111c0.962,0,1.711,0.06,2.248,0.18c0.536,0.121,0.989,0.245,1.359,0.375
		c0.111,0.056,0.213,0.103,0.305,0.139c0.093,0.037,0.185,0.073,0.278,0.111c0.166,0.056,0.328,0.106,0.485,0.152
		c0.158,0.046,0.338,0.088,0.542,0.125c0.036,0.018,0.078,0.027,0.124,0.027h0.153h0.055c0.019,0,0.038-0.01,0.056-0.027h0.055
		h0.056c0.129-0.037,0.236-0.079,0.319-0.125s0.152-0.116,0.208-0.208H40.85z M54.112,120.799c2.923,0,5.295,0.994,7.116,2.981
		c1.822,1.989,2.733,4.307,2.733,6.951c0,2.626-0.911,4.935-2.733,6.922c-1.821,1.989-4.193,2.983-7.116,2.983
		c-2.922,0-5.295-0.994-7.116-2.983c-1.822-1.987-2.734-4.296-2.734-6.922c0-2.645,0.912-4.962,2.734-6.951
		C48.817,121.793,51.19,120.799,54.112,120.799 M54.112,121.881h-0.263c-0.083,0-0.171,0.009-0.264,0.027
		c-1.628,0.13-3.126,0.906-4.495,2.33c-1.368,1.426-2.053,3.59-2.053,6.493c0,2.904,0.685,5.068,2.053,6.492
		c1.369,1.425,2.867,2.201,4.495,2.331c0.093,0.018,0.181,0.028,0.264,0.028h0.263h0.264c0.083,0,0.171-0.011,0.264-0.028
		c1.627-0.13,3.126-0.906,4.494-2.331c1.369-1.424,2.055-3.588,2.055-6.492c0-2.903-0.686-5.067-2.055-6.493
		c-1.368-1.424-2.867-2.2-4.494-2.33c-0.093-0.019-0.181-0.027-0.264-0.027H54.112z M82.663,121.548v4.272h-0.944
		c-0.388-1.017-0.915-1.799-1.581-2.345c-0.666-0.545-1.35-0.938-2.053-1.179c-0.444-0.166-0.884-0.277-1.318-0.333
		s-0.837-0.083-1.207-0.083c-0.277,0-0.568,0.018-0.874,0.055c-0.305,0.037-0.605,0.103-0.901,0.195
		c-1.221,0.37-2.34,1.188-3.357,2.455c-1.018,1.267-1.525,3.186-1.525,5.757c0,0.518,0.031,1.106,0.097,1.762
		c0.065,0.657,0.199,1.337,0.402,2.04c0.369,1.351,1.096,2.594,2.178,3.731s2.752,1.707,5.008,1.707
		c1.258,0,2.396-0.329,3.413-0.985c1.017-0.657,1.526-1.633,1.526-2.928c0-0.685-0.106-1.188-0.319-1.512s-0.439-0.541-0.68-0.652
		c-0.111-0.055-0.223-0.092-0.333-0.111c-0.111-0.018-0.212-0.026-0.306-0.026v-0.944h4.023v6.742
		c-1.185,0.406-2.201,0.722-3.052,0.943c-0.852,0.223-1.675,0.361-2.47,0.416c-0.296,0.037-0.601,0.065-0.916,0.083
		c-0.313,0.02-0.638,0.028-0.971,0.028c-1.517,0-2.779-0.148-3.787-0.444s-1.827-0.62-2.456-0.971
		c-0.351-0.222-0.646-0.43-0.888-0.624c-0.24-0.194-0.425-0.366-0.554-0.514c-0.962-0.98-1.651-2.122-2.067-3.426
		c-0.417-1.305-0.625-2.762-0.625-4.37c0-0.926,0.116-1.768,0.347-2.525c0.231-0.758,0.486-1.415,0.764-1.97
		c0.239-0.463,0.467-0.837,0.68-1.124c0.212-0.286,0.347-0.467,0.402-0.541c0.868-1.073,1.924-1.886,3.163-2.441
		c1.238-0.555,2.506-0.851,3.801-0.888h0.139h0.111c0.962,0,1.711,0.06,2.247,0.18c0.537,0.121,0.989,0.245,1.359,0.375
		c0.111,0.056,0.213,0.103,0.306,0.139c0.093,0.037,0.185,0.073,0.277,0.111c0.166,0.056,0.328,0.106,0.485,0.152
		c0.158,0.046,0.338,0.088,0.541,0.125c0.037,0.018,0.079,0.027,0.125,0.027h0.153h0.055c0.018,0,0.037-0.01,0.056-0.027h0.056
		h0.056c0.129-0.037,0.235-0.079,0.319-0.125c0.083-0.046,0.151-0.116,0.208-0.208H82.663z M95.925,120.799
		c2.923,0,5.295,0.994,7.117,2.981c1.822,1.989,2.733,4.307,2.733,6.951c0,2.626-0.911,4.935-2.733,6.922
		c-1.822,1.989-4.194,2.983-7.117,2.983c-2.922,0-5.295-0.994-7.117-2.983c-1.821-1.987-2.732-4.296-2.732-6.922
		c0-2.645,0.911-4.962,2.732-6.951C90.63,121.793,93.003,120.799,95.925,120.799 M95.925,121.881h-0.264
		c-0.083,0-0.171,0.009-0.263,0.027c-1.629,0.13-3.126,0.906-4.495,2.33c-1.369,1.426-2.054,3.59-2.054,6.493
		c0,2.904,0.685,5.068,2.054,6.492c1.369,1.425,2.866,2.201,4.495,2.331c0.092,0.018,0.18,0.028,0.263,0.028h0.264h0.265
		c0.083,0,0.171-0.011,0.263-0.028c1.628-0.13,3.126-0.906,4.495-2.331c1.369-1.424,2.053-3.588,2.053-6.492
		c0-2.903-0.684-5.067-2.053-6.493c-1.369-1.424-2.867-2.2-4.495-2.33c-0.092-0.019-0.18-0.027-0.263-0.027H95.925z"/>
	<path clip-path="url(#SVGID_2_)" fill-rule="evenodd" clip-rule="evenodd" fill="#C4457D" d="M1,59.811
		c0-18.516,4.96-33.008,14.906-43.473C25.852,5.871,38.681,0.626,54.42,0.626c10.283,0,19.581,2.467,27.839,7.375
		c8.26,4.935,14.569,11.791,18.906,20.594c4.338,8.778,6.493,18.777,6.493,29.917c0,11.323-2.26,21.452-6.831,30.36
		c-4.57,8.932-11.037,15.684-19.399,20.281c-8.388,4.597-17.399,6.883-27.086,6.883c-10.518,0-19.894-2.52-28.15-7.61
		c-8.285-5.064-14.544-11.998-18.803-20.775C3.13,78.899,1,69.602,1,59.811 M55.114,44.292c-0.17-0.635-0.321-1.273-0.45-1.913
		l-1.442,13.492l-0.836,0.533c-1.969,1.256-4.053,2.319-6.242,3.113c1.211,0.733,2.299,1.649,3.197,2.783
		c1.436,1.814,2.334,4.004,2.911,6.229l0.456,1.756l-7.538,2.072l-0.513-1.73c-0.346-1.166-0.847-2.503-1.592-3.478
		c-0.631-0.826-1.552-1.39-2.498-1.79c-1.25-0.528-2.595-0.746-3.948-0.746c-1.549,0-3.171,0.197-4.61,0.797
		c-1.112,0.463-2.153,1.098-2.965,1.997c-0.76,0.842-1.37,1.78-1.805,2.826c-0.809,1.948-1.154,4.011-1.154,6.114
		c0,2.272,0.314,4.699,1.361,6.746c0.846,1.653,2.061,2.894,3.725,3.72c1.738,0.861,3.57,1.292,5.511,1.292
		c1.732,0,3.397-0.349,5.003-0.995c0.988-0.399,2.129-0.92,3.053-1.572v-3.585h-9.959v-7.649l18.037-0.029v15.301l-0.691,0.553
		c-2.218,1.773-4.657,3.246-7.317,4.254c-2.526,0.957-5.164,1.445-7.865,1.445c-2.33,0-4.604-0.328-6.781-1.029
		c6.677,5.744,14.705,8.616,24.102,8.616c9.491,0,17.543-2.84,24.154-8.536c-1.914,0.635-3.912,0.949-5.982,0.949
		c-3.401,0-6.616-0.803-9.52-2.585c-2.818-1.73-4.962-4.104-6.407-7.078c-1.416-2.916-2.126-6.023-2.126-9.265
		c0-5.328,1.283-10.531,5.037-14.48c2.233-2.349,4.853-3.874,7.77-4.672c-2.998-0.967-5.548-2.662-7.623-5.056
		C57.443,50.241,55.953,47.424,55.114,44.292 M17.871,74.496c0.241-2.745,0.955-5.392,2.165-7.906
		c1.489-3.092,3.7-5.574,6.741-7.202c0.231-0.123,0.463-0.241,0.697-0.353c-1.192-0.524-2.346-1.152-3.452-1.891
		c-3.192-2.133-5.52-5.006-6.905-8.586c-0.056-0.143-0.109-0.286-0.162-0.43c-0.491,3.66-0.737,7.632-0.737,11.917
		C16.218,65.301,16.769,70.117,17.871,74.496 M36.448,17.612c0.857,0.012,1.717,0.065,2.577,0.157
		c2.793,0.299,5.516,1.028,8.005,2.347c2.246,1.19,4.203,2.804,5.569,4.967c1.287,2.039,2.018,4.386,2.417,6.754
		c0.311-0.963,0.712-1.909,1.216-2.835c2.433-4.474,6.314-7.228,11.21-8.54c2.948-0.79,5.935-0.912,8.883-0.235
		c-0.627-0.458-1.272-0.898-1.935-1.318c-5.922-3.714-12.543-5.584-19.894-5.584C47.894,13.325,41.879,14.752,36.448,17.612
		 M90.625,42.674c-0.072,0.736-0.185,1.473-0.343,2.207c-0.701,3.263-2.214,6.112-4.626,8.423c-2.248,2.152-4.88,3.647-7.859,4.502
		c1.408,0.409,2.768,0.994,4.064,1.766c2.841,1.693,4.991,4.06,6.454,7.026c1.336,2.707,1.99,5.627,2.133,8.617
		c1.343-4.984,2.017-10.577,2.017-16.781C92.465,52.728,91.849,47.475,90.625,42.674 M62.689,76.97c0,3.051,0.654,6.105,2.795,8.395
		c1.885,2.017,4.173,2.943,6.927,2.943c2.775,0,5.094-0.908,6.978-2.963c2.188-2.387,2.791-5.729,2.791-8.865
		c0-2.204-0.327-4.443-1.241-6.463c-0.751-1.662-1.849-3.018-3.394-3.992c-1.546-0.975-3.236-1.413-5.063-1.413
		c-2.699,0-4.978,0.904-6.931,2.767C63.142,69.679,62.689,73.831,62.689,76.97 M54.189,38.741c-0.078-1.41-0.025-2.814,0.188-4.199
		l-7.621,1.244l-0.366-1.988c-0.246-1.339-0.645-2.888-1.359-4.062c-0.604-0.995-1.563-1.733-2.568-2.291
		c-1.329-0.737-2.801-1.14-4.306-1.301c-1.726-0.185-3.557-0.158-5.231,0.339c-1.293,0.384-2.527,0.966-3.54,1.871
		c-0.945,0.846-1.736,1.818-2.345,2.932c-1.132,2.073-1.762,4.329-2.013,6.671c-0.27,2.531-0.21,5.27,0.712,7.674
		c0.746,1.942,1.95,3.468,3.705,4.585c1.834,1.167,3.823,1.864,5.984,2.095c1.928,0.207,3.824,0.017,5.689-0.513
		c1.148-0.325,2.48-0.77,3.588-1.386l0.427-3.992l-11.091-1.186l0.91-8.518L54.189,38.741z M63.156,42.211
		c0.79,2.947,2.212,5.727,4.873,7.386c2.342,1.46,4.792,1.763,7.452,1.05c2.681-0.718,4.686-2.196,5.973-4.667
		c1.496-2.872,1.213-6.257,0.401-9.286c-0.57-2.129-1.466-4.206-2.871-5.921c-1.156-1.411-2.567-2.437-4.312-2.978
		c-1.746-0.542-3.491-0.527-5.257-0.055c-2.606,0.699-4.572,2.161-5.977,4.467C61.705,35.052,62.344,39.18,63.156,42.211"/>
</g>
<g>
	<defs>
		<path id="SVGID_3_" d="M15.907,16.338c-5.246,5.519-9.105,12.159-11.58,19.917c15.293-6.481,30.557-11.33,45.011-14.677
			c-0.722-0.546-1.496-1.032-2.308-1.461c-2.488-1.32-5.212-2.049-8.004-2.348c-0.861-0.091-1.721-0.145-2.578-0.157
			c5.432-2.86,11.445-4.288,18.049-4.288c6.321,0,12.104,1.384,17.366,4.134c7.186-0.949,14.012-1.482,20.363-1.622
			c-2.926-3.002-6.25-5.614-9.968-7.835c-8.258-4.908-17.555-7.376-27.84-7.376C38.682,0.625,25.852,5.871,15.907,16.338"/>
	</defs>
	<clipPath id="SVGID_4_">
		<use xlink:href="#SVGID_3_"  overflow="visible"/>
	</clipPath>
	<g clip-path="url(#SVGID_4_)">
		<defs>
			<rect id="SVGID_5_" x="3.093" y="0" width="90.24" height="37.44"/>
		</defs>
		<clipPath id="SVGID_6_">
			<use xlink:href="#SVGID_5_"  overflow="visible"/>
		</clipPath>
		<g transform="matrix(1 0 0 1 -4.660183e-008 -2.591654e-006)" clip-path="url(#SVGID_6_)">
			
				<image overflow="visible" width="188" height="78" xlink:href="DC900994.jpg"  transform="matrix(0.48 0 0 -0.48 3.0928 37.4404)">
			</image>
		</g>
	</g>
</g>
<g>
	<defs>
		<path id="SVGID_7_" d="M44.657,70.626l0.513,1.73l7.538-2.072l-0.456-1.755c-0.057-0.224-0.118-0.445-0.182-0.666
			c-2.899,0.056-5.788-0.021-8.673-0.232C43.963,68.538,44.365,69.644,44.657,70.626 M92.465,58.458
			c-0.002,6.194-0.676,11.78-2.017,16.757c-0.144-2.99-0.797-5.911-2.133-8.618c-0.949-1.924-2.189-3.596-3.719-4.997
			c-3.456,1.249-6.877,2.304-10.27,3.174c1.133,0.206,2.207,0.614,3.218,1.252c1.545,0.973,2.642,2.33,3.394,3.991
			c0.912,2.021,1.241,4.26,1.241,6.464c0,3.136-0.603,6.478-2.792,8.865c-1.883,2.055-4.202,2.964-6.978,2.964
			c-2.753,0-5.04-0.928-6.925-2.944c-2.141-2.291-2.796-5.344-2.796-8.395c0-3.139,0.451-7.291,2.862-9.591
			c0.369-0.351,0.748-0.668,1.142-0.952c-3.58,0.631-7.136,1.053-10.672,1.273c-1.178,2.86-1.639,6.007-1.639,9.199
			c0,3.243,0.71,6.348,2.126,9.265c1.446,2.975,3.589,5.348,6.407,7.078c2.903,1.782,6.119,2.585,9.519,2.585
			c2.072,0,4.07-0.315,5.983-0.949c-6.612,5.695-14.663,8.535-24.154,8.535c-9.396,0-17.424-2.871-24.101-8.615
			c2.176,0.701,4.45,1.029,6.78,1.029c2.701,0,5.339-0.488,7.865-1.446c2.66-1.007,5.1-2.479,7.317-4.253l0.691-0.553V74.273
			l-18.037,0.03v7.649h9.96v3.585c-0.925,0.652-2.065,1.173-3.054,1.571c-1.605,0.646-3.271,0.996-5.003,0.996
			c-1.94,0-3.773-0.431-5.511-1.292c-1.664-0.826-2.879-2.066-3.725-3.721c-1.046-2.046-1.36-4.473-1.36-6.745
			c0-2.102,0.344-4.166,1.153-6.114c0.435-1.046,1.045-1.984,1.805-2.826c0.552-0.61,1.209-1.099,1.921-1.495
			c-3.042-0.617-6.085-1.379-9.137-2.279c-0.685,0.908-1.281,1.897-1.791,2.957c-1.211,2.515-1.925,5.161-2.166,7.906
			c-0.975-3.876-1.519-8.094-1.631-12.655c-5.012-1.745-10.053-3.856-15.148-6.314C1.031,56.93,1,58.359,1,59.811
			c0,9.79,2.129,19.087,6.388,27.839c4.259,8.777,10.518,15.711,18.803,20.775c8.257,5.092,17.633,7.61,28.152,7.61
			c9.687,0,18.697-2.287,27.085-6.882c8.362-4.599,14.829-11.35,19.399-20.283c4.571-8.907,6.831-19.036,6.831-30.359
			c0-2.59-0.116-5.118-0.351-7.584C102.271,53.819,97.33,56.326,92.465,58.458"/>
	</defs>
	<clipPath id="SVGID_8_">
		<use xlink:href="#SVGID_7_"  overflow="visible"/>
	</clipPath>
	<g clip-path="url(#SVGID_8_)">
		<defs>
			<rect id="SVGID_9_" y="50.142" width="109.44" height="67.2"/>
		</defs>
		<clipPath id="SVGID_10_">
			<use xlink:href="#SVGID_9_"  overflow="visible"/>
		</clipPath>
		<g transform="matrix(1 0 0 1 0 -7.065469e-006)" clip-path="url(#SVGID_10_)">
			<image overflow="visible" width="228" height="140" xlink:href="DC900995.jpg"  transform="matrix(0.48 0 0 -0.48 0 117.3418)">
			</image>
		</g>
	</g>
</g>
<g>
	<defs>
		<rect id="SVGID_11_" width="109.44" height="157.994"/>
	</defs>
	<clipPath id="SVGID_12_">
		<use xlink:href="#SVGID_11_"  overflow="visible"/>
	</clipPath>
	<path clip-path="url(#SVGID_12_)" fill="#642B25" d="M6.052,146.243l-0.065-0.977c0-0.45,0.116-0.677,0.347-0.677
		c0.334,0,0.499,0.238,0.499,0.715v0.086l-0.013,0.145l-0.027,0.255l-0.038,0.334c0.403-0.06,0.762-0.092,1.075-0.092
		c0.578,0,1.037,0.094,1.38,0.28c0.34,0.186,0.578,0.408,0.714,0.668c0.135,0.262,0.204,0.51,0.204,0.745
		c0,0.386-0.11,0.807-0.329,1.264c-0.22,0.457-0.598,0.864-1.133,1.218c-0.278,0.17-0.598,0.308-0.966,0.408
		c-0.367,0.1-0.759,0.149-1.176,0.149v0.15v0.099v0.085c0,0.101-0.002,0.173-0.006,0.211c-0.023,0.087-0.034,0.153-0.038,0.204
		c-0.018,0.191-0.03,0.323-0.032,0.399c-0.002,0.075-0.002,0.135-0.002,0.185v0.477v0.486v0.19v0.203v0.222l0.078,0.329
		c0,0.18-0.136,0.27-0.412,0.27c-0.316,0-0.472-0.029-0.472-0.085l0.02-0.119l0.031-0.112c0.009-0.028,0.02-0.08,0.029-0.149
		c0.011-0.069,0.02-0.119,0.025-0.144l-0.02-0.166l-0.02-0.157c0-0.025,0.004-0.062,0.015-0.111c0.009-0.047,0.03-0.129,0.059-0.248
		l0.035-0.249l0.016-0.275v-0.336v-0.234c0-0.063,0.009-0.171,0.029-0.323l0.036-0.388v-0.373l-0.846,0.053
		c-0.188,0-0.314-0.021-0.375-0.061c-0.069-0.024-0.148-0.113-0.235-0.269L4.3,150.33c-0.022-0.038-0.042-0.072-0.065-0.098
		c-0.022-0.025-0.06-0.07-0.112-0.13c-0.114-0.138-0.297-0.308-0.55-0.514s-0.381-0.483-0.381-0.833
		c0-0.336,0.116-0.689,0.349-1.057c0.233-0.368,0.567-0.69,1.004-0.97C4.965,146.47,5.47,146.309,6.052,146.243 M94.535,146.729
		c0.188,0,0.304,0.116,0.349,0.347v0.513l-0.02,0.275l-0.021,0.33v0.663v0.183v0.15v0.123v0.105v0.093v0.07
		c0,0.092-0.003,0.172-0.007,0.244c-0.005,0.07-0.014,0.128-0.026,0.177c0,0.135-0.01,0.242-0.031,0.32
		c-0.015,0.081-0.045,0.17-0.092,0.273c-0.05,0.104-0.14,0.182-0.27,0.233c-0.054,0.026-0.116,0.04-0.189,0.04
		c-0.055,0-0.104-0.014-0.153-0.04c-0.087-0.052-0.134-0.112-0.144-0.178c0-0.087,0.027-0.32,0.078-0.696l0.047-0.459l0.032-0.459
		l0.027-0.164l0.02-0.21l0.014-0.249l0.011-0.251c0-0.104-0.017-0.156-0.058-0.156c-0.014,0.005-0.027,0.01-0.042,0.016
		c-0.017,0.007-0.038,0.022-0.07,0.043l-0.197,0.189l-0.156,0.153c-0.114,0.1-0.227,0.149-0.334,0.149
		c-0.088,0-0.166-0.035-0.23-0.105l-0.045-0.085c-0.027-0.06-0.04-0.13-0.04-0.204c0-0.06,0.024-0.121,0.072-0.183l0.092-0.1
		l0.145-0.13l0.3-0.281l0.316-0.354c0.114-0.127,0.22-0.222,0.316-0.282c0.056-0.04,0.106-0.064,0.149-0.078L94.535,146.729z
		 M94.792,144.42c0.062,0,0.173,0.059,0.334,0.178c0.161,0.118,0.27,0.23,0.32,0.334c0.026,0.053,0.04,0.108,0.04,0.172
		c0,0.052-0.014,0.109-0.04,0.177c-0.029,0.047-0.123,0.104-0.28,0.17c-0.172,0.056-0.296,0.085-0.374,0.085
		c-0.114,0-0.242-0.036-0.381-0.106c-0.141-0.074-0.21-0.153-0.21-0.24c0-0.159,0.063-0.327,0.189-0.506
		c0.065-0.088,0.133-0.153,0.197-0.197C94.653,144.442,94.72,144.42,94.792,144.42 M84.595,145.988c0.119,0,0.202,0.021,0.253,0.069
		c0.05,0.045,0.095,0.115,0.136,0.213l0.051,0.34l0.034,0.452v0.5v0.591c0,1.129,0.116,1.693,0.347,1.693
		c0.154,0,0.304-0.095,0.457-0.279c0.15-0.188,0.315-0.448,0.495-0.791l0.314-0.571c0.219-0.354,0.384-0.688,0.491-0.999
		c0.11-0.309,0.188-0.491,0.237-0.544c0.038-0.052,0.168-0.079,0.388-0.079c0.166,0,0.278,0.015,0.338,0.043
		c0.059,0.029,0.105,0.099,0.144,0.206c0.038,0.11,0.088,0.365,0.147,0.769l0.164,1.01l0.071,0.645c0,0.088,0.014,0.178,0.038,0.271
		c0.022,0.094,0.056,0.189,0.101,0.287c0.074,0.165,0.185,0.248,0.327,0.248c0.293,0,0.629-0.067,1.006-0.203
		c0.129-0.052,0.257-0.079,0.38-0.079c0.181,0,0.314,0.074,0.406,0.224c0.053,0.083,0.094,0.17,0.121,0.263
		c0.029,0.092,0.042,0.196,0.042,0.313c0,0.096,0.007,0.255,0.019,0.472c0.011,0.221,0.016,0.37,0.016,0.455
		c0,0.248-0.009,0.511-0.027,0.786c-0.018,0.275-0.045,0.564-0.085,0.867c-0.064,0.593-0.157,1.162-0.275,1.706
		c-0.057,0.258-0.116,0.498-0.177,0.721c-0.026,0.098-0.054,0.193-0.086,0.289c-0.03,0.098-0.064,0.185-0.104,0.263
		c-0.28,0.666-0.561,1.14-0.842,1.427c-0.282,0.287-0.635,0.43-1.056,0.43c-0.139,0-0.329-0.031-0.57-0.092
		c-0.254-0.051-0.528-0.172-0.822-0.361c-0.296-0.188-0.537-0.454-0.727-0.801c-0.385-0.703-0.576-1.427-0.576-2.17
		c0-0.368,0.089-0.551,0.269-0.551c0.161,0,0.268,0.051,0.322,0.155c0.038,0.123,0.087,0.34,0.143,0.65v0.544
		c0.065,0.408,0.213,0.753,0.444,1.035c0.228,0.282,0.48,0.493,0.755,0.636c0.272,0.142,0.488,0.213,0.645,0.213
		c0.367,0,0.688-0.199,0.958-0.598c0.271-0.397,0.486-0.898,0.647-1.499c0.159-0.602,0.278-1.231,0.355-1.892
		c0.079-0.661,0.119-1.221,0.119-1.683c0-0.345-0.024-0.596-0.075-0.75c-0.05-0.155-0.176-0.232-0.377-0.232
		c-0.101,0-0.232,0.026-0.394,0.081c-0.162,0.056-0.35,0.082-0.565,0.082c-0.326,0-0.562-0.116-0.704-0.352
		c-0.143-0.232-0.231-0.504-0.266-0.811l-0.071-0.748l-0.073-0.446l-0.072-0.412c-0.013-0.096-0.033-0.186-0.058-0.264
		c-0.045-0.161-0.095-0.244-0.153-0.249c-0.087,0-0.138,0.018-0.156,0.052l-0.092,0.407c-0.047,0.232-0.123,0.466-0.224,0.704
		l-0.202,0.4c-0.076,0.13-0.174,0.286-0.302,0.467c-0.069,0.096-0.171,0.212-0.303,0.347l-0.419,0.387
		c-0.319,0.271-0.587,0.407-0.802,0.407c-0.112,0-0.229-0.067-0.342-0.199c-0.117-0.134-0.191-0.282-0.223-0.443v-0.551
		l-0.018-0.322l-0.034-0.32v-0.125l-0.013-0.146v-0.269l-0.031-0.333l-0.021-0.367v-0.348l-0.078-0.374l-0.033-0.197l-0.014-0.183
		c0-0.189,0.018-0.318,0.051-0.387C84.4,146.021,84.478,145.988,84.595,145.988 M98.566,145.358c0.204,0,0.385,0.139,0.542,0.417
		c0.156,0.276,0.234,0.757,0.234,1.439v0.248v0.251c0,1.479,0.076,2.218,0.231,2.218c0.378,0,0.844-0.611,1.395-1.832
		c0.587-1.309,1.054-1.961,1.397-1.961c0.215,0,0.372,0.11,0.473,0.338c0.102,0.224,0.182,0.565,0.244,1.024
		c0.062,0.46,0.108,0.749,0.144,0.867l0.126,0.517l0.092,0.363l0.116,0.361c0.063,0.161,0.135,0.296,0.215,0.405
		c0.081,0.109,0.184,0.179,0.311,0.211h0.177c0.211-0.027,0.372-0.083,0.486-0.17l0.164-0.157l0.21-0.231
		c0.139-0.166,0.283-0.284,0.426-0.359c0.061-0.034,0.134-0.053,0.217-0.053c0.079,0,0.138,0.019,0.178,0.053
		c0.061,0.053,0.092,0.155,0.092,0.309c0,0.096-0.123,0.257-0.367,0.486c-0.229,0.206-0.495,0.406-0.798,0.605
		c-0.304,0.2-0.506,0.299-0.607,0.299c-0.353,0-0.642-0.12-0.865-0.36c-0.225-0.242-0.408-0.561-0.552-0.959
		c-0.128-0.371-0.26-0.88-0.4-1.523l-0.045-0.438l-0.021-0.255c0-0.031-0.005-0.067-0.014-0.112
		c-0.008-0.045-0.022-0.102-0.04-0.175c-0.016-0.071-0.063-0.107-0.136-0.107c-0.041,0-0.088,0.056-0.146,0.17l-0.208,0.513
		c-0.088,0.24-0.149,0.386-0.184,0.433l-0.734,1.313c-0.233,0.412-0.473,0.734-0.719,0.973c-0.249,0.234-0.529,0.354-0.845,0.354
		c-0.41,0-0.616-0.26-0.616-0.782v-0.715l-0.026-0.663l-0.032-0.884v-0.571v-0.392c0-0.101-0.026-0.237-0.077-0.41
		c-0.055-0.175-0.112-0.264-0.181-0.272c-0.118,0-0.231,0.03-0.342,0.094c-0.11,0.064-0.233,0.161-0.367,0.289
		c-0.137,0.13-0.245,0.219-0.325,0.271c-0.02,0.019-0.056,0.036-0.101,0.057c-0.047,0.02-0.101,0.028-0.161,0.028
		c-0.063,0-0.132-0.024-0.215-0.073c-0.081-0.052-0.128-0.117-0.141-0.195c0-0.17,0.13-0.327,0.392-0.472
		c0.087-0.048,0.165-0.1,0.237-0.155c0.071-0.054,0.151-0.125,0.239-0.213c0.152-0.156,0.282-0.265,0.388-0.322
		C98.134,145.388,98.313,145.358,98.566,145.358 M102.944,143.009c0.139,0,0.237,0.031,0.296,0.093
		c0.06,0.051,0.092,0.115,0.092,0.189s-0.063,0.17-0.184,0.289c-0.097,0.092-0.314,0.26-0.65,0.504l-0.499,0.361
		c-0.136,0.1-0.441,0.196-0.918,0.288c-0.233,0.041-0.452,0.072-0.661,0.092c-0.206,0.023-0.405,0.034-0.593,0.034
		c-0.262,0-0.395-0.047-0.395-0.144c0-0.133,0.021-0.244,0.061-0.336c0.038-0.092,0.137-0.15,0.296-0.178h0.589h0.085
		c0.206,0,0.378-0.011,0.52-0.033c0.139-0.02,0.282-0.06,0.426-0.115c0.264-0.106,0.47-0.236,0.625-0.389l0.425-0.428
		C102.633,143.085,102.794,143.009,102.944,143.009 M6.701,146.853c-0.038,0.352-0.058,0.608-0.058,0.774l0.018,0.282v0.553
		c0,0.108-0.022,0.321-0.067,0.635c-0.047,0.311-0.07,0.665-0.07,1.059c0.58,0,1.093-0.136,1.539-0.409
		c0.448-0.273,0.782-0.598,1.003-0.973c0.222-0.373,0.332-0.714,0.332-1.021c0-0.357-0.168-0.612-0.504-0.761
		c-0.336-0.15-0.746-0.224-1.228-0.224l-0.51,0.02C6.988,146.8,6.838,146.823,6.701,146.853 M5.935,150.193l0.052-1.285
		c0-0.054,0.004-0.186,0.015-0.399c0.012-0.21,0.019-0.374,0.019-0.487l0.031-1.088c-0.748,0.129-1.266,0.342-1.554,0.636
		c-0.289,0.293-0.433,0.605-0.433,0.945c0,0.266,0.11,0.479,0.334,0.636l0.231,0.104c0.107,0.047,0.19,0.091,0.242,0.125
		c0.051,0.034,0.078,0.083,0.078,0.145l-0.027,0.157l-0.025,0.165C4.898,149.985,5.243,150.103,5.935,150.193 M13.754,145.586
		c0.166,0,0.291,0.023,0.374,0.066c0.054,0.021,0.098,0.051,0.139,0.085c0.045,0.027,0.092,0.069,0.146,0.125l0.203,0.184
		l0.144,0.093c0.033,0.013,0.06,0.04,0.078,0.077c0.011,0.019,0.022,0.065,0.031,0.14l0.018,0.163
		c0.005,0.064,0.016,0.126,0.036,0.177c0.02,0.054,0.049,0.081,0.092,0.085c0.119,0,0.24-0.033,0.363-0.101
		c0.121-0.067,0.21-0.103,0.268-0.107c0.117,0,0.218,0.143,0.301,0.428c0.082,0.286,0.125,0.601,0.125,0.937l-0.02,0.204
		l-0.018,0.189c0,0.065,0.011,0.137,0.038,0.215l0.047,0.079l0.052,0.093l0.04,0.087v0.247v0.433c0.013,0.079,0.053,0.2,0.121,0.358
		c0.067,0.159,0.116,0.261,0.148,0.299l0.105,0.139l0.098,0.13c0.03,0.044,0.056,0.107,0.079,0.19
		c0.027,0.066,0.038,0.139,0.038,0.217c0,0.064-0.016,0.119-0.052,0.157c-0.022,0.035-0.103,0.07-0.241,0.111h-0.258
		c-0.074-0.036-0.173-0.117-0.296-0.242c-0.12-0.128-0.192-0.217-0.215-0.269v-0.309l-0.139-0.289
		c-0.024-0.047-0.051-0.118-0.078-0.21l-0.078-0.308v-0.347c0-0.072-0.003-0.123-0.007-0.159c-0.005-0.034-0.02-0.088-0.045-0.157
		c-0.027-0.113-0.072-0.17-0.132-0.17c-0.045,0-0.103,0.038-0.177,0.112c-0.065,0.074-0.112,0.116-0.141,0.127
		c-0.029,0.012-0.09,0.025-0.181,0.043l-0.13-0.013l-0.112-0.015c-0.146,0-0.285,0.161-0.421,0.486
		c-0.052,0.13-0.092,0.208-0.117,0.235l-0.047,0.041l-0.217,0.17c-0.166,0.121-0.352,0.289-0.558,0.504
		c-0.101,0.108-0.201,0.186-0.306,0.229l-0.171,0.038L12.43,150.6h-0.307c-0.118-0.048-0.248-0.166-0.391-0.356
		c-0.141-0.191-0.213-0.368-0.213-0.529c0-0.1,0.036-0.262,0.105-0.485l0.079-0.282l0.047-0.19
		C12.153,146.645,12.82,145.586,13.754,145.586 M13.631,146.394c-0.188,0-0.352,0.087-0.491,0.262
		c-0.053,0.069-0.105,0.152-0.154,0.244c-0.052,0.092-0.097,0.188-0.134,0.289l-0.166,0.497c-0.025,0.079-0.052,0.132-0.081,0.161
		c-0.029,0.028-0.056,0.088-0.083,0.175l-0.058,0.479c0,0.065-0.042,0.325-0.125,0.78v0.336c0.04,0.118,0.098,0.177,0.176,0.177
		c0.142,0,0.361-0.142,0.663-0.426c0.155-0.146,0.301-0.298,0.437-0.461c0.139-0.161,0.269-0.334,0.39-0.518
		c0.246-0.358,0.38-0.652,0.408-0.881c0-0.113-0.032-0.253-0.092-0.419c-0.052-0.179-0.141-0.34-0.269-0.479
		C13.933,146.464,13.794,146.394,13.631,146.394 M24.468,140.305c0,0.162-0.15,0.323-0.45,0.485c-0.3,0.161-0.665,0.312-1.1,0.445
		l-1.101,0.336l-0.834,0.204c-0.503,0.112-0.911,0.234-1.225,0.367c-0.311,0.13-0.468,0.275-0.468,0.432
		c0,0.115,0.041,0.22,0.121,0.319c0.081,0.098,0.191,0.185,0.325,0.259l0.197,0.104l0.282,0.126l0.531,0.216
		c0.674,0.271,1.353,0.695,2.034,1.273c0.338,0.285,0.597,0.634,0.781,1.053c0.184,0.42,0.276,0.892,0.276,1.421v0.859
		c0,0.463-0.103,0.9-0.312,1.311c-0.208,0.406-0.47,0.733-0.79,0.977c-0.32,0.244-0.609,0.364-0.874,0.364
		c-0.676,0-1.234-0.105-1.671-0.315c-0.438-0.209-0.752-0.471-0.944-0.784c-0.193-0.311-0.289-0.613-0.289-0.902
		c0-0.35,0.047-0.707,0.139-1.075c0.091-0.367,0.291-0.696,0.6-0.988c0.306-0.291,0.752-0.436,1.335-0.436
		c0.143,0,0.291,0.016,0.441,0.047c0.152,0.029,0.304,0.078,0.457,0.143c0.306,0.119,0.459,0.287,0.459,0.506
		c0,0.038-0.003,0.079-0.009,0.121c-0.007,0.041-0.029,0.098-0.063,0.166c-0.049,0.097-0.101,0.146-0.159,0.146
		c-0.029,0-0.114-0.052-0.255-0.153c-0.245-0.161-0.536-0.242-0.874-0.242c-0.405,0-0.719,0.176-0.936,0.522
		c-0.219,0.348-0.329,0.721-0.329,1.118c0,0.53,0.224,0.885,0.669,1.063c0.446,0.18,0.861,0.269,1.241,0.269
		c0.392,0,0.688-0.142,0.885-0.423c0.197-0.282,0.327-0.622,0.392-1.023c0.063-0.401,0.094-0.804,0.094-1.212
		c0-0.446-0.112-0.838-0.334-1.178c-0.224-0.338-0.468-0.614-0.737-0.829c-0.179-0.146-0.479-0.358-0.904-0.644
		c-0.162-0.113-0.525-0.297-1.089-0.551c-0.564-0.255-0.992-0.488-1.281-0.698c-0.289-0.213-0.432-0.455-0.432-0.726
		c0-0.376,0.183-0.676,0.549-0.902c0.364-0.227,0.859-0.441,1.484-0.647c0.822-0.263,1.564-0.506,2.224-0.734l1.295-0.446
		c0.161-0.043,0.291-0.064,0.392-0.064c0.067,0,0.127,0.034,0.183,0.105C24.43,140.145,24.455,140.216,24.468,140.305
		 M26.874,147.038c0.069,0,0.136,0.013,0.199,0.043c0.062,0.029,0.094,0.073,0.094,0.134c0,0.225-0.025,0.582-0.078,1.075
		l-0.014,0.119l-0.011,0.123c0,0.063,0.007,0.109,0.025,0.145l0.053,0.079h0.164c0.078-0.022,0.156-0.061,0.235-0.118l0.271-0.242
		l0.3-0.296l0.119-0.144l0.15-0.163c0.054-0.05,0.112-0.09,0.179-0.126l0.188-0.045l0.197-0.033
		c0.092-0.013,0.224-0.061,0.399-0.144c0.172-0.082,0.336-0.125,0.488-0.125c0.262,0,0.506,0.101,0.735,0.302
		c0.114,0.102,0.199,0.211,0.255,0.334c0.058,0.123,0.085,0.255,0.085,0.399c0,0.163-0.04,0.329-0.123,0.499
		c-0.04,0.083-0.079,0.19-0.119,0.322l-0.078,0.282l-0.17,0.27l-0.184,0.281c-0.11,0.201-0.206,0.348-0.287,0.439
		c-0.08,0.092-0.154,0.139-0.219,0.139l-0.072-0.007l-0.078-0.007l-0.159,0.021l-0.117,0.052c-0.045,0.021-0.085,0.051-0.118,0.085
		c-0.074,0.064-0.15,0.099-0.225,0.099c-0.116,0-0.333-0.059-0.649-0.178l-0.425-0.163l-0.578-0.224
		c-0.124,0.192-0.226,0.468-0.309,0.825c-0.065,0.347-0.117,0.693-0.157,1.037c0,0.098-0.007,0.259-0.022,0.486
		c-0.016,0.227-0.025,0.395-0.025,0.498v1.115c0,0.453-0.047,0.772-0.141,0.965c-0.094,0.192-0.188,0.289-0.284,0.289
		c-0.079,0-0.202-0.038-0.366-0.112c-0.163-0.074-0.244-0.152-0.244-0.235l0.018-0.098l0.02-0.105c0-0.18-0.013-0.293-0.038-0.341
		l-0.092-0.104c-0.031-0.05-0.047-0.162-0.047-0.336c0-0.145,0.011-0.256,0.034-0.334c0.013-0.102,0.042-0.187,0.092-0.255
		l0.109-0.276c0.036-0.101,0.063-0.228,0.081-0.381v-0.217l-0.027-0.15v-0.159c0-0.083,0.009-0.141,0.027-0.177l0.157-0.222
		c0.092-0.114,0.137-0.22,0.137-0.315l0.013-0.656c0-0.069,0.014-0.296,0.04-0.675c0.014-0.191,0.02-0.361,0.02-0.513l0.066-0.962
		l-0.028-0.276l-0.024-0.23l-0.007-0.327c0-0.246,0.065-0.47,0.199-0.676C26.643,147.142,26.764,147.038,26.874,147.038
		 M27.693,149.483c0.117,0.171,0.303,0.307,0.558,0.411c0.253,0.103,0.468,0.153,0.643,0.153c0.208,0,0.436-0.137,0.678-0.409
		c0.242-0.273,0.388-0.509,0.437-0.705V148.6c-0.018-0.13-0.058-0.235-0.119-0.313c-0.051-0.079-0.156-0.119-0.315-0.119
		c-0.301,0-0.525,0.049-0.673,0.147c-0.145,0.099-0.322,0.271-0.53,0.521C28.163,149.085,27.937,149.3,27.693,149.483
		 M34.09,145.358c0.208,0,0.39,0.139,0.544,0.419c0.154,0.28,0.233,0.759,0.233,1.438v0.248v0.251c0,1.479,0.074,2.218,0.224,2.218
		c0.143,0,0.293-0.078,0.452-0.237c0.157-0.157,0.312-0.37,0.466-0.636l0.439-0.841l0.334-0.67l0.282-0.517
		c0.164-0.316,0.304-0.54,0.428-0.669c0.12-0.15,0.253-0.224,0.391-0.224c0.22,0,0.379,0.11,0.478,0.338
		c0.098,0.224,0.179,0.574,0.246,1.05c0.065,0.473,0.11,0.755,0.137,0.842l0.132,0.517c0.018,0.081,0.033,0.153,0.049,0.223
		c0.016,0.067,0.036,0.139,0.063,0.213l0.096,0.289c0.049,0.147,0.119,0.285,0.211,0.405c0.073,0.101,0.176,0.171,0.309,0.211h0.177
		c0.224-0.027,0.387-0.085,0.492-0.178c0.103-0.083,0.231-0.21,0.377-0.381c0.145-0.17,0.286-0.289,0.423-0.359
		c0.06-0.034,0.132-0.053,0.21-0.053c0.079,0,0.137,0.019,0.177,0.053c0.061,0.053,0.092,0.155,0.092,0.309
		c0,0.096-0.123,0.257-0.367,0.486c-0.224,0.21-0.493,0.416-0.809,0.622c-0.295,0.188-0.495,0.282-0.595,0.282
		c-0.527,0-0.91-0.23-1.156-0.689c-0.28-0.621-0.441-1.01-0.486-1.167l-0.065-0.656c-0.04-0.422-0.087-0.755-0.141-1.001
		c-0.054-0.249-0.123-0.372-0.206-0.372c-0.079,0-0.164,0.125-0.255,0.374c-0.146,0.38-0.244,0.611-0.296,0.69l-0.159,0.21
		c-0.047,0.047-0.121,0.192-0.222,0.432c-0.197,0.5-0.466,0.957-0.808,1.375c-0.341,0.419-0.71,0.628-1.109,0.628
		c-0.414,0-0.622-0.26-0.622-0.782v-0.715l-0.025-0.663l-0.027-0.884v-0.571v-0.392c0-0.114-0.027-0.258-0.079-0.428
		c-0.053-0.17-0.114-0.255-0.179-0.255c-0.1,0-0.219,0.03-0.356,0.092c-0.154,0.056-0.298,0.136-0.43,0.242l-0.192,0.183
		l-0.186,0.17c-0.029,0.023-0.074,0.039-0.132,0.052c-0.079,0-0.157-0.026-0.233-0.081c-0.079-0.056-0.119-0.115-0.123-0.188
		c0-0.17,0.129-0.327,0.391-0.472c0.171-0.1,0.332-0.228,0.484-0.38c0.135-0.137,0.258-0.236,0.372-0.302
		C33.655,145.393,33.837,145.358,34.09,145.358 M43.245,146.232c0.034,0.033,0.052,0.094,0.052,0.177v0.15v0.143v0.316l-0.025,0.234
		l-0.027,0.486v0.452c0,0.258,0.034,0.54,0.099,0.847c0.065,0.308,0.139,0.459,0.224,0.459c0.161,0,0.293-0.074,0.396-0.22
		c0.103-0.147,0.222-0.378,0.361-0.692c0.136-0.314,0.262-0.529,0.369-0.648l0.336-0.323l0.504-0.445
		c0.403-0.336,0.679-0.504,0.829-0.504c0.047,0,0.114,0.051,0.201,0.157c0.081,0.104,0.119,0.19,0.119,0.255
		c0,0.065-0.038,0.139-0.119,0.217c-0.06,0.062-0.168,0.15-0.32,0.27l-0.446,0.319l-0.23,0.174l-0.105,0.085l-0.092,0.104
		c-0.036,0.047-0.076,0.132-0.126,0.255c-0.033,0.119-0.051,0.263-0.051,0.434c0,0.274,0.071,0.532,0.217,0.77
		c0.143,0.239,0.443,0.358,0.898,0.358c0.311,0,0.616-0.078,0.916-0.235c0.3-0.159,0.547-0.325,0.737-0.499
		c0.193-0.175,0.389-0.262,0.591-0.262c0.049,0,0.097,0.04,0.146,0.119l0.038,0.104l0.013,0.116c0,0.083-0.175,0.267-0.524,0.551
		c-0.119,0.096-0.206,0.168-0.264,0.211c-0.007,0.004-0.092,0.065-0.249,0.178c-0.161,0.104-0.32,0.193-0.479,0.268
		c-0.157,0.076-0.325,0.132-0.504,0.173c-0.179,0.038-0.369,0.058-0.571,0.058c-0.358,0-0.728-0.106-1.109-0.324
		c-0.38-0.218-0.571-0.54-0.571-0.968c-0.329,0.433-0.577,0.73-0.748,0.89c-0.17,0.159-0.32,0.24-0.446,0.24
		c-0.179,0-0.295-0.053-0.351-0.155c-0.054-0.104-0.101-0.293-0.136-0.573c-0.039-0.28-0.081-0.495-0.128-0.643
		c-0.092-0.265-0.139-0.459-0.139-0.593v-0.149l0.038-0.223l-0.038-0.204l-0.027-0.229v-0.145l0.027-0.185l0.038-0.315v-0.398
		c0-0.312,0.027-0.502,0.083-0.572c0.056-0.068,0.157-0.104,0.304-0.104C43.097,146.191,43.194,146.205,43.245,146.232
		 M51.662,145.586c0.165,0,0.291,0.023,0.374,0.066c0.054,0.021,0.098,0.051,0.139,0.085c0.044,0.027,0.091,0.069,0.145,0.125
		l0.204,0.184l0.144,0.093c0.033,0.013,0.06,0.04,0.078,0.077c0.011,0.019,0.022,0.065,0.031,0.14l0.018,0.163
		c0.005,0.064,0.016,0.126,0.036,0.177c0.02,0.054,0.049,0.081,0.092,0.085c0.118,0,0.24-0.033,0.363-0.101
		c0.12-0.067,0.21-0.103,0.268-0.107c0.117,0,0.218,0.143,0.3,0.428c0.083,0.286,0.126,0.601,0.126,0.937l-0.02,0.204l-0.018,0.189
		c0,0.065,0.011,0.137,0.038,0.215l0.047,0.079l0.051,0.093l0.041,0.087v0.247v0.433c0.013,0.079,0.053,0.2,0.121,0.358
		c0.066,0.159,0.116,0.261,0.147,0.299l0.105,0.139l0.098,0.13c0.029,0.044,0.057,0.107,0.079,0.19
		c0.026,0.066,0.038,0.139,0.038,0.217c0,0.064-0.016,0.119-0.052,0.157c-0.022,0.035-0.104,0.07-0.242,0.111h-0.257
		c-0.074-0.036-0.173-0.117-0.296-0.242c-0.121-0.128-0.192-0.217-0.215-0.269v-0.309l-0.139-0.289
		c-0.024-0.047-0.051-0.118-0.078-0.21l-0.078-0.308v-0.347c0-0.072-0.003-0.123-0.007-0.159c-0.005-0.034-0.02-0.088-0.045-0.157
		c-0.027-0.113-0.072-0.17-0.132-0.17c-0.045,0-0.103,0.038-0.177,0.112c-0.065,0.074-0.112,0.116-0.141,0.127
		c-0.029,0.012-0.09,0.025-0.181,0.043l-0.131-0.013l-0.112-0.015c-0.145,0-0.284,0.161-0.42,0.486
		c-0.052,0.13-0.092,0.208-0.117,0.235l-0.047,0.041l-0.217,0.17c-0.166,0.121-0.352,0.289-0.558,0.504
		c-0.101,0.108-0.201,0.186-0.307,0.229l-0.17,0.038l-0.251,0.015h-0.307c-0.118-0.048-0.248-0.166-0.391-0.356
		c-0.142-0.191-0.213-0.368-0.213-0.529c0-0.1,0.035-0.262,0.105-0.485l0.078-0.282l0.047-0.19
		C50.06,146.645,50.728,145.586,51.662,145.586 M51.539,146.394c-0.188,0-0.352,0.087-0.491,0.262
		c-0.054,0.069-0.105,0.152-0.154,0.244c-0.052,0.092-0.097,0.188-0.135,0.289l-0.165,0.497c-0.025,0.079-0.052,0.132-0.081,0.161
		c-0.029,0.028-0.056,0.088-0.083,0.175l-0.058,0.479c0,0.065-0.043,0.325-0.125,0.78v0.336c0.04,0.118,0.098,0.177,0.176,0.177
		c0.141,0,0.361-0.142,0.663-0.426c0.155-0.146,0.3-0.298,0.437-0.461c0.139-0.161,0.269-0.334,0.39-0.518
		c0.246-0.358,0.38-0.652,0.407-0.881c0-0.113-0.031-0.253-0.091-0.419c-0.052-0.179-0.142-0.34-0.269-0.479
		C51.841,146.464,51.702,146.394,51.539,146.394 M62.091,149.884l-0.367,0.14l-0.255,0.099l-0.156,0.019
		c-0.11,0-0.21-0.038-0.301-0.114c-0.09-0.077-0.134-0.198-0.134-0.366c0-0.116,0.021-0.197,0.059-0.235
		c0.04-0.04,0.128-0.07,0.264-0.098c0.126-0.018,0.232-0.045,0.32-0.079c0.088-0.036,0.188-0.108,0.303-0.224
		c-0.249-0.494-0.374-1.06-0.374-1.693c0-0.304,0.054-0.582,0.161-0.833c0.107-0.249,0.242-0.442,0.402-0.582
		c0.161-0.149,0.301-0.224,0.415-0.224c0.107,0,0.253,0.047,0.433,0.141c0.179,0.094,0.347,0.265,0.502,0.508
		c0.153,0.245,0.231,0.567,0.231,0.967c0,0.331-0.066,0.669-0.198,1.012c-0.135,0.343-0.382,0.665-0.739,0.961
		c0.078,0.166,0.228,0.311,0.45,0.436c0.22,0.126,0.475,0.231,0.764,0.318c0.28,0.07,0.515,0.106,0.707,0.106
		c0.637,0,1.226-0.219,1.771-0.654c0.193-0.146,0.353-0.218,0.473-0.218c0.063,0,0.128,0.019,0.198,0.052
		c0.068,0.036,0.106,0.083,0.111,0.139c0,0.074-0.024,0.152-0.071,0.235c-0.05,0.083-0.114,0.157-0.197,0.217l-0.249,0.164
		l-0.265,0.152l-0.425,0.3c-0.128,0.092-0.339,0.166-0.634,0.22c-0.294,0.057-0.715,0.083-1.261,0.083
		c-0.206,0-0.436-0.039-0.688-0.112c-0.25-0.073-0.48-0.182-0.693-0.32C62.435,150.256,62.25,150.086,62.091,149.884
		 M62.401,148.446c0.051-0.044,0.1-0.096,0.143-0.156l0.085-0.224l0.052-0.17c0.083-0.236,0.125-0.459,0.125-0.67
		c0-0.192-0.035-0.344-0.104-0.452c-0.07-0.11-0.161-0.164-0.273-0.164c-0.035,0-0.092,0.058-0.171,0.177l-0.08,0.157l-0.045,0.132
		v0.395v0.385C62.154,147.983,62.244,148.181,62.401,148.446 M71.354,146.113c0.197,0,0.326,0.038,0.39,0.112
		c0.065,0.073,0.096,0.179,0.096,0.313l-0.006,0.146l-0.007,0.149l-0.034,0.441l-0.025,0.674v0.146l-0.017,0.156
		c-0.034,0.263-0.049,0.478-0.049,0.644l-0.027,0.261v0.251c0,0.157,0.031,0.238,0.093,0.242c0.16,0,0.593-0.641,1.292-1.924
		l0.52-0.956c0.073-0.127,0.15-0.22,0.226-0.278c0.076-0.056,0.188-0.085,0.331-0.085c0.166,0,0.276,0.05,0.329,0.146
		c0.043,0.102,0.065,0.363,0.065,0.786v0.578c0,0.055,0.003,0.132,0.009,0.239c0.007,0.108,0.012,0.189,0.012,0.24v0.525
		c0,0.332,0.052,0.597,0.154,0.793c0.101,0.197,0.316,0.296,0.638,0.296c0.079,0,0.215-0.039,0.408-0.118
		c0.056-0.022,0.112-0.042,0.163-0.065c0.054-0.021,0.094-0.044,0.126-0.064l0.163-0.102l0.191-0.163l0.24-0.21
		c0.068-0.039,0.138-0.063,0.211-0.072c0.05,0,0.105,0.027,0.17,0.078c0.051,0.05,0.077,0.108,0.086,0.178
		c0,0.17-0.114,0.354-0.343,0.547c-0.229,0.191-0.515,0.361-0.857,0.51c-0.166,0.064-0.32,0.117-0.461,0.153
		c-0.143,0.032-0.274,0.051-0.397,0.051c-0.313,0-0.555-0.067-0.726-0.204c-0.167-0.134-0.286-0.345-0.352-0.629
		c-0.056-0.298-0.085-0.67-0.085-1.115v-0.453v-0.251v-0.234c0-0.171-0.018-0.256-0.052-0.256c-0.058,0-0.197,0.22-0.421,0.663
		c-0.291,0.599-0.497,0.979-0.613,1.141l-0.336,0.506c-0.186,0.291-0.348,0.497-0.481,0.616c-0.133,0.117-0.301,0.177-0.499,0.177
		c-0.18,0-0.304-0.054-0.368-0.164c-0.057-0.123-0.084-0.291-0.084-0.506v-0.433v-0.196l0.02-0.204l-0.02-0.229l-0.02-0.23
		c0-0.18,0.047-0.576,0.145-1.194v-0.32c-0.041-0.097-0.074-0.152-0.105-0.166c-0.215,0-0.475,0.595-0.782,1.78
		c-0.043,0.189-0.088,0.351-0.135,0.487c-0.044,0.134-0.103,0.272-0.172,0.412c-0.11,0.248-0.244,0.447-0.401,0.597
		c-0.298,0.303-0.6,0.453-0.903,0.453c-0.211,0-0.389-0.065-0.536-0.197c-0.146-0.132-0.219-0.3-0.219-0.506
		c0-0.097,0.034-0.188,0.106-0.278c0.074-0.09,0.146-0.134,0.22-0.134c0.105,0,0.19,0.051,0.258,0.156
		c0.088,0.128,0.204,0.19,0.347,0.19c0.233,0,0.423-0.158,0.578-0.477c0.151-0.318,0.305-0.766,0.452-1.339
		c0.022-0.092,0.045-0.193,0.071-0.301c0.027-0.107,0.067-0.233,0.119-0.378c0.051-0.18,0.1-0.301,0.137-0.363
		c0.207-0.376,0.388-0.646,0.547-0.802C70.889,146.191,71.097,146.113,71.354,146.113 M79.885,145.869
		c0.204,0,0.342,0.011,0.406,0.033c0.065,0.014,0.201,0.11,0.407,0.294l0.438,0.387c0.299,0.256,0.529,0.502,0.692,0.742
		c0.164,0.241,0.247,0.58,0.247,1.02c0,0.449-0.088,0.844-0.26,1.182c-0.173,0.34-0.389,0.625-0.647,0.857
		c-0.26,0.231-0.531,0.407-0.809,0.531c-0.28,0.123-0.499,0.184-0.656,0.184c-0.69,0-1.136-0.218-1.335-0.654
		c-0.202-0.435-0.302-0.943-0.302-1.525v-0.761l0.032-0.3l0.106-0.513C78.414,146.362,78.974,145.869,79.885,145.869 M79.818,146.61
		c-0.057,0-0.155,0.038-0.293,0.112c-0.142,0.073-0.253,0.151-0.336,0.234c-0.231,0.233-0.349,0.64-0.349,1.222v0.336v0.17
		c0.015,0.061,0.023,0.104,0.028,0.13l0.058,0.179l0.065,0.202l0.02,0.152c0,0.068-0.011,0.139-0.033,0.211l-0.031,0.17
		c0,0.121,0.06,0.244,0.184,0.367c0.121,0.113,0.28,0.17,0.471,0.17c0.224,0,0.47-0.083,0.738-0.246
		c0.27-0.164,0.497-0.399,0.686-0.706c0.188-0.307,0.281-0.656,0.281-1.05c0-0.093-0.011-0.18-0.032-0.263
		c-0.021-0.083-0.062-0.184-0.117-0.302c-0.096-0.209-0.19-0.363-0.282-0.462c-0.092-0.098-0.253-0.229-0.48-0.387
		C80.163,146.691,79.973,146.61,79.818,146.61"/>
</g>
</svg>
