<?xml version="1.0" encoding="UTF-8" standalone="no"?>
<svg width="71px" height="71px" viewBox="0 0 71 71" version="1.1" xmlns="http://www.w3.org/2000/svg" xmlns:xlink="http://www.w3.org/1999/xlink">
    <!-- Generator: Sketch 3.6.1 (26313) - http://www.bohemiancoding.com/sketch -->
    <title>Group 2</title>
    <desc>Created with Sketch.</desc>
    <defs/>
    <g id="Page-1" stroke="none" stroke-width="1" fill="none" fill-rule="evenodd">
        <g id="futurity.video" transform="translate(-666.000000, -875.000000)">
            <g id="video-block" transform="translate(200.000000, 455.000000)">
                <g id="play-video" transform="translate(457.000000, 420.000000)">
                    <g id="Group-2" transform="translate(9.000000, 0.000000)">
                        <path d="M35.5,0.371 C16.129,0.371 0.375,16.129 0.375,35.5 C0.375,54.871 16.133,70.625 35.5,70.625 C54.871,70.625 70.621,54.867 70.621,35.5 C70.625,16.129 54.871,0.371 35.5,0.371 L35.5,0.371 Z" id="Fill-1" fill="#1A1919"/>
                        <path d="M35.5,63.152 C20.23,63.152 7.844,50.77 7.844,35.5 C7.844,20.223 20.23,7.844 35.5,7.844 C50.77,7.844 63.156,20.223 63.156,35.5 C63.156,50.773 50.773,63.152 35.5,63.152 L35.5,63.152 Z" id="Path" fill="#FFFFFF"/>
                        <path d="M28.422,23.98 C27.801,23.355 26.211,23.355 26.211,23.98 L26.211,49.363 C26.211,49.988 27.805,49.988 28.43,49.363 L49.266,37.801 C49.891,37.18 49.898,36.168 49.277,35.543 L28.422,23.98 Z" id="Fill-2" fill="#1A1919"/>
                    </g>
                </g>
            </g>
        </g>
    </g>
</svg>