<?xml version="1.0" encoding="UTF-8" standalone="no"?>
<svg width="30px" height="30px" viewBox="0 0 30 30" version="1.1" xmlns="http://www.w3.org/2000/svg" xmlns:xlink="http://www.w3.org/1999/xlink">
    <!-- Generator: Sketch 3.6.1 (26313) - http://www.bohemiancoding.com/sketch -->
    <title>RSS</title>
    <desc>Created with Sketch.</desc>
    <defs/>
    <g id="Page-1" stroke="none" stroke-width="1" fill="none" fill-rule="evenodd">
        <g id="futurity.article" transform="translate(-1210.000000, -802.000000)" fill="#FFFFFF">
            <g id="sharing" transform="translate(1185.000000, 616.000000)">
                <path d="M40,186 C31.6943359,186 25,192.738281 25,201 C25,209.305664 31.6943359,216 40,216 C48.2617188,216 55,209.305664 55,201 C55,192.738281 48.2617188,186 40,186 L40,186 Z M46.2548828,208.5 C46.2548828,200.897461 40.1025391,194.745117 32.5,194.745117 L32.5,191.625 C41.8017578,191.625 49.375,199.198242 49.375,208.5 L46.2548828,208.5 Z M40.6298828,208.5 C40.6298828,204.017578 36.9824219,200.370117 32.5,200.370117 L32.5,197.25 C38.7109375,197.25 43.75,202.289062 43.75,208.5 L40.6298828,208.5 Z M35.0048828,208.5 C33.6132812,208.5 32.5,207.386719 32.5,205.995117 C32.5,204.618164 33.6132812,203.504883 35.0048828,203.504883 C36.3818359,203.504883 37.4951172,204.618164 37.4951172,205.995117 C37.4951172,207.386719 36.3818359,208.5 35.0048828,208.5 L35.0048828,208.5 Z" id="RSS"/>
            </g>
        </g>
    </g>
</svg>