<?xml version="1.0" encoding="UTF-8" standalone="no"?>
<svg width="122px" height="38px" viewBox="0 0 122 38" version="1.1" xmlns="http://www.w3.org/2000/svg" xmlns:xlink="http://www.w3.org/1999/xlink">
    <!-- Generator: Sketch 3.6.1 (26313) - http://www.bohemiancoding.com/sketch -->
    <title>logo</title>
    <desc>Created with Sketch.</desc>
    <defs/>
    <g id="Page-1" stroke="none" stroke-width="1" fill="none" fill-rule="evenodd" opacity="0.5">
        <g id="futurity" transform="translate(-40.000000, -5663.000000)" fill="#FFFFFF">
            <g id="footer" transform="translate(0.000000, 5630.000000)">
                <g id="logo" transform="translate(40.000000, 33.000000)">
                    <path d="M28.2155893,30.2735312 L40.7215561,30.2723437 L35.6095185,37.8248437 L23.1041522,37.8248437 L28.2155893,30.2735312" id="Fill-1"/>
                    <path d="M14.2347999,10.0860312 L21.2104824,10.0860312 L28.0324375,0.007421875 L15.5273714,0.00771875 L0.192759788,22.6619531 L5.72184312,22.6619531 L14.2347999,10.0860312" id="Fill-2"/>
                    <path d="M20.5781583,25.2195313 L27.5544412,25.2189375 L34.3769968,15.1403281 L21.872231,15.140625 L11.648456,30.2438438 L17.1772391,30.2438438 L20.5781583,25.2195313" id="Fill-3"/>
                    <path d="M46.1018359,9.5415 L54.9596359,9.5415 L54.9596359,12.2277 L49.1210359,12.2277 L49.1210359,15.6687 L54.8042359,15.6687 L54.8042359,18.3549 L49.1210359,18.3549 L49.1210359,24.6375 L46.1018359,24.6375 L46.1018359,9.5415 Z M64.4390359,23.2611 L64.3946359,23.2611 C63.9654337,23.8975032 63.4696387,24.3340988 62.9072359,24.5709 C62.3448331,24.8077012 61.7676389,24.9261 61.1756359,24.9261 C60.5392327,24.9261 59.9916382,24.829901 59.5328359,24.6375 C59.0740336,24.445099 58.6966374,24.1824017 58.4006359,23.8494 C58.1046344,23.5163983 57.8863366,23.1316022 57.7457359,22.695 C57.6051352,22.2583978 57.5348359,21.7885025 57.5348359,21.2853 L57.5348359,14.2035 L60.4430359,14.2035 L60.4430359,20.5527 C60.4430359,20.9375019 60.4948354,21.2556987 60.5984359,21.5073 C60.7020364,21.7589013 60.842635,21.9660992 61.0202359,22.1289 C61.1978368,22.2917008 61.3939348,22.4063997 61.6085359,22.473 C61.823137,22.5396003 62.0414348,22.5729 62.2634359,22.5729 C62.8702389,22.5729 63.366034,22.3435023 63.7508359,21.8847 C64.1356378,21.4258977 64.3280359,20.8413036 64.3280359,20.1309 L64.3280359,14.2035 L67.2584359,14.2035 L67.2584359,24.6375 L64.4390359,24.6375 L64.4390359,23.2611 Z M69.1454359,14.2035 L70.7216359,14.2035 L70.7216359,11.2065 L73.6520359,11.2065 L73.6520359,14.2035 L76.0940359,14.2035 L76.0940359,16.4679 L73.6520359,16.4679 L73.6520359,21.5073 C73.6520359,21.8625018 73.7482349,22.1029994 73.9406359,22.2288 C74.1330369,22.3546006 74.421634,22.4175 74.8064359,22.4175 C75.0728372,22.4175 75.3614343,22.3953002 75.6722359,22.3509 L75.6722359,24.6375 C75.4354347,24.6671001 75.1431376,24.6929999 74.7953359,24.7152 C74.4475342,24.7374001 74.1552371,24.7485 73.9184359,24.7485 C73.4448335,24.7485 73.0119379,24.7041004 72.6197359,24.6153 C72.2275339,24.5264996 71.8908373,24.3711011 71.6096359,24.1491 C71.3284345,23.9270989 71.1101367,23.6274019 70.9547359,23.25 C70.7993351,22.8725981 70.7216359,22.3953029 70.7216359,21.8181 L70.7216359,16.4679 L69.1454359,16.4679 L69.1454359,14.2035 Z M84.7520359,23.2611 L84.7076359,23.2611 C84.2784337,23.8975032 83.7826387,24.3340988 83.2202359,24.5709 C82.6578331,24.8077012 82.0806389,24.9261 81.4886359,24.9261 C80.8522327,24.9261 80.3046382,24.829901 79.8458359,24.6375 C79.3870336,24.445099 79.0096374,24.1824017 78.7136359,23.8494 C78.4176344,23.5163983 78.1993366,23.1316022 78.0587359,22.695 C77.9181352,22.2583978 77.8478359,21.7885025 77.8478359,21.2853 L77.8478359,14.2035 L80.7560359,14.2035 L80.7560359,20.5527 C80.7560359,20.9375019 80.8078354,21.2556987 80.9114359,21.5073 C81.0150364,21.7589013 81.155635,21.9660992 81.3332359,22.1289 C81.5108368,22.2917008 81.7069348,22.4063997 81.9215359,22.473 C82.136137,22.5396003 82.3544348,22.5729 82.5764359,22.5729 C83.1832389,22.5729 83.679034,22.3435023 84.0638359,21.8847 C84.4486378,21.4258977 84.6410359,20.8413036 84.6410359,20.1309 L84.6410359,14.2035 L87.5714359,14.2035 L87.5714359,24.6375 L84.7520359,24.6375 L84.7520359,23.2611 Z M90.6350359,14.2035 L93.4322359,14.2035 L93.4322359,16.8453 L93.4766359,16.8453 C93.5802364,16.4900982 93.7393348,16.1386017 93.9539359,15.7908 C94.168537,15.4429983 94.4201344,15.1285014 94.7087359,14.8473 C94.9973373,14.5660986 95.3192341,14.3404009 95.6744359,14.1702 C96.0296377,13.9999991 96.4070339,13.9149 96.8066359,13.9149 L97.0730359,13.9149 L97.0730359,16.7565 L96.7844359,16.7565 C96.3404337,16.7565 95.9223379,16.8378992 95.5301359,17.0007 C95.1379339,17.1635008 94.7938374,17.3854986 94.4978359,17.6667 C94.2018344,17.9479014 93.9687367,18.2808981 93.7985359,18.6657 C93.628335,19.0505019 93.5432359,19.4722977 93.5432359,19.9311 L93.5432359,24.6375 L90.6350359,24.6375 L90.6350359,14.2035 Z M98.8268359,14.2035 L101.735036,14.2035 L101.735036,24.6375 L98.8268359,24.6375 L98.8268359,14.2035 Z M98.5826359,10.9845 C98.5826359,10.7624989 98.6233355,10.547901 98.7047359,10.3407 C98.7861363,10.133499 98.9045351,9.94850081 99.0599359,9.7857 C99.2153367,9.62289919 99.3966349,9.49340048 99.6038359,9.3972 C99.8110369,9.30099952 100.040435,9.2529 100.292036,9.2529 C100.514037,9.2529 100.724935,9.29729956 100.924736,9.3861 C101.124537,9.47490044 101.302135,9.59329926 101.457536,9.7413 C101.612937,9.88930074 101.738735,10.066899 101.834936,10.2741 C101.931136,10.481301 101.979236,10.7032988 101.979236,10.9401 C101.979236,11.1621011 101.934836,11.376699 101.846036,11.5839 C101.757235,11.791101 101.635137,11.9760992 101.479736,12.1389 C101.324335,12.3017008 101.143037,12.4311995 100.935836,12.5274 C100.728635,12.6236005 100.514037,12.6717 100.292036,12.6717 C100.040435,12.6717 99.8110369,12.6199005 99.6038359,12.5163 C99.3966349,12.4126995 99.2153367,12.2832008 99.0599359,12.1278 C98.9045351,11.9723992 98.7861363,11.794801 98.7047359,11.595 C98.6233355,11.395199 98.5826359,11.191701 98.5826359,10.9845 L98.5826359,10.9845 Z M103.555436,14.2035 L105.131636,14.2035 L105.131636,11.2065 L108.062036,11.2065 L108.062036,14.2035 L110.504036,14.2035 L110.504036,16.4679 L108.062036,16.4679 L108.062036,21.5073 C108.062036,21.8625018 108.158235,22.1029994 108.350636,22.2288 C108.543037,22.3546006 108.831634,22.4175 109.216436,22.4175 C109.482837,22.4175 109.771434,22.3953002 110.082236,22.3509 L110.082236,24.6375 C109.845435,24.6671001 109.553138,24.6929999 109.205336,24.7152 C108.857534,24.7374001 108.565237,24.7485 108.328436,24.7485 C107.854834,24.7485 107.421938,24.7041004 107.029736,24.6153 C106.637534,24.5264996 106.300837,24.3711011 106.019636,24.1491 C105.738434,23.9270989 105.520137,23.6274019 105.364736,23.25 C105.209335,22.8725981 105.131636,22.3953029 105.131636,21.8181 L105.131636,16.4679 L103.555436,16.4679 L103.555436,14.2035 Z M114.899636,24.6375 L110.992436,14.2035 L114.278036,14.2035 L116.475836,21.1743 L116.520236,21.1743 L118.740236,14.2035 L121.870436,14.2035 L116.120636,29.0775 L113.057036,29.0775 L114.899636,24.6375 Z" id="Futurity"/>
                </g>
            </g>
        </g>
    </g>
</svg>