<?xml version="1.0" encoding="UTF-8" standalone="no"?>
<svg width="60px" height="60px" viewBox="0 0 60 60" version="1.1" xmlns="http://www.w3.org/2000/svg" xmlns:xlink="http://www.w3.org/1999/xlink">
    <!-- Generator: Sketch 3.6.1 (26313) - http://www.bohemiancoding.com/sketch -->
    <title>play</title>
    <desc>Created with Sketch.</desc>
    <defs/>
    <g id="Page-1" stroke="none" stroke-width="1" fill="none" fill-rule="evenodd">
        <g id="futurity" transform="translate(-136.000000, -5004.000000)">
            <g id="Featured-Topics-+-Line-+-Line" transform="translate(115.000000, 4764.000000)">
                <g id="video1" transform="translate(0.000000, 60.000000)">
                    <g id="image" transform="translate(1.000000, 0.000000)">
                        <g id="play" transform="translate(20.000000, 180.000000)">
                            <circle id="Oval-1" stroke="#979797" stroke-width="2" fill="#1A1919" cx="30" cy="30" r="28"/>
                            <path d="M30,0 C13.4312,0 0,13.4312 0,30 C0,46.5688 13.4312,60 30,60 C46.5688,60 60,46.5688 60,30 C60,13.4312 46.5688,0 30,0 L30,0 Z M30,55.3128 C16.0184,55.3128 4.6872,43.9816 4.6872,30 C4.6872,16.0184 16.0184,4.6872 30,4.6872 C43.9816,4.6872 55.3128,16.0184 55.3128,30 C55.3128,43.9816 43.9816,55.3128 30,55.3128 L30,55.3128 Z M22.5,39.3752 L41.2496,30 L22.5,20.6248 L22.5,39.3752 Z" fill="#FFFFFF"/>
                        </g>
                    </g>
                </g>
            </g>
        </g>
    </g>
</svg>