<?xml version="1.0" encoding="utf-8"?>
<!-- Generator: Adobe Illustrator 16.0.1, SVG Export Plug-In . SVG Version: 6.00 Build 0)  -->
<!DOCTYPE svg PUBLIC "-//W3C//DTD SVG 1.1//EN" "http://www.w3.org/Graphics/SVG/1.1/DTD/svg11.dtd">
<svg version="1.1" id="Слой_1" xmlns="http://www.w3.org/2000/svg" xmlns:xlink="http://www.w3.org/1999/xlink" x="0px" y="0px"
	 width="15px" height="15px" viewBox="0 0 15 15" enable-background="new 0 0 15 15" xml:space="preserve">
<title>search</title>
<desc>Created with Sketch.</desc>
<g id="Page-1">
	<g id="futurity" transform="translate(-1164.000000, -44.000000)">
		<g id="header">
			<g id="search" transform="translate(1150.000000, 10.000000)">
				<path fill="#005689" d="M23.375,34c1.021,0,1.961,0.251,2.823,0.754s1.544,1.185,2.048,2.047C28.748,37.663,29,38.604,29,39.625
					s-0.252,1.962-0.754,2.823c-0.504,0.862-1.186,1.544-2.048,2.048c-0.862,0.502-1.803,0.754-2.823,0.754
					c-1.099,0-2.1-0.291-3.003-0.871l-4.233,4.255C15.885,48.878,15.589,49,15.252,49c-0.347,0-0.642-0.122-0.886-0.366
					S14,48.094,14,47.748c0-0.348,0.122-0.643,0.366-0.887l4.255-4.233c-0.581-0.903-0.872-1.904-0.872-3.003
					c0-1.021,0.251-1.962,0.754-2.823c0.503-0.862,1.185-1.544,2.047-2.047C21.414,34.251,22.354,34,23.375,34L23.375,34z
					 M23.375,43.375c0.508,0,0.992-0.099,1.454-0.297c0.462-0.197,0.86-0.465,1.197-0.802s0.604-0.736,0.802-1.197
					c0.198-0.462,0.297-0.946,0.297-1.454s-0.099-0.992-0.297-1.454c-0.197-0.461-0.465-0.86-0.802-1.197s-0.735-0.604-1.197-0.802
					c-0.462-0.198-0.946-0.297-1.454-0.297s-0.992,0.099-1.454,0.297c-0.461,0.197-0.86,0.465-1.197,0.802s-0.604,0.736-0.802,1.197
					c-0.198,0.462-0.297,0.946-0.297,1.454s0.099,0.992,0.297,1.454c0.198,0.461,0.465,0.86,0.802,1.197s0.736,0.604,1.197,0.802
					C22.383,43.276,22.867,43.375,23.375,43.375L23.375,43.375z"/>
			</g>
		</g>
	</g>
</g>
</svg>
